solid exported
	facet normal 0.5773502691896258 0.5773502691896258 0.5773502691896258
		outer loop
			vertex 0 1 0
			vertex 0 0 1
			vertex 1 0 0
		endloop
	endfacet
	facet normal 0.5773502691896258 -0.5773502691896258 0.5773502691896258
		outer loop
			vertex 0 0 1
			vertex 0 -1 0
			vertex 1 0 0
		endloop
	endfacet
	facet normal 0.5773502691896258 -0.5773502691896258 -0.5773502691896258
		outer loop
			vertex 0 -1 0
			vertex 0 0 -1
			vertex 1 0 0
		endloop
	endfacet
	facet normal 0.5773502691896258 0.5773502691896258 -0.5773502691896258
		outer loop
			vertex 0 0 -1
			vertex 0 1 0
			vertex 1 0 0
		endloop
	endfacet
	facet normal -0.5773502691896258 0.5773502691896258 -0.5773502691896258
		outer loop
			vertex 0 1 0
			vertex 0 0 -1
			vertex -1 0 0
		endloop
	endfacet
	facet normal -0.5773502691896258 -0.5773502691896258 -0.5773502691896258
		outer loop
			vertex 0 0 -1
			vertex 0 -1 0
			vertex -1 0 0
		endloop
	endfacet
	facet normal -0.5773502691896258 -0.5773502691896258 0.5773502691896258
		outer loop
			vertex 0 -1 0
			vertex 0 0 1
			vertex -1 0 0
		endloop
	endfacet
	facet normal -0.5773502691896258 0.5773502691896258 0.5773502691896258
		outer loop
			vertex 0 0 1
			vertex 0 1 0
			vertex -1 0 0
		endloop
	endfacet
endsolid exported
