solid exported
	facet normal -0.5773502691896257 0.5773502691896257 0.5773502691896257
		outer loop
			vertex -0.5773502588272095 -0.5773502588272095 0.5773502588272095
			vertex 0.5773502588272095 0.5773502588272095 0.5773502588272095
			vertex -0.5773502588272095 0.5773502588272095 -0.5773502588272095
		endloop
	endfacet
	facet normal 0.5773502691896257 0.5773502691896257 -0.5773502691896257
		outer loop
			vertex 0.5773502588272095 -0.5773502588272095 -0.5773502588272095
			vertex -0.5773502588272095 0.5773502588272095 -0.5773502588272095
			vertex 0.5773502588272095 0.5773502588272095 0.5773502588272095
		endloop
	endfacet
	facet normal 0.5773502691896257 -0.5773502691896257 0.5773502691896257
		outer loop
			vertex 0.5773502588272095 -0.5773502588272095 -0.5773502588272095
			vertex 0.5773502588272095 0.5773502588272095 0.5773502588272095
			vertex -0.5773502588272095 -0.5773502588272095 0.5773502588272095
		endloop
	endfacet
	facet normal -0.5773502691896257 -0.5773502691896257 -0.5773502691896257
		outer loop
			vertex 0.5773502588272095 -0.5773502588272095 -0.5773502588272095
			vertex -0.5773502588272095 -0.5773502588272095 0.5773502588272095
			vertex -0.5773502588272095 0.5773502588272095 -0.5773502588272095
		endloop
	endfacet
endsolid exported
