<svg xmlns="http://www.w3.org/2000/svg" width="215.9mm" height="279.4mm" viewBox="0 0 215.9 279.4">
<rect x="0" y="0" width="215.9" height="279.4" fill="none" stroke="#ccc" stroke-width="0.15" />
<line x1="19.531615995245673" y1="46.16763565418659" x2="39.273369060961514" y2="10" stroke="#000" stroke-width="0.3" />
<polygon points="19.531615995245673,46.16763565418659 39.273369060961514,10 19.870876532857913,11.145207687260312 10,29.22902551435361" fill="none" stroke="#666" stroke-width="0.2" />
<text x="30.982448277620996" y="28.94622134608362" font-size="3" text-anchor="middle" dominant-baseline="central" fill="#000">45</text>
<line x1="39.273369060961514" y1="10" x2="40.500446471203915" y2="45.44166989164945" stroke="#000" stroke-width="0.3" stroke-dasharray="2 1.5" />
<line x1="40.500446471203915" y1="45.44166989164945" x2="19.531615995245673" y2="46.16763565418659" stroke="#000" stroke-width="0.3" stroke-dasharray="2 1.5" />
<line x1="40.500446471203915" y1="45.44166989164945" x2="58.682449098201175" y2="13.936969258401973" stroke="#000" stroke-width="0.3" stroke-dasharray="2 1.5" />
<line x1="58.682449098201175" y1="13.936969258401973" x2="59.965404359544635" y2="50.99266487672205" stroke="#000" stroke-width="0.3" />
<text x="59.323926728872905" y="32.46481706756201" font-size="3" text-anchor="middle" dominant-baseline="central" fill="#000">38</text>
<line x1="59.965404359544635" y1="50.99266487672205" x2="40.500446471203915" y2="45.44166989164945" stroke="#000" stroke-width="0.3" />
<polygon points="59.965404359544635,50.99266487672205 40.500446471203915,45.44166989164945 43.14628794926006,54.61540179325389 52.87876689343041,57.390899285790184" fill="none" stroke="#666" stroke-width="0.2" />
<text x="50.72656655782829" y="46.48617968276304" font-size="3" text-anchor="middle" dominant-baseline="central" fill="#000">41</text>
<line x1="58.682449098201175" y1="13.936969258401973" x2="40.500446471203915" y2="45.44166989164945" stroke="#000" stroke-width="0.3" stroke-dasharray="2 1.5" />
<line x1="40.500446471203915" y1="45.44166989164945" x2="39.273369060961514" y2="10" stroke="#000" stroke-width="0.3" stroke-dasharray="2 1.5" />
<line x1="39.273369060961514" y1="10" x2="58.682449098201175" y2="13.936969258401973" stroke="#000" stroke-width="0.3" />
<text x="48.977909079581345" y="11.968484629200987" font-size="3" text-anchor="middle" dominant-baseline="central" fill="#000">35</text>
<line x1="19.531615995245673" y1="46.16763565418659" x2="47.38439307545089" y2="64.47609686146009" stroke="#000" stroke-width="0.3" stroke-dasharray="2 1.5" />
<line x1="47.38439307545089" y1="64.47609686146009" x2="14.592089554829851" y2="65.61141664723206" stroke="#000" stroke-width="0.3" />
<text x="30.98824131514037" y="65.04375675434608" font-size="3" text-anchor="middle" dominant-baseline="central" fill="#000">37</text>
<line x1="14.592089554829851" y1="65.61141664723206" x2="19.531615995245673" y2="46.16763565418659" stroke="#000" stroke-width="0.3" />
<text x="17.061852775037764" y="55.88952615070933" font-size="3" text-anchor="middle" dominant-baseline="central" fill="#000">40</text>
<line x1="47.38439307545089" y1="64.47609686146009" x2="19.531615995245673" y2="46.16763565418659" stroke="#000" stroke-width="0.3" stroke-dasharray="2 1.5" />
<line x1="19.531615995245673" y1="46.16763565418659" x2="40.500446471203915" y2="45.44166989164945" stroke="#000" stroke-width="0.3" stroke-dasharray="2 1.5" />
<line x1="40.500446471203915" y1="45.44166989164945" x2="47.38439307545089" y2="64.47609686146009" stroke="#000" stroke-width="0.3" />
<text x="43.9424197733274" y="54.958883376554766" font-size="3" text-anchor="middle" dominant-baseline="central" fill="#000">41</text>
</svg>