<svg xmlns="http://www.w3.org/2000/svg" width="215.9mm" height="279.4mm" viewBox="0 0 215.9 279.4">
<rect x="0" y="0" width="215.9" height="279.4" fill="none" stroke="#ccc" stroke-width="0.15" />
<line x1="157.91384319202407" y1="149.28913760443518" x2="190.74769222453708" y2="149.28913760443518" stroke="#000" stroke-width="0.3" stroke-dasharray="2 1.5" />
<line x1="190.74769222453708" y1="149.28913760443518" x2="164.174693870807" y2="168.5375110343425" stroke="#000" stroke-width="0.3" />
<polygon points="190.74769222453708,149.28913760443518 164.174693870807,168.5375110343425 178.51729283120244,174.3546170183577 191.80379200806746,164.73043030340403" fill="none" stroke="#666" stroke-width="0.2" />
<text x="176.40526460592721" y="157.45558115754093" font-size="3" text-anchor="middle" dominant-baseline="central" fill="#000">1</text>
<line x1="164.174693870807" y1="168.5375110343425" x2="157.91384319202407" y2="149.28913760443518" stroke="#000" stroke-width="0.3" />
<polygon points="164.174693870807,168.5375110343425 157.91384319202407,149.28913760443518 151.77970648975688,156.6055712334252 154.91013182914838,166.22975794837885" fill="none" stroke="#666" stroke-width="0.2" />
<text x="162.75599572192328" y="158.3565568407441" font-size="3" text-anchor="middle" dominant-baseline="central" fill="#000">2</text>
<line x1="190.74769222453708" y1="149.28913760443518" x2="157.91384319202407" y2="149.28913760443518" stroke="#000" stroke-width="0.3" stroke-dasharray="2 1.5" />
<line x1="157.91384319202407" y1="149.28913760443518" x2="174.90577396203074" y2="136.9808815734147" stroke="#000" stroke-width="0.3" stroke-dasharray="2 1.5" />
<line x1="174.90577396203074" y1="136.9808815734147" x2="190.74769222453708" y2="149.28913760443518" stroke="#000" stroke-width="0.3" />
<polygon points="174.90577396203074,136.9808815734147 190.74769222453708,149.28913760443518 191.71051507131867,139.87530629167753 183.78955594006553,133.7211782761673" fill="none" stroke="#666" stroke-width="0.2" />
<text x="181.72238009875792" y="144.55641891191448" font-size="3" text-anchor="middle" dominant-baseline="central" fill="#000">3</text>
<line x1="160.31590970903522" y1="41.89001039848769" x2="158.1931286297705" y2="82.91007684529937" stroke="#000" stroke-width="0.3" stroke-dasharray="2 1.5" />
<line x1="158.1931286297705" y1="82.91007684529937" x2="139.78990261723638" y2="76.14956280079576" stroke="#000" stroke-width="0.3" />
<text x="148.99151562350346" y="79.52981982304757" font-size="3" text-anchor="middle" dominant-baseline="central" fill="#000">8</text>
<line x1="139.78990261723638" y1="76.14956280079576" x2="160.31590970903522" y2="41.89001039848769" stroke="#000" stroke-width="0.3" stroke-dasharray="2 1.5" />
<line x1="158.1931286297705" y1="82.91007684529937" x2="160.31590970903522" y2="41.89001039848769" stroke="#000" stroke-width="0.3" stroke-dasharray="2 1.5" />
<line x1="160.31590970903522" y1="41.89001039848769" x2="179.51568191824003" y2="47.320999276295545" stroke="#000" stroke-width="0.3" />
<polygon points="160.31590970903522,41.89001039848769 179.51568191824003,47.320999276295545 176.88813441706196,38.28334317316166 167.28824831245956,35.56784873425775" fill="none" stroke="#666" stroke-width="0.2" />
<text x="169.425858336944" y="46.33754446422788" font-size="3" text-anchor="middle" dominant-baseline="central" fill="#000">9</text>
<line x1="179.51568191824003" y1="47.320999276295545" x2="158.1931286297705" y2="82.91007684529937" stroke="#000" stroke-width="0.3" />
<polygon points="179.51568191824003,47.320999276295545 158.1931286297705,82.91007684529937 177.75939797948942,82.54182876843623 188.42067462372418,64.74728998393431" fill="none" stroke="#666" stroke-width="0.2" />
<text x="167.31032699420413" y="64.1904314367555" font-size="3" text-anchor="middle" dominant-baseline="central" fill="#000">10</text>
<line x1="112.33010900198916" y1="40.197600519572504" x2="146.71246449789749" y2="30.044075192382728" stroke="#000" stroke-width="0.3" stroke-dasharray="2 1.5" />
<line x1="146.71246449789749" y1="30.044075192382728" x2="119.77942157408467" y2="60.97292066247728" stroke="#000" stroke-width="0.3" stroke-dasharray="2 1.5" />
<line x1="119.77942157408467" y1="60.97292066247728" x2="112.33010900198916" y2="40.197600519572504" stroke="#000" stroke-width="0.3" />
<polygon points="119.77942157408467,60.97292066247728 112.33010900198916,40.197600519572504 105.88230908785113,48.37115558413689 109.60696537389889,58.758815655589295" fill="none" stroke="#666" stroke-width="0.2" />
<text x="117.74913589158673" y="49.97771778773753" font-size="3" text-anchor="middle" dominant-baseline="central" fill="#000">11</text>
<line x1="146.71246449789749" y1="30.044075192382728" x2="112.33010900198916" y2="40.197600519572504" stroke="#000" stroke-width="0.3" stroke-dasharray="2 1.5" />
<line x1="112.33010900198916" y1="40.197600519572504" x2="136.27231649055926" y2="12.703310487379913" stroke="#000" stroke-width="0.3" />
<polygon points="112.33010900198916,40.197600519572504 136.27231649055926,12.703310487379913 119.2890486055397,10 107.31794486125465,23.747145016096315" fill="none" stroke="#666" stroke-width="0.2" />
<text x="125.65866799157398" y="27.63253640468735" font-size="3" text-anchor="middle" dominant-baseline="central" fill="#000">12</text>
<line x1="136.27231649055926" y1="12.703310487379913" x2="146.71246449789749" y2="30.044075192382728" stroke="#000" stroke-width="0.3" />
<polygon points="136.27231649055926,12.703310487379913 146.71246449789749,30.044075192382728 151.03873337806405,21.532824813196733 145.81865937439497,12.862442460695332" fill="none" stroke="#666" stroke-width="0.2" />
<text x="139.95030518904522" y="22.302117802674847" font-size="3" text-anchor="middle" dominant-baseline="central" fill="#000">13</text>
<line x1="43.51655583675294" y1="65.47746265692018" x2="20.156877044813776" y2="84.60208742230651" stroke="#000" stroke-width="0.3" stroke-dasharray="2 1.5" />
<line x1="20.156877044813776" y1="84.60208742230651" x2="25.804751502915067" y2="55.67997327395877" stroke="#000" stroke-width="0.3" />
<polygon points="20.156877044813776,84.60208742230651 25.804751502915067,55.67997327395877 12.823937229050662,60.65135202780519 10,75.11240910197907" fill="none" stroke="#666" stroke-width="0.2" />
<text x="24.747445249996233" y="70.48601584662724" font-size="3" text-anchor="middle" dominant-baseline="central" fill="#000">17</text>
<line x1="25.804751502915067" y1="55.67997327395877" x2="43.51655583675294" y2="65.47746265692018" stroke="#000" stroke-width="0.3" />
<polygon points="25.804751502915067,55.67997327395877 43.51655583675294,65.47746265692018 43.00760050647804,55.94336857764468 34.15169833955909,51.044623886163976" fill="none" stroke="#666" stroke-width="0.2" />
<text x="33.78937926745462" y="62.15379920644213" font-size="3" text-anchor="middle" dominant-baseline="central" fill="#000">18</text>
<line x1="20.156877044813776" y1="84.60208742230651" x2="43.51655583675294" y2="65.47746265692018" stroke="#000" stroke-width="0.3" stroke-dasharray="2 1.5" />
<line x1="43.51655583675294" y1="65.47746265692018" x2="40.059349204669374" y2="83.1813499369144" stroke="#000" stroke-width="0.3" stroke-dasharray="2 1.5" />
<line x1="40.059349204669374" y1="83.1813499369144" x2="20.156877044813776" y2="84.60208742230651" stroke="#000" stroke-width="0.3" />
<polygon points="40.059349204669374,83.1813499369144 20.156877044813776,84.60208742230651 25.700790078934524,92.20789191490073 35.65202615886231,91.49752317220467" fill="none" stroke="#666" stroke-width="0.2" />
<text x="29.97994631123891" y="82.09628745900729" font-size="3" text-anchor="middle" dominant-baseline="central" fill="#000">19</text>
<line x1="137.11037460919854" y1="120.56922502443646" x2="145.96450052269287" y2="165.6265590867279" stroke="#000" stroke-width="0.3" stroke-dasharray="2 1.5" />
<line x1="145.96450052269287" y1="165.6265590867279" x2="124.21363199223715" y2="135.59873415499126" stroke="#000" stroke-width="0.3" />
<polygon points="145.96450052269287,165.6265590867279 124.21363199223715,135.59873415499126 117.64021915215642,151.8060378001077 128.51565341738427,166.81995026597605" fill="none" stroke="#666" stroke-width="0.2" />
<text x="136.54681028197234" y="149.55671937004482" font-size="3" text-anchor="middle" dominant-baseline="central" fill="#000">20</text>
<line x1="124.21363199223715" y1="135.59873415499126" x2="137.11037460919854" y2="120.56922502443646" stroke="#000" stroke-width="0.3" />
<polygon points="124.21363199223715,135.59873415499126 137.11037460919854,120.56922502443646 127.87438530273627,119.1679052602906 121.42601399425558,126.682659825568" fill="none" stroke="#666" stroke-width="0.2" />
<text x="132.02802248812236" y="129.25615345891703" font-size="3" text-anchor="middle" dominant-baseline="central" fill="#000">21</text>
<line x1="145.96450052269287" y1="165.6265590867279" x2="137.11037460919854" y2="120.56922502443646" stroke="#000" stroke-width="0.3" stroke-dasharray="2 1.5" />
<line x1="137.11037460919854" y1="120.56922502443646" x2="157.91384319202407" y2="149.28913760443518" stroke="#000" stroke-width="0.3" stroke-dasharray="2 1.5" />
<line x1="157.91384319202407" y1="149.28913760443518" x2="145.96450052269287" y2="165.6265590867279" stroke="#000" stroke-width="0.3" />
<text x="151.93917185735847" y="157.45784834558154" font-size="3" text-anchor="middle" dominant-baseline="central" fill="#000">2</text>
<line x1="76.88408369661606" y1="52.36836159932819" x2="43.51655583675294" y2="65.47746265692018" stroke="#000" stroke-width="0.3" stroke-dasharray="2 1.5" />
<line x1="43.51655583675294" y1="65.47746265692018" x2="41.102225682042196" y2="45.380950002395906" stroke="#000" stroke-width="0.3" />
<text x="42.30939075939757" y="55.429206329658044" font-size="3" text-anchor="middle" dominant-baseline="central" fill="#000">18</text>
<line x1="41.102225682042196" y1="45.380950002395906" x2="76.88408369661606" y2="52.36836159932819" stroke="#000" stroke-width="0.3" />
<polygon points="41.102225682042196,45.380950002395906 76.88408369661606,52.36836159932819 70.7335838317455,36.30876549426558 52.842654824458585,32.815059695799434" fill="none" stroke="#666" stroke-width="0.2" />
<text x="58.64817038487107" y="50.6412870101634" font-size="3" text-anchor="middle" dominant-baseline="central" fill="#000">22</text>
<line x1="43.51655583675294" y1="65.47746265692018" x2="76.88408369661606" y2="52.36836159932819" stroke="#000" stroke-width="0.3" stroke-dasharray="2 1.5" />
<line x1="76.88408369661606" y1="52.36836159932819" x2="83.7682445187437" y2="73.33773246762195" stroke="#000" stroke-width="0.3" />
<polygon points="76.88408369661606,52.36836159932819 83.7682445187437,73.33773246762195 90.43495266052929,65.34172542169746 86.99287224946549,54.85703998755058" fill="none" stroke="#666" stroke-width="0.2" />
<text x="78.61596732949425" y="63.414497814829495" font-size="3" text-anchor="middle" dominant-baseline="central" fill="#000">23</text>
<line x1="83.7682445187437" y1="73.33773246762195" x2="43.51655583675294" y2="65.47746265692018" stroke="#000" stroke-width="0.3" stroke-dasharray="2 1.5" />
<line x1="40.059349204669374" y1="83.1813499369144" x2="66.932900371719" y2="114.24522442937423" stroke="#000" stroke-width="0.3" stroke-dasharray="2 1.5" />
<line x1="66.932900371719" y1="114.24522442937423" x2="28.24553838928388" y2="99.26117478342647" stroke="#000" stroke-width="0.3" />
<polygon points="66.932900371719,114.24522442937423 28.24553838928388,99.26117478342647 31.92375902651354,118.48213198788746 51.26744001773112,125.97415681086133" fill="none" stroke="#666" stroke-width="0.2" />
<text x="48.239321804676685" y="105.07469823968019" font-size="3" text-anchor="middle" dominant-baseline="central" fill="#000">24</text>
<line x1="28.24553838928388" y1="99.26117478342647" x2="40.059349204669374" y2="83.1813499369144" stroke="#000" stroke-width="0.3" />
<text x="34.15244379697663" y="91.22126236017044" font-size="3" text-anchor="middle" dominant-baseline="central" fill="#000">19</text>
<line x1="66.932900371719" y1="114.24522442937423" x2="40.059349204669374" y2="83.1813499369144" stroke="#000" stroke-width="0.3" stroke-dasharray="2 1.5" />
<line x1="40.059349204669374" y1="83.1813499369144" x2="77.30145300143901" y2="97.60562124362882" stroke="#000" stroke-width="0.3" stroke-dasharray="2 1.5" />
<line x1="77.30145300143901" y1="97.60562124362882" x2="66.932900371719" y2="114.24522442937423" stroke="#000" stroke-width="0.3" />
<polygon points="77.30145300143901,97.60562124362882 66.932900371719,114.24522442937423 76.18087980344716,114.2327446848259 81.36515611830718,105.91294309195317" fill="none" stroke="#666" stroke-width="0.2" />
<text x="70.58949375156827" y="104.97348541729951" font-size="3" text-anchor="middle" dominant-baseline="central" fill="#000">25</text>
<line x1="139.78990261723638" y1="76.14956280079576" x2="137.11037460919854" y2="120.56922502443646" stroke="#000" stroke-width="0.3" stroke-dasharray="2 1.5" />
<line x1="137.11037460919854" y1="120.56922502443646" x2="123.70692852796032" y2="112.32244614113007" stroke="#000" stroke-width="0.3" />
<text x="130.40865156857944" y="116.44583558278327" font-size="3" text-anchor="middle" dominant-baseline="central" fill="#000">27</text>
<line x1="123.70692852796032" y1="112.32244614113007" x2="139.78990261723638" y2="76.14956280079576" stroke="#000" stroke-width="0.3" stroke-dasharray="2 1.5" />
<line x1="139.78990261723638" y1="76.14956280079576" x2="123.70692852796032" y2="112.32244614113007" stroke="#000" stroke-width="0.3" stroke-dasharray="2 1.5" />
<line x1="123.70692852796032" y1="112.32244614113007" x2="119.76037779712883" y2="100.82854398026379" stroke="#000" stroke-width="0.3" />
<polygon points="123.70692852796032,112.32244614113007 119.76037779712883,100.82854398026379 116.1494546154902,105.28063981281296 118.12272998090594,111.02759089324609" fill="none" stroke="#666" stroke-width="0.2" />
<text x="123.43609284805936" y="105.99094470599316" font-size="3" text-anchor="middle" dominant-baseline="central" fill="#000">30</text>
<line x1="119.76037779712883" y1="100.82854398026379" x2="139.78990261723638" y2="76.14956280079576" stroke="#000" stroke-width="0.3" stroke-dasharray="2 1.5" />
<line x1="174.90577396203074" y1="136.9808815734147" x2="137.11037460919854" y2="120.56922502443646" stroke="#000" stroke-width="0.3" stroke-dasharray="2 1.5" />
<line x1="137.11037460919854" y1="120.56922502443646" x2="139.78990261723638" y2="76.14956280079576" stroke="#000" stroke-width="0.3" stroke-dasharray="2 1.5" />
<line x1="139.78990261723638" y1="76.14956280079576" x2="174.90577396203074" y2="136.9808815734147" stroke="#000" stroke-width="0.3" />
<text x="157.34783828963356" y="106.56522218710523" font-size="3" text-anchor="middle" dominant-baseline="central" fill="#000">44</text>
<line x1="137.11037460919854" y1="120.56922502443646" x2="174.90577396203074" y2="136.9808815734147" stroke="#000" stroke-width="0.3" stroke-dasharray="2 1.5" />
<line x1="174.90577396203074" y1="136.9808815734147" x2="157.91384319202407" y2="149.28913760443518" stroke="#000" stroke-width="0.3" stroke-dasharray="2 1.5" />
<line x1="157.91384319202407" y1="149.28913760443518" x2="137.11037460919854" y2="120.56922502443646" stroke="#000" stroke-width="0.3" stroke-dasharray="2 1.5" />
<line x1="104.31992569474124" y1="93.28119484900952" x2="77.30145300143901" y2="97.60562124362882" stroke="#000" stroke-width="0.3" />
<text x="90.81068934809014" y="95.44340804631918" font-size="3" text-anchor="middle" dominant-baseline="central" fill="#000">42</text>
<line x1="77.30145300143901" y1="97.60562124362882" x2="100.37337417459962" y2="81.78729038936281" stroke="#000" stroke-width="0.3" stroke-dasharray="2 1.5" />
<line x1="100.37337417459962" y1="81.78729038936281" x2="104.31992569474124" y2="93.28119484900952" stroke="#000" stroke-width="0.3" stroke-dasharray="2 1.5" />
<line x1="139.78990261723638" y1="76.14956280079576" x2="119.76037779712883" y2="100.82854398026379" stroke="#000" stroke-width="0.3" stroke-dasharray="2 1.5" />
<line x1="119.76037779712883" y1="100.82854398026379" x2="115.81382785560751" y2="89.33464411817796" stroke="#000" stroke-width="0.3" />
<text x="117.78710282636817" y="95.08159404922088" font-size="3" text-anchor="middle" dominant-baseline="central" fill="#000">31</text>
<line x1="115.81382785560751" y1="89.33464411817796" x2="139.78990261723638" y2="76.14956280079576" stroke="#000" stroke-width="0.3" stroke-dasharray="2 1.5" />
<line x1="100.37337417459962" y1="81.78729038936281" x2="77.30145300143901" y2="97.60562124362882" stroke="#000" stroke-width="0.3" stroke-dasharray="2 1.5" />
<line x1="77.30145300143901" y1="97.60562124362882" x2="40.059349204669374" y2="83.1813499369144" stroke="#000" stroke-width="0.3" stroke-dasharray="2 1.5" />
<line x1="40.059349204669374" y1="83.1813499369144" x2="100.37337417459962" y2="81.78729038936281" stroke="#000" stroke-width="0.3" stroke-dasharray="2 1.5" />
<line x1="139.78990261723638" y1="76.14956280079576" x2="115.81382785560751" y2="89.33464411817796" stroke="#000" stroke-width="0.3" stroke-dasharray="2 1.5" />
<line x1="115.81382785560751" y1="89.33464411817796" x2="111.86727633546587" y2="77.84073965853125" stroke="#000" stroke-width="0.3" />
<polygon points="115.81382785560751,89.33464411817796 111.86727633546587,77.84073965853125 108.25635243164261,82.29283638149958 110.22962819171342,88.03978861132293" fill="none" stroke="#666" stroke-width="0.2" />
<text x="115.54299178105148" y="83.00314153365083" font-size="3" text-anchor="middle" dominant-baseline="central" fill="#000">33</text>
<line x1="111.86727633546587" y1="77.84073965853125" x2="139.78990261723638" y2="76.14956280079576" stroke="#000" stroke-width="0.3" stroke-dasharray="2 1.5" />
<line x1="100.37337417459962" y1="81.78729038936281" x2="40.059349204669374" y2="83.1813499369144" stroke="#000" stroke-width="0.3" stroke-dasharray="2 1.5" />
<line x1="40.059349204669374" y1="83.1813499369144" x2="111.86727633546587" y2="77.84073965853125" stroke="#000" stroke-width="0.3" stroke-dasharray="2 1.5" />
<line x1="111.86727633546587" y1="77.84073965853125" x2="100.37337417459962" y2="81.78729038936281" stroke="#000" stroke-width="0.3" />
<polygon points="111.86727633546587,77.84073965853125 100.37337417459962,81.78729038936281 104.82547000714881,85.39821357100142 110.57242108758194,83.42493820558565" fill="none" stroke="#666" stroke-width="0.2" />
<text x="105.53577490032896" y="78.11157533843226" font-size="3" text-anchor="middle" dominant-baseline="central" fill="#000">34</text>
<line x1="139.78990261723638" y1="76.14956280079576" x2="111.86727633546587" y2="77.84073965853125" stroke="#000" stroke-width="0.3" stroke-dasharray="2 1.5" />
<line x1="111.86727633546587" y1="77.84073965853125" x2="160.31590970903522" y2="41.89001039848769" stroke="#000" stroke-width="0.3" stroke-dasharray="2 1.5" />
<line x1="160.31590970903522" y1="41.89001039848769" x2="139.78990261723638" y2="76.14956280079576" stroke="#000" stroke-width="0.3" stroke-dasharray="2 1.5" />
<line x1="111.86727633546587" y1="77.84073965853125" x2="40.059349204669374" y2="83.1813499369144" stroke="#000" stroke-width="0.3" stroke-dasharray="2 1.5" />
<line x1="40.059349204669374" y1="83.1813499369144" x2="83.7682445187437" y2="73.33773246762195" stroke="#000" stroke-width="0.3" stroke-dasharray="2 1.5" />
<line x1="83.7682445187437" y1="73.33773246762195" x2="111.86727633546587" y2="77.84073965853125" stroke="#000" stroke-width="0.3" stroke-dasharray="2 1.5" />
<line x1="83.7682445187437" y1="73.33773246762195" x2="40.059349204669374" y2="83.1813499369144" stroke="#000" stroke-width="0.3" stroke-dasharray="2 1.5" />
<line x1="40.059349204669374" y1="83.1813499369144" x2="43.51655583675294" y2="65.47746265692018" stroke="#000" stroke-width="0.3" stroke-dasharray="2 1.5" />
<line x1="43.51655583675294" y1="65.47746265692018" x2="83.7682445187437" y2="73.33773246762195" stroke="#000" stroke-width="0.3" stroke-dasharray="2 1.5" />
<line x1="160.31590970903522" y1="41.89001039848769" x2="111.86727633546587" y2="77.84073965853125" stroke="#000" stroke-width="0.3" stroke-dasharray="2 1.5" />
<line x1="111.86727633546587" y1="77.84073965853125" x2="119.77942157408467" y2="60.97292066247728" stroke="#000" stroke-width="0.3" stroke-dasharray="2 1.5" />
<line x1="119.77942157408467" y1="60.97292066247728" x2="160.31590970903522" y2="41.89001039848769" stroke="#000" stroke-width="0.3" stroke-dasharray="2 1.5" />
<line x1="119.77942157408467" y1="60.97292066247728" x2="111.86727633546587" y2="77.84073965853125" stroke="#000" stroke-width="0.3" stroke-dasharray="2 1.5" />
<line x1="111.86727633546587" y1="77.84073965853125" x2="83.7682445187437" y2="73.33773246762195" stroke="#000" stroke-width="0.3" stroke-dasharray="2 1.5" />
<line x1="83.7682445187437" y1="73.33773246762195" x2="119.77942157408467" y2="60.97292066247728" stroke="#000" stroke-width="0.3" />
<polygon points="83.7682445187437,73.33773246762195 119.77942157408467,60.97292066247728 105.83070258819154,49.65965279162706 87.82511406052107,55.8420586941994" fill="none" stroke="#666" stroke-width="0.2" />
<text x="102.35838340111796" y="68.85776625056441" font-size="3" text-anchor="middle" dominant-baseline="central" fill="#000">43</text>
<line x1="160.31590970903522" y1="41.89001039848769" x2="119.77942157408467" y2="60.97292066247728" stroke="#000" stroke-width="0.3" stroke-dasharray="2 1.5" />
<line x1="119.77942157408467" y1="60.97292066247728" x2="146.71246449789749" y2="30.044075192382728" stroke="#000" stroke-width="0.3" stroke-dasharray="2 1.5" />
<line x1="146.71246449789749" y1="30.044075192382728" x2="160.31590970903522" y2="41.89001039848769" stroke="#000" stroke-width="0.3" stroke-dasharray="2 1.5" />
<line x1="160.31590970903522" y1="41.89001039848769" x2="154.66982789937782" y2="11.432810359863126" stroke="#000" stroke-width="0.3" stroke-dasharray="2 1.5" />
<line x1="154.66982789937782" y1="11.432810359863126" x2="176.89320063171235" y2="30.78504219767087" stroke="#000" stroke-width="0.3" />
<text x="165.78151426554507" y="21.108926278766997" font-size="3" text-anchor="middle" dominant-baseline="central" fill="#000">39</text>
<line x1="176.89320063171235" y1="30.78504219767087" x2="160.31590970903522" y2="41.89001039848769" stroke="#000" stroke-width="0.3" />
<text x="168.60455517037377" y="36.33752629807928" font-size="3" text-anchor="middle" dominant-baseline="central" fill="#000">9</text>
<line x1="154.66982789937782" y1="11.432810359863126" x2="160.31590970903522" y2="41.89001039848769" stroke="#000" stroke-width="0.3" stroke-dasharray="2 1.5" />
<line x1="160.31590970903522" y1="41.89001039848769" x2="146.71246449789749" y2="30.044075192382728" stroke="#000" stroke-width="0.3" stroke-dasharray="2 1.5" />
<line x1="146.71246449789749" y1="30.044075192382728" x2="154.66982789937782" y2="11.432810359863126" stroke="#000" stroke-width="0.3" />
<text x="150.69114619863765" y="20.738442776122927" font-size="3" text-anchor="middle" dominant-baseline="central" fill="#000">13</text>
<line x1="100.37337417459962" y1="81.78729038936281" x2="115.81382785560751" y2="89.33464411817803" stroke="#000" stroke-width="0.3" stroke-dasharray="2 1.5" />
<line x1="115.81382785560751" y1="89.33464411817803" x2="104.31992569474124" y2="93.28119484900952" stroke="#000" stroke-width="0.3" />
<text x="110.06687677517438" y="91.30791948359378" font-size="3" text-anchor="middle" dominant-baseline="central" fill="#000">32</text>
<line x1="104.31992569474124" y1="93.28119484900952" x2="100.37337417459962" y2="81.78729038936281" stroke="#000" stroke-width="0.3" stroke-dasharray="2 1.5" />
<line x1="115.81382785560751" y1="89.33464411817803" x2="100.37337417459962" y2="81.78729038936281" stroke="#000" stroke-width="0.3" stroke-dasharray="2 1.5" />
<line x1="100.37337417459962" y1="81.78729038936281" x2="111.86727633546589" y2="77.84073965853133" stroke="#000" stroke-width="0.3" />
<text x="106.12032525503275" y="79.81401502394706" font-size="3" text-anchor="middle" dominant-baseline="central" fill="#000">34</text>
<line x1="111.86727633546589" y1="77.84073965853133" x2="115.81382785560751" y2="89.33464411817803" stroke="#000" stroke-width="0.3" />
<text x="113.84055209553671" y="83.58769188835468" font-size="3" text-anchor="middle" dominant-baseline="central" fill="#000">33</text>
<line x1="22.488578401266825" y1="199.3335759982979" x2="40.76493228537747" y2="225.62077286700736" stroke="#000" stroke-width="0.3" stroke-dasharray="2 1.5" />
<line x1="40.76493228537747" y1="225.62077286700736" x2="21.381219547139416" y2="228.47872414997607" stroke="#000" stroke-width="0.3" stroke-dasharray="2 1.5" />
<line x1="21.381219547139416" y1="228.47872414997607" x2="22.488578401266825" y2="199.3335759982979" stroke="#000" stroke-width="0.3" />
<polygon points="21.381219547139416,228.47872414997607 22.488578401266825,199.3335759982979 10.553679427063697,206.17691949456648 10,220.74949357040558" fill="none" stroke="#666" stroke-width="0.2" />
<text x="23.733601147089743" y="213.97449108124795" font-size="3" text-anchor="middle" dominant-baseline="central" fill="#000">4</text>
<line x1="40.76493228537747" y1="225.62077286700736" x2="22.488578401266825" y2="199.3335759982979" stroke="#000" stroke-width="0.3" stroke-dasharray="2 1.5" />
<line x1="22.488578401266825" y1="199.3335759982979" x2="41.59954380072487" y2="203.6540961713931" stroke="#000" stroke-width="0.3" />
<polygon points="22.488578401266825,199.3335759982979 41.59954380072487,203.6540961713931 38.550010520098425,194.92957996833607 28.994527820369417,192.76931988178848" fill="none" stroke="#666" stroke-width="0.2" />
<text x="31.647142173363697" y="203.24952835995734" font-size="3" text-anchor="middle" dominant-baseline="central" fill="#000">5</text>
<line x1="41.59954380072487" y1="203.6540961713931" x2="40.76493228537747" y2="225.62077286700736" stroke="#000" stroke-width="0.3" />
<polygon points="41.59954380072487,203.6540961713931 40.76493228537747,225.62077286700736 49.760255842460026,220.46294829924275 50.17756160013373,209.4796099514356" fill="none" stroke="#666" stroke-width="0.2" />
<text x="39.38353585762183" y="214.56909384220833" font-size="3" text-anchor="middle" dominant-baseline="central" fill="#000">6</text>
<line x1="88.58072208254913" y1="247.63561893412623" x2="93.82693701094739" y2="203.60373433356264" stroke="#000" stroke-width="0.3" stroke-dasharray="2 1.5" />
<line x1="93.82693701094739" y1="203.60373433356264" x2="103.29865087184145" y2="231.18907653183737" stroke="#000" stroke-width="0.3" />
<polygon points="93.82693701094739,203.60373433356264 103.29865087184145,231.18907653183737 111.96485928592782,220.50405543791106 107.2290023554808,206.7113843387737" fill="none" stroke="#666" stroke-width="0.2" />
<text x="96.86035425587963" y="217.9809557874038" font-size="3" text-anchor="middle" dominant-baseline="central" fill="#000">14</text>
<line x1="103.29865087184145" y1="231.18907653183737" x2="88.58072208254913" y2="247.63561893412623" stroke="#000" stroke-width="0.3" />
<text x="95.9396864771953" y="239.4123477329818" font-size="3" text-anchor="middle" dominant-baseline="central" fill="#000">11</text>
<line x1="93.82693701094739" y1="203.60373433356264" x2="88.58072208254913" y2="247.63561893412623" stroke="#000" stroke-width="0.3" stroke-dasharray="2 1.5" />
<line x1="88.58072208254913" y1="247.63561893412623" x2="76.77610934071843" y2="213.25596106186268" stroke="#000" stroke-width="0.3" stroke-dasharray="2 1.5" />
<line x1="76.77610934071843" y1="213.25596106186268" x2="93.82693701094739" y2="203.60373433356264" stroke="#000" stroke-width="0.3" stroke-dasharray="2 1.5" />
<line x1="93.82693701094739" y1="203.60373433356264" x2="62.62346709100084" y2="196.43531366698807" stroke="#000" stroke-width="0.3" stroke-dasharray="2 1.5" />
<line x1="62.62346709100084" y1="196.43531366698807" x2="75.04936069968416" y2="181.2862852792964" stroke="#000" stroke-width="0.3" />
<text x="68.8364138953425" y="188.86079947314224" font-size="3" text-anchor="middle" dominant-baseline="central" fill="#000">5</text>
<line x1="75.04936069968416" y1="181.2862852792964" x2="93.82693701094739" y2="203.60373433356264" stroke="#000" stroke-width="0.3" />
<polygon points="75.04936069968416,181.2862852792964 93.82693701094739,203.60373433356264 98.05952255483808,190.5133415454908 88.67073439920645,179.3546170183577" fill="none" stroke="#666" stroke-width="0.2" />
<text x="83.0608203237096" y="193.60387395550984" font-size="3" text-anchor="middle" dominant-baseline="central" fill="#000">15</text>
<line x1="62.62346709100084" y1="196.43531366698807" x2="93.82693701094739" y2="203.60373433356264" stroke="#000" stroke-width="0.3" stroke-dasharray="2 1.5" />
<line x1="93.82693701094739" y1="203.60373433356264" x2="76.77610934071843" y2="213.25596106186268" stroke="#000" stroke-width="0.3" stroke-dasharray="2 1.5" />
<line x1="76.77610934071843" y1="213.25596106186268" x2="62.62346709100084" y2="196.43531366698807" stroke="#000" stroke-width="0.3" />
<polygon points="76.77610934071843,213.25596106186268 62.62346709100084,196.43531366698807 59.43336869548039,206.30153241559375 66.50968982033919,214.71185611303105" fill="none" stroke="#666" stroke-width="0.2" />
<text x="71.07711696015431" y="203.68677346812882" font-size="3" text-anchor="middle" dominant-baseline="central" fill="#000">16</text>
<line x1="40.76493228537747" y1="225.62077286700736" x2="30.852933408033447" y2="256.06406634825083" stroke="#000" stroke-width="0.3" stroke-dasharray="2 1.5" />
<line x1="30.852933408033447" y1="256.06406634825083" x2="21.381219547139416" y2="228.47872414997607" stroke="#000" stroke-width="0.3" />
<polygon points="30.852933408033447,256.06406634825083 21.381219547139416,228.47872414997607 12.715011133053018,239.16374524390238 17.450868063500042,252.95641634303973" fill="none" stroke="#666" stroke-width="0.2" />
<text x="27.81951616310122" y="241.6868448944097" font-size="3" text-anchor="middle" dominant-baseline="central" fill="#000">26</text>
<line x1="21.381219547139416" y1="228.47872414997607" x2="40.76493228537747" y2="225.62077286700736" stroke="#000" stroke-width="0.3" stroke-dasharray="2 1.5" />
<line x1="30.852933408033447" y1="256.06406634825083" x2="40.76493228537747" y2="225.62077286700736" stroke="#000" stroke-width="0.3" stroke-dasharray="2 1.5" />
<line x1="40.76493228537747" y1="225.62077286700736" x2="52.56954502720816" y2="260.0004307392709" stroke="#000" stroke-width="0.3" stroke-dasharray="2 1.5" />
<line x1="52.56954502720816" y1="260.0004307392709" x2="30.852933408033447" y2="256.06406634825083" stroke="#000" stroke-width="0.3" />
<text x="41.7112392176208" y="258.03224854376083" font-size="3" text-anchor="middle" dominant-baseline="central" fill="#000">23</text>
<line x1="40.76493228537747" y1="225.62077286700736" x2="88.58072208254913" y2="247.63561893412623" stroke="#000" stroke-width="0.3" stroke-dasharray="2 1.5" />
<line x1="88.58072208254913" y1="247.63561893412623" x2="52.56954502720816" y2="260.0004307392709" stroke="#000" stroke-width="0.3" />
<text x="70.57513355487865" y="253.81802483669856" font-size="3" text-anchor="middle" dominant-baseline="central" fill="#000">43</text>
<line x1="52.56954502720816" y1="260.0004307392709" x2="40.76493228537747" y2="225.62077286700736" stroke="#000" stroke-width="0.3" stroke-dasharray="2 1.5" />
<line x1="88.58072208254913" y1="247.63561893412623" x2="40.76493228537747" y2="225.62077286700736" stroke="#000" stroke-width="0.3" stroke-dasharray="2 1.5" />
<line x1="40.76493228537747" y1="225.62077286700736" x2="76.77610934071843" y2="213.25596106186268" stroke="#000" stroke-width="0.3" stroke-dasharray="2 1.5" />
<line x1="76.77610934071843" y1="213.25596106186268" x2="88.58072208254913" y2="247.63561893412623" stroke="#000" stroke-width="0.3" stroke-dasharray="2 1.5" />
<line x1="76.77610934071843" y1="213.25596106186268" x2="40.76493228537747" y2="225.62077286700736" stroke="#000" stroke-width="0.3" stroke-dasharray="2 1.5" />
<line x1="40.76493228537747" y1="225.62077286700736" x2="55.20110247005473" y2="209.0428220940611" stroke="#000" stroke-width="0.3" />
<text x="47.983017377716095" y="217.33179748053425" font-size="3" text-anchor="middle" dominant-baseline="central" fill="#000">6</text>
<line x1="55.20110247005473" y1="209.0428220940611" x2="76.77610934071843" y2="213.25596106186268" stroke="#000" stroke-width="0.3" />
<text x="65.98860590538658" y="211.1493915779619" font-size="3" text-anchor="middle" dominant-baseline="central" fill="#000">16</text>
<line x1="167.63429030357116" y1="252.4356837857557" x2="151.02903933521776" y2="185.14369855419986" stroke="#000" stroke-width="0.3" stroke-dasharray="2 1.5" />
<line x1="151.02903933521776" y1="185.14369855419986" x2="187.11996679600475" y2="247.66410622761992" stroke="#000" stroke-width="0.3" />
<polygon points="151.02903933521776,185.14369855419986 187.11996679600475,247.66410622761992 203.10539800017602,217.5976333249501 185.05993426978256,186.33742948824008" fill="none" stroke="#666" stroke-width="0.2" />
<text x="167.51560069354053" y="217.30380427131257" font-size="3" text-anchor="middle" dominant-baseline="central" fill="#000">7</text>
<line x1="187.11996679600475" y1="247.66410622761992" x2="167.63429030357116" y2="252.4356837857557" stroke="#000" stroke-width="0.3" />
<text x="177.37712854978795" y="250.04989500668782" font-size="3" text-anchor="middle" dominant-baseline="central" fill="#000">3</text>
<line x1="151.02903933521776" y1="185.14369855419986" x2="167.63429030357116" y2="252.4356837857557" stroke="#000" stroke-width="0.3" stroke-dasharray="2 1.5" />
<line x1="167.63429030357116" y1="252.4356837857557" x2="132.5184189587768" y2="191.60436501313677" stroke="#000" stroke-width="0.3" />
<polygon points="167.63429030357116,252.4356837857557 132.5184189587768,191.60436501313677 116.96485928592782,220.85854324420924 134.522794958325,251.27420263051872" fill="none" stroke="#666" stroke-width="0.2" />
<text x="151.63525702469843" y="221.12012255620795" font-size="3" text-anchor="middle" dominant-baseline="central" fill="#000">44</text>
<line x1="132.5184189587768" y1="191.60436501313677" x2="151.02903933521776" y2="185.14369855419986" stroke="#000" stroke-width="0.3" />
<polygon points="132.5184189587768,191.60436501313677 151.02903933521776,185.14369855419986 143.81711765753278,179.3546170183577 134.5618074693123,182.58495024782616" fill="none" stroke="#666" stroke-width="0.2" />
<text x="142.36688330986635" y="190.07349291563668" font-size="3" text-anchor="middle" dominant-baseline="central" fill="#000">8</text>
</svg>