<svg xmlns="http://www.w3.org/2000/svg" width="215.9mm" height="279.4mm" viewBox="0 0 215.9 279.4">
<rect x="0" y="0" width="215.9" height="279.4" fill="none" stroke="#ccc" stroke-width="0.15" />
<line x1="173.59375761567006" y1="116.97427850753013" x2="153.85200454995422" y2="153.1419141617167" stroke="#000" stroke-width="0.3" />
<text x="163.72288108281214" y="135.05809633462343" font-size="3" text-anchor="middle" dominant-baseline="central" fill="#000">45</text>
<line x1="153.85200454995422" y1="153.1419141617167" x2="144.1925288695903" y2="83.5698774407712" stroke="#000" stroke-width="0.3" stroke-dasharray="2 1.5" />
<line x1="144.1925288695903" y1="83.5698774407712" x2="173.59375761567006" y2="116.97427850753013" stroke="#000" stroke-width="0.3" stroke-dasharray="2 1.5" />
<line x1="173.59375761567006" y1="116.97427850753013" x2="144.1925288695903" y2="83.5698774407712" stroke="#000" stroke-width="0.3" stroke-dasharray="2 1.5" />
<line x1="144.1925288695903" y1="83.5698774407712" x2="179.1041022352453" y2="102.23325306910398" stroke="#000" stroke-width="0.3" stroke-dasharray="2 1.5" />
<line x1="179.1041022352453" y1="102.23325306910398" x2="173.59375761567006" y2="116.97427850753013" stroke="#000" stroke-width="0.3" stroke-dasharray="2 1.5" />
<line x1="173.59375761567006" y1="116.97427850753013" x2="179.1041022352453" y2="102.23325306910398" stroke="#000" stroke-width="0.3" stroke-dasharray="2 1.5" />
<line x1="179.1041022352453" y1="102.23325306910398" x2="204.00145047734983" y2="106.5334812215789" stroke="#000" stroke-width="0.3" stroke-dasharray="2 1.5" />
<line x1="204.00145047734983" y1="106.5334812215789" x2="173.59375761567006" y2="116.97427850753013" stroke="#000" stroke-width="0.3" stroke-dasharray="2 1.5" />
<line x1="179.1041022352453" y1="102.23325306910398" x2="144.1925288695903" y2="83.5698774407712" stroke="#000" stroke-width="0.3" stroke-dasharray="2 1.5" />
<line x1="144.1925288695903" y1="83.5698774407712" x2="175.15755150441382" y2="90.7393509082377" stroke="#000" stroke-width="0.3" stroke-dasharray="2 1.5" />
<line x1="175.15755150441382" y1="90.7393509082377" x2="179.1041022352453" y2="102.23325306910398" stroke="#000" stroke-width="0.3" stroke-dasharray="2 1.5" />
<line x1="190.5980043961116" y1="98.28670233827249" x2="204.00145047734983" y2="106.5334812215789" stroke="#000" stroke-width="0.3" />
<polygon points="190.5980043961116,98.28670233827249 204.00145047734983,106.5334812215789 203.9493005103628,99.110408068257 197.24757746974373,94.9870186266038" fill="none" stroke="#666" stroke-width="0.2" />
<text x="196.35647615239827" y="103.9431531011406" font-size="3" text-anchor="middle" dominant-baseline="central" fill="#000">27</text>
<line x1="204.00145047734983" y1="106.5334812215789" x2="179.1041022352453" y2="102.23325306910398" stroke="#000" stroke-width="0.3" stroke-dasharray="2 1.5" />
<line x1="179.1041022352453" y1="102.23325306910398" x2="190.5980043961116" y2="98.28670233827249" stroke="#000" stroke-width="0.3" />
<polygon points="179.1041022352453,102.23325306910398 190.5980043961116,98.28670233827249 186.14590856356241,94.67577915663388 180.3989574831293,96.6490545220496" fill="none" stroke="#666" stroke-width="0.2" />
<text x="185.43560367038225" y="101.96241738920303" font-size="3" text-anchor="middle" dominant-baseline="central" fill="#000">28</text>
<line x1="175.15755150441382" y1="90.7393509082377" x2="144.1925288695903" y2="83.5698774407712" stroke="#000" stroke-width="0.3" stroke-dasharray="2 1.5" />
<line x1="144.1925288695903" y1="83.5698774407712" x2="186.65145366528012" y2="86.79280017740624" stroke="#000" stroke-width="0.3" stroke-dasharray="2 1.5" />
<line x1="186.65145366528012" y1="86.79280017740624" x2="175.15755150441382" y2="90.7393509082377" stroke="#000" stroke-width="0.3" />
<polygon points="186.65145366528012,86.79280017740624 175.15755150441382,90.7393509082377 179.60964733696298,94.35027408987634 185.35659841739613,92.37699872446059" fill="none" stroke="#666" stroke-width="0.2" />
<text x="180.3199522301432" y="87.06363585730718" font-size="3" text-anchor="middle" dominant-baseline="central" fill="#000">29</text>
<line x1="186.65145366528012" y1="86.79280017740624" x2="144.1925288695903" y2="83.5698774407712" stroke="#000" stroke-width="0.3" stroke-dasharray="2 1.5" />
<line x1="144.1925288695903" y1="83.5698774407712" x2="171.21100156289248" y2="79.24545104615189" stroke="#000" stroke-width="0.3" />
<polygon points="144.1925288695903,83.5698774407712 171.21100156289248,79.24545104615189 162.72661283171922,69.51916856748582 149.21737648506812,71.68138176479547" fill="none" stroke="#666" stroke-width="0.2" />
<text x="157.98624245523277" y="83.18504228442407" font-size="3" text-anchor="middle" dominant-baseline="central" fill="#000">42</text>
<line x1="171.21100156289248" y1="79.24545104615189" x2="186.65145366528012" y2="86.79280017740624" stroke="#000" stroke-width="0.3" stroke-dasharray="2 1.5" />
<line x1="182.70490372375875" y1="75.2989003153204" x2="186.65145366528012" y2="86.79280017740624" stroke="#000" stroke-width="0.3" />
<polygon points="182.70490372375875,75.2989003153204 186.65145366528012,86.79280017740624 190.26237612473412,82.34070523527623 188.2891011539734,76.59375530423331" fill="none" stroke="#666" stroke-width="0.2" />
<text x="182.97573900900466" y="81.6304006010671" font-size="3" text-anchor="middle" dominant-baseline="central" fill="#000">31</text>
<line x1="186.65145366528012" y1="86.79280017740624" x2="171.21100156289248" y2="79.24545104615189" stroke="#000" stroke-width="0.3" stroke-dasharray="2 1.5" />
<line x1="171.21100156289248" y1="79.24545104615189" x2="182.70490372375875" y2="75.2989003153204" stroke="#000" stroke-width="0.3" />
<polygon points="171.21100156289248,79.24545104615189 182.70490372375875,75.2989003153204 178.2528078912096,71.68797713368176 172.5058568107765,73.66125249909751" fill="none" stroke="#666" stroke-width="0.2" />
<text x="177.54250299802936" y="78.97461536625093" font-size="3" text-anchor="middle" dominant-baseline="central" fill="#000">32</text>
<line x1="204.00145047734983" y1="106.5334812215789" x2="184.20538610428872" y2="133.6956856149812" stroke="#000" stroke-width="0.3" stroke-dasharray="2 1.5" />
<line x1="184.20538610428872" y1="133.6956856149812" x2="173.59375761567006" y2="116.97427850753013" stroke="#000" stroke-width="0.3" />
<polygon points="184.20538610428872,133.6956856149812 173.59375761567006,116.97427850753013 169.5581018948443,125.39928167984034 174.86391613915364,133.75998523356589" fill="none" stroke="#666" stroke-width="0.2" />
<text x="180.41936620261322" y="124.37050025422234" font-size="3" text-anchor="middle" dominant-baseline="central" fill="#000">35</text>
<line x1="173.59375761567006" y1="116.97427850753013" x2="204.00145047734983" y2="106.5334812215789" stroke="#000" stroke-width="0.3" stroke-dasharray="2 1.5" />
<line x1="184.20538610428872" y1="133.6956856149812" x2="204.00145047734983" y2="106.5334812215789" stroke="#000" stroke-width="0.3" stroke-dasharray="2 1.5" />
<line x1="204.00145047734983" y1="106.5334812215789" x2="205.9" y2="126.2466145225948" stroke="#000" stroke-width="0.3" />
<text x="204.95072523867492" y="116.39004787208685" font-size="3" text-anchor="middle" dominant-baseline="central" fill="#000">21</text>
<line x1="205.9" y1="126.2466145225948" x2="184.20538610428872" y2="133.6956856149812" stroke="#000" stroke-width="0.3" />
<polygon points="205.9,126.2466145225948 184.20538610428872,133.6956856149812 192.6086680151711,140.51126340016913 203.45597496302673,136.78672785397595" fill="none" stroke="#666" stroke-width="0.2" />
<text x="194.4681426974406" y="128.26871038327323" font-size="3" text-anchor="middle" dominant-baseline="central" fill="#000">36</text>
<line x1="28.360466603072833" y1="155.46406440326115" x2="71.91985796165417" y2="131.92740403174804" stroke="#000" stroke-width="0.3" stroke-dasharray="2 1.5" />
<line x1="71.91985796165417" y1="131.92740403174804" x2="59.172211416054466" y2="166.74504409405924" stroke="#000" stroke-width="0.3" />
<text x="65.54603468885432" y="149.33622406290363" font-size="3" text-anchor="middle" dominant-baseline="central" fill="#000">20</text>
<line x1="59.172211416054466" y1="166.74504409405924" x2="28.360466603072833" y2="155.46406440326115" stroke="#000" stroke-width="0.3" />
<text x="43.76633900956365" y="161.10455424866018" font-size="3" text-anchor="middle" dominant-baseline="central" fill="#000">1</text>
<line x1="71.91985796165417" y1="131.92740403174804" x2="28.360466603072833" y2="155.46406440326115" stroke="#000" stroke-width="0.3" stroke-dasharray="2 1.5" />
<line x1="28.360466603072833" y1="155.46406440326115" x2="46.053774203282835" y2="85.4761848326185" stroke="#000" stroke-width="0.3" />
<text x="37.20712040317783" y="120.47012461793983" font-size="3" text-anchor="middle" dominant-baseline="central" fill="#000">7</text>
<line x1="46.053774203282835" y1="85.4761848326185" x2="71.91985796165417" y2="131.92740403174804" stroke="#000" stroke-width="0.3" stroke-dasharray="2 1.5" />
<line x1="71.91985796165417" y1="131.92740403174804" x2="46.053774203282835" y2="85.4761848326185" stroke="#000" stroke-width="0.3" stroke-dasharray="2 1.5" />
<line x1="46.053774203282835" y1="85.4761848326185" x2="94.82323793131624" y2="133.18443155280704" stroke="#000" stroke-width="0.3" stroke-dasharray="2 1.5" />
<line x1="94.82323793131624" y1="133.18443155280704" x2="71.91985796165417" y2="131.92740403174804" stroke="#000" stroke-width="0.3" />
<text x="83.37154794648521" y="132.55591779227754" font-size="3" text-anchor="middle" dominant-baseline="central" fill="#000">36</text>
<line x1="125.61749780329137" y1="89.84295473189188" x2="94.82323793131624" y2="133.18443155280704" stroke="#000" stroke-width="0.3" stroke-dasharray="2 1.5" />
<line x1="94.82323793131624" y1="133.18443155280704" x2="46.053774203282835" y2="85.4761848326185" stroke="#000" stroke-width="0.3" stroke-dasharray="2 1.5" />
<line x1="46.053774203282835" y1="85.4761848326185" x2="125.61749780329137" y2="89.84295473189188" stroke="#000" stroke-width="0.3" stroke-dasharray="2 1.5" />
<line x1="125.61749780329137" y1="89.84295473189188" x2="46.053774203282835" y2="85.4761848326185" stroke="#000" stroke-width="0.3" stroke-dasharray="2 1.5" />
<line x1="46.053774203282835" y1="85.4761848326185" x2="15.84219121006516" y2="57.04215638084767" stroke="#000" stroke-width="0.3" />
<text x="30.947982706673997" y="71.25917060673308" font-size="3" text-anchor="middle" dominant-baseline="central" fill="#000">10</text>
<line x1="15.84219121006516" y1="57.04215638084767" x2="125.61749780329137" y2="89.84295473189188" stroke="#000" stroke-width="0.3" stroke-dasharray="2 1.5" />
<line x1="135.54518430175028" y1="161.34678303093293" x2="94.82323793131624" y2="133.18443155280704" stroke="#000" stroke-width="0.3" stroke-dasharray="2 1.5" />
<line x1="94.82323793131624" y1="133.18443155280704" x2="125.61749780329137" y2="89.84295473189188" stroke="#000" stroke-width="0.3" stroke-dasharray="2 1.5" />
<line x1="125.61749780329137" y1="89.84295473189188" x2="135.54518430175028" y2="161.34678303093293" stroke="#000" stroke-width="0.3" stroke-dasharray="2 1.5" />
<line x1="94.82323793131624" y1="133.18443155280704" x2="135.54518430175028" y2="161.34678303093293" stroke="#000" stroke-width="0.3" stroke-dasharray="2 1.5" />
<line x1="135.54518430175028" y1="161.34678303093293" x2="103.6839369327874" y2="169.18802255656" stroke="#000" stroke-width="0.3" />
<polygon points="135.54518430175028,161.34678303093293 103.6839369327874,169.18802255656 114.78574458527896,179.97221162273837 130.7163682697604,176.05159185992486" fill="none" stroke="#666" stroke-width="0.2" />
<text x="119.18440542188081" y="163.51955654539375" font-size="3" text-anchor="middle" dominant-baseline="central" fill="#000">37</text>
<line x1="103.6839369327874" y1="169.18802255656" x2="94.82323793131624" y2="133.18443155280704" stroke="#000" stroke-width="0.3" />
<polygon points="103.6839369327874,169.18802255656 94.82323793131624,133.18443155280704 82.63697628018284,145.72960890433373 87.06732578091842,163.7314044062102" fill="none" stroke="#666" stroke-width="0.2" />
<text x="101.00143363023102" y="150.75607165542579" font-size="3" text-anchor="middle" dominant-baseline="central" fill="#000">38</text>
<line x1="125.61749780329137" y1="89.84295473189188" x2="15.84219121006516" y2="57.04215638084767" stroke="#000" stroke-width="0.3" stroke-dasharray="2 1.5" />
<line x1="15.84219121006516" y1="57.04215638084767" x2="158.75938706121" y2="64.88601386631203" stroke="#000" stroke-width="0.3" stroke-dasharray="2 1.5" />
<line x1="158.75938706121" y1="64.88601386631203" x2="125.61749780329137" y2="89.84295473189188" stroke="#000" stroke-width="0.3" />
<text x="142.18844243225067" y="77.36448429910195" font-size="3" text-anchor="middle" dominant-baseline="central" fill="#000">24</text>
<line x1="158.75938706121" y1="64.88601386631203" x2="15.84219121006516" y2="57.04215638084767" stroke="#000" stroke-width="0.3" stroke-dasharray="2 1.5" />
<line x1="15.84219121006516" y1="57.04215638084767" x2="62.47968261661241" y2="52.29928725707851" stroke="#000" stroke-width="0.3" stroke-dasharray="2 1.5" />
<line x1="62.47968261661241" y1="52.29928725707851" x2="158.75938706121" y2="64.88601386631203" stroke="#000" stroke-width="0.3" stroke-dasharray="2 1.5" />
<line x1="62.47968261661241" y1="52.29928725707851" x2="15.84219121006516" y2="57.04215638084767" stroke="#000" stroke-width="0.3" stroke-dasharray="2 1.5" />
<line x1="15.84219121006516" y1="57.04215638084767" x2="31.952786546504917" y2="32.36755627040992" stroke="#000" stroke-width="0.3" />
<polygon points="15.84219121006516,57.04215638084767 31.952786546504917,32.36755627040992 18.05529766821986,32.091968163443454 10,44.42926821866233" fill="none" stroke="#666" stroke-width="0.2" />
<text x="25.404671674645552" y="45.68892950296618" font-size="3" text-anchor="middle" dominant-baseline="central" fill="#000">39</text>
<line x1="31.952786546504917" y1="32.36755627040992" x2="62.47968261661241" y2="52.29928725707851" stroke="#000" stroke-width="0.3" />
<text x="47.216234581558666" y="42.33342176374421" font-size="3" text-anchor="middle" dominant-baseline="central" fill="#000">12</text>
<line x1="158.75938706121" y1="64.88601386631203" x2="62.47968261661241" y2="52.29928725707851" stroke="#000" stroke-width="0.3" stroke-dasharray="2 1.5" />
<line x1="62.47968261661241" y1="52.29928725707851" x2="112.92107012681647" y2="55.06770887802312" stroke="#000" stroke-width="0.3" stroke-dasharray="2 1.5" />
<line x1="112.92107012681647" y1="55.06770887802312" x2="158.75938706121" y2="64.88601386631203" stroke="#000" stroke-width="0.3" stroke-dasharray="2 1.5" />
<line x1="145.44590237730813" y1="38.5965045845464" x2="158.75938706121" y2="64.88601386631203" stroke="#000" stroke-width="0.3" />
<text x="152.10264471925905" y="51.74125922542922" font-size="3" text-anchor="middle" dominant-baseline="central" fill="#000">17</text>
<line x1="158.75938706121" y1="64.88601386631203" x2="112.92107012681647" y2="55.06770887802312" stroke="#000" stroke-width="0.3" stroke-dasharray="2 1.5" />
<line x1="112.92107012681647" y1="55.06770887802312" x2="145.44590237730813" y2="38.5965045845464" stroke="#000" stroke-width="0.3" />
<text x="129.1834862520623" y="46.83210673128476" font-size="3" text-anchor="middle" dominant-baseline="central" fill="#000">22</text>
<line x1="62.47968261661241" y1="52.29928725707851" x2="114.51941773916613" y2="25.9453849225304" stroke="#000" stroke-width="0.3" stroke-dasharray="2 1.5" />
<line x1="114.51941773916613" y1="25.9453849225304" x2="112.92107012681647" y2="55.06770887802312" stroke="#000" stroke-width="0.3" />
<text x="113.72024393299131" y="40.50654690027676" font-size="3" text-anchor="middle" dominant-baseline="central" fill="#000">26</text>
<line x1="112.92107012681647" y1="55.06770887802312" x2="62.47968261661241" y2="52.29928725707851" stroke="#000" stroke-width="0.3" stroke-dasharray="2 1.5" />
<line x1="114.51941773916613" y1="25.9453849225304" x2="62.47968261661241" y2="52.29928725707851" stroke="#000" stroke-width="0.3" stroke-dasharray="2 1.5" />
<line x1="62.47968261661241" y1="52.29928725707851" x2="64.07803022896206" y2="23.1769633015858" stroke="#000" stroke-width="0.3" />
<text x="63.278856422787236" y="37.73812527933215" font-size="3" text-anchor="middle" dominant-baseline="central" fill="#000">14</text>
<line x1="64.07803022896206" y1="23.1769633015858" x2="114.51941773916613" y2="25.9453849225304" stroke="#000" stroke-width="0.3" stroke-dasharray="2 1.5" />
<line x1="114.51941773916613" y1="25.9453849225304" x2="64.07803022896206" y2="23.1769633015858" stroke="#000" stroke-width="0.3" stroke-dasharray="2 1.5" />
<line x1="64.07803022896206" y1="23.1769633015858" x2="90.09789845621764" y2="10" stroke="#000" stroke-width="0.3" />
<text x="77.08796434258986" y="16.5884816507929" font-size="3" text-anchor="middle" dominant-baseline="central" fill="#000">15</text>
<line x1="90.09789845621764" y1="10" x2="114.51941773916613" y2="25.9453849225304" stroke="#000" stroke-width="0.3" />
<text x="102.30865809769188" y="17.9726924612652" font-size="3" text-anchor="middle" dominant-baseline="central" fill="#000">4</text>
<line x1="144.1925288695903" y1="83.5698774407712" x2="135.54518430175028" y2="161.34678303093293" stroke="#000" stroke-width="0.3" stroke-dasharray="2 1.5" />
<line x1="135.54518430175028" y1="161.34678303093293" x2="125.61749780329137" y2="89.84295473189188" stroke="#000" stroke-width="0.3" stroke-dasharray="2 1.5" />
<line x1="125.61749780329137" y1="89.84295473189188" x2="144.1925288695903" y2="83.5698774407712" stroke="#000" stroke-width="0.3" />
<text x="134.90501333644085" y="86.70641608633153" font-size="3" text-anchor="middle" dominant-baseline="central" fill="#000">25</text>
<line x1="135.54518430175028" y1="161.34678303093293" x2="144.1925288695903" y2="83.5698774407712" stroke="#000" stroke-width="0.3" stroke-dasharray="2 1.5" />
<line x1="144.1925288695903" y1="83.5698774407712" x2="153.85200454995422" y2="153.1419141617167" stroke="#000" stroke-width="0.3" stroke-dasharray="2 1.5" />
<line x1="153.85200454995422" y1="153.1419141617167" x2="135.54518430175028" y2="161.34678303093293" stroke="#000" stroke-width="0.3" />
<polygon points="153.85200454995422,153.1419141617167 135.54518430175028,161.34678303093293 143.40383691148776,166.61829391291045 152.55724703558974,162.51585947830236" fill="none" stroke="#666" stroke-width="0.2" />
<text x="143.96241608486105" y="155.60177699963398" font-size="3" text-anchor="middle" dominant-baseline="central" fill="#000">40</text>
<line x1="175.15755150441382" y1="90.7393509082377" x2="190.5980043961116" y2="98.28670233827249" stroke="#000" stroke-width="0.3" stroke-dasharray="2 1.5" />
<line x1="190.5980043961116" y1="98.28670233827249" x2="179.1041022352453" y2="102.23325306910398" stroke="#000" stroke-width="0.3" />
<text x="184.85105331567846" y="100.25997770368824" font-size="3" text-anchor="middle" dominant-baseline="central" fill="#000">28</text>
<line x1="179.1041022352453" y1="102.23325306910398" x2="175.15755150441382" y2="90.7393509082377" stroke="#000" stroke-width="0.3" stroke-dasharray="2 1.5" />
<line x1="190.5980043961116" y1="98.28670233827249" x2="175.15755150441382" y2="90.7393509082377" stroke="#000" stroke-width="0.3" stroke-dasharray="2 1.5" />
<line x1="175.15755150441382" y1="90.7393509082377" x2="186.6514536652801" y2="86.79280017740622" stroke="#000" stroke-width="0.3" />
<text x="180.90450258484697" y="88.76607554282197" font-size="3" text-anchor="middle" dominant-baseline="central" fill="#000">29</text>
<line x1="186.6514536652801" y1="86.79280017740622" x2="190.5980043961116" y2="98.28670233827249" stroke="#000" stroke-width="0.3" />
<text x="188.62472903069585" y="92.53975125783936" font-size="3" text-anchor="middle" dominant-baseline="central" fill="#000">30</text>
</svg>