<svg xmlns="http://www.w3.org/2000/svg" width="215.9mm" height="279.4mm" viewBox="0 0 215.9 279.4">
<rect x="0" y="0" width="215.9" height="279.4" fill="none" stroke="#ccc" stroke-width="0.15" />
<line x1="79.49948826552047" y1="59.277731825453124" x2="136.40051173447958" y2="59.277731825453124" stroke="#000" stroke-width="0.3" stroke-dasharray="2 1.5" />
<line x1="136.40051173447958" y1="59.277731825453124" x2="107.95" y2="108.55546365090625" stroke="#000" stroke-width="0.3" stroke-dasharray="2 1.5" />
<line x1="107.95" y1="108.55546365090625" x2="79.49948826552047" y2="59.277731825453124" stroke="#000" stroke-width="0.3" stroke-dasharray="2 1.5" />
<line x1="136.40051173447958" y1="59.277731825453124" x2="164.8510234689591" y2="108.55546365090625" stroke="#000" stroke-width="0.3" stroke-dasharray="2 1.5" />
<line x1="164.8510234689591" y1="108.55546365090625" x2="107.95" y2="108.55546365090625" stroke="#000" stroke-width="0.3" stroke-dasharray="2 1.5" />
<line x1="107.95" y1="108.55546365090625" x2="136.40051173447958" y2="59.277731825453124" stroke="#000" stroke-width="0.3" stroke-dasharray="2 1.5" />
<line x1="164.8510234689591" y1="108.55546365090625" x2="136.40051173447958" y2="157.83319547635938" stroke="#000" stroke-width="0.3" stroke-dasharray="2 1.5" />
<line x1="136.40051173447958" y1="157.83319547635938" x2="107.95" y2="108.55546365090625" stroke="#000" stroke-width="0.3" />
<polygon points="136.40051173447958,157.83319547635938 107.95,108.55546365090625 95.35153520343866,132.25510130106136 109.57679107067844,156.89396721378793" fill="none" stroke="#666" stroke-width="0.2" />
<text x="123.7341015940518" y="132.2943295636328" font-size="3" text-anchor="middle" dominant-baseline="central" fill="#000">1</text>
<line x1="107.95" y1="108.55546365090625" x2="164.8510234689591" y2="108.55546365090625" stroke="#000" stroke-width="0.3" stroke-dasharray="2 1.5" />
<line x1="51.048976531040914" y1="108.55546365090628" x2="79.49948826552047" y2="59.277731825453124" stroke="#000" stroke-width="0.3" stroke-dasharray="2 1.5" />
<line x1="79.49948826552047" y1="59.277731825453124" x2="107.95" y2="108.55546365090625" stroke="#000" stroke-width="0.3" stroke-dasharray="2 1.5" />
<line x1="107.95" y1="108.55546365090625" x2="51.048976531040914" y2="108.55546365090628" stroke="#000" stroke-width="0.3" />
<text x="79.49948826552045" y="108.55546365090626" font-size="3" text-anchor="middle" dominant-baseline="central" fill="#000">1</text>
<line x1="79.49948826552047" y1="59.277731825453124" x2="51.048976531040914" y2="108.55546365090628" stroke="#000" stroke-width="0.3" stroke-dasharray="2 1.5" />
<line x1="51.048976531040914" y1="108.55546365090628" x2="22.59846479656136" y2="59.27773182545314" stroke="#000" stroke-width="0.3" />
<polygon points="51.048976531040914,108.55546365090628 22.59846479656136,59.27773182545314 10,82.97736947560824 24.22525586723978,107.61623538833481" fill="none" stroke="#666" stroke-width="0.2" />
<text x="38.38256639061313" y="83.0165977381797" font-size="3" text-anchor="middle" dominant-baseline="central" fill="#000">2</text>
<line x1="22.59846479656136" y1="59.27773182545314" x2="79.49948826552047" y2="59.277731825453124" stroke="#000" stroke-width="0.3" />
<polygon points="22.59846479656136,59.27773182545314 79.49948826552047,59.277731825453124 65.27423239828067,36.51732243786949 36.823720663801126,36.517322437869495" fill="none" stroke="#666" stroke-width="0.2" />
<text x="51.048976531040914" y="61.07773182545313" font-size="3" text-anchor="middle" dominant-baseline="central" fill="#000">3</text>
<line x1="136.40051173447958" y1="157.83319547635938" x2="164.8510234689591" y2="108.55546365090625" stroke="#000" stroke-width="0.3" stroke-dasharray="2 1.5" />
<line x1="164.8510234689591" y1="108.55546365090625" x2="193.30153520343868" y2="157.83319547635938" stroke="#000" stroke-width="0.3" />
<polygon points="164.8510234689591,108.55546365090625 193.30153520343868,157.83319547635938 205.9,134.1335578262043 191.67474413276028,109.49469191347772" fill="none" stroke="#666" stroke-width="0.2" />
<text x="177.5174336093869" y="134.0943295636328" font-size="3" text-anchor="middle" dominant-baseline="central" fill="#000">4</text>
<line x1="193.30153520343868" y1="157.83319547635938" x2="136.40051173447958" y2="157.83319547635938" stroke="#000" stroke-width="0.3" />
<text x="164.8510234689591" y="157.83319547635938" font-size="3" text-anchor="middle" dominant-baseline="central" fill="#000">2</text>
<line x1="164.8510234689591" y1="108.55546365090625" x2="136.40051173447958" y2="59.277731825453124" stroke="#000" stroke-width="0.3" stroke-dasharray="2 1.5" />
<line x1="136.40051173447958" y1="59.277731825453124" x2="193.30153520343868" y2="59.277731825453124" stroke="#000" stroke-width="0.3" />
<polygon points="136.40051173447958,59.277731825453124 193.30153520343868,59.277731825453124 179.07627933619892,36.51732243786948 150.62576760171936,36.51732243786948" fill="none" stroke="#666" stroke-width="0.2" />
<text x="164.8510234689591" y="61.07773182545312" font-size="3" text-anchor="middle" dominant-baseline="central" fill="#000">5</text>
<line x1="193.30153520343868" y1="59.277731825453124" x2="164.8510234689591" y2="108.55546365090625" stroke="#000" stroke-width="0.3" />
<text x="179.0762793361989" y="83.91659773817969" font-size="3" text-anchor="middle" dominant-baseline="central" fill="#000">4</text>
<line x1="136.40051173447958" y1="59.277731825453124" x2="79.49948826552047" y2="59.277731825453124" stroke="#000" stroke-width="0.3" stroke-dasharray="2 1.5" />
<line x1="79.49948826552047" y1="59.277731825453124" x2="107.95" y2="10" stroke="#000" stroke-width="0.3" />
<text x="93.72474413276024" y="34.63886591272656" font-size="3" text-anchor="middle" dominant-baseline="central" fill="#000">3</text>
<line x1="107.95" y1="10" x2="136.40051173447958" y2="59.277731825453124" stroke="#000" stroke-width="0.3" />
<text x="122.1752558672398" y="34.63886591272656" font-size="3" text-anchor="middle" dominant-baseline="central" fill="#000">5</text>
</svg>