<svg xmlns="http://www.w3.org/2000/svg" width="215.9mm" height="279.4mm" viewBox="0 0 215.9 279.4">
<rect x="0" y="0" width="215.9" height="279.4" fill="none" stroke="#ccc" stroke-width="0.15" />
<line x1="32.46079188920759" y1="46.95533542938186" x2="23.652290181949944" y2="35.46839579585724" stroke="#000" stroke-width="0.3" />
<text x="28.056541035578768" y="41.21186561261955" font-size="3" text-anchor="middle" dominant-baseline="central" fill="#000">239</text>
<line x1="23.652290181949944" y1="35.46839579585724" x2="31.299642213885182" y2="34.860375909603235" stroke="#000" stroke-width="0.3" stroke-dasharray="2 1.5" />
<line x1="31.299642213885182" y1="34.860375909603235" x2="32.46079188920759" y2="46.95533542938186" stroke="#000" stroke-width="0.3" />
<polygon points="31.299642213885182,34.860375909603235 32.46079188920759,46.95533542938186 37.00848827828844,43.46713567930824 36.427913440627236,37.419655919418915" fill="none" stroke="#666" stroke-width="0.2" />
<text x="30.088455030377336" y="41.07986979535492" font-size="3" text-anchor="middle" dominant-baseline="central" fill="#000">381</text>
<line x1="23.652290181949944" y1="35.46839579585724" x2="13.264524673362025" y2="24.047546008416592" stroke="#000" stroke-width="0.3" />
<polygon points="23.652290181949944,35.46839579585724 13.264524673362025,24.047546008416592 11.293126135532745,31.057864658711924 16.487008889826697,36.76828955243225" fill="none" stroke="#666" stroke-width="0.2" />
<text x="19.78999921138633" y="28.546829572026414" font-size="3" text-anchor="middle" dominant-baseline="central" fill="#000">254</text>
<line x1="13.264524673362025" y1="24.047546008416592" x2="20.28916472614695" y2="23.48906703405981" stroke="#000" stroke-width="0.3" stroke-dasharray="2 1.5" />
<line x1="20.28916472614695" y1="23.48906703405981" x2="23.652290181949944" y2="35.46839579585724" stroke="#000" stroke-width="0.3" stroke-dasharray="2 1.5" />
<line x1="23.652290181949944" y1="35.46839579585724" x2="20.28916472614695" y2="23.48906703405981" stroke="#000" stroke-width="0.3" stroke-dasharray="2 1.5" />
<line x1="20.28916472614695" y1="23.48906703405981" x2="31.299642213885182" y2="34.860375909603235" stroke="#000" stroke-width="0.3" />
<text x="25.794403470016064" y="29.174721471831525" font-size="3" text-anchor="middle" dominant-baseline="central" fill="#000">244</text>
<line x1="31.299642213885182" y1="34.860375909603235" x2="23.652290181949944" y2="35.46839579585724" stroke="#000" stroke-width="0.3" stroke-dasharray="2 1.5" />
<line x1="13.264524673362025" y1="24.047546008416592" x2="10" y2="11.598728476071775" stroke="#000" stroke-width="0.3" />
<text x="11.632262336681013" y="17.823137242244183" font-size="3" text-anchor="middle" dominant-baseline="central" fill="#000">253</text>
<line x1="10" y1="11.598728476071775" x2="13.47839552845888" y2="11.32223478982081" stroke="#000" stroke-width="0.3" />
<polygon points="10,11.598728476071775 13.47839552845888,11.32223478982081 12.498199171843778,10 10.759001407614338,10.138246843125483" fill="none" stroke="#666" stroke-width="0.2" />
<text x="11.881827814695702" y="13.254821809363238" font-size="3" text-anchor="middle" dominant-baseline="central" fill="#000">261</text>
<line x1="13.47839552845888" y1="11.32223478982081" x2="13.264524673362025" y2="24.047546008416592" stroke="#000" stroke-width="0.3" stroke-dasharray="2 1.5" />
<line x1="13.264524673362025" y1="24.047546008416592" x2="13.47839552845888" y2="11.32223478982081" stroke="#000" stroke-width="0.3" stroke-dasharray="2 1.5" />
<line x1="13.47839552845888" y1="11.32223478982081" x2="20.28916472614695" y2="23.48906703405981" stroke="#000" stroke-width="0.3" />
<text x="16.883780127302913" y="17.40565091194031" font-size="3" text-anchor="middle" dominant-baseline="central" fill="#000">260</text>
<line x1="20.28916472614695" y1="23.48906703405981" x2="13.264524673362025" y2="24.047546008416592" stroke="#000" stroke-width="0.3" stroke-dasharray="2 1.5" />
<line x1="94.88598637764615" y1="28.866156834432207" x2="94.4285612176064" y2="11.474813196339339" stroke="#000" stroke-width="0.3" stroke-dasharray="2 1.5" />
<line x1="94.4285612176064" y1="11.474813196339339" x2="108.25714161371737" y2="10" stroke="#000" stroke-width="0.3" />
<text x="101.34285141566188" y="10.73740659816967" font-size="3" text-anchor="middle" dominant-baseline="central" fill="#000">3</text>
<line x1="108.25714161371737" y1="10" x2="94.88598637764615" y2="28.866156834432207" stroke="#000" stroke-width="0.3" />
<polygon points="108.25714161371737,10 94.88598637764615,28.866156834432207 105.77523792043684,29.49807972025264 112.46081553847245,20.06500130303655" fill="none" stroke="#666" stroke-width="0.2" />
<text x="100.10300003219155" y="18.392251877807198" font-size="3" text-anchor="middle" dominant-baseline="central" fill="#000">384</text>
<line x1="95.09237821268381" y1="39.042247339677864" x2="94.88598637764615" y2="28.866156834432207" stroke="#000" stroke-width="0.3" stroke-dasharray="2 1.5" />
<line x1="94.88598637764615" y1="28.866156834432207" x2="104.50610880567437" y2="31.050469093940745" stroke="#000" stroke-width="0.3" />
<text x="99.69604759166026" y="29.958312964186476" font-size="3" text-anchor="middle" dominant-baseline="central" fill="#000">173</text>
<line x1="104.50610880567437" y1="31.050469093940745" x2="95.09237821268381" y2="39.042247339677864" stroke="#000" stroke-width="0.3" stroke-dasharray="2 1.5" />
<line x1="95.09237821268381" y1="39.042247339677864" x2="104.50610880567437" y2="31.050469093940745" stroke="#000" stroke-width="0.3" stroke-dasharray="2 1.5" />
<line x1="104.50610880567437" y1="31.050469093940745" x2="104.68504379788912" y2="39.47693058346981" stroke="#000" stroke-width="0.3" />
<polygon points="104.50610880567437,31.050469093940745 104.68504379788912,39.47693058346981 108.01089464564706,37.29874121420164 107.92142714953968,33.08551046943711" fill="none" stroke="#666" stroke-width="0.2" />
<text x="102.79598199312656" y="35.301914027900715" font-size="3" text-anchor="middle" dominant-baseline="central" fill="#000">193</text>
<line x1="104.68504379788912" y1="39.47693058346981" x2="95.09237821268381" y2="39.042247339677864" stroke="#000" stroke-width="0.3" />
<text x="99.88871100528647" y="39.25958896157384" font-size="3" text-anchor="middle" dominant-baseline="central" fill="#000">174</text>
<line x1="81.36873232897588" y1="38.66137697550551" x2="81.19524781723436" y2="30.594932491718826" stroke="#000" stroke-width="0.3" />
<polygon points="81.36873232897588,38.66137697550551 81.19524781723436,30.594932491718826 78.01204115165507,32.68093741736211 78.09878340752581,36.71415965925545" fill="none" stroke="#666" stroke-width="0.2" />
<text x="83.08157392396878" y="34.5894511974591" font-size="3" text-anchor="middle" dominant-baseline="central" fill="#000">217</text>
<line x1="81.19524781723436" y1="30.594932491718826" x2="94.88598637764615" y2="28.866156834432207" stroke="#000" stroke-width="0.3" stroke-dasharray="2 1.5" />
<line x1="94.88598637764615" y1="28.866156834432207" x2="81.36873232897588" y2="38.66137697550551" stroke="#000" stroke-width="0.3" stroke-dasharray="2 1.5" />
<line x1="81.36873232897588" y1="38.66137697550551" x2="94.88598637764615" y2="28.866156834432207" stroke="#000" stroke-width="0.3" stroke-dasharray="2 1.5" />
<line x1="94.88598637764615" y1="28.866156834432207" x2="95.09237821268381" y2="39.042247339677864" stroke="#000" stroke-width="0.3" stroke-dasharray="2 1.5" />
<line x1="95.09237821268381" y1="39.042247339677864" x2="81.36873232897588" y2="38.66137697550551" stroke="#000" stroke-width="0.3" />
<polygon points="95.09237821268381,39.042247339677864 81.36873232897588,38.66137697550551 84.64729565423391,44.24605292003177 91.50911859608789,44.436488102117956" fill="none" stroke="#666" stroke-width="0.2" />
<text x="88.28049118398417" y="37.052504956311864" font-size="3" text-anchor="middle" dominant-baseline="central" fill="#000">218</text>
<line x1="81.19524781723436" y1="30.594932491718826" x2="80.59561148036835" y2="12.906950051536159" stroke="#000" stroke-width="0.3" stroke-dasharray="2 1.5" />
<line x1="80.59561148036835" y1="12.906950051536159" x2="94.4285612176064" y2="11.474813196339339" stroke="#000" stroke-width="0.3" />
<text x="87.51208634898737" y="12.190881623937749" font-size="3" text-anchor="middle" dominant-baseline="central" fill="#000">60</text>
<line x1="94.4285612176064" y1="11.474813196339339" x2="81.19524781723436" y2="30.594932491718826" stroke="#000" stroke-width="0.3" stroke-dasharray="2 1.5" />
<line x1="81.19524781723436" y1="30.594932491718826" x2="94.4285612176064" y2="11.474813196339339" stroke="#000" stroke-width="0.3" stroke-dasharray="2 1.5" />
<line x1="94.4285612176064" y1="11.474813196339339" x2="94.88598637764615" y2="28.866156834432207" stroke="#000" stroke-width="0.3" stroke-dasharray="2 1.5" />
<line x1="94.88598637764615" y1="28.866156834432207" x2="81.19524781723436" y2="30.594932491718826" stroke="#000" stroke-width="0.3" stroke-dasharray="2 1.5" />
<line x1="81.19524781723436" y1="30.594932491718826" x2="74.05519357504949" y2="31.948958862277856" stroke="#000" stroke-width="0.3" stroke-dasharray="2 1.5" />
<line x1="74.05519357504949" y1="31.948958862277856" x2="73.34369891474094" y2="14.551169911911064" stroke="#000" stroke-width="0.3" stroke-dasharray="2 1.5" />
<line x1="73.34369891474094" y1="14.551169911911064" x2="81.19524781723436" y2="30.594932491718826" stroke="#000" stroke-width="0.3" stroke-dasharray="2 1.5" />
<line x1="81.19524781723436" y1="30.594932491718826" x2="73.34369891474094" y2="14.551169911911064" stroke="#000" stroke-width="0.3" stroke-dasharray="2 1.5" />
<line x1="73.34369891474094" y1="14.551169911911064" x2="80.59561148036835" y2="12.906950051536159" stroke="#000" stroke-width="0.3" />
<text x="76.96965519755464" y="13.729059981723612" font-size="3" text-anchor="middle" dominant-baseline="central" fill="#000">61</text>
<line x1="80.59561148036835" y1="12.906950051536159" x2="81.19524781723436" y2="30.594932491718826" stroke="#000" stroke-width="0.3" stroke-dasharray="2 1.5" />
<line x1="80.9962306520035" y1="38.66078741564167" x2="73.86686291871976" y2="39.58277548589455" stroke="#000" stroke-width="0.3" />
<polygon points="80.9962306520035,38.66078741564167 73.86686291871976,39.58277548589455 76.01800008014186,42.204025561644826 79.58268394678372,41.74303152651839" fill="none" stroke="#666" stroke-width="0.2" />
<text x="77.2006886499045" y="37.33664713613146" font-size="3" text-anchor="middle" dominant-baseline="central" fill="#000">220</text>
<line x1="73.86686291871976" y1="39.58277548589455" x2="74.05519357504949" y2="31.948958862277856" stroke="#000" stroke-width="0.3" />
<polygon points="73.86686291871976,39.58277548589455 74.05519357504949,31.948958862277856 70.95458426152038,33.78208075565014 70.86041893335552,37.59898906745848" fill="none" stroke="#666" stroke-width="0.2" />
<text x="75.76048072319801" y="35.81026070390323" font-size="3" text-anchor="middle" dominant-baseline="central" fill="#000">221</text>
<line x1="74.05519357504949" y1="31.948958862277856" x2="80.9962306520035" y2="38.66078741564167" stroke="#000" stroke-width="0.3" stroke-dasharray="2 1.5" />
<line x1="80.9962306520035" y1="38.66078741564167" x2="74.05519357504949" y2="31.948958862277856" stroke="#000" stroke-width="0.3" stroke-dasharray="2 1.5" />
<line x1="74.05519357504949" y1="31.948958862277856" x2="81.19524781723436" y2="30.594932491718826" stroke="#000" stroke-width="0.3" stroke-dasharray="2 1.5" />
<line x1="81.19524781723436" y1="30.594932491718826" x2="80.9962306520035" y2="38.66078741564167" stroke="#000" stroke-width="0.3" />
<text x="81.09573923461893" y="34.62785995368025" font-size="3" text-anchor="middle" dominant-baseline="central" fill="#000">217</text>
<line x1="74.05519357504949" y1="31.948958862277856" x2="60.939999126586244" y2="27.952295660756754" stroke="#000" stroke-width="0.3" />
<polygon points="74.05519357504949,31.948958862277856 60.939999126586244,27.952295660756754 62.62013245809361,34.19753924052233 69.17772968232524,36.19587084128288" fill="none" stroke="#666" stroke-width="0.2" />
<text x="68.02229788900205" y="28.22880023889652" font-size="3" text-anchor="middle" dominant-baseline="central" fill="#000">223</text>
<line x1="60.939999126586244" y1="27.952295660756754" x2="60.465001360703255" y2="15.295243112362595" stroke="#000" stroke-width="0.3" stroke-dasharray="2 1.5" />
<line x1="60.465001360703255" y1="15.295243112362595" x2="74.05519357504949" y2="31.948958862277856" stroke="#000" stroke-width="0.3" stroke-dasharray="2 1.5" />
<line x1="74.05519357504949" y1="31.948958862277856" x2="60.465001360703255" y2="15.295243112362595" stroke="#000" stroke-width="0.3" stroke-dasharray="2 1.5" />
<line x1="60.465001360703255" y1="15.295243112362595" x2="73.34369891474094" y2="14.551169911911064" stroke="#000" stroke-width="0.3" />
<text x="66.9043501377221" y="14.92320651213683" font-size="3" text-anchor="middle" dominant-baseline="central" fill="#000">66</text>
<line x1="73.34369891474094" y1="14.551169911911064" x2="74.05519357504949" y2="31.948958862277856" stroke="#000" stroke-width="0.3" stroke-dasharray="2 1.5" />
<line x1="60.939999126586244" y1="27.952295660756754" x2="49.13135418133197" y2="33.3106246897533" stroke="#000" stroke-width="0.3" />
<polygon points="60.939999126586244,27.952295660756754 49.13135418133197,33.3106246897533 54.226847029244155,36.69450041060587 60.131169501871284,34.0153358961076" fill="none" stroke="#666" stroke-width="0.2" />
<text x="54.29189411923152" y="28.992317856530317" font-size="3" text-anchor="middle" dominant-baseline="central" fill="#000">226</text>
<line x1="49.13135418133197" y1="33.3106246897533" x2="48.091912921204205" y2="17.452412294884027" stroke="#000" stroke-width="0.3" />
<polygon points="49.13135418133197,33.3106246897533 48.091912921204205,17.452412294884027 42.00848827828844,21.832741897652447 42.52820890835231,29.76184809508708" fill="none" stroke="#666" stroke-width="0.2" />
<text x="50.40777932402737" y="25.26378844942845" font-size="3" text-anchor="middle" dominant-baseline="central" fill="#000">227</text>
<line x1="48.091912921204205" y1="17.452412294884027" x2="60.939999126586244" y2="27.952295660756754" stroke="#000" stroke-width="0.3" stroke-dasharray="2 1.5" />
<line x1="60.939999126586244" y1="27.952295660756754" x2="48.091912921204205" y2="17.452412294884027" stroke="#000" stroke-width="0.3" stroke-dasharray="2 1.5" />
<line x1="48.091912921204205" y1="17.452412294884027" x2="60.465001360703255" y2="15.295243112362595" stroke="#000" stroke-width="0.3" />
<text x="54.27845714095373" y="16.373827703623313" font-size="3" text-anchor="middle" dominant-baseline="central" fill="#000">71</text>
<line x1="60.465001360703255" y1="15.295243112362595" x2="60.939999126586244" y2="27.952295660756754" stroke="#000" stroke-width="0.3" stroke-dasharray="2 1.5" />
<line x1="117.46081553847245" y1="42.71821941289098" x2="118.79010806507182" y2="15.207939227865547" stroke="#000" stroke-width="0.3" />
<text x="118.12546180177213" y="28.963079320378263" font-size="3" text-anchor="middle" dominant-baseline="central" fill="#000">382</text>
<line x1="118.79010806507182" y1="15.207939227865547" x2="128.44207179048084" y2="16.10990510496641" stroke="#000" stroke-width="0.3" />
<polygon points="118.79010806507182,15.207939227865547 128.44207179048084,16.10990510496641 126.38986720996893,12.023628145527583 121.56388534726442,11.572645206977153" fill="none" stroke="#666" stroke-width="0.2" />
<text x="123.44861149790245" y="17.45111383460523" font-size="3" text-anchor="middle" dominant-baseline="central" fill="#000">8</text>
<line x1="128.44207179048084" y1="16.10990510496641" x2="117.46081553847245" y2="42.71821941289098" stroke="#000" stroke-width="0.3" stroke-dasharray="2 1.5" />
<line x1="117.46081553847245" y1="42.71821941289098" x2="128.44207179048084" y2="16.10990510496641" stroke="#000" stroke-width="0.3" stroke-dasharray="2 1.5" />
<line x1="128.44207179048084" y1="16.10990510496641" x2="127.06244905857417" y2="42.97717594517345" stroke="#000" stroke-width="0.3" stroke-dasharray="2 1.5" />
<line x1="127.06244905857417" y1="42.97717594517345" x2="117.46081553847245" y2="42.71821941289098" stroke="#000" stroke-width="0.3" />
<text x="122.26163229852331" y="42.847697679032215" font-size="3" text-anchor="middle" dominant-baseline="central" fill="#000">7</text>
<line x1="127.06244905857417" y1="42.97717594517345" x2="128.44207179048084" y2="16.10990510496641" stroke="#000" stroke-width="0.3" stroke-dasharray="2 1.5" />
<line x1="128.44207179048084" y1="16.10990510496641" x2="137.2546837335134" y2="17.068592554333797" stroke="#000" stroke-width="0.3" />
<polygon points="128.44207179048084,16.10990510496641 137.2546837335134,17.068592554333797 135.43500572750222,13.303875914778928 131.02869975598594,12.824532190095233" fill="none" stroke="#666" stroke-width="0.2" />
<text x="132.65371172456125" y="18.378691517715026" font-size="3" text-anchor="middle" dominant-baseline="central" fill="#000">12</text>
<line x1="137.2546837335134" y1="17.068592554333797" x2="127.06244905857417" y2="42.97717594517345" stroke="#000" stroke-width="0.3" stroke-dasharray="2 1.5" />
<line x1="127.06244905857417" y1="42.97717594517345" x2="137.2546837335134" y2="17.068592554333797" stroke="#000" stroke-width="0.3" stroke-dasharray="2 1.5" />
<line x1="137.2546837335134" y1="17.068592554333797" x2="135.79017813436045" y2="43.24703144312991" stroke="#000" stroke-width="0.3" stroke-dasharray="2 1.5" />
<line x1="135.79017813436045" y1="43.24703144312991" x2="127.06244905857417" y2="42.97717594517345" stroke="#000" stroke-width="0.3" />
<text x="131.4263135964673" y="43.112103694151685" font-size="3" text-anchor="middle" dominant-baseline="central" fill="#000">10</text>
<line x1="135.79017813436045" y1="43.24703144312991" x2="137.2546837335134" y2="17.068592554333797" stroke="#000" stroke-width="0.3" stroke-dasharray="2 1.5" />
<line x1="137.2546837335134" y1="17.068592554333797" x2="148.75544865241383" y2="16.53205847715557" stroke="#000" stroke-width="0.3" />
<polygon points="137.2546837335134,17.068592554333797 148.75544865241383,16.53205847715557 145.66564379181744,12.065886028889949 139.9152613323672,12.334153067479063" fill="none" stroke="#666" stroke-width="0.2" />
<text x="143.08894862258182" y="18.5983699362197" font-size="3" text-anchor="middle" dominant-baseline="central" fill="#000">16</text>
<line x1="148.75544865241383" y1="16.53205847715557" x2="135.79017813436045" y2="43.24703144312991" stroke="#000" stroke-width="0.3" stroke-dasharray="2 1.5" />
<line x1="135.79017813436045" y1="43.24703144312991" x2="148.75544865241383" y2="16.53205847715557" stroke="#000" stroke-width="0.3" stroke-dasharray="2 1.5" />
<line x1="148.75544865241383" y1="16.53205847715557" x2="149.41233867138524" y2="38.579061153150704" stroke="#000" stroke-width="0.3" stroke-dasharray="2 1.5" />
<line x1="149.41233867138524" y1="38.579061153150704" x2="135.79017813436045" y2="43.24703144312991" stroke="#000" stroke-width="0.3" />
<text x="142.60125840287284" y="40.91304629814031" font-size="3" text-anchor="middle" dominant-baseline="central" fill="#000">15</text>
<line x1="149.41233867138524" y1="38.579061153150704" x2="148.75544865241383" y2="16.53205847715557" stroke="#000" stroke-width="0.3" stroke-dasharray="2 1.5" />
<line x1="148.75544865241383" y1="16.53205847715557" x2="162.26266176449525" y2="15.026494167391558" stroke="#000" stroke-width="0.3" />
<polygon points="148.75544865241383,16.53205847715557 162.26266176449525,15.026494167391558 158.28363276256928,10 151.5300262065286,10.752782154882006" fill="none" stroke="#666" stroke-width="0.2" />
<text x="155.70845505205972" y="17.568197701868044" font-size="3" text-anchor="middle" dominant-baseline="central" fill="#000">21</text>
<line x1="162.26266176449525" y1="15.026494167391558" x2="149.41233867138524" y2="38.579061153150704" stroke="#000" stroke-width="0.3" stroke-dasharray="2 1.5" />
<line x1="149.41233867138524" y1="38.579061153150704" x2="162.26266176449525" y2="15.026494167391558" stroke="#000" stroke-width="0.3" stroke-dasharray="2 1.5" />
<line x1="162.26266176449525" y1="15.026494167391558" x2="162.1531376961496" y2="26.77011602621067" stroke="#000" stroke-width="0.3" />
<polygon points="162.26266176449525,15.026494167391558 162.1531376961496,26.77011602621067 166.87796745676366,23.878020188844154 166.93272949093648,18.006209259434595" fill="none" stroke="#666" stroke-width="0.2" />
<text x="160.4079780064257" y="20.881518559200124" font-size="3" text-anchor="middle" dominant-baseline="central" fill="#000">22</text>
<line x1="162.1531376961496" y1="26.77011602621067" x2="149.41233867138524" y2="38.579061153150704" stroke="#000" stroke-width="0.3" />
<text x="155.78273818376744" y="32.67458858968069" font-size="3" text-anchor="middle" dominant-baseline="central" fill="#000">19</text>
<line x1="19.614568572886373" y1="73.03012232214357" x2="23.371155236071225" y2="51.95533542938186" stroke="#000" stroke-width="0.3" stroke-dasharray="2 1.5" />
<line x1="23.371155236071225" y1="51.95533542938186" x2="57.9438041023591" y2="52.81779641062081" stroke="#000" stroke-width="0.3" />
<text x="40.657479669215164" y="52.38656592000133" font-size="3" text-anchor="middle" dominant-baseline="central" fill="#000">1</text>
<line x1="57.9438041023591" y1="52.81779641062081" x2="19.614568572886373" y2="73.03012232214357" stroke="#000" stroke-width="0.3" stroke-dasharray="2 1.5" />
<line x1="19.614568572886373" y1="73.03012232214357" x2="57.9438041023591" y2="52.81779641062081" stroke="#000" stroke-width="0.3" stroke-dasharray="2 1.5" />
<line x1="57.9438041023591" y1="52.81779641062081" x2="60.03652248319757" y2="70.05850199813908" stroke="#000" stroke-width="0.3" stroke-dasharray="2 1.5" />
<line x1="60.03652248319757" y1="70.05850199813908" x2="19.614568572886373" y2="73.03012232214357" stroke="#000" stroke-width="0.3" stroke-dasharray="2 1.5" />
<line x1="10" y1="70.82149226381406" x2="23.371155236071225" y2="51.95533542938186" stroke="#000" stroke-width="0.3" />
<text x="16.685577618035612" y="61.38841384659796" font-size="3" text-anchor="middle" dominant-baseline="central" fill="#000">384</text>
<line x1="23.371155236071225" y1="51.95533542938186" x2="19.614568572886373" y2="73.03012232214357" stroke="#000" stroke-width="0.3" stroke-dasharray="2 1.5" />
<line x1="19.614568572886373" y1="73.03012232214357" x2="10" y2="70.82149226381406" stroke="#000" stroke-width="0.3" />
<polygon points="19.614568572886373,73.03012232214357 10,70.82149226381406 11.520190119889792,75.219477207551 16.32747440633298,76.32379223671575" fill="none" stroke="#666" stroke-width="0.2" />
<text x="15.210278630038742" y="70.1714995779442" font-size="3" text-anchor="middle" dominant-baseline="central" fill="#000">173</text>
<line x1="67.54760184024084" y1="52.65812874514499" x2="76.27783239469606" y2="52.48739129711801" stroke="#000" stroke-width="0.3" />
<text x="71.91271711746845" y="52.5727600211315" font-size="3" text-anchor="middle" dominant-baseline="central" fill="#000">30</text>
<line x1="76.27783239469606" y1="52.48739129711801" x2="76.3099159437745" y2="70.08127239558445" stroke="#000" stroke-width="0.3" />
<text x="76.29387416923528" y="61.28433184635123" font-size="3" text-anchor="middle" dominant-baseline="central" fill="#000">191</text>
<line x1="76.3099159437745" y1="70.08127239558445" x2="67.54760184024084" y2="52.65812874514499" stroke="#000" stroke-width="0.3" stroke-dasharray="2 1.5" />
<line x1="67.54760184024084" y1="52.65812874514499" x2="76.3099159437745" y2="70.08127239558445" stroke="#000" stroke-width="0.3" stroke-dasharray="2 1.5" />
<line x1="76.3099159437745" y1="70.08127239558445" x2="67.80625125736326" y2="68.50455323878425" stroke="#000" stroke-width="0.3" />
<polygon points="76.3099159437745,70.08127239558445 67.80625125736326,68.50455323878425 69.30147976624599,72.3001989025488 73.55331210945161,73.0885584809489" fill="none" stroke="#666" stroke-width="0.2" />
<text x="72.38623995766979" y="67.52307852966072" font-size="3" text-anchor="middle" dominant-baseline="central" fill="#000">192</text>
<line x1="67.80625125736326" y1="68.50455323878425" x2="67.54760184024084" y2="52.65812874514499" stroke="#000" stroke-width="0.3" stroke-dasharray="2 1.5" />
<line x1="57.9438041023591" y1="52.81779641062081" x2="67.54760184024084" y2="52.65812874514499" stroke="#000" stroke-width="0.3" />
<text x="62.74570297129998" y="52.7379625778829" font-size="3" text-anchor="middle" dominant-baseline="central" fill="#000">31</text>
<line x1="67.54760184024084" y1="52.65812874514499" x2="67.80625125736326" y2="68.50455323878425" stroke="#000" stroke-width="0.3" stroke-dasharray="2 1.5" />
<line x1="67.80625125736326" y1="68.50455323878425" x2="57.9438041023591" y2="52.81779641062081" stroke="#000" stroke-width="0.3" stroke-dasharray="2 1.5" />
<line x1="57.9438041023591" y1="52.81779641062081" x2="67.80625125736326" y2="68.50455323878425" stroke="#000" stroke-width="0.3" stroke-dasharray="2 1.5" />
<line x1="67.80625125736326" y1="68.50455323878425" x2="60.03652248319757" y2="70.05850199813908" stroke="#000" stroke-width="0.3" />
<text x="63.921386870280415" y="69.28152761846167" font-size="3" text-anchor="middle" dominant-baseline="central" fill="#000">177</text>
<line x1="60.03652248319757" y1="70.05850199813908" x2="57.9438041023591" y2="52.81779641062081" stroke="#000" stroke-width="0.3" stroke-dasharray="2 1.5" />
<line x1="19.726853283611984" y1="81.45773545456089" x2="19.614568572886373" y2="73.03012232214357" stroke="#000" stroke-width="0.3" />
<text x="19.67071092824918" y="77.24392888835223" font-size="3" text-anchor="middle" dominant-baseline="central" fill="#000">193</text>
<line x1="19.614568572886373" y1="73.03012232214357" x2="60.03652248319757" y2="70.05850199813908" stroke="#000" stroke-width="0.3" stroke-dasharray="2 1.5" />
<line x1="60.03652248319757" y1="70.05850199813908" x2="19.726853283611984" y2="81.45773545456089" stroke="#000" stroke-width="0.3" stroke-dasharray="2 1.5" />
<line x1="19.726853283611984" y1="81.45773545456089" x2="60.03652248319757" y2="70.05850199813908" stroke="#000" stroke-width="0.3" stroke-dasharray="2 1.5" />
<line x1="60.03652248319757" y1="70.05850199813908" x2="60.34548821334585" y2="80.03038070807777" stroke="#000" stroke-width="0.3" />
<polygon points="60.03652248319757,70.05850199813908 60.34548821334585,80.03038070807777 64.25699826478427,77.41382473853378 64.10251539971011,72.42788538356443" fill="none" stroke="#666" stroke-width="0.2" />
<text x="58.39186871757885" y="75.10018526846356" font-size="3" text-anchor="middle" dominant-baseline="central" fill="#000">194</text>
<line x1="60.34548821334585" y1="80.03038070807777" x2="19.726853283611984" y2="81.45773545456089" stroke="#000" stroke-width="0.3" />
<text x="40.036170748478916" y="80.74405808131934" font-size="3" text-anchor="middle" dominant-baseline="central" fill="#000">364</text>
<line x1="122.31047257372416" y1="67.5198428166585" x2="108.17782979994205" y2="74.7883878376861" stroke="#000" stroke-width="0.3" />
<text x="115.24415118683311" y="71.15411532717229" font-size="3" text-anchor="middle" dominant-baseline="central" fill="#000">72</text>
<line x1="108.17782979994205" y1="74.7883878376861" x2="104.75391280129513" y2="55.94759623782818" stroke="#000" stroke-width="0.3" stroke-dasharray="2 1.5" />
<line x1="104.75391280129513" y1="55.94759623782818" x2="122.31047257372416" y2="67.5198428166585" stroke="#000" stroke-width="0.3" stroke-dasharray="2 1.5" />
<line x1="122.31047257372416" y1="67.5198428166585" x2="104.75391280129513" y2="55.94759623782818" stroke="#000" stroke-width="0.3" stroke-dasharray="2 1.5" />
<line x1="104.75391280129513" y1="55.94759623782818" x2="108.25408677325922" y2="54.26390539387097" stroke="#000" stroke-width="0.3" />
<polygon points="104.75391280129513,55.94759623782818 108.25408677325922,54.26390539387097 106.70556694268531,53.28475851607464 104.95547995670327,54.126603938053236" fill="none" stroke="#666" stroke-width="0.2" />
<text x="107.28427414168974" y="56.72783957169682" font-size="3" text-anchor="middle" dominant-baseline="central" fill="#000">77</text>
<line x1="108.25408677325922" y1="54.26390539387097" x2="122.31047257372416" y2="67.5198428166585" stroke="#000" stroke-width="0.3" />
<polygon points="108.25408677325922,54.26390539387097 122.31047257372416,67.5198428166585 124.09875109272295,58.58330414077563 117.07055819249047,51.95533542938186" fill="none" stroke="#666" stroke-width="0.2" />
<text x="114.04731972176843" y="62.20140605128197" font-size="3" text-anchor="middle" dominant-baseline="central" fill="#000">377</text>
<line x1="92.39146451624325" y1="72.95699229775754" x2="91.40750148567125" y2="56.57437649395396" stroke="#000" stroke-width="0.3" stroke-dasharray="2 1.5" />
<line x1="91.40750148567125" y1="56.57437649395396" x2="100.88515025998952" y2="55.603054381110134" stroke="#000" stroke-width="0.3" />
<polygon points="91.40750148567125,56.57437649395396 100.88515025998952,55.603054381110134 98.12720922127242,52.05482539959378 93.38838483411328,52.54048645601571" fill="none" stroke="#666" stroke-width="0.2" />
<text x="96.32983864879229" y="57.879336296636154" font-size="3" text-anchor="middle" dominant-baseline="central" fill="#000">230</text>
<line x1="100.88515025998952" y1="55.603054381110134" x2="92.39146451624325" y2="72.95699229775754" stroke="#000" stroke-width="0.3" stroke-dasharray="2 1.5" />
<line x1="92.39146451624325" y1="72.95699229775754" x2="100.88515025998952" y2="55.603054381110134" stroke="#000" stroke-width="0.3" stroke-dasharray="2 1.5" />
<line x1="100.88515025998952" y1="55.603054381110134" x2="104.75391280129513" y2="55.94759623782818" stroke="#000" stroke-width="0.3" />
<polygon points="100.88515025998952,55.603054381110134 104.75391280129513,55.94759623782818 103.92453890865595,54.31395575712642 101.99015763800314,54.1416848287674" fill="none" stroke="#666" stroke-width="0.2" />
<text x="102.6598601896811" y="57.56822939582616" font-size="3" text-anchor="middle" dominant-baseline="central" fill="#000">231</text>
<line x1="104.75391280129513" y1="55.94759623782818" x2="92.39146451624325" y2="72.95699229775754" stroke="#000" stroke-width="0.3" stroke-dasharray="2 1.5" />
<line x1="92.39146451624325" y1="72.95699229775754" x2="104.75391280129513" y2="55.94759623782818" stroke="#000" stroke-width="0.3" stroke-dasharray="2 1.5" />
<line x1="104.75391280129513" y1="55.94759623782818" x2="108.17782979994205" y2="74.7883878376861" stroke="#000" stroke-width="0.3" stroke-dasharray="2 1.5" />
<line x1="108.17782979994205" y1="74.7883878376861" x2="92.39146451624325" y2="72.95699229775754" stroke="#000" stroke-width="0.3" />
<text x="100.28464715809264" y="73.87269006772182" font-size="3" text-anchor="middle" dominant-baseline="central" fill="#000">227</text>
<line x1="86.97332070044415" y1="71.07765335125168" x2="88.49924800202344" y2="55.96543689609054" stroke="#000" stroke-width="0.3" />
<polygon points="86.97332070044415,71.07765335125168 88.49924800202344,55.96543689609054 82.07287959456416,59.13312008924911 81.3099159437745,66.68922831682968" fill="none" stroke="#666" stroke-width="0.2" />
<text x="89.52717791658557" y="63.7023771937848" font-size="3" text-anchor="middle" dominant-baseline="central" fill="#000">234</text>
<line x1="88.49924800202344" y1="55.96543689609054" x2="91.40750148567125" y2="56.57437649395396" stroke="#000" stroke-width="0.3" />
<polygon points="88.49924800202344,55.96543689609054 91.40750148567125,56.57437649395396 90.92401395390466,55.25884020102898 89.46988721208075,54.95437040209727" fill="none" stroke="#666" stroke-width="0.2" />
<text x="89.58448446057814" y="58.03170122302759" font-size="3" text-anchor="middle" dominant-baseline="central" fill="#000">235</text>
<line x1="91.40750148567125" y1="56.57437649395396" x2="86.97332070044415" y2="71.07765335125168" stroke="#000" stroke-width="0.3" stroke-dasharray="2 1.5" />
<line x1="86.97332070044415" y1="71.07765335125168" x2="91.40750148567125" y2="56.57437649395396" stroke="#000" stroke-width="0.3" stroke-dasharray="2 1.5" />
<line x1="91.40750148567125" y1="56.57437649395396" x2="92.39146451624325" y2="72.95699229775754" stroke="#000" stroke-width="0.3" stroke-dasharray="2 1.5" />
<line x1="92.39146451624325" y1="72.95699229775754" x2="86.97332070044415" y2="71.07765335125168" stroke="#000" stroke-width="0.3" />
<polygon points="92.39146451624325,72.95699229775754 86.97332070044415,71.07765335125168 87.57612107579156,73.71474561419778 90.28519298369113,74.65441508745072" fill="none" stroke="#666" stroke-width="0.2" />
<text x="90.27226434075095" y="70.3167195964391" font-size="3" text-anchor="middle" dominant-baseline="central" fill="#000">236</text>
<line x1="131.87108637770942" y1="69.44930268005956" x2="132.88004572346787" y2="61.887864876494376" stroke="#000" stroke-width="0.3" />
<polygon points="131.87108637770942,69.44930268005956 132.88004572346787,61.887864876494376 129.6032307656022,63.37464058908229 129.09875109272295,67.15535949086485" fill="none" stroke="#666" stroke-width="0.2" />
<text x="134.15975253399571" y="65.906656440352" font-size="3" text-anchor="middle" dominant-baseline="central" fill="#000">280</text>
<line x1="132.88004572346787" y1="61.887864876494376" x2="135.46000400344337" y2="61.62412061956565" stroke="#000" stroke-width="0.3" stroke-dasharray="2 1.5" />
<line x1="135.46000400344337" y1="61.62412061956565" x2="131.87108637770942" y2="69.44930268005956" stroke="#000" stroke-width="0.3" stroke-dasharray="2 1.5" />
<line x1="131.87108637770942" y1="69.44930268005956" x2="135.46000400344337" y2="61.62412061956565" stroke="#000" stroke-width="0.3" stroke-dasharray="2 1.5" />
<line x1="135.46000400344337" y1="61.62412061956565" x2="134.31441095774676" y2="69.19947630358504" stroke="#000" stroke-width="0.3" />
<text x="134.88720748059507" y="65.41179846157534" font-size="3" text-anchor="middle" dominant-baseline="central" fill="#000">279</text>
<line x1="134.31441095774676" y1="69.19947630358504" x2="131.87108637770942" y2="69.44930268005956" stroke="#000" stroke-width="0.3" />
<text x="133.09274866772807" y="69.3243894918223" font-size="3" text-anchor="middle" dominant-baseline="central" fill="#000">374</text>
<line x1="132.88004572346787" y1="61.887864876494376" x2="134.98714124496627" y2="56.58801779730931" stroke="#000" stroke-width="0.3" />
<polygon points="132.88004572346787,61.887864876494376 134.98714124496627,56.58801779730931 132.34042853291763,57.07014135850624 131.28688077216844,59.72006489809876" fill="none" stroke="#666" stroke-width="0.2" />
<text x="135.60624559828403" y="59.902948784459596" font-size="3" text-anchor="middle" dominant-baseline="central" fill="#000">281</text>
<line x1="134.98714124496627" y1="56.58801779730931" x2="137.56709952494177" y2="56.32427354038059" stroke="#000" stroke-width="0.3" stroke-dasharray="2 1.5" />
<line x1="137.56709952494177" y1="56.32427354038059" x2="132.88004572346787" y2="61.887864876494376" stroke="#000" stroke-width="0.3" stroke-dasharray="2 1.5" />
<line x1="132.88004572346787" y1="61.887864876494376" x2="137.56709952494177" y2="56.32427354038059" stroke="#000" stroke-width="0.3" stroke-dasharray="2 1.5" />
<line x1="137.56709952494177" y1="56.32427354038059" x2="135.46000400344337" y2="61.62412061956565" stroke="#000" stroke-width="0.3" />
<text x="136.51355176419258" y="58.97419707997312" font-size="3" text-anchor="middle" dominant-baseline="central" fill="#000">274</text>
<line x1="135.46000400344337" y1="61.62412061956565" x2="132.88004572346787" y2="61.887864876494376" stroke="#000" stroke-width="0.3" stroke-dasharray="2 1.5" />
<line x1="134.98714124496627" y1="56.58801779730931" x2="135.80925766834997" y2="52.21896392092914" stroke="#000" stroke-width="0.3" />
<polygon points="134.98714124496627,56.58801779730931 135.80925766834997,52.21896392092914 133.856107011952,52.9823808206707 133.44504880026014,55.166907758860795" fill="none" stroke="#666" stroke-width="0.2" />
<text x="137.16715496631687" y="54.73635179832342" font-size="3" text-anchor="middle" dominant-baseline="central" fill="#000">361</text>
<line x1="135.80925766834997" y1="52.21896392092914" x2="138.38922893100235" y2="51.95533542938186" stroke="#000" stroke-width="0.3" />
<text x="137.09924329967617" y="52.0871496751555" font-size="3" text-anchor="middle" dominant-baseline="central" fill="#000">357</text>
<line x1="138.38922893100235" y1="51.95533542938186" x2="134.98714124496627" y2="56.58801779730931" stroke="#000" stroke-width="0.3" stroke-dasharray="2 1.5" />
<line x1="134.98714124496627" y1="56.58801779730931" x2="138.38922893100235" y2="51.95533542938186" stroke="#000" stroke-width="0.3" stroke-dasharray="2 1.5" />
<line x1="138.38922893100235" y1="51.95533542938186" x2="137.56709952494177" y2="56.32427354038059" stroke="#000" stroke-width="0.3" />
<text x="137.97816422797206" y="54.139804484881225" font-size="3" text-anchor="middle" dominant-baseline="central" fill="#000">360</text>
<line x1="137.56709952494177" y1="56.32427354038059" x2="134.98714124496627" y2="56.58801779730931" stroke="#000" stroke-width="0.3" stroke-dasharray="2 1.5" />
<line x1="146.16156421598882" y1="51.95533542938186" x2="148.6048887960262" y2="52.205161805856385" stroke="#000" stroke-width="0.3" />
<text x="147.3832265060075" y="52.08024861761912" font-size="3" text-anchor="middle" dominant-baseline="central" fill="#000">372</text>
<line x1="148.6048887960262" y1="52.205161805856385" x2="149.75048184172277" y2="59.78051748987575" stroke="#000" stroke-width="0.3" />
<text x="149.17768531887447" y="55.99283964786606" font-size="3" text-anchor="middle" dominant-baseline="central" fill="#000">125</text>
<line x1="149.75048184172277" y1="59.78051748987575" x2="146.16156421598882" y2="51.95533542938186" stroke="#000" stroke-width="0.3" stroke-dasharray="2 1.5" />
<line x1="146.16156421598882" y1="51.95533542938186" x2="149.75048184172277" y2="59.78051748987575" stroke="#000" stroke-width="0.3" stroke-dasharray="2 1.5" />
<line x1="149.75048184172277" y1="59.78051748987575" x2="147.17052356174727" y2="59.516773232947074" stroke="#000" stroke-width="0.3" stroke-dasharray="2 1.5" />
<line x1="147.17052356174727" y1="59.516773232947074" x2="146.16156421598882" y2="51.95533542938186" stroke="#000" stroke-width="0.3" />
<polygon points="147.17052356174727,59.516773232947074 146.16156421598882,51.95533542938186 143.38922893100235,54.24927861857655 143.89370860388158,58.02999752035916" fill="none" stroke="#666" stroke-width="0.2" />
<text x="148.45023037227512" y="55.49798166908945" font-size="3" text-anchor="middle" dominant-baseline="central" fill="#000">126</text>
<line x1="147.17052356174727" y1="59.516773232947074" x2="149.75048184172277" y2="59.78051748987575" stroke="#000" stroke-width="0.3" stroke-dasharray="2 1.5" />
<line x1="149.75048184172277" y1="59.78051748987575" x2="151.85757736322128" y2="65.08036456906079" stroke="#000" stroke-width="0.3" />
<text x="150.80402960247204" y="62.43044102946827" font-size="3" text-anchor="middle" dominant-baseline="central" fill="#000">121</text>
<line x1="151.85757736322128" y1="65.08036456906079" x2="147.17052356174727" y2="59.516773232947074" stroke="#000" stroke-width="0.3" stroke-dasharray="2 1.5" />
<line x1="147.17052356174727" y1="59.516773232947074" x2="151.85757736322128" y2="65.08036456906079" stroke="#000" stroke-width="0.3" stroke-dasharray="2 1.5" />
<line x1="151.85757736322128" y1="65.08036456906079" x2="149.27761908324578" y2="64.81662031213212" stroke="#000" stroke-width="0.3" stroke-dasharray="2 1.5" />
<line x1="149.27761908324578" y1="64.81662031213212" x2="147.17052356174727" y2="59.516773232947074" stroke="#000" stroke-width="0.3" />
<polygon points="149.27761908324578,64.81662031213212 147.17052356174727,59.516773232947074 145.5773586104479,61.68457321134274 146.63090637119714,64.33449675093523" fill="none" stroke="#666" stroke-width="0.2" />
<text x="149.89672343656346" y="61.501689324981804" font-size="3" text-anchor="middle" dominant-baseline="central" fill="#000">127</text>
<line x1="149.27761908324578" y1="64.81662031213212" x2="151.85757736322128" y2="65.08036456906079" stroke="#000" stroke-width="0.3" stroke-dasharray="2 1.5" />
<line x1="151.85757736322128" y1="65.08036456906079" x2="152.67970676928195" y2="69.44930268005949" stroke="#000" stroke-width="0.3" />
<text x="152.26864206625163" y="67.26483362456014" font-size="3" text-anchor="middle" dominant-baseline="central" fill="#000">338</text>
<line x1="152.67970676928195" y1="69.44930268005949" x2="149.27761908324578" y2="64.81662031213212" stroke="#000" stroke-width="0.3" stroke-dasharray="2 1.5" />
<line x1="149.27761908324578" y1="64.81662031213212" x2="152.67970676928195" y2="69.44930268005949" stroke="#000" stroke-width="0.3" stroke-dasharray="2 1.5" />
<line x1="152.67970676928195" y1="69.44930268005949" x2="150.09973550662957" y2="69.18567418851225" stroke="#000" stroke-width="0.3" />
<text x="151.38972113795575" y="69.31748843428588" font-size="3" text-anchor="middle" dominant-baseline="central" fill="#000">334</text>
<line x1="150.09973550662957" y1="69.18567418851225" x2="149.27761908324578" y2="64.81662031213212" stroke="#000" stroke-width="0.3" />
<polygon points="150.09973550662957,69.18567418851225 149.27761908324578,64.81662031213212 147.73552663853968,66.23773035058066 148.1465848502316,68.42225728877074" fill="none" stroke="#666" stroke-width="0.2" />
<text x="151.45763280459644" y="66.66828631111798" font-size="3" text-anchor="middle" dominant-baseline="central" fill="#000">339</text>
<line x1="157.67970676928195" y1="64.47088530734018" x2="171.08844540748288" y2="51.95533542938186" stroke="#000" stroke-width="0.3" />
<text x="164.38407608838241" y="58.21311036836102" font-size="3" text-anchor="middle" dominant-baseline="central" fill="#000">17</text>
<line x1="171.08844540748288" y1="51.95533542938186" x2="171.09724681979645" y2="55.11045497088893" stroke="#000" stroke-width="0.3" />
<polygon points="171.08844540748288,51.95533542938186 171.09724681979645,55.11045497088893 172.3570942833209,54.31815452058673 172.3526935771641,52.74059474983321" fill="none" stroke="#666" stroke-width="0.2" />
<text x="169.2928531171064" y="53.537916398323176" font-size="3" text-anchor="middle" dominant-baseline="central" fill="#000">18</text>
<line x1="171.09724681979645" y1="55.11045497088893" x2="157.67970676928195" y2="64.47088530734018" stroke="#000" stroke-width="0.3" />
<polygon points="171.09724681979645,55.11045497088893 157.67970676928195,64.47088530734018 164.77826391649108,67.49779374343316 171.48703394174834,62.81757857520755" fill="none" stroke="#666" stroke-width="0.2" />
<text x="163.35859758921674" y="58.314408366106676" font-size="3" text-anchor="middle" dominant-baseline="central" fill="#000">394</text>
<line x1="181.5687796949016" y1="53.245447236541935" x2="185.93699812789998" y2="51.95533542938186" stroke="#000" stroke-width="0.3" />
<text x="183.7528889114008" y="52.6003913329619" font-size="3" text-anchor="middle" dominant-baseline="central" fill="#000">89</text>
<line x1="185.93699812789998" y1="51.95533542938186" x2="188.2650709056439" y2="65.06596186395186" stroke="#000" stroke-width="0.3" />
<text x="187.10103451677196" y="58.51064864666686" font-size="3" text-anchor="middle" dominant-baseline="central" fill="#000">85</text>
<line x1="188.2650709056439" y1="65.06596186395186" x2="181.5687796949016" y2="53.245447236541935" stroke="#000" stroke-width="0.3" stroke-dasharray="2 1.5" />
<line x1="181.5687796949016" y1="53.245447236541935" x2="188.2650709056439" y2="65.06596186395186" stroke="#000" stroke-width="0.3" stroke-dasharray="2 1.5" />
<line x1="188.2650709056439" y1="65.06596186395186" x2="185.12068342630877" y2="65.99460059762319" stroke="#000" stroke-width="0.3" />
<polygon points="188.2650709056439,65.06596186395186 185.12068342630877,65.99460059762319 186.2782357896111,67.0201959059394 187.85042952927864,66.55587653910374" fill="none" stroke="#666" stroke-width="0.2" />
<text x="186.1830484323383" y="63.80399195538869" font-size="3" text-anchor="middle" dominant-baseline="central" fill="#000">387</text>
<line x1="185.12068342630877" y1="65.99460059762319" x2="181.5687796949016" y2="53.245447236541935" stroke="#000" stroke-width="0.3" />
<polygon points="185.12068342630877,65.99460059762319 181.5687796949016,53.245447236541935 177.3570942833209,57.8534970693751 179.13304614902447,64.22807374991575" fill="none" stroke="#666" stroke-width="0.2" />
<text x="185.0786959983933" y="59.13694283849833" font-size="3" text-anchor="middle" dominant-baseline="central" fill="#000">93</text>
<line x1="197.4767563172246" y1="65.73008409877934" x2="201.02866004863176" y2="52.98093073769808" stroke="#000" stroke-width="0.3" />
<polygon points="197.4767563172246,65.73008409877934 201.02866004863176,52.98093073769808 195.04102277134749,54.747457585405535 193.2650709056439,61.12203426594616" fill="none" stroke="#666" stroke-width="0.2" />
<text x="200.98667262071632" y="59.83858849682295" font-size="3" text-anchor="middle" dominant-baseline="central" fill="#000">247</text>
<line x1="201.02866004863176" y1="52.98093073769808" x2="204.1730475279669" y2="53.909569471369394" stroke="#000" stroke-width="0.3" />
<polygon points="201.02866004863176,52.98093073769808 204.1730475279669,53.909569471369394 203.75840615160163,52.419654796217515 202.1862124119341,51.95533542938186" fill="none" stroke="#666" stroke-width="0.2" />
<text x="202.09102505466126" y="55.17153937993257" font-size="3" text-anchor="middle" dominant-baseline="central" fill="#000">389</text>
<line x1="204.1730475279669" y1="53.909569471369394" x2="197.4767563172246" y2="65.73008409877934" stroke="#000" stroke-width="0.3" stroke-dasharray="2 1.5" />
<line x1="197.4767563172246" y1="65.73008409877934" x2="204.1730475279669" y2="53.909569471369394" stroke="#000" stroke-width="0.3" stroke-dasharray="2 1.5" />
<line x1="204.1730475279669" y1="53.909569471369394" x2="201.84497475022303" y2="67.0201959059394" stroke="#000" stroke-width="0.3" />
<text x="203.00901113909498" y="60.4648826886544" font-size="3" text-anchor="middle" dominant-baseline="central" fill="#000">238</text>
<line x1="201.84497475022303" y1="67.0201959059394" x2="197.4767563172246" y2="65.73008409877934" stroke="#000" stroke-width="0.3" />
<text x="199.66086553372384" y="66.37514000235937" font-size="3" text-anchor="middle" dominant-baseline="central" fill="#000">243</text>
<line x1="16.66957025874418" y1="99.85629377140222" x2="14.50952079178957" y2="87.23246087508167" stroke="#000" stroke-width="0.3" />
<polygon points="16.66957025874418,99.85629377140222 14.50952079178957,87.23246087508167 10,91.25243888594365 11.0800247334773,97.56435533410394" fill="none" stroke="#666" stroke-width="0.2" />
<text x="17.36375996723098" y="93.24079353921192" font-size="3" text-anchor="middle" dominant-baseline="central" fill="#000">250</text>
<line x1="14.50952079178957" y1="87.23246087508167" x2="15.979925252503683" y2="86.98370936010151" stroke="#000" stroke-width="0.3" />
<polygon points="14.50952079178957,87.23246087508167 15.979925252503683,86.98370936010151 15.512823531333103,86.45773545456089 14.777621300976033,86.58211121205099" fill="none" stroke="#666" stroke-width="0.2" />
<text x="15.5449668648247" y="88.88286781835637" font-size="3" text-anchor="middle" dominant-baseline="central" fill="#000">393</text>
<line x1="15.979925252503683" y1="86.98370936010151" x2="16.66957025874418" y2="99.85629377140222" stroke="#000" stroke-width="0.3" stroke-dasharray="2 1.5" />
<line x1="16.66957025874418" y1="99.85629377140222" x2="15.979925252503683" y2="86.98370936010151" stroke="#000" stroke-width="0.3" stroke-dasharray="2 1.5" />
<line x1="15.979925252503683" y1="86.98370936010151" x2="19.639197603509093" y2="99.35395035877707" stroke="#000" stroke-width="0.3" />
<polygon points="15.979925252503683,86.98370936010151 19.639197603509093,99.35395035877707 23.672475915227963,94.797681168706 21.84283973972525,88.61256066936824" fill="none" stroke="#666" stroke-width="0.2" />
<text x="16.08349755504951" y="93.67942118963703" font-size="3" text-anchor="middle" dominant-baseline="central" fill="#000">251</text>
<line x1="19.639197603509093" y1="99.35395035877707" x2="16.66957025874418" y2="99.85629377140222" stroke="#000" stroke-width="0.3" />
<polygon points="19.639197603509093,99.35395035877707 16.66957025874418,99.85629377140222 17.612914459985472,100.9185588561519 19.097728132367926,100.66738714983933" fill="none" stroke="#666" stroke-width="0.2" />
<text x="17.854160361676996" y="97.8303359347779" font-size="3" text-anchor="middle" dominant-baseline="central" fill="#000">252</text>
<line x1="34.3387434344287" y1="87.52000053931056" x2="37.30837077919361" y2="88.02234395193575" stroke="#000" stroke-width="0.3" />
<polygon points="34.3387434344287,87.52000053931056 37.30837077919361,88.02234395193575 36.76690130805246,86.7089071608735 35.28208763567,86.45773545456089" fill="none" stroke="#666" stroke-width="0.2" />
<text x="35.523333537361474" y="89.54595837593489" font-size="3" text-anchor="middle" dominant-baseline="central" fill="#000">96</text>
<line x1="37.30837077919361" y1="88.02234395193575" x2="33.6490984281881" y2="100.39258495061128" stroke="#000" stroke-width="0.3" />
<polygon points="37.30837077919361,88.02234395193575 33.6490984281881,100.39258495061128 39.51201291540969,98.7637336413446 41.341649090912455,92.57861314200683" fill="none" stroke="#666" stroke-width="0.2" />
<text x="33.75267073073398" y="93.69687312107577" font-size="3" text-anchor="middle" dominant-baseline="central" fill="#000">97</text>
<line x1="33.6490984281881" y1="100.39258495061128" x2="34.3387434344287" y2="87.52000053931056" stroke="#000" stroke-width="0.3" />
<polygon points="33.6490984281881,100.39258495061128 34.3387434344287,87.52000053931056 29.01729841834827,90.46228863963951 28.672475915227963,96.89858084528986" fill="none" stroke="#666" stroke-width="0.2" />
<text x="35.79134325409909" y="94.05258912876477" font-size="3" text-anchor="middle" dominant-baseline="central" fill="#000">392</text>
<line x1="55.39251430197656" y1="86.45773545456089" x2="56.850421181800236" y2="87.66087307270507" stroke="#000" stroke-width="0.3" />
<text x="56.121467741888395" y="87.05930426363298" font-size="3" text-anchor="middle" dominant-baseline="central" fill="#000">117</text>
<line x1="56.850421181800236" y1="87.66087307270507" x2="51.89230796825951" y2="94.67840508632571" stroke="#000" stroke-width="0.3" />
<text x="54.37136457502987" y="91.16963907951539" font-size="3" text-anchor="middle" dominant-baseline="central" fill="#000">385</text>
<line x1="51.89230796825951" y1="94.67840508632571" x2="55.39251430197656" y2="86.45773545456089" stroke="#000" stroke-width="0.3" stroke-dasharray="2 1.5" />
<line x1="55.39251430197656" y1="86.45773545456089" x2="51.89230796825951" y2="94.67840508632571" stroke="#000" stroke-width="0.3" stroke-dasharray="2 1.5" />
<line x1="51.89230796825951" y1="94.67840508632571" x2="50.43456032165243" y2="93.47523549329645" stroke="#000" stroke-width="0.3" stroke-dasharray="2 1.5" />
<line x1="50.43456032165243" y1="93.47523549329645" x2="55.39251430197656" y2="86.45773545456089" stroke="#000" stroke-width="0.3" />
<text x="52.913537311814494" y="89.96648547392867" font-size="3" text-anchor="middle" dominant-baseline="central" fill="#000">111</text>
<line x1="50.43456032165243" y1="93.47523549329645" x2="51.89230796825951" y2="94.67840508632571" stroke="#000" stroke-width="0.3" stroke-dasharray="2 1.5" />
<line x1="51.89230796825951" y1="94.67840508632571" x2="48.847147160022516" y2="99.05743943546763" stroke="#000" stroke-width="0.3" />
<text x="50.369727564141016" y="96.86792226089668" font-size="3" text-anchor="middle" dominant-baseline="central" fill="#000">327</text>
<line x1="48.847147160022516" y1="99.05743943546763" x2="50.43456032165243" y2="93.47523549329645" stroke="#000" stroke-width="0.3" stroke-dasharray="2 1.5" />
<line x1="50.43456032165243" y1="93.47523549329645" x2="48.847147160022516" y2="99.05743943546763" stroke="#000" stroke-width="0.3" stroke-dasharray="2 1.5" />
<line x1="48.847147160022516" y1="99.05743943546763" x2="47.25264596913566" y2="97.74142415917746" stroke="#000" stroke-width="0.3" />
<text x="48.049896564579086" y="98.39943179732253" font-size="3" text-anchor="middle" dominant-baseline="central" fill="#000">322</text>
<line x1="47.25264596913566" y1="97.74142415917746" x2="50.43456032165243" y2="93.47523549329645" stroke="#000" stroke-width="0.3" />
<polygon points="47.25264596913566,97.74142415917746 50.43456032165243,93.47523549329645 47.932606267170826,93.26901691876 46.341649090912455,95.4021112517005" fill="none" stroke="#666" stroke-width="0.2" />
<text x="50.28647588234627" y="96.68448885954011" font-size="3" text-anchor="middle" dominant-baseline="central" fill="#000">328</text>
<line x1="70.90128639286449" y1="99.05743943546753" x2="65.94333241254024" y2="92.03993939673204" stroke="#000" stroke-width="0.3" />
<text x="68.42230940270237" y="95.54868941609979" font-size="3" text-anchor="middle" dominant-baseline="central" fill="#000">266</text>
<line x1="65.94333241254024" y1="92.03993939673204" x2="67.40108005914732" y2="90.83676980370275" stroke="#000" stroke-width="0.3" stroke-dasharray="2 1.5" />
<line x1="67.40108005914732" y1="90.83676980370275" x2="70.90128639286449" y2="99.05743943546753" stroke="#000" stroke-width="0.3" stroke-dasharray="2 1.5" />
<line x1="70.90128639286449" y1="99.05743943546753" x2="67.40108005914732" y2="90.83676980370275" stroke="#000" stroke-width="0.3" stroke-dasharray="2 1.5" />
<line x1="67.40108005914732" y1="90.83676980370275" x2="72.35919327268816" y2="97.85430181732332" stroke="#000" stroke-width="0.3" />
<text x="69.88013666591775" y="94.34553581051304" font-size="3" text-anchor="middle" dominant-baseline="central" fill="#000">386</text>
<line x1="72.35919327268816" y1="97.85430181732332" x2="70.90128639286449" y2="99.05743943546753" stroke="#000" stroke-width="0.3" />
<text x="71.63023983277633" y="98.45587062639542" font-size="3" text-anchor="middle" dominant-baseline="central" fill="#000">272</text>
<line x1="65.94333241254024" y1="92.03993939673204" x2="62.76141806002343" y2="87.77375073085106" stroke="#000" stroke-width="0.3" />
<polygon points="65.94333241254024,92.03993939673204 62.76141806002343,87.77375073085106 61.850421181800236,90.11306363832804 63.44137835805866,92.24615797126852" fill="none" stroke="#666" stroke-width="0.2" />
<text x="65.79524797323404" y="88.83068603048837" font-size="3" text-anchor="middle" dominant-baseline="central" fill="#000">350</text>
<line x1="62.76141806002343" y1="87.77375073085106" x2="64.35591925091026" y2="86.45773545456089" stroke="#000" stroke-width="0.3" />
<text x="63.558668655466846" y="87.11574309270597" font-size="3" text-anchor="middle" dominant-baseline="central" fill="#000">346</text>
<line x1="64.35591925091026" y1="86.45773545456089" x2="65.94333241254024" y2="92.03993939673204" stroke="#000" stroke-width="0.3" stroke-dasharray="2 1.5" />
<line x1="65.94333241254024" y1="92.03993939673204" x2="64.35591925091026" y2="86.45773545456089" stroke="#000" stroke-width="0.3" stroke-dasharray="2 1.5" />
<line x1="64.35591925091026" y1="86.45773545456089" x2="67.40108005914732" y2="90.83676980370275" stroke="#000" stroke-width="0.3" />
<text x="65.87849965502879" y="88.64725262913183" font-size="3" text-anchor="middle" dominant-baseline="central" fill="#000">348</text>
<line x1="67.40108005914732" y1="90.83676980370275" x2="65.94333241254024" y2="92.03993939673204" stroke="#000" stroke-width="0.3" stroke-dasharray="2 1.5" />
<line x1="79.56623762649413" y1="96.88443930866406" x2="86.3011514614438" y2="87.15750727730558" stroke="#000" stroke-width="0.3" />
<polygon points="79.56623762649413,96.88443930866406 86.3011514614438,87.15750727730558 80.72665019016299,86.89527475116533 77.35919327268816,91.75874076684457" fill="none" stroke="#666" stroke-width="0.2" />
<text x="84.41357754516285" y="93.04564216768402" font-size="3" text-anchor="middle" dominant-baseline="central" fill="#000">284</text>
<line x1="86.3011514614438" y1="87.15750727730558" x2="88.74390110395862" y2="88.26681941435055" stroke="#000" stroke-width="0.3" />
<polygon points="86.3011514614438,87.15750727730558 88.74390110395862,88.26681941435055 88.57693854814791,87.01239152308338 87.35556372689048,86.45773545456089" fill="none" stroke="#666" stroke-width="0.2" />
<text x="86.77825298317426" y="89.35108288491814" font-size="3" text-anchor="middle" dominant-baseline="central" fill="#000">285</text>
<line x1="88.74390110395862" y1="88.26681941435055" x2="79.56623762649413" y2="96.88443930866406" stroke="#000" stroke-width="0.3" />
<polygon points="88.74390110395862,88.26681941435055 79.56623762649413,96.88443930866406 85.30770145358565,98.40109972607148 89.8965331923179,94.09228977891473" fill="none" stroke="#666" stroke-width="0.2" />
<text x="82.92294382070459" y="91.26343019882778" font-size="3" text-anchor="middle" dominant-baseline="central" fill="#000">396</text>
<line x1="95.25484536331354" y1="95.2655032290499" x2="94.8965331923179" y2="92.67278154641777" stroke="#000" stroke-width="0.3" />
<text x="95.07568927781571" y="93.96914238773383" font-size="3" text-anchor="middle" dominant-baseline="central" fill="#000">23</text>
<line x1="94.8965331923179" y1="92.67278154641777" x2="104.25018339915891" y2="86.45773545456089" stroke="#000" stroke-width="0.3" />
<text x="99.57335829573842" y="89.56525850048934" font-size="3" text-anchor="middle" dominant-baseline="central" fill="#000">395</text>
<line x1="104.25018339915891" y1="86.45773545456089" x2="95.25484536331354" y2="95.2655032290499" stroke="#000" stroke-width="0.3" stroke-dasharray="2 1.5" />
<line x1="95.25484536331354" y1="95.2655032290499" x2="104.25018339915891" y2="86.45773545456089" stroke="#000" stroke-width="0.3" stroke-dasharray="2 1.5" />
<line x1="104.25018339915891" y1="86.45773545456089" x2="105.25596063540875" y2="88.94490480634278" stroke="#000" stroke-width="0.3" />
<polygon points="104.25018339915891,86.45773545456089 105.25596063540875,88.94490480634278 105.99938406705905,87.92080157389736 105.49649544893414,86.67721689800642" fill="none" stroke="#666" stroke-width="0.2" />
<text x="103.08434986225167" y="88.37612852496453" font-size="3" text-anchor="middle" dominant-baseline="central" fill="#000">130</text>
<line x1="105.25596063540875" y1="88.94490480634278" x2="95.25484536331354" y2="95.2655032290499" stroke="#000" stroke-width="0.3" />
<polygon points="105.25596063540875,88.94490480634278 95.25484536331354,95.2655032290499 100.28336355042019,97.68579973221121 105.28392118646781,94.52550052085765" fill="none" stroke="#666" stroke-width="0.2" />
<text x="99.29376924547225" y="90.58360600133933" font-size="3" text-anchor="middle" dominant-baseline="central" fill="#000">131</text>
<line x1="120.74108126217898" y1="88.231399216478" x2="119.57014526370823" y2="90.71668496514364" stroke="#000" stroke-width="0.3" />
<text x="120.1556132629436" y="89.47404209081083" font-size="3" text-anchor="middle" dominant-baseline="central" fill="#000">164</text>
<line x1="119.57014526370823" y1="90.71668496514364" x2="115.1416495203081" y2="90.09583495580297" stroke="#000" stroke-width="0.3" stroke-dasharray="2 1.5" />
<line x1="115.1416495203081" y1="90.09583495580297" x2="120.74108126217898" y2="88.231399216478" stroke="#000" stroke-width="0.3" />
<polygon points="115.1416495203081,90.09583495580297 120.74108126217898,88.231399216478 118.59544903098129,86.45773545456089 115.79573316004584,87.38995332422337" fill="none" stroke="#666" stroke-width="0.2" />
<text x="118.51001494878135" y="90.87143372756077" font-size="3" text-anchor="middle" dominant-baseline="central" fill="#000">376</text>
<line x1="119.57014526370823" y1="90.71668496514364" x2="118.82701370152802" y2="93.4431349735953" stroke="#000" stroke-width="0.3" />
<text x="119.19857948261813" y="92.07990996936948" font-size="3" text-anchor="middle" dominant-baseline="central" fill="#000">165</text>
<line x1="118.82701370152802" y1="93.4431349735953" x2="114.55916779774029" y2="91.81429807975873" stroke="#000" stroke-width="0.3" />
<polygon points="118.82701370152802,93.4431349735953 114.55916779774029,91.81429807975873 114.97459451615258,93.92864566473297 117.10851746804646,94.74306411165125" fill="none" stroke="#666" stroke-width="0.2" />
<text x="117.33491136246133" y="90.94703097314742" font-size="3" text-anchor="middle" dominant-baseline="central" fill="#000">170</text>
<line x1="114.55916779774029" y1="91.81429807975873" x2="119.57014526370823" y2="90.71668496514364" stroke="#000" stroke-width="0.3" stroke-dasharray="2 1.5" />
<line x1="119.57014526370823" y1="90.71668496514364" x2="114.55916779774029" y2="91.81429807975873" stroke="#000" stroke-width="0.3" stroke-dasharray="2 1.5" />
<line x1="114.55916779774029" y1="91.81429807975873" x2="115.1416495203081" y2="90.09583495580297" stroke="#000" stroke-width="0.3" stroke-dasharray="2 1.5" />
<line x1="115.1416495203081" y1="90.09583495580297" x2="119.57014526370823" y2="90.71668496514364" stroke="#000" stroke-width="0.3" stroke-dasharray="2 1.5" />
<line x1="115.1416495203081" y1="90.09583495580297" x2="114.55916779774029" y2="91.81429807975873" stroke="#000" stroke-width="0.3" stroke-dasharray="2 1.5" />
<line x1="114.55916779774029" y1="91.81429807975873" x2="111.8755551810775" y2="90.36692255685078" stroke="#000" stroke-width="0.3" stroke-dasharray="2 1.5" />
<line x1="111.8755551810775" y1="90.36692255685078" x2="115.1416495203081" y2="90.09583495580297" stroke="#000" stroke-width="0.3" stroke-dasharray="2 1.5" />
<line x1="115.1416495203081" y1="90.09583495580297" x2="111.8755551810775" y2="90.36692255685078" stroke="#000" stroke-width="0.3" stroke-dasharray="2 1.5" />
<line x1="111.8755551810775" y1="90.36692255685078" x2="112.39022232500433" y2="88.98004327833293" stroke="#000" stroke-width="0.3" />
<text x="112.13288875304092" y="89.67348291759185" font-size="3" text-anchor="middle" dominant-baseline="central" fill="#000">171</text>
<line x1="112.39022232500433" y1="88.98004327833293" x2="115.1416495203081" y2="90.09583495580297" stroke="#000" stroke-width="0.3" />
<text x="113.76593592265621" y="89.53793911706795" font-size="3" text-anchor="middle" dominant-baseline="central" fill="#000">166</text>
<line x1="116.39463926432686" y1="96.60446448701016" x2="113.44317412525953" y2="93.24501768488906" stroke="#000" stroke-width="0.3" />
<text x="114.9189066947932" y="94.92474108594962" font-size="3" text-anchor="middle" dominant-baseline="central" fill="#000">312</text>
<line x1="113.44317412525953" y1="93.24501768488906" x2="114.55916779774029" y2="91.81429807975873" stroke="#000" stroke-width="0.3" stroke-dasharray="2 1.5" />
<line x1="114.55916779774029" y1="91.81429807975873" x2="116.39463926432686" y2="96.60446448701016" stroke="#000" stroke-width="0.3" stroke-dasharray="2 1.5" />
<line x1="116.39463926432686" y1="96.60446448701016" x2="114.55916779774029" y2="91.81429807975873" stroke="#000" stroke-width="0.3" stroke-dasharray="2 1.5" />
<line x1="114.55916779774029" y1="91.81429807975873" x2="118.26466789157092" y2="94.48579341754655" stroke="#000" stroke-width="0.3" />
<text x="116.4119178446556" y="93.15004574865264" font-size="3" text-anchor="middle" dominant-baseline="central" fill="#000">170</text>
<line x1="118.26466789157092" y1="94.48579341754655" x2="116.39463926432686" y2="96.60446448701016" stroke="#000" stroke-width="0.3" />
<text x="117.32965357794889" y="95.54512895227836" font-size="3" text-anchor="middle" dominant-baseline="central" fill="#000">311</text>
<line x1="113.44317412525953" y1="93.24501768488906" x2="110.99938406705905" y2="91.55882883721836" stroke="#000" stroke-width="0.3" />
<text x="112.2212790961593" y="92.40192326105371" font-size="3" text-anchor="middle" dominant-baseline="central" fill="#000">315</text>
<line x1="110.99938406705905" y1="91.55882883721836" x2="111.8755551810775" y2="90.36692255685078" stroke="#000" stroke-width="0.3" />
<text x="111.43746962406829" y="90.96287569703458" font-size="3" text-anchor="middle" dominant-baseline="central" fill="#000">316</text>
<line x1="111.8755551810775" y1="90.36692255685078" x2="113.44317412525953" y2="93.24501768488906" stroke="#000" stroke-width="0.3" stroke-dasharray="2 1.5" />
<line x1="113.44317412525953" y1="93.24501768488906" x2="111.8755551810775" y2="90.36692255685078" stroke="#000" stroke-width="0.3" stroke-dasharray="2 1.5" />
<line x1="111.8755551810775" y1="90.36692255685078" x2="114.55916779774029" y2="91.81429807975873" stroke="#000" stroke-width="0.3" stroke-dasharray="2 1.5" />
<line x1="114.55916779774029" y1="91.81429807975873" x2="113.44317412525953" y2="93.24501768488906" stroke="#000" stroke-width="0.3" stroke-dasharray="2 1.5" />
<line x1="128.9825963629538" y1="95.69673206037955" x2="129.90365125847958" y2="87.0172849987389" stroke="#000" stroke-width="0.3" />
<polygon points="128.9825963629538,95.69673206037955 129.90365125847958,87.0172849987389 126.20160870994187,88.81872480593876 125.74108126217898,93.15844833675908" fill="none" stroke="#666" stroke-width="0.2" />
<text x="131.23307348368712" y="91.54695633352941" font-size="3" text-anchor="middle" dominant-baseline="central" fill="#000">297</text>
<line x1="129.90365125847958" y1="87.0172849987389" x2="131.33603605081353" y2="87.07090248976117" stroke="#000" stroke-width="0.3" />
<polygon points="129.90365125847958,87.0172849987389 131.33603605081353,87.07090248976117 130.99938684913897,86.48454420007202 130.28319445297197,86.45773545456089" fill="none" stroke="#666" stroke-width="0.2" />
<text x="130.55251262711542" y="88.84283400697048" font-size="3" text-anchor="middle" dominant-baseline="central" fill="#000">298</text>
<line x1="131.33603605081353" y1="87.07090248976117" x2="128.9825963629538" y2="95.69673206037955" stroke="#000" stroke-width="0.3" stroke-dasharray="2 1.5" />
<line x1="128.9825963629538" y1="95.69673206037955" x2="131.33603605081353" y2="87.07090248976117" stroke="#000" stroke-width="0.3" stroke-dasharray="2 1.5" />
<line x1="131.33603605081353" y1="87.07090248976117" x2="130.9878378827592" y2="95.78990194972656" stroke="#000" stroke-width="0.3" />
<polygon points="131.33603605081353,87.07090248976117 130.9878378827592,95.78990194972656 134.56248720875894,93.74943135195694 134.73658629278614,89.38993162197424" fill="none" stroke="#666" stroke-width="0.2" />
<text x="129.3633706165759" y="91.35857545669117" font-size="3" text-anchor="middle" dominant-baseline="central" fill="#000">390</text>
<line x1="130.9878378827592" y1="95.78990194972656" x2="128.9825963629538" y2="95.69673206037955" stroke="#000" stroke-width="0.3" />
<text x="129.9852171228565" y="95.74331700505306" font-size="3" text-anchor="middle" dominant-baseline="central" fill="#000">296</text>
<line x1="139.74548564937322" y1="91.95095059258671" x2="139.73658629278614" y2="89.94356548193036" stroke="#000" stroke-width="0.3" />
<text x="139.74103597107967" y="90.94725803725854" font-size="3" text-anchor="middle" dominant-baseline="central" fill="#000">145</text>
<line x1="139.73658629278614" y1="89.94356548193036" x2="148.46251681305841" y2="89.96173420488809" stroke="#000" stroke-width="0.3" />
<polygon points="139.73658629278614,89.94356548193036 148.46251681305841,89.96173420488809 146.28830167217342,86.46681981603975 141.9253364120373,86.45773545456089" fill="none" stroke="#666" stroke-width="0.2" />
<text x="144.09580368553355" y="91.75264594159668" font-size="3" text-anchor="middle" dominant-baseline="central" fill="#000">388</text>
<line x1="148.46251681305841" y1="89.96173420488809" x2="139.74548564937322" y2="91.95095059258671" stroke="#000" stroke-width="0.3" stroke-dasharray="2 1.5" />
<line x1="139.74548564937322" y1="91.95095059258671" x2="148.46251681305841" y2="89.96173420488809" stroke="#000" stroke-width="0.3" stroke-dasharray="2 1.5" />
<line x1="148.46251681305841" y1="89.96173420488809" x2="148.45594955463943" y2="91.39510711511417" stroke="#000" stroke-width="0.3" />
<polygon points="148.46251681305841,89.96173420488809 148.45594955463943,91.39510711511417 149.0309405333346,91.03939079092524 149.0342241625441,90.3227043358122" fill="none" stroke="#666" stroke-width="0.2" />
<text x="146.6592520761779" y="90.67017371951623" font-size="3" text-anchor="middle" dominant-baseline="central" fill="#000">146</text>
<line x1="148.45594955463943" y1="91.39510711511417" x2="139.74548564937322" y2="91.95095059258671" stroke="#000" stroke-width="0.3" />
<polygon points="148.45594955463943,91.39510711511417 139.74548564937322,91.95095059258671 142.14543901667875,95.29617528532506 146.5006709693119,95.0182535465888" fill="none" stroke="#666" stroke-width="0.2" />
<text x="143.98608681462338" y="89.87668262258433" font-size="3" text-anchor="middle" dominant-baseline="central" fill="#000">147</text>
</svg>