<svg xmlns="http://www.w3.org/2000/svg" width="215.9mm" height="279.4mm" viewBox="0 0 215.9 279.4">
<rect x="0" y="0" width="215.9" height="279.4" fill="none" stroke="#ccc" stroke-width="0.15" />
<line x1="113.7197212182982" y1="51.096034880247366" x2="145.84020244910823" y2="51.096034880247366" stroke="#000" stroke-width="0.3" stroke-dasharray="2 1.5" />
<line x1="145.84020244910823" y1="51.096034880247366" x2="144.51090992250886" y2="78.6063150652728" stroke="#000" stroke-width="0.3" />
<polygon points="145.84020244910823,51.096034880247366 144.51090992250886,78.6063150652728 155.84734512816888,72.2604620296562 156.51199139146857,58.50532193714348" fill="none" stroke="#666" stroke-width="0.2" />
<text x="143.37765384015154" y="64.76430060668443" font-size="3" text-anchor="middle" dominant-baseline="central" fill="#000">382</text>
<line x1="144.51090992250886" y1="78.6063150652728" x2="113.7197212182982" y2="51.096034880247366" stroke="#000" stroke-width="0.3" stroke-dasharray="2 1.5" />
<line x1="113.7197212182982" y1="51.096034880247366" x2="144.51090992250886" y2="78.6063150652728" stroke="#000" stroke-width="0.3" stroke-dasharray="2 1.5" />
<line x1="144.51090992250886" y1="78.6063150652728" x2="110.04100932742307" y2="77.79749289402328" stroke="#000" stroke-width="0.3" stroke-dasharray="2 1.5" />
<line x1="110.04100932742307" y1="77.79749289402328" x2="113.7197212182982" y2="51.096034880247366" stroke="#000" stroke-width="0.3" />
<polygon points="110.04100932742307,77.79749289402328 113.7197212182982,51.096034880247366 102.11946004006906,56.29991462734129 100.2801040946315,69.65064363422925" fill="none" stroke="#666" stroke-width="0.2" />
<text x="113.66352168094473" y="64.69243281945822" font-size="3" text-anchor="middle" dominant-baseline="central" fill="#000">365</text>
<line x1="110.04100932742307" y1="77.79749289402328" x2="144.51090992250886" y2="78.6063150652728" stroke="#000" stroke-width="0.3" stroke-dasharray="2 1.5" />
<line x1="144.51090992250886" y1="78.6063150652728" x2="145.87254229801806" y2="106.5405326424882" stroke="#000" stroke-width="0.3" stroke-dasharray="2 1.5" />
<line x1="145.87254229801806" y1="106.5405326424882" x2="110.04100932742307" y2="77.79749289402328" stroke="#000" stroke-width="0.3" stroke-dasharray="2 1.5" />
<line x1="110.04100932742307" y1="77.79749289402328" x2="145.87254229801806" y2="106.5405326424882" stroke="#000" stroke-width="0.3" stroke-dasharray="2 1.5" />
<line x1="145.87254229801806" y1="106.5405326424882" x2="105.25390736828419" y2="105.1131778960051" stroke="#000" stroke-width="0.3" />
<polygon points="145.87254229801806,106.5405326424882 105.25390736828419,105.1131778960051 114.83762420212442,121.71747055451941 135.14694166699135,122.43114792776097" fill="none" stroke="#666" stroke-width="0.2" />
<text x="125.6264385208417" y="104.02796560345595" font-size="3" text-anchor="middle" dominant-baseline="central" fill="#000">363</text>
<line x1="105.25390736828419" y1="105.1131778960051" x2="110.04100932742307" y2="77.79749289402328" stroke="#000" stroke-width="0.3" stroke-dasharray="2 1.5" />
<line x1="96.33682921638612" y1="77.47242354380485" x2="110.04100932742307" y2="77.79749289402328" stroke="#000" stroke-width="0.3" />
<polygon points="96.33682921638612,77.47242354380485 110.04100932742307,77.79749289402328 106.74499203975121,72.23455351205388 99.89290198423274,72.07201883694466" fill="none" stroke="#666" stroke-width="0.2" />
<text x="103.14623446464428" y="79.43445203863925" font-size="3" text-anchor="middle" dominant-baseline="central" fill="#000">4</text>
<line x1="110.04100932742307" y1="77.79749289402328" x2="105.25390736828419" y2="105.1131778960051" stroke="#000" stroke-width="0.3" stroke-dasharray="2 1.5" />
<line x1="105.25390736828419" y1="105.1131778960051" x2="96.33682921638612" y2="77.47242354380485" stroke="#000" stroke-width="0.3" stroke-dasharray="2 1.5" />
<line x1="96.33682921638612" y1="77.47242354380485" x2="105.25390736828419" y2="105.1131778960051" stroke="#000" stroke-width="0.3" stroke-dasharray="2 1.5" />
<line x1="105.25390736828419" y1="105.1131778960051" x2="95.65435285394709" y2="104.87498537243148" stroke="#000" stroke-width="0.3" />
<polygon points="105.25390736828419,105.1131778960051 95.65435285394709,104.87498537243148 97.95896447310191,108.77435530905973 102.75874173027046,108.89345157084652" fill="none" stroke="#666" stroke-width="0.2" />
<text x="100.49877953913445" y="103.19463548926768" font-size="3" text-anchor="middle" dominant-baseline="central" fill="#000">5</text>
<line x1="95.65435285394709" y1="104.87498537243148" x2="96.33682921638612" y2="77.47242354380485" stroke="#000" stroke-width="0.3" stroke-dasharray="2 1.5" />
<line x1="145.87254229801806" y1="106.5405326424882" x2="153.7015279914486" y2="106.79203828055915" stroke="#000" stroke-width="0.3" stroke-dasharray="2 1.5" />
<line x1="153.7015279914486" y1="106.79203828055915" x2="156.3485923589647" y2="143.62241017736775" stroke="#000" stroke-width="0.3" stroke-dasharray="2 1.5" />
<line x1="156.3485923589647" y1="143.62241017736775" x2="145.87254229801806" y2="106.5405326424882" stroke="#000" stroke-width="0.3" stroke-dasharray="2 1.5" />
<line x1="145.87254229801806" y1="106.5405326424882" x2="156.3485923589647" y2="143.62241017736775" stroke="#000" stroke-width="0.3" stroke-dasharray="2 1.5" />
<line x1="156.3485923589647" y1="143.62241017736775" x2="151.77332899428995" y2="143.5254037037617" stroke="#000" stroke-width="0.3" stroke-dasharray="2 1.5" />
<line x1="151.77332899428995" y1="143.5254037037617" x2="145.87254229801806" y2="106.5405326424882" stroke="#000" stroke-width="0.3" stroke-dasharray="2 1.5" />
<line x1="145.87254229801806" y1="106.5405326424882" x2="144.51090992250886" y2="78.6063150652728" stroke="#000" stroke-width="0.3" stroke-dasharray="2 1.5" />
<line x1="144.51090992250886" y1="78.6063150652728" x2="154.11339170555212" y2="78.8316333873759" stroke="#000" stroke-width="0.3" />
<polygon points="144.51090992250886,78.6063150652728 154.11339170555212,78.8316333873759 151.80289858863256,74.93431109363281 147.00165769711091,74.82165193258128" fill="none" stroke="#666" stroke-width="0.2" />
<text x="149.26992617008892" y="80.51847890246276" font-size="3" text-anchor="middle" dominant-baseline="central" fill="#000">7</text>
<line x1="154.11339170555212" y1="78.8316333873759" x2="145.87254229801806" y2="106.5405326424882" stroke="#000" stroke-width="0.3" stroke-dasharray="2 1.5" />
<line x1="145.87254229801806" y1="106.5405326424882" x2="154.11339170555212" y2="78.8316333873759" stroke="#000" stroke-width="0.3" stroke-dasharray="2 1.5" />
<line x1="154.11339170555212" y1="78.8316333873759" x2="153.7015279914486" y2="106.79203828055915" stroke="#000" stroke-width="0.3" />
<polygon points="154.11339170555212,78.8316333873759 153.7015279914486,106.79203828055915 164.98865587724777,99.96668254290476 165.19458773429955,85.98648009631313" fill="none" stroke="#666" stroke-width="0.2" />
<text x="152.10765509892738" y="92.7853242626347" font-size="3" text-anchor="middle" dominant-baseline="central" fill="#000">370</text>
<line x1="153.7015279914486" y1="106.79203828055915" x2="145.87254229801806" y2="106.5405326424882" stroke="#000" stroke-width="0.3" stroke-dasharray="2 1.5" />
<line x1="130.86836689894477" y1="116.02431262506508" x2="138.10927435496527" y2="112.80675125282279" stroke="#000" stroke-width="0.3" />
<polygon points="130.86836689894477,116.02431262506508 138.10927435496527,112.80675125282279 135.01202294206323,110.71477861347516 131.391569214053,112.32355929959631" fill="none" stroke="#666" stroke-width="0.2" />
<text x="135.21975230433898" y="116.06044497099052" font-size="3" text-anchor="middle" dominant-baseline="central" fill="#000">9</text>
<line x1="138.10927435496527" y1="112.80675125282279" x2="146.34182352257594" y2="145.02935165141355" stroke="#000" stroke-width="0.3" stroke-dasharray="2 1.5" />
<line x1="146.34182352257594" y1="145.02935165141355" x2="130.86836689894477" y2="116.02431262506508" stroke="#000" stroke-width="0.3" stroke-dasharray="2 1.5" />
<line x1="130.86836689894477" y1="116.02431262506508" x2="146.34182352257594" y2="145.02935165141355" stroke="#000" stroke-width="0.3" stroke-dasharray="2 1.5" />
<line x1="146.34182352257594" y1="145.02935165141355" x2="141.83513219819972" y2="146.1027625324758" stroke="#000" stroke-width="0.3" stroke-dasharray="2 1.5" />
<line x1="141.83513219819972" y1="146.1027625324758" x2="130.86836689894477" y2="116.02431262506508" stroke="#000" stroke-width="0.3" stroke-dasharray="2 1.5" />
<line x1="156.3485923589647" y1="143.62241017736775" x2="160.00485426000753" y2="142.80755631811536" stroke="#000" stroke-width="0.3" stroke-dasharray="2 1.5" />
<line x1="160.00485426000753" y1="142.80755631811536" x2="159.78406786178363" y2="146.35124187409482" stroke="#000" stroke-width="0.3" />
<polygon points="160.00485426000753,142.80755631811536 159.78406786178363,146.35124187409482 161.25673868373138,145.55363504438952 161.36713188284332,143.78179226639978" fill="none" stroke="#666" stroke-width="0.2" />
<text x="158.09794455146852" y="144.46746862055906" font-size="3" text-anchor="middle" dominant-baseline="central" fill="#000">34</text>
<line x1="159.78406786178363" y1="146.35124187409482" x2="156.3485923589647" y2="143.62241017736775" stroke="#000" stroke-width="0.3" stroke-dasharray="2 1.5" />
<line x1="156.3485923589647" y1="143.62241017736775" x2="159.78406786178363" y2="146.35124187409482" stroke="#000" stroke-width="0.3" stroke-dasharray="2 1.5" />
<line x1="159.78406786178363" y1="146.35124187409482" x2="156.67054542762392" y2="147.04511507556745" stroke="#000" stroke-width="0.3" stroke-dasharray="2 1.5" />
<line x1="156.67054542762392" y1="147.04511507556745" x2="156.3485923589647" y2="143.62241017736775" stroke="#000" stroke-width="0.3" />
<polygon points="156.67054542762392,147.04511507556745 156.3485923589647,143.62241017736775 155.05999866684965,144.60686762938136 155.22097520117921,146.3182200784812" fill="none" stroke="#666" stroke-width="0.2" />
<text x="158.3016581303424" y="145.16519167269297" font-size="3" text-anchor="middle" dominant-baseline="central" fill="#000">35</text>
<line x1="141.83513219819972" y1="146.1027625324758" x2="146.34182352257594" y2="145.02935165141355" stroke="#000" stroke-width="0.3" stroke-dasharray="2 1.5" />
<line x1="146.34182352257594" y1="145.02935165141355" x2="146.96914318419383" y2="148.43368139281344" stroke="#000" stroke-width="0.3" />
<polygon points="146.34182352257594,145.02935165141355 146.96914318419383,148.43368139281344 148.1740451653493,147.3316710928163 147.86038533454035,145.62950622211633" fill="none" stroke="#666" stroke-width="0.2" />
<text x="144.88528672808332" y="147.0577126406848" font-size="3" text-anchor="middle" dominant-baseline="central" fill="#000">36</text>
<line x1="146.96914318419383" y1="148.43368139281344" x2="141.83513219819972" y2="146.1027625324758" stroke="#000" stroke-width="0.3" stroke-dasharray="2 1.5" />
<line x1="141.83513219819972" y1="146.1027625324758" x2="146.96914318419383" y2="148.43368139281344" stroke="#000" stroke-width="0.3" stroke-dasharray="2 1.5" />
<line x1="146.96914318419383" y1="148.43368139281344" x2="143.1313991082416" y2="149.34780197018435" stroke="#000" stroke-width="0.3" stroke-dasharray="2 1.5" />
<line x1="143.1313991082416" y1="149.34780197018435" x2="141.83513219819972" y2="146.1027625324758" stroke="#000" stroke-width="0.3" />
<polygon points="143.1313991082416,149.34780197018435 141.83513219819972,146.1027625324758 140.86118315062677,147.4325291559197 141.5093166056477,149.05504887477397" fill="none" stroke="#666" stroke-width="0.2" />
<text x="144.15483416003843" y="147.0575557152279" font-size="3" text-anchor="middle" dominant-baseline="central" fill="#000">37</text>
<line x1="153.7015279914486" y1="106.79203828055915" x2="160.11992317297117" y2="106.8379814323264" stroke="#000" stroke-width="0.3" />
<text x="156.91072558220986" y="106.81500985644277" font-size="3" text-anchor="middle" dominant-baseline="central" fill="#000">11</text>
<line x1="160.11992317297117" y1="106.8379814323264" x2="160.00485426000753" y2="142.80755631811536" stroke="#000" stroke-width="0.3" stroke-dasharray="2 1.5" />
<line x1="160.00485426000753" y1="142.80755631811536" x2="153.7015279914486" y2="106.79203828055915" stroke="#000" stroke-width="0.3" stroke-dasharray="2 1.5" />
<line x1="153.7015279914486" y1="106.79203828055915" x2="160.00485426000753" y2="142.80755631811536" stroke="#000" stroke-width="0.3" stroke-dasharray="2 1.5" />
<line x1="160.00485426000753" y1="142.80755631811536" x2="156.3485923589647" y2="143.62241017736775" stroke="#000" stroke-width="0.3" stroke-dasharray="2 1.5" />
<line x1="156.3485923589647" y1="143.62241017736775" x2="153.7015279914486" y2="106.79203828055915" stroke="#000" stroke-width="0.3" stroke-dasharray="2 1.5" />
<line x1="123.26725575842528" y1="120.15002054344812" x2="130.86836689894477" y2="116.02431262506508" stroke="#000" stroke-width="0.3" />
<text x="127.06781132868502" y="118.08716658425661" font-size="3" text-anchor="middle" dominant-baseline="central" fill="#000">29</text>
<line x1="130.86836689894477" y1="116.02431262506508" x2="141.83513219819972" y2="146.1027625324758" stroke="#000" stroke-width="0.3" stroke-dasharray="2 1.5" />
<line x1="141.83513219819972" y1="146.1027625324758" x2="123.26725575842528" y2="120.15002054344812" stroke="#000" stroke-width="0.3" stroke-dasharray="2 1.5" />
<line x1="123.26725575842528" y1="120.15002054344812" x2="141.83513219819972" y2="146.1027625324758" stroke="#000" stroke-width="0.3" stroke-dasharray="2 1.5" />
<line x1="141.83513219819972" y1="146.1027625324758" x2="137.33025349847856" y2="148.395382127087" stroke="#000" stroke-width="0.3" stroke-dasharray="2 1.5" />
<line x1="137.33025349847856" y1="148.395382127087" x2="123.26725575842528" y2="120.15002054344812" stroke="#000" stroke-width="0.3" />
<polygon points="137.33025349847856,148.395382127087 123.26725575842528,120.15002054344812 115.48486055998305,132.83656003537914 122.5163594300097,146.95924082719858" fill="none" stroke="#666" stroke-width="0.2" />
<text x="131.91008317675528" y="133.47044183272328" font-size="3" text-anchor="middle" dominant-baseline="central" fill="#000">38</text>
<line x1="138.10927435496527" y1="112.80675125282279" x2="145.87254229801806" y2="106.5405326424882" stroke="#000" stroke-width="0.3" />
<text x="141.99090832649165" y="109.6736419476555" font-size="3" text-anchor="middle" dominant-baseline="central" fill="#000">33</text>
<line x1="145.87254229801806" y1="106.5405326424882" x2="151.77332899428995" y2="143.5254037037617" stroke="#000" stroke-width="0.3" stroke-dasharray="2 1.5" />
<line x1="151.77332899428995" y1="143.5254037037617" x2="138.10927435496527" y2="112.80675125282279" stroke="#000" stroke-width="0.3" stroke-dasharray="2 1.5" />
<line x1="138.10927435496527" y1="112.80675125282279" x2="151.77332899428995" y2="143.5254037037617" stroke="#000" stroke-width="0.3" stroke-dasharray="2 1.5" />
<line x1="151.77332899428995" y1="143.5254037037617" x2="146.34182352257594" y2="145.02935165141355" stroke="#000" stroke-width="0.3" stroke-dasharray="2 1.5" />
<line x1="146.34182352257594" y1="145.02935165141355" x2="138.10927435496527" y2="112.80675125282279" stroke="#000" stroke-width="0.3" stroke-dasharray="2 1.5" />
<line x1="160.11992317297117" y1="106.8379814323264" x2="168.60797061285064" y2="112.04103797819549" stroke="#000" stroke-width="0.3" />
<text x="164.36394689291092" y="109.43950970526095" font-size="3" text-anchor="middle" dominant-baseline="central" fill="#000">13</text>
<line x1="168.60797061285064" y1="112.04103797819549" x2="165.6034601634342" y2="143.45029256003158" stroke="#000" stroke-width="0.3" />
<text x="167.10571538814241" y="127.74566526911354" font-size="3" text-anchor="middle" dominant-baseline="central" fill="#000">38</text>
<line x1="165.6034601634342" y1="143.45029256003158" x2="160.11992317297117" y2="106.8379814323264" stroke="#000" stroke-width="0.3" stroke-dasharray="2 1.5" />
<line x1="160.11992317297117" y1="106.8379814323264" x2="165.6034601634342" y2="143.45029256003158" stroke="#000" stroke-width="0.3" stroke-dasharray="2 1.5" />
<line x1="165.6034601634342" y1="143.45029256003158" x2="160.00485426000753" y2="142.80755631811536" stroke="#000" stroke-width="0.3" stroke-dasharray="2 1.5" />
<line x1="160.00485426000753" y1="142.80755631811536" x2="160.11992317297117" y2="106.8379814323264" stroke="#000" stroke-width="0.3" stroke-dasharray="2 1.5" />
<line x1="160.25667828429306" y1="146.3491715730648" x2="165.02423205841072" y2="146.89643207255693" stroke="#000" stroke-width="0.3" stroke-dasharray="2 1.5" />
<line x1="165.02423205841072" y1="146.89643207255693" x2="164.78364756439237" y2="150.36142279931312" stroke="#000" stroke-width="0.3" />
<polygon points="165.02423205841072,146.89643207255693 164.78364756439237,150.36142279931312 166.22978997859943,149.59140891523143 166.35008222560862,147.85891355185333" fill="none" stroke="#666" stroke-width="0.2" />
<text x="163.10826302608913" y="148.5042483170332" font-size="3" text-anchor="middle" dominant-baseline="central" fill="#000">39</text>
<line x1="164.78364756439237" y1="150.36142279931312" x2="160.25667828429306" y2="146.3491715730648" stroke="#000" stroke-width="0.3" stroke-dasharray="2 1.5" />
<line x1="160.25667828429306" y1="146.3491715730648" x2="164.78364756439237" y2="150.36142279931312" stroke="#000" stroke-width="0.3" stroke-dasharray="2 1.5" />
<line x1="164.78364756439237" y1="150.36142279931312" x2="160.65124966683084" y2="149.88702275524096" stroke="#000" stroke-width="0.3" stroke-dasharray="2 1.5" />
<line x1="160.65124966683084" y1="149.88702275524096" x2="160.25667828429306" y2="146.3491715730648" stroke="#000" stroke-width="0.3" />
<polygon points="160.65124966683084,149.88702275524096 160.25667828429306,146.3491715730648 158.94018065705703,147.39146292162397 159.13746634832594,149.16038851271205" fill="none" stroke="#666" stroke-width="0.2" />
<text x="162.24287258609755" y="147.9185827958694" font-size="3" text-anchor="middle" dominant-baseline="central" fill="#000">40</text>
<line x1="151.77332899428995" y1="143.5254037037617" x2="156.3485923589647" y2="143.62241017736775" stroke="#000" stroke-width="0.3" stroke-dasharray="2 1.5" />
<line x1="156.3485923589647" y1="143.62241017736775" x2="156.4620940175708" y2="147.05834963726412" stroke="#000" stroke-width="0.3" />
<text x="156.40534318826775" y="145.34037990731593" font-size="3" text-anchor="middle" dominant-baseline="central" fill="#000">35</text>
<line x1="156.4620940175708" y1="147.05834963726412" x2="151.77332899428995" y2="143.5254037037617" stroke="#000" stroke-width="0.3" stroke-dasharray="2 1.5" />
<line x1="151.77332899428995" y1="143.5254037037617" x2="156.4620940175708" y2="147.05834963726412" stroke="#000" stroke-width="0.3" stroke-dasharray="2 1.5" />
<line x1="156.4620940175708" y1="147.05834963726412" x2="152.5659459597932" y2="146.97575594042" stroke="#000" stroke-width="0.3" stroke-dasharray="2 1.5" />
<line x1="152.5659459597932" y1="146.97575594042" x2="151.77332899428995" y2="143.5254037037617" stroke="#000" stroke-width="0.3" />
<polygon points="152.5659459597932,146.97575594042 151.77332899428995,143.5254037037617 150.59134234100242,144.70503854912758 150.98765082375405,146.4302146674567" fill="none" stroke="#666" stroke-width="0.2" />
<text x="153.92394382462334" y="144.8475795257704" font-size="3" text-anchor="middle" dominant-baseline="central" fill="#000">43</text>
<line x1="146.34182352257594" y1="145.02935165141355" x2="151.77332899428995" y2="143.5254037037617" stroke="#000" stroke-width="0.3" stroke-dasharray="2 1.5" />
<line x1="151.77332899428995" y1="143.5254037037617" x2="151.97686424419842" y2="147.05977007032035" stroke="#000" stroke-width="0.3" />
<text x="151.87509661924418" y="145.292586887041" font-size="3" text-anchor="middle" dominant-baseline="central" fill="#000">43</text>
<line x1="151.97686424419842" y1="147.05977007032035" x2="146.34182352257594" y2="145.02935165141355" stroke="#000" stroke-width="0.3" stroke-dasharray="2 1.5" />
<line x1="146.34182352257594" y1="145.02935165141355" x2="151.97686424419842" y2="147.05977007032035" stroke="#000" stroke-width="0.3" stroke-dasharray="2 1.5" />
<line x1="151.97686424419842" y1="147.05977007032035" x2="147.3515421883888" y2="148.34046312068503" stroke="#000" stroke-width="0.3" stroke-dasharray="2 1.5" />
<line x1="147.3515421883888" y1="148.34046312068503" x2="146.34182352257594" y2="145.02935165141355" stroke="#000" stroke-width="0.3" />
<text x="146.84668285548236" y="146.6849073860493" font-size="3" text-anchor="middle" dominant-baseline="central" fill="#000">36</text>
<line x1="137.33025349847856" y1="148.395382127087" x2="141.83513219819972" y2="146.1027625324758" stroke="#000" stroke-width="0.3" stroke-dasharray="2 1.5" />
<line x1="141.83513219819972" y1="146.1027625324758" x2="143.07742650603586" y2="149.3688448503409" stroke="#000" stroke-width="0.3" />
<text x="142.4562793521178" y="147.73580369140836" font-size="3" text-anchor="middle" dominant-baseline="central" fill="#000">37</text>
<line x1="143.07742650603586" y1="149.3688448503409" x2="137.33025349847856" y2="148.395382127087" stroke="#000" stroke-width="0.3" stroke-dasharray="2 1.5" />
<line x1="137.33025349847856" y1="148.395382127087" x2="143.07742650603586" y2="149.3688448503409" stroke="#000" stroke-width="0.3" stroke-dasharray="2 1.5" />
<line x1="143.07742650603586" y1="149.3688448503409" x2="139.24108720601023" y2="151.32114651944642" stroke="#000" stroke-width="0.3" />
<text x="141.15925685602303" y="150.34499568489366" font-size="3" text-anchor="middle" dominant-baseline="central" fill="#000">41</text>
<line x1="139.24108720601023" y1="151.32114651944642" x2="137.33025349847856" y2="148.395382127087" stroke="#000" stroke-width="0.3" />
<polygon points="139.24108720601023,151.32114651944642 137.33025349847856,148.395382127087 136.63765616841772,149.8911567081895 137.59307302218355,151.35403890436922" fill="none" stroke="#666" stroke-width="0.2" />
<text x="139.79272650186763" y="148.87399720409493" font-size="3" text-anchor="middle" dominant-baseline="central" fill="#000">44</text>
<line x1="160.00485426000753" y1="142.80755631811536" x2="165.6034601634342" y2="143.45029256003158" stroke="#000" stroke-width="0.3" stroke-dasharray="2 1.5" />
<line x1="165.6034601634342" y1="143.45029256003158" x2="165.02423205841072" y2="146.89643207255693" stroke="#000" stroke-width="0.3" />
<text x="165.31384611092244" y="145.17336231629426" font-size="3" text-anchor="middle" dominant-baseline="central" fill="#000">44</text>
<line x1="165.02423205841072" y1="146.89643207255693" x2="160.00485426000753" y2="142.80755631811536" stroke="#000" stroke-width="0.3" stroke-dasharray="2 1.5" />
<line x1="160.00485426000753" y1="142.80755631811536" x2="165.02423205841072" y2="146.89643207255693" stroke="#000" stroke-width="0.3" stroke-dasharray="2 1.5" />
<line x1="165.02423205841072" y1="146.89643207255693" x2="160.25667828429306" y2="146.3491715730648" stroke="#000" stroke-width="0.3" stroke-dasharray="2 1.5" />
<line x1="160.25667828429306" y1="146.3491715730648" x2="160.00485426000753" y2="142.80755631811536" stroke="#000" stroke-width="0.3" />
<text x="160.1307662721503" y="144.57836394559007" font-size="3" text-anchor="middle" dominant-baseline="central" fill="#000">34</text>
<line x1="144.02427048838686" y1="152.78068999202716" x2="147.3506760095306" y2="151.98841181942535" stroke="#000" stroke-width="0.3" stroke-dasharray="2 1.5" />
<line x1="147.3506760095306" y1="151.98841181942535" x2="153.2395201185577" y2="175.54310216715615" stroke="#000" stroke-width="0.3" />
<polygon points="147.3506760095306,151.98841181942535 153.2395201185577,175.54310216715615 161.18918523039326,167.29889193661262 158.24476317587968,155.52154676274722" fill="none" stroke="#666" stroke-width="0.2" />
<text x="148.54884455581973" y="164.20233308633058" font-size="3" text-anchor="middle" dominant-baseline="central" fill="#000">46</text>
<line x1="153.2395201185577" y1="175.54310216715615" x2="144.02427048838686" y2="152.78068999202716" stroke="#000" stroke-width="0.3" stroke-dasharray="2 1.5" />
<line x1="144.02427048838686" y1="152.78068999202716" x2="153.2395201185577" y2="175.54310216715615" stroke="#000" stroke-width="0.3" stroke-dasharray="2 1.5" />
<line x1="153.2395201185577" y1="175.54310216715615" x2="150.820904238995" y2="176.11922238405737" stroke="#000" stroke-width="0.3" stroke-dasharray="2 1.5" />
<line x1="150.820904238995" y1="176.11922238405737" x2="144.02427048838686" y2="152.78068999202716" stroke="#000" stroke-width="0.3" />
<polygon points="150.820904238995,176.11922238405737 144.02427048838686,152.78068999202716 136.38801596922684,161.33397659027798 139.7863328445309,173.00324278629307" fill="none" stroke="#666" stroke-width="0.2" />
<text x="149.1507949841317" y="163.9466685757862" font-size="3" text-anchor="middle" dominant-baseline="central" fill="#000">371</text>
<line x1="143.1313991082416" y1="149.34780197018435" x2="146.96914318419383" y2="148.43368139281344" stroke="#000" stroke-width="0.3" stroke-dasharray="2 1.5" />
<line x1="146.96914318419383" y1="148.43368139281344" x2="147.3506760095306" y2="151.98841181942535" stroke="#000" stroke-width="0.3" />
<polygon points="146.96914318419383,148.43368139281344 147.3506760095306,151.98841181942535 148.67718497384118,150.94711608263765 148.48641856117277,149.1697508693317" fill="none" stroke="#666" stroke-width="0.2" />
<text x="145.37018882167675" y="150.40313915378732" font-size="3" text-anchor="middle" dominant-baseline="central" fill="#000">47</text>
<line x1="147.3506760095306" y1="151.98841181942535" x2="143.1313991082416" y2="149.34780197018435" stroke="#000" stroke-width="0.3" stroke-dasharray="2 1.5" />
<line x1="143.1313991082416" y1="149.34780197018435" x2="147.3506760095306" y2="151.98841181942535" stroke="#000" stroke-width="0.3" stroke-dasharray="2 1.5" />
<line x1="147.3506760095306" y1="151.98841181942535" x2="144.02427048838686" y2="152.78068999202716" stroke="#000" stroke-width="0.3" stroke-dasharray="2 1.5" />
<line x1="144.02427048838686" y1="152.78068999202716" x2="143.1313991082416" y2="149.34780197018435" stroke="#000" stroke-width="0.3" />
<text x="143.57783479831423" y="151.06424598110576" font-size="3" text-anchor="middle" dominant-baseline="central" fill="#000">42</text>
<line x1="156.67054542762392" y1="147.04511507556745" x2="159.78406786178363" y2="146.35124187409482" stroke="#000" stroke-width="0.3" stroke-dasharray="2 1.5" />
<line x1="159.78406786178363" y1="146.35124187409482" x2="160.08114478933513" y2="149.89861031594853" stroke="#000" stroke-width="0.3" />
<text x="159.9326063255594" y="148.1249260950217" font-size="3" text-anchor="middle" dominant-baseline="central" fill="#000">40</text>
<line x1="160.08114478933513" y1="149.89861031594853" x2="156.67054542762392" y2="147.04511507556745" stroke="#000" stroke-width="0.3" stroke-dasharray="2 1.5" />
<line x1="156.67054542762392" y1="147.04511507556745" x2="160.08114478933513" y2="149.89861031594853" stroke="#000" stroke-width="0.3" stroke-dasharray="2 1.5" />
<line x1="160.08114478933513" y1="149.89861031594853" x2="157.3823783822724" y2="150.50001093813142" stroke="#000" stroke-width="0.3" />
<text x="158.73176158580378" y="150.19931062703998" font-size="3" text-anchor="middle" dominant-baseline="central" fill="#000">45</text>
<line x1="157.3823783822724" y1="150.50001093813142" x2="156.67054542762392" y2="147.04511507556745" stroke="#000" stroke-width="0.3" />
<polygon points="157.3823783822724,150.50001093813142 156.67054542762392,147.04511507556745 155.46654532126044,148.19357222306786 155.8224617985847,149.92102015434983" fill="none" stroke="#666" stroke-width="0.2" />
<text x="158.78943105993443" y="148.40932787836235" font-size="3" text-anchor="middle" dominant-baseline="central" fill="#000">48</text>
<line x1="152.5659459597932" y1="146.97575594042" x2="156.4620940175708" y2="147.05834963726412" stroke="#000" stroke-width="0.3" stroke-dasharray="2 1.5" />
<line x1="156.4620940175708" y1="147.05834963726412" x2="156.9891213340375" y2="150.5462220237174" stroke="#000" stroke-width="0.3" />
<text x="156.72560767580416" y="148.80228583049075" font-size="3" text-anchor="middle" dominant-baseline="central" fill="#000">48</text>
<line x1="156.9891213340375" y1="150.5462220237174" x2="152.5659459597932" y2="146.97575594042" stroke="#000" stroke-width="0.3" stroke-dasharray="2 1.5" />
<line x1="152.5659459597932" y1="146.97575594042" x2="156.9891213340375" y2="150.5462220237174" stroke="#000" stroke-width="0.3" stroke-dasharray="2 1.5" />
<line x1="156.9891213340375" y1="150.5462220237174" x2="153.61203337046928" y2="150.4747142209917" stroke="#000" stroke-width="0.3" />
<polygon points="156.9891213340375,150.5462220237174 153.61203337046928,150.4747142209917 154.42770224027106,151.84342635710038 156.11624622205514,151.87918025846326" fill="none" stroke="#666" stroke-width="0.2" />
<text x="155.33868272623067" y="148.71087150631138" font-size="3" text-anchor="middle" dominant-baseline="central" fill="#000">49</text>
<line x1="153.61203337046928" y1="150.4747142209917" x2="152.5659459597932" y2="146.97575594042" stroke="#000" stroke-width="0.3" />
<polygon points="153.61203337046928,150.4747142209917 152.5659459597932,146.97575594042 151.42788450023352,148.26893047483338 151.95092820557159,150.0184096151192" fill="none" stroke="#666" stroke-width="0.2" />
<text x="154.81356458049007" y="148.20963701892214" font-size="3" text-anchor="middle" dominant-baseline="central" fill="#000">50</text>
<line x1="147.3515421883888" y1="148.34046312068503" x2="151.97686424419842" y2="147.05977007032035" stroke="#000" stroke-width="0.3" stroke-dasharray="2 1.5" />
<line x1="151.97686424419842" y1="147.05977007032035" x2="152.2037664302771" y2="150.70470125182558" stroke="#000" stroke-width="0.3" />
<text x="152.09031533723777" y="148.88223566107297" font-size="3" text-anchor="middle" dominant-baseline="central" fill="#000">50</text>
<line x1="152.2037664302771" y1="150.70470125182558" x2="147.3515421883888" y2="148.34046312068503" stroke="#000" stroke-width="0.3" stroke-dasharray="2 1.5" />
<line x1="147.3515421883888" y1="148.34046312068503" x2="152.2037664302771" y2="150.70470125182558" stroke="#000" stroke-width="0.3" stroke-dasharray="2 1.5" />
<line x1="152.2037664302771" y1="150.70470125182558" x2="148.1946642166696" y2="151.81477182143655" stroke="#000" stroke-width="0.3" />
<polygon points="152.2037664302771,150.70470125182558 148.1946642166696,151.81477182143655 149.64096799791585,153.1408950644768 151.6455191047196,152.58585977967132" fill="none" stroke="#666" stroke-width="0.2" />
<text x="149.7188901823036" y="149.52500665599828" font-size="3" text-anchor="middle" dominant-baseline="central" fill="#000">51</text>
<line x1="148.1946642166696" y1="151.81477182143655" x2="147.3515421883888" y2="148.34046312068503" stroke="#000" stroke-width="0.3" />
<text x="147.7731032025292" y="150.0776174710608" font-size="3" text-anchor="middle" dominant-baseline="central" fill="#000">47</text>
<line x1="161.3324959579634" y1="174.17723333078652" x2="164.33716266649728" y2="174.52207529140676" stroke="#000" stroke-width="0.3" stroke-dasharray="2 1.5" />
<line x1="164.33716266649728" y1="174.52207529140676" x2="164.5856409918784" y2="182.20060570438892" stroke="#000" stroke-width="0.3" />
<polygon points="164.33716266649728,174.52207529140676 164.5856409918784,182.20060570438892 167.594933575726,180.18158177099096 167.47069441303543,176.34231656449984" fill="none" stroke="#666" stroke-width="0.2" />
<text x="162.6623435504814" y="178.41955827712295" font-size="3" text-anchor="middle" dominant-baseline="central" fill="#000">52</text>
<line x1="164.5856409918784" y1="182.20060570438892" x2="161.3324959579634" y2="174.17723333078652" stroke="#000" stroke-width="0.3" stroke-dasharray="2 1.5" />
<line x1="161.3324959579634" y1="174.17723333078652" x2="164.5856409918784" y2="182.20060570438892" stroke="#000" stroke-width="0.3" stroke-dasharray="2 1.5" />
<line x1="164.5856409918784" y1="182.20060570438892" x2="161.4126964252016" y2="181.83640021563613" stroke="#000" stroke-width="0.3" stroke-dasharray="2 1.5" />
<line x1="161.4126964252016" y1="181.83640021563613" x2="161.3324959579634" y2="174.17723333078652" stroke="#000" stroke-width="0.3" />
<polygon points="161.4126964252016,181.83640021563613 161.3324959579634,174.17723333078652 158.28887932083313,176.12410523889423 158.32897955445222,179.953688681319" fill="none" stroke="#666" stroke-width="0.2" />
<text x="163.17249751876494" y="177.98796969367993" font-size="3" text-anchor="middle" dominant-baseline="central" fill="#000">53</text>
<line x1="160.65124966683084" y1="149.88702275524096" x2="164.78364756439237" y2="150.36142279931312" stroke="#000" stroke-width="0.3" stroke-dasharray="2 1.5" />
<line x1="164.78364756439237" y1="150.36142279931312" x2="164.33716266649728" y2="174.52207529140676" stroke="#000" stroke-width="0.3" />
<text x="164.56040511544484" y="162.44174904535993" font-size="3" text-anchor="middle" dominant-baseline="central" fill="#000">55</text>
<line x1="164.33716266649728" y1="174.52207529140676" x2="160.65124966683084" y2="149.88702275524096" stroke="#000" stroke-width="0.3" stroke-dasharray="2 1.5" />
<line x1="160.65124966683084" y1="149.88702275524096" x2="164.33716266649728" y2="174.52207529140676" stroke="#000" stroke-width="0.3" stroke-dasharray="2 1.5" />
<line x1="164.33716266649728" y1="174.52207529140676" x2="161.3324959579634" y2="174.17723333078652" stroke="#000" stroke-width="0.3" stroke-dasharray="2 1.5" />
<line x1="161.3324959579634" y1="174.17723333078652" x2="160.65124966683084" y2="149.88702275524096" stroke="#000" stroke-width="0.3" />
<text x="160.9918728123971" y="162.03212804301376" font-size="3" text-anchor="middle" dominant-baseline="central" fill="#000">367</text>
<line x1="82.63301330926718" y1="77.13234681424663" x2="96.33682921638612" y2="77.47242354380485" stroke="#000" stroke-width="0.3" />
<text x="89.48492126282665" y="77.30238517902575" font-size="3" text-anchor="middle" dominant-baseline="central" fill="#000">59</text>
<line x1="96.33682921638612" y1="77.47242354380485" x2="95.65435285394709" y2="104.87498537243148" stroke="#000" stroke-width="0.3" stroke-dasharray="2 1.5" />
<line x1="95.65435285394709" y1="104.87498537243148" x2="82.63301330926718" y2="77.13234681424663" stroke="#000" stroke-width="0.3" stroke-dasharray="2 1.5" />
<line x1="82.63301330926718" y1="77.13234681424663" x2="95.65435285394709" y2="104.87498537243148" stroke="#000" stroke-width="0.3" stroke-dasharray="2 1.5" />
<line x1="95.65435285394709" y1="104.87498537243148" x2="81.92935984907065" y2="104.5462216399248" stroke="#000" stroke-width="0.3" />
<text x="88.79185635150887" y="104.71060350617813" font-size="3" text-anchor="middle" dominant-baseline="central" fill="#000">56</text>
<line x1="81.92935984907065" y1="104.5462216399248" x2="82.63301330926718" y2="77.13234681424663" stroke="#000" stroke-width="0.3" stroke-dasharray="2 1.5" />
<line x1="82.63301330926718" y1="77.13234681424663" x2="81.92935984907065" y2="104.5462216399248" stroke="#000" stroke-width="0.3" stroke-dasharray="2 1.5" />
<line x1="81.92935984907065" y1="104.5462216399248" x2="75.37551158881269" y2="101.59240728225272" stroke="#000" stroke-width="0.3" />
<text x="78.65243571894166" y="103.06931446108877" font-size="3" text-anchor="middle" dominant-baseline="central" fill="#000">63</text>
<line x1="75.37551158881269" y1="101.59240728225272" x2="82.63301330926718" y2="77.13234681424663" stroke="#000" stroke-width="0.3" stroke-dasharray="2 1.5" />
<line x1="82.63301330926718" y1="77.13234681424663" x2="75.37551158881269" y2="101.59240728225272" stroke="#000" stroke-width="0.3" stroke-dasharray="2 1.5" />
<line x1="75.37551158881269" y1="101.59240728225272" x2="76.04145605756574" y2="75.64735588541252" stroke="#000" stroke-width="0.3" stroke-dasharray="2 1.5" />
<line x1="76.04145605756574" y1="75.64735588541252" x2="82.63301330926718" y2="77.13234681424663" stroke="#000" stroke-width="0.3" />
<polygon points="76.04145605756574,75.64735588541252 82.63301330926718,77.13234681424663 81.57912036787549,74.12447618135752 78.28334174202476,73.38198071694046" fill="none" stroke="#666" stroke-width="0.2" />
<text x="78.94163337375873" y="78.14584098641548" font-size="3" text-anchor="middle" dominant-baseline="central" fill="#000">64</text>
<line x1="76.04145605756574" y1="75.64735588541252" x2="75.37551158881269" y2="101.59240728225272" stroke="#000" stroke-width="0.3" stroke-dasharray="2 1.5" />
<line x1="75.37551158881269" y1="101.59240728225272" x2="62.20787476762246" y2="99.0122088976196" stroke="#000" stroke-width="0.3" stroke-dasharray="2 1.5" />
<line x1="62.20787476762246" y1="99.0122088976196" x2="76.04145605756574" y2="75.64735588541252" stroke="#000" stroke-width="0.3" stroke-dasharray="2 1.5" />
<line x1="76.04145605756574" y1="75.64735588541252" x2="62.20787476762246" y2="99.0122088976196" stroke="#000" stroke-width="0.3" stroke-dasharray="2 1.5" />
<line x1="62.20787476762246" y1="99.0122088976196" x2="63.08571810870714" y2="76.52270287695903" stroke="#000" stroke-width="0.3" stroke-dasharray="2 1.5" />
<line x1="63.08571810870714" y1="76.52270287695903" x2="76.04145605756574" y2="75.64735588541252" stroke="#000" stroke-width="0.3" />
<text x="69.56358708313644" y="76.08502938118578" font-size="3" text-anchor="middle" dominant-baseline="central" fill="#000">68</text>
<line x1="62.20787476762246" y1="99.0122088976196" x2="75.37551158881269" y2="101.59240728225272" stroke="#000" stroke-width="0.3" stroke-dasharray="2 1.5" />
<line x1="75.37551158881269" y1="101.59240728225272" x2="66.79966412499815" y2="119.43201700283709" stroke="#000" stroke-width="0.3" />
<polygon points="75.37551158881269,101.59240728225272 66.79966412499815,119.43201700283709 76.07946987918552,118.40245355821682 80.3673936110928,109.48264869792465" fill="none" stroke="#666" stroke-width="0.2" />
<text x="69.4653019604402" y="109.73234775040352" font-size="3" text-anchor="middle" dominant-baseline="central" fill="#000">76</text>
<line x1="66.79966412499815" y1="119.43201700283709" x2="62.20787476762246" y2="99.0122088976196" stroke="#000" stroke-width="0.3" stroke-dasharray="2 1.5" />
<line x1="62.20787476762246" y1="99.0122088976196" x2="66.79966412499815" y2="119.43201700283709" stroke="#000" stroke-width="0.3" stroke-dasharray="2 1.5" />
<line x1="66.79966412499815" y1="119.43201700283709" x2="56.17610591325529" y2="118.58738322688104" stroke="#000" stroke-width="0.3" stroke-dasharray="2 1.5" />
<line x1="56.17610591325529" y1="118.58738322688104" x2="62.20787476762246" y2="99.0122088976196" stroke="#000" stroke-width="0.3" />
<text x="59.19199034043888" y="108.79979606225032" font-size="3" text-anchor="middle" dominant-baseline="central" fill="#000">70</text>
<line x1="63.08571810870714" y1="76.52270287695903" x2="62.20787476762246" y2="99.0122088976196" stroke="#000" stroke-width="0.3" stroke-dasharray="2 1.5" />
<line x1="62.20787476762246" y1="99.0122088976196" x2="49.022015552239935" y2="98.22989741899381" stroke="#000" stroke-width="0.3" />
<text x="55.614945159931196" y="98.62105315830671" font-size="3" text-anchor="middle" dominant-baseline="central" fill="#000">391</text>
<line x1="49.022015552239935" y1="98.22989741899381" x2="63.08571810870714" y2="76.52270287695903" stroke="#000" stroke-width="0.3" stroke-dasharray="2 1.5" />
<line x1="63.08571810870714" y1="76.52270287695903" x2="49.022015552239935" y2="98.22989741899381" stroke="#000" stroke-width="0.3" stroke-dasharray="2 1.5" />
<line x1="49.022015552239935" y1="98.22989741899381" x2="50.71685891627737" y2="78.81219812336333" stroke="#000" stroke-width="0.3" stroke-dasharray="2 1.5" />
<line x1="50.71685891627737" y1="78.81219812336333" x2="63.08571810870714" y2="76.52270287695903" stroke="#000" stroke-width="0.3" />
<text x="56.90128851249226" y="77.66745050016118" font-size="3" text-anchor="middle" dominant-baseline="central" fill="#000">74</text>
<line x1="44.61152684715346" y1="101.8953832894945" x2="30.555141046688515" y2="88.63944586670699" stroke="#000" stroke-width="0.3" />
<text x="37.58333394692099" y="95.26741457810076" font-size="3" text-anchor="middle" dominant-baseline="central" fill="#000">377</text>
<line x1="30.555141046688515" y1="88.63944586670699" x2="39.76854488775761" y2="86.21406288713256" stroke="#000" stroke-width="0.3" stroke-dasharray="2 1.5" />
<line x1="39.76854488775761" y1="86.21406288713256" x2="44.61152684715346" y2="101.8953832894945" stroke="#000" stroke-width="0.3" stroke-dasharray="2 1.5" />
<line x1="49.022015552239935" y1="98.22989741899381" x2="44.61152684715346" y2="101.8953832894945" stroke="#000" stroke-width="0.3" />
<polygon points="49.022015552239935,98.22989741899381 44.61152684715346,101.8953832894945 47.18034337162536,102.74320730390393 49.3855877241686,100.91046436865356" fill="none" stroke="#666" stroke-width="0.2" />
<text x="45.66627809435954" y="98.67831177526746" font-size="3" text-anchor="middle" dominant-baseline="central" fill="#000">81</text>
<line x1="44.61152684715346" y1="101.8953832894945" x2="39.76854488775761" y2="86.21406288713256" stroke="#000" stroke-width="0.3" stroke-dasharray="2 1.5" />
<line x1="39.76854488775761" y1="86.21406288713256" x2="49.022015552239935" y2="98.22989741899381" stroke="#000" stroke-width="0.3" stroke-dasharray="2 1.5" />
<line x1="49.022015552239935" y1="98.22989741899381" x2="39.76854488775761" y2="86.21406288713256" stroke="#000" stroke-width="0.3" stroke-dasharray="2 1.5" />
<line x1="39.76854488775761" y1="86.21406288713256" x2="42.276598733504294" y2="84.62082352475448" stroke="#000" stroke-width="0.3" />
<polygon points="39.76854488775761,86.21406288713256 42.276598733504294,84.62082352475448 41.012289527116394,84.01591182705032 39.75826260424304,84.81253150823936" fill="none" stroke="#666" stroke-width="0.2" />
<text x="41.98774228363925" y="86.93680029301454" font-size="3" text-anchor="middle" dominant-baseline="central" fill="#000">82</text>
<line x1="42.276598733504294" y1="84.62082352475448" x2="49.022015552239935" y2="98.22989741899381" stroke="#000" stroke-width="0.3" stroke-dasharray="2 1.5" />
<line x1="50.71685891627737" y1="78.81219812336333" x2="49.022015552239935" y2="98.22989741899381" stroke="#000" stroke-width="0.3" stroke-dasharray="2 1.5" />
<line x1="49.022015552239935" y1="98.22989741899381" x2="42.276598733504294" y2="84.62082352475448" stroke="#000" stroke-width="0.3" stroke-dasharray="2 1.5" />
<line x1="42.276598733504294" y1="84.62082352475448" x2="50.71685891627737" y2="78.81219812336333" stroke="#000" stroke-width="0.3" stroke-dasharray="2 1.5" />
<line x1="50.71685891627737" y1="78.81219812336333" x2="42.276598733504294" y2="84.62082352475448" stroke="#000" stroke-width="0.3" stroke-dasharray="2 1.5" />
<line x1="42.276598733504294" y1="84.62082352475448" x2="41.60875774503104" y2="77.88523500410591" stroke="#000" stroke-width="0.3" />
<polygon points="42.276598733504294,84.62082352475448 41.60875774503104,77.88523500410591 39.08148258388991,79.83626852965736 39.41540307812655,83.20406278998163" fill="none" stroke="#666" stroke-width="0.2" />
<text x="43.733895100383975" y="81.07542814829452" font-size="3" text-anchor="middle" dominant-baseline="central" fill="#000">83</text>
<line x1="41.60875774503104" y1="77.88523500410591" x2="50.71685891627737" y2="78.81219812336333" stroke="#000" stroke-width="0.3" />
<text x="46.1628083306542" y="78.34871656373463" font-size="3" text-anchor="middle" dominant-baseline="central" fill="#000">78</text>
<line x1="56.17610591325529" y1="118.58738322688104" x2="66.79966412499815" y2="119.43201700283709" stroke="#000" stroke-width="0.3" stroke-dasharray="2 1.5" />
<line x1="66.79966412499815" y1="119.43201700283709" x2="55.01495623793288" y2="130.68234274665966" stroke="#000" stroke-width="0.3" stroke-dasharray="2 1.5" />
<line x1="55.01495623793288" y1="130.68234274665966" x2="56.17610591325529" y2="118.58738322688104" stroke="#000" stroke-width="0.3" />
<polygon points="55.01495623793288,130.68234274665966 56.17610591325529,118.58738322688104 51.047834686513234,121.14666323669672 50.467259848852045,127.19414299658607" fill="none" stroke="#666" stroke-width="0.2" />
<text x="57.38729309676313" y="124.8068771126327" font-size="3" text-anchor="middle" dominant-baseline="central" fill="#000">378</text>
<line x1="81.30737007183511" y1="105.96638286012052" x2="83.18434992409568" y2="113.36824555226282" stroke="#000" stroke-width="0.3" />
<text x="82.2458599979654" y="109.66731420619166" font-size="3" text-anchor="middle" dominant-baseline="central" fill="#000">62</text>
<line x1="83.18434992409568" y1="113.36824555226282" x2="70.49054988549783" y2="124.24457567137011" stroke="#000" stroke-width="0.3" />
<polygon points="83.18434992409568,113.36824555226282 70.49054988549783,124.24457567137011 78.01453194279023,126.60301315703242 84.36143196208914,121.16484809747878" fill="none" stroke="#666" stroke-width="0.2" />
<text x="75.66627809172009" y="117.43953220308556" font-size="3" text-anchor="middle" dominant-baseline="central" fill="#000">86</text>
<line x1="70.49054988549783" y1="124.24457567137011" x2="81.30737007183511" y2="105.96638286012052" stroke="#000" stroke-width="0.3" stroke-dasharray="2 1.5" />
<line x1="81.30737007183511" y1="105.96638286012052" x2="70.49054988549783" y2="124.24457567137011" stroke="#000" stroke-width="0.3" stroke-dasharray="2 1.5" />
<line x1="70.49054988549783" y1="124.24457567137011" x2="66.79966412499815" y2="119.43201700283709" stroke="#000" stroke-width="0.3" stroke-dasharray="2 1.5" />
<line x1="66.79966412499815" y1="119.43201700283709" x2="81.30737007183511" y2="105.96638286012052" stroke="#000" stroke-width="0.3" />
<text x="74.05351709841662" y="112.6991999314788" font-size="3" text-anchor="middle" dominant-baseline="central" fill="#000">76</text>
<line x1="55.01495623793288" y1="130.68234274665966" x2="57.671742529111505" y2="134.14657005236427" stroke="#000" stroke-width="0.3" stroke-dasharray="2 1.5" />
<line x1="57.671742529111505" y1="134.14657005236427" x2="45.5278340491059" y2="144.26981669162856" stroke="#000" stroke-width="0.3" />
<polygon points="57.671742529111505,134.14657005236427 45.5278340491059,144.26981669162856 52.613109824813,146.59656842381474 58.685064064815805,141.53494510418258" fill="none" stroke="#666" stroke-width="0.2" />
<text x="50.44723311357836" y="137.82558114604214" font-size="3" text-anchor="middle" dominant-baseline="central" fill="#000">90</text>
<line x1="45.5278340491059" y1="144.26981669162856" x2="55.01495623793288" y2="130.68234274665966" stroke="#000" stroke-width="0.3" stroke-dasharray="2 1.5" />
<line x1="55.01495623793288" y1="130.68234274665966" x2="45.5278340491059" y2="144.26981669162856" stroke="#000" stroke-width="0.3" stroke-dasharray="2 1.5" />
<line x1="45.5278340491059" y1="144.26981669162856" x2="43.08735751254165" y2="141.0876139443291" stroke="#000" stroke-width="0.3" stroke-dasharray="2 1.5" />
<line x1="43.08735751254165" y1="141.0876139443291" x2="55.01495623793288" y2="130.68234274665966" stroke="#000" stroke-width="0.3" />
<polygon points="43.08735751254165,141.0876139443291 55.01495623793288,130.68234274665966 47.87094807751732,128.51262105592053 41.9071487148217,133.7152566547552" fill="none" stroke="#666" stroke-width="0.2" />
<text x="50.23444288535622" y="137.24138323278163" font-size="3" text-anchor="middle" dominant-baseline="central" fill="#000">91</text>
<line x1="66.79966412499815" y1="119.43201700283709" x2="70.49054988549783" y2="124.24457567137011" stroke="#000" stroke-width="0.3" stroke-dasharray="2 1.5" />
<line x1="70.49054988549783" y1="124.24457567137011" x2="57.671742529111505" y2="134.14657005236427" stroke="#000" stroke-width="0.3" />
<text x="64.08114620730467" y="129.1955728618672" font-size="3" text-anchor="middle" dominant-baseline="central" fill="#000">95</text>
<line x1="57.671742529111505" y1="134.14657005236427" x2="66.79966412499815" y2="119.43201700283709" stroke="#000" stroke-width="0.3" stroke-dasharray="2 1.5" />
<line x1="66.79966412499815" y1="119.43201700283709" x2="57.671742529111505" y2="134.14657005236427" stroke="#000" stroke-width="0.3" stroke-dasharray="2 1.5" />
<line x1="57.671742529111505" y1="134.14657005236427" x2="55.01495623793288" y2="130.68234274665966" stroke="#000" stroke-width="0.3" stroke-dasharray="2 1.5" />
<line x1="55.01495623793288" y1="130.68234274665966" x2="66.79966412499815" y2="119.43201700283709" stroke="#000" stroke-width="0.3" stroke-dasharray="2 1.5" />
<line x1="43.08735751254165" y1="141.0876139443291" x2="45.5278340491059" y2="144.26981669162856" stroke="#000" stroke-width="0.3" stroke-dasharray="2 1.5" />
<line x1="45.5278340491059" y1="144.26981669162856" x2="34.4710805171985" y2="152.557444631465" stroke="#000" stroke-width="0.3" />
<text x="39.999457283152196" y="148.4136306615468" font-size="3" text-anchor="middle" dominant-baseline="central" fill="#000">105</text>
<line x1="34.4710805171985" y1="152.557444631465" x2="43.08735751254165" y2="141.0876139443291" stroke="#000" stroke-width="0.3" stroke-dasharray="2 1.5" />
<line x1="43.08735751254165" y1="141.0876139443291" x2="34.4710805171985" y2="152.557444631465" stroke="#000" stroke-width="0.3" stroke-dasharray="2 1.5" />
<line x1="34.4710805171985" y1="152.557444631465" x2="33.262626340462134" y2="150.98170517697898" stroke="#000" stroke-width="0.3" />
<text x="33.86685342883032" y="151.769574904222" font-size="3" text-anchor="middle" dominant-baseline="central" fill="#000">102</text>
<line x1="33.262626340462134" y1="150.98170517697898" x2="43.08735751254165" y2="141.0876139443291" stroke="#000" stroke-width="0.3" />
<polygon points="33.262626340462134,150.98170517697898 43.08735751254165,141.0876139443291 36.673538226461815,139.63124428365975 31.761172640422057,144.5782898999847" fill="none" stroke="#666" stroke-width="0.2" />
<text x="39.45225321988426" y="147.3029669320854" font-size="3" text-anchor="middle" dominant-baseline="central" fill="#000">106</text>
<line x1="152.33121907466463" y1="183.61434649729605" x2="154.88528536295223" y2="183.006023157826" stroke="#000" stroke-width="0.3" stroke-dasharray="2 1.5" />
<line x1="154.88528536295223" y1="183.006023157826" x2="154.7027918304741" y2="188.7063524136916" stroke="#000" stroke-width="0.3" />
<polygon points="154.88528536295223,183.006023157826 154.7027918304741,188.7063524136916 157.02854691593987,187.3542675127165 157.11979368217894,184.5041028847837" fill="none" stroke="#666" stroke-width="0.2" />
<text x="152.9949603270821" y="185.7985910867099" font-size="3" text-anchor="middle" dominant-baseline="central" fill="#000">122</text>
<line x1="154.7027918304741" y1="188.7063524136916" x2="152.33121907466463" y2="183.61434649729605" stroke="#000" stroke-width="0.3" stroke-dasharray="2 1.5" />
<line x1="152.33121907466463" y1="183.61434649729605" x2="154.7027918304741" y2="188.7063524136916" stroke="#000" stroke-width="0.3" stroke-dasharray="2 1.5" />
<line x1="154.7027918304741" y1="188.7063524136916" x2="152.14877293189517" y2="189.31478016540007" stroke="#000" stroke-width="0.3" stroke-dasharray="2 1.5" />
<line x1="152.14877293189517" y1="189.31478016540007" x2="152.33121907466463" y2="183.61434649729605" stroke="#000" stroke-width="0.3" />
<polygon points="152.14877293189517,189.31478016540007 152.33121907466463,183.61434649729605 150.00543407173066,184.96647645721427 149.91421100034592,187.81669329126626" fill="none" stroke="#666" stroke-width="0.2" />
<text x="154.03907478491124" y="186.52214403544147" font-size="3" text-anchor="middle" dominant-baseline="central" fill="#000">123</text>
<line x1="150.820904238995" y1="176.11922238405737" x2="153.2395201185577" y2="175.54310216715615" stroke="#000" stroke-width="0.3" stroke-dasharray="2 1.5" />
<line x1="153.2395201185577" y1="175.54310216715615" x2="154.88528536295223" y2="183.006023157826" stroke="#000" stroke-width="0.3" />
<polygon points="153.2395201185577,175.54310216715615 154.88528536295223,183.006023157826 157.45901244812154,180.48198681240072 156.63612982592426,176.75052631706578" fill="none" stroke="#666" stroke-width="0.2" />
<text x="152.3046367979148" y="179.6621950788229" font-size="3" text-anchor="middle" dominant-baseline="central" fill="#000">124</text>
<line x1="154.88528536295223" y1="183.006023157826" x2="150.820904238995" y2="176.11922238405737" stroke="#000" stroke-width="0.3" stroke-dasharray="2 1.5" />
<line x1="150.820904238995" y1="176.11922238405737" x2="154.88528536295223" y2="183.006023157826" stroke="#000" stroke-width="0.3" stroke-dasharray="2 1.5" />
<line x1="154.88528536295223" y1="183.006023157826" x2="152.33121907466463" y2="183.61434649729605" stroke="#000" stroke-width="0.3" stroke-dasharray="2 1.5" />
<line x1="152.33121907466463" y1="183.61434649729605" x2="150.820904238995" y2="176.11922238405737" stroke="#000" stroke-width="0.3" />
<text x="151.57606165682984" y="179.86678444067672" font-size="3" text-anchor="middle" dominant-baseline="central" fill="#000">54</text>
<line x1="161.4126964252016" y1="181.83640021563613" x2="164.5856409918784" y2="182.20060570438892" stroke="#000" stroke-width="0.3" stroke-dasharray="2 1.5" />
<line x1="164.5856409918784" y1="182.20060570438892" x2="164.96384160087607" y2="187.89140484851788" stroke="#000" stroke-width="0.3" />
<text x="164.77474129637721" y="185.0460052764534" font-size="3" text-anchor="middle" dominant-baseline="central" fill="#000">128</text>
<line x1="164.96384160087607" y1="187.89140484851788" x2="161.4126964252016" y2="181.83640021563613" stroke="#000" stroke-width="0.3" stroke-dasharray="2 1.5" />
<line x1="161.4126964252016" y1="181.83640021563613" x2="164.96384160087607" y2="187.89140484851788" stroke="#000" stroke-width="0.3" stroke-dasharray="2 1.5" />
<line x1="164.96384160087607" y1="187.89140484851788" x2="161.7908970341993" y2="187.5271993597651" stroke="#000" stroke-width="0.3" stroke-dasharray="2 1.5" />
<line x1="161.7908970341993" y1="187.5271993597651" x2="161.4126964252016" y2="181.83640021563613" stroke="#000" stroke-width="0.3" />
<text x="161.60179672970045" y="184.6817997877006" font-size="3" text-anchor="middle" dominant-baseline="central" fill="#000">120</text>
<line x1="27.709087147004738" y1="74.73687814194173" x2="41.42550800561739" y2="77.59931411169538" stroke="#000" stroke-width="0.3" />
<text x="34.56729757631106" y="76.16809612681855" font-size="3" text-anchor="middle" dominant-baseline="central" fill="#000">79</text>
<line x1="41.42550800561739" y1="77.59931411169538" x2="42.07188320056554" y2="84.33699645896684" stroke="#000" stroke-width="0.3" />
<text x="41.74869560309146" y="80.96815528533111" font-size="3" text-anchor="middle" dominant-baseline="central" fill="#000">83</text>
<line x1="42.07188320056554" y1="84.33699645896684" x2="27.709087147004738" y2="74.73687814194173" stroke="#000" stroke-width="0.3" stroke-dasharray="2 1.5" />
<line x1="27.709087147004738" y1="74.73687814194173" x2="42.07188320056554" y2="84.33699645896684" stroke="#000" stroke-width="0.3" stroke-dasharray="2 1.5" />
<line x1="42.07188320056554" y1="84.33699645896684" x2="39.76854488775761" y2="86.21406288713256" stroke="#000" stroke-width="0.3" />
<text x="40.920214044161575" y="85.2755296730497" font-size="3" text-anchor="middle" dominant-baseline="central" fill="#000">82</text>
<line x1="39.76854488775761" y1="86.21406288713256" x2="27.709087147004738" y2="74.73687814194173" stroke="#000" stroke-width="0.3" stroke-dasharray="2 1.5" />
<line x1="27.709087147004738" y1="74.73687814194173" x2="39.76854488775761" y2="86.21406288713256" stroke="#000" stroke-width="0.3" stroke-dasharray="2 1.5" />
<line x1="39.76854488775761" y1="86.21406288713256" x2="30.555141046688515" y2="88.63944586670699" stroke="#000" stroke-width="0.3" stroke-dasharray="2 1.5" />
<line x1="30.555141046688515" y1="88.63944586670699" x2="27.709087147004738" y2="74.73687814194173" stroke="#000" stroke-width="0.3" stroke-dasharray="2 1.5" />
<line x1="27.709087147004738" y1="74.73687814194173" x2="30.555141046688515" y2="88.63944586670699" stroke="#000" stroke-width="0.3" stroke-dasharray="2 1.5" />
<line x1="30.555141046688515" y1="88.63944586670699" x2="28.016343135657472" y2="77.46695691781476" stroke="#000" stroke-width="0.3" stroke-dasharray="2 1.5" />
<line x1="28.016343135657472" y1="77.46695691781476" x2="27.709087147004738" y2="74.73687814194173" stroke="#000" stroke-width="0.3" />
<polygon points="28.016343135657472,77.46695691781476 27.709087147004738,74.73687814194173 26.693869633818718,75.54230023137107 26.847497628145078,76.90733961930758" fill="none" stroke="#666" stroke-width="0.2" />
<text x="29.651422619443494" y="75.90060792319039" font-size="3" text-anchor="middle" dominant-baseline="central" fill="#000">164</text>
<line x1="25.33328661157831" y1="76.57983693951945" x2="28.016343135657472" y2="77.46695691781476" stroke="#000" stroke-width="0.3" />
<polygon points="25.33328661157831,76.57983693951945 28.016343135657472,77.46695691781476 27.700426995955812,76.17195431360926 26.35889873391622,75.72839432446162" fill="none" stroke="#666" stroke-width="0.2" />
<text x="26.109752547798212" y="78.7324038238958" font-size="3" text-anchor="middle" dominant-baseline="central" fill="#000">165</text>
<line x1="28.016343135657472" y1="77.46695691781476" x2="30.555141046688515" y2="88.63944586670699" stroke="#000" stroke-width="0.3" stroke-dasharray="2 1.5" />
<line x1="30.555141046688515" y1="88.63944586670699" x2="25.33328661157831" y2="76.57983693951945" stroke="#000" stroke-width="0.3" stroke-dasharray="2 1.5" />
<line x1="25.33328661157831" y1="76.57983693951945" x2="30.555141046688515" y2="88.63944586670699" stroke="#000" stroke-width="0.3" stroke-dasharray="2 1.5" />
<line x1="30.555141046688515" y1="88.63944586670699" x2="27.074220915417627" y2="90.36259058835785" stroke="#000" stroke-width="0.3" />
<text x="28.814680981053073" y="89.50101822753243" font-size="3" text-anchor="middle" dominant-baseline="central" fill="#000">77</text>
<line x1="27.074220915417627" y1="90.36259058835785" x2="25.33328661157831" y2="76.57983693951945" stroke="#000" stroke-width="0.3" stroke-dasharray="2 1.5" />
<line x1="113.7197212182982" y1="51.096034880247366" x2="110.04100932742307" y2="24.39457686647146" stroke="#000" stroke-width="0.3" stroke-dasharray="2 1.5" />
<line x1="110.04100932742307" y1="24.39457686647146" x2="144.51090992250886" y2="23.585754695221933" stroke="#000" stroke-width="0.3" />
<polygon points="110.04100932742307,24.39457686647146 144.51090992250886,23.585754695221933 135.5699059052376,10 118.33495560769471,10.404411085624764" fill="none" stroke="#666" stroke-width="0.2" />
<text x="127.3181842689075" y="25.789670456985107" font-size="3" text-anchor="middle" dominant-baseline="central" fill="#000">366</text>
<line x1="144.51090992250886" y1="23.585754695221933" x2="113.7197212182982" y2="51.096034880247366" stroke="#000" stroke-width="0.3" stroke-dasharray="2 1.5" />
<line x1="113.7197212182982" y1="51.096034880247366" x2="144.51090992250886" y2="23.585754695221933" stroke="#000" stroke-width="0.3" stroke-dasharray="2 1.5" />
<line x1="144.51090992250886" y1="23.585754695221933" x2="145.84020244910823" y2="51.096034880247366" stroke="#000" stroke-width="0.3" stroke-dasharray="2 1.5" />
<line x1="145.84020244910823" y1="51.096034880247366" x2="113.7197212182982" y2="51.096034880247366" stroke="#000" stroke-width="0.3" stroke-dasharray="2 1.5" />
<line x1="98.36993878546373" y1="52.58475027522482" x2="96.33524639007831" y2="24.644146302698644" stroke="#000" stroke-width="0.3" stroke-dasharray="2 1.5" />
<line x1="96.33524639007831" y1="24.644146302698644" x2="110.04100932742307" y2="24.39457686647146" stroke="#000" stroke-width="0.3" />
<text x="103.18812785875069" y="24.519361584585052" font-size="3" text-anchor="middle" dominant-baseline="central" fill="#000">175</text>
<line x1="110.04100932742307" y1="24.39457686647146" x2="98.36993878546373" y2="52.58475027522482" stroke="#000" stroke-width="0.3" stroke-dasharray="2 1.5" />
<line x1="98.36993878546373" y1="52.58475027522482" x2="110.04100932742307" y2="24.39457686647146" stroke="#000" stroke-width="0.3" stroke-dasharray="2 1.5" />
<line x1="110.04100932742307" y1="24.39457686647146" x2="113.7197212182982" y2="51.096034880247366" stroke="#000" stroke-width="0.3" stroke-dasharray="2 1.5" />
<line x1="113.7197212182982" y1="51.096034880247366" x2="98.36993878546373" y2="52.58475027522482" stroke="#000" stroke-width="0.3" />
<text x="106.04483000188097" y="51.8403925777361" font-size="3" text-anchor="middle" dominant-baseline="central" fill="#000">6</text>
<line x1="144.51090992250886" y1="23.585754695221933" x2="154.1125434426106" y2="23.32679816293946" stroke="#000" stroke-width="0.3" />
<text x="149.3117266825597" y="23.456276429080695" font-size="3" text-anchor="middle" dominant-baseline="central" fill="#000">176</text>
<line x1="154.1125434426106" y1="23.32679816293946" x2="155.49216617451725" y2="50.1940690031465" stroke="#000" stroke-width="0.3" stroke-dasharray="2 1.5" />
<line x1="155.49216617451725" y1="50.1940690031465" x2="144.51090992250886" y2="23.585754695221933" stroke="#000" stroke-width="0.3" stroke-dasharray="2 1.5" />
<line x1="144.51090992250886" y1="23.585754695221933" x2="155.49216617451725" y2="50.1940690031465" stroke="#000" stroke-width="0.3" stroke-dasharray="2 1.5" />
<line x1="155.49216617451725" y1="50.1940690031465" x2="145.84020244910823" y2="51.096034880247366" stroke="#000" stroke-width="0.3" />
<text x="150.66618431181274" y="50.645051941696934" font-size="3" text-anchor="middle" dominant-baseline="central" fill="#000">8</text>
<line x1="145.84020244910823" y1="51.096034880247366" x2="144.51090992250886" y2="23.585754695221933" stroke="#000" stroke-width="0.3" stroke-dasharray="2 1.5" />
<line x1="154.1125434426106" y1="23.32679816293946" x2="162.84027251839686" y2="23.056942664982998" stroke="#000" stroke-width="0.3" />
<text x="158.47640798050372" y="23.19187041396123" font-size="3" text-anchor="middle" dominant-baseline="central" fill="#000">179</text>
<line x1="162.84027251839686" y1="23.056942664982998" x2="164.30477811754983" y2="49.23538155377911" stroke="#000" stroke-width="0.3" stroke-dasharray="2 1.5" />
<line x1="164.30477811754983" y1="49.23538155377911" x2="154.1125434426106" y2="23.32679816293946" stroke="#000" stroke-width="0.3" stroke-dasharray="2 1.5" />
<line x1="154.1125434426106" y1="23.32679816293946" x2="164.30477811754983" y2="49.23538155377911" stroke="#000" stroke-width="0.3" stroke-dasharray="2 1.5" />
<line x1="164.30477811754983" y1="49.23538155377911" x2="155.49216617451725" y2="50.1940690031465" stroke="#000" stroke-width="0.3" />
<text x="159.89847214603355" y="49.71472527846281" font-size="3" text-anchor="middle" dominant-baseline="central" fill="#000">12</text>
<line x1="155.49216617451725" y1="50.1940690031465" x2="154.1125434426106" y2="23.32679816293946" stroke="#000" stroke-width="0.3" stroke-dasharray="2 1.5" />
<line x1="162.84027251839686" y1="23.056942664982998" x2="176.46243305542166" y2="27.7249129549622" stroke="#000" stroke-width="0.3" />
<text x="169.65135278690926" y="25.3909278099726" font-size="3" text-anchor="middle" dominant-baseline="central" fill="#000">183</text>
<line x1="176.46243305542166" y1="27.7249129549622" x2="175.80554303645025" y2="49.77191563095733" stroke="#000" stroke-width="0.3" stroke-dasharray="2 1.5" />
<line x1="175.80554303645025" y1="49.77191563095733" x2="162.84027251839686" y2="23.056942664982998" stroke="#000" stroke-width="0.3" stroke-dasharray="2 1.5" />
<line x1="162.84027251839686" y1="23.056942664982998" x2="175.80554303645025" y2="49.77191563095733" stroke="#000" stroke-width="0.3" stroke-dasharray="2 1.5" />
<line x1="175.80554303645025" y1="49.77191563095733" x2="164.30477811754983" y2="49.23538155377911" stroke="#000" stroke-width="0.3" />
<text x="170.05516057700004" y="49.50364859236822" font-size="3" text-anchor="middle" dominant-baseline="central" fill="#000">16</text>
<line x1="164.30477811754983" y1="49.23538155377911" x2="162.84027251839686" y2="23.056942664982998" stroke="#000" stroke-width="0.3" stroke-dasharray="2 1.5" />
<line x1="176.46243305542166" y1="27.7249129549622" x2="189.203232080186" y2="39.53385808190224" stroke="#000" stroke-width="0.3" />
<text x="182.83283256780385" y="33.629385518432215" font-size="3" text-anchor="middle" dominant-baseline="central" fill="#000">187</text>
<line x1="189.203232080186" y1="39.53385808190224" x2="189.31275614853166" y2="51.27747994072135" stroke="#000" stroke-width="0.3" />
<polygon points="189.203232080186,39.53385808190224 189.31275614853166,51.27747994072135 193.9828238749729,48.29776484867831 193.9280618408001,42.42595391926876" fill="none" stroke="#666" stroke-width="0.2" />
<text x="187.45807239046212" y="45.42245554891278" font-size="3" text-anchor="middle" dominant-baseline="central" fill="#000">188</text>
<line x1="189.31275614853166" y1="51.27747994072135" x2="176.46243305542166" y2="27.7249129549622" stroke="#000" stroke-width="0.3" stroke-dasharray="2 1.5" />
<line x1="176.46243305542166" y1="27.7249129549622" x2="189.31275614853166" y2="51.27747994072135" stroke="#000" stroke-width="0.3" stroke-dasharray="2 1.5" />
<line x1="189.31275614853166" y1="51.27747994072135" x2="175.80554303645025" y2="49.77191563095733" stroke="#000" stroke-width="0.3" />
<text x="182.55914959249094" y="50.52469778583934" font-size="3" text-anchor="middle" dominant-baseline="central" fill="#000">21</text>
<line x1="175.80554303645025" y1="49.77191563095733" x2="176.46243305542166" y2="27.7249129549622" stroke="#000" stroke-width="0.3" stroke-dasharray="2 1.5" />
<line x1="83.02696664679465" y1="54.14190806443374" x2="82.62847803596189" y2="24.830489761894732" stroke="#000" stroke-width="0.3" stroke-dasharray="2 1.5" />
<line x1="82.62847803596189" y1="24.830489761894732" x2="96.33524639007831" y2="24.644146302698644" stroke="#000" stroke-width="0.3" />
<polygon points="82.62847803596189,24.830489761894732 96.33524639007831,24.644146302698644 92.83401691787076,19.208024825851098 85.98063274081257,19.30119655544915" fill="none" stroke="#666" stroke-width="0.2" />
<text x="89.50633094449127" y="26.537151713829566" font-size="3" text-anchor="middle" dominant-baseline="central" fill="#000">219</text>
<line x1="96.33524639007831" y1="24.644146302698644" x2="83.02696664679465" y2="54.14190806443374" stroke="#000" stroke-width="0.3" stroke-dasharray="2 1.5" />
<line x1="83.02696664679465" y1="54.14190806443374" x2="96.33524639007831" y2="24.644146302698644" stroke="#000" stroke-width="0.3" stroke-dasharray="2 1.5" />
<line x1="96.33524639007831" y1="24.644146302698644" x2="98.36993878546373" y2="52.58475027522482" stroke="#000" stroke-width="0.3" stroke-dasharray="2 1.5" />
<line x1="98.36993878546373" y1="52.58475027522482" x2="83.02696664679465" y2="54.14190806443374" stroke="#000" stroke-width="0.3" />
<text x="90.6984527161292" y="53.363329169829285" font-size="3" text-anchor="middle" dominant-baseline="central" fill="#000">58</text>
<line x1="83.02696664679465" y1="54.14190806443374" x2="76.42128317357181" y2="54.475895947954335" stroke="#000" stroke-width="0.3" />
<text x="79.72412491018324" y="54.30890200619404" font-size="3" text-anchor="middle" dominant-baseline="central" fill="#000">65</text>
<line x1="76.42128317357181" y1="54.475895947954335" x2="76.00117378887116" y2="26.14679651857065" stroke="#000" stroke-width="0.3" stroke-dasharray="2 1.5" />
<line x1="76.00117378887116" y1="26.14679651857065" x2="83.02696664679465" y2="54.14190806443374" stroke="#000" stroke-width="0.3" stroke-dasharray="2 1.5" />
<line x1="83.02696664679465" y1="54.14190806443374" x2="76.00117378887116" y2="26.14679651857065" stroke="#000" stroke-width="0.3" stroke-dasharray="2 1.5" />
<line x1="76.00117378887116" y1="26.14679651857065" x2="82.62847803596189" y2="24.830489761894732" stroke="#000" stroke-width="0.3" />
<text x="79.31482591241652" y="25.48864314023269" font-size="3" text-anchor="middle" dominant-baseline="central" fill="#000">222</text>
<line x1="82.62847803596189" y1="24.830489761894732" x2="83.02696664679465" y2="54.14190806443374" stroke="#000" stroke-width="0.3" stroke-dasharray="2 1.5" />
<line x1="76.42128317357181" y1="54.475895947954335" x2="63.37024559276502" y2="53.316782622221915" stroke="#000" stroke-width="0.3" />
<text x="69.89576438316841" y="53.896339285088125" font-size="3" text-anchor="middle" dominant-baseline="central" fill="#000">69</text>
<line x1="63.37024559276502" y1="53.316782622221915" x2="63.01693787353226" y2="25.982492380071925" stroke="#000" stroke-width="0.3" stroke-dasharray="2 1.5" />
<line x1="63.01693787353226" y1="25.982492380071925" x2="76.42128317357181" y2="54.475895947954335" stroke="#000" stroke-width="0.3" stroke-dasharray="2 1.5" />
<line x1="76.42128317357181" y1="54.475895947954335" x2="63.01693787353226" y2="25.982492380071925" stroke="#000" stroke-width="0.3" stroke-dasharray="2 1.5" />
<line x1="63.01693787353226" y1="25.982492380071925" x2="76.00117378887116" y2="26.14679651857065" stroke="#000" stroke-width="0.3" />
<polygon points="63.01693787353226,25.982492380071925 76.00117378887116,26.14679651857065 72.82083646543593,20.91202611781041 66.32871850776647,20.829874048561038" fill="none" stroke="#666" stroke-width="0.2" />
<text x="69.48628023042606" y="27.864500352445006" font-size="3" text-anchor="middle" dominant-baseline="central" fill="#000">224</text>
<line x1="76.00117378887116" y1="26.14679651857065" x2="76.42128317357181" y2="54.475895947954335" stroke="#000" stroke-width="0.3" stroke-dasharray="2 1.5" />
<line x1="63.37024559276502" y1="53.316782622221915" x2="50.232135421536874" y2="49.8880489128214" stroke="#000" stroke-width="0.3" />
<text x="56.80119050715095" y="51.602415767521656" font-size="3" text-anchor="middle" dominant-baseline="central" fill="#000">75</text>
<line x1="50.232135421536874" y1="49.8880489128214" x2="50.4383591396473" y2="26.08160464429485" stroke="#000" stroke-width="0.3" stroke-dasharray="2 1.5" />
<line x1="50.4383591396473" y1="26.08160464429485" x2="63.37024559276502" y2="53.316782622221915" stroke="#000" stroke-width="0.3" stroke-dasharray="2 1.5" />
<line x1="63.37024559276502" y1="53.316782622221915" x2="50.4383591396473" y2="26.08160464429485" stroke="#000" stroke-width="0.3" stroke-dasharray="2 1.5" />
<line x1="50.4383591396473" y1="26.08160464429485" x2="63.01693787353226" y2="25.982492380071925" stroke="#000" stroke-width="0.3" />
<polygon points="50.4383591396473,26.08160464429485 63.01693787353226,25.982492380071925 59.83264828437184,20.97583895257367 53.543358917429366,21.025395084685133" fill="none" stroke="#666" stroke-width="0.2" />
<text x="56.74183107375603" y="27.831992637646334" font-size="3" text-anchor="middle" dominant-baseline="central" fill="#000">228</text>
<line x1="63.01693787353226" y1="25.982492380071925" x2="63.37024559276502" y2="53.316782622221915" stroke="#000" stroke-width="0.3" stroke-dasharray="2 1.5" />
<line x1="50.232135421536874" y1="49.8880489128214" x2="39.8411787526659" y2="46.94842433430614" stroke="#000" stroke-width="0.3" />
<text x="45.03665708710139" y="48.41823662356377" font-size="3" text-anchor="middle" dominant-baseline="central" fill="#000">80</text>
<line x1="39.8411787526659" y1="46.94842433430614" x2="40.44641749797149" y2="44.03808990162291" stroke="#000" stroke-width="0.3" stroke-dasharray="2 1.5" />
<line x1="40.44641749797149" y1="44.03808990162291" x2="50.232135421536874" y2="49.8880489128214" stroke="#000" stroke-width="0.3" stroke-dasharray="2 1.5" />
<line x1="50.232135421536874" y1="49.8880489128214" x2="40.44641749797149" y2="44.03808990162291" stroke="#000" stroke-width="0.3" stroke-dasharray="2 1.5" />
<line x1="40.44641749797149" y1="44.03808990162291" x2="42.23209657436836" y2="30.14042495071688" stroke="#000" stroke-width="0.3" />
<polygon points="40.44641749797149,44.03808990162291 42.23209657436836,30.14042495071688 36.22661082490673,32.90056955788464 35.3337712867083,39.849402033337654" fill="none" stroke="#666" stroke-width="0.2" />
<text x="43.12458033115536" y="37.318649519282026" font-size="3" text-anchor="middle" dominant-baseline="central" fill="#000">232</text>
<line x1="42.23209657436836" y1="30.14042495071688" x2="50.232135421536874" y2="49.8880489128214" stroke="#000" stroke-width="0.3" stroke-dasharray="2 1.5" />
<line x1="50.232135421536874" y1="49.8880489128214" x2="42.23209657436836" y2="30.14042495071688" stroke="#000" stroke-width="0.3" stroke-dasharray="2 1.5" />
<line x1="42.23209657436836" y1="30.14042495071688" x2="50.4383591396473" y2="26.08160464429485" stroke="#000" stroke-width="0.3" />
<polygon points="42.23209657436836,30.14042495071688 50.4383591396473,26.08160464429485 46.763265375758756,23.813804694788786 42.66013409311928,25.843214847999796" fill="none" stroke="#666" stroke-width="0.2" />
<text x="47.133235177894306" y="29.724453459436212" font-size="3" text-anchor="middle" dominant-baseline="central" fill="#000">233</text>
<line x1="50.4383591396473" y1="26.08160464429485" x2="50.232135421536874" y2="49.8880489128214" stroke="#000" stroke-width="0.3" stroke-dasharray="2 1.5" />
<line x1="22.573840645050822" y1="75.38552405274461" x2="22.955090341039053" y2="78.10625649720588" stroke="#000" stroke-width="0.3" />
<polygon points="22.573840645050822,75.38552405274461 22.955090341039053,78.10625649720588 23.948070894826493,77.27357350769527 23.757446046832378,75.91320728546464" fill="none" stroke="#666" stroke-width="0.2" />
<text x="20.981881593869854" y="76.99567947090205" font-size="3" text-anchor="middle" dominant-baseline="central" fill="#000">310</text>
<line x1="22.955090341039053" y1="78.10625649720588" x2="23.27415829224268" y2="89.55912512426563" stroke="#000" stroke-width="0.3" stroke-dasharray="2 1.5" />
<line x1="23.27415829224268" y1="89.55912512426563" x2="22.573840645050822" y2="75.38552405274461" stroke="#000" stroke-width="0.3" stroke-dasharray="2 1.5" />
<line x1="22.573840645050822" y1="75.38552405274461" x2="23.27415829224268" y2="89.55912512426563" stroke="#000" stroke-width="0.3" stroke-dasharray="2 1.5" />
<line x1="23.27415829224268" y1="89.55912512426563" x2="13.7470441828836" y2="89.50090413589213" stroke="#000" stroke-width="0.3" />
<text x="18.51060123756314" y="89.53001463007888" font-size="3" text-anchor="middle" dominant-baseline="central" fill="#000">230</text>
<line x1="13.7470441828836" y1="89.50090413589213" x2="22.573840645050822" y2="75.38552405274461" stroke="#000" stroke-width="0.3" stroke-dasharray="2 1.5" />
<line x1="22.573840645050822" y1="75.38552405274461" x2="13.7470441828836" y2="89.50090413589213" stroke="#000" stroke-width="0.3" stroke-dasharray="2 1.5" />
<line x1="13.7470441828836" y1="89.50090413589213" x2="11.04930337690793" y2="88.2555365986689" stroke="#000" stroke-width="0.3" />
<text x="12.398173779895766" y="88.8782203672805" font-size="3" text-anchor="middle" dominant-baseline="central" fill="#000">235</text>
<line x1="11.04930337690793" y1="88.2555365986689" x2="22.573840645050822" y2="75.38552405274461" stroke="#000" stroke-width="0.3" stroke-dasharray="2 1.5" />
<line x1="22.573840645050822" y1="75.38552405274461" x2="11.04930337690793" y2="88.2555365986689" stroke="#000" stroke-width="0.3" stroke-dasharray="2 1.5" />
<line x1="11.04930337690793" y1="88.2555365986689" x2="10" y2="81.56874912420949" stroke="#000" stroke-width="0.3" />
<text x="10.524651688453964" y="84.9121428614392" font-size="3" text-anchor="middle" dominant-baseline="central" fill="#000">237</text>
<line x1="10" y1="81.56874912420949" x2="22.573840645050822" y2="75.38552405274461" stroke="#000" stroke-width="0.3" />
<text x="16.28692032252541" y="78.47713658847705" font-size="3" text-anchor="middle" dominant-baseline="central" fill="#000">232</text>
<line x1="25.33328661157831" y1="76.57983693951945" x2="27.074220915417627" y2="90.36259058835785" stroke="#000" stroke-width="0.3" stroke-dasharray="2 1.5" />
<line x1="27.074220915417627" y1="90.36259058835785" x2="23.27415829224268" y2="89.55912512426563" stroke="#000" stroke-width="0.3" />
<text x="25.174189603830154" y="89.96085785631175" font-size="3" text-anchor="middle" dominant-baseline="central" fill="#000">231</text>
<line x1="23.27415829224268" y1="89.55912512426563" x2="25.33328661157831" y2="76.57983693951945" stroke="#000" stroke-width="0.3" stroke-dasharray="2 1.5" />
<line x1="25.33328661157831" y1="76.57983693951945" x2="23.27415829224268" y2="89.55912512426563" stroke="#000" stroke-width="0.3" stroke-dasharray="2 1.5" />
<line x1="23.27415829224268" y1="89.55912512426563" x2="22.955090341039053" y2="78.10625649720588" stroke="#000" stroke-width="0.3" stroke-dasharray="2 1.5" />
<line x1="22.955090341039053" y1="78.10625649720588" x2="25.33328661157831" y2="76.57983693951945" stroke="#000" stroke-width="0.3" />
<polygon points="22.955090341039053,78.10625649720588 25.33328661157831,76.57983693951945 24.128169720868918,76.01016332072535 22.93907158559929,76.77337309956857" fill="none" stroke="#666" stroke-width="0.2" />
<text x="25.116460780558167" y="78.85786900707821" font-size="3" text-anchor="middle" dominant-baseline="central" fill="#000">311</text>
<line x1="40.44641749797149" y1="44.03808990162291" x2="35.214291198822124" y2="43.28006033726104" stroke="#000" stroke-width="0.3" stroke-dasharray="2 1.5" />
<line x1="35.214291198822124" y1="43.28006033726104" x2="34.84698575610062" y2="42.173654162297915" stroke="#000" stroke-width="0.3" stroke-dasharray="2 1.5" />
<line x1="34.84698575610062" y1="42.173654162297915" x2="40.44641749797149" y2="44.03808990162291" stroke="#000" stroke-width="0.3" stroke-dasharray="2 1.5" />
<line x1="40.44641749797149" y1="44.03808990162291" x2="34.84698575610062" y2="42.173654162297915" stroke="#000" stroke-width="0.3" stroke-dasharray="2 1.5" />
<line x1="34.84698575610062" y1="42.173654162297915" x2="39.27548149950074" y2="41.55280415295726" stroke="#000" stroke-width="0.3" />
<polygon points="34.84698575610062,42.173654162297915 39.27548149950074,41.55280415295726 37.92001755991446,39.936618357932375 35.70576968821439,40.247043362602696" fill="none" stroke="#666" stroke-width="0.2" />
<text x="37.31113949692678" y="43.64579670377453" font-size="3" text-anchor="middle" dominant-baseline="central" fill="#000">312</text>
<line x1="39.27548149950074" y1="41.55280415295726" x2="40.44641749797149" y2="44.03808990162291" stroke="#000" stroke-width="0.3" />
<text x="39.86094949873612" y="42.79544702729008" font-size="3" text-anchor="middle" dominant-baseline="central" fill="#000">310</text>
<line x1="35.214291198822124" y1="43.28006033726104" x2="32.43816883245657" y2="41.69526510845452" stroke="#000" stroke-width="0.3" />
<polygon points="35.214291198822124,43.28006033726104 32.43816883245657,41.69526510845452 32.498281332525345,43.20191286220237 33.88634251570814,43.99431047660564" fill="none" stroke="#666" stroke-width="0.2" />
<text x="34.71861765304184" y="40.924446709438264" font-size="3" text-anchor="middle" dominant-baseline="central" fill="#000">313</text>
<line x1="32.43816883245657" y1="41.69526510845452" x2="32.2549937347344" y2="40.72557956486088" stroke="#000" stroke-width="0.3" />
<polygon points="32.43816883245657,41.69526510845452 32.2549937347344,40.72557956486088 31.912913291727484,41.041270989848144 32.00450084058856,41.526113761644964" fill="none" stroke="#666" stroke-width="0.2" />
<text x="34.11530058369417" y="40.876308527517146" font-size="3" text-anchor="middle" dominant-baseline="central" fill="#000">314</text>
<line x1="32.2549937347344" y1="40.72557956486088" x2="35.214291198822124" y2="43.28006033726104" stroke="#000" stroke-width="0.3" stroke-dasharray="2 1.5" />
<line x1="35.214291198822124" y1="43.28006033726104" x2="32.2549937347344" y2="40.72557956486088" stroke="#000" stroke-width="0.3" stroke-dasharray="2 1.5" />
<line x1="32.2549937347344" y1="40.72557956486088" x2="34.84698575610062" y2="42.173654162297915" stroke="#000" stroke-width="0.3" />
<polygon points="32.2549937347344,40.72557956486088 34.84698575610062,42.173654162297915 34.778217589733885,40.77483870439217 33.48222157905077,40.050801405673646" fill="none" stroke="#666" stroke-width="0.2" />
<text x="32.67309218828764" y="43.02101620148984" font-size="3" text-anchor="middle" dominant-baseline="central" fill="#000">315</text>
<line x1="34.84698575610062" y1="42.173654162297915" x2="35.214291198822124" y2="43.28006033726104" stroke="#000" stroke-width="0.3" stroke-dasharray="2 1.5" />
<line x1="39.8411787526659" y1="46.94842433430614" x2="34.68488162721022" y2="45.05658366633366" stroke="#000" stroke-width="0.3" />
<text x="37.26303018993806" y="46.0025040003199" font-size="3" text-anchor="middle" dominant-baseline="central" fill="#000">169</text>
<line x1="34.68488162721022" y1="45.05658366633366" x2="35.214291198822124" y2="43.28006033726104" stroke="#000" stroke-width="0.3" stroke-dasharray="2 1.5" />
<line x1="35.214291198822124" y1="43.28006033726104" x2="39.8411787526659" y2="46.94842433430614" stroke="#000" stroke-width="0.3" stroke-dasharray="2 1.5" />
<line x1="39.8411787526659" y1="46.94842433430614" x2="35.214291198822124" y2="43.28006033726104" stroke="#000" stroke-width="0.3" stroke-dasharray="2 1.5" />
<line x1="35.214291198822124" y1="43.28006033726104" x2="40.44641749797149" y2="44.03808990162291" stroke="#000" stroke-width="0.3" stroke-dasharray="2 1.5" />
<line x1="40.44641749797149" y1="44.03808990162291" x2="39.8411787526659" y2="46.94842433430614" stroke="#000" stroke-width="0.3" stroke-dasharray="2 1.5" />
<line x1="34.68488162721022" y1="45.05658366633366" x2="31.696992473560492" y2="43.683641780718524" stroke="#000" stroke-width="0.3" />
<text x="33.19093705038536" y="44.37011272352609" font-size="3" text-anchor="middle" dominant-baseline="central" fill="#000">172</text>
<line x1="31.696992473560492" y1="43.683641780718524" x2="32.18730358227684" y2="42.25255010394727" stroke="#000" stroke-width="0.3" />
<text x="31.942148027918666" y="42.968095942332894" font-size="3" text-anchor="middle" dominant-baseline="central" fill="#000">317</text>
<line x1="32.18730358227684" y1="42.25255010394727" x2="34.68488162721022" y2="45.05658366633366" stroke="#000" stroke-width="0.3" stroke-dasharray="2 1.5" />
<line x1="34.68488162721022" y1="45.05658366633366" x2="32.18730358227684" y2="42.25255010394727" stroke="#000" stroke-width="0.3" stroke-dasharray="2 1.5" />
<line x1="32.18730358227684" y1="42.25255010394727" x2="35.214291198822124" y2="43.28006033726104" stroke="#000" stroke-width="0.3" />
<text x="33.70079739054948" y="42.76630522060415" font-size="3" text-anchor="middle" dominant-baseline="central" fill="#000">313</text>
<line x1="35.214291198822124" y1="43.28006033726104" x2="34.68488162721022" y2="45.05658366633366" stroke="#000" stroke-width="0.3" stroke-dasharray="2 1.5" />
<line x1="161.7908970341993" y1="187.5271993597651" x2="164.96384160087607" y2="187.89140484851788" stroke="#000" stroke-width="0.3" stroke-dasharray="2 1.5" />
<line x1="164.96384160087607" y1="187.89140484851788" x2="165.08167076288626" y2="192.33547183296733" stroke="#000" stroke-width="0.3" />
<polygon points="164.96384160087607,187.89140484851788 165.08167076288626,192.33547183296733 166.82984026616347,191.1773234220509 166.7709256851584,188.95528992982617" fill="none" stroke="#666" stroke-width="0.2" />
<text x="163.22338853256502" y="190.16114643852987" font-size="3" text-anchor="middle" dominant-baseline="central" fill="#000">329</text>
<line x1="165.08167076288626" y1="192.33547183296733" x2="161.7908970341993" y2="187.5271993597651" stroke="#000" stroke-width="0.3" stroke-dasharray="2 1.5" />
<line x1="161.7908970341993" y1="187.5271993597651" x2="165.08167076288626" y2="192.33547183296733" stroke="#000" stroke-width="0.3" stroke-dasharray="2 1.5" />
<line x1="165.08167076288626" y1="192.33547183296733" x2="161.90883980816153" y2="191.97125229375638" stroke="#000" stroke-width="0.3" />
<polygon points="165.08167076288626,192.33547183296733 161.90883980816153,191.97125229375638 162.55635973115832,193.33143956044898 164.14277520852067,193.51354933005447" fill="none" stroke="#666" stroke-width="0.2" />
<text x="163.70053500525432" y="190.36510586340967" font-size="3" text-anchor="middle" dominant-baseline="central" fill="#000">330</text>
<line x1="161.90883980816153" y1="191.97125229375638" x2="161.7908970341993" y2="187.5271993597651" stroke="#000" stroke-width="0.3" />
<polygon points="161.90883980816153,191.97125229375638 161.7908970341993,187.5271993597651 160.04276155409337,188.6853897028478 160.1017329410745,190.90741616984343" fill="none" stroke="#666" stroke-width="0.2" />
<text x="163.64923484711204" y="189.70147160987784" font-size="3" text-anchor="middle" dominant-baseline="central" fill="#000">331</text>
<line x1="152.14877293189517" y1="189.31478016540007" x2="154.7027918304741" y2="188.7063524136916" stroke="#000" stroke-width="0.3" stroke-dasharray="2 1.5" />
<line x1="154.7027918304741" y1="188.7063524136916" x2="155.42077594125433" y2="193.09372132967954" stroke="#000" stroke-width="0.3" />
<polygon points="154.7027918304741,188.7063524136916 155.42077594125433,193.09372132967954 156.99622747995446,191.70968545637044 156.63723542456432,189.51600099837646" fill="none" stroke="#666" stroke-width="0.2" />
<text x="153.28541292857298" y="191.19073641088755" font-size="3" text-anchor="middle" dominant-baseline="central" fill="#000">337</text>
<line x1="155.42077594125433" y1="193.09372132967954" x2="152.14877293189517" y2="189.31478016540007" stroke="#000" stroke-width="0.3" stroke-dasharray="2 1.5" />
<line x1="152.14877293189517" y1="189.31478016540007" x2="155.42077594125433" y2="193.09372132967954" stroke="#000" stroke-width="0.3" stroke-dasharray="2 1.5" />
<line x1="155.42077594125433" y1="193.09372132967954" x2="152.86670949664767" y2="193.70204401283823" stroke="#000" stroke-width="0.3" />
<text x="154.143742718951" y="193.39788267125888" font-size="3" text-anchor="middle" dominant-baseline="central" fill="#000">335</text>
<line x1="152.86670949664767" y1="193.70204401283823" x2="152.14877293189517" y2="189.31478016540007" stroke="#000" stroke-width="0.3" />
<text x="152.50774121427142" y="191.50841208911913" font-size="3" text-anchor="middle" dominant-baseline="central" fill="#000">332</text>
</svg>