<svg xmlns="http://www.w3.org/2000/svg" width="215.9mm" height="279.4mm" viewBox="0 0 215.9 279.4">
<rect x="0" y="0" width="215.9" height="279.4" fill="none" stroke="#ccc" stroke-width="0.15" />
<line x1="65.08943085708856" y1="117.70668756038873" x2="31.154193926526904" y2="107.60991479631953" stroke="#000" stroke-width="0.3" stroke-dasharray="2 1.5" />
<line x1="31.154193926526904" y1="107.60991479631953" x2="51.036499466630694" y2="102.86204191898291" stroke="#000" stroke-width="0.3" />
<polygon points="31.154193926526904,107.60991479631953 51.036499466630694,102.86204191898291 44.166773930670104,96.09608792227556 34.22562116061822,98.47002436094385" fill="none" stroke="#666" stroke-width="0.2" />
<text x="41.5134294292693" y="106.98675156644384" font-size="3" text-anchor="middle" dominant-baseline="central" fill="#000">1</text>
<line x1="51.036499466630694" y1="102.86204191898291" x2="65.08943085708856" y2="117.70668756038873" stroke="#000" stroke-width="0.3" stroke-dasharray="2 1.5" />
<line x1="31.154193926526904" y1="107.60991479631953" x2="65.08943085708856" y2="117.70668756038873" stroke="#000" stroke-width="0.3" stroke-dasharray="2 1.5" />
<line x1="65.08943085708856" y1="117.70668756038873" x2="25.324819776880997" y2="127.20243331506195" stroke="#000" stroke-width="0.3" stroke-dasharray="2 1.5" />
<line x1="25.324819776880997" y1="127.20243331506195" x2="31.154193926526904" y2="107.60991479631953" stroke="#000" stroke-width="0.3" />
<polygon points="25.324819776880997,127.20243331506195 31.154193926526904,107.60991479631953 21.859842981618463,110.17629476614677 18.945155906795513,119.97255402551798" fill="none" stroke="#666" stroke-width="0.2" />
<text x="29.964762298247702" y="117.91949037548889" font-size="3" text-anchor="middle" dominant-baseline="central" fill="#000">2</text>
<line x1="25.324819776880997" y1="127.20243331506195" x2="65.08943085708856" y2="117.70668756038873" stroke="#000" stroke-width="0.3" stroke-dasharray="2 1.5" />
<line x1="65.08943085708856" y1="117.70668756038873" x2="59.26005670744266" y2="137.29920607913115" stroke="#000" stroke-width="0.3" />
<polygon points="65.08943085708856,117.70668756038873 59.26005670744266,137.29920607913115 68.5544076523511,134.73282610930391 71.46909472717405,124.9365668499327" fill="none" stroke="#666" stroke-width="0.2" />
<text x="60.44948833572186" y="126.98963049996179" font-size="3" text-anchor="middle" dominant-baseline="central" fill="#000">3</text>
<line x1="59.26005670744266" y1="137.29920607913115" x2="25.324819776880997" y2="127.20243331506195" stroke="#000" stroke-width="0.3" stroke-dasharray="2 1.5" />
<line x1="25.324819776880997" y1="127.20243331506195" x2="59.26005670744266" y2="137.29920607913115" stroke="#000" stroke-width="0.3" stroke-dasharray="2 1.5" />
<line x1="59.26005670744266" y1="137.29920607913115" x2="39.37775116733888" y2="142.04707895646774" stroke="#000" stroke-width="0.3" />
<polygon points="59.26005670744266,137.29920607913115 39.37775116733888,142.04707895646774 46.24747670329946,148.8130329531751 56.188629473351355,146.43909651450682" fill="none" stroke="#666" stroke-width="0.2" />
<text x="48.90082120470027" y="137.92236930900683" font-size="3" text-anchor="middle" dominant-baseline="central" fill="#000">4</text>
<line x1="39.37775116733888" y1="142.04707895646774" x2="25.324819776880997" y2="127.20243331506195" stroke="#000" stroke-width="0.3" stroke-dasharray="2 1.5" />
<line x1="80.41425063396956" y1="109.11028949310663" x2="85.04459284123486" y2="138.7860842161" stroke="#000" stroke-width="0.3" stroke-dasharray="2 1.5" />
<line x1="85.04459284123486" y1="138.7860842161" x2="70.99166164407148" y2="123.94143839170873" stroke="#000" stroke-width="0.3" />
<text x="78.01812724265318" y="131.36376130390437" font-size="3" text-anchor="middle" dominant-baseline="central" fill="#000">3</text>
<line x1="70.99166164407148" y1="123.94143839170873" x2="80.41425063396956" y2="109.11028949310663" stroke="#000" stroke-width="0.3" />
<polygon points="70.99166164407148,123.94143839170873 80.41425063396956,109.11028949310663 72.12614382705421,109.04904112179793 67.41484933210516,116.46461557109897" fill="none" stroke="#666" stroke-width="0.2" />
<text x="77.22226164061033" y="117.49111561572349" font-size="3" text-anchor="middle" dominant-baseline="central" fill="#000">5</text>
<line x1="85.04459284123486" y1="138.7860842161" x2="80.41425063396956" y2="109.11028949310663" stroke="#000" stroke-width="0.3" stroke-dasharray="2 1.5" />
<line x1="80.41425063396956" y1="109.11028949310663" x2="100.3694135868669" y2="130.18968697856155" stroke="#000" stroke-width="0.3" stroke-dasharray="2 1.5" />
<line x1="100.3694135868669" y1="130.18968697856155" x2="85.04459284123486" y2="138.7860842161" stroke="#000" stroke-width="0.3" />
<polygon points="100.3694135868669,130.18968697856155 85.04459284123486,138.7860842161 92.31435692265823,142.7669132049682 99.97676729547426,138.46871458619898" fill="none" stroke="#666" stroke-width="0.2" />
<text x="91.82638679115213" y="132.91800830412566" font-size="3" text-anchor="middle" dominant-baseline="central" fill="#000">6</text>
<line x1="100.3694135868669" y1="130.18968697856155" x2="142.591543894151" y2="130.18968697856155" stroke="#000" stroke-width="0.3" stroke-dasharray="2 1.5" />
<line x1="142.591543894151" y1="130.18968697856155" x2="120.32457567940571" y2="151.26908355518708" stroke="#000" stroke-width="0.3" stroke-dasharray="2 1.5" />
<line x1="120.32457567940571" y1="151.26908355518708" x2="100.3694135868669" y2="130.18968697856155" stroke="#000" stroke-width="0.3" stroke-dasharray="2 1.5" />
<line x1="142.591543894151" y1="130.18968697856155" x2="100.3694135868669" y2="130.18968697856155" stroke="#000" stroke-width="0.3" stroke-dasharray="2 1.5" />
<line x1="100.3694135868669" y1="130.18968697856155" x2="122.63638180161217" y2="109.11029040193604" stroke="#000" stroke-width="0.3" stroke-dasharray="2 1.5" />
<line x1="122.63638180161217" y1="109.11029040193604" x2="142.591543894151" y2="130.18968697856155" stroke="#000" stroke-width="0.3" />
<polygon points="122.63638180161217,109.11029040193604 142.591543894151,130.18968697856155 146.03451200166649,116.93777299738964 136.0569309553971,106.39807470907688" fill="none" stroke="#666" stroke-width="0.2" />
<text x="131.30679011875048" y="120.88744554049288" font-size="3" text-anchor="middle" dominant-baseline="central" fill="#000">7</text>
<line x1="102.68121884871483" y1="88.03089291648111" x2="100.3694135868669" y2="130.18968697856155" stroke="#000" stroke-width="0.3" stroke-dasharray="2 1.5" />
<line x1="100.3694135868669" y1="130.18968697856155" x2="80.41425063396956" y2="109.11028949310663" stroke="#000" stroke-width="0.3" stroke-dasharray="2 1.5" />
<line x1="80.41425063396956" y1="109.11028949310663" x2="102.68121884871483" y2="88.03089291648111" stroke="#000" stroke-width="0.3" stroke-dasharray="2 1.5" />
<line x1="100.3694135868669" y1="130.18968697856155" x2="102.68121884871483" y2="88.03089291648111" stroke="#000" stroke-width="0.3" stroke-dasharray="2 1.5" />
<line x1="102.68121884871483" y1="88.03089291648111" x2="122.63638180161217" y2="109.11029040193604" stroke="#000" stroke-width="0.3" stroke-dasharray="2 1.5" />
<line x1="122.63638180161217" y1="109.11029040193604" x2="100.3694135868669" y2="130.18968697856155" stroke="#000" stroke-width="0.3" stroke-dasharray="2 1.5" />
<line x1="140.27973863230304" y1="172.34848104064199" x2="144.91008083956834" y2="202.02427576363536" stroke="#000" stroke-width="0.3" stroke-dasharray="2 1.5" />
<line x1="144.91008083956834" y1="202.02427576363536" x2="130.85714964240498" y2="187.17962993924408" stroke="#000" stroke-width="0.3" />
<text x="137.88361524098667" y="194.6019528514397" font-size="3" text-anchor="middle" dominant-baseline="central" fill="#000">2</text>
<line x1="130.85714964240498" y1="187.17962993924408" x2="140.27973863230304" y2="172.34848104064199" stroke="#000" stroke-width="0.3" />
<polygon points="130.85714964240498,187.17962993924408 140.27973863230304,172.34848104064199 131.99163182538769,172.28723266933326 127.28033733043866,179.70280711863433" fill="none" stroke="#666" stroke-width="0.2" />
<text x="137.0877496389438" y="180.72930716325882" font-size="3" text-anchor="middle" dominant-baseline="central" fill="#000">8</text>
<line x1="144.91008083956834" y1="202.02427576363536" x2="140.27973863230304" y2="172.34848104064199" stroke="#000" stroke-width="0.3" stroke-dasharray="2 1.5" />
<line x1="140.27973863230304" y1="172.34848104064199" x2="160.23490158520036" y2="193.42787852609692" stroke="#000" stroke-width="0.3" stroke-dasharray="2 1.5" />
<line x1="160.23490158520036" y1="193.42787852609692" x2="144.91008083956834" y2="202.02427576363536" stroke="#000" stroke-width="0.3" />
<polygon points="160.23490158520036,193.42787852609692 144.91008083956834,202.02427576363536 152.1798449209917,206.00510475250354 159.84225529380774,201.70690613373435" fill="none" stroke="#666" stroke-width="0.2" />
<text x="151.69187478948564" y="196.15619985166103" font-size="3" text-anchor="middle" dominant-baseline="central" fill="#000">9</text>
<line x1="142.591543894151" y1="130.18968697856155" x2="140.27973863230304" y2="172.34848104064199" stroke="#000" stroke-width="0.3" stroke-dasharray="2 1.5" />
<line x1="140.27973863230304" y1="172.34848104064199" x2="120.32457567940571" y2="151.26908355518708" stroke="#000" stroke-width="0.3" />
<polygon points="140.27973863230304,172.34848104064199 120.32457567940571,151.26908355518708 116.88160742344807,164.52099810770974 126.85918889989674,175.06069685043718" fill="none" stroke="#666" stroke-width="0.2" />
<text x="131.60932988498547" y="160.57132544767046" font-size="3" text-anchor="middle" dominant-baseline="central" fill="#000">10</text>
<line x1="120.32457567940571" y1="151.26908355518708" x2="142.591543894151" y2="130.18968697856155" stroke="#000" stroke-width="0.3" stroke-dasharray="2 1.5" />
<line x1="140.27973863230304" y1="172.34848104064199" x2="142.591543894151" y2="130.18968697856155" stroke="#000" stroke-width="0.3" stroke-dasharray="2 1.5" />
<line x1="142.591543894151" y1="130.18968697856155" x2="162.5467068470483" y2="151.2690844640165" stroke="#000" stroke-width="0.3" />
<polygon points="142.591543894151,130.18968697856155 162.5467068470483,151.2690844640165 165.98967510300596,138.0171699114938 156.0120936265573,127.47747116876636" fill="none" stroke="#666" stroke-width="0.2" />
<text x="151.26195264146855" y="141.9668425715331" font-size="3" text-anchor="middle" dominant-baseline="central" fill="#000">11</text>
<line x1="162.5467068470483" y1="151.2690844640165" x2="140.27973863230304" y2="172.34848104064199" stroke="#000" stroke-width="0.3" stroke-dasharray="2 1.5" />
<line x1="104.9997554804104" y1="159.86548176721618" x2="100.3694135868669" y2="130.18968697856155" stroke="#000" stroke-width="0.3" stroke-dasharray="2 1.5" />
<line x1="100.3694135868669" y1="130.18968697856155" x2="120.32457567940571" y2="151.26908355518708" stroke="#000" stroke-width="0.3" stroke-dasharray="2 1.5" />
<line x1="120.32457567940571" y1="151.26908355518708" x2="104.9997554804104" y2="159.86548176721618" stroke="#000" stroke-width="0.3" />
<polygon points="120.32457567940571,151.26908355518708 104.9997554804104,159.86548176721618 112.26951981497088,163.84631029380705 119.93192991446853,159.54811118779247" fill="none" stroke="#666" stroke-width="0.2" />
<text x="111.78154905718232" y="153.99740542399408" font-size="3" text-anchor="middle" dominant-baseline="central" fill="#000">12</text>
<line x1="100.3694135868669" y1="130.18968697856155" x2="104.9997554804104" y2="159.86548176721618" stroke="#000" stroke-width="0.3" stroke-dasharray="2 1.5" />
<line x1="104.9997554804104" y1="159.86548176721618" x2="90.94682442932672" y2="145.02083629071936" stroke="#000" stroke-width="0.3" />
<text x="97.97328995486856" y="152.44315902896778" font-size="3" text-anchor="middle" dominant-baseline="central" fill="#000">4</text>
<line x1="90.94682442932672" y1="145.02083629071936" x2="100.3694135868669" y2="130.18968697856155" stroke="#000" stroke-width="0.3" />
<text x="95.6581190080968" y="137.60526163464044" font-size="3" text-anchor="middle" dominant-baseline="central" fill="#000">6</text>
<line x1="202.45703189248448" y1="193.42787852609695" x2="160.23490158520036" y2="193.42787852609692" stroke="#000" stroke-width="0.3" stroke-dasharray="2 1.5" />
<line x1="160.23490158520036" y1="193.42787852609692" x2="182.50186979994564" y2="172.3484819494714" stroke="#000" stroke-width="0.3" stroke-dasharray="2 1.5" />
<line x1="182.50186979994564" y1="172.3484819494714" x2="202.45703189248448" y2="193.42787852609695" stroke="#000" stroke-width="0.3" />
<polygon points="182.50186979994564,172.3484819494714 202.45703189248448,193.42787852609695 205.9,180.17596454492502 195.92241895373058,169.63626625661226" fill="none" stroke="#666" stroke-width="0.2" />
<text x="191.17227811708398" y="184.12563708802827" font-size="3" text-anchor="middle" dominant-baseline="central" fill="#000">13</text>
<line x1="160.23490158520036" y1="193.42787852609692" x2="202.45703189248448" y2="193.42787852609695" stroke="#000" stroke-width="0.3" stroke-dasharray="2 1.5" />
<line x1="202.45703189248448" y1="193.42787852609695" x2="180.1900636777392" y2="214.50727510272245" stroke="#000" stroke-width="0.3" />
<polygon points="202.45703189248448,193.42787852609695 180.1900636777392,214.50727510272245 194.1885643620757,218.1442132444642 205.32204846944836,207.60451495615143" fill="none" stroke="#666" stroke-width="0.2" />
<text x="190.08609093486774" y="202.66040408527863" font-size="3" text-anchor="middle" dominant-baseline="central" fill="#000">14</text>
<line x1="180.1900636777392" y1="214.50727510272245" x2="160.23490158520036" y2="193.42787852609692" stroke="#000" stroke-width="0.3" stroke-dasharray="2 1.5" />
<line x1="82.72605589581752" y1="66.95149543102619" x2="80.41425063396956" y2="109.11028949310663" stroke="#000" stroke-width="0.3" stroke-dasharray="2 1.5" />
<line x1="80.41425063396956" y1="109.11028949310663" x2="60.45908768107223" y2="88.0308920076517" stroke="#000" stroke-width="0.3" stroke-dasharray="2 1.5" />
<line x1="60.45908768107223" y1="88.0308920076517" x2="82.72605589581752" y2="66.95149543102619" stroke="#000" stroke-width="0.3" />
<text x="71.59257178844487" y="77.49119371933895" font-size="3" text-anchor="middle" dominant-baseline="central" fill="#000">14</text>
<line x1="80.41425063396956" y1="109.11028949310663" x2="82.72605589581752" y2="66.95149543102619" stroke="#000" stroke-width="0.3" stroke-dasharray="2 1.5" />
<line x1="82.72605589581752" y1="66.95149543102619" x2="102.68121884871483" y2="88.03089291648111" stroke="#000" stroke-width="0.3" />
<polygon points="82.72605589581752,66.95149543102619 102.68121884871483,88.03089291648111 106.12418710467247,74.77897836395844 96.14660562822381,64.23927962123099" fill="none" stroke="#666" stroke-width="0.2" />
<text x="91.39646464313509" y="78.72865102399774" font-size="3" text-anchor="middle" dominant-baseline="central" fill="#000">15</text>
<line x1="102.68121884871483" y1="88.03089291648111" x2="80.41425063396956" y2="109.11028949310663" stroke="#000" stroke-width="0.3" stroke-dasharray="2 1.5" />
<line x1="128.08406350022898" y1="45.59789367938103" x2="95.24832963200984" y2="59.97199620405351" stroke="#000" stroke-width="0.3" stroke-dasharray="2 1.5" />
<line x1="95.24832963200984" y1="59.97199620405351" x2="102.15080052804355" y2="31.777930344309947" stroke="#000" stroke-width="0.3" />
<text x="98.6995650800267" y="45.87496327418173" font-size="3" text-anchor="middle" dominant-baseline="central" fill="#000">13</text>
<line x1="102.15080052804355" y1="31.777930344309947" x2="128.08406350022898" y2="45.59789367938103" stroke="#000" stroke-width="0.3" stroke-dasharray="2 1.5" />
<line x1="95.24832963200984" y1="59.97199620405351" x2="128.08406350022898" y2="45.59789367938103" stroke="#000" stroke-width="0.3" stroke-dasharray="2 1.5" />
<line x1="128.08406350022898" y1="45.59789367938103" x2="124.6328280522121" y2="59.694926609252825" stroke="#000" stroke-width="0.3" stroke-dasharray="2 1.5" />
<line x1="124.6328280522121" y1="59.694926609252825" x2="95.24832963200984" y2="59.97199620405351" stroke="#000" stroke-width="0.3" stroke-dasharray="2 1.5" />
<line x1="124.6328280522121" y1="59.694926609252825" x2="102.68121884871483" y2="88.03089291648111" stroke="#000" stroke-width="0.3" stroke-dasharray="2 1.5" />
<line x1="102.68121884871483" y1="88.03089291648111" x2="95.24832963200984" y2="59.97199620405351" stroke="#000" stroke-width="0.3" />
<text x="98.96477424036235" y="74.00144456026732" font-size="3" text-anchor="middle" dominant-baseline="central" fill="#000">15</text>
<line x1="95.24832963200984" y1="59.97199620405351" x2="124.6328280522121" y2="59.694926609252825" stroke="#000" stroke-width="0.3" stroke-dasharray="2 1.5" />
<line x1="102.68121884871483" y1="88.03089291648111" x2="124.6328280522121" y2="59.694926609252825" stroke="#000" stroke-width="0.3" stroke-dasharray="2 1.5" />
<line x1="124.6328280522121" y1="59.694926609252825" x2="128.34927171839865" y2="73.72437327507885" stroke="#000" stroke-width="0.3" />
<polygon points="124.6328280522121,59.694926609252825 128.34927171839865,73.72437327507885 133.0319394681824,68.73043414214773 131.17371763508913,61.71571080923472" fill="none" stroke="#666" stroke-width="0.2" />
<text x="124.75106538445671" y="67.1705771997742" font-size="3" text-anchor="middle" dominant-baseline="central" fill="#000">16</text>
<line x1="128.34927171839865" y1="73.72437327507885" x2="102.68121884871483" y2="88.03089291648111" stroke="#000" stroke-width="0.3" stroke-dasharray="2 1.5" />
<line x1="180.1900636777392" y1="214.50727510272245" x2="150.81231242766017" y2="208.25902783825472" stroke="#000" stroke-width="0.3" stroke-dasharray="2 1.5" />
<line x1="150.81231242766017" y1="208.25902783825472" x2="160.23490158520036" y2="193.42787852609692" stroke="#000" stroke-width="0.3" />
<text x="155.52360700643027" y="200.84345318217584" font-size="3" text-anchor="middle" dominant-baseline="central" fill="#000">9</text>
<line x1="160.23490158520036" y1="193.42787852609692" x2="180.1900636777392" y2="214.50727510272245" stroke="#000" stroke-width="0.3" stroke-dasharray="2 1.5" />
<line x1="150.81231242766017" y1="208.25902783825472" x2="180.1900636777392" y2="214.50727510272245" stroke="#000" stroke-width="0.3" stroke-dasharray="2 1.5" />
<line x1="180.1900636777392" y1="214.50727510272245" x2="164.86524347874388" y2="223.10367331475157" stroke="#000" stroke-width="0.3" />
<polygon points="180.1900636777392,214.50727510272245 164.86524347874388,223.10367331475157 172.13500781330436,227.08450184134244 179.797417912802,222.78630273532787" fill="none" stroke="#666" stroke-width="0.2" />
<text x="171.64703705551582" y="217.23559697152942" font-size="3" text-anchor="middle" dominant-baseline="central" fill="#000">17</text>
<line x1="164.86524347874388" y1="223.10367331475157" x2="150.81231242766017" y2="208.25902783825472" stroke="#000" stroke-width="0.3" />
<text x="157.83877795320203" y="215.68135057650315" font-size="3" text-anchor="middle" dominant-baseline="central" fill="#000">1</text>
<line x1="29.95516295289735" y1="156.87822886779895" x2="25.324819776880997" y2="127.20243331506195" stroke="#000" stroke-width="0.3" stroke-dasharray="2 1.5" />
<line x1="25.324819776880997" y1="127.20243331506195" x2="39.37775116733888" y2="142.04707895646774" stroke="#000" stroke-width="0.3" stroke-dasharray="2 1.5" />
<line x1="39.37775116733888" y1="142.04707895646774" x2="29.95516295289735" y2="156.87822886779895" stroke="#000" stroke-width="0.3" />
<text x="34.66645706011811" y="149.46265391213336" font-size="3" text-anchor="middle" dominant-baseline="central" fill="#000">12</text>
<line x1="25.324819776880997" y1="127.20243331506195" x2="29.95516295289735" y2="156.87822886779895" stroke="#000" stroke-width="0.3" stroke-dasharray="2 1.5" />
<line x1="29.95516295289735" y1="156.87822886779895" x2="10" y2="135.79883138234405" stroke="#000" stroke-width="0.3" />
<text x="19.977581476448677" y="146.3385301250715" font-size="3" text-anchor="middle" dominant-baseline="central" fill="#000">10</text>
<line x1="10" y1="135.79883138234405" x2="25.324819776880997" y2="127.20243331506195" stroke="#000" stroke-width="0.3" />
<text x="17.6624098884405" y="131.500632348703" font-size="3" text-anchor="middle" dominant-baseline="central" fill="#000">8</text>
<line x1="142.01806845802355" y1="41.53823444376157" x2="124.6328280522121" y2="59.69492660925281" stroke="#000" stroke-width="0.3" stroke-dasharray="2 1.5" />
<line x1="124.6328280522121" y1="59.69492660925281" x2="128.08406350022898" y2="45.59789367938103" stroke="#000" stroke-width="0.3" stroke-dasharray="2 1.5" />
<line x1="128.08406350022898" y1="45.59789367938103" x2="142.01806845802355" y2="41.53823444376157" stroke="#000" stroke-width="0.3" />
<polygon points="128.08406350022898,45.59789367938103 142.01806845802355,41.53823444376157 136.91070352432715,36.97954726954859 129.94370104542983,39.00937688735833" fill="none" stroke="#666" stroke-width="0.2" />
<text x="135.55456011663287" y="45.296211524462265" font-size="3" text-anchor="middle" dominant-baseline="central" fill="#000">18</text>
<line x1="124.6328280522121" y1="59.69492660925281" x2="142.01806845802355" y2="41.53823444376157" stroke="#000" stroke-width="0.3" stroke-dasharray="2 1.5" />
<line x1="142.01806845802355" y1="41.53823444376157" x2="135.1155975619899" y2="69.73230030350516" stroke="#000" stroke-width="0.3" stroke-dasharray="2 1.5" />
<line x1="135.1155975619899" y1="69.73230030350516" x2="124.6328280522121" y2="59.69492660925281" stroke="#000" stroke-width="0.3" />
<text x="129.874212807101" y="64.71361345637898" font-size="3" text-anchor="middle" dominant-baseline="central" fill="#000">16</text>
<line x1="135.1155975619899" y1="69.73230030350516" x2="142.01806845802355" y2="41.53823444376157" stroke="#000" stroke-width="0.3" stroke-dasharray="2 1.5" />
<line x1="142.01806845802355" y1="41.53823444376157" x2="152.5008379678013" y2="51.575608138013905" stroke="#000" stroke-width="0.3" />
<polygon points="142.01806845802355,41.53823444376157 152.5008379678013,51.575608138013905 153.89509506805783,44.87315691053973 148.65371031316892,39.85447006341356" fill="none" stroke="#666" stroke-width="0.2" />
<text x="146.01458054806474" y="47.85703361231039" font-size="3" text-anchor="middle" dominant-baseline="central" fill="#000">19</text>
<line x1="152.5008379678013" y1="51.575608138013905" x2="135.1155975619899" y2="69.73230030350516" stroke="#000" stroke-width="0.3" stroke-dasharray="2 1.5" />
<line x1="135.1155975619899" y1="69.73230030350516" x2="152.5008379678013" y2="51.575608138013905" stroke="#000" stroke-width="0.3" stroke-dasharray="2 1.5" />
<line x1="152.5008379678013" y1="51.575608138013905" x2="149.04960251978446" y2="65.67264106788568" stroke="#000" stroke-width="0.3" />
<polygon points="152.5008379678013,51.575608138013905 149.04960251978446,65.67264106788568 155.5512245537374,63.52887701462448 157.2768422777458,56.48036054968859" fill="none" stroke="#666" stroke-width="0.2" />
<text x="149.02685359196713" y="58.196089498333876" font-size="3" text-anchor="middle" dominant-baseline="central" fill="#000">20</text>
<line x1="149.04960251978446" y1="65.67264106788568" x2="135.1155975619899" y2="69.73230030350516" stroke="#000" stroke-width="0.3" />
<polygon points="149.04960251978446,65.67264106788568 135.1155975619899,69.73230030350516 140.2229624956863,74.29098747771812 147.18996497458357,72.2611578599084" fill="none" stroke="#666" stroke-width="0.2" />
<text x="141.57910590338057" y="65.97432322280446" font-size="3" text-anchor="middle" dominant-baseline="central" fill="#000">21</text>
<line x1="162.5467068470483" y1="151.2690844640165" x2="160.23490158520036" y2="193.42787852609692" stroke="#000" stroke-width="0.3" stroke-dasharray="2 1.5" />
<line x1="160.23490158520036" y1="193.42787852609692" x2="140.27973863230304" y2="172.34848104064199" stroke="#000" stroke-width="0.3" stroke-dasharray="2 1.5" />
<line x1="140.27973863230304" y1="172.34848104064199" x2="162.5467068470483" y2="151.2690844640165" stroke="#000" stroke-width="0.3" stroke-dasharray="2 1.5" />
<line x1="160.23490158520036" y1="193.42787852609692" x2="162.5467068470483" y2="151.2690844640165" stroke="#000" stroke-width="0.3" stroke-dasharray="2 1.5" />
<line x1="162.5467068470483" y1="151.2690844640165" x2="182.50186979994564" y2="172.3484819494714" stroke="#000" stroke-width="0.3" />
<polygon points="162.5467068470483,151.2690844640165 182.50186979994564,172.3484819494714 185.9448380559033,159.09656739694876 175.9672565794546,148.5568686542213" fill="none" stroke="#666" stroke-width="0.2" />
<text x="171.2171155943659" y="163.04624005698804" font-size="3" text-anchor="middle" dominant-baseline="central" fill="#000">22</text>
<line x1="182.50186979994564" y1="172.3484819494714" x2="160.23490158520036" y2="193.42787852609692" stroke="#000" stroke-width="0.3" stroke-dasharray="2 1.5" />
<line x1="128.3492717183986" y1="73.72437327507888" x2="122.63638180161217" y2="109.11029040193604" stroke="#000" stroke-width="0.3" stroke-dasharray="2 1.5" />
<line x1="122.63638180161217" y1="109.11029040193604" x2="102.68121884871483" y2="88.03089291648111" stroke="#000" stroke-width="0.3" stroke-dasharray="2 1.5" />
<line x1="102.68121884871483" y1="88.03089291648111" x2="128.3492717183986" y2="73.72437327507888" stroke="#000" stroke-width="0.3" stroke-dasharray="2 1.5" />
<line x1="122.63638180161217" y1="109.11029040193604" x2="128.3492717183986" y2="73.72437327507888" stroke="#000" stroke-width="0.3" stroke-dasharray="2 1.5" />
<line x1="128.3492717183986" y1="73.72437327507888" x2="138.32685225268133" y2="84.26407032741854" stroke="#000" stroke-width="0.3" />
<text x="133.33806198553998" y="78.9942218012487" font-size="3" text-anchor="middle" dominant-baseline="central" fill="#000">21</text>
<line x1="138.32685225268133" y1="84.26407032741854" x2="122.63638180161217" y2="109.11029040193604" stroke="#000" stroke-width="0.3" stroke-dasharray="2 1.5" />
<line x1="122.63638180161217" y1="109.11029040193604" x2="152.1317669105839" y2="88.74309866306947" stroke="#000" stroke-width="0.3" stroke-dasharray="2 1.5" />
<line x1="152.1317669105839" y1="88.74309866306947" x2="150.24621111741732" y2="118.06834707323794" stroke="#000" stroke-width="0.3" stroke-dasharray="2 1.5" />
<line x1="150.24621111741732" y1="118.06834707323794" x2="122.63638180161217" y2="109.11029040193604" stroke="#000" stroke-width="0.3" />
<text x="136.44129645951475" y="113.58931873758699" font-size="3" text-anchor="middle" dominant-baseline="central" fill="#000">7</text>
<line x1="152.1317669105839" y1="88.74309866306947" x2="122.63638180161217" y2="109.11029040193604" stroke="#000" stroke-width="0.3" stroke-dasharray="2 1.5" />
<line x1="122.63638180161217" y1="109.11029040193604" x2="138.32685225268133" y2="84.26407032741854" stroke="#000" stroke-width="0.3" stroke-dasharray="2 1.5" />
<line x1="138.32685225268133" y1="84.26407032741854" x2="152.1317669105839" y2="88.74309866306947" stroke="#000" stroke-width="0.3" />
<text x="145.2293095816326" y="86.50358449524401" font-size="3" text-anchor="middle" dominant-baseline="central" fill="#000">20</text>
<line x1="137.8611271134223" y1="34.871927318406094" x2="102.15080052804355" y2="31.777930344309947" stroke="#000" stroke-width="0.3" stroke-dasharray="2 1.5" />
<line x1="102.15080052804355" y1="31.777930344309947" x2="121.70493098740968" y2="10.325995494404687" stroke="#000" stroke-width="0.3" />
<text x="111.92786575772661" y="21.051962919357315" font-size="3" text-anchor="middle" dominant-baseline="central" fill="#000">22</text>
<line x1="121.70493098740968" y1="10.325995494404687" x2="137.8611271134223" y2="34.871927318406094" stroke="#000" stroke-width="0.3" />
<polygon points="121.70493098740968,10.325995494404687 137.8611271134223,34.871927318406094 143.64045081151968,22.272965912000693 135.56235274851338,10" fill="none" stroke="#666" stroke-width="0.2" />
<text x="128.27949087388302" y="23.588594142175538" font-size="3" text-anchor="middle" dominant-baseline="central" fill="#000">23</text>
<line x1="102.15080052804355" y1="31.777930344309947" x2="137.8611271134223" y2="34.871927318406094" stroke="#000" stroke-width="0.3" stroke-dasharray="2 1.5" />
<line x1="137.8611271134223" y1="34.871927318406094" x2="128.08406350022898" y2="45.59789367938103" stroke="#000" stroke-width="0.3" />
<text x="132.97259530682564" y="40.23491049889356" font-size="3" text-anchor="middle" dominant-baseline="central" fill="#000">18</text>
<line x1="128.08406350022898" y1="45.59789367938103" x2="102.15080052804355" y2="31.777930344309947" stroke="#000" stroke-width="0.3" stroke-dasharray="2 1.5" />
<line x1="152.13176691058393" y1="88.74309866306947" x2="178.7759178360283" y2="112.71994905359378" stroke="#000" stroke-width="0.3" stroke-dasharray="2 1.5" />
<line x1="178.7759178360283" y1="112.71994905359378" x2="150.24621111741732" y2="118.06834707323794" stroke="#000" stroke-width="0.3" />
<text x="164.51106447672282" y="115.39414806341586" font-size="3" text-anchor="middle" dominant-baseline="central" fill="#000">11</text>
<line x1="150.24621111741732" y1="118.06834707323794" x2="152.13176691058393" y2="88.74309866306947" stroke="#000" stroke-width="0.3" stroke-dasharray="2 1.5" />
<line x1="178.7759178360283" y1="112.71994905359378" x2="152.13176691058393" y2="88.74309866306947" stroke="#000" stroke-width="0.3" stroke-dasharray="2 1.5" />
<line x1="152.13176691058393" y1="88.74309866306947" x2="166.39661851476578" y2="86.06890046849493" stroke="#000" stroke-width="0.3" />
<text x="159.26419271267486" y="87.4059995657822" font-size="3" text-anchor="middle" dominant-baseline="central" fill="#000">19</text>
<line x1="166.39661851476578" y1="86.06890046849493" x2="178.7759178360283" y2="112.71994905359378" stroke="#000" stroke-width="0.3" />
<text x="172.58626817539704" y="99.39442476104435" font-size="3" text-anchor="middle" dominant-baseline="central" fill="#000">23</text>
<line x1="60.45908768107223" y1="88.0308920076517" x2="65.08943085708856" y2="117.70668756038873" stroke="#000" stroke-width="0.3" stroke-dasharray="2 1.5" />
<line x1="65.08943085708856" y1="117.70668756038873" x2="51.036499466630694" y2="102.86204191898291" stroke="#000" stroke-width="0.3" stroke-dasharray="2 1.5" />
<line x1="51.036499466630694" y1="102.86204191898291" x2="60.45908768107223" y2="88.0308920076517" stroke="#000" stroke-width="0.3" />
<text x="55.74779357385147" y="95.4464669633173" font-size="3" text-anchor="middle" dominant-baseline="central" fill="#000">17</text>
<line x1="65.08943085708856" y1="117.70668756038873" x2="60.45908768107223" y2="88.0308920076517" stroke="#000" stroke-width="0.3" stroke-dasharray="2 1.5" />
<line x1="60.45908768107223" y1="88.0308920076517" x2="80.41425063396956" y2="109.11028949310663" stroke="#000" stroke-width="0.3" stroke-dasharray="2 1.5" />
<line x1="80.41425063396956" y1="109.11028949310663" x2="65.08943085708856" y2="117.70668756038873" stroke="#000" stroke-width="0.3" />
<text x="72.75184074552905" y="113.40848852674767" font-size="3" text-anchor="middle" dominant-baseline="central" fill="#000">5</text>
</svg>