<svg xmlns="http://www.w3.org/2000/svg" width="215.9mm" height="279.4mm" viewBox="0 0 215.9 279.4">
<rect x="0" y="0" width="215.9" height="279.4" fill="none" stroke="#ccc" stroke-width="0.15" />
<line x1="129.25905521379502" y1="86.48768671496308" x2="133.92836632249595" y2="100.30209579295287" stroke="#000" stroke-width="0.3" stroke-dasharray="2 1.5" />
<line x1="133.92836632249595" y1="100.30209579295287" x2="133.60173000531762" y2="100.5045805933494" stroke="#000" stroke-width="0.3" />
<polygon points="133.92836632249595,100.30209579295287 133.60173000531762,100.5045805933494 133.76438300477082,100.58461392012158 133.92770116335998,100.48337151992331" fill="none" stroke="#666" stroke-width="0.2" />
<text x="132.81665729934716" y="98.87345101821965" font-size="3" text-anchor="middle" dominant-baseline="central" fill="#000">7</text>
<line x1="133.60173000531762" y1="100.5045805933494" x2="129.25905521379502" y2="86.48768671496308" stroke="#000" stroke-width="0.3" stroke-dasharray="2 1.5" />
<line x1="129.25905521379502" y1="86.48768671496308" x2="133.60173000531762" y2="100.5045805933494" stroke="#000" stroke-width="0.3" stroke-dasharray="2 1.5" />
<line x1="133.60173000531762" y1="100.5045805933494" x2="128.92206335111922" y2="86.50828311925564" stroke="#000" stroke-width="0.3" stroke-dasharray="2 1.5" />
<line x1="128.92206335111922" y1="86.50828311925564" x2="129.25905521379502" y2="86.48768671496308" stroke="#000" stroke-width="0.3" />
<polygon points="128.92206335111922,86.50828311925564 129.25905521379502,86.48768671496308 129.16656868640905,86.3580390709659 128.99807275507112,86.36833727311218" fill="none" stroke="#666" stroke-width="0.2" />
<text x="129.20036750601182" y="88.29463239339394" font-size="3" text-anchor="middle" dominant-baseline="central" fill="#000">10</text>
<line x1="65.71287078432513" y1="79.3325493143511" x2="50.37809073427848" y2="90.33665806180466" stroke="#000" stroke-width="0.3" stroke-dasharray="2 1.5" />
<line x1="50.37809073427848" y1="90.33665806180466" x2="60.238142564977835" y2="75.79544894317505" stroke="#000" stroke-width="0.3" stroke-dasharray="2 1.5" />
<line x1="60.238142564977835" y1="75.79544894317505" x2="65.71287078432513" y2="79.3325493143511" stroke="#000" stroke-width="0.3" />
<text x="62.975506674651484" y="77.56399912876307" font-size="3" text-anchor="middle" dominant-baseline="central" fill="#000">3</text>
<line x1="128.92206335111922" y1="86.50828311925564" x2="133.60173000531762" y2="100.5045805933494" stroke="#000" stroke-width="0.3" stroke-dasharray="2 1.5" />
<line x1="133.60173000531762" y1="100.5045805933494" x2="126.4054391836044" y2="102.72159696781223" stroke="#000" stroke-width="0.3" />
<polygon points="133.60173000531762,100.5045805933494 126.4054391836044,102.72159696781223 129.09131843881784,105.04585920288181 132.68946384967444,103.9373510156504" fill="none" stroke="#666" stroke-width="0.2" />
<text x="129.47362455483503" y="99.89287299283801" font-size="3" text-anchor="middle" dominant-baseline="central" fill="#000">26</text>
<line x1="126.4054391836044" y1="102.72159696781223" x2="128.92206335111922" y2="86.50828311925564" stroke="#000" stroke-width="0.3" stroke-dasharray="2 1.5" />
<line x1="24.763406052447777" y1="15.631047418286983" x2="24.8689621002765" y2="15.951742987552146" stroke="#000" stroke-width="0.3" />
<polygon points="24.763406052447777,15.631047418286983 24.8689621002765,15.951742987552146 24.970851316025374,15.829346676104366 24.918073292111025,15.66899889147178" fill="none" stroke="#666" stroke-width="0.2" />
<text x="23.10641909687328" y="16.354159554059056" font-size="3" text-anchor="middle" dominant-baseline="central" fill="#000">106</text>
<line x1="24.8689621002765" y1="15.951742987552146" x2="10.201789583451156" y2="16.40544409553364" stroke="#000" stroke-width="0.3" stroke-dasharray="2 1.5" />
<line x1="10.201789583451156" y1="16.40544409553364" x2="24.763406052447777" y2="15.631047418286983" stroke="#000" stroke-width="0.3" />
<polygon points="10.201789583451156,16.40544409553364 24.763406052447777,15.631047418286983 20.813243264299953,10 13.53243502980164,10.387198338623321" fill="none" stroke="#666" stroke-width="0.2" />
<text x="17.578187965511482" y="17.81570577696335" font-size="3" text-anchor="middle" dominant-baseline="central" fill="#000">163</text>
<line x1="137.0564406207956" y1="85.68382950839144" x2="133.92836632249595" y2="100.30209579295287" stroke="#000" stroke-width="0.3" stroke-dasharray="2 1.5" />
<line x1="133.92836632249595" y1="100.30209579295287" x2="129.25905521379502" y2="86.48768671496308" stroke="#000" stroke-width="0.3" stroke-dasharray="2 1.5" />
<line x1="129.25905521379502" y1="86.48768671496308" x2="137.0564406207956" y2="85.68382950839144" stroke="#000" stroke-width="0.3" />
<text x="133.1577479172953" y="86.08575811167725" font-size="3" text-anchor="middle" dominant-baseline="central" fill="#000">74</text>
<line x1="137.0564406207956" y1="85.68382950839144" x2="141.17699703241874" y2="95.38648210775187" stroke="#000" stroke-width="0.3" />
<polygon points="137.0564406207956,85.68382950839144 141.17699703241874,95.38648210775187 144.0279189692571,91.31259639326251 141.96764076344553,86.46127009358231" fill="none" stroke="#666" stroke-width="0.2" />
<text x="137.45993446672563" y="91.23876477962618" font-size="3" text-anchor="middle" dominant-baseline="central" fill="#000">127</text>
<line x1="141.17699703241874" y1="95.38648210775187" x2="133.92836632249595" y2="100.30209579295287" stroke="#000" stroke-width="0.3" />
<polygon points="141.17699703241874,95.38648210775187 133.92836632249595,100.30209579295287 137.706769474057,101.97264465562174 141.3310848290184,99.51483781302123" fill="none" stroke="#666" stroke-width="0.2" />
<text x="136.54241541423676" y="96.35453659596647" font-size="3" text-anchor="middle" dominant-baseline="central" fill="#000">128</text>
<line x1="133.92836632249595" y1="100.30209579295287" x2="137.0564406207956" y2="85.68382950839144" stroke="#000" stroke-width="0.3" stroke-dasharray="2 1.5" />
<line x1="60.238142564977835" y1="75.79544894317505" x2="50.37809073427848" y2="90.33665806180466" stroke="#000" stroke-width="0.3" stroke-dasharray="2 1.5" />
<line x1="50.37809073427848" y1="90.33665806180466" x2="44.04442493900726" y2="85.48324652618888" stroke="#000" stroke-width="0.3" />
<text x="47.21125783664287" y="87.90995229399677" font-size="3" text-anchor="middle" dominant-baseline="central" fill="#000">77</text>
<line x1="44.04442493900726" y1="85.48324652618888" x2="60.238142564977835" y2="75.79544894317505" stroke="#000" stroke-width="0.3" stroke-dasharray="2 1.5" />
<line x1="24.8689621002765" y1="15.951742987552146" x2="10.13453742940624" y2="16.78382026532732" stroke="#000" stroke-width="0.3" stroke-dasharray="2 1.5" />
<line x1="10.13453742940624" y1="16.78382026532732" x2="10.201789583451156" y2="16.40544409553364" stroke="#000" stroke-width="0.3" />
<polygon points="10.13453742940624,16.78382026532732 10.201789583451156,16.40544409553364 10.033626077022458,16.473137276364092 10,16.662325361260933" fill="none" stroke="#666" stroke-width="0.2" />
<text x="11.94038790103306" y="16.909625347291616" font-size="3" text-anchor="middle" dominant-baseline="central" fill="#000">138</text>
<line x1="10.201789583451156" y1="16.40544409553364" x2="24.8689621002765" y2="15.951742987552146" stroke="#000" stroke-width="0.3" stroke-dasharray="2 1.5" />
<line x1="24.8689621002765" y1="15.951742987552146" x2="25.60148456992124" y2="22.246563435630264" stroke="#000" stroke-width="0.3" />
<text x="25.235223335098873" y="19.099153211591204" font-size="3" text-anchor="middle" dominant-baseline="central" fill="#000">148</text>
<line x1="25.60148456992124" y1="22.246563435630264" x2="10.13453742940624" y2="16.78382026532732" stroke="#000" stroke-width="0.3" stroke-dasharray="2 1.5" />
<line x1="10.13453742940624" y1="16.78382026532732" x2="24.8689621002765" y2="15.951742987552146" stroke="#000" stroke-width="0.3" stroke-dasharray="2 1.5" />
<line x1="65.71287078432513" y1="79.3325493143511" x2="57.230764742595" y2="94.42466306131108" stroke="#000" stroke-width="0.3" stroke-dasharray="2 1.5" />
<line x1="57.230764742595" y1="94.42466306131108" x2="50.37809073427848" y2="90.33665806180466" stroke="#000" stroke-width="0.3" />
<text x="53.80442773843674" y="92.38066056155787" font-size="3" text-anchor="middle" dominant-baseline="central" fill="#000">13</text>
<line x1="50.37809073427848" y1="90.33665806180466" x2="65.71287078432513" y2="79.3325493143511" stroke="#000" stroke-width="0.3" stroke-dasharray="2 1.5" />
<line x1="71.47413649770803" y1="82.40366562558394" x2="57.230764742595" y2="94.42466306131108" stroke="#000" stroke-width="0.3" stroke-dasharray="2 1.5" />
<line x1="57.230764742595" y1="94.42466306131108" x2="65.71287078432513" y2="79.3325493143511" stroke="#000" stroke-width="0.3" stroke-dasharray="2 1.5" />
<line x1="65.71287078432513" y1="79.3325493143511" x2="71.47413649770803" y2="82.40366562558394" stroke="#000" stroke-width="0.3" />
<text x="68.59350364101658" y="80.86810746996753" font-size="3" text-anchor="middle" dominant-baseline="central" fill="#000">35</text>
<line x1="96.56520343653413" y1="89.61625504368719" x2="95.07887807613854" y2="105.57676212220046" stroke="#000" stroke-width="0.3" stroke-dasharray="2 1.5" />
<line x1="95.07887807613854" y1="105.57676212220046" x2="87.20890153035351" y2="104.63892939862245" stroke="#000" stroke-width="0.3" />
<text x="91.14388980324603" y="105.10784576041146" font-size="3" text-anchor="middle" dominant-baseline="central" fill="#000">20</text>
<line x1="87.20890153035351" y1="104.63892939862245" x2="96.56520343653413" y2="89.61625504368719" stroke="#000" stroke-width="0.3" stroke-dasharray="2 1.5" />
<line x1="103.1313318341887" y1="90.07939347912838" x2="95.07887807613854" y2="105.57676212220046" stroke="#000" stroke-width="0.3" stroke-dasharray="2 1.5" />
<line x1="95.07887807613854" y1="105.57676212220046" x2="96.56520343653413" y2="89.61625504368719" stroke="#000" stroke-width="0.3" stroke-dasharray="2 1.5" />
<line x1="96.56520343653413" y1="89.61625504368719" x2="103.1313318341887" y2="90.07939347912838" stroke="#000" stroke-width="0.3" />
<text x="99.84826763536142" y="89.8478242614078" font-size="3" text-anchor="middle" dominant-baseline="central" fill="#000">49</text>
<line x1="96.56520343653413" y1="89.61625504368719" x2="87.20890153035351" y2="104.63892939862245" stroke="#000" stroke-width="0.3" stroke-dasharray="2 1.5" />
<line x1="87.20890153035351" y1="104.63892939862245" x2="90.07156970003186" y2="88.60637133063729" stroke="#000" stroke-width="0.3" stroke-dasharray="2 1.5" />
<line x1="90.07156970003186" y1="88.60637133063729" x2="96.56520343653413" y2="89.61625504368719" stroke="#000" stroke-width="0.3" />
<text x="93.31838656828299" y="89.11131318716224" font-size="3" text-anchor="middle" dominant-baseline="central" fill="#000">21</text>
<line x1="90.07156970003186" y1="88.60637133063729" x2="87.20890153035351" y2="104.63892939862245" stroke="#000" stroke-width="0.3" stroke-dasharray="2 1.5" />
<line x1="87.20890153035351" y1="104.63892939862245" x2="79.43459925961112" y2="103.04306140854563" stroke="#000" stroke-width="0.3" />
<text x="83.32175039498232" y="103.84099540358403" font-size="3" text-anchor="middle" dominant-baseline="central" fill="#000">19</text>
<line x1="79.43459925961112" y1="103.04306140854563" x2="90.07156970003186" y2="88.60637133063729" stroke="#000" stroke-width="0.3" stroke-dasharray="2 1.5" />
<line x1="109.72391995410158" y1="89.99072582129419" x2="110.88359911641416" y2="105.46375087448963" stroke="#000" stroke-width="0.3" stroke-dasharray="2 1.5" />
<line x1="110.88359911641416" y1="105.46375087448963" x2="102.9889895295092" y2="105.85174402683633" stroke="#000" stroke-width="0.3" />
<text x="106.93629432296169" y="105.65774745066298" font-size="3" text-anchor="middle" dominant-baseline="central" fill="#000">25</text>
<line x1="102.9889895295092" y1="105.85174402683633" x2="109.72391995410158" y2="89.99072582129419" stroke="#000" stroke-width="0.3" stroke-dasharray="2 1.5" />
<line x1="116.29661171904182" y1="89.34908912091122" x2="110.88359911641416" y2="105.46375087448963" stroke="#000" stroke-width="0.3" stroke-dasharray="2 1.5" />
<line x1="110.88359911641416" y1="105.46375087448963" x2="109.72391995410158" y2="89.99072582129419" stroke="#000" stroke-width="0.3" stroke-dasharray="2 1.5" />
<line x1="109.72391995410158" y1="89.99072582129419" x2="116.29661171904182" y2="89.34908912091122" stroke="#000" stroke-width="0.3" />
<text x="113.0102658365717" y="89.6699074711027" font-size="3" text-anchor="middle" dominant-baseline="central" fill="#000">67</text>
<line x1="109.72391995410158" y1="89.99072582129419" x2="102.9889895295092" y2="105.85174402683633" stroke="#000" stroke-width="0.3" stroke-dasharray="2 1.5" />
<line x1="102.9889895295092" y1="105.85174402683633" x2="103.1313318341887" y2="90.07939347912838" stroke="#000" stroke-width="0.3" stroke-dasharray="2 1.5" />
<line x1="103.1313318341887" y1="90.07939347912838" x2="109.72391995410158" y2="89.99072582129419" stroke="#000" stroke-width="0.3" />
<text x="106.42762589414514" y="90.03505965021128" font-size="3" text-anchor="middle" dominant-baseline="central" fill="#000">39</text>
<line x1="103.1313318341887" y1="90.07939347912838" x2="102.9889895295092" y2="105.85174402683633" stroke="#000" stroke-width="0.3" stroke-dasharray="2 1.5" />
<line x1="102.9889895295092" y1="105.85174402683633" x2="95.07887807613854" y2="105.57676212220046" stroke="#000" stroke-width="0.3" />
<text x="99.03393380282387" y="105.7142530745184" font-size="3" text-anchor="middle" dominant-baseline="central" fill="#000">37</text>
<line x1="95.07887807613854" y1="105.57676212220046" x2="103.1313318341887" y2="90.07939347912838" stroke="#000" stroke-width="0.3" stroke-dasharray="2 1.5" />
<line x1="90.07156970003186" y1="88.60637133063729" x2="79.43459925961112" y2="103.04306140854563" stroke="#000" stroke-width="0.3" stroke-dasharray="2 1.5" />
<line x1="79.43459925961112" y1="103.04306140854563" x2="83.69580170322627" y2="87.05861838655552" stroke="#000" stroke-width="0.3" stroke-dasharray="2 1.5" />
<line x1="83.69580170322627" y1="87.05861838655552" x2="90.07156970003186" y2="88.60637133063729" stroke="#000" stroke-width="0.3" />
<text x="86.88368570162906" y="87.8324948585964" font-size="3" text-anchor="middle" dominant-baseline="central" fill="#000">15</text>
<line x1="83.69580170322627" y1="87.05861838655552" x2="79.43459925961112" y2="103.04306140854563" stroke="#000" stroke-width="0.3" stroke-dasharray="2 1.5" />
<line x1="79.43459925961112" y1="103.04306140854563" x2="71.81097118378459" y2="100.79861701202177" stroke="#000" stroke-width="0.3" />
<text x="75.62278522169785" y="101.9208392102837" font-size="3" text-anchor="middle" dominant-baseline="central" fill="#000">11</text>
<line x1="71.81097118378459" y1="100.79861701202177" x2="83.69580170322627" y2="87.05861838655552" stroke="#000" stroke-width="0.3" stroke-dasharray="2 1.5" />
<line x1="83.69580170322627" y1="87.05861838655552" x2="71.81097118378459" y2="100.79861701202177" stroke="#000" stroke-width="0.3" stroke-dasharray="2 1.5" />
<line x1="71.81097118378459" y1="100.79861701202177" x2="77.48228753976612" y2="84.98562201346694" stroke="#000" stroke-width="0.3" stroke-dasharray="2 1.5" />
<line x1="77.48228753976612" y1="84.98562201346694" x2="83.69580170322627" y2="87.05861838655552" stroke="#000" stroke-width="0.3" />
<text x="80.58904462149619" y="86.02212020001123" font-size="3" text-anchor="middle" dominant-baseline="central" fill="#000">17</text>
<line x1="77.48228753976612" y1="84.98562201346694" x2="71.81097118378459" y2="100.79861701202177" stroke="#000" stroke-width="0.3" stroke-dasharray="2 1.5" />
<line x1="71.81097118378459" y1="100.79861701202177" x2="64.39209492254443" y2="97.91963039996931" stroke="#000" stroke-width="0.3" />
<text x="68.1015330531645" y="99.35912370599553" font-size="3" text-anchor="middle" dominant-baseline="central" fill="#000">33</text>
<line x1="64.39209492254443" y1="97.91963039996931" x2="77.48228753976612" y2="84.98562201346694" stroke="#000" stroke-width="0.3" stroke-dasharray="2 1.5" />
<line x1="71.47413649770803" y1="82.40366562558394" x2="64.39209492254443" y2="97.91963039996931" stroke="#000" stroke-width="0.3" stroke-dasharray="2 1.5" />
<line x1="64.39209492254443" y1="97.91963039996931" x2="57.230764742595" y2="94.42466306131108" stroke="#000" stroke-width="0.3" />
<text x="60.811429832569715" y="96.1721467306402" font-size="3" text-anchor="middle" dominant-baseline="central" fill="#000">52</text>
<line x1="57.230764742595" y1="94.42466306131108" x2="71.47413649770803" y2="82.40366562558394" stroke="#000" stroke-width="0.3" stroke-dasharray="2 1.5" />
<line x1="77.48228753976612" y1="84.98562201346694" x2="64.39209492254443" y2="97.91963039996931" stroke="#000" stroke-width="0.3" stroke-dasharray="2 1.5" />
<line x1="64.39209492254443" y1="97.91963039996931" x2="71.47413649770803" y2="82.40366562558394" stroke="#000" stroke-width="0.3" stroke-dasharray="2 1.5" />
<line x1="71.47413649770803" y1="82.40366562558394" x2="77.48228753976612" y2="84.98562201346694" stroke="#000" stroke-width="0.3" />
<text x="74.47821201873708" y="83.69464381952544" font-size="3" text-anchor="middle" dominant-baseline="central" fill="#000">53</text>
<line x1="116.29661171904182" y1="89.34908912091122" x2="118.70736790518562" y2="104.41734742180805" stroke="#000" stroke-width="0.3" stroke-dasharray="2 1.5" />
<line x1="118.70736790518562" y1="104.41734742180805" x2="110.88359911641416" y2="105.46375087448963" stroke="#000" stroke-width="0.3" />
<text x="114.7954835107999" y="104.94054914814885" font-size="3" text-anchor="middle" dominant-baseline="central" fill="#000">43</text>
<line x1="110.88359911641416" y1="105.46375087448963" x2="116.29661171904182" y2="89.34908912091122" stroke="#000" stroke-width="0.3" stroke-dasharray="2 1.5" />
<line x1="122.80304264627347" y1="88.15720375280536" x2="118.70736790518562" y2="104.41734742180805" stroke="#000" stroke-width="0.3" stroke-dasharray="2 1.5" />
<line x1="118.70736790518562" y1="104.41734742180805" x2="116.29661171904182" y2="89.34908912091122" stroke="#000" stroke-width="0.3" stroke-dasharray="2 1.5" />
<line x1="116.29661171904182" y1="89.34908912091122" x2="122.80304264627347" y2="88.15720375280536" stroke="#000" stroke-width="0.3" />
<text x="119.54982718265765" y="88.75314643685829" font-size="3" text-anchor="middle" dominant-baseline="central" fill="#000">42</text>
<line x1="122.80304264627347" y1="88.15720375280536" x2="126.4054391836044" y2="102.72159696781223" stroke="#000" stroke-width="0.3" stroke-dasharray="2 1.5" />
<line x1="126.4054391836044" y1="102.72159696781223" x2="118.70736790518562" y2="104.41734742180805" stroke="#000" stroke-width="0.3" />
<text x="122.55640354439501" y="103.56947219481015" font-size="3" text-anchor="middle" dominant-baseline="central" fill="#000">22</text>
<line x1="118.70736790518562" y1="104.41734742180805" x2="122.80304264627347" y2="88.15720375280536" stroke="#000" stroke-width="0.3" stroke-dasharray="2 1.5" />
<line x1="128.92206335111922" y1="86.50828311925564" x2="126.4054391836044" y2="102.72159696781223" stroke="#000" stroke-width="0.3" stroke-dasharray="2 1.5" />
<line x1="126.4054391836044" y1="102.72159696781223" x2="122.80304264627347" y2="88.15720375280536" stroke="#000" stroke-width="0.3" stroke-dasharray="2 1.5" />
<line x1="122.80304264627347" y1="88.15720375280536" x2="128.92206335111922" y2="86.50828311925564" stroke="#000" stroke-width="0.3" />
<text x="125.86255299869634" y="87.3327434360305" font-size="3" text-anchor="middle" dominant-baseline="central" fill="#000">84</text>
<line x1="45.31910947960467" y1="63.17632535171365" x2="32.727470900455494" y2="74.29681445633602" stroke="#000" stroke-width="0.3" stroke-dasharray="2 1.5" />
<line x1="32.727470900455494" y1="74.29681445633602" x2="27.82119078400244" y2="68.04496264215206" stroke="#000" stroke-width="0.3" />
<text x="30.274330842228967" y="71.17088854924404" font-size="3" text-anchor="middle" dominant-baseline="central" fill="#000">113</text>
<line x1="27.82119078400244" y1="68.04496264215206" x2="45.31910947960467" y2="63.17632535171365" stroke="#000" stroke-width="0.3" stroke-dasharray="2 1.5" />
<line x1="45.31910947960467" y1="63.17632535171365" x2="49.94111611489189" y2="67.80249357136094" stroke="#000" stroke-width="0.3" />
<text x="47.63011279724828" y="65.48940946153729" font-size="3" text-anchor="middle" dominant-baseline="central" fill="#000">150</text>
<line x1="49.94111611489189" y1="67.80249357136094" x2="32.727470900455494" y2="74.29681445633602" stroke="#000" stroke-width="0.3" stroke-dasharray="2 1.5" />
<line x1="32.727470900455494" y1="74.29681445633602" x2="45.31910947960467" y2="63.17632535171365" stroke="#000" stroke-width="0.3" stroke-dasharray="2 1.5" />
<line x1="41.09393493851477" y1="58.17103092284294" x2="45.31910947960467" y2="63.17632535171365" stroke="#000" stroke-width="0.3" />
<text x="43.20652220905972" y="60.673678137278294" font-size="3" text-anchor="middle" dominant-baseline="central" fill="#000">154</text>
<line x1="45.31910947960467" y1="63.17632535171365" x2="27.82119078400244" y2="68.04496264215206" stroke="#000" stroke-width="0.3" stroke-dasharray="2 1.5" />
<line x1="27.82119078400244" y1="68.04496264215206" x2="41.09393493851477" y2="58.17103092284294" stroke="#000" stroke-width="0.3" stroke-dasharray="2 1.5" />
<line x1="41.09393493851477" y1="58.17103092284294" x2="27.82119078400244" y2="68.04496264215206" stroke="#000" stroke-width="0.3" stroke-dasharray="2 1.5" />
<line x1="27.82119078400244" y1="68.04496264215206" x2="23.46168488600085" y2="61.413124377846174" stroke="#000" stroke-width="0.3" />
<text x="25.641437835001646" y="64.72904350999912" font-size="3" text-anchor="middle" dominant-baseline="central" fill="#000">100</text>
<line x1="23.46168488600085" y1="61.413124377846174" x2="41.09393493851477" y2="58.17103092284294" stroke="#000" stroke-width="0.3" stroke-dasharray="2 1.5" />
<line x1="49.94111611489189" y1="67.80249357136094" x2="38.14747576303941" y2="80.12363487415712" stroke="#000" stroke-width="0.3" stroke-dasharray="2 1.5" />
<line x1="38.14747576303941" y1="80.12363487415712" x2="32.727470900455494" y2="74.29681445633602" stroke="#000" stroke-width="0.3" />
<text x="35.437473331747455" y="77.21022466524657" font-size="3" text-anchor="middle" dominant-baseline="central" fill="#000">69</text>
<line x1="32.727470900455494" y1="74.29681445633602" x2="49.94111611489189" y2="67.80249357136094" stroke="#000" stroke-width="0.3" stroke-dasharray="2 1.5" />
<line x1="49.94111611489189" y1="67.80249357136094" x2="54.92619508985819" y2="72.01828835178733" stroke="#000" stroke-width="0.3" />
<text x="52.43365560237504" y="69.91039096157414" font-size="3" text-anchor="middle" dominant-baseline="central" fill="#000">142</text>
<line x1="54.92619508985819" y1="72.01828835178733" x2="38.14747576303941" y2="80.12363487415712" stroke="#000" stroke-width="0.3" stroke-dasharray="2 1.5" />
<line x1="38.14747576303941" y1="80.12363487415712" x2="49.94111611489189" y2="67.80249357136094" stroke="#000" stroke-width="0.3" stroke-dasharray="2 1.5" />
<line x1="37.2966725524234" y1="52.820633265081426" x2="41.09393493851477" y2="58.17103092284294" stroke="#000" stroke-width="0.3" />
<text x="39.19530374546909" y="55.49583209396218" font-size="3" text-anchor="middle" dominant-baseline="central" fill="#000">159</text>
<line x1="41.09393493851477" y1="58.17103092284294" x2="23.46168488600085" y2="61.413124377846174" stroke="#000" stroke-width="0.3" stroke-dasharray="2 1.5" />
<line x1="23.46168488600085" y1="61.413124377846174" x2="37.2966725524234" y2="52.820633265081426" stroke="#000" stroke-width="0.3" stroke-dasharray="2 1.5" />
<line x1="37.2966725524234" y1="52.820633265081426" x2="23.46168488600085" y2="61.413124377846174" stroke="#000" stroke-width="0.3" stroke-dasharray="2 1.5" />
<line x1="23.46168488600085" y1="61.413124377846174" x2="19.67809348563499" y2="54.44889454507229" stroke="#000" stroke-width="0.3" />
<text x="21.56988918581792" y="57.93100946145923" font-size="3" text-anchor="middle" dominant-baseline="central" fill="#000">115</text>
<line x1="19.67809348563499" y1="54.44889454507229" x2="37.2966725524234" y2="52.820633265081426" stroke="#000" stroke-width="0.3" stroke-dasharray="2 1.5" />
<line x1="33.95547767989011" y1="47.161696877253654" x2="37.2966725524234" y2="52.820633265081426" stroke="#000" stroke-width="0.3" />
<text x="35.626075116156755" y="49.99116507116754" font-size="3" text-anchor="middle" dominant-baseline="central" fill="#000">141</text>
<line x1="37.2966725524234" y1="52.820633265081426" x2="19.67809348563499" y2="54.44889454507229" stroke="#000" stroke-width="0.3" stroke-dasharray="2 1.5" />
<line x1="19.67809348563499" y1="54.44889454507229" x2="33.95547767989011" y2="47.161696877253654" stroke="#000" stroke-width="0.3" stroke-dasharray="2 1.5" />
<line x1="33.95547767989011" y1="47.161696877253654" x2="19.67809348563499" y2="54.44889454507229" stroke="#000" stroke-width="0.3" stroke-dasharray="2 1.5" />
<line x1="19.67809348563499" y1="54.44889454507229" x2="16.495442843297532" y2="47.202087445290225" stroke="#000" stroke-width="0.3" />
<text x="18.08676816446626" y="50.825490995181255" font-size="3" text-anchor="middle" dominant-baseline="central" fill="#000">119</text>
<line x1="16.495442843297532" y1="47.202087445290225" x2="33.95547767989011" y2="47.161696877253654" stroke="#000" stroke-width="0.3" stroke-dasharray="2 1.5" />
<line x1="26.901956989310516" y1="28.732163302099767" x2="12.011313804652143" y2="32.0687632419733" stroke="#000" stroke-width="0.3" stroke-dasharray="2 1.5" />
<line x1="12.011313804652143" y1="32.0687632419733" x2="10.73795333114644" y2="24.289661486991797" stroke="#000" stroke-width="0.3" />
<text x="11.374633567899291" y="28.17921236448255" font-size="3" text-anchor="middle" dominant-baseline="central" fill="#000">75</text>
<line x1="10.73795333114644" y1="24.289661486991797" x2="26.901956989310516" y2="28.732163302099767" stroke="#000" stroke-width="0.3" stroke-dasharray="2 1.5" />
<line x1="26.901956989310516" y1="28.732163302099767" x2="28.73813413816995" y2="35.075697661603" stroke="#000" stroke-width="0.3" />
<text x="27.820045563740234" y="31.903930481851383" font-size="3" text-anchor="middle" dominant-baseline="central" fill="#000">133</text>
<line x1="28.73813413816995" y1="35.075697661603" x2="12.011313804652143" y2="32.0687632419733" stroke="#000" stroke-width="0.3" stroke-dasharray="2 1.5" />
<line x1="12.011313804652143" y1="32.0687632419733" x2="26.901956989310516" y2="28.732163302099767" stroke="#000" stroke-width="0.3" stroke-dasharray="2 1.5" />
<line x1="54.92619508985819" y1="72.01828835178733" x2="60.238142564977835" y2="75.79544894317505" stroke="#000" stroke-width="0.3" />
<text x="57.582168827418016" y="73.90686864748119" font-size="3" text-anchor="middle" dominant-baseline="central" fill="#000">9</text>
<line x1="60.238142564977835" y1="75.79544894317505" x2="44.04442493900726" y2="85.48324652618888" stroke="#000" stroke-width="0.3" stroke-dasharray="2 1.5" />
<line x1="44.04442493900726" y1="85.48324652618888" x2="54.92619508985819" y2="72.01828835178733" stroke="#000" stroke-width="0.3" stroke-dasharray="2 1.5" />
<line x1="54.92619508985819" y1="72.01828835178733" x2="44.04442493900726" y2="85.48324652618888" stroke="#000" stroke-width="0.3" stroke-dasharray="2 1.5" />
<line x1="44.04442493900726" y1="85.48324652618888" x2="38.14747576303941" y2="80.12363487415712" stroke="#000" stroke-width="0.3" />
<text x="41.09595035102333" y="82.803440700173" font-size="3" text-anchor="middle" dominant-baseline="central" fill="#000">85</text>
<line x1="38.14747576303941" y1="80.12363487415712" x2="54.92619508985819" y2="72.01828835178733" stroke="#000" stroke-width="0.3" stroke-dasharray="2 1.5" />
<line x1="25.60148456992124" y1="22.246563435630264" x2="26.901956989310516" y2="28.732163302099767" stroke="#000" stroke-width="0.3" />
<text x="26.25172077961588" y="25.489363368865014" font-size="3" text-anchor="middle" dominant-baseline="central" fill="#000">139</text>
<line x1="26.901956989310516" y1="28.732163302099767" x2="10.73795333114644" y2="24.289661486991797" stroke="#000" stroke-width="0.3" stroke-dasharray="2 1.5" />
<line x1="10.73795333114644" y1="24.289661486991797" x2="25.60148456992124" y2="22.246563435630264" stroke="#000" stroke-width="0.3" stroke-dasharray="2 1.5" />
<line x1="25.60148456992124" y1="22.246563435630264" x2="10.73795333114644" y2="24.289661486991797" stroke="#000" stroke-width="0.3" stroke-dasharray="2 1.5" />
<line x1="10.73795333114644" y1="24.289661486991797" x2="10.13453742940624" y2="16.78382026532732" stroke="#000" stroke-width="0.3" />
<text x="10.43624538027634" y="20.53674087615956" font-size="3" text-anchor="middle" dominant-baseline="central" fill="#000">157</text>
<line x1="10.13453742940624" y1="16.78382026532732" x2="25.60148456992124" y2="22.246563435630264" stroke="#000" stroke-width="0.3" stroke-dasharray="2 1.5" />
<line x1="31.095385908088446" y1="41.2330870569213" x2="33.95547767989011" y2="47.161696877253654" stroke="#000" stroke-width="0.3" />
<text x="32.52543179398928" y="44.197391967087476" font-size="3" text-anchor="middle" dominant-baseline="central" fill="#000">137</text>
<line x1="33.95547767989011" y1="47.161696877253654" x2="16.495442843297532" y2="47.202087445290225" stroke="#000" stroke-width="0.3" stroke-dasharray="2 1.5" />
<line x1="16.495442843297532" y1="47.202087445290225" x2="31.095385908088446" y2="41.2330870569213" stroke="#000" stroke-width="0.3" stroke-dasharray="2 1.5" />
<line x1="31.095385908088446" y1="41.2330870569213" x2="16.495442843297532" y2="47.202087445290225" stroke="#000" stroke-width="0.3" stroke-dasharray="2 1.5" />
<line x1="16.495442843297532" y1="47.202087445290225" x2="13.934437027535523" y2="39.72434390679194" stroke="#000" stroke-width="0.3" />
<text x="15.214939935416528" y="43.46321567604108" font-size="3" text-anchor="middle" dominant-baseline="central" fill="#000">109</text>
<line x1="13.934437027535523" y1="39.72434390679194" x2="31.095385908088446" y2="41.2330870569213" stroke="#000" stroke-width="0.3" stroke-dasharray="2 1.5" />
<line x1="28.73813413816995" y1="35.075697661603" x2="31.095385908088446" y2="41.2330870569213" stroke="#000" stroke-width="0.3" />
<text x="29.9167600231292" y="38.15439235926215" font-size="3" text-anchor="middle" dominant-baseline="central" fill="#000">120</text>
<line x1="31.095385908088446" y1="41.2330870569213" x2="13.934437027535523" y2="39.72434390679194" stroke="#000" stroke-width="0.3" stroke-dasharray="2 1.5" />
<line x1="13.934437027535523" y1="39.72434390679194" x2="28.73813413816995" y2="35.075697661603" stroke="#000" stroke-width="0.3" stroke-dasharray="2 1.5" />
<line x1="28.73813413816995" y1="35.075697661603" x2="13.934437027535523" y2="39.72434390679194" stroke="#000" stroke-width="0.3" stroke-dasharray="2 1.5" />
<line x1="13.934437027535523" y1="39.72434390679194" x2="12.011313804652143" y2="32.0687632419733" stroke="#000" stroke-width="0.3" />
<text x="12.972875416093833" y="35.89655357438262" font-size="3" text-anchor="middle" dominant-baseline="central" fill="#000">62</text>
<line x1="12.011313804652143" y1="32.0687632419733" x2="28.73813413816995" y2="35.075697661603" stroke="#000" stroke-width="0.3" stroke-dasharray="2 1.5" />
</svg>