<svg xmlns="http://www.w3.org/2000/svg" width="215.9mm" height="279.4mm" viewBox="0 0 215.9 279.4">
<rect x="0" y="0" width="215.9" height="279.4" fill="none" stroke="#ccc" stroke-width="0.15" />
<line x1="110.95317441535674" y1="90.39433847513156" x2="120.21303660716038" y2="75.46375224980991" stroke="#000" stroke-width="0.3" stroke-dasharray="2 1.5" />
<line x1="120.21303660716038" y1="75.46375224980991" x2="116.6273701856337" y2="93.60170974644753" stroke="#000" stroke-width="0.3" stroke-dasharray="2 1.5" />
<line x1="116.6273701856337" y1="93.60170974644753" x2="110.95317441535674" y2="90.39433847513156" stroke="#000" stroke-width="0.3" />
<polygon points="116.6273701856337,93.60170974644753 110.95317441535674,90.39433847513156 111.0887748493996,93.46585960107133 113.92587273453806,95.06954523672931" fill="none" stroke="#666" stroke-width="0.2" />
<text x="114.67602080877303" y="90.4310366889882" font-size="3" text-anchor="middle" dominant-baseline="central" fill="#000">3</text>
<line x1="105.5582340313755" y1="86.7366962885788" x2="115.29114186826943" y2="72.41926831122538" stroke="#000" stroke-width="0.3" stroke-dasharray="2 1.5" />
<line x1="115.29114186826943" y1="72.41926831122538" x2="120.21303660716038" y2="75.46375224980991" stroke="#000" stroke-width="0.3" />
<polygon points="115.29114186826943,72.41926831122538 120.21303660716038,75.46375224980991 120.20035649787145,72.73387336960741 117.73940912842598,71.21163140031514" fill="none" stroke="#666" stroke-width="0.2" />
<text x="116.80519137474386" y="75.47232197275835" font-size="3" text-anchor="middle" dominant-baseline="central" fill="#000">4</text>
<line x1="120.21303660716038" y1="75.46375224980991" x2="105.5582340313755" y2="86.7366962885788" stroke="#000" stroke-width="0.3" stroke-dasharray="2 1.5" />
<line x1="13.47022111015746" y1="124.93260630023757" x2="31.30429547430634" y2="132.39229636456903" stroke="#000" stroke-width="0.3" stroke-dasharray="2 1.5" />
<line x1="31.30429547430634" y1="132.39229636456903" x2="14.035828408948277" y2="133.62446842178872" stroke="#000" stroke-width="0.3" stroke-dasharray="2 1.5" />
<line x1="14.035828408948277" y1="133.62446842178872" x2="13.47022111015746" y2="124.93260630023757" stroke="#000" stroke-width="0.3" />
<polygon points="14.035828408948277,133.62446842178872 13.47022111015746,124.93260630023757 10.134878086234693,127.33181475014169 10.417681735630113,131.67774581091726" fill="none" stroke="#666" stroke-width="0.2" />
<text x="15.549225751095978" y="129.1616528112234" font-size="3" text-anchor="middle" dominant-baseline="central" fill="#000">5</text>
<line x1="120.21303660716038" y1="75.46375224980991" x2="125.12772324879211" y2="78.5198585122712" stroke="#000" stroke-width="0.3" />
<polygon points="120.21303660716038,75.46375224980991 125.12772324879211,78.5198585122712 125.12149409336868,75.78995729000317 122.66415077255283,74.26190415877254" fill="none" stroke="#666" stroke-width="0.2" />
<text x="121.71986728040808" y="78.5203752050306" font-size="3" text-anchor="middle" dominant-baseline="central" fill="#000">8</text>
<line x1="125.12772324879211" y1="78.5198585122712" x2="116.6273701856337" y2="93.60170974644753" stroke="#000" stroke-width="0.3" stroke-dasharray="2 1.5" />
<line x1="116.6273701856337" y1="93.60170974644753" x2="120.21303660716038" y2="75.46375224980991" stroke="#000" stroke-width="0.3" stroke-dasharray="2 1.5" />
<line x1="105.5582340313755" y1="86.7366962885788" x2="120.21303660716038" y2="75.46375224980991" stroke="#000" stroke-width="0.3" stroke-dasharray="2 1.5" />
<line x1="120.21303660716038" y1="75.46375224980991" x2="110.95317441535674" y2="90.39433847513156" stroke="#000" stroke-width="0.3" stroke-dasharray="2 1.5" />
<line x1="110.95317441535674" y1="90.39433847513156" x2="105.5582340313755" y2="86.7366962885788" stroke="#000" stroke-width="0.3" />
<polygon points="110.95317441535674,90.39433847513156 105.5582340313755,86.7366962885788 105.44391225274971,89.80908298880948 108.14138244474032,91.63790408208587" fill="none" stroke="#666" stroke-width="0.2" />
<text x="109.26579966804509" y="87.075649202237" font-size="3" text-anchor="middle" dominant-baseline="central" fill="#000">9</text>
<line x1="38.64342859541915" y1="214.9185212208353" x2="51.67497317019737" y2="207.99215682497106" stroke="#000" stroke-width="0.3" stroke-dasharray="2 1.5" />
<line x1="51.67497317019737" y1="207.99215682497106" x2="51.77331168036368" y2="208.36366848765437" stroke="#000" stroke-width="0.3" />
<text x="51.724142425280526" y="208.1779126563127" font-size="3" text-anchor="middle" dominant-baseline="central" fill="#000">7</text>
<line x1="51.77331168036368" y1="208.36366848765437" x2="38.64342859541915" y2="214.9185212208353" stroke="#000" stroke-width="0.3" stroke-dasharray="2 1.5" />
<line x1="38.64342859541915" y1="214.9185212208353" x2="51.77331168036368" y2="208.36366848765437" stroke="#000" stroke-width="0.3" stroke-dasharray="2 1.5" />
<line x1="51.77331168036368" y1="208.36366848765437" x2="38.90838373005873" y2="215.22915924851088" stroke="#000" stroke-width="0.3" stroke-dasharray="2 1.5" />
<line x1="38.90838373005873" y1="215.22915924851088" x2="38.64342859541915" y2="214.9185212208353" stroke="#000" stroke-width="0.3" />
<text x="38.77590616273894" y="215.07384023467307" font-size="3" text-anchor="middle" dominant-baseline="central" fill="#000">1</text>
<line x1="180.44241141426653" y1="97.16313262271336" x2="179.35998697355734" y2="111.79657234904055" stroke="#000" stroke-width="0.3" stroke-dasharray="2 1.5" />
<line x1="179.35998697355734" y1="111.79657234904055" x2="179.0271175642684" y2="111.85301421062564" stroke="#000" stroke-width="0.3" />
<text x="179.19355226891287" y="111.8247932798331" font-size="3" text-anchor="middle" dominant-baseline="central" fill="#000">10</text>
<line x1="179.0271175642684" y1="111.85301421062564" x2="180.44241141426653" y2="97.16313262271336" stroke="#000" stroke-width="0.3" stroke-dasharray="2 1.5" />
<line x1="180.44241141426653" y1="97.16313262271336" x2="180.73525529327497" y2="97.2793421861367" stroke="#000" stroke-width="0.3" />
<text x="180.58883335377075" y="97.22123740442504" font-size="3" text-anchor="middle" dominant-baseline="central" fill="#000">2</text>
<line x1="180.73525529327497" y1="97.2793421861367" x2="179.35998697355734" y2="111.79657234904055" stroke="#000" stroke-width="0.3" stroke-dasharray="2 1.5" />
<line x1="179.35998697355734" y1="111.79657234904055" x2="180.44241141426653" y2="97.16313262271336" stroke="#000" stroke-width="0.3" stroke-dasharray="2 1.5" />
<line x1="32.84646487424321" y1="148.24050776315227" x2="34.11144352962113" y2="156.08633880193048" stroke="#000" stroke-width="0.3" />
<polygon points="32.84646487424321,148.24050776315227 34.11144352962113,156.08633880193048 36.93353128128793,153.61888958008478 36.301041953599,149.69597406069565" fill="none" stroke="#666" stroke-width="0.2" />
<text x="31.701903169695633" y="152.44993615978612" font-size="3" text-anchor="middle" dominant-baseline="central" fill="#000">11</text>
<line x1="34.11144352962113" y1="156.08633880193048" x2="16.24876539325084" y2="150.8349424515342" stroke="#000" stroke-width="0.3" stroke-dasharray="2 1.5" />
<line x1="16.24876539325084" y1="150.8349424515342" x2="32.84646487424321" y2="148.24050776315227" stroke="#000" stroke-width="0.3" stroke-dasharray="2 1.5" />
<line x1="16.24876539325084" y1="150.8349424515342" x2="34.11144352962113" y2="156.08633880193048" stroke="#000" stroke-width="0.3" stroke-dasharray="2 1.5" />
<line x1="34.11144352962113" y1="156.08633880193048" x2="17.888628987115858" y2="159.32373575489197" stroke="#000" stroke-width="0.3" stroke-dasharray="2 1.5" />
<line x1="17.888628987115858" y1="159.32373575489197" x2="16.24876539325084" y2="150.8349424515342" stroke="#000" stroke-width="0.3" />
<polygon points="17.888628987115858,159.32373575489197 16.24876539325084,150.8349424515342 13.263213970374009,153.61308621491966 14.083145767306496,157.85748286659856" fill="none" stroke="#666" stroke-width="0.2" />
<text x="18.83602232934191" y="154.73792754438975" font-size="3" text-anchor="middle" dominant-baseline="central" fill="#000">12</text>
<line x1="31.03160112384006" y1="124.41755099362018" x2="31.30429547430634" y2="132.39229636456903" stroke="#000" stroke-width="0.3" />
<polygon points="31.03160112384006,124.41755099362018 31.30429547430634,132.39229636456903 34.4260200350693,130.2895322816453 34.28967285983618,126.30215959617088" fill="none" stroke="#666" stroke-width="0.2" />
<text x="29.3689997293656" y="128.46643825904923" font-size="3" text-anchor="middle" dominant-baseline="central" fill="#000">13</text>
<line x1="31.30429547430634" y1="132.39229636456903" x2="13.47022111015746" y2="124.93260630023757" stroke="#000" stroke-width="0.3" stroke-dasharray="2 1.5" />
<line x1="13.47022111015746" y1="124.93260630023757" x2="31.03160112384006" y2="124.41755099362018" stroke="#000" stroke-width="0.3" stroke-dasharray="2 1.5" />
<line x1="140.69523952782495" y1="86.4717577498926" x2="140.6135144043654" y2="104.01897889361162" stroke="#000" stroke-width="0.3" stroke-dasharray="2 1.5" />
<line x1="140.6135144043654" y1="104.01897889361162" x2="134.4436411585836" y2="101.78769655917017" stroke="#000" stroke-width="0.3" />
<polygon points="140.6135144043654,104.01897889361162 134.4436411585836,101.78769655917017 135.09359653625248,104.81346644109323 138.17853315914337,105.92910760831397" fill="none" stroke="#666" stroke-width="0.2" />
<text x="138.1407320043573" y="101.21062770769107" font-size="3" text-anchor="middle" dominant-baseline="central" fill="#000">15</text>
<line x1="134.4436411585836" y1="101.78769655917017" x2="140.69523952782495" y2="86.4717577498926" stroke="#000" stroke-width="0.3" stroke-dasharray="2 1.5" />
<line x1="140.69523952782495" y1="86.4717577498926" x2="146.13114578082372" y2="88.69600427927409" stroke="#000" stroke-width="0.3" />
<polygon points="140.69523952782495,86.4717577498926 146.13114578082372,88.69600427927409 145.6618678293266,85.96558014572923 142.94391470282721,84.85345688103848" fill="none" stroke="#666" stroke-width="0.2" />
<text x="142.73153101038125" y="89.24981540800248" font-size="3" text-anchor="middle" dominant-baseline="central" fill="#000">16</text>
<line x1="146.13114578082372" y1="88.69600427927409" x2="140.6135144043654" y2="104.01897889361162" stroke="#000" stroke-width="0.3" stroke-dasharray="2 1.5" />
<line x1="140.6135144043654" y1="104.01897889361162" x2="140.69523952782495" y2="86.4717577498926" stroke="#000" stroke-width="0.3" stroke-dasharray="2 1.5" />
<line x1="135.37700388425253" y1="84.03030328003564" x2="134.4436411585836" y2="101.78769655917017" stroke="#000" stroke-width="0.3" stroke-dasharray="2 1.5" />
<line x1="134.4436411585836" y1="101.78769655917017" x2="128.3825113025443" y2="99.30419558462096" stroke="#000" stroke-width="0.3" />
<polygon points="134.4436411585836,101.78769655917017 128.3825113025443,99.30419558462096 128.90439337673442,102.349522770674 131.9349583047541,103.5912732579486" fill="none" stroke="#666" stroke-width="0.2" />
<text x="132.09554458958507" y="98.88034199561123" font-size="3" text-anchor="middle" dominant-baseline="central" fill="#000">17</text>
<line x1="128.3825113025443" y1="99.30419558462096" x2="135.37700388425253" y2="84.03030328003564" stroke="#000" stroke-width="0.3" stroke-dasharray="2 1.5" />
<line x1="135.37700388425253" y1="84.03030328003564" x2="140.69523952782495" y2="86.4717577498926" stroke="#000" stroke-width="0.3" />
<polygon points="135.37700388425253,84.03030328003564 140.69523952782495,86.4717577498926 140.34226240487465,83.7340998749994 137.68314458308845,82.51337264007093" fill="none" stroke="#666" stroke-width="0.2" />
<text x="137.285144429425" y="86.88688904491403" font-size="3" text-anchor="middle" dominant-baseline="central" fill="#000">18</text>
<line x1="140.69523952782495" y1="86.4717577498926" x2="134.4436411585836" y2="101.78769655917017" stroke="#000" stroke-width="0.3" stroke-dasharray="2 1.5" />
<line x1="134.4436411585836" y1="101.78769655917017" x2="135.37700388425253" y2="84.03030328003564" stroke="#000" stroke-width="0.3" stroke-dasharray="2 1.5" />
<line x1="34.11144352962113" y1="156.08633880193048" x2="35.70172681580929" y2="163.8617853812784" stroke="#000" stroke-width="0.3" />
<polygon points="34.11144352962113,156.08633880193048 35.70172681580929,163.8617853812784 38.41433462600142,161.28181042196616 37.61919298290733,157.3940871322922" fill="none" stroke="#666" stroke-width="0.2" />
<text x="33.14309166155685" y="160.33474288691013" font-size="3" text-anchor="middle" dominant-baseline="central" fill="#000">19</text>
<line x1="35.70172681580929" y1="163.8617853812784" x2="17.888628987115858" y2="159.32373575489197" stroke="#000" stroke-width="0.3" stroke-dasharray="2 1.5" />
<line x1="17.888628987115858" y1="159.32373575489197" x2="34.11144352962113" y2="156.08633880193048" stroke="#000" stroke-width="0.3" stroke-dasharray="2 1.5" />
<line x1="35.70172681580929" y1="163.8617853812784" x2="37.61364301520096" y2="171.553380631623" stroke="#000" stroke-width="0.3" />
<polygon points="35.70172681580929,163.8617853812784 37.61364301520096,171.553380631623 40.21230206549089,168.86571533928017 39.256343965795054,165.01991771410786" fill="none" stroke="#666" stroke-width="0.2" />
<text x="34.91084310696073" y="168.14179919214783" font-size="3" text-anchor="middle" dominant-baseline="central" fill="#000">20</text>
<line x1="37.61364301520096" y1="171.553380631623" x2="19.878084857133146" y2="167.71536533522618" stroke="#000" stroke-width="0.3" stroke-dasharray="2 1.5" />
<line x1="19.878084857133146" y1="167.71536533522618" x2="35.70172681580929" y2="163.8617853812784" stroke="#000" stroke-width="0.3" stroke-dasharray="2 1.5" />
<line x1="146.13114578082372" y1="88.69600427927409" x2="146.88162837171245" y2="105.99328674956341" stroke="#000" stroke-width="0.3" stroke-dasharray="2 1.5" />
<line x1="146.88162837171245" y1="105.99328674956341" x2="140.6135144043654" y2="104.01897889361162" stroke="#000" stroke-width="0.3" />
<polygon points="146.88162837171245,105.99328674956341 140.6135144043654,104.01897889361162 141.39081975382143,107.01980144453839 144.52487673749496,108.00695537251428" fill="none" stroke="#666" stroke-width="0.2" />
<text x="144.28833833086375" y="103.28928363964174" font-size="3" text-anchor="middle" dominant-baseline="central" fill="#000">21</text>
<line x1="140.6135144043654" y1="104.01897889361162" x2="146.13114578082372" y2="88.69600427927409" stroke="#000" stroke-width="0.3" stroke-dasharray="2 1.5" />
<line x1="31.21801536893098" y1="200.02747270601608" x2="45.234172861455626" y2="193.99332174085538" stroke="#000" stroke-width="0.3" stroke-dasharray="2 1.5" />
<line x1="45.234172861455626" y1="193.99332174085538" x2="48.38490885346051" y2="201.21888287605643" stroke="#000" stroke-width="0.3" />
<polygon points="45.234172861455626,193.99332174085538 48.38490885346051,201.21888287605643 50.487449309539706,198.15219819545422 48.91208131353728,194.53941762785368" fill="none" stroke="#666" stroke-width="0.2" />
<text x="45.15958285577136" y="198.32557335906878" font-size="3" text-anchor="middle" dominant-baseline="central" fill="#000">22</text>
<line x1="48.38490885346051" y1="201.21888287605643" x2="31.21801536893098" y2="200.02747270601608" stroke="#000" stroke-width="0.3" stroke-dasharray="2 1.5" />
<line x1="14.035828408948277" y1="133.62446842178872" x2="31.90990306908336" y2="140.33790433914788" stroke="#000" stroke-width="0.3" stroke-dasharray="2 1.5" />
<line x1="31.90990306908336" y1="140.33790433914788" x2="14.963151126537007" y2="142.2635823603959" stroke="#000" stroke-width="0.3" stroke-dasharray="2 1.5" />
<line x1="14.963151126537007" y1="142.2635823603959" x2="14.035828408948277" y2="133.62446842178872" stroke="#000" stroke-width="0.3" />
<polygon points="14.963151126537007,142.2635823603959 14.035828408948277,133.62446842178872 10.812013512902574,136.155175993476 11.27567487169696,140.4747329627796" fill="none" stroke="#666" stroke-width="0.2" />
<text x="16.2892088315964" y="137.75191689966516" font-size="3" text-anchor="middle" dominant-baseline="central" fill="#000">23</text>
<line x1="157.32011897811006" y1="92.47088692224321" x2="163.05461496510424" y2="94.01145353085062" stroke="#000" stroke-width="0.3" />
<polygon points="157.32011897811006,92.47088692224321 163.05461496510424,94.01145353085062 162.23721761179866,91.3325134839011 159.36996961830155,90.56223017959739" fill="none" stroke="#666" stroke-width="0.2" />
<text x="159.72035776320456" y="94.97953221395552" font-size="3" text-anchor="middle" dominant-baseline="central" fill="#000">24</text>
<line x1="163.05461496510424" y1="94.01145353085062" x2="159.66951510658362" y2="109.1541419006177" stroke="#000" stroke-width="0.3" stroke-dasharray="2 1.5" />
<line x1="159.66951510658362" y1="109.1541419006177" x2="157.32011897811006" y2="92.47088692224321" stroke="#000" stroke-width="0.3" stroke-dasharray="2 1.5" />
<line x1="39.84296317149966" y1="179.14782662151214" x2="42.384911890207036" y2="186.63206979817213" stroke="#000" stroke-width="0.3" />
<polygon points="39.84296317149966,179.14782662151214 42.384911890207036,186.63206979817213 44.74312198119418,183.74422951652417 43.4721476218405,180.0021079281942" fill="none" stroke="#666" stroke-width="0.2" />
<text x="39.40955970553328" y="183.4688231778251" font-size="3" text-anchor="middle" dominant-baseline="central" fill="#000">25</text>
<line x1="42.384911890207036" y1="186.63206979817213" x2="24.884165546613076" y2="184.15000424021076" stroke="#000" stroke-width="0.3" stroke-dasharray="2 1.5" />
<line x1="24.884165546613076" y1="184.15000424021076" x2="39.84296317149966" y2="179.14782662151214" stroke="#000" stroke-width="0.3" stroke-dasharray="2 1.5" />
<line x1="19.878084857133146" y1="167.71536533522618" x2="37.61364301520096" y2="171.553380631623" stroke="#000" stroke-width="0.3" stroke-dasharray="2 1.5" />
<line x1="37.61364301520096" y1="171.553380631623" x2="22.21187637116568" y2="175.99547891852717" stroke="#000" stroke-width="0.3" stroke-dasharray="2 1.5" />
<line x1="22.21187637116568" y1="175.99547891852717" x2="19.878084857133146" y2="167.71536533522618" stroke="#000" stroke-width="0.3" />
<polygon points="22.21187637116568,175.99547891852717 19.878084857133146,167.71536533522618 17.149487302320885,170.71891033666444 18.31638305933715,174.85896712831493" fill="none" stroke="#666" stroke-width="0.2" />
<text x="22.77747884275123" y="171.36710881772817" font-size="3" text-anchor="middle" dominant-baseline="central" fill="#000">27</text>
<line x1="31.21801536893098" y1="200.02747270601608" x2="48.38490885346051" y2="201.21888287605643" stroke="#000" stroke-width="0.3" stroke-dasharray="2 1.5" />
<line x1="48.38490885346051" y1="201.21888287605643" x2="34.86508591265328" y2="207.72378983227964" stroke="#000" stroke-width="0.3" stroke-dasharray="2 1.5" />
<line x1="34.86508591265328" y1="207.72378983227964" x2="31.21801536893098" y2="200.02747270601608" stroke="#000" stroke-width="0.3" />
<polygon points="34.86508591265328,207.72378983227964 31.21801536893098,200.02747270601608 29.05125615435613,203.41038020507088 30.874791426217268,207.25853876820267" fill="none" stroke="#666" stroke-width="0.2" />
<text x="34.668160445105805" y="203.10482614169302" font-size="3" text-anchor="middle" dominant-baseline="central" fill="#000">29</text>
<line x1="22.21187637116568" y1="175.99547891852717" x2="39.84296317149966" y2="179.14782662151214" stroke="#000" stroke-width="0.3" stroke-dasharray="2 1.5" />
<line x1="39.84296317149966" y1="179.14782662151214" x2="24.884165546613076" y2="184.15000424021076" stroke="#000" stroke-width="0.3" stroke-dasharray="2 1.5" />
<line x1="24.884165546613076" y1="184.15000424021076" x2="22.21187637116568" y2="175.99547891852717" stroke="#000" stroke-width="0.3" />
<polygon points="24.884165546613076,184.15000424021076 22.21187637116568,175.99547891852717 19.618138536354095,179.10302591912702 20.95428312407779,183.18028857996882" fill="none" stroke="#666" stroke-width="0.2" />
<text x="25.258516437084726" y="179.5122014656632" font-size="3" text-anchor="middle" dominant-baseline="central" fill="#000">30</text>
<line x1="125.12772324879211" y1="78.5198585122712" x2="130.18505303361133" y2="81.37757668442774" stroke="#000" stroke-width="0.3" />
<polygon points="125.12772324879211,78.5198585122712 130.18505303361133,81.37757668442774 130.06380785626914,78.64021522746091 127.53514296385954,77.21135614138265" fill="none" stroke="#666" stroke-width="0.2" />
<text x="126.77086652015514" y="81.5158332477701" font-size="3" text-anchor="middle" dominant-baseline="central" fill="#000">31</text>
<line x1="130.18505303361133" y1="81.37757668442774" x2="122.44040863544846" y2="96.57366566777212" stroke="#000" stroke-width="0.3" stroke-dasharray="2 1.5" />
<line x1="122.44040863544846" y1="96.57366566777212" x2="125.12772324879211" y2="78.5198585122712" stroke="#000" stroke-width="0.3" stroke-dasharray="2 1.5" />
<line x1="31.90990306908336" y1="140.33790433914788" x2="32.84646487424321" y2="148.24050776315227" stroke="#000" stroke-width="0.3" />
<polygon points="31.90990306908336,140.33790433914788 32.84646487424321,148.24050776315227 35.773365792555026,145.8902321850872 35.305084889975085,141.938930473085" fill="none" stroke="#666" stroke-width="0.2" />
<text x="30.590693166147165" y="144.50104707691077" font-size="3" text-anchor="middle" dominant-baseline="central" fill="#000">33</text>
<line x1="32.84646487424321" y1="148.24050776315227" x2="14.963151126537007" y2="142.2635823603959" stroke="#000" stroke-width="0.3" stroke-dasharray="2 1.5" />
<line x1="14.963151126537007" y1="142.2635823603959" x2="31.90990306908336" y2="140.33790433914788" stroke="#000" stroke-width="0.3" stroke-dasharray="2 1.5" />
<line x1="125.12772324879211" y1="78.5198585122712" x2="122.44040863544846" y2="96.57366566777212" stroke="#000" stroke-width="0.3" stroke-dasharray="2 1.5" />
<line x1="122.44040863544846" y1="96.57366566777212" x2="116.6273701856337" y2="93.60170974644753" stroke="#000" stroke-width="0.3" />
<polygon points="122.44040863544846,96.57366566777212 116.6273701856337,93.60170974644753 116.89184742955753,96.6699141067046 119.79836665446493,98.15589206736688" fill="none" stroke="#666" stroke-width="0.2" />
<text x="120.3532745498963" y="93.48499996665511" font-size="3" text-anchor="middle" dominant-baseline="central" fill="#000">35</text>
<line x1="116.6273701856337" y1="93.60170974644753" x2="125.12772324879211" y2="78.5198585122712" stroke="#000" stroke-width="0.3" stroke-dasharray="2 1.5" />
<line x1="14.963151126537007" y1="142.2635823603959" x2="32.84646487424321" y2="148.24050776315227" stroke="#000" stroke-width="0.3" stroke-dasharray="2 1.5" />
<line x1="32.84646487424321" y1="148.24050776315227" x2="16.24876539325084" y2="150.8349424515342" stroke="#000" stroke-width="0.3" stroke-dasharray="2 1.5" />
<line x1="16.24876539325084" y1="150.8349424515342" x2="14.963151126537007" y2="142.2635823603959" stroke="#000" stroke-width="0.3" />
<polygon points="16.24876539325084,150.8349424515342 14.963151126537007,142.2635823603959 11.856010656760137,144.92066808986598 12.498817790117064,149.20634813543518" fill="none" stroke="#666" stroke-width="0.2" />
<text x="17.38604642922125" y="146.28226781908944" font-size="3" text-anchor="middle" dominant-baseline="central" fill="#000">36</text>
<line x1="37.61364301520096" y1="171.553380631623" x2="39.84296317149966" y2="179.14782662151214" stroke="#000" stroke-width="0.3" />
<polygon points="37.61364301520096,171.553380631623 39.84296317149966,179.14782662151214 42.323411528380646,176.35748706152037 41.2087514502313,172.5602640665758" fill="none" stroke="#666" stroke-width="0.2" />
<text x="37.001178221436426" y="175.85759443202315" font-size="3" text-anchor="middle" dominant-baseline="central" fill="#000">37</text>
<line x1="39.84296317149966" y1="179.14782662151214" x2="22.21187637116568" y2="175.99547891852717" stroke="#000" stroke-width="0.3" stroke-dasharray="2 1.5" />
<line x1="22.21187637116568" y1="175.99547891852717" x2="37.61364301520096" y2="171.553380631623" stroke="#000" stroke-width="0.3" stroke-dasharray="2 1.5" />
<line x1="157.32011897811006" y1="92.47088692224321" x2="159.66951510658362" y2="109.1541419006177" stroke="#000" stroke-width="0.3" stroke-dasharray="2 1.5" />
<line x1="159.66951510658362" y1="109.1541419006177" x2="153.23726536336184" y2="107.70630098629537" stroke="#000" stroke-width="0.3" />
<polygon points="159.66951510658362,109.1541419006177 153.23726536336184,107.70630098629537 154.26619143343837,110.64116111216465 157.48231630504924,111.36508156932582" fill="none" stroke="#666" stroke-width="0.2" />
<text x="156.8486641271409" y="106.67415807610038" font-size="3" text-anchor="middle" dominant-baseline="central" fill="#000">39</text>
<line x1="153.23726536336184" y1="107.70630098629537" x2="157.32011897811006" y2="92.47088692224321" stroke="#000" stroke-width="0.3" stroke-dasharray="2 1.5" />
<line x1="168.869705065766" y1="95.31472225933018" x2="172.7194277685182" y2="111.24112934999809" stroke="#000" stroke-width="0.3" stroke-dasharray="2 1.5" />
<line x1="172.7194277685182" y1="111.24112934999809" x2="166.16730872189322" y2="110.33340133985632" stroke="#000" stroke-width="0.3" />
<polygon points="172.7194277685182,111.24112934999809 166.16730872189322,110.33340133985632 167.44224727949273,113.18118096104173 170.71830680280522,113.63504496611263" fill="none" stroke="#666" stroke-width="0.2" />
<text x="169.69038032860553" y="109.00429450089905" font-size="3" text-anchor="middle" dominant-baseline="central" fill="#000">42</text>
<line x1="166.16730872189322" y1="110.33340133985632" x2="168.869705065766" y2="95.31472225933018" stroke="#000" stroke-width="0.3" stroke-dasharray="2 1.5" />
<line x1="42.384911890207036" y1="186.63206979817213" x2="45.234172861455626" y2="193.99332174085538" stroke="#000" stroke-width="0.3" />
<polygon points="42.384911890207036,186.63206979817213 45.234172861455626,193.99332174085538 47.46635839571677,191.01330436668513 46.04172791009247,187.3326783953435" fill="none" stroke="#666" stroke-width="0.2" />
<text x="42.130900153710485" y="190.96243440166765" font-size="3" text-anchor="middle" dominant-baseline="central" fill="#000">43</text>
<line x1="45.234172861455626" y1="193.99332174085538" x2="27.888537863751857" y2="192.16515178585001" stroke="#000" stroke-width="0.3" stroke-dasharray="2 1.5" />
<line x1="27.888537863751857" y1="192.16515178585001" x2="42.384911890207036" y2="186.63206979817213" stroke="#000" stroke-width="0.3" stroke-dasharray="2 1.5" />
<line x1="34.86508591265328" y1="207.72378983227964" x2="48.38490885346051" y2="201.21888287605643" stroke="#000" stroke-width="0.3" stroke-dasharray="2 1.5" />
<line x1="48.38490885346051" y1="201.21888287605643" x2="51.67497317019737" y2="207.99215682497106" stroke="#000" stroke-width="0.3" />
<text x="50.02994101182894" y="204.60551985051376" font-size="3" text-anchor="middle" dominant-baseline="central" fill="#000">26</text>
<line x1="51.67497317019737" y1="207.99215682497106" x2="34.86508591265328" y2="207.72378983227964" stroke="#000" stroke-width="0.3" stroke-dasharray="2 1.5" />
<line x1="168.869705065766" y1="95.31472225933018" x2="174.7555024114688" y2="96.37661224188786" stroke="#000" stroke-width="0.3" />
<polygon points="168.869705065766,95.31472225933018 174.7555024114688,96.37661224188786 173.70880906806616,93.75682080796732 170.76591039521477,93.22587581668847" fill="none" stroke="#666" stroke-width="0.2" />
<text x="171.49301518302062" y="97.61706871699984" font-size="3" text-anchor="middle" dominant-baseline="central" fill="#000">45</text>
<line x1="174.7555024114688" y1="96.37661224188786" x2="172.7194277685182" y2="111.24112934999809" stroke="#000" stroke-width="0.3" stroke-dasharray="2 1.5" />
<line x1="172.7194277685182" y1="111.24112934999809" x2="168.869705065766" y2="95.31472225933018" stroke="#000" stroke-width="0.3" stroke-dasharray="2 1.5" />
<line x1="34.86508591265328" y1="207.72378983227964" x2="51.67497317019737" y2="207.99215682497106" stroke="#000" stroke-width="0.3" stroke-dasharray="2 1.5" />
<line x1="51.67497317019737" y1="207.99215682497106" x2="38.64342859541915" y2="214.9185212208353" stroke="#000" stroke-width="0.3" stroke-dasharray="2 1.5" />
<line x1="38.64342859541915" y1="214.9185212208353" x2="34.86508591265328" y2="207.72378983227964" stroke="#000" stroke-width="0.3" />
<polygon points="38.64342859541915,214.9185212208353 34.86508591265328,207.72378983227964 32.9317790279225,211.03380975252492 34.820950369305415,214.6311754468027" fill="none" stroke="#666" stroke-width="0.2" />
<text x="38.34787239788827" y="210.48426200090117" font-size="3" text-anchor="middle" dominant-baseline="central" fill="#000">47</text>
<line x1="24.884165546613076" y1="184.15000424021076" x2="42.384911890207036" y2="186.63206979817213" stroke="#000" stroke-width="0.3" stroke-dasharray="2 1.5" />
<line x1="42.384911890207036" y1="186.63206979817213" x2="27.888537863751857" y2="192.16515178585001" stroke="#000" stroke-width="0.3" stroke-dasharray="2 1.5" />
<line x1="27.888537863751857" y1="192.16515178585001" x2="24.884165546613076" y2="184.15000424021076" stroke="#000" stroke-width="0.3" />
<text x="26.386351705182467" y="188.1575780130304" font-size="3" text-anchor="middle" dominant-baseline="central" fill="#000">46</text>
<line x1="151.67582715914202" y1="90.69745699284704" x2="153.23726536336184" y2="107.70630098629537" stroke="#000" stroke-width="0.3" stroke-dasharray="2 1.5" />
<line x1="153.23726536336184" y1="107.70630098629537" x2="146.88162837171245" y2="105.99328674956341" stroke="#000" stroke-width="0.3" />
<polygon points="153.23726536336184,107.70630098629537 146.88162837171245,105.99328674956341 147.785331924932,108.96379510540616 150.9631504207567,109.82030222377215" fill="none" stroke="#666" stroke-width="0.2" />
<text x="150.5278787572382" y="105.11181470674504" font-size="3" text-anchor="middle" dominant-baseline="central" fill="#000">49</text>
<line x1="146.88162837171245" y1="105.99328674956341" x2="151.67582715914202" y2="90.69745699284704" stroke="#000" stroke-width="0.3" stroke-dasharray="2 1.5" />
<line x1="151.67582715914202" y1="90.69745699284704" x2="157.32011897811006" y2="92.47088692224321" stroke="#000" stroke-width="0.3" />
<polygon points="151.67582715914202,90.69745699284704 157.32011897811006,92.47088692224321 156.61841799512652,89.76981271230696 153.79627208564247,88.88309774760886" fill="none" stroke="#666" stroke-width="0.2" />
<text x="153.9584209719815" y="93.30140331499423" font-size="3" text-anchor="middle" dominant-baseline="central" fill="#000">50</text>
<line x1="157.32011897811006" y1="92.47088692224321" x2="153.23726536336184" y2="107.70630098629537" stroke="#000" stroke-width="0.3" stroke-dasharray="2 1.5" />
<line x1="153.23726536336184" y1="107.70630098629537" x2="151.67582715914202" y2="90.69745699284704" stroke="#000" stroke-width="0.3" stroke-dasharray="2 1.5" />
<line x1="17.888628987115858" y1="159.32373575489197" x2="35.70172681580929" y2="163.8617853812784" stroke="#000" stroke-width="0.3" stroke-dasharray="2 1.5" />
<line x1="35.70172681580929" y1="163.8617853812784" x2="19.878084857133146" y2="167.71536533522618" stroke="#000" stroke-width="0.3" stroke-dasharray="2 1.5" />
<line x1="19.878084857133146" y1="167.71536533522618" x2="17.888628987115858" y2="159.32373575489197" stroke="#000" stroke-width="0.3" />
<text x="18.883356922124502" y="163.51955054505908" font-size="3" text-anchor="middle" dominant-baseline="central" fill="#000">38</text>
<line x1="31.30429547430634" y1="132.39229636456903" x2="31.90990306908336" y2="140.33790433914788" stroke="#000" stroke-width="0.3" />
<polygon points="31.30429547430634,132.39229636456903 31.90990306908336,140.33790433914788 34.936744360220644,138.10925930759234 34.63394056283211,134.13645532030296" fill="none" stroke="#666" stroke-width="0.2" />
<text x="29.81230502588615" y="136.50189806825747" font-size="3" text-anchor="middle" dominant-baseline="central" fill="#000">52</text>
<line x1="31.90990306908336" y1="140.33790433914788" x2="14.035828408948277" y2="133.62446842178872" stroke="#000" stroke-width="0.3" stroke-dasharray="2 1.5" />
<line x1="14.035828408948277" y1="133.62446842178872" x2="31.30429547430634" y2="132.39229636456903" stroke="#000" stroke-width="0.3" stroke-dasharray="2 1.5" />
<line x1="27.888537863751857" y1="192.16515178585001" x2="45.234172861455626" y2="193.99332174085538" stroke="#000" stroke-width="0.3" stroke-dasharray="2 1.5" />
<line x1="45.234172861455626" y1="193.99332174085538" x2="31.21801536893098" y2="200.02747270601608" stroke="#000" stroke-width="0.3" stroke-dasharray="2 1.5" />
<line x1="31.21801536893098" y1="200.02747270601608" x2="27.888537863751857" y2="192.16515178585001" stroke="#000" stroke-width="0.3" />
<text x="29.55327661634142" y="196.09631224593306" font-size="3" text-anchor="middle" dominant-baseline="central" fill="#000">48</text>
<line x1="130.18505303361133" y1="81.37757668442774" x2="128.3825113025443" y2="99.30419558462096" stroke="#000" stroke-width="0.3" stroke-dasharray="2 1.5" />
<line x1="128.3825113025443" y1="99.30419558462096" x2="122.44040863544846" y2="96.57366566777212" stroke="#000" stroke-width="0.3" />
<polygon points="128.3825113025443,99.30419558462096 122.44040863544846,96.57366566777212 122.8337223354829,99.63313921382264 125.8047736690308,100.99840417224706" fill="none" stroke="#666" stroke-width="0.2" />
<text x="126.16304542221984" y="96.30335143016141" font-size="3" text-anchor="middle" dominant-baseline="central" fill="#000">53</text>
<line x1="122.44040863544846" y1="96.57366566777212" x2="130.18505303361133" y2="81.37757668442774" stroke="#000" stroke-width="0.3" stroke-dasharray="2 1.5" />
<line x1="130.18505303361133" y1="81.37757668442774" x2="135.37700388425253" y2="84.03030328003564" stroke="#000" stroke-width="0.3" />
<polygon points="130.18505303361133,81.37757668442774 135.37700388425253,84.03030328003564 135.1401068098354,81.29034129087718 132.5441313845148,79.96397799307323" fill="none" stroke="#666" stroke-width="0.2" />
<text x="131.96205796288288" y="84.30683964428205" font-size="3" text-anchor="middle" dominant-baseline="central" fill="#000">54</text>
<line x1="135.37700388425253" y1="84.03030328003564" x2="128.3825113025443" y2="99.30419558462096" stroke="#000" stroke-width="0.3" stroke-dasharray="2 1.5" />
<line x1="128.3825113025443" y1="99.30419558462096" x2="130.18505303361133" y2="81.37757668442774" stroke="#000" stroke-width="0.3" stroke-dasharray="2 1.5" />
<line x1="146.13114578082372" y1="88.69600427927409" x2="151.67582715914202" y2="90.69745699284704" stroke="#000" stroke-width="0.3" />
<polygon points="146.13114578082372,88.69600427927409 151.67582715914202,90.69745699284704 151.0902378999916,87.97922126312648 148.31789721083246,86.97849490634002" fill="none" stroke="#666" stroke-width="0.2" />
<text x="148.29234074197822" y="91.38980502873848" font-size="3" text-anchor="middle" dominant-baseline="central" fill="#000">55</text>
<line x1="151.67582715914202" y1="90.69745699284704" x2="146.88162837171245" y2="105.99328674956341" stroke="#000" stroke-width="0.3" stroke-dasharray="2 1.5" />
<line x1="146.88162837171245" y1="105.99328674956341" x2="146.13114578082372" y2="88.69600427927409" stroke="#000" stroke-width="0.3" stroke-dasharray="2 1.5" />
<line x1="41.13211130131364" y1="54.12899848904364" x2="38.71917107973786" y2="61.64458480902161" stroke="#000" stroke-width="0.3" />
<polygon points="41.13211130131364,54.12899848904364 38.71917107973786,61.64458480902161 42.328640663123,60.73086431765743 43.53511077391088,56.97307115766844" fill="none" stroke="#666" stroke-width="0.2" />
<text x="38.21180492749055" y="57.33655055323414" font-size="3" text-anchor="middle" dominant-baseline="central" fill="#000">62</text>
<line x1="38.71917107973786" y1="61.64458480902161" x2="23.92343559846476" y2="56.9706070849148" stroke="#000" stroke-width="0.3" stroke-dasharray="2 1.5" />
<line x1="23.92343559846476" y1="56.9706070849148" x2="41.13211130131364" y2="54.12899848904364" stroke="#000" stroke-width="0.3" stroke-dasharray="2 1.5" />
<line x1="26.78640061026359" y1="48.9266688672014" x2="41.13211130131364" y2="54.12899848904364" stroke="#000" stroke-width="0.3" stroke-dasharray="2 1.5" />
<line x1="41.13211130131364" y1="54.12899848904364" x2="23.92343559846476" y2="56.9706070849148" stroke="#000" stroke-width="0.3" stroke-dasharray="2 1.5" />
<line x1="23.92343559846476" y1="56.9706070849148" x2="26.78640061026359" y2="48.9266688672014" stroke="#000" stroke-width="0.3" />
<polygon points="23.92343559846476,56.9706070849148 26.78640061026359,48.9266688672014 22.853084070228526,49.79246741691022 21.42160156432911,53.814436525766915" fill="none" stroke="#666" stroke-width="0.2" />
<text x="27.050711608505345" y="53.55219774220608" font-size="3" text-anchor="middle" dominant-baseline="central" fill="#000">63</text>
<line x1="174.7555024114688" y1="96.37661224188786" x2="180.44241141426653" y2="97.16313262271336" stroke="#000" stroke-width="0.3" />
<polygon points="174.7555024114688,96.37661224188786 180.44241141426653,97.16313262271336 179.3352923158973,94.69173892638787 176.4918378144984,94.29847873597512" fill="none" stroke="#666" stroke-width="0.2" />
<text x="177.35235760108068" y="98.55290041285117" font-size="3" text-anchor="middle" dominant-baseline="central" fill="#000">66</text>
<line x1="180.44241141426653" y1="97.16313262271336" x2="179.0271175642684" y2="111.85301421062564" stroke="#000" stroke-width="0.3" stroke-dasharray="2 1.5" />
<line x1="179.0271175642684" y1="111.85301421062564" x2="174.7555024114688" y2="96.37661224188786" stroke="#000" stroke-width="0.3" stroke-dasharray="2 1.5" />
<line x1="163.05461496510424" y1="94.01145353085062" x2="166.16730872189322" y2="110.33340133985632" stroke="#000" stroke-width="0.3" stroke-dasharray="2 1.5" />
<line x1="166.16730872189322" y1="110.33340133985632" x2="159.66951510658362" y2="109.1541419006177" stroke="#000" stroke-width="0.3" />
<polygon points="166.16730872189322,110.33340133985632 159.66951510658362,109.1541419006177 160.82225973471557,112.04807420655119 164.07115654237037,112.6377039261705" fill="none" stroke="#666" stroke-width="0.2" />
<text x="163.23983642430088" y="107.97270237135623" font-size="3" text-anchor="middle" dominant-baseline="central" fill="#000">67</text>
<line x1="159.66951510658362" y1="109.1541419006177" x2="163.05461496510424" y2="94.01145353085062" stroke="#000" stroke-width="0.3" stroke-dasharray="2 1.5" />
<line x1="163.05461496510424" y1="94.01145353085062" x2="168.869705065766" y2="95.31472225933018" stroke="#000" stroke-width="0.3" />
<polygon points="163.05461496510424,94.01145353085062 168.869705065766,95.31472225933018 167.93724003199236,92.66286903694558 165.0296949816615,92.0112346727058" fill="none" stroke="#666" stroke-width="0.2" />
<text x="165.56851204566348" y="96.4195164521045" font-size="3" text-anchor="middle" dominant-baseline="central" fill="#000">68</text>
<line x1="168.869705065766" y1="95.31472225933018" x2="166.16730872189322" y2="110.33340133985632" stroke="#000" stroke-width="0.3" stroke-dasharray="2 1.5" />
<line x1="166.16730872189322" y1="110.33340133985632" x2="163.05461496510424" y2="94.01145353085062" stroke="#000" stroke-width="0.3" stroke-dasharray="2 1.5" />
<line x1="31.44714585102153" y1="100.52917887965634" x2="30.975344239627447" y2="108.47308800120702" stroke="#000" stroke-width="0.3" />
<polygon points="31.44714585102153,100.52917887965634 30.975344239627447,108.47308800120702 34.270858291096246,106.67583136537698 34.506759096793274,102.70387680460163" fill="none" stroke="#666" stroke-width="0.2" />
<text x="29.414411299182603" y="104.39441657800722" font-size="3" text-anchor="middle" dominant-baseline="central" fill="#000">69</text>
<line x1="30.975344239627447" y1="108.47308800120702" x2="13.944863014888432" y2="107.54392359297356" stroke="#000" stroke-width="0.3" stroke-dasharray="2 1.5" />
<line x1="13.944863014888432" y1="107.54392359297356" x2="31.44714585102153" y2="100.52917887965634" stroke="#000" stroke-width="0.3" stroke-dasharray="2 1.5" />
<line x1="13.944863014888432" y1="107.54392359297356" x2="30.975344239627447" y2="108.47308800120702" stroke="#000" stroke-width="0.3" stroke-dasharray="2 1.5" />
<line x1="30.975344239627447" y1="108.47308800120702" x2="13.525449512250914" y2="116.22253577353551" stroke="#000" stroke-width="0.3" stroke-dasharray="2 1.5" />
<line x1="13.525449512250914" y1="116.22253577353551" x2="13.944863014888432" y2="107.54392359297356" stroke="#000" stroke-width="0.3" />
<polygon points="13.525449512250914,116.22253577353551 13.944863014888432,107.54392359297356 10.368564767004273,109.54581123705903 10.158858015685514,113.88511732734001" fill="none" stroke="#666" stroke-width="0.2" />
<text x="15.533057967115132" y="111.97011733708598" font-size="3" text-anchor="middle" dominant-baseline="central" fill="#000">71</text>
<line x1="180.73525529327497" y1="97.2793421861367" x2="187.06477554592936" y2="110.3537838514057" stroke="#000" stroke-width="0.3" stroke-dasharray="2 1.5" />
<line x1="187.06477554592936" y1="110.3537838514057" x2="179.35998697355734" y2="111.79657234904055" stroke="#000" stroke-width="0.3" />
<polygon points="187.06477554592936,110.3537838514057 179.35998697355734,111.79657234904055 181.86329951570428,114.51779065358066 185.71569380189032,113.79639640476324" fill="none" stroke="#666" stroke-width="0.2" />
<text x="182.88107436895575" y="109.30593087495565" font-size="3" text-anchor="middle" dominant-baseline="central" fill="#000">74</text>
<line x1="179.35998697355734" y1="111.79657234904055" x2="180.73525529327497" y2="97.2793421861367" stroke="#000" stroke-width="0.3" stroke-dasharray="2 1.5" />
<line x1="26.78640061026359" y1="48.9266688672014" x2="43.85396081610127" y2="46.73120109869201" stroke="#000" stroke-width="0.3" stroke-dasharray="2 1.5" />
<line x1="43.85396081610127" y1="46.73120109869201" x2="41.13211130131364" y2="54.12899848904364" stroke="#000" stroke-width="0.3" />
<polygon points="43.85396081610127,46.73120109869201 41.13211130131364,54.12899848904364 44.77169263615118,53.368288947370786 46.13261739354502,49.66939025219497" fill="none" stroke="#666" stroke-width="0.2" />
<text x="40.8037478815439" y="49.808565036597244" font-size="3" text-anchor="middle" dominant-baseline="central" fill="#000">75</text>
<line x1="41.13211130131364" y1="54.12899848904364" x2="26.78640061026359" y2="48.9266688672014" stroke="#000" stroke-width="0.3" stroke-dasharray="2 1.5" />
<line x1="14.725923075313052" y1="98.91195029385207" x2="31.44714585102153" y2="100.52917887965634" stroke="#000" stroke-width="0.3" stroke-dasharray="2 1.5" />
<line x1="31.44714585102153" y1="100.52917887965634" x2="13.944863014888432" y2="107.54392359297356" stroke="#000" stroke-width="0.3" stroke-dasharray="2 1.5" />
<line x1="13.944863014888432" y1="107.54392359297356" x2="14.725923075313052" y2="98.91195029385207" stroke="#000" stroke-width="0.3" />
<polygon points="13.944863014888432,107.54392359297356 14.725923075313052,98.91195029385207 11.07786874055829,100.7575195944626 10.687338710345982,105.07350624402333" fill="none" stroke="#666" stroke-width="0.2" />
<text x="16.1280692813496" y="103.3901464128917" font-size="3" text-anchor="middle" dominant-baseline="central" fill="#000">76</text>
<line x1="30.836448347257676" y1="116.44053141648304" x2="31.03160112384006" y2="124.41755099362018" stroke="#000" stroke-width="0.3" />
<polygon points="30.836448347257676,116.44053141648304 31.03160112384006,124.41755099362018 34.17362076054931,122.34523498870293 34.076044372258146,118.35672520013438" fill="none" stroke="#666" stroke-width="0.2" />
<text x="29.13456314883817" y="120.47306390320401" font-size="3" text-anchor="middle" dominant-baseline="central" fill="#000">77</text>
<line x1="31.03160112384006" y1="124.41755099362018" x2="13.47022111015746" y2="124.93260630023757" stroke="#000" stroke-width="0.3" stroke-dasharray="2 1.5" />
<line x1="13.47022111015746" y1="124.93260630023757" x2="30.836448347257676" y2="116.44053141648304" stroke="#000" stroke-width="0.3" stroke-dasharray="2 1.5" />
<line x1="13.525449512250914" y1="116.22253577353551" x2="30.836448347257676" y2="116.44053141648304" stroke="#000" stroke-width="0.3" stroke-dasharray="2 1.5" />
<line x1="30.836448347257676" y1="116.44053141648304" x2="13.47022111015746" y2="124.93260630023757" stroke="#000" stroke-width="0.3" stroke-dasharray="2 1.5" />
<line x1="13.47022111015746" y1="124.93260630023757" x2="13.525449512250914" y2="116.22253577353551" stroke="#000" stroke-width="0.3" />
<polygon points="13.47022111015746,124.93260630023757 13.525449512250914,116.22253577353551 10.027614201046715,118.37796204437363 10,122.73299730772467" fill="none" stroke="#666" stroke-width="0.2" />
<text x="15.297799127666398" y="120.58898416208507" font-size="3" text-anchor="middle" dominant-baseline="central" fill="#000">78</text>
<line x1="180.73525529327497" y1="97.2793421861367" x2="187.67213757122443" y2="99.82992564433395" stroke="#000" stroke-width="0.3" stroke-dasharray="2 1.5" />
<line x1="187.67213757122443" y1="99.82992564433395" x2="187.06477554592936" y2="110.3537838514057" stroke="#000" stroke-width="0.3" stroke-dasharray="2 1.5" />
<line x1="187.06477554592936" y1="110.3537838514057" x2="180.73525529327497" y2="97.2793421861367" stroke="#000" stroke-width="0.3" stroke-dasharray="2 1.5" />
<line x1="174.7555024114688" y1="96.37661224188786" x2="179.0271175642684" y2="111.85301421062564" stroke="#000" stroke-width="0.3" stroke-dasharray="2 1.5" />
<line x1="179.0271175642684" y1="111.85301421062564" x2="172.7194277685182" y2="111.24112934999809" stroke="#000" stroke-width="0.3" />
<polygon points="179.0271175642684,111.85301421062564 172.7194277685182,111.24112934999809 174.0515962732047,113.91717648345508 177.20544117107983,114.22311891376886" fill="none" stroke="#666" stroke-width="0.2" />
<text x="176.04706797214175" y="109.75548165092965" font-size="3" text-anchor="middle" dominant-baseline="central" fill="#000">84</text>
<line x1="172.7194277685182" y1="111.24112934999809" x2="174.7555024114688" y2="96.37661224188786" stroke="#000" stroke-width="0.3" stroke-dasharray="2 1.5" />
<line x1="30.975344239627447" y1="108.47308800120702" x2="30.836448347257676" y2="116.44053141648304" stroke="#000" stroke-width="0.3" />
<polygon points="30.975344239627447,108.47308800120702 30.836448347257676,116.44053141648304 34.058149686460524,114.50422891961195 34.127597632645404,110.52050721197392" fill="none" stroke="#666" stroke-width="0.2" />
<text x="29.10616974749479" y="112.42543519991011" font-size="3" text-anchor="middle" dominant-baseline="central" fill="#000">85</text>
<line x1="30.836448347257676" y1="116.44053141648304" x2="13.525449512250914" y2="116.22253577353551" stroke="#000" stroke-width="0.3" stroke-dasharray="2 1.5" />
<line x1="13.525449512250914" y1="116.22253577353551" x2="30.975344239627447" y2="108.47308800120702" stroke="#000" stroke-width="0.3" stroke-dasharray="2 1.5" />
<line x1="29.976141790706112" y1="41.02983582726104" x2="43.85396081610127" y2="46.73120109869201" stroke="#000" stroke-width="0.3" stroke-dasharray="2 1.5" />
<line x1="43.85396081610127" y1="46.73120109869201" x2="26.78640061026359" y2="48.9266688672014" stroke="#000" stroke-width="0.3" stroke-dasharray="2 1.5" />
<line x1="26.78640061026359" y1="48.9266688672014" x2="29.976141790706112" y2="41.02983582726104" stroke="#000" stroke-width="0.3" />
<polygon points="26.78640061026359,48.9266688672014 29.976141790706112,41.02983582726104 26.019973279619318,41.72814761506912 24.42510268939808,45.6765641350393" fill="none" stroke="#666" stroke-width="0.2" />
<text x="30.05025986546093" y="45.65240131903298" font-size="3" text-anchor="middle" dominant-baseline="central" fill="#000">88</text>
<line x1="33.38197881929548" y1="84.76741322467959" x2="32.25012707849987" y2="92.62269692900755" stroke="#000" stroke-width="0.3" />
<polygon points="33.38197881929548,84.76741322467959 32.25012707849987,92.62269692900755 35.675203495429955,91.11161669924381 36.24112936582776,87.18397484707982" fill="none" stroke="#666" stroke-width="0.2" />
<text x="31.034452149570715" y="88.43834786650946" font-size="3" text-anchor="middle" dominant-baseline="central" fill="#000">100</text>
<line x1="32.25012707849987" y1="92.62269692900755" x2="15.86546256629566" y2="90.34164025849707" stroke="#000" stroke-width="0.3" stroke-dasharray="2 1.5" />
<line x1="15.86546256629566" y1="90.34164025849707" x2="33.38197881929548" y2="84.76741322467959" stroke="#000" stroke-width="0.3" stroke-dasharray="2 1.5" />
<line x1="17.35968792892621" y1="81.84783826893093" x2="33.38197881929548" y2="84.76741322467959" stroke="#000" stroke-width="0.3" stroke-dasharray="2 1.5" />
<line x1="33.38197881929548" y1="84.76741322467959" x2="15.86546256629566" y2="90.34164025849707" stroke="#000" stroke-width="0.3" stroke-dasharray="2 1.5" />
<line x1="15.86546256629566" y1="90.34164025849707" x2="17.35968792892621" y2="81.84783826893093" stroke="#000" stroke-width="0.3" />
<polygon points="15.86546256629566,90.34164025849707 17.35968792892621,81.84783826893093 13.588610792442111,83.37359862127025 12.841498111126846,87.62049961605332" fill="none" stroke="#666" stroke-width="0.2" />
<text x="18.385352598872853" y="86.40660536134689" font-size="3" text-anchor="middle" dominant-baseline="central" fill="#000">101</text>
<line x1="68.55321940770202" y1="49.79371445907525" x2="80.80625244428931" y2="40.69828435778203" stroke="#000" stroke-width="0.3" stroke-dasharray="2 1.5" />
<line x1="80.80625244428931" y1="40.69828435778203" x2="84.5580764959792" y2="45.3283597937343" stroke="#000" stroke-width="0.3" />
<polygon points="80.80625244428931,40.69828435778203 84.5580764959792,45.3283597937343 85.47215065743764,42.670111314070276 83.59623863159268,40.35507359609414" fill="none" stroke="#666" stroke-width="0.2" />
<text x="81.2836656376036" y="44.14654800884053" font-size="3" text-anchor="middle" dominant-baseline="central" fill="#000">103</text>
<line x1="84.5580764959792" y1="45.3283597937343" x2="68.55321940770202" y2="49.79371445907525" stroke="#000" stroke-width="0.3" stroke-dasharray="2 1.5" />
<line x1="72.49735921023043" y1="55.090481011444965" x2="84.5580764959792" y2="45.3283597937343" stroke="#000" stroke-width="0.3" stroke-dasharray="2 1.5" />
<line x1="84.5580764959792" y1="45.3283597937343" x2="88.4866591592898" y2="49.78077800836148" stroke="#000" stroke-width="0.3" />
<polygon points="84.5580764959792,45.3283597937343 88.4866591592898,49.78077800836148 89.285480779313,47.09624038938044 87.32118944765773,44.870031282066854" fill="none" stroke="#666" stroke-width="0.2" />
<text x="85.17265643296135" y="48.74548415877593" font-size="3" text-anchor="middle" dominant-baseline="central" fill="#000">107</text>
<line x1="88.4866591592898" y1="49.78077800836148" x2="72.49735921023043" y2="55.090481011444965" stroke="#000" stroke-width="0.3" stroke-dasharray="2 1.5" />
<line x1="38.71917107973786" y1="61.64458480902161" x2="36.62022306174674" y2="69.26494020976841" stroke="#000" stroke-width="0.3" />
<polygon points="38.71917107973786,61.64458480902161 36.62022306174674,69.26494020976841 40.193102226543225,68.19943056677815 41.24257623553879,64.38925286640476" fill="none" stroke="#666" stroke-width="0.2" />
<text x="35.93432257000528" y="64.97677156576562" font-size="3" text-anchor="middle" dominant-baseline="central" fill="#000">109</text>
<line x1="36.62022306174674" y1="69.26494020976841" x2="21.393973713847252" y2="65.14805569512474" stroke="#000" stroke-width="0.3" stroke-dasharray="2 1.5" />
<line x1="21.393973713847252" y1="65.14805569512474" x2="38.71917107973786" y2="61.64458480902161" stroke="#000" stroke-width="0.3" stroke-dasharray="2 1.5" />
<line x1="23.92343559846476" y1="56.9706070849148" x2="38.71917107973786" y2="61.64458480902161" stroke="#000" stroke-width="0.3" stroke-dasharray="2 1.5" />
<line x1="38.71917107973786" y1="61.64458480902161" x2="21.393973713847252" y2="65.14805569512474" stroke="#000" stroke-width="0.3" stroke-dasharray="2 1.5" />
<line x1="21.393973713847252" y1="65.14805569512474" x2="23.92343559846476" y2="56.9706070849148" stroke="#000" stroke-width="0.3" />
<polygon points="21.393973713847252,65.14805569512474 23.92343559846476,56.9706070849148 20.020090683226424,58.00318448362028 18.755359740917648,62.09190878872525" fill="none" stroke="#666" stroke-width="0.2" />
<text x="24.378317425023873" y="61.59124484646413" font-size="3" text-anchor="middle" dominant-baseline="central" fill="#000">110</text>
<line x1="21.393973713847252" y1="65.14805569512474" x2="36.62022306174674" y2="69.26494020976841" stroke="#000" stroke-width="0.3" stroke-dasharray="2 1.5" />
<line x1="36.62022306174674" y1="69.26494020976841" x2="19.20419271483082" y2="73.4451800063267" stroke="#000" stroke-width="0.3" stroke-dasharray="2 1.5" />
<line x1="19.20419271483082" y1="73.4451800063267" x2="21.393973713847252" y2="65.14805569512474" stroke="#000" stroke-width="0.3" />
<polygon points="19.20419271483082,73.4451800063267 21.393973713847252,65.14805569512474 17.527678739612355,66.34642437331865 16.432788240104152,70.49498652891964" fill="none" stroke="#666" stroke-width="0.2" />
<text x="22.03949029586435" y="69.7559469164036" font-size="3" text-anchor="middle" dominant-baseline="central" fill="#000">111</text>
<line x1="32.25012707849987" y1="92.62269692900755" x2="31.44714585102153" y2="100.52917887965634" stroke="#000" stroke-width="0.3" />
<polygon points="32.25012707849987,92.62269692900755 31.44714585102153,100.52917887965634 34.810483938150625,98.87375088298548 35.211974551889796,94.92050990766108" fill="none" stroke="#666" stroke-width="0.2" />
<text x="30.057848230561373" y="96.39406569575335" font-size="3" text-anchor="middle" dominant-baseline="central" fill="#000">113</text>
<line x1="31.44714585102153" y1="100.52917887965634" x2="14.725923075313052" y2="98.91195029385207" stroke="#000" stroke-width="0.3" stroke-dasharray="2 1.5" />
<line x1="14.725923075313052" y1="98.91195029385207" x2="32.25012707849987" y2="92.62269692900755" stroke="#000" stroke-width="0.3" stroke-dasharray="2 1.5" />
<line x1="34.83982492410273" y1="76.97698667773632" x2="33.38197881929548" y2="84.76741322467959" stroke="#000" stroke-width="0.3" />
<polygon points="34.83982492410273,76.97698667773632 33.38197881929548,84.76741322467959 36.862610964274594,83.40294502986667 37.59153401667823,79.50773175639505" fill="none" stroke="#666" stroke-width="0.2" />
<text x="32.341614440982454" y="80.54110783787988" font-size="3" text-anchor="middle" dominant-baseline="central" fill="#000">115</text>
<line x1="33.38197881929548" y1="84.76741322467959" x2="17.35968792892621" y2="81.84783826893093" stroke="#000" stroke-width="0.3" stroke-dasharray="2 1.5" />
<line x1="17.35968792892621" y1="81.84783826893093" x2="34.83982492410273" y2="76.97698667773632" stroke="#000" stroke-width="0.3" stroke-dasharray="2 1.5" />
<line x1="76.65297067818575" y1="60.209169652079424" x2="88.4866591592898" y2="49.78077800836148" stroke="#000" stroke-width="0.3" stroke-dasharray="2 1.5" />
<line x1="88.4866591592898" y1="49.78077800836148" x2="92.58375698854941" y2="54.04890092477613" stroke="#000" stroke-width="0.3" />
<text x="90.5352080739196" y="51.91483946656881" font-size="3" text-anchor="middle" dominant-baseline="central" fill="#000">60</text>
<line x1="92.58375698854941" y1="54.04890092477613" x2="76.65297067818575" y2="60.209169652079424" stroke="#000" stroke-width="0.3" stroke-dasharray="2 1.5" />
<line x1="36.62022306174674" y1="69.26494020976841" x2="34.83982492410273" y2="76.97698667773632" stroke="#000" stroke-width="0.3" />
<polygon points="36.62022306174674,69.26494020976841 34.83982492410273,76.97698667773632 38.3697430457009,75.76113431580194 39.2599421145229,71.90511108181798" fill="none" stroke="#666" stroke-width="0.2" />
<text x="33.976154482770056" y="72.71606624525654" font-size="3" text-anchor="middle" dominant-baseline="central" fill="#000">119</text>
<line x1="34.83982492410273" y1="76.97698667773632" x2="19.20419271483082" y2="73.4451800063267" stroke="#000" stroke-width="0.3" stroke-dasharray="2 1.5" />
<line x1="19.20419271483082" y1="73.4451800063267" x2="36.62022306174674" y2="69.26494020976841" stroke="#000" stroke-width="0.3" stroke-dasharray="2 1.5" />
<line x1="72.49735921023043" y1="55.090481011444965" x2="88.4866591592898" y2="49.78077800836148" stroke="#000" stroke-width="0.3" stroke-dasharray="2 1.5" />
<line x1="88.4866591592898" y1="49.78077800836148" x2="76.65297067818575" y2="60.209169652079424" stroke="#000" stroke-width="0.3" stroke-dasharray="2 1.5" />
<line x1="76.65297067818575" y1="60.209169652079424" x2="72.49735921023043" y2="55.090481011444965" stroke="#000" stroke-width="0.3" />
<polygon points="76.65297067818575,60.209169652079424 72.49735921023043,55.090481011444965 71.4887866209655,58.03239775878571 73.56659235494315,60.591742079102936" fill="none" stroke="#666" stroke-width="0.2" />
<text x="75.97261404359863" y="56.515305162433954" font-size="3" text-anchor="middle" dominant-baseline="central" fill="#000">120</text>
<line x1="38.90838373005873" y1="215.22915924851088" x2="54.162419888408095" y2="216.7897035600491" stroke="#000" stroke-width="0.3" stroke-dasharray="2 1.5" />
<line x1="54.162419888408095" y1="216.7897035600491" x2="45.06025460557813" y2="222.10672291020998" stroke="#000" stroke-width="0.3" />
<polygon points="54.162419888408095,216.7897035600491 45.06025460557813,222.10672291020998 49.462603666349985,224.41833418580174 54.01368630776496,221.75982451072133" fill="none" stroke="#666" stroke-width="0.2" />
<text x="48.703423860896876" y="217.8939631640833" font-size="3" text-anchor="middle" dominant-baseline="central" fill="#000">121</text>
<line x1="45.06025460557813" y1="222.10672291020998" x2="38.90838373005873" y2="215.22915924851088" stroke="#000" stroke-width="0.3" />
<text x="41.98431916781843" y="218.66794107936045" font-size="3" text-anchor="middle" dominant-baseline="central" fill="#000">72</text>
<line x1="180.73525529327497" y1="97.2793421861367" x2="189.09170529584506" y2="85.32898726165192" stroke="#000" stroke-width="0.3" />
<text x="184.91348029456003" y="91.3041647238943" font-size="3" text-anchor="middle" dominant-baseline="central" fill="#000">162</text>
<line x1="189.09170529584506" y1="85.32898726165192" x2="194.02671603381273" y2="91.41922931435448" stroke="#000" stroke-width="0.3" />
<text x="191.5592106648289" y="88.3741082880032" font-size="3" text-anchor="middle" dominant-baseline="central" fill="#000">79</text>
<line x1="194.02671603381273" y1="91.41922931435448" x2="180.73525529327497" y2="97.2793421861367" stroke="#000" stroke-width="0.3" stroke-dasharray="2 1.5" />
<line x1="15.86546256629566" y1="90.34164025849707" x2="32.25012707849987" y2="92.62269692900755" stroke="#000" stroke-width="0.3" stroke-dasharray="2 1.5" />
<line x1="32.25012707849987" y1="92.62269692900755" x2="14.725923075313052" y2="98.91195029385207" stroke="#000" stroke-width="0.3" stroke-dasharray="2 1.5" />
<line x1="14.725923075313052" y1="98.91195029385207" x2="15.86546256629566" y2="90.34164025849707" stroke="#000" stroke-width="0.3" />
<polygon points="14.725923075313052,98.91195029385207 15.86546256629566,90.34164025849707 12.152453679408,92.02840197094278 11.582683933916707,96.31355698862028" fill="none" stroke="#666" stroke-width="0.2" />
<text x="17.079989343830132" y="94.86404181022327" font-size="3" text-anchor="middle" dominant-baseline="central" fill="#000">124</text>
<line x1="180.73525529327497" y1="97.2793421861367" x2="194.02671603381273" y2="91.41922931435448" stroke="#000" stroke-width="0.3" stroke-dasharray="2 1.5" />
<line x1="194.02671603381273" y1="91.41922931435448" x2="187.67213757122443" y2="99.82992564433395" stroke="#000" stroke-width="0.3" />
<polygon points="194.02671603381273,91.41922931435448 187.67213757122443,99.82992564433395 192.6250607188633,100.2690829468744 195.80234995015743,96.06373478188468" fill="none" stroke="#666" stroke-width="0.2" />
<text x="189.41325166764807" y="94.53949638468828" font-size="3" text-anchor="middle" dominant-baseline="central" fill="#000">130</text>
<line x1="187.67213757122443" y1="99.82992564433395" x2="180.73525529327497" y2="97.2793421861367" stroke="#000" stroke-width="0.3" stroke-dasharray="2 1.5" />
<line x1="38.90838373005873" y1="215.22915924851088" x2="51.77331168036368" y2="208.36366848765437" stroke="#000" stroke-width="0.3" stroke-dasharray="2 1.5" />
<line x1="51.77331168036368" y1="208.36366848765437" x2="54.162419888408095" y2="216.7897035600491" stroke="#000" stroke-width="0.3" />
<text x="52.96786578438589" y="212.57668602385172" font-size="3" text-anchor="middle" dominant-baseline="central" fill="#000">128</text>
<line x1="54.162419888408095" y1="216.7897035600491" x2="38.90838373005873" y2="215.22915924851088" stroke="#000" stroke-width="0.3" stroke-dasharray="2 1.5" />
<line x1="19.20419271483082" y1="73.4451800063267" x2="34.83982492410273" y2="76.97698667773632" stroke="#000" stroke-width="0.3" stroke-dasharray="2 1.5" />
<line x1="34.83982492410273" y1="76.97698667773632" x2="17.35968792892621" y2="81.84783826893093" stroke="#000" stroke-width="0.3" stroke-dasharray="2 1.5" />
<line x1="17.35968792892621" y1="81.84783826893093" x2="19.20419271483082" y2="73.4451800063267" stroke="#000" stroke-width="0.3" />
<polygon points="17.35968792892621,81.84783826893093 19.20419271483082,73.4451800063267 15.382003213312963,74.80804265761591 14.459750820360657,79.00937178891803" fill="none" stroke="#666" stroke-width="0.2" />
<text x="20.04007931466569" y="78.03244602630532" font-size="3" text-anchor="middle" dominant-baseline="central" fill="#000">131</text>
<line x1="68.55321940770202" y1="49.79371445907525" x2="84.5580764959792" y2="45.3283597937343" stroke="#000" stroke-width="0.3" stroke-dasharray="2 1.5" />
<line x1="84.5580764959792" y1="45.3283597937343" x2="72.49735921023043" y2="55.090481011444965" stroke="#000" stroke-width="0.3" stroke-dasharray="2 1.5" />
<line x1="72.49735921023043" y1="55.090481011444965" x2="68.55321940770202" y2="49.79371445907525" stroke="#000" stroke-width="0.3" />
<polygon points="72.49735921023043,55.090481011444965 68.55321940770202,49.79371445907525 67.42054773738623,52.69556201817905 69.39261763865045,55.343945294363905" fill="none" stroke="#666" stroke-width="0.2" />
<text x="71.96900096168778" y="51.36706440377871" font-size="3" text-anchor="middle" dominant-baseline="central" fill="#000">133</text>
<line x1="76.65297067818575" y1="60.209169652079424" x2="92.58375698854941" y2="54.04890092477613" stroke="#000" stroke-width="0.3" stroke-dasharray="2 1.5" />
<line x1="92.58375698854941" y1="54.04890092477613" x2="81.01208151298853" y2="65.1413793064609" stroke="#000" stroke-width="0.3" stroke-dasharray="2 1.5" />
<line x1="81.01208151298853" y1="65.1413793064609" x2="76.65297067818575" y2="60.209169652079424" stroke="#000" stroke-width="0.3" />
<polygon points="81.01208151298853,65.1413793064609 76.65297067818575,60.209169652079424 75.76986452513385,63.1858663995959 77.94941994253526,65.65197122678664" fill="none" stroke="#666" stroke-width="0.2" />
<text x="80.18126228193165" y="61.48325489065391" font-size="3" text-anchor="middle" dominant-baseline="central" fill="#000">137</text>
<line x1="61.37941914900595" y1="38.62571469625388" x2="73.77304395531547" y2="30.942004738533363" stroke="#000" stroke-width="0.3" stroke-dasharray="2 1.5" />
<line x1="73.77304395531547" y1="30.942004738533363" x2="74.00729183222889" y2="31.152694397190906" stroke="#000" stroke-width="0.3" />
<text x="73.89016789377217" y="31.047349567862135" font-size="3" text-anchor="middle" dominant-baseline="central" fill="#000">125</text>
<line x1="74.00729183222889" y1="31.152694397190906" x2="61.37941914900595" y2="38.62571469625388" stroke="#000" stroke-width="0.3" stroke-dasharray="2 1.5" />
<line x1="64.82817957357838" y1="44.32760868112569" x2="80.80625244428931" y2="40.69828435778203" stroke="#000" stroke-width="0.3" stroke-dasharray="2 1.5" />
<line x1="80.80625244428931" y1="40.69828435778203" x2="68.55321940770202" y2="49.79371445907525" stroke="#000" stroke-width="0.3" stroke-dasharray="2 1.5" />
<line x1="68.55321940770202" y1="49.79371445907525" x2="64.82817957357838" y2="44.32760868112569" stroke="#000" stroke-width="0.3" />
<polygon points="68.55321940770202,49.79371445907525 64.82817957357838,44.32760868112569 63.57299722092946,47.18415105926253 65.43551713799127,49.91720394823731" fill="none" stroke="#666" stroke-width="0.2" />
<text x="68.1781430433452" y="46.04699906338715" font-size="3" text-anchor="middle" dominant-baseline="central" fill="#000">139</text>
<line x1="61.37941914900595" y1="38.62571469625388" x2="74.00729183222889" y2="31.152694397190906" stroke="#000" stroke-width="0.3" stroke-dasharray="2 1.5" />
<line x1="74.00729183222889" y1="31.152694397190906" x2="61.47679056653474" y2="38.9489894005348" stroke="#000" stroke-width="0.3" stroke-dasharray="2 1.5" />
<line x1="61.47679056653474" y1="38.9489894005348" x2="61.37941914900595" y2="38.62571469625388" stroke="#000" stroke-width="0.3" />
<text x="61.42810485777034" y="38.78735204839434" font-size="3" text-anchor="middle" dominant-baseline="central" fill="#000">106</text>
<line x1="64.82817957357838" y1="44.32760868112569" x2="77.23923662552603" y2="35.89759494078879" stroke="#000" stroke-width="0.3" stroke-dasharray="2 1.5" />
<line x1="77.23923662552603" y1="35.89759494078879" x2="80.80625244428931" y2="40.69828435778203" stroke="#000" stroke-width="0.3" />
<text x="79.02274453490767" y="38.29793964928541" font-size="3" text-anchor="middle" dominant-baseline="central" fill="#000">96</text>
<line x1="80.80625244428931" y1="40.69828435778203" x2="64.82817957357838" y2="44.32760868112569" stroke="#000" stroke-width="0.3" stroke-dasharray="2 1.5" />
<line x1="81.01208151298853" y1="65.1413793064609" x2="96.84085341996558" y2="58.12645344134312" stroke="#000" stroke-width="0.3" stroke-dasharray="2 1.5" />
<line x1="96.84085341996558" y1="58.12645344134312" x2="85.56636747957278" y2="69.87906054861911" stroke="#000" stroke-width="0.3" stroke-dasharray="2 1.5" />
<line x1="85.56636747957278" y1="69.87906054861911" x2="81.01208151298853" y2="65.1413793064609" stroke="#000" stroke-width="0.3" />
<polygon points="85.56636747957278,69.87906054861911 81.01208151298853,65.1413793064609 80.25558050777131,68.14751400363414 82.53272349106341,70.51635462471326" fill="none" stroke="#666" stroke-width="0.2" />
<text x="84.58688503775957" y="66.2627917255626" font-size="3" text-anchor="middle" dominant-baseline="central" fill="#000">141</text>
<line x1="81.01208151298853" y1="65.1413793064609" x2="92.58375698854941" y2="54.04890092477613" stroke="#000" stroke-width="0.3" stroke-dasharray="2 1.5" />
<line x1="92.58375698854941" y1="54.04890092477613" x2="96.84085341996558" y2="58.12645344134312" stroke="#000" stroke-width="0.3" />
<text x="94.71230520425749" y="56.087677183059625" font-size="3" text-anchor="middle" dominant-baseline="central" fill="#000">94</text>
<line x1="96.84085341996558" y1="58.12645344134312" x2="81.01208151298853" y2="65.1413793064609" stroke="#000" stroke-width="0.3" stroke-dasharray="2 1.5" />
<line x1="100.31247914335404" y1="82.85005330624551" x2="115.29114186826943" y2="72.41926831122538" stroke="#000" stroke-width="0.3" stroke-dasharray="2 1.5" />
<line x1="115.29114186826943" y1="72.41926831122538" x2="105.5582340313755" y2="86.7366962885788" stroke="#000" stroke-width="0.3" stroke-dasharray="2 1.5" />
<line x1="105.5582340313755" y1="86.7366962885788" x2="100.31247914335404" y2="82.85005330624551" stroke="#000" stroke-width="0.3" />
<polygon points="105.5582340313755,86.7366962885788 100.31247914335404,82.85005330624551 100.0692606724261,85.92001600703742 102.69213811643682,87.86333749820406" fill="none" stroke="#666" stroke-width="0.2" />
<text x="104.00692614829006" y="83.3470903592402" font-size="3" text-anchor="middle" dominant-baseline="central" fill="#000">142</text>
<line x1="100.31247914335404" y1="82.85005330624551" x2="110.48357388759304" y2="69.15883462610493" stroke="#000" stroke-width="0.3" stroke-dasharray="2 1.5" />
<line x1="110.48357388759304" y1="69.15883462610493" x2="115.29114186826943" y2="72.41926831122538" stroke="#000" stroke-width="0.3" />
<text x="112.88735787793124" y="70.78905146866515" font-size="3" text-anchor="middle" dominant-baseline="central" fill="#000">135</text>
<line x1="115.29114186826943" y1="72.41926831122538" x2="100.31247914335404" y2="82.85005330624551" stroke="#000" stroke-width="0.3" stroke-dasharray="2 1.5" />
<line x1="77.23923662552603" y1="35.89759494078879" x2="64.82817957357838" y2="44.32760868112569" stroke="#000" stroke-width="0.3" stroke-dasharray="2 1.5" />
<line x1="64.82817957357838" y1="44.32760868112569" x2="61.47679056653474" y2="38.9489894005348" stroke="#000" stroke-width="0.3" />
<polygon points="64.82817957357838,44.32760868112569 61.47679056653474,38.9489894005348 60.163190106059275,41.63419982349998 61.83888460958113,44.32350946379542" fill="none" stroke="#666" stroke-width="0.2" />
<text x="64.68018879754548" y="40.686394990509825" font-size="3" text-anchor="middle" dominant-baseline="central" fill="#000">148</text>
<line x1="61.47679056653474" y1="38.9489894005348" x2="77.23923662552603" y2="35.89759494078879" stroke="#000" stroke-width="0.3" stroke-dasharray="2 1.5" />
<line x1="74.00729183222889" y1="31.152694397190906" x2="77.23923662552603" y2="35.89759494078879" stroke="#000" stroke-width="0.3" />
<polygon points="74.00729183222889,31.152694397190906 77.23923662552603,35.89759494078879 78.3292106446409,33.41859188757047 76.71323824799234,31.046141615771525" fill="none" stroke="#666" stroke-width="0.2" />
<text x="74.13558604904333" y="34.538462799314864" font-size="3" text-anchor="middle" dominant-baseline="central" fill="#000">149</text>
<line x1="77.23923662552603" y1="35.89759494078879" x2="61.47679056653474" y2="38.9489894005348" stroke="#000" stroke-width="0.3" stroke-dasharray="2 1.5" />
<line x1="61.47679056653474" y1="38.9489894005348" x2="74.00729183222889" y2="31.152694397190906" stroke="#000" stroke-width="0.3" stroke-dasharray="2 1.5" />
<line x1="95.22563993731228" y1="78.7404980231291" x2="110.48357388759304" y2="69.15883462610493" stroke="#000" stroke-width="0.3" stroke-dasharray="2 1.5" />
<line x1="110.48357388759304" y1="69.15883462610493" x2="100.31247914335404" y2="82.85005330624551" stroke="#000" stroke-width="0.3" stroke-dasharray="2 1.5" />
<line x1="100.31247914335404" y1="82.85005330624551" x2="95.22563993731228" y2="78.7404980231291" stroke="#000" stroke-width="0.3" />
<polygon points="100.31247914335404,82.85005330624551 95.22563993731228,78.7404980231291 94.85352762557616,81.80262252632492 97.39694722859703,83.85740016788311" fill="none" stroke="#666" stroke-width="0.2" />
<text x="98.90022530817515" y="79.39510995818596" font-size="3" text-anchor="middle" dominant-baseline="central" fill="#000">150</text>
<line x1="33.572620107554364" y1="33.3004004642623" x2="46.81780268000933" y2="39.400111373500536" stroke="#000" stroke-width="0.3" stroke-dasharray="2 1.5" />
<line x1="46.81780268000933" y1="39.400111373500536" x2="33.32632606060534" y2="33.626032849088396" stroke="#000" stroke-width="0.3" stroke-dasharray="2 1.5" />
<line x1="33.32632606060534" y1="33.626032849088396" x2="33.572620107554364" y2="33.3004004642623" stroke="#000" stroke-width="0.3" />
<text x="33.449473084079855" y="33.46321665667535" font-size="3" text-anchor="middle" dominant-baseline="central" fill="#000">81</text>
<line x1="33.32632606060534" y1="33.626032849088396" x2="46.81780268000933" y2="39.400111373500536" stroke="#000" stroke-width="0.3" stroke-dasharray="2 1.5" />
<line x1="46.81780268000933" y1="39.400111373500536" x2="46.74140650274587" y2="39.77674780587395" stroke="#000" stroke-width="0.3" />
<text x="46.7796045913776" y="39.588429589687244" font-size="3" text-anchor="middle" dominant-baseline="central" fill="#000">138</text>
<line x1="46.74140650274587" y1="39.77674780587395" x2="33.32632606060534" y2="33.626032849088396" stroke="#000" stroke-width="0.3" stroke-dasharray="2 1.5" />
<line x1="90.30719627012323" y1="74.41453175938565" x2="105.79981335245557" y2="65.68670282042584" stroke="#000" stroke-width="0.3" stroke-dasharray="2 1.5" />
<line x1="105.79981335245557" y1="65.68670282042584" x2="95.22563993731228" y2="78.7404980231291" stroke="#000" stroke-width="0.3" stroke-dasharray="2 1.5" />
<line x1="95.22563993731228" y1="78.7404980231291" x2="90.30719627012323" y2="74.41453175938565" stroke="#000" stroke-width="0.3" />
<polygon points="95.22563993731228,78.7404980231291 90.30719627012323,74.41453175938565 89.80642068142309,77.46340079219713 92.26564251501763,79.62638392406886" fill="none" stroke="#666" stroke-width="0.2" />
<text x="93.95519762402124" y="75.22592203388243" font-size="3" text-anchor="middle" dominant-baseline="central" fill="#000">154</text>
<line x1="85.56636747957278" y1="69.87906054861911" x2="96.84085341996558" y2="58.12645344134312" stroke="#000" stroke-width="0.3" stroke-dasharray="2 1.5" />
<line x1="96.84085341996558" y1="58.12645344134312" x2="101.24919129100465" y2="62.00754950168731" stroke="#000" stroke-width="0.3" />
<text x="99.04502235548512" y="60.06700147151521" font-size="3" text-anchor="middle" dominant-baseline="central" fill="#000">98</text>
<line x1="101.24919129100465" y1="62.00754950168731" x2="85.56636747957278" y2="69.87906054861911" stroke="#000" stroke-width="0.3" stroke-dasharray="2 1.5" />
<line x1="29.976141790706112" y1="41.02983582726104" x2="46.74140650274587" y2="39.77674780587395" stroke="#000" stroke-width="0.3" stroke-dasharray="2 1.5" />
<line x1="46.74140650274587" y1="39.77674780587395" x2="43.85396081610127" y2="46.73120109869201" stroke="#000" stroke-width="0.3" />
<polygon points="46.74140650274587,39.77674780587395 43.85396081610127,46.73120109869201 47.357603554889636,46.147566050145336 48.801326398211955,42.67033940373631" fill="none" stroke="#666" stroke-width="0.2" />
<text x="43.635277199511" y="42.56375364555446" font-size="3" text-anchor="middle" dominant-baseline="central" fill="#000">157</text>
<line x1="43.85396081610127" y1="46.73120109869201" x2="29.976141790706112" y2="41.02983582726104" stroke="#000" stroke-width="0.3" stroke-dasharray="2 1.5" />
<line x1="33.32632606060534" y1="33.626032849088396" x2="46.74140650274587" y2="39.77674780587395" stroke="#000" stroke-width="0.3" stroke-dasharray="2 1.5" />
<line x1="46.74140650274587" y1="39.77674780587395" x2="29.976141790706112" y2="41.02983582726104" stroke="#000" stroke-width="0.3" stroke-dasharray="2 1.5" />
<line x1="29.976141790706112" y1="41.02983582726104" x2="33.32632606060534" y2="33.626032849088396" stroke="#000" stroke-width="0.3" />
<text x="31.651233925655724" y="37.327934338174714" font-size="3" text-anchor="middle" dominant-baseline="central" fill="#000">146</text>
<line x1="59.24775094866121" y1="31.08241327860513" x2="73.77304395531547" y2="30.942004738533363" stroke="#000" stroke-width="0.3" stroke-dasharray="2 1.5" />
<line x1="73.77304395531547" y1="30.942004738533363" x2="61.37941914900595" y2="38.62571469625388" stroke="#000" stroke-width="0.3" stroke-dasharray="2 1.5" />
<line x1="61.37941914900595" y1="38.62571469625388" x2="59.24775094866121" y2="31.08241327860513" stroke="#000" stroke-width="0.3" stroke-dasharray="2 1.5" />
<line x1="59.24775094866121" y1="31.08241327860513" x2="68.40530638939893" y2="25.86133498555718" stroke="#000" stroke-width="0.3" stroke-dasharray="2 1.5" />
<line x1="68.40530638939893" y1="25.86133498555718" x2="73.77304395531547" y2="30.942004738533363" stroke="#000" stroke-width="0.3" />
<text x="71.0891751723572" y="28.40166986204527" font-size="3" text-anchor="middle" dominant-baseline="central" fill="#000">152</text>
<line x1="73.77304395531547" y1="30.942004738533363" x2="59.24775094866121" y2="31.08241327860513" stroke="#000" stroke-width="0.3" stroke-dasharray="2 1.5" />
<line x1="85.56636747957278" y1="69.87906054861911" x2="101.24919129100465" y2="62.00754950168731" stroke="#000" stroke-width="0.3" stroke-dasharray="2 1.5" />
<line x1="101.24919129100465" y1="62.00754950168731" x2="90.30719627012323" y2="74.41453175938565" stroke="#000" stroke-width="0.3" stroke-dasharray="2 1.5" />
<line x1="90.30719627012323" y1="74.41453175938565" x2="85.56636747957278" y2="69.87906054861911" stroke="#000" stroke-width="0.3" />
<polygon points="90.30719627012323,74.41453175938565 85.56636747957278,69.87906054861911 84.93738619290377,72.90925986753092 87.307800588179,75.1769954729142" fill="none" stroke="#666" stroke-width="0.2" />
<text x="89.18109229293283" y="70.84614570770808" font-size="3" text-anchor="middle" dominant-baseline="central" fill="#000">159</text>
<line x1="95.22563993731228" y1="78.7404980231291" x2="105.79981335245557" y2="65.68670282042584" stroke="#000" stroke-width="0.3" stroke-dasharray="2 1.5" />
<line x1="105.79981335245557" y1="65.68670282042584" x2="110.48357388759304" y2="69.15883462610493" stroke="#000" stroke-width="0.3" />
<text x="108.14169362002431" y="67.42276872326539" font-size="3" text-anchor="middle" dominant-baseline="central" fill="#000">70</text>
<line x1="110.48357388759304" y1="69.15883462610493" x2="95.22563993731228" y2="78.7404980231291" stroke="#000" stroke-width="0.3" stroke-dasharray="2 1.5" />
<line x1="90.30719627012323" y1="74.41453175938565" x2="101.24919129100465" y2="62.00754950168731" stroke="#000" stroke-width="0.3" stroke-dasharray="2 1.5" />
<line x1="101.24919129100465" y1="62.00754950168731" x2="105.79981335245557" y2="65.68670282042584" stroke="#000" stroke-width="0.3" />
<text x="103.52450232173011" y="63.84712616105657" font-size="3" text-anchor="middle" dominant-baseline="central" fill="#000">82</text>
<line x1="105.79981335245557" y1="65.68670282042584" x2="90.30719627012323" y2="74.41453175938565" stroke="#000" stroke-width="0.3" stroke-dasharray="2 1.5" />
<line x1="61.37941914900595" y1="38.62571469625388" x2="46.81780268000933" y2="39.400111373500536" stroke="#000" stroke-width="0.3" />
<text x="54.09861091450764" y="39.01291303487721" font-size="3" text-anchor="middle" dominant-baseline="central" fill="#000">163</text>
<line x1="46.81780268000933" y1="39.400111373500536" x2="48.70897701048563" y2="30.848540481394302" stroke="#000" stroke-width="0.3" stroke-dasharray="2 1.5" />
<line x1="48.70897701048563" y1="30.848540481394302" x2="61.37941914900595" y2="38.62571469625388" stroke="#000" stroke-width="0.3" stroke-dasharray="2 1.5" />
<line x1="59.24775094866121" y1="31.08241327860513" x2="61.37941914900595" y2="38.62571469625388" stroke="#000" stroke-width="0.3" stroke-dasharray="2 1.5" />
<line x1="61.37941914900595" y1="38.62571469625388" x2="48.70897701048563" y2="30.848540481394302" stroke="#000" stroke-width="0.3" stroke-dasharray="2 1.5" />
<line x1="48.70897701048563" y1="30.848540481394302" x2="59.24775094866121" y2="31.08241327860513" stroke="#000" stroke-width="0.3" />
<polygon points="48.70897701048563,30.848540481394302 59.24775094866121,31.08241327860513 56.70660658300166,26.80843550403219 51.437219613913854,26.69149910542678" fill="none" stroke="#666" stroke-width="0.2" />
<text x="53.93842883929579" y="32.765033821185796" font-size="3" text-anchor="middle" dominant-baseline="central" fill="#000">160</text>
<line x1="33.572620107554364" y1="33.3004004642623" x2="48.70897701048563" y2="30.848540481394302" stroke="#000" stroke-width="0.3" stroke-dasharray="2 1.5" />
<line x1="48.70897701048563" y1="30.848540481394302" x2="46.81780268000933" y2="39.400111373500536" stroke="#000" stroke-width="0.3" stroke-dasharray="2 1.5" />
<line x1="46.81780268000933" y1="39.400111373500536" x2="33.572620107554364" y2="33.3004004642623" stroke="#000" stroke-width="0.3" stroke-dasharray="2 1.5" />
<line x1="39.310841094384145" y1="26.07411392855846" x2="48.70897701048563" y2="30.848540481394302" stroke="#000" stroke-width="0.3" />
<polygon points="39.310841094384145,26.07411392855846 48.70897701048563,30.848540481394302 48.2692136525946,25.895679476744746 43.57014569454385,23.508466200326815" fill="none" stroke="#666" stroke-width="0.2" />
<text x="43.194646685913355" y="30.066116061410057" font-size="3" text-anchor="middle" dominant-baseline="central" fill="#000">161</text>
<line x1="48.70897701048563" y1="30.848540481394302" x2="33.572620107554364" y2="33.3004004642623" stroke="#000" stroke-width="0.3" stroke-dasharray="2 1.5" />
<line x1="33.572620107554364" y1="33.3004004642623" x2="39.310841094384145" y2="26.07411392855846" stroke="#000" stroke-width="0.3" />
<text x="36.44173060096925" y="29.687257196410382" font-size="3" text-anchor="middle" dominant-baseline="central" fill="#000">155</text>
<line x1="195.87501191224163" y1="116.14171852406338" x2="205.9" y2="100.88195496110319" stroke="#000" stroke-width="0.3" stroke-dasharray="2 1.5" />
<line x1="205.9" y1="100.88195496110319" x2="205.29260843401556" y2="111.40579376125174" stroke="#000" stroke-width="0.3" />
<text x="205.5963042170078" y="106.14387436117747" font-size="3" text-anchor="middle" dominant-baseline="central" fill="#000">73</text>
<line x1="205.29260843401556" y1="111.40579376125174" x2="195.87501191224163" y2="116.14171852406338" stroke="#000" stroke-width="0.3" />
<text x="200.5838101731286" y="113.77375614265756" font-size="3" text-anchor="middle" dominant-baseline="central" fill="#000">121</text>
<line x1="205.9" y1="100.88195496110319" x2="195.87501191224163" y2="116.14171852406338" stroke="#000" stroke-width="0.3" stroke-dasharray="2 1.5" />
<line x1="195.87501191224163" y1="116.14171852406338" x2="197.08976363368777" y2="95.0940202884455" stroke="#000" stroke-width="0.3" stroke-dasharray="2 1.5" />
<line x1="197.08976363368777" y1="95.0940202884455" x2="205.9" y2="100.88195496110319" stroke="#000" stroke-width="0.3" />
<text x="201.49488181684387" y="97.98798762477435" font-size="3" text-anchor="middle" dominant-baseline="central" fill="#000">91</text>
<line x1="197.08976363368777" y1="95.0940202884455" x2="195.87501191224163" y2="116.14171852406338" stroke="#000" stroke-width="0.3" stroke-dasharray="2 1.5" />
<line x1="195.87501191224163" y1="116.14171852406338" x2="187.06477554592936" y2="110.3537838514057" stroke="#000" stroke-width="0.3" />
<text x="191.4698937290855" y="113.24775118773454" font-size="3" text-anchor="middle" dominant-baseline="central" fill="#000">127</text>
<line x1="187.06477554592936" y1="110.3537838514057" x2="197.08976363368777" y2="95.0940202884455" stroke="#000" stroke-width="0.3" stroke-dasharray="2 1.5" />
<line x1="197.08976363368777" y1="95.0940202884455" x2="187.06477554592936" y2="110.3537838514057" stroke="#000" stroke-width="0.3" stroke-dasharray="2 1.5" />
<line x1="187.06477554592936" y1="110.3537838514057" x2="187.67213757122443" y2="99.82992564433395" stroke="#000" stroke-width="0.3" stroke-dasharray="2 1.5" />
<line x1="187.67213757122443" y1="99.82992564433395" x2="197.08976363368777" y2="95.0940202884455" stroke="#000" stroke-width="0.3" />
<text x="192.3809506024561" y="97.46197296638974" font-size="3" text-anchor="middle" dominant-baseline="central" fill="#000">130</text>
<line x1="59.24775094866121" y1="31.08241327860513" x2="68.46246095455999" y2="15.320119991639128" stroke="#000" stroke-width="0.3" stroke-dasharray="2 1.5" />
<line x1="68.46246095455999" y1="15.320119991639128" x2="68.40530638939893" y2="25.86133498555718" stroke="#000" stroke-width="0.3" />
<text x="68.43388367197946" y="20.590727488598155" font-size="3" text-anchor="middle" dominant-baseline="central" fill="#000">153</text>
<line x1="68.40530638939893" y1="25.86133498555718" x2="59.24775094866121" y2="31.08241327860513" stroke="#000" stroke-width="0.3" stroke-dasharray="2 1.5" />
<line x1="68.46246095455999" y1="15.320119991639128" x2="59.24775094866121" y2="31.08241327860513" stroke="#000" stroke-width="0.3" stroke-dasharray="2 1.5" />
<line x1="59.24775094866121" y1="31.08241327860513" x2="59.36208866108726" y2="10" stroke="#000" stroke-width="0.3" stroke-dasharray="2 1.5" />
<line x1="59.36208866108726" y1="10" x2="68.46246095455999" y2="15.320119991639128" stroke="#000" stroke-width="0.3" />
<text x="63.91227480782362" y="12.660059995819564" font-size="3" text-anchor="middle" dominant-baseline="central" fill="#000">143</text>
<line x1="59.36208866108726" y1="10" x2="59.24775094866121" y2="31.08241327860513" stroke="#000" stroke-width="0.3" stroke-dasharray="2 1.5" />
<line x1="59.24775094866121" y1="31.08241327860513" x2="50.14737865518847" y2="25.762293286966006" stroke="#000" stroke-width="0.3" />
<text x="54.69756480192484" y="28.42235328278557" font-size="3" text-anchor="middle" dominant-baseline="central" fill="#000">160</text>
<line x1="50.14737865518847" y1="25.762293286966006" x2="59.36208866108726" y2="10" stroke="#000" stroke-width="0.3" stroke-dasharray="2 1.5" />
<line x1="59.36208866108726" y1="10" x2="50.14737865518847" y2="25.762293286966006" stroke="#000" stroke-width="0.3" stroke-dasharray="2 1.5" />
<line x1="50.14737865518847" y1="25.762293286966006" x2="50.20456373386363" y2="15.221096131390285" stroke="#000" stroke-width="0.3" />
<text x="50.17597119452605" y="20.491694709178145" font-size="3" text-anchor="middle" dominant-baseline="central" fill="#000">161</text>
<line x1="50.20456373386363" y1="15.221096131390285" x2="59.36208866108726" y2="10" stroke="#000" stroke-width="0.3" />
<text x="54.783326197475446" y="12.610548065695141" font-size="3" text-anchor="middle" dominant-baseline="central" fill="#000">156</text>
</svg>