<svg xmlns="http://www.w3.org/2000/svg" width="215.9mm" height="279.4mm" viewBox="0 0 215.9 279.4">
<rect x="0" y="0" width="215.9" height="279.4" fill="none" stroke="#ccc" stroke-width="0.15" />
<line x1="22.02623600105626" y1="80.85312037794641" x2="21.810986024918584" y2="98.9005955021928" stroke="#000" stroke-width="0.3" stroke-dasharray="2 1.5" />
<line x1="21.810986024918584" y1="98.9005955021928" x2="14.153489408517839" y2="85.44208284633943" stroke="#000" stroke-width="0.3" />
<polygon points="21.810986024918584,98.9005955021928 14.153489408517839,85.44208284633943 10.684458500276675,91.86970965686308 14.513206808477072,98.59896598478977" fill="none" stroke="#666" stroke-width="0.2" />
<text x="19.546729266606157" y="91.28118964169913" font-size="3" text-anchor="middle" dominant-baseline="central" fill="#000">15</text>
<line x1="14.153489408517839" y1="85.44208284633943" x2="22.02623600105626" y2="80.85312037794641" stroke="#000" stroke-width="0.3" />
<polygon points="14.153489408517839,85.44208284633943 22.02623600105626,80.85312037794641 18.22246436556445,78.8512623580293 14.286091069295221,81.14574359222581" fill="none" stroke="#666" stroke-width="0.2" />
<text x="18.99631864575422" y="84.70270213207253" font-size="3" text-anchor="middle" dominant-baseline="central" fill="#000">16</text>
<line x1="21.810986024918584" y1="98.9005955021928" x2="22.02623600105626" y2="80.85312037794641" stroke="#000" stroke-width="0.3" stroke-dasharray="2 1.5" />
<line x1="22.02623600105626" y1="80.85312037794641" x2="35.02791930615052" y2="94.7223778648143" stroke="#000" stroke-width="0.3" stroke-dasharray="2 1.5" />
<line x1="35.02791930615052" y1="94.7223778648143" x2="21.810986024918584" y2="98.9005955021928" stroke="#000" stroke-width="0.3" />
<polygon points="35.02791930615052,94.7223778648143 21.810986024918584,98.9005955021928 26.78650640017795,103.14281440534097 33.39497304079394,101.0537055866517" fill="none" stroke="#666" stroke-width="0.2" />
<text x="27.876890865037822" y="95.09520387095728" font-size="3" text-anchor="middle" dominant-baseline="central" fill="#000">17</text>
<line x1="60.572402947622756" y1="76.29817535443878" x2="32.274054775332225" y2="61.201331840593355" stroke="#000" stroke-width="0.3" stroke-dasharray="2 1.5" />
<line x1="32.274054775332225" y1="61.201331840593355" x2="59.38625977437557" y2="67.66354312044515" stroke="#000" stroke-width="0.3" stroke-dasharray="2 1.5" />
<line x1="59.38625977437557" y1="67.66354312044515" x2="60.572402947622756" y2="76.29817535443878" stroke="#000" stroke-width="0.3" />
<text x="59.97933136099916" y="71.98085923744196" font-size="3" text-anchor="middle" dominant-baseline="central" fill="#000">40</text>
<line x1="32.274054775332225" y1="61.201331840593355" x2="60.572402947622756" y2="76.29817535443878" stroke="#000" stroke-width="0.3" stroke-dasharray="2 1.5" />
<line x1="60.572402947622756" y1="76.29817535443878" x2="31.70968721784821" y2="65.72252273340875" stroke="#000" stroke-width="0.3" stroke-dasharray="2 1.5" />
<line x1="31.70968721784821" y1="65.72252273340875" x2="32.274054775332225" y2="61.201331840593355" stroke="#000" stroke-width="0.3" />
<polygon points="31.70968721784821,65.72252273340875 32.274054775332225,61.201331840593355 30.324486528835077,62.105882540803606 30.042302750093043,64.3664779872113" fill="none" stroke="#666" stroke-width="0.2" />
<text x="33.77800913791346" y="63.68488589327213" font-size="3" text-anchor="middle" dominant-baseline="central" fill="#000">43</text>
<line x1="28.16263193275981" y1="74.11639840535916" x2="20.945477088916235" y2="64.46080878553211" stroke="#000" stroke-width="0.3" stroke-dasharray="2 1.5" />
<line x1="20.945477088916235" y1="64.46080878553211" x2="25.396660927878035" y2="65.43376318373504" stroke="#000" stroke-width="0.3" />
<text x="23.171069008397133" y="64.94728598463357" font-size="3" text-anchor="middle" dominant-baseline="central" fill="#000">43</text>
<line x1="25.396660927878035" y1="65.43376318373504" x2="28.16263193275981" y2="74.11639840535916" stroke="#000" stroke-width="0.3" />
<polygon points="25.396660927878035,65.43376318373504 28.16263193275981,74.11639840535916 30.944193270189007,70.83935119800043 29.56120776774812,66.49803358718836" fill="none" stroke="#666" stroke-width="0.2" />
<text x="25.064569286626792" y="70.32144183926465" font-size="3" text-anchor="middle" dominant-baseline="central" fill="#000">44</text>
<line x1="20.945477088916235" y1="64.46080878553211" x2="28.16263193275981" y2="74.11639840535916" stroke="#000" stroke-width="0.3" stroke-dasharray="2 1.5" />
<line x1="28.16263193275981" y1="74.11639840535916" x2="11.740884467749444" y2="74.56589034313491" stroke="#000" stroke-width="0.3" stroke-dasharray="2 1.5" />
<line x1="11.740884467749444" y1="74.56589034313491" x2="20.945477088916235" y2="64.46080878553211" stroke="#000" stroke-width="0.3" />
<polygon points="11.740884467749444,74.56589034313491 20.945477088916235,64.46080878553211 14.60229631058341,63.30524212646609 10,68.3577829052675" fill="none" stroke="#666" stroke-width="0.2" />
<text x="17.673882303555747" y="70.72546896883516" font-size="3" text-anchor="middle" dominant-baseline="central" fill="#000">45</text>
<line x1="11.740884467749444" y1="74.56589034313491" x2="28.16263193275981" y2="74.11639840535916" stroke="#000" stroke-width="0.3" stroke-dasharray="2 1.5" />
<line x1="28.16263193275981" y1="74.11639840535916" x2="22.02623600105626" y2="80.85312037794641" stroke="#000" stroke-width="0.3" stroke-dasharray="2 1.5" />
<line x1="22.02623600105626" y1="80.85312037794641" x2="11.740884467749444" y2="74.56589034313491" stroke="#000" stroke-width="0.3" stroke-dasharray="2 1.5" />
<line x1="11.740884467749444" y1="74.56589034313491" x2="22.02623600105626" y2="80.85312037794641" stroke="#000" stroke-width="0.3" stroke-dasharray="2 1.5" />
<line x1="22.02623600105626" y1="80.85312037794641" x2="13.123869064455246" y2="78.90720712891452" stroke="#000" stroke-width="0.3" />
<text x="17.575052532755755" y="79.88016375343047" font-size="3" text-anchor="middle" dominant-baseline="central" fill="#000">16</text>
<line x1="13.123869064455246" y1="78.90720712891452" x2="11.740884467749444" y2="74.56589034313491" stroke="#000" stroke-width="0.3" />
<polygon points="13.123869064455246,78.90720712891452 11.740884467749444,74.56589034313491 10.35010390261406,76.20441337826213 11.041596200966936,78.37507177115194" fill="none" stroke="#666" stroke-width="0.2" />
<text x="14.14745398325103" y="76.19018792189405" font-size="3" text-anchor="middle" dominant-baseline="central" fill="#000">46</text>
<line x1="32.452238038253626" y1="47.53365283747592" x2="47.18592417549002" y2="39.14973389024813" stroke="#000" stroke-width="0.3" stroke-dasharray="2 1.5" />
<line x1="47.18592417549002" y1="39.14973389024813" x2="49.008668053483085" y2="45.36117881346454" stroke="#000" stroke-width="0.3" />
<text x="48.097296114486554" y="42.25545635185634" font-size="3" text-anchor="middle" dominant-baseline="central" fill="#000">34</text>
<line x1="49.008668053483085" y1="45.36117881346454" x2="32.452238038253626" y2="47.53365283747592" stroke="#000" stroke-width="0.3" stroke-dasharray="2 1.5" />
<line x1="47.18592417549002" y1="39.14973389024813" x2="32.452238038253626" y2="47.53365283747592" stroke="#000" stroke-width="0.3" stroke-dasharray="2 1.5" />
<line x1="32.452238038253626" y1="47.53365283747592" x2="32.184009839945944" y2="42.98527604318437" stroke="#000" stroke-width="0.3" />
<text x="32.318123939099785" y="45.25946444033015" font-size="3" text-anchor="middle" dominant-baseline="central" fill="#000">46</text>
<line x1="32.184009839945944" y1="42.98527604318437" x2="47.18592417549002" y2="39.14973389024813" stroke="#000" stroke-width="0.3" />
<text x="39.68496700771799" y="41.06750496671625" font-size="3" text-anchor="middle" dominant-baseline="central" fill="#000">15</text>
<line x1="59.38625977437557" y1="67.66354312044515" x2="49.008668053483085" y2="45.36117881346454" stroke="#000" stroke-width="0.3" stroke-dasharray="2 1.5" />
<line x1="49.008668053483085" y1="45.36117881346454" x2="57.486972491266144" y2="34.25653218482377" stroke="#000" stroke-width="0.3" />
<text x="53.24782027237461" y="39.80885549914416" font-size="3" text-anchor="middle" dominant-baseline="central" fill="#000">84</text>
<line x1="57.486972491266144" y1="34.25653218482377" x2="59.38625977437557" y2="67.66354312044515" stroke="#000" stroke-width="0.3" stroke-dasharray="2 1.5" />
<line x1="32.274054775332225" y1="61.201331840593355" x2="49.008668053483085" y2="45.36117881346454" stroke="#000" stroke-width="0.3" stroke-dasharray="2 1.5" />
<line x1="49.008668053483085" y1="45.36117881346454" x2="59.38625977437557" y2="67.66354312044515" stroke="#000" stroke-width="0.3" stroke-dasharray="2 1.5" />
<line x1="59.38625977437557" y1="67.66354312044515" x2="32.274054775332225" y2="61.201331840593355" stroke="#000" stroke-width="0.3" stroke-dasharray="2 1.5" />
<line x1="49.008668053483085" y1="45.36117881346454" x2="32.274054775332225" y2="61.201331840593355" stroke="#000" stroke-width="0.3" stroke-dasharray="2 1.5" />
<line x1="32.274054775332225" y1="61.201331840593355" x2="32.452238038253626" y2="47.53365283747592" stroke="#000" stroke-width="0.3" />
<text x="32.36314640679292" y="54.36749233903464" font-size="3" text-anchor="middle" dominant-baseline="central" fill="#000">45</text>
<line x1="32.452238038253626" y1="47.53365283747592" x2="49.008668053483085" y2="45.36117881346454" stroke="#000" stroke-width="0.3" stroke-dasharray="2 1.5" />
<line x1="59.38625977437557" y1="67.66354312044515" x2="57.486972491266144" y2="34.25653218482377" stroke="#000" stroke-width="0.3" stroke-dasharray="2 1.5" />
<line x1="57.486972491266144" y1="34.25653218482377" x2="61.53282880646671" y2="21.46225238632475" stroke="#000" stroke-width="0.3" stroke-dasharray="2 1.5" />
<line x1="61.53282880646671" y1="21.46225238632475" x2="59.38625977437557" y2="67.66354312044515" stroke="#000" stroke-width="0.3" />
<polygon points="61.53282880646671,21.46225238632475 59.38625977437557,67.66354312044515 78.4034183260465,56.97184804975151 79.4767028420921,33.871202682691305" fill="none" stroke="#666" stroke-width="0.2" />
<text x="58.66148393246726" y="44.479357648316764" font-size="3" text-anchor="middle" dominant-baseline="central" fill="#000">86</text>
<line x1="61.53282880646671" y1="21.46225238632475" x2="57.486972491266144" y2="34.25653218482377" stroke="#000" stroke-width="0.3" stroke-dasharray="2 1.5" />
<line x1="57.486972491266144" y1="34.25653218482377" x2="53.59993079370516" y2="31.03553435753343" stroke="#000" stroke-width="0.3" />
<text x="55.54345164248565" y="32.646033271178595" font-size="3" text-anchor="middle" dominant-baseline="central" fill="#000">32</text>
<line x1="53.59993079370516" y1="31.03553435753343" x2="61.53282880646671" y2="21.46225238632475" stroke="#000" stroke-width="0.3" stroke-dasharray="2 1.5" />
<line x1="41.72703712337548" y1="21.19706346421045" x2="61.53282880646671" y2="21.46225238632475" stroke="#000" stroke-width="0.3" stroke-dasharray="2 1.5" />
<line x1="61.53282880646671" y1="21.46225238632475" x2="53.59993079370516" y2="31.03553435753343" stroke="#000" stroke-width="0.3" stroke-dasharray="2 1.5" />
<line x1="53.59993079370516" y1="31.03553435753343" x2="41.72703712337548" y2="21.19706346421045" stroke="#000" stroke-width="0.3" />
<text x="47.663483958540326" y="26.11629891087194" font-size="3" text-anchor="middle" dominant-baseline="central" fill="#000">31</text>
<line x1="61.53282880646671" y1="21.46225238632475" x2="41.72703712337548" y2="21.19706346421045" stroke="#000" stroke-width="0.3" stroke-dasharray="2 1.5" />
<line x1="41.72703712337548" y1="21.19706346421045" x2="48.341830815354996" y2="13.214448133151329" stroke="#000" stroke-width="0.3" />
<polygon points="41.72703712337548,21.19706346421045 48.341830815354996,13.214448133151329 43.495086259936464,12.564184489124303 40.187689413946714,16.55549215465387" fill="none" stroke="#666" stroke-width="0.2" />
<text x="46.42041931967844" y="18.354252472040116" font-size="3" text-anchor="middle" dominant-baseline="central" fill="#000">54</text>
<line x1="48.341830815354996" y1="13.214448133151329" x2="61.53282880646671" y2="21.46225238632475" stroke="#000" stroke-width="0.3" />
<polygon points="48.341830815354996,13.214448133151329 61.53282880646671,21.46225238632475 61.53420100995815,14.123902126586707 54.93870201440228,10" fill="none" stroke="#666" stroke-width="0.2" />
<text x="53.983046313505184" y="18.864568791462514" font-size="3" text-anchor="middle" dominant-baseline="central" fill="#000">55</text>
<line x1="60.572402947622756" y1="76.29817535443878" x2="28.16263193275981" y2="74.11639840535916" stroke="#000" stroke-width="0.3" stroke-dasharray="2 1.5" />
<line x1="28.16263193275981" y1="74.11639840535916" x2="31.70968721784821" y2="65.72252273340875" stroke="#000" stroke-width="0.3" />
<text x="29.93615957530401" y="69.91946056938396" font-size="3" text-anchor="middle" dominant-baseline="central" fill="#000">44</text>
<line x1="31.70968721784821" y1="65.72252273340875" x2="60.572402947622756" y2="76.29817535443878" stroke="#000" stroke-width="0.3" stroke-dasharray="2 1.5" />
<line x1="28.16263193275981" y1="74.11639840535916" x2="60.572402947622756" y2="76.29817535443878" stroke="#000" stroke-width="0.3" stroke-dasharray="2 1.5" />
<line x1="60.572402947622756" y1="76.29817535443878" x2="50.427397286001174" y2="88.85286000754593" stroke="#000" stroke-width="0.3" />
<text x="55.499900116811965" y="82.57551768099236" font-size="3" text-anchor="middle" dominant-baseline="central" fill="#000">37</text>
<line x1="50.427397286001174" y1="88.85286000754593" x2="28.16263193275981" y2="74.11639840535916" stroke="#000" stroke-width="0.3" stroke-dasharray="2 1.5" />
<line x1="28.16263193275981" y1="74.11639840535916" x2="35.02791930615052" y2="94.7223778648143" stroke="#000" stroke-width="0.3" stroke-dasharray="2 1.5" />
<line x1="35.02791930615052" y1="94.7223778648143" x2="22.02623600105626" y2="80.85312037794641" stroke="#000" stroke-width="0.3" stroke-dasharray="2 1.5" />
<line x1="22.02623600105626" y1="80.85312037794641" x2="28.16263193275981" y2="74.11639840535916" stroke="#000" stroke-width="0.3" stroke-dasharray="2 1.5" />
<line x1="35.02791930615052" y1="94.7223778648143" x2="28.16263193275981" y2="74.11639840535916" stroke="#000" stroke-width="0.3" stroke-dasharray="2 1.5" />
<line x1="28.16263193275981" y1="74.11639840535916" x2="50.427397286001174" y2="88.85286000754593" stroke="#000" stroke-width="0.3" stroke-dasharray="2 1.5" />
<line x1="50.427397286001174" y1="88.85286000754593" x2="35.02791930615052" y2="94.7223778648143" stroke="#000" stroke-width="0.3" />
<text x="42.727658296075845" y="91.78761893618011" font-size="3" text-anchor="middle" dominant-baseline="central" fill="#000">35</text>
<line x1="92.32989198531783" y1="25.161699087331456" x2="96.17848063547811" y2="10.615589857072235" stroke="#000" stroke-width="0.3" stroke-dasharray="2 1.5" />
<line x1="96.17848063547811" y1="10.615589857072235" x2="103.5466896682246" y2="19.94236488117769" stroke="#000" stroke-width="0.3" />
<polygon points="96.17848063547811,10.615589857072235 103.5466896682246,19.94236488117769 105.43534741968016,14.663387512052724 101.75124290330692,10" fill="none" stroke="#666" stroke-width="0.2" />
<text x="98.45016197233157" y="16.394800277097005" font-size="3" text-anchor="middle" dominant-baseline="central" fill="#000">22</text>
<line x1="103.5466896682246" y1="19.94236488117769" x2="92.32989198531783" y2="25.161699087331456" stroke="#000" stroke-width="0.3" stroke-dasharray="2 1.5" />
<line x1="96.17848063547811" y1="10.615589857072235" x2="92.32989198531783" y2="25.161699087331456" stroke="#000" stroke-width="0.3" stroke-dasharray="2 1.5" />
<line x1="92.32989198531783" y1="25.161699087331456" x2="87.45102973237836" y2="14.676592953528676" stroke="#000" stroke-width="0.3" />
<polygon points="92.32989198531783,25.161699087331456 87.45102973237836,14.676592953528676 84.4767028420921,19.24941438815516 86.91613396856185,24.491967455056542" fill="none" stroke="#666" stroke-width="0.2" />
<text x="91.5224357133855" y="19.159765961330827" font-size="3" text-anchor="middle" dominant-baseline="central" fill="#000">23</text>
<line x1="87.45102973237836" y1="14.676592953528676" x2="96.17848063547811" y2="10.615589857072235" stroke="#000" stroke-width="0.3" />
<text x="91.81475518392824" y="12.646091405300457" font-size="3" text-anchor="middle" dominant-baseline="central" fill="#000">21</text>
<line x1="103.5466896682246" y1="19.94236488117769" x2="95.06838523044154" y2="31.047011509818457" stroke="#000" stroke-width="0.3" />
<polygon points="103.5466896682246,19.94236488117769 95.06838523044154,31.047011509818457 101.62981999134361,31.66217162777149 105.86897221023514,26.109848313451106" fill="none" stroke="#666" stroke-width="0.2" />
<text x="97.87685549025625" y="24.402374535429637" font-size="3" text-anchor="middle" dominant-baseline="central" fill="#000">84</text>
<line x1="95.06838523044154" y1="31.047011509818457" x2="92.32989198531783" y2="25.161699087331456" stroke="#000" stroke-width="0.3" />
<text x="93.69913860787969" y="28.10435529857496" font-size="3" text-anchor="middle" dominant-baseline="central" fill="#000">33</text>
<line x1="92.32989198531783" y1="25.161699087331456" x2="103.5466896682246" y2="19.94236488117769" stroke="#000" stroke-width="0.3" stroke-dasharray="2 1.5" />
<line x1="129.0968980999139" y1="23.931514554827345" x2="120.23458496118394" y2="15.299168080902403" stroke="#000" stroke-width="0.3" stroke-dasharray="2 1.5" />
<line x1="120.23458496118394" y1="15.299168080902403" x2="124.76384418305516" y2="10.649215558030518" stroke="#000" stroke-width="0.3" />
<polygon points="120.23458496118394,15.299168080902403 124.76384418305516,10.649215558030518 121.77154836843862,10 119.50691875750299,12.324976261435943" fill="none" stroke="#666" stroke-width="0.2" />
<text x="123.78863069186258" y="14.230140094733724" font-size="3" text-anchor="middle" dominant-baseline="central" fill="#000">52</text>
<line x1="124.76384418305516" y1="10.649215558030518" x2="129.0968980999139" y2="23.931514554827345" stroke="#000" stroke-width="0.3" />
<text x="126.93037114148453" y="17.290365056428932" font-size="3" text-anchor="middle" dominant-baseline="central" fill="#000">85</text>
<line x1="119.06084564017814" y1="30.299943538961234" x2="120.23458496118394" y2="15.299168080902403" stroke="#000" stroke-width="0.3" stroke-dasharray="2 1.5" />
<line x1="120.23458496118394" y1="15.299168080902403" x2="129.0968980999139" y2="23.931514554827345" stroke="#000" stroke-width="0.3" stroke-dasharray="2 1.5" />
<line x1="129.0968980999139" y1="23.931514554827345" x2="119.06084564017814" y2="30.299943538961234" stroke="#000" stroke-width="0.3" />
<text x="124.07887187004602" y="27.115729046894288" font-size="3" text-anchor="middle" dominant-baseline="central" fill="#000">6</text>
<line x1="120.23458496118394" y1="15.299168080902403" x2="119.06084564017814" y2="30.299943538961234" stroke="#000" stroke-width="0.3" stroke-dasharray="2 1.5" />
<line x1="119.06084564017814" y1="30.299943538961234" x2="112.16534695454905" y2="23.583378695834" stroke="#000" stroke-width="0.3" />
<polygon points="119.06084564017814,30.299943538961234 112.16534695454905,23.583378695834 111.20259568870543,28.02071938086745 114.65034503151998,31.379001802431066" fill="none" stroke="#666" stroke-width="0.2" />
<text x="116.8690488364919" y="25.652249150857372" font-size="3" text-anchor="middle" dominant-baseline="central" fill="#000">71</text>
<line x1="112.16534695454905" y1="23.583378695834" x2="120.23458496118394" y2="15.299168080902403" stroke="#000" stroke-width="0.3" />
<polygon points="112.16534695454905,23.583378695834 120.23458496118394,15.299168080902403 114.90359121355257,14.142525531981345 110.86897221023514,18.284630839447146" fill="none" stroke="#666" stroke-width="0.2" />
<text x="117.48937812410816" y="20.697225722474872" font-size="3" text-anchor="middle" dominant-baseline="central" fill="#000">72</text>
<line x1="134.0968980999139" y1="19.268267377387073" x2="143.67680490391857" y2="13.276177360681336" stroke="#000" stroke-width="0.3" stroke-dasharray="2 1.5" />
<line x1="143.67680490391857" y1="13.276177360681336" x2="142.03888297420806" y2="22.91224467119352" stroke="#000" stroke-width="0.3" />
<text x="142.85784393906332" y="18.09421101593743" font-size="3" text-anchor="middle" dominant-baseline="central" fill="#000">87</text>
<line x1="142.03888297420806" y1="22.91224467119352" x2="134.0968980999139" y2="19.268267377387073" stroke="#000" stroke-width="0.3" />
<polygon points="142.03888297420806,22.91224467119352 134.0968980999139,19.268267377387073 134.62480340096485,23.356055650556357 138.59579583811197,25.17804429745958" fill="none" stroke="#666" stroke-width="0.2" />
<text x="138.81853302016722" y="19.45424384140287" font-size="3" text-anchor="middle" dominant-baseline="central" fill="#000">50</text>
<line x1="143.67680490391857" y1="13.276177360681336" x2="134.0968980999139" y2="19.268267377387073" stroke="#000" stroke-width="0.3" stroke-dasharray="2 1.5" />
<line x1="134.0968980999139" y1="19.268267377387073" x2="134.97685510352787" y2="14.091387598581118" stroke="#000" stroke-width="0.3" />
<text x="134.53687660172088" y="16.679827487984095" font-size="3" text-anchor="middle" dominant-baseline="central" fill="#000">1</text>
<line x1="134.97685510352787" y1="14.091387598581118" x2="143.67680490391857" y2="13.276177360681336" stroke="#000" stroke-width="0.3" />
<polygon points="134.97685510352787,14.091387598581118 143.67680490391857,13.276177360681336 141.17573335866098,10 136.82575845846563,10.407605118949892" fill="none" stroke="#666" stroke-width="0.2" />
<text x="139.4947595455101" y="15.475931934614055" font-size="3" text-anchor="middle" dominant-baseline="central" fill="#000">51</text>
</svg>