<svg xmlns="http://www.w3.org/2000/svg" width="215.9mm" height="279.4mm" viewBox="0 0 215.9 279.4">
<rect x="0" y="0" width="215.9" height="279.4" fill="none" stroke="#ccc" stroke-width="0.15" />
<line x1="72.10880593353116" y1="255.9257943197753" x2="76.05723125443977" y2="228.57793843473797" stroke="#000" stroke-width="0.3" stroke-dasharray="2 1.5" />
<line x1="76.05723125443977" y1="228.57793843473797" x2="80.83625772883778" y2="251.86479314075" stroke="#000" stroke-width="0.3" />
<polygon points="76.05723125443977,228.57793843473797 80.83625772883778,251.86479314075 88.9562429926431,244.1314688744878 86.56672975544407,232.4880415214818" fill="none" stroke="#666" stroke-width="0.2" />
<text x="76.68349296180516" y="240.5832276986152" font-size="3" text-anchor="middle" dominant-baseline="central" fill="#000">20</text>
<line x1="80.83625772883778" y1="251.86479314075" x2="72.10880593353116" y2="255.9257943197753" stroke="#000" stroke-width="0.3" />
<polygon points="80.83625772883778,251.86479314075 72.10880593353116,255.9257943197753 75.91506935396792,258.4015247431416 80.27879525162122,256.3710241536289" fill="none" stroke="#666" stroke-width="0.2" />
<text x="75.71315187114152" y="252.26331882963302" font-size="3" text-anchor="middle" dominant-baseline="central" fill="#000">21</text>
<line x1="76.05723125443977" y1="228.57793843473797" x2="72.10880593353116" y2="255.9257943197753" stroke="#000" stroke-width="0.3" stroke-dasharray="2 1.5" />
<line x1="72.10880593353116" y1="255.9257943197753" x2="62.351082674629254" y2="234.9556049494924" stroke="#000" stroke-width="0.3" stroke-dasharray="2 1.5" />
<line x1="62.351082674629254" y1="234.9556049494924" x2="76.05723125443977" y2="228.57793843473797" stroke="#000" stroke-width="0.3" stroke-dasharray="2 1.5" />
<line x1="65.46787177041955" y1="265.3935681321075" x2="59.00179275385475" y2="264.82254298781993" stroke="#000" stroke-width="0.3" />
<polygon points="65.46787177041955,265.3935681321075 59.00179275385475,264.82254298781993 60.38990245028093,267.55173088051765 63.622941958563345,267.8372434526615" fill="none" stroke="#666" stroke-width="0.2" />
<text x="62.39317560482749" y="263.31503370124983" font-size="3" text-anchor="middle" dominant-baseline="central" fill="#000">33</text>
<line x1="59.00179275385475" y1="264.82254298781993" x2="62.80412950195311" y2="259.5835852161851" stroke="#000" stroke-width="0.3" />
<polygon points="59.00179275385475,264.82254298781993 62.80412950195311,259.5835852161851 59.75796220627459,259.37238995985444 57.856793832225414,261.9918688456719" fill="none" stroke="#666" stroke-width="0.2" />
<text x="62.35971897222352" y="263.2603514721216" font-size="3" text-anchor="middle" dominant-baseline="central" fill="#000">34</text>
<line x1="62.80412950195311" y1="259.5835852161851" x2="65.46787177041955" y2="265.3935681321075" stroke="#000" stroke-width="0.3" stroke-dasharray="2 1.5" />
<line x1="62.80412950195311" y1="259.5835852161851" x2="72.10880593353116" y2="255.9257943197753" stroke="#000" stroke-width="0.3" stroke-dasharray="2 1.5" />
<line x1="72.10880593353116" y1="255.9257943197753" x2="65.46787177041955" y2="265.3935681321075" stroke="#000" stroke-width="0.3" />
<text x="68.78833885197535" y="260.65968122594137" font-size="3" text-anchor="middle" dominant-baseline="central" fill="#000">23</text>
<line x1="65.46787177041955" y1="265.3935681321075" x2="62.80412950195311" y2="259.5835852161851" stroke="#000" stroke-width="0.3" stroke-dasharray="2 1.5" />
<line x1="62.80412950195311" y1="259.5835852161851" x2="62.351082674629254" y2="234.9556049494924" stroke="#000" stroke-width="0.3" stroke-dasharray="2 1.5" />
<line x1="62.351082674629254" y1="234.9556049494924" x2="72.10880593353116" y2="255.9257943197753" stroke="#000" stroke-width="0.3" stroke-dasharray="2 1.5" />
<line x1="72.10880593353116" y1="255.9257943197753" x2="62.80412950195311" y2="259.5835852161851" stroke="#000" stroke-width="0.3" stroke-dasharray="2 1.5" />
<line x1="57.04821837764282" y1="246.97349738481458" x2="62.351082674629254" y2="234.9556049494924" stroke="#000" stroke-width="0.3" stroke-dasharray="2 1.5" />
<line x1="62.351082674629254" y1="234.9556049494924" x2="62.80412950195311" y2="259.5835852161851" stroke="#000" stroke-width="0.3" stroke-dasharray="2 1.5" />
<line x1="62.80412950195311" y1="259.5835852161851" x2="57.04821837764282" y2="246.97349738481458" stroke="#000" stroke-width="0.3" />
<text x="59.92617393979796" y="253.27854130049985" font-size="3" text-anchor="middle" dominant-baseline="central" fill="#000">17</text>
<line x1="40.98652802135821" y1="243.2833395524812" x2="62.351082674629254" y2="234.9556049494924" stroke="#000" stroke-width="0.3" stroke-dasharray="2 1.5" />
<line x1="62.351082674629254" y1="234.9556049494924" x2="57.04821837764282" y2="246.97349738481458" stroke="#000" stroke-width="0.3" stroke-dasharray="2 1.5" />
<line x1="57.04821837764282" y1="246.97349738481458" x2="40.98652802135821" y2="243.2833395524812" stroke="#000" stroke-width="0.3" />
<polygon points="57.04821837764282,246.97349738481458 40.98652802135821,243.2833395524812 43.52588747749601,250.63055515307843 51.55673265563834,252.47563406924507" fill="none" stroke="#666" stroke-width="0.2" />
<text x="49.42042088564984" y="243.37412300815967" font-size="3" text-anchor="middle" dominant-baseline="central" fill="#000">35</text>
<line x1="40.98652802135821" y1="243.2833395524812" x2="39.31148597650207" y2="232.92095783254058" stroke="#000" stroke-width="0.3" stroke-dasharray="2 1.5" />
<line x1="39.31148597650207" y1="232.92095783254058" x2="62.351082674629254" y2="234.9556049494924" stroke="#000" stroke-width="0.3" />
<polygon points="39.31148597650207,232.92095783254058 62.351082674629254,234.9556049494924 57.40504234687818,225.23110449100358 45.885243997814605,224.21378093252767" fill="none" stroke="#666" stroke-width="0.2" />
<text x="50.672940982873385" y="235.73130324973016" font-size="3" text-anchor="middle" dominant-baseline="central" fill="#000">36</text>
<line x1="62.351082674629254" y1="234.9556049494924" x2="40.98652802135821" y2="243.2833395524812" stroke="#000" stroke-width="0.3" stroke-dasharray="2 1.5" />
<line x1="30.055832814423297" y1="255.16025619386534" x2="39.31148597650207" y2="232.92095783254058" stroke="#000" stroke-width="0.3" stroke-dasharray="2 1.5" />
<line x1="39.31148597650207" y1="232.92095783254058" x2="40.98652802135821" y2="243.2833395524812" stroke="#000" stroke-width="0.3" stroke-dasharray="2 1.5" />
<line x1="40.98652802135821" y1="243.2833395524812" x2="30.055832814423297" y2="255.16025619386534" stroke="#000" stroke-width="0.3" />
<polygon points="40.98652802135821,243.2833395524812 30.055832814423297,255.16025619386534 37.53927327271067,256.56330511629335 43.00462087617813,250.62484679560123" fill="none" stroke="#666" stroke-width="0.2" />
<text x="34.19672309132807" y="248.00285866627473" font-size="3" text-anchor="middle" dominant-baseline="central" fill="#000">37</text>
<line x1="39.31148597650207" y1="232.92095783254058" x2="30.055832814423297" y2="255.16025619386534" stroke="#000" stroke-width="0.3" stroke-dasharray="2 1.5" />
<line x1="30.055832814423297" y1="255.16025619386534" x2="26.02962501140433" y2="251.85650118748322" stroke="#000" stroke-width="0.3" stroke-dasharray="2 1.5" />
<line x1="26.02962501140433" y1="251.85650118748322" x2="39.31148597650207" y2="232.92095783254058" stroke="#000" stroke-width="0.3" />
<polygon points="26.02962501140433,251.85650118748322 39.31148597650207,232.92095783254058 28.416803393250603,232.34209928523717 21.77587291070172,241.80987096270846" fill="none" stroke="#666" stroke-width="0.2" />
<text x="34.14418582901673" y="243.42237047068468" font-size="3" text-anchor="middle" dominant-baseline="central" fill="#000">38</text>
<line x1="30.055832814423297" y1="255.16025619386534" x2="30.90850062906982" y2="262.34159956781764" stroke="#000" stroke-width="0.3" stroke-dasharray="2 1.5" />
<line x1="30.90850062906982" y1="262.34159956781764" x2="26.02962501140433" y2="251.85650118748322" stroke="#000" stroke-width="0.3" />
<polygon points="30.90850062906982,262.34159956781764 26.02962501140433,251.85650118748322 23.05530456368697,256.42932602963305 25.494742372519703,261.6718752198002" fill="none" stroke="#666" stroke-width="0.2" />
<text x="30.101036664323452" y="256.33966814700636" font-size="3" text-anchor="middle" dominant-baseline="central" fill="#000">39</text>
<line x1="26.02962501140433" y1="251.85650118748322" x2="30.055832814423297" y2="255.16025619386534" stroke="#000" stroke-width="0.3" stroke-dasharray="2 1.5" />
<line x1="30.90850062906982" y1="262.34159956781764" x2="30.055832814423297" y2="255.16025619386534" stroke="#000" stroke-width="0.3" stroke-dasharray="2 1.5" />
<line x1="30.055832814423297" y1="255.16025619386534" x2="34.498580735894166" y2="262.658642710312" stroke="#000" stroke-width="0.3" />
<polygon points="30.055832814423297,255.16025619386534 34.498580735894166,262.658642710312 36.38724836210508,259.00694691261197 34.165874401369656,255.25775365438864" fill="none" stroke="#666" stroke-width="0.2" />
<text x="30.72861495713646" y="259.8269805857046" font-size="3" text-anchor="middle" dominant-baseline="central" fill="#000">40</text>
<line x1="34.498580735894166" y1="262.658642710312" x2="30.90850062906982" y2="262.34159956781764" stroke="#000" stroke-width="0.3" />
<polygon points="34.498580735894166,262.658642710312 30.90850062906982,262.34159956781764 31.67920339877812,263.8568923961709 33.47424345219032,264.0154139674181" fill="none" stroke="#666" stroke-width="0.2" />
<text x="32.86188402517433" y="260.7070992803512" font-size="3" text-anchor="middle" dominant-baseline="central" fill="#000">41</text>
<line x1="71.47787887655144" y1="179.68757426824294" x2="37.95678517531331" y2="182.5300823429532" stroke="#000" stroke-width="0.3" stroke-dasharray="2 1.5" />
<line x1="37.95678517531331" y1="182.5300823429532" x2="64.10967598546713" y2="170.36079500773414" stroke="#000" stroke-width="0.3" stroke-dasharray="2 1.5" />
<line x1="64.10967598546713" y1="170.36079500773414" x2="71.47787887655144" y2="179.68757426824294" stroke="#000" stroke-width="0.3" />
<text x="67.79377743100929" y="175.02418463798853" font-size="3" text-anchor="middle" dominant-baseline="central" fill="#000">26</text>
<line x1="37.95678517531331" y1="182.5300823429532" x2="71.47787887655144" y2="179.68757426824294" stroke="#000" stroke-width="0.3" stroke-dasharray="2 1.5" />
<line x1="71.47787887655144" y1="179.68757426824294" x2="42.835639605114125" y2="193.01519058229692" stroke="#000" stroke-width="0.3" stroke-dasharray="2 1.5" />
<line x1="42.835639605114125" y1="193.01519058229692" x2="37.95678517531331" y2="182.5300823429532" stroke="#000" stroke-width="0.3" />
<text x="40.39621239021372" y="187.77263646262506" font-size="3" text-anchor="middle" dominant-baseline="central" fill="#000">39</text>
<line x1="76.25689032225144" y1="202.97442550351272" x2="42.835639605114125" y2="193.01519058229692" stroke="#000" stroke-width="0.3" stroke-dasharray="2 1.5" />
<line x1="42.835639605114125" y1="193.01519058229692" x2="71.47787887655144" y2="179.68757426824294" stroke="#000" stroke-width="0.3" stroke-dasharray="2 1.5" />
<line x1="71.47787887655144" y1="179.68757426824294" x2="76.25689032225144" y2="202.97442550351272" stroke="#000" stroke-width="0.3" />
<text x="73.86738459940145" y="191.33099988587782" font-size="3" text-anchor="middle" dominant-baseline="central" fill="#000">27</text>
<line x1="42.835639605114125" y1="193.01519058229692" x2="76.25689032225144" y2="202.97442550351272" stroke="#000" stroke-width="0.3" stroke-dasharray="2 1.5" />
<line x1="76.25689032225144" y1="202.97442550351272" x2="52.59336929511478" y2="213.98539191990875" stroke="#000" stroke-width="0.3" stroke-dasharray="2 1.5" />
<line x1="52.59336929511478" y1="213.98539191990875" x2="42.835639605114125" y2="193.01519058229692" stroke="#000" stroke-width="0.3" />
<text x="47.714504450114454" y="203.50029125110285" font-size="3" text-anchor="middle" dominant-baseline="central" fill="#000">38</text>
<line x1="52.59336929511478" y1="213.98539191990875" x2="76.05723125443977" y2="228.57793843473797" stroke="#000" stroke-width="0.3" stroke-dasharray="2 1.5" />
<line x1="76.05723125443977" y1="228.57793843473797" x2="62.351082674629254" y2="234.9556049494924" stroke="#000" stroke-width="0.3" stroke-dasharray="2 1.5" />
<line x1="62.351082674629254" y1="234.9556049494924" x2="52.59336929511478" y2="213.98539191990875" stroke="#000" stroke-width="0.3" />
<text x="57.47222598487202" y="224.47049843470057" font-size="3" text-anchor="middle" dominant-baseline="central" fill="#000">36</text>
<line x1="76.05723125443977" y1="228.57793843473797" x2="52.59336929511478" y2="213.98539191990875" stroke="#000" stroke-width="0.3" stroke-dasharray="2 1.5" />
<line x1="52.59336929511478" y1="213.98539191990875" x2="76.25689032225144" y2="202.97442550351272" stroke="#000" stroke-width="0.3" stroke-dasharray="2 1.5" />
<line x1="76.25689032225144" y1="202.97442550351272" x2="76.05723125443977" y2="228.57793843473797" stroke="#000" stroke-width="0.3" />
<text x="76.1570607883456" y="215.77618196912533" font-size="3" text-anchor="middle" dominant-baseline="central" fill="#000">28</text>
<line x1="36.4363192485136" y1="179.26245707480203" x2="38.582888280604735" y2="133.0611663406816" stroke="#000" stroke-width="0.3" />
<text x="37.50960376455917" y="156.16181170774183" font-size="3" text-anchor="middle" dominant-baseline="central" fill="#000">86</text>
<line x1="38.582888280604735" y1="133.0611663406816" x2="53.460171264794766" y2="79.10934175380797" stroke="#000" stroke-width="0.3" stroke-dasharray="2 1.5" />
<line x1="53.460171264794766" y1="79.10934175380797" x2="36.4363192485136" y2="179.26245707480203" stroke="#000" stroke-width="0.3" stroke-dasharray="2 1.5" />
<line x1="36.4363192485136" y1="179.26245707480203" x2="53.460171264794766" y2="79.10934175380797" stroke="#000" stroke-width="0.3" stroke-dasharray="2 1.5" />
<line x1="53.460171264794766" y1="79.10934175380797" x2="55.97490038093641" y2="76.52761190735883" stroke="#000" stroke-width="0.3" />
<polygon points="53.460171264794766,79.10934175380797 55.97490038093641,76.52761190735883 54.31352616332136,76.16715272251444 53.05616160525052,77.45801764573902" fill="none" stroke="#666" stroke-width="0.2" />
<text x="56.00694940424437" y="79.07442771185063" font-size="3" text-anchor="middle" dominant-baseline="central" fill="#000">47</text>
<line x1="55.97490038093641" y1="76.52761190735883" x2="36.4363192485136" y2="179.26245707480203" stroke="#000" stroke-width="0.3" stroke-dasharray="2 1.5" />
<line x1="36.4363192485136" y1="179.26245707480203" x2="55.97490038093641" y2="76.52761190735883" stroke="#000" stroke-width="0.3" stroke-dasharray="2 1.5" />
<line x1="55.97490038093641" y1="76.52761190735883" x2="37.95678517531331" y2="182.5300823429532" stroke="#000" stroke-width="0.3" stroke-dasharray="2 1.5" />
<line x1="37.95678517531331" y1="182.5300823429532" x2="36.4363192485136" y2="179.26245707480203" stroke="#000" stroke-width="0.3" />
<text x="37.196552211913456" y="180.8962697088776" font-size="3" text-anchor="middle" dominant-baseline="central" fill="#000">41</text>
<line x1="37.95678517531331" y1="182.5300823429532" x2="55.97490038093641" y2="76.52761190735883" stroke="#000" stroke-width="0.3" stroke-dasharray="2 1.5" />
<line x1="55.97490038093641" y1="76.52761190735883" x2="76.63812306590212" y2="96.65462063311011" stroke="#000" stroke-width="0.3" stroke-dasharray="2 1.5" />
<line x1="76.63812306590212" y1="96.65462063311011" x2="37.95678517531331" y2="182.5300823429532" stroke="#000" stroke-width="0.3" stroke-dasharray="2 1.5" />
<line x1="37.95678517531331" y1="182.5300823429532" x2="76.63812306590212" y2="96.65462063311011" stroke="#000" stroke-width="0.3" stroke-dasharray="2 1.5" />
<line x1="76.63812306590212" y1="96.65462063311011" x2="64.10967598546713" y2="170.36079500773414" stroke="#000" stroke-width="0.3" />
<polygon points="76.63812306590212,96.65462063311011 64.10967598546713,170.36079500773414 96.7242575054255,156.9456302462521 102.988481045643,120.09254305894011" fill="none" stroke="#666" stroke-width="0.2" />
<text x="68.59935262715803" y="133.20607343092118" font-size="3" text-anchor="middle" dominant-baseline="central" fill="#000">83</text>
<line x1="64.10967598546713" y1="170.36079500773414" x2="37.95678517531331" y2="182.5300823429532" stroke="#000" stroke-width="0.3" stroke-dasharray="2 1.5" />
<line x1="40.220810210315236" y1="123.42509903016943" x2="53.460171264794766" y2="79.10934175380797" stroke="#000" stroke-width="0.3" stroke-dasharray="2 1.5" />
<line x1="53.460171264794766" y1="79.10934175380797" x2="38.582888280604735" y2="133.0611663406816" stroke="#000" stroke-width="0.3" stroke-dasharray="2 1.5" />
<line x1="38.582888280604735" y1="133.0611663406816" x2="40.220810210315236" y2="123.42509903016943" stroke="#000" stroke-width="0.3" />
<polygon points="38.582888280604735,133.0611663406816 40.220810210315236,123.42509903016943 35.95690280368272,125.17894708591328 35.13794183882747,129.99698074116935" fill="none" stroke="#666" stroke-width="0.2" />
<text x="41.17639614398659" y="128.54476707492645" font-size="3" text-anchor="middle" dominant-baseline="central" fill="#000">87</text>
<line x1="40.629538771416904" y1="110.01258659405708" x2="53.460171264794766" y2="79.10934175380797" stroke="#000" stroke-width="0.3" stroke-dasharray="2 1.5" />
<line x1="53.460171264794766" y1="79.10934175380797" x2="40.220810210315236" y2="123.42509903016943" stroke="#000" stroke-width="0.3" stroke-dasharray="2 1.5" />
<line x1="40.220810210315236" y1="123.42509903016943" x2="40.629538771416904" y2="110.01258659405708" stroke="#000" stroke-width="0.3" stroke-dasharray="2 1.5" />
<line x1="40.220810210315236" y1="123.42509903016943" x2="35.89655295412149" y2="111.76836716556001" stroke="#000" stroke-width="0.3" stroke-dasharray="2 1.5" />
<line x1="35.89655295412149" y1="111.76836716556001" x2="40.629538771416904" y2="110.01258659405708" stroke="#000" stroke-width="0.3" />
<text x="38.2630458627692" y="110.89047687980855" font-size="3" text-anchor="middle" dominant-baseline="central" fill="#000">4</text>
<line x1="40.629538771416904" y1="110.01258659405708" x2="40.220810210315236" y2="123.42509903016943" stroke="#000" stroke-width="0.3" stroke-dasharray="2 1.5" />
<line x1="36.29648485455817" y1="96.73028759726026" x2="53.460171264794766" y2="79.10934175380797" stroke="#000" stroke-width="0.3" stroke-dasharray="2 1.5" />
<line x1="53.460171264794766" y1="79.10934175380797" x2="40.629538771416904" y2="110.01258659405708" stroke="#000" stroke-width="0.3" stroke-dasharray="2 1.5" />
<line x1="40.629538771416904" y1="110.01258659405708" x2="36.29648485455817" y2="96.73028759726026" stroke="#000" stroke-width="0.3" />
<polygon points="40.629538771416904,110.01258659405708 36.29648485455817,96.73028759726026 32.066828735054116,101.78408391320296 34.233355693483475,108.42523341160137" fill="none" stroke="#666" stroke-width="0.2" />
<text x="40.17425451933086" y="102.81318231512671" font-size="3" text-anchor="middle" dominant-baseline="central" fill="#000">85</text>
<line x1="36.29648485455817" y1="96.73028759726026" x2="25.735476489691834" y2="76.25047236837345" stroke="#000" stroke-width="0.3" stroke-dasharray="2 1.5" />
<line x1="25.735476489691834" y1="76.25047236837345" x2="53.460171264794766" y2="79.10934175380797" stroke="#000" stroke-width="0.3" stroke-dasharray="2 1.5" />
<line x1="53.460171264794766" y1="79.10934175380797" x2="36.29648485455817" y2="96.73028759726026" stroke="#000" stroke-width="0.3" stroke-dasharray="2 1.5" />
<line x1="25.735476489691834" y1="76.25047236837345" x2="36.29648485455817" y2="96.73028759726026" stroke="#000" stroke-width="0.3" stroke-dasharray="2 1.5" />
<line x1="36.29648485455817" y1="96.73028759726026" x2="21.387713272196827" y2="89.20941343668764" stroke="#000" stroke-width="0.3" stroke-dasharray="2 1.5" />
<line x1="21.387713272196827" y1="89.20941343668764" x2="25.735476489691834" y2="76.25047236837345" stroke="#000" stroke-width="0.3" />
<polygon points="21.387713272196827,89.20941343668764 25.735476489691834,76.25047236837345 19.4649592579924,77.75110234845398 17.291077649244926,84.2305728826111" fill="none" stroke="#666" stroke-width="0.2" />
<text x="25.268110810239833" y="83.30248406529591" font-size="3" text-anchor="middle" dominant-baseline="central" fill="#000">53</text>
<line x1="28.316257864065122" y1="37.211391234202765" x2="22.556350702236443" y2="54.31639519209867" stroke="#000" stroke-width="0.3" stroke-dasharray="2 1.5" />
<line x1="22.556350702236443" y1="54.31639519209867" x2="16.64199707895403" y2="47.383925454305995" stroke="#000" stroke-width="0.3" />
<polygon points="22.556350702236443,54.31639519209867 16.64199707895403,47.383925454305995 15.34759758965755,51.48278433806713 18.30477440129877,54.94901920696346" fill="none" stroke="#666" stroke-width="0.2" />
<text x="20.96854189538474" y="49.68190039174066" font-size="3" text-anchor="middle" dominant-baseline="central" fill="#000">60</text>
<line x1="16.64199707895403" y1="47.383925454305995" x2="28.316257864065122" y2="37.211391234202765" stroke="#000" stroke-width="0.3" />
<polygon points="16.64199707895403,47.383925454305995 28.316257864065122,37.211391234202765 21.328678979746062,35.08482047518413 15.491548587190504,40.17108758523575" fill="none" stroke="#666" stroke-width="0.2" />
<text x="23.661638811005616" y="43.65473864105457" font-size="3" text-anchor="middle" dominant-baseline="central" fill="#000">61</text>
<line x1="22.556350702236443" y1="54.31639519209867" x2="28.316257864065122" y2="37.211391234202765" stroke="#000" stroke-width="0.3" stroke-dasharray="2 1.5" />
<line x1="28.316257864065122" y1="37.211391234202765" x2="39.41036935274523" y2="45.52195789734756" stroke="#000" stroke-width="0.3" />
<polygon points="28.316257864065122,37.211391234202765 39.41036935274523,45.52195789734756 39.96106814583311,39.00667163608932 34.41401240149306,34.85138830451693" fill="none" stroke="#666" stroke-width="0.2" />
<text x="32.78414626882805" y="42.80729868510332" font-size="3" text-anchor="middle" dominant-baseline="central" fill="#000">62</text>
<line x1="39.41036935274523" y1="45.52195789734756" x2="22.556350702236443" y2="54.31639519209867" stroke="#000" stroke-width="0.3" stroke-dasharray="2 1.5" />
<line x1="21.43974087453792" y1="117.13136055743777" x2="40.220810210315236" y2="123.42509903016943" stroke="#000" stroke-width="0.3" stroke-dasharray="2 1.5" />
<line x1="40.220810210315236" y1="123.42509903016943" x2="25.04549422042344" y2="126.85124666375339" stroke="#000" stroke-width="0.3" />
<polygon points="40.220810210315236,123.42509903016943 25.04549422042344,126.85124666375339 30.20978227132996,132.06483615131413 37.797440266275856,130.35176233452216" fill="none" stroke="#666" stroke-width="0.2" />
<text x="32.23674172282562" y="123.38236570453338" font-size="3" text-anchor="middle" dominant-baseline="central" fill="#000">64</text>
<line x1="25.04549422042344" y1="126.85124666375339" x2="21.43974087453792" y2="117.13136055743777" stroke="#000" stroke-width="0.3" />
<polygon points="25.04549422042344,126.85124666375339 21.43974087453792,117.13136055743777 18.453224768483068,121.00363342237088 20.2561014414258,125.86357647552869" fill="none" stroke="#666" stroke-width="0.2" />
<text x="24.93023735519586" y="121.36525298595937" font-size="3" text-anchor="middle" dominant-baseline="central" fill="#000">65</text>
<line x1="40.220810210315236" y1="123.42509903016943" x2="21.43974087453792" y2="117.13136055743777" stroke="#000" stroke-width="0.3" stroke-dasharray="2 1.5" />
<line x1="21.43974087453792" y1="117.13136055743777" x2="35.89655295412149" y2="111.76836716556001" stroke="#000" stroke-width="0.3" />
<text x="28.668146914329704" y="114.4498638614989" font-size="3" text-anchor="middle" dominant-baseline="central" fill="#000">5</text>
<line x1="35.89655295412149" y1="111.76836716556001" x2="40.220810210315236" y2="123.42509903016943" stroke="#000" stroke-width="0.3" stroke-dasharray="2 1.5" />
<line x1="39.41036935274523" y1="45.52195789734756" x2="26.122230073883845" y2="62.70229301364568" stroke="#000" stroke-width="0.3" stroke-dasharray="2 1.5" />
<line x1="26.122230073883845" y1="62.70229301364568" x2="22.556350702236443" y2="54.31639519209867" stroke="#000" stroke-width="0.3" stroke-dasharray="2 1.5" />
<line x1="22.556350702236443" y1="54.31639519209867" x2="39.41036935274523" y2="45.52195789734756" stroke="#000" stroke-width="0.3" stroke-dasharray="2 1.5" />
<line x1="26.122230073883845" y1="62.70229301364568" x2="39.41036935274523" y2="45.52195789734756" stroke="#000" stroke-width="0.3" stroke-dasharray="2 1.5" />
<line x1="39.41036935274523" y1="45.52195789734756" x2="52.005625615873484" y2="56.14997189784764" stroke="#000" stroke-width="0.3" />
<polygon points="39.41036935274523,45.52195789734756 52.005625615873484,56.14997189784764 53.10801715029144,48.45486589247132 46.81038901872732,43.14085889222128" fill="none" stroke="#666" stroke-width="0.2" />
<text x="44.54718088895098" y="52.21164830301492" font-size="3" text-anchor="middle" dominant-baseline="central" fill="#000">66</text>
<line x1="52.005625615873484" y1="56.14997189784764" x2="26.122230073883845" y2="62.70229301364568" stroke="#000" stroke-width="0.3" stroke-dasharray="2 1.5" />
<line x1="26.122230073883845" y1="62.70229301364568" x2="57.432667376407124" y2="71.35156603605307" stroke="#000" stroke-width="0.3" stroke-dasharray="2 1.5" />
<line x1="57.432667376407124" y1="71.35156603605307" x2="26.696652402686887" y2="71.79673026835292" stroke="#000" stroke-width="0.3" stroke-dasharray="2 1.5" />
<line x1="26.696652402686887" y1="71.79673026835292" x2="26.122230073883845" y2="62.70229301364568" stroke="#000" stroke-width="0.3" />
<polygon points="26.696652402686887,71.79673026835292 26.122230073883845,62.70229301364568 22.628060754201726,65.20567125884371 22.91527191860323,69.75288988619732" fill="none" stroke="#666" stroke-width="0.2" />
<text x="28.20586145774185" y="67.13604624923634" font-size="3" text-anchor="middle" dominant-baseline="central" fill="#000">67</text>
<line x1="57.432667376407124" y1="71.35156603605307" x2="26.122230073883845" y2="62.70229301364568" stroke="#000" stroke-width="0.3" stroke-dasharray="2 1.5" />
<line x1="26.122230073883845" y1="62.70229301364568" x2="52.005625615873484" y2="56.14997189784764" stroke="#000" stroke-width="0.3" stroke-dasharray="2 1.5" />
<line x1="52.005625615873484" y1="56.14997189784764" x2="57.432667376407124" y2="71.35156603605307" stroke="#000" stroke-width="0.3" />
<polygon points="52.005625615873484,56.14997189784764 57.432667376407124,71.35156603605307 62.1565445915559,65.38035079728826 59.443023711289065,57.77955372818555" fill="none" stroke="#666" stroke-width="0.2" />
<text x="53.02393692789059" y="64.35596688475462" font-size="3" text-anchor="middle" dominant-baseline="central" fill="#000">68</text>
<line x1="107.15020583947599" y1="45.65469249076793" x2="112.459542028724" y2="18.538161863619017" stroke="#000" stroke-width="0.3" stroke-dasharray="2 1.5" />
<line x1="112.459542028724" y1="18.538161863619017" x2="119.35504218999003" y2="25.25472519179698" stroke="#000" stroke-width="0.3" />
<text x="115.90729210935702" y="21.896443527707998" font-size="3" text-anchor="middle" dominant-baseline="central" fill="#000">71</text>
<line x1="119.35504218999003" y1="25.25472519179698" x2="107.15020583947599" y2="45.65469249076793" stroke="#000" stroke-width="0.3" />
<text x="113.25262401473302" y="35.454708841282454" font-size="3" text-anchor="middle" dominant-baseline="central" fill="#000">7</text>
<line x1="112.459542028724" y1="18.538161863619017" x2="107.15020583947599" y2="45.65469249076793" stroke="#000" stroke-width="0.3" stroke-dasharray="2 1.5" />
<line x1="107.15020583947599" y1="45.65469249076793" x2="96.32107475790475" y2="35.10656189414513" stroke="#000" stroke-width="0.3" stroke-dasharray="2 1.5" />
<line x1="96.32107475790475" y1="35.10656189414513" x2="112.459542028724" y2="18.538161863619017" stroke="#000" stroke-width="0.3" />
<polygon points="96.32107475790475,35.10656189414513 112.459542028724,18.538161863619017 101.79756519880874,16.224874962922847 93.72833156339912,24.509074978185907" fill="none" stroke="#666" stroke-width="0.2" />
<text x="105.67972009640246" y="28.078314688481015" font-size="3" text-anchor="middle" dominant-baseline="central" fill="#000">75</text>
<line x1="64.04413169949191" y1="68.24339672029468" x2="98.8789921477549" y2="69.8862166324447" stroke="#000" stroke-width="0.3" stroke-dasharray="2 1.5" />
<line x1="98.8789921477549" y1="69.8862166324447" x2="86.67417112865742" y2="90.28618562123272" stroke="#000" stroke-width="0.3" />
<text x="92.77658163820615" y="80.08620112683872" font-size="3" text-anchor="middle" dominant-baseline="central" fill="#000">11</text>
<line x1="86.67417112865742" y1="90.28618562123272" x2="64.04413169949191" y2="68.24339672029468" stroke="#000" stroke-width="0.3" stroke-dasharray="2 1.5" />
<line x1="98.8789921477549" y1="69.8862166324447" x2="64.04413169949191" y2="68.24339672029468" stroke="#000" stroke-width="0.3" stroke-dasharray="2 1.5" />
<line x1="64.04413169949191" y1="68.24339672029468" x2="80.18260899434951" y2="51.67498751945512" stroke="#000" stroke-width="0.3" />
<polygon points="64.04413169949191,68.24339672029468 80.18260899434951,51.67498751945512 69.52062599029927,49.36169890172198 61.45138734287049,57.64590350214175" fill="none" stroke="#666" stroke-width="0.2" />
<text x="73.40278200754409" y="61.215144973069805" font-size="3" text-anchor="middle" dominant-baseline="central" fill="#000">76</text>
<line x1="80.18260899434951" y1="51.67498751945512" x2="98.8789921477549" y2="69.8862166324447" stroke="#000" stroke-width="0.3" stroke-dasharray="2 1.5" />
<line x1="55.97490038093641" y1="76.52761190735883" x2="86.67417112865742" y2="90.28618562123272" stroke="#000" stroke-width="0.3" stroke-dasharray="2 1.5" />
<line x1="86.67417112865742" y1="90.28618562123272" x2="76.63812306590212" y2="96.65462063311011" stroke="#000" stroke-width="0.3" />
<text x="81.65614709727977" y="93.47040312717141" font-size="3" text-anchor="middle" dominant-baseline="central" fill="#000">12</text>
<line x1="76.63812306590212" y1="96.65462063311011" x2="55.97490038093641" y2="76.52761190735883" stroke="#000" stroke-width="0.3" stroke-dasharray="2 1.5" />
<line x1="86.67417112865742" y1="90.28618562123272" x2="55.97490038093641" y2="76.52761190735883" stroke="#000" stroke-width="0.3" stroke-dasharray="2 1.5" />
<line x1="55.97490038093641" y1="76.52761190735883" x2="64.04413169949191" y2="68.24339672029468" stroke="#000" stroke-width="0.3" />
<polygon points="55.97490038093641,76.52761190735883 64.04413169949191,68.24339672029468 58.71313779502735,67.08675798963853 54.67852213574963,71.2288655831706" fill="none" stroke="#666" stroke-width="0.2" />
<text x="61.29892907323148" y="73.64145575806539" font-size="3" text-anchor="middle" dominant-baseline="central" fill="#000">77</text>
<line x1="64.04413169949191" y1="68.24339672029468" x2="86.67417112865742" y2="90.28618562123272" stroke="#000" stroke-width="0.3" stroke-dasharray="2 1.5" />
<line x1="107.15020583947599" y1="45.65469249076793" x2="80.18260899434951" y2="51.67498751945512" stroke="#000" stroke-width="0.3" stroke-dasharray="2 1.5" />
<line x1="80.18260899434951" y1="51.67498751945512" x2="96.32107475790475" y2="35.10656189414513" stroke="#000" stroke-width="0.3" stroke-dasharray="2 1.5" />
<line x1="96.32107475790475" y1="35.10656189414513" x2="107.15020583947599" y2="45.65469249076793" stroke="#000" stroke-width="0.3" stroke-dasharray="2 1.5" />
<line x1="80.18260899434951" y1="51.67498751945512" x2="107.15020583947599" y2="45.65469249076793" stroke="#000" stroke-width="0.3" stroke-dasharray="2 1.5" />
<line x1="107.15020583947599" y1="45.65469249076793" x2="98.8789921477549" y2="69.8862166324447" stroke="#000" stroke-width="0.3" />
<text x="103.01459899361544" y="57.770454561606314" font-size="3" text-anchor="middle" dominant-baseline="central" fill="#000">10</text>
<line x1="98.8789921477549" y1="69.8862166324447" x2="80.18260899434951" y2="51.67498751945512" stroke="#000" stroke-width="0.3" stroke-dasharray="2 1.5" />
<line x1="96.32107475790475" y1="35.10656189414513" x2="78.83266354280936" y2="10" stroke="#000" stroke-width="0.3" stroke-dasharray="2 1.5" />
<line x1="78.83266354280936" y1="10" x2="90.04162241141793" y2="12.846047891745219" stroke="#000" stroke-width="0.3" />
<text x="84.43714297711364" y="11.42302394587261" font-size="3" text-anchor="middle" dominant-baseline="central" fill="#000">72</text>
<line x1="90.04162241141793" y1="12.846047891745219" x2="96.32107475790475" y2="35.10656189414513" stroke="#000" stroke-width="0.3" />
<text x="93.18134858466135" y="23.976304892945173" font-size="3" text-anchor="middle" dominant-baseline="central" fill="#000">75</text>
<line x1="78.83266354280936" y1="10" x2="96.32107475790475" y2="35.10656189414513" stroke="#000" stroke-width="0.3" stroke-dasharray="2 1.5" />
<line x1="96.32107475790475" y1="35.10656189414513" x2="80.60255673528457" y2="16.141571659058865" stroke="#000" stroke-width="0.3" stroke-dasharray="2 1.5" />
<line x1="80.60255673528457" y1="16.141571659058865" x2="78.83266354280936" y2="10" stroke="#000" stroke-width="0.3" stroke-dasharray="2 1.5" />
<line x1="74.30339177640045" y1="14.649940303904895" x2="78.83266354280936" y2="10" stroke="#000" stroke-width="0.3" />
<text x="76.5680276596049" y="12.324970151952447" font-size="3" text-anchor="middle" dominant-baseline="central" fill="#000">52</text>
<line x1="78.83266354280936" y1="10" x2="80.60255673528457" y2="16.141571659058865" stroke="#000" stroke-width="0.3" stroke-dasharray="2 1.5" />
<line x1="80.60255673528457" y1="16.141571659058865" x2="74.30339177640045" y2="14.649940303904895" stroke="#000" stroke-width="0.3" />
<polygon points="80.60255673528457,16.141571659058865 74.30339177640045,14.649940303904895 75.28153047405988,17.542514126247035 78.43111295350195,18.288329803824013" fill="none" stroke="#666" stroke-width="0.2" />
<text x="77.86774104194231" y="13.644194246015946" font-size="3" text-anchor="middle" dominant-baseline="central" fill="#000">78</text>
<line x1="80.60255673528457" y1="16.141571659058865" x2="96.32107475790475" y2="35.10656189414513" stroke="#000" stroke-width="0.3" stroke-dasharray="2 1.5" />
<line x1="96.32107475790475" y1="35.10656189414513" x2="84.46331041836912" y2="29.45470085487103" stroke="#000" stroke-width="0.3" stroke-dasharray="2 1.5" />
<line x1="84.46331041836912" y1="29.45470085487103" x2="80.60255673528457" y2="16.141571659058865" stroke="#000" stroke-width="0.3" />
<text x="82.53293357682685" y="22.79813625696495" font-size="3" text-anchor="middle" dominant-baseline="central" fill="#000">62</text>
<line x1="84.46331041836912" y1="29.45470085487103" x2="96.32107475790475" y2="35.10656189414513" stroke="#000" stroke-width="0.3" stroke-dasharray="2 1.5" />
<line x1="96.32107475790475" y1="35.10656189414513" x2="80.18260899434951" y2="51.67498751945512" stroke="#000" stroke-width="0.3" stroke-dasharray="2 1.5" />
<line x1="80.18260899434951" y1="51.67498751945512" x2="84.46331041836912" y2="29.45470085487103" stroke="#000" stroke-width="0.3" stroke-dasharray="2 1.5" />
<line x1="84.46331041836912" y1="29.45470085487103" x2="80.18260899434951" y2="51.67498751945512" stroke="#000" stroke-width="0.3" stroke-dasharray="2 1.5" />
<line x1="80.18260899434951" y1="51.67498751945512" x2="74.69422226265937" y2="42.72723183184255" stroke="#000" stroke-width="0.3" stroke-dasharray="2 1.5" />
<line x1="74.69422226265937" y1="42.72723183184255" x2="84.46331041836912" y2="29.45470085487103" stroke="#000" stroke-width="0.3" />
<text x="79.57876634051425" y="36.09096634335679" font-size="3" text-anchor="middle" dominant-baseline="central" fill="#000">66</text>
<line x1="74.69422226265937" y1="42.72723183184255" x2="80.18260899434951" y2="51.67498751945512" stroke="#000" stroke-width="0.3" stroke-dasharray="2 1.5" />
<line x1="80.18260899434951" y1="51.67498751945512" x2="58.662158705444305" y2="40.85261594833068" stroke="#000" stroke-width="0.3" stroke-dasharray="2 1.5" />
<line x1="58.662158705444305" y1="40.85261594833068" x2="74.69422226265937" y2="42.72723183184255" stroke="#000" stroke-width="0.3" />
<text x="66.67819048405184" y="41.78992389008661" font-size="3" text-anchor="middle" dominant-baseline="central" fill="#000">68</text>
<line x1="58.662158705444305" y1="40.85261594833068" x2="80.18260899434951" y2="51.67498751945512" stroke="#000" stroke-width="0.3" stroke-dasharray="2 1.5" />
<line x1="80.18260899434951" y1="51.67498751945512" x2="57.76469962195798" y2="45.98289017187409" stroke="#000" stroke-width="0.3" />
<text x="68.97365430815374" y="48.82893884566461" font-size="3" text-anchor="middle" dominant-baseline="central" fill="#000">76</text>
<line x1="57.76469962195798" y1="45.98289017187409" x2="58.662158705444305" y2="40.85261594833068" stroke="#000" stroke-width="0.3" stroke-dasharray="2 1.5" />
<line x1="54.624981642671266" y1="34.852621246619634" x2="58.662158705444305" y2="40.85261594833068" stroke="#000" stroke-width="0.3" stroke-dasharray="2 1.5" />
<line x1="58.662158705444305" y1="40.85261594833068" x2="57.76469962195798" y2="45.98289017187409" stroke="#000" stroke-width="0.3" stroke-dasharray="2 1.5" />
<line x1="57.76469962195798" y1="45.98289017187409" x2="54.624981642671266" y2="34.852621246619634" stroke="#000" stroke-width="0.3" />
<text x="56.19484063231462" y="40.41775570924686" font-size="3" text-anchor="middle" dominant-baseline="central" fill="#000">77</text>
<line x1="58.662158705444305" y1="40.85261594833068" x2="54.624981642671266" y2="34.852621246619634" stroke="#000" stroke-width="0.3" stroke-dasharray="2 1.5" />
<line x1="54.624981642671266" y1="34.852621246619634" x2="57.139712505868765" y2="32.27089310188775" stroke="#000" stroke-width="0.3" />
<text x="55.882347074270015" y="33.56175717425369" font-size="3" text-anchor="middle" dominant-baseline="central" fill="#000">47</text>
<line x1="57.139712505868765" y1="32.27089310188775" x2="58.662158705444305" y2="40.85261594833068" stroke="#000" stroke-width="0.3" />
<polygon points="57.139712505868765,32.27089310188775 58.662158705444305,40.85261594833068 61.714236294127595,38.098206756889724 60.95301319433984,33.807345333668266" fill="none" stroke="#666" stroke-width="0.2" />
<text x="56.12860955185981" y="36.87617519719256" font-size="3" text-anchor="middle" dominant-baseline="central" fill="#000">79</text>
<line x1="22.556350702236443" y1="54.31639519209867" x2="10.77128623612524" y2="56.85213437504631" stroke="#000" stroke-width="0.3" stroke-dasharray="2 1.5" />
<line x1="10.77128623612524" y1="56.85213437504631" x2="13.511013849299529" y2="53.21158902649927" stroke="#000" stroke-width="0.3" />
<polygon points="10.77128623612524,56.85213437504631 13.511013849299529,53.21158902649927 11.369863806587144,53.025834318366314 10,54.84610699263984" fill="none" stroke="#666" stroke-width="0.2" />
<text x="13.579381043440518" y="56.11421635085037" font-size="3" text-anchor="middle" dominant-baseline="central" fill="#000">80</text>
<line x1="13.511013849299529" y1="53.21158902649927" x2="22.556350702236443" y2="54.31639519209867" stroke="#000" stroke-width="0.3" />
<text x="18.033682275767987" y="53.76399210929897" font-size="3" text-anchor="middle" dominant-baseline="central" fill="#000">60</text>
<line x1="10.77128623612524" y1="56.85213437504631" x2="22.556350702236443" y2="54.31639519209867" stroke="#000" stroke-width="0.3" stroke-dasharray="2 1.5" />
<line x1="22.556350702236443" y1="54.31639519209867" x2="16.120104551887575" y2="69.43097936305728" stroke="#000" stroke-width="0.3" stroke-dasharray="2 1.5" />
<line x1="16.120104551887575" y1="69.43097936305728" x2="10.77128623612524" y2="56.85213437504631" stroke="#000" stroke-width="0.3" />
<text x="13.445695394006407" y="63.1415568690518" font-size="3" text-anchor="middle" dominant-baseline="central" fill="#000">53</text>
<line x1="16.120104551887575" y1="69.43097936305728" x2="22.556350702236443" y2="54.31639519209867" stroke="#000" stroke-width="0.3" stroke-dasharray="2 1.5" />
<line x1="22.556350702236443" y1="54.31639519209867" x2="26.122230073883845" y2="62.70229301364568" stroke="#000" stroke-width="0.3" stroke-dasharray="2 1.5" />
<line x1="26.122230073883845" y1="62.70229301364568" x2="16.120104551887575" y2="69.43097936305728" stroke="#000" stroke-width="0.3" stroke-dasharray="2 1.5" />
<line x1="16.120104551887575" y1="69.43097936305728" x2="26.122230073883845" y2="62.70229301364568" stroke="#000" stroke-width="0.3" stroke-dasharray="2 1.5" />
<line x1="26.122230073883845" y1="62.70229301364568" x2="20.64277259260372" y2="69.98338466960482" stroke="#000" stroke-width="0.3" />
<text x="23.38250133324378" y="66.34283884162525" font-size="3" text-anchor="middle" dominant-baseline="central" fill="#000">67</text>
<line x1="20.64277259260372" y1="69.98338466960482" x2="16.120104551887575" y2="69.43097936305728" stroke="#000" stroke-width="0.3" />
<polygon points="20.64277259260372,69.98338466960482 16.120104551887575,69.43097936305728 17.029809439447618,71.37814790598061 19.29114345980566,71.6543505592544" fill="none" stroke="#666" stroke-width="0.2" />
<text x="18.599671381008893" y="67.92046031411235" font-size="3" text-anchor="middle" dominant-baseline="central" fill="#000">81</text>
<line x1="32.523786721069804" y1="101.99062903793553" x2="21.387713272196827" y2="89.20941343668764" stroke="#000" stroke-width="0.3" stroke-dasharray="2 1.5" />
<line x1="21.387713272196827" y1="89.20941343668764" x2="36.29648485455817" y2="96.73028759726026" stroke="#000" stroke-width="0.3" stroke-dasharray="2 1.5" />
<line x1="36.29648485455817" y1="96.73028759726026" x2="32.523786721069804" y2="101.99062903793553" stroke="#000" stroke-width="0.3" />
<text x="34.410135787813985" y="99.3604583175979" font-size="3" text-anchor="middle" dominant-baseline="central" fill="#000">78</text>
<line x1="21.387713272196827" y1="89.20941343668764" x2="32.523786721069804" y2="101.99062903793553" stroke="#000" stroke-width="0.3" stroke-dasharray="2 1.5" />
<line x1="32.523786721069804" y1="101.99062903793553" x2="19.63171979420975" y2="93.41371655783436" stroke="#000" stroke-width="0.3" />
<text x="26.077753257639777" y="97.70217279788494" font-size="3" text-anchor="middle" dominant-baseline="central" fill="#000">61</text>
<line x1="19.63171979420975" y1="93.41371655783436" x2="21.387713272196827" y2="89.20941343668764" stroke="#000" stroke-width="0.3" />
<text x="20.50971653320329" y="91.311564997261" font-size="3" text-anchor="middle" dominant-baseline="central" fill="#000">80</text>
<line x1="25.735476489691834" y1="76.25047236837345" x2="57.432667376407124" y2="71.35156603605307" stroke="#000" stroke-width="0.3" stroke-dasharray="2 1.5" />
<line x1="57.432667376407124" y1="71.35156603605307" x2="53.460171264794766" y2="79.10934175380797" stroke="#000" stroke-width="0.3" />
<text x="55.446419320600945" y="75.23045389493052" font-size="3" text-anchor="middle" dominant-baseline="central" fill="#000">79</text>
<line x1="53.460171264794766" y1="79.10934175380797" x2="25.735476489691834" y2="76.25047236837345" stroke="#000" stroke-width="0.3" stroke-dasharray="2 1.5" />
<line x1="57.432667376407124" y1="71.35156603605307" x2="25.735476489691834" y2="76.25047236837345" stroke="#000" stroke-width="0.3" stroke-dasharray="2 1.5" />
<line x1="25.735476489691834" y1="76.25047236837345" x2="26.696652402686887" y2="71.79673026835292" stroke="#000" stroke-width="0.3" />
<text x="26.21606444618936" y="74.02360131836318" font-size="3" text-anchor="middle" dominant-baseline="central" fill="#000">81</text>
<line x1="26.696652402686887" y1="71.79673026835292" x2="57.432667376407124" y2="71.35156603605307" stroke="#000" stroke-width="0.3" stroke-dasharray="2 1.5" />
</svg>