<svg xmlns="http://www.w3.org/2000/svg" width="215.9mm" height="279.4mm" viewBox="0 0 215.9 279.4">
<rect x="0" y="0" width="215.9" height="279.4" fill="none" stroke="#ccc" stroke-width="0.15" />
<line x1="168.4339203666607" y1="93.60478150726497" x2="173.68505439393698" y2="93.60478150726497" stroke="#000" stroke-width="0.3" />
<polygon points="168.4339203666607,93.60478150726497 173.68505439393698,93.60478150726497 172.37227088711793,91.50432789635445 169.74670387347976,91.50432789635445" fill="none" stroke="#666" stroke-width="0.2" />
<text x="171.05948738029883" y="95.40478150726497" font-size="3" text-anchor="middle" dominant-baseline="central" fill="#000">1</text>
<line x1="173.68505439393698" y1="93.60478150726497" x2="171.05948738031316" y2="112.20812331207075" stroke="#000" stroke-width="0.3" />
<polygon points="173.68505439393698,93.60478150726497 171.05948738031316,112.20812331207075 179.15721585564143,108.60751466631885 180.46999936245336,99.30584376391596" fill="none" stroke="#666" stroke-width="0.2" />
<text x="170.58993440896896" y="102.65490384848322" font-size="3" text-anchor="middle" dominant-baseline="central" fill="#000">2</text>
<line x1="171.05948738031316" y1="112.20812331207075" x2="168.4339203666607" y2="93.60478150726497" stroke="#000" stroke-width="0.3" stroke-dasharray="2 1.5" />
<line x1="139.42979870925038" y1="132.49296049733564" x2="171.05948738031316" y2="112.20812331207075" stroke="#000" stroke-width="0.3" stroke-dasharray="2 1.5" />
<line x1="171.05948738031316" y1="112.20812331207075" x2="146.27918745142927" y2="140.45433651836302" stroke="#000" stroke-width="0.3" stroke-dasharray="2 1.5" />
<line x1="146.27918745142927" y1="140.45433651836302" x2="139.42979870925038" y2="132.49296049733564" stroke="#000" stroke-width="0.3" />
<polygon points="146.27918745142927,140.45433651836302 139.42979870925038,132.49296049733564 137.95759548638415,137.22305999946406 141.38228985747358,141.20374800997777" fill="none" stroke="#666" stroke-width="0.2" />
<text x="144.21900565642446" y="135.299721155026" font-size="3" text-anchor="middle" dominant-baseline="central" fill="#000">3</text>
<line x1="59.90569128172022" y1="14.579080838047211" x2="44.602938481600596" y2="24.9188539362464" stroke="#000" stroke-width="0.3" stroke-dasharray="2 1.5" />
<line x1="44.602938481600596" y1="24.9188539362464" x2="45.44888046651749" y2="19.942077638265776" stroke="#000" stroke-width="0.3" />
<polygon points="44.602938481600596,24.9188539362464 45.44888046651749,19.942077638265776 43.24668445109603,20.847894918794182 42.82371345863758,23.33628306778448" fill="none" stroke="#666" stroke-width="0.2" />
<text x="46.80045647730498" y="22.732099560681533" font-size="3" text-anchor="middle" dominant-baseline="central" fill="#000">4</text>
<line x1="45.44888046651749" y1="19.942077638265776" x2="59.90569128172022" y2="14.579080838047211" stroke="#000" stroke-width="0.3" />
<polygon points="45.44888046651749,19.942077638265776 59.90569128172022,14.579080838047211 54.14628985783211,10.137105712020764 46.91788445023073,12.818604112130032" fill="none" stroke="#666" stroke-width="0.2" />
<text x="53.303336753381075" y="18.9481989514139" font-size="3" text-anchor="middle" dominant-baseline="central" fill="#000">5</text>
<line x1="44.602938481600596" y1="24.9188539362464" x2="59.90569128172022" y2="14.579080838047211" stroke="#000" stroke-width="0.3" stroke-dasharray="2 1.5" />
<line x1="59.90569128172022" y1="14.579080838047211" x2="55.54923555464486" y2="20.286595622077513" stroke="#000" stroke-width="0.3" stroke-dasharray="2 1.5" />
<line x1="55.54923555464486" y1="20.286595622077513" x2="44.602938481600596" y2="24.9188539362464" stroke="#000" stroke-width="0.3" />
<polygon points="55.54923555464486,20.286595622077513 44.602938481600596,24.9188539362464 49.19241607552922,28.139308186921884 54.66556461205136,25.823179029837448" fill="none" stroke="#666" stroke-width="0.2" />
<text x="49.37458955522204" y="20.945045283739546" font-size="3" text-anchor="middle" dominant-baseline="central" fill="#000">6</text>
<line x1="55.54923555464486" y1="20.286595622077513" x2="59.90569128172022" y2="14.579080838047211" stroke="#000" stroke-width="0.3" stroke-dasharray="2 1.5" />
<line x1="59.90569128172022" y1="14.579080838047211" x2="73.15120284446203" y2="36.26431272027774" stroke="#000" stroke-width="0.3" stroke-dasharray="2 1.5" />
<line x1="73.15120284446203" y1="36.26431272027774" x2="55.54923555464486" y2="20.286595622077513" stroke="#000" stroke-width="0.3" />
<polygon points="73.15120284446203,36.26431272027774 55.54923555464486,20.286595622077513 53.55864053781906,31.321811812554433 62.35962418272764,39.31067036165455" fill="none" stroke="#666" stroke-width="0.2" />
<text x="65.56003196612588" y="26.942655210404332" font-size="3" text-anchor="middle" dominant-baseline="central" fill="#000">7</text>
<line x1="73.15120284446203" y1="36.26431272027774" x2="59.90569128172022" y2="14.579080838047211" stroke="#000" stroke-width="0.3" stroke-dasharray="2 1.5" />
<line x1="59.90569128172022" y1="14.579080838047211" x2="83.65147521190856" y2="34.2560117741597" stroke="#000" stroke-width="0.3" />
<polygon points="59.90569128172022,14.579080838047211 83.65147521190856,34.2560117741597 85.58580160380649,19.838465468056256 73.71290963871232,10" fill="none" stroke="#666" stroke-width="0.2" />
<text x="70.63008696878924" y="25.80353198401012" font-size="3" text-anchor="middle" dominant-baseline="central" fill="#000">8</text>
<line x1="83.65147521190856" y1="34.2560117741597" x2="73.15120284446203" y2="36.26431272027774" stroke="#000" stroke-width="0.3" stroke-dasharray="2 1.5" />
<line x1="78.48365041138304" y1="64.6589335324128" x2="73.15120284446203" y2="36.26431272027774" stroke="#000" stroke-width="0.3" stroke-dasharray="2 1.5" />
<line x1="73.15120284446203" y1="36.26431272027774" x2="83.65147521190856" y2="34.2560117741597" stroke="#000" stroke-width="0.3" stroke-dasharray="2 1.5" />
<line x1="83.65147521190856" y1="34.2560117741597" x2="78.48365041138304" y2="64.6589335324128" stroke="#000" stroke-width="0.3" />
<polygon points="83.65147521190856,34.2560117741597 78.48365041138304,64.6589335324128 91.93677531481565,59.12533301305974 94.52068771507842,43.92387213393319" fill="none" stroke="#666" stroke-width="0.2" />
<text x="79.29301580839972" y="49.1558388798617" font-size="3" text-anchor="middle" dominant-baseline="central" fill="#000">9</text>
<line x1="78.48365041138304" y1="64.6589335324128" x2="68.86058116042209" y2="61.50654526272978" stroke="#000" stroke-width="0.3" stroke-dasharray="2 1.5" />
<line x1="68.86058116042209" y1="61.50654526272978" x2="73.15120284446203" y2="36.26431272027774" stroke="#000" stroke-width="0.3" />
<polygon points="68.86058116042209,61.50654526272978 73.15120284446203,36.26431272027774 61.981654406471215,40.85862218227477 59.836343564451255,53.479738453500794" fill="none" stroke="#666" stroke-width="0.2" />
<text x="72.78043900568792" y="49.18706276492969" font-size="3" text-anchor="middle" dominant-baseline="central" fill="#000">10</text>
<line x1="73.15120284446203" y1="36.26431272027774" x2="78.48365041138304" y2="64.6589335324128" stroke="#000" stroke-width="0.3" stroke-dasharray="2 1.5" />
<line x1="49.57004085946997" y1="75.38492918601595" x2="68.86058116042209" y2="61.50654526272978" stroke="#000" stroke-width="0.3" stroke-dasharray="2 1.5" />
<line x1="68.86058116042209" y1="61.50654526272978" x2="78.48365041138304" y2="64.6589335324128" stroke="#000" stroke-width="0.3" stroke-dasharray="2 1.5" />
<line x1="78.48365041138304" y1="64.6589335324128" x2="49.57004085946997" y2="75.38492918601595" stroke="#000" stroke-width="0.3" stroke-dasharray="2 1.5" />
<line x1="49.57004085946997" y1="75.38492918601595" x2="46.96799419941535" y2="70.7710488655395" stroke="#000" stroke-width="0.3" stroke-dasharray="2 1.5" />
<line x1="46.96799419941535" y1="70.7710488655395" x2="68.86058116042209" y2="61.50654526272978" stroke="#000" stroke-width="0.3" />
<polygon points="46.96799419941535,70.7710488655395 68.86058116042209,61.50654526272978 59.68163297904651,55.06563637902951 48.73533949854316,59.697888180434376" fill="none" stroke="#666" stroke-width="0.2" />
<text x="58.61578450160204" y="67.79647683090751" font-size="3" text-anchor="middle" dominant-baseline="central" fill="#000">11</text>
<line x1="68.86058116042209" y1="61.50654526272978" x2="49.57004085946997" y2="75.38492918601595" stroke="#000" stroke-width="0.3" stroke-dasharray="2 1.5" />
<line x1="49.57004085946997" y1="75.38492918601595" x2="38.1670081662883" y2="62.782189744041425" stroke="#000" stroke-width="0.3" stroke-dasharray="2 1.5" />
<line x1="38.1670081662883" y1="62.782189744041425" x2="46.96799419941535" y2="70.7710488655395" stroke="#000" stroke-width="0.3" />
<polygon points="38.1670081662883,62.782189744041425 46.96799419941535,70.7710488655395 47.96329133973282,65.25343967191415 43.562798323169304,61.25901011116512" fill="none" stroke="#666" stroke-width="0.2" />
<text x="41.357688548743795" y="68.10941838580477" font-size="3" text-anchor="middle" dominant-baseline="central" fill="#000">12</text>
<line x1="46.96799419941535" y1="70.7710488655395" x2="49.57004085946997" y2="75.38492918601595" stroke="#000" stroke-width="0.3" stroke-dasharray="2 1.5" />
<line x1="38.1670081662883" y1="62.782189744041425" x2="49.57004085946997" y2="75.38492918601595" stroke="#000" stroke-width="0.3" stroke-dasharray="2 1.5" />
<line x1="49.57004085946997" y1="75.38492918601595" x2="37.6971426773044" y2="65.54646373749976" stroke="#000" stroke-width="0.3" />
<polygon points="49.57004085946997,75.38492918601595 37.6971426773044,65.54646373749976 36.729981043439324,72.75523937249503 42.666430134522095,77.67447209675314" fill="none" stroke="#666" stroke-width="0.2" />
<text x="44.78208768850101" y="69.07971048726826" font-size="3" text-anchor="middle" dominant-baseline="central" fill="#000">13</text>
<line x1="37.6971426773044" y1="65.54646373749976" x2="38.1670081662883" y2="62.782189744041425" stroke="#000" stroke-width="0.3" />
<polygon points="37.6971426773044,65.54646373749976 38.1670081662883,62.782189744041425 36.94383219665899,63.28531204681245 36.70889945216702,64.66744904354162" fill="none" stroke="#666" stroke-width="0.2" />
<text x="39.7066224250437" y="64.46596051418773" font-size="3" text-anchor="middle" dominant-baseline="central" fill="#000">14</text>
<line x1="41.808407903285186" y1="139.868484132806" x2="66.7483637769092" y2="104.15933931646089" stroke="#000" stroke-width="0.3" stroke-dasharray="2 1.5" />
<line x1="66.7483637769092" y1="104.15933931646089" x2="59.7087085692273" y2="145.57437271552575" stroke="#000" stroke-width="0.3" stroke-dasharray="2 1.5" />
<line x1="59.7087085692273" y1="145.57437271552575" x2="41.808407903285186" y2="139.868484132806" stroke="#000" stroke-width="0.3" />
<polygon points="59.7087085692273,145.57437271552575 41.808407903285186,139.868484132806 44.00112763668281,148.4550765448628 52.95127796965388,151.30802083622265" fill="none" stroke="#666" stroke-width="0.2" />
<text x="51.30522417767584" y="141.00644843929965" font-size="3" text-anchor="middle" dominant-baseline="central" fill="#000">18</text>
<line x1="66.7483637769092" y1="104.15933931646089" x2="41.808407903285186" y2="139.868484132806" stroke="#000" stroke-width="0.3" stroke-dasharray="2 1.5" />
<line x1="41.808407903285186" y1="139.868484132806" x2="47.9681061073531" y2="103.6303305125471" stroke="#000" stroke-width="0.3" stroke-dasharray="2 1.5" />
<line x1="47.9681061073531" y1="103.6303305125471" x2="66.7483637769092" y2="104.15933931646089" stroke="#000" stroke-width="0.3" />
<polygon points="47.9681061073531,103.6303305125471 66.7483637769092,104.15933931646089 62.26490288108569,96.51498404766 52.87477404630764,96.25047964570311" fill="none" stroke="#666" stroke-width="0.2" />
<text x="57.307552021913146" y="105.69412122901822" font-size="3" text-anchor="middle" dominant-baseline="central" fill="#000">19</text>
<line x1="33.987807917657854" y1="167.0568475795391" x2="19.06112597027923" y2="175.18410800885178" stroke="#000" stroke-width="0.3" stroke-dasharray="2 1.5" />
<line x1="19.06112597027923" y1="175.18410800885178" x2="19.53099337865372" y2="172.41983434164806" stroke="#000" stroke-width="0.3" />
<polygon points="19.06112597027923,175.18410800885178 19.53099337865372,172.41983434164806 18.307817059678623,172.92295579509917 18.072883355491378,174.30509262870106" fill="none" stroke="#666" stroke-width="0.2" />
<text x="21.070606468272125" y="174.10360618083465" font-size="3" text-anchor="middle" dominant-baseline="central" fill="#000">24</text>
<line x1="19.53099337865372" y1="172.41983434164806" x2="33.987807917657854" y2="167.0568475795391" stroke="#000" stroke-width="0.3" />
<polygon points="19.53099337865372,172.41983434164806 33.987807917657854,167.0568475795391 28.228409578063253,162.6148684544647 21.00000230856117,165.29636183551915" fill="none" stroke="#666" stroke-width="0.2" />
<text x="27.38545035561657" y="171.42596110854996" font-size="3" text-anchor="middle" dominant-baseline="central" fill="#000">25</text>
<line x1="19.06112597027923" y1="175.18410800885178" x2="33.987807917657854" y2="167.0568475795391" stroke="#000" stroke-width="0.3" stroke-dasharray="2 1.5" />
<line x1="33.987807917657854" y1="167.0568475795391" x2="30.007426109439063" y2="170.5518581794633" stroke="#000" stroke-width="0.3" stroke-dasharray="2 1.5" />
<line x1="30.007426109439063" y1="170.5518581794633" x2="19.06112597027923" y2="175.18410800885178" stroke="#000" stroke-width="0.3" />
<polygon points="30.007426109439063,170.5518581794633 19.06112597027923,175.18410800885178 23.650600936824585,178.40456560716856 29.123751006404486,176.08844069247434" fill="none" stroke="#666" stroke-width="0.2" />
<text x="23.832779833366015" y="171.21030306704864" font-size="3" text-anchor="middle" dominant-baseline="central" fill="#000">26</text>
<line x1="30.007426109439063" y1="170.5518581794633" x2="33.987807917657854" y2="167.0568475795391" stroke="#000" stroke-width="0.3" stroke-dasharray="2 1.5" />
<line x1="33.987807917657854" y1="167.0568475795391" x2="47.60938430316622" y2="186.52957574481033" stroke="#000" stroke-width="0.3" stroke-dasharray="2 1.5" />
<line x1="47.60938430316622" y1="186.52957574481033" x2="30.007426109439063" y2="170.5518581794633" stroke="#000" stroke-width="0.3" />
<polygon points="47.60938430316622,186.52957574481033 30.007426109439063,170.5518581794633 28.016828631732032,181.58707084829092 36.817807728595625,189.57592963096442" fill="none" stroke="#666" stroke-width="0.2" />
<text x="40.018218335032564" y="177.20791833010242" font-size="3" text-anchor="middle" dominant-baseline="central" fill="#000">27</text>
<line x1="47.60938430316622" y1="186.52957574481033" x2="33.987807917657854" y2="167.0568475795391" stroke="#000" stroke-width="0.3" stroke-dasharray="2 1.5" />
<line x1="33.987807917657854" y1="167.0568475795391" x2="57.733578540756525" y2="186.73379291149493" stroke="#000" stroke-width="0.3" stroke-dasharray="2 1.5" />
<line x1="57.733578540756525" y1="186.73379291149493" x2="47.60938430316622" y2="186.52957574481033" stroke="#000" stroke-width="0.3" stroke-dasharray="2 1.5" />
<line x1="47.60938430316622" y1="186.52957574481033" x2="57.733578540756525" y2="186.73379291149493" stroke="#000" stroke-width="0.3" stroke-dasharray="2 1.5" />
<line x1="57.733578540756525" y1="186.73379291149493" x2="43.31874509227752" y2="211.77180530807914" stroke="#000" stroke-width="0.3" stroke-dasharray="2 1.5" />
<line x1="43.31874509227752" y1="211.77180530807914" x2="47.60938430316622" y2="186.52957574481033" stroke="#000" stroke-width="0.3" />
<polygon points="43.31874509227752,211.77180530807914 47.60938430316622,186.52957574481033 36.439832675136515,191.12387745127205 34.29451306969214,203.74499223290647" fill="none" stroke="#666" stroke-width="0.2" />
<text x="47.23861149152901" y="199.4523255320207" font-size="3" text-anchor="middle" dominant-baseline="central" fill="#000">28</text>
<line x1="52.565732630029856" y1="217.13671108147278" x2="43.31874509227752" y2="211.77180530807914" stroke="#000" stroke-width="0.3" stroke-dasharray="2 1.5" />
<line x1="43.31874509227752" y1="211.77180530807914" x2="57.733578540756525" y2="186.73379291149493" stroke="#000" stroke-width="0.3" stroke-dasharray="2 1.5" />
<line x1="57.733578540756525" y1="186.73379291149493" x2="52.565732630029856" y2="217.13671108147278" stroke="#000" stroke-width="0.3" />
<polygon points="57.733578540756525,186.73379291149493 52.565732630029856,217.13671108147278 66.01886137570267,211.603119903269 68.602784331066,196.40166081828005" fill="none" stroke="#666" stroke-width="0.2" />
<text x="53.375108791586285" y="201.63361699090655" font-size="3" text-anchor="middle" dominant-baseline="central" fill="#000">29</text>
<line x1="23.652115274919044" y1="227.86268875094274" x2="43.31874509227752" y2="211.77180530807914" stroke="#000" stroke-width="0.3" stroke-dasharray="2 1.5" />
<line x1="43.31874509227752" y1="211.77180530807914" x2="52.565732630029856" y2="217.13671108147278" stroke="#000" stroke-width="0.3" stroke-dasharray="2 1.5" />
<line x1="52.565732630029856" y1="217.13671108147278" x2="23.652115274919044" y2="227.86268875094274" stroke="#000" stroke-width="0.3" />
<polygon points="52.565732630029856,217.13671108147278 23.652115274919044,227.86268875094274 35.17091068148475,236.7466412756196 49.62771935904014,231.38365244088462" fill="none" stroke="#666" stroke-width="0.2" />
<text x="37.482873809209536" y="220.81207992991997" font-size="3" text-anchor="middle" dominant-baseline="central" fill="#000">30</text>
<line x1="23.652115274919044" y1="227.86268875094274" x2="21.42614970039021" y2="221.0363054645381" stroke="#000" stroke-width="0.3" stroke-dasharray="2 1.5" />
<line x1="21.42614970039021" y1="221.0363054645381" x2="43.31874509227752" y2="211.77180530807914" stroke="#000" stroke-width="0.3" />
<text x="32.37244739633386" y="216.4040553863086" font-size="3" text-anchor="middle" dominant-baseline="central" fill="#000">20</text>
<line x1="43.31874509227752" y1="211.77180530807914" x2="23.652115274919044" y2="227.86268875094274" stroke="#000" stroke-width="0.3" stroke-dasharray="2 1.5" />
<line x1="23.652115274919044" y1="227.86268875094274" x2="12.625169364635052" y2="213.04743934786202" stroke="#000" stroke-width="0.3" stroke-dasharray="2 1.5" />
<line x1="12.625169364635052" y1="213.04743934786202" x2="21.42614970039021" y2="221.0363054645381" stroke="#000" stroke-width="0.3" />
<text x="17.02565953251263" y="217.04187240620007" font-size="3" text-anchor="middle" dominant-baseline="central" fill="#000">22</text>
<line x1="21.42614970039021" y1="221.0363054645381" x2="23.652115274919044" y2="227.86268875094274" stroke="#000" stroke-width="0.3" stroke-dasharray="2 1.5" />
<line x1="12.625169364635052" y1="213.04743934786202" x2="23.652115274919044" y2="227.86268875094274" stroke="#000" stroke-width="0.3" stroke-dasharray="2 1.5" />
<line x1="23.652115274919044" y1="227.86268875094274" x2="11.779223924109534" y2="218.02421505846434" stroke="#000" stroke-width="0.3" />
<polygon points="23.652115274919044,227.86268875094274 11.779223924109534,218.02421505846434 10.812057284820535,225.2329900219077 16.74850296022529,230.15222686814695" fill="none" stroke="#666" stroke-width="0.2" />
<text x="18.864166481989272" y="221.55746672767413" font-size="3" text-anchor="middle" dominant-baseline="central" fill="#000">31</text>
<line x1="11.779223924109534" y1="218.02421505846434" x2="12.625169364635052" y2="213.04743934786202" stroke="#000" stroke-width="0.3" />
<polygon points="11.779223924109534,218.02421505846434 12.625169364635052,213.04743934786202 10.42297272026276,213.95325509930237 10,216.44164295460348" fill="none" stroke="#666" stroke-width="0.2" />
<text x="13.97674343817934" y="215.83746220873968" font-size="3" text-anchor="middle" dominant-baseline="central" fill="#000">32</text>
<line x1="22.114915773457057" y1="157.21837484451095" x2="51.14744280421875" y2="146.34891436459168" stroke="#000" stroke-width="0.3" stroke-dasharray="2 1.5" />
<line x1="51.14744280421875" y1="146.34891436459168" x2="33.987807917657854" y2="167.0568475795391" stroke="#000" stroke-width="0.3" stroke-dasharray="2 1.5" />
<line x1="33.987807917657854" y1="167.0568475795391" x2="22.114915773457057" y2="157.21837484451095" stroke="#000" stroke-width="0.3" />
<text x="28.051361845557455" y="162.13761121202504" font-size="3" text-anchor="middle" dominant-baseline="central" fill="#000">25</text>
<line x1="51.14744280421875" y1="146.34891436459168" x2="22.114915773457057" y2="157.21837484451095" stroke="#000" stroke-width="0.3" stroke-dasharray="2 1.5" />
<line x1="22.114915773457057" y1="157.21837484451095" x2="37.95644449378617" y2="138.10110833162878" stroke="#000" stroke-width="0.3" stroke-dasharray="2 1.5" />
<line x1="37.95644449378617" y1="138.10110833162878" x2="51.14744280421875" y2="146.34891436459168" stroke="#000" stroke-width="0.3" />
<polygon points="37.95644449378617,138.10110833162878 51.14744280421875,146.34891436459168 51.14881563979576,139.0105635321779 44.553316484579454,134.88666051569646" fill="none" stroke="#666" stroke-width="0.2" />
<text x="43.597660020158926" y="143.75122979765183" font-size="3" text-anchor="middle" dominant-baseline="central" fill="#000">42</text>
<line x1="19.955918317462377" y1="155.42932082809432" x2="32.48436539789736" y2="81.72314645347028" stroke="#000" stroke-width="0.3" />
<text x="26.22014185767987" y="118.5762336407823" font-size="3" text-anchor="middle" dominant-baseline="central" fill="#000">83</text>
<line x1="32.48436539789736" y1="81.72314645347028" x2="35.11322961178609" y2="80.74792482041268" stroke="#000" stroke-width="0.3" />
<text x="33.79879750484173" y="81.23553563694148" font-size="3" text-anchor="middle" dominant-baseline="central" fill="#000">14</text>
<line x1="35.11322961178609" y1="80.74792482041268" x2="19.955918317462377" y2="155.42932082809432" stroke="#000" stroke-width="0.3" stroke-dasharray="2 1.5" />
<line x1="19.955918317462377" y1="155.42932082809432" x2="35.11322961178609" y2="80.74792482041268" stroke="#000" stroke-width="0.3" stroke-dasharray="2 1.5" />
<line x1="35.11322961178609" y1="80.74792482041268" x2="22.114915773457057" y2="157.21837484451095" stroke="#000" stroke-width="0.3" stroke-dasharray="2 1.5" />
<line x1="22.114915773457057" y1="157.21837484451095" x2="19.955918317462377" y2="155.42932082809432" stroke="#000" stroke-width="0.3" />
<text x="21.035417045459717" y="156.32384783630263" font-size="3" text-anchor="middle" dominant-baseline="central" fill="#000">24</text>
<line x1="22.114915773457057" y1="157.21837484451095" x2="35.11322961178609" y2="80.74792482041268" stroke="#000" stroke-width="0.3" stroke-dasharray="2 1.5" />
<line x1="35.11322961178609" y1="80.74792482041268" x2="43.74851989910468" y2="104.02571837511455" stroke="#000" stroke-width="0.3" stroke-dasharray="2 1.5" />
<line x1="43.74851989910468" y1="104.02571837511455" x2="22.114915773457057" y2="157.21837484451095" stroke="#000" stroke-width="0.3" stroke-dasharray="2 1.5" />
<line x1="22.114915773457057" y1="157.21837484451095" x2="43.74851989910468" y2="104.02571837511455" stroke="#000" stroke-width="0.3" stroke-dasharray="2 1.5" />
<line x1="43.74851989910468" y1="104.02571837511455" x2="37.95644449378617" y2="138.10110833162878" stroke="#000" stroke-width="0.3" stroke-dasharray="2 1.5" />
<line x1="37.95644449378617" y1="138.10110833162878" x2="22.114915773457057" y2="157.21837484451095" stroke="#000" stroke-width="0.3" stroke-dasharray="2 1.5" />
<line x1="37.95644449378617" y1="138.10110833162878" x2="43.74851989910468" y2="104.02571837511455" stroke="#000" stroke-width="0.3" stroke-dasharray="2 1.5" />
<line x1="43.74851989910468" y1="104.02571837511455" x2="47.9681061073531" y2="103.6303305125471" stroke="#000" stroke-width="0.3" />
<polygon points="43.74851989910468,104.02571837511455 47.9681061073531,103.6303305125471 46.755054410264016,102.0413429948896 44.64526130613984,102.23903692617331" fill="none" stroke="#666" stroke-width="0.2" />
<text x="46.02624277146825" y="105.6201738775944" font-size="3" text-anchor="middle" dominant-baseline="central" fill="#000">48</text>
<line x1="47.9681061073531" y1="103.6303305125471" x2="37.95644449378617" y2="138.10110833162878" stroke="#000" stroke-width="0.3" stroke-dasharray="2 1.5" />
<line x1="37.95644449378617" y1="138.10110833162878" x2="47.9681061073531" y2="103.6303305125471" stroke="#000" stroke-width="0.3" stroke-dasharray="2 1.5" />
<line x1="47.9681061073531" y1="103.6303305125471" x2="41.808407903285186" y2="139.868484132806" stroke="#000" stroke-width="0.3" stroke-dasharray="2 1.5" />
<line x1="41.808407903285186" y1="139.868484132806" x2="37.95644449378617" y2="138.10110833162878" stroke="#000" stroke-width="0.3" />
<polygon points="41.808407903285186,139.868484132806 37.95644449378617,138.10110833162878 38.212485025690036,140.0837376457227 40.138466730439546,140.96742554631132" fill="none" stroke="#666" stroke-width="0.2" />
<text x="40.633068888365216" y="137.34878414417966" font-size="3" text-anchor="middle" dominant-baseline="central" fill="#000">49</text>
<line x1="137.6698847020224" y1="142.84672005494755" x2="102.54896276567219" y2="115.57111608362071" stroke="#000" stroke-width="0.3" stroke-dasharray="2 1.5" />
<line x1="102.54896276567219" y1="115.57111608362071" x2="139.42979870925038" y2="132.49296049733564" stroke="#000" stroke-width="0.3" stroke-dasharray="2 1.5" />
<line x1="139.42979870925038" y1="132.49296049733564" x2="137.6698847020224" y2="142.84672005494755" stroke="#000" stroke-width="0.3" />
<text x="138.54984170563637" y="137.6698402761416" font-size="3" text-anchor="middle" dominant-baseline="central" fill="#000">3</text>
<line x1="102.54896276567219" y1="115.57111608362071" x2="137.6698847020224" y2="142.84672005494755" stroke="#000" stroke-width="0.3" stroke-dasharray="2 1.5" />
<line x1="137.6698847020224" y1="142.84672005494755" x2="97.26922156521826" y2="146.63238992507368" stroke="#000" stroke-width="0.3" />
<polygon points="137.6698847020224,142.84672005494755 97.26922156521826,146.63238992507368 108.88365529746974,161.8462377122638 129.0839868658718,159.95340277720072" fill="none" stroke="#666" stroke-width="0.2" />
<text x="117.3016230680735" y="142.94740558410567" font-size="3" text-anchor="middle" dominant-baseline="central" fill="#000">56</text>
<line x1="97.26922156521826" y1="146.63238992507368" x2="102.54896276567219" y2="115.57111608362071" stroke="#000" stroke-width="0.3" stroke-dasharray="2 1.5" />
<line x1="57.733578540756525" y1="186.73379291149493" x2="90.73035519889397" y2="195.24680866537673" stroke="#000" stroke-width="0.3" stroke-dasharray="2 1.5" />
<line x1="90.73035519889397" y1="195.24680866537673" x2="81.47934462215277" y2="206.41075044600714" stroke="#000" stroke-width="0.3" stroke-dasharray="2 1.5" />
<line x1="81.47934462215277" y1="206.41075044600714" x2="57.733578540756525" y2="186.73379291149493" stroke="#000" stroke-width="0.3" />
<text x="69.60646158145465" y="196.57227167875104" font-size="3" text-anchor="middle" dominant-baseline="central" fill="#000">29</text>
<line x1="90.73035519889397" y1="195.24680866537673" x2="57.733578540756525" y2="186.73379291149493" stroke="#000" stroke-width="0.3" stroke-dasharray="2 1.5" />
<line x1="57.733578540756525" y1="186.73379291149493" x2="72.25700234043556" y2="169.20719296803017" stroke="#000" stroke-width="0.3" stroke-dasharray="2 1.5" />
<line x1="72.25700234043556" y1="169.20719296803017" x2="90.73035519889397" y2="195.24680866537673" stroke="#000" stroke-width="0.3" />
<polygon points="72.25700234043556,169.20719296803017 90.73035519889397,195.24680866537673 96.52786326321798,181.34756359765672 87.29118683398877,168.32775574898346" fill="none" stroke="#666" stroke-width="0.2" />
<text x="80.02559631040184" y="183.26850640612892" font-size="3" text-anchor="middle" dominant-baseline="central" fill="#000">57</text>
<line x1="66.7483637769092" y1="104.15933931646089" x2="97.26922156521826" y2="146.63238992507368" stroke="#000" stroke-width="0.3" stroke-dasharray="2 1.5" />
<line x1="97.26922156521826" y1="146.63238992507368" x2="59.7087085692273" y2="145.57437271552575" stroke="#000" stroke-width="0.3" />
<polygon points="97.26922156521826,146.63238992507368 59.7087085692273,145.57437271552575 68.67562993440586,160.8630822163091 87.45588643240136,161.3920908210831" fill="none" stroke="#666" stroke-width="0.2" />
<text x="78.53964797153607" y="144.30409500533747" font-size="3" text-anchor="middle" dominant-baseline="central" fill="#000">58</text>
<line x1="59.7087085692273" y1="145.57437271552575" x2="66.7483637769092" y2="104.15933931646089" stroke="#000" stroke-width="0.3" stroke-dasharray="2 1.5" />
<line x1="97.26922156521826" y1="146.63238992507368" x2="66.7483637769092" y2="104.15933931646089" stroke="#000" stroke-width="0.3" stroke-dasharray="2 1.5" />
<line x1="66.7483637769092" y1="104.15933931646089" x2="102.54896276567219" y2="115.57111608362071" stroke="#000" stroke-width="0.3" />
<polygon points="66.7483637769092,104.15933931646089 102.54896276567219,115.57111608362071 98.16352372534537,98.39793229632555 80.26322423096387,92.69204391274565" fill="none" stroke="#666" stroke-width="0.2" />
<text x="84.10199731471161" y="111.58020768007482" font-size="3" text-anchor="middle" dominant-baseline="central" fill="#000">59</text>
<line x1="102.54896276567219" y1="115.57111608362071" x2="97.26922156521826" y2="146.63238992507368" stroke="#000" stroke-width="0.3" stroke-dasharray="2 1.5" />
<line x1="58.92383677844386" y1="100.59956916720523" x2="78.48365041138304" y2="64.6589335324128" stroke="#000" stroke-width="0.3" stroke-dasharray="2 1.5" />
<line x1="78.48365041138304" y1="64.6589335324128" x2="86.40043619884484" y2="85.99988119737802" stroke="#000" stroke-width="0.3" stroke-dasharray="2 1.5" />
<line x1="86.40043619884484" y1="85.99988119737802" x2="58.92383677844386" y2="100.59956916720523" stroke="#000" stroke-width="0.3" />
<polygon points="86.40043619884484,85.99988119737802 58.92383677844386,100.59956916720523 71.63286182147499,107.94028694290883 85.37116153167548,100.64044295799522" fill="none" stroke="#666" stroke-width="0.2" />
<text x="71.81753325842537" y="91.71018267468018" font-size="3" text-anchor="middle" dominant-baseline="central" fill="#000">63</text>
<line x1="78.48365041138304" y1="64.6589335324128" x2="58.92383677844386" y2="100.59956916720523" stroke="#000" stroke-width="0.3" stroke-dasharray="2 1.5" />
<line x1="58.92383677844386" y1="100.59956916720523" x2="49.57004085946997" y2="75.38492918601595" stroke="#000" stroke-width="0.3" stroke-dasharray="2 1.5" />
<line x1="49.57004085946997" y1="75.38492918601595" x2="78.48365041138304" y2="64.6589335324128" stroke="#000" stroke-width="0.3" stroke-dasharray="2 1.5" />
<line x1="90.73035519889397" y1="195.24680866537673" x2="105.22511218916482" y2="226.08770112890437" stroke="#000" stroke-width="0.3" stroke-dasharray="2 1.5" />
<line x1="105.22511218916482" y1="226.08770112890437" x2="81.47934462215277" y2="206.41075044600714" stroke="#000" stroke-width="0.3" />
<text x="93.35222840565879" y="216.24922578745577" font-size="3" text-anchor="middle" dominant-baseline="central" fill="#000">30</text>
<line x1="81.47934462215277" y1="206.41075044600714" x2="90.73035519889397" y2="195.24680866537673" stroke="#000" stroke-width="0.3" stroke-dasharray="2 1.5" />
<line x1="105.22511218916482" y1="226.08770112890437" x2="90.73035519889397" y2="195.24680866537673" stroke="#000" stroke-width="0.3" stroke-dasharray="2 1.5" />
<line x1="90.73035519889397" y1="195.24680866537673" x2="111.83990924777393" y2="218.1050885876039" stroke="#000" stroke-width="0.3" />
<polygon points="90.73035519889397,195.24680866537673 111.83990924777393,218.1050885876039 115.7058327044448,203.9466969874951 105.15105568000482,192.51755702638152" fill="none" stroke="#666" stroke-width="0.2" />
<text x="99.96276295021687" y="207.89715274764114" font-size="3" text-anchor="middle" dominant-baseline="central" fill="#000">69</text>
<line x1="111.83990924777393" y1="218.1050885876039" x2="105.22511218916482" y2="226.08770112890437" stroke="#000" stroke-width="0.3" />
<text x="108.53251071846938" y="222.09639485825414" font-size="3" text-anchor="middle" dominant-baseline="central" fill="#000">54</text>
<line x1="112.44003091219757" y1="67.52649876039744" x2="136.31086814398427" y2="43.2069231471712" stroke="#000" stroke-width="0.3" stroke-dasharray="2 1.5" />
<line x1="136.31086814398427" y1="43.2069231471712" x2="139.91662558918551" y2="52.92680773277651" stroke="#000" stroke-width="0.3" />
<text x="138.1137468665849" y="48.06686543997385" font-size="3" text-anchor="middle" dominant-baseline="central" fill="#000">65</text>
<line x1="139.91662558918551" y1="52.92680773277651" x2="112.44003091219757" y2="67.52649876039744" stroke="#000" stroke-width="0.3" />
<polygon points="139.91662558918551,52.92680773277651 112.44003091219757,67.52649876039744 125.14905599249295,74.86721387428737 138.88735333098688,67.5673683604769" fill="none" stroke="#666" stroke-width="0.2" />
<text x="125.33372476881905" y="58.63711087269163" font-size="3" text-anchor="middle" dominant-baseline="central" fill="#000">70</text>
<line x1="136.31086814398427" y1="43.2069231471712" x2="112.44003091219757" y2="67.52649876039744" stroke="#000" stroke-width="0.3" stroke-dasharray="2 1.5" />
<line x1="112.44003091219757" y1="67.52649876039744" x2="107.39725970851515" y2="53.9329248609553" stroke="#000" stroke-width="0.3" stroke-dasharray="2 1.5" />
<line x1="107.39725970851515" y1="53.9329248609553" x2="136.31086814398427" y2="43.2069231471712" stroke="#000" stroke-width="0.3" />
<text x="121.85406392624971" y="48.56992400406325" font-size="3" text-anchor="middle" dominant-baseline="central" fill="#000">8</text>
<line x1="35.11322961178609" y1="80.74792482041268" x2="58.92383677844386" y2="100.59956916720523" stroke="#000" stroke-width="0.3" stroke-dasharray="2 1.5" />
<line x1="58.92383677844386" y1="100.59956916720523" x2="43.74851989910468" y2="104.02571837511455" stroke="#000" stroke-width="0.3" />
<polygon points="58.92383677844386,100.59956916720523 43.74851989910468,104.02571837511455 48.9128088021032,109.23930782487288 56.50046724177279,107.52623322091823" fill="none" stroke="#666" stroke-width="0.2" />
<text x="50.93976769502049" y="100.55683666287074" font-size="3" text-anchor="middle" dominant-baseline="central" fill="#000">73</text>
<line x1="43.74851989910468" y1="104.02571837511455" x2="35.11322961178609" y2="80.74792482041268" stroke="#000" stroke-width="0.3" stroke-dasharray="2 1.5" />
<line x1="58.92383677844386" y1="100.59956916720523" x2="35.11322961178609" y2="80.74792482041268" stroke="#000" stroke-width="0.3" stroke-dasharray="2 1.5" />
<line x1="35.11322961178609" y1="80.74792482041268" x2="49.57004085946997" y2="75.38492918601595" stroke="#000" stroke-width="0.3" />
<text x="42.34163523562803" y="78.06642700321432" font-size="3" text-anchor="middle" dominant-baseline="central" fill="#000">13</text>
<line x1="49.57004085946997" y1="75.38492918601595" x2="58.92383677844386" y2="100.59956916720523" stroke="#000" stroke-width="0.3" stroke-dasharray="2 1.5" />
<line x1="112.44003091219757" y1="67.52649876039744" x2="78.48365041138304" y2="64.6589335324128" stroke="#000" stroke-width="0.3" stroke-dasharray="2 1.5" />
<line x1="78.48365041138304" y1="64.6589335324128" x2="107.39725970851515" y2="53.9329248609553" stroke="#000" stroke-width="0.3" />
<text x="92.9404550599491" y="59.29592919668406" font-size="3" text-anchor="middle" dominant-baseline="central" fill="#000">9</text>
<line x1="107.39725970851515" y1="53.9329248609553" x2="112.44003091219757" y2="67.52649876039744" stroke="#000" stroke-width="0.3" stroke-dasharray="2 1.5" />
<line x1="78.48365041138304" y1="64.6589335324128" x2="112.44003091219757" y2="67.52649876039744" stroke="#000" stroke-width="0.3" stroke-dasharray="2 1.5" />
<line x1="112.44003091219757" y1="67.52649876039744" x2="86.40043619884484" y2="85.99988119737802" stroke="#000" stroke-width="0.3" />
<polygon points="112.44003091219757,67.52649876039744 86.40043619884484,85.99988119737802 100.29968785197526,91.79737347347397 113.31948520865163,82.56068225498369" fill="none" stroke="#666" stroke-width="0.2" />
<text x="98.37872629849396" y="75.29510870267734" font-size="3" text-anchor="middle" dominant-baseline="central" fill="#000">74</text>
<line x1="86.40043619884484" y1="85.99988119737802" x2="78.48365041138304" y2="64.6589335324128" stroke="#000" stroke-width="0.3" stroke-dasharray="2 1.5" />
<line x1="51.14744280421875" y1="146.34891436459168" x2="57.733578540756525" y2="186.73379291149493" stroke="#000" stroke-width="0.3" stroke-dasharray="2 1.5" />
<line x1="57.733578540756525" y1="186.73379291149493" x2="33.987807917657854" y2="167.0568475795391" stroke="#000" stroke-width="0.3" stroke-dasharray="2 1.5" />
<line x1="33.987807917657854" y1="167.0568475795391" x2="51.14744280421875" y2="146.34891436459168" stroke="#000" stroke-width="0.3" stroke-dasharray="2 1.5" />
<line x1="57.733578540756525" y1="186.73379291149493" x2="51.14744280421875" y2="146.34891436459168" stroke="#000" stroke-width="0.3" stroke-dasharray="2 1.5" />
<line x1="51.14744280421875" y1="146.34891436459168" x2="72.25700234043556" y2="169.20719296803017" stroke="#000" stroke-width="0.3" />
<polygon points="51.14744280421875,146.34891436459168 72.25700234043556,169.20719296803017 76.12292389775675,155.04879950268383 65.56814412964836,143.61966020096457" fill="none" stroke="#666" stroke-width="0.2" />
<text x="60.37985349254894" y="158.99925799681688" font-size="3" text-anchor="middle" dominant-baseline="central" fill="#000">82</text>
<line x1="72.25700234043556" y1="169.20719296803017" x2="57.733578540756525" y2="186.73379291149493" stroke="#000" stroke-width="0.3" stroke-dasharray="2 1.5" />
<line x1="168.4339203666607" y1="93.60478150726497" x2="162.17768171147637" y2="105.4264724654882" stroke="#000" stroke-width="0.3" stroke-dasharray="2 1.5" />
<line x1="162.17768171147637" y1="105.4264724654882" x2="160.49193655732776" y2="89.96080189239491" stroke="#000" stroke-width="0.3" />
<text x="161.33480913440206" y="97.69363717894156" font-size="3" text-anchor="middle" dominant-baseline="central" fill="#000">64</text>
<line x1="160.49193655732776" y1="89.96080189239491" x2="168.4339203666607" y2="93.60478150726497" stroke="#000" stroke-width="0.3" />
<text x="164.46292846199424" y="91.78279169982994" font-size="3" text-anchor="middle" dominant-baseline="central" fill="#000">51</text>
<line x1="162.17768171147637" y1="105.4264724654882" x2="168.4339203666607" y2="93.60478150726497" stroke="#000" stroke-width="0.3" stroke-dasharray="2 1.5" />
<line x1="168.4339203666607" y1="93.60478150726497" x2="171.05948738031316" y2="112.20812331207075" stroke="#000" stroke-width="0.3" stroke-dasharray="2 1.5" />
<line x1="171.05948738031316" y1="112.20812331207075" x2="162.17768171147637" y2="105.4264724654882" stroke="#000" stroke-width="0.3" stroke-dasharray="2 1.5" />
<line x1="162.17768171147637" y1="105.4264724654882" x2="171.05948738031316" y2="112.20812331207075" stroke="#000" stroke-width="0.3" stroke-dasharray="2 1.5" />
<line x1="171.05948738031316" y1="112.20812331207075" x2="136.53097629818757" y2="123.04353052265144" stroke="#000" stroke-width="0.3" stroke-dasharray="2 1.5" />
<line x1="136.53097629818757" y1="123.04353052265144" x2="162.17768171147637" y2="105.4264724654882" stroke="#000" stroke-width="0.3" />
<text x="149.35432900483198" y="114.23500149406982" font-size="3" text-anchor="middle" dominant-baseline="central" fill="#000">70</text>
<line x1="136.53097629818757" y1="123.04353052265144" x2="171.05948738031316" y2="112.20812331207075" stroke="#000" stroke-width="0.3" stroke-dasharray="2 1.5" />
<line x1="171.05948738031316" y1="112.20812331207075" x2="139.42979870925038" y2="132.49296049733564" stroke="#000" stroke-width="0.3" stroke-dasharray="2 1.5" />
<line x1="139.42979870925038" y1="132.49296049733564" x2="136.53097629818757" y2="123.04353052265144" stroke="#000" stroke-width="0.3" stroke-dasharray="2 1.5" />
<line x1="102.54896276567219" y1="115.57111608362071" x2="136.53097629818757" y2="123.04353052265144" stroke="#000" stroke-width="0.3" stroke-dasharray="2 1.5" />
<line x1="136.53097629818757" y1="123.04353052265144" x2="139.42979870925038" y2="132.49296049733564" stroke="#000" stroke-width="0.3" stroke-dasharray="2 1.5" />
<line x1="139.42979870925038" y1="132.49296049733564" x2="102.54896276567219" y2="115.57111608362071" stroke="#000" stroke-width="0.3" stroke-dasharray="2 1.5" />
<line x1="102.54896276567219" y1="115.57111608362071" x2="107.51276786086444" y2="109.72925507910294" stroke="#000" stroke-width="0.3" stroke-dasharray="2 1.5" />
<line x1="107.51276786086444" y1="109.72925507910294" x2="136.53097629818757" y2="123.04353052265144" stroke="#000" stroke-width="0.3" />
<text x="122.021872079526" y="116.38639280087719" font-size="3" text-anchor="middle" dominant-baseline="central" fill="#000">74</text>
<line x1="136.53097629818757" y1="123.04353052265144" x2="102.54896276567219" y2="115.57111608362071" stroke="#000" stroke-width="0.3" stroke-dasharray="2 1.5" />
<line x1="97.29781921917001" y1="78.36443619422808" x2="107.51276786086444" y2="109.72925507910294" stroke="#000" stroke-width="0.3" stroke-dasharray="2 1.5" />
<line x1="107.51276786086444" y1="109.72925507910294" x2="102.54896276567219" y2="115.57111608362071" stroke="#000" stroke-width="0.3" stroke-dasharray="2 1.5" />
<line x1="102.54896276567219" y1="115.57111608362071" x2="97.29781921917001" y2="78.36443619422808" stroke="#000" stroke-width="0.3" />
<text x="99.9233909924211" y="96.96777613892439" font-size="3" text-anchor="middle" dominant-baseline="central" fill="#000">59</text>
<line x1="97.29781921917001" y1="78.36443619422808" x2="104.14126541324688" y2="78.79792184286487" stroke="#000" stroke-width="0.3" stroke-dasharray="2 1.5" />
<line x1="104.14126541324688" y1="78.79792184286487" x2="107.51276786086444" y2="109.72925507910294" stroke="#000" stroke-width="0.3" />
<text x="105.82701663705566" y="94.2635884609839" font-size="3" text-anchor="middle" dominant-baseline="central" fill="#000">63</text>
<line x1="107.51276786086444" y1="109.72925507910294" x2="97.29781921917001" y2="78.36443619422808" stroke="#000" stroke-width="0.3" stroke-dasharray="2 1.5" />
<line x1="113.1126586338242" y1="68.22201129984319" x2="104.14126541324688" y2="78.79792184286487" stroke="#000" stroke-width="0.3" stroke-dasharray="2 1.5" />
<line x1="104.14126541324688" y1="78.79792184286487" x2="97.29781921917001" y2="78.36443619422808" stroke="#000" stroke-width="0.3" stroke-dasharray="2 1.5" />
<line x1="97.29781921917001" y1="78.36443619422808" x2="113.1126586338242" y2="68.22201129984319" stroke="#000" stroke-width="0.3" />
<text x="105.2052389264971" y="73.29322374703563" font-size="3" text-anchor="middle" dominant-baseline="central" fill="#000">19</text>
<line x1="104.14126541324688" y1="78.79792184286487" x2="113.1126586338242" y2="68.22201129984319" stroke="#000" stroke-width="0.3" stroke-dasharray="2 1.5" />
<line x1="113.1126586338242" y1="68.22201129984319" x2="116.96462175012564" y2="69.98938774003906" stroke="#000" stroke-width="0.3" />
<text x="115.03864019197492" y="69.10569951994113" font-size="3" text-anchor="middle" dominant-baseline="central" fill="#000">48</text>
<line x1="116.96462175012564" y1="69.98938774003906" x2="104.14126541324688" y2="78.79792184286487" stroke="#000" stroke-width="0.3" />
<text x="110.55294358168626" y="74.39365479145197" font-size="3" text-anchor="middle" dominant-baseline="central" fill="#000">73</text>
<line x1="205.9" y1="176.07322874628687" x2="194.10306578377282" y2="183.36487624395338" stroke="#000" stroke-width="0.3" stroke-dasharray="2 1.5" />
<line x1="194.10306578377282" y1="183.36487624395338" x2="204.72760314564752" y2="172.0005484314806" stroke="#000" stroke-width="0.3" />
<text x="199.41533446471016" y="177.682712337717" font-size="3" text-anchor="middle" dominant-baseline="central" fill="#000">42</text>
<line x1="204.72760314564752" y1="172.0005484314806" x2="205.9" y2="176.07322874628687" stroke="#000" stroke-width="0.3" />
<text x="205.31380157282376" y="174.03688858888376" font-size="3" text-anchor="middle" dominant-baseline="central" fill="#000">49</text>
<line x1="194.10306578377282" y1="183.36487624395338" x2="205.9" y2="176.07322874628687" stroke="#000" stroke-width="0.3" stroke-dasharray="2 1.5" />
<line x1="205.9" y1="176.07322874628687" x2="193.5098445392276" y2="190.19632954276315" stroke="#000" stroke-width="0.3" />
<text x="199.7049222696138" y="183.134779144525" font-size="3" text-anchor="middle" dominant-baseline="central" fill="#000">18</text>
<line x1="193.5098445392276" y1="190.19632954276315" x2="194.10306578377282" y2="183.36487624395338" stroke="#000" stroke-width="0.3" stroke-dasharray="2 1.5" />
<line x1="194.10306578377282" y1="183.36487624395338" x2="193.5098445392276" y2="190.19632954276315" stroke="#000" stroke-width="0.3" stroke-dasharray="2 1.5" />
<line x1="193.5098445392276" y1="190.19632954276315" x2="164.0219197866055" y2="175.41257720388936" stroke="#000" stroke-width="0.3" stroke-dasharray="2 1.5" />
<line x1="164.0219197866055" y1="175.41257720388936" x2="194.10306578377282" y2="183.36487624395338" stroke="#000" stroke-width="0.3" />
<text x="179.06249278518916" y="179.38872672392137" font-size="3" text-anchor="middle" dominant-baseline="central" fill="#000">82</text>
<line x1="164.0219197866055" y1="175.41257720388936" x2="193.5098445392276" y2="190.19632954276315" stroke="#000" stroke-width="0.3" stroke-dasharray="2 1.5" />
<line x1="193.5098445392276" y1="190.19632954276315" x2="157.50436659791853" y2="179.4484416034695" stroke="#000" stroke-width="0.3" />
<text x="175.50710556857308" y="184.82238557311632" font-size="3" text-anchor="middle" dominant-baseline="central" fill="#000">58</text>
<line x1="157.50436659791853" y1="179.4484416034695" x2="164.0219197866055" y2="175.41257720388936" stroke="#000" stroke-width="0.3" stroke-dasharray="2 1.5" />
<line x1="164.0219197866055" y1="175.41257720388936" x2="157.50436659791853" y2="179.4484416034695" stroke="#000" stroke-width="0.3" stroke-dasharray="2 1.5" />
<line x1="157.50436659791853" y1="179.4484416034695" x2="155.18983721891556" y2="144.73162759315997" stroke="#000" stroke-width="0.3" stroke-dasharray="2 1.5" />
<line x1="155.18983721891556" y1="144.73162759315997" x2="164.0219197866055" y2="175.41257720388936" stroke="#000" stroke-width="0.3" />
<text x="159.60587850276053" y="160.07210239852466" font-size="3" text-anchor="middle" dominant-baseline="central" fill="#000">57</text>
<line x1="146.27918745142927" y1="140.45433651836302" x2="155.18983721891556" y2="144.73162759315997" stroke="#000" stroke-width="0.3" stroke-dasharray="2 1.5" />
<line x1="155.18983721891556" y1="144.73162759315997" x2="157.50436659791853" y2="179.4484416034695" stroke="#000" stroke-width="0.3" stroke-dasharray="2 1.5" />
<line x1="157.50436659791853" y1="179.4484416034695" x2="146.27918745142927" y2="140.45433651836302" stroke="#000" stroke-width="0.3" />
<text x="151.8917770246739" y="159.95138906091626" font-size="3" text-anchor="middle" dominant-baseline="central" fill="#000">56</text>
<line x1="171.05948738031316" y1="112.20812331207075" x2="155.18983721891556" y2="144.73162759315997" stroke="#000" stroke-width="0.3" stroke-dasharray="2 1.5" />
<line x1="155.18983721891556" y1="144.73162759315997" x2="146.27918745142927" y2="140.45433651836302" stroke="#000" stroke-width="0.3" stroke-dasharray="2 1.5" />
<line x1="146.27918745142927" y1="140.45433651836302" x2="171.05948738031316" y2="112.20812331207075" stroke="#000" stroke-width="0.3" stroke-dasharray="2 1.5" />
<line x1="171.05948738031316" y1="112.20812331207075" x2="176.43890082383245" y2="122.00297763193979" stroke="#000" stroke-width="0.3" stroke-dasharray="2 1.5" />
<line x1="176.43890082383245" y1="122.00297763193979" x2="155.18983721891556" y2="144.73162759315997" stroke="#000" stroke-width="0.3" />
<text x="165.814369021374" y="133.36730261254988" font-size="3" text-anchor="middle" dominant-baseline="central" fill="#000">69</text>
<line x1="155.18983721891556" y1="144.73162759315997" x2="171.05948738031316" y2="112.20812331207075" stroke="#000" stroke-width="0.3" stroke-dasharray="2 1.5" />
<line x1="189.06222890091394" y1="117.5820628532175" x2="176.43890082383245" y2="122.00297763193979" stroke="#000" stroke-width="0.3" stroke-dasharray="2 1.5" />
<line x1="176.43890082383245" y1="122.00297763193979" x2="171.05948738031316" y2="112.20812331207075" stroke="#000" stroke-width="0.3" stroke-dasharray="2 1.5" />
<line x1="171.05948738031316" y1="112.20812331207075" x2="189.06222890091394" y2="117.5820628532175" stroke="#000" stroke-width="0.3" />
<text x="180.06085814061356" y="114.89509308264412" font-size="3" text-anchor="middle" dominant-baseline="central" fill="#000">2</text>
<line x1="176.43890082383245" y1="122.00297763193979" x2="189.06222890091394" y2="117.5820628532175" stroke="#000" stroke-width="0.3" stroke-dasharray="2 1.5" />
<line x1="189.06222890091394" y1="117.5820628532175" x2="191.47947863935957" y2="125.97912174090423" stroke="#000" stroke-width="0.3" />
<text x="190.27085377013674" y="121.78059229706086" font-size="3" text-anchor="middle" dominant-baseline="central" fill="#000">50</text>
<line x1="191.47947863935957" y1="125.97912174090423" x2="176.43890082383245" y2="122.00297763193979" stroke="#000" stroke-width="0.3" />
<text x="183.959189731596" y="123.991049686422" font-size="3" text-anchor="middle" dominant-baseline="central" fill="#000">55</text>
</svg>