<svg xmlns="http://www.w3.org/2000/svg" width="215.9mm" height="279.4mm" viewBox="0 0 215.9 279.4">
<rect x="0" y="0" width="215.9" height="279.4" fill="none" stroke="#ccc" stroke-width="0.15" />
<line x1="68.95454545454547" y1="68.95454545454544" x2="127.90909090909092" y2="68.95454545454544" stroke="#000" stroke-width="0.3" stroke-dasharray="2 1.5" />
<line x1="127.90909090909092" y1="68.95454545454544" x2="68.95454545454547" y2="127.90909090909089" stroke="#000" stroke-width="0.3" stroke-dasharray="2 1.5" />
<line x1="68.95454545454547" y1="127.90909090909089" x2="68.95454545454547" y2="68.95454545454544" stroke="#000" stroke-width="0.3" stroke-dasharray="2 1.5" />
<line x1="127.90909090909092" y1="68.95454545454544" x2="127.90909090909089" y2="127.90909090909089" stroke="#000" stroke-width="0.3" stroke-dasharray="2 1.5" />
<line x1="127.90909090909089" y1="127.90909090909089" x2="68.95454545454547" y2="127.90909090909089" stroke="#000" stroke-width="0.3" stroke-dasharray="2 1.5" />
<line x1="68.95454545454547" y1="127.90909090909089" x2="127.90909090909092" y2="68.95454545454544" stroke="#000" stroke-width="0.3" stroke-dasharray="2 1.5" />
<line x1="68.95454545454544" y1="186.86363636363635" x2="127.90909090909086" y2="186.86363636363635" stroke="#000" stroke-width="0.3" stroke-dasharray="2 1.5" />
<line x1="127.90909090909086" y1="186.86363636363635" x2="68.95454545454541" y2="245.81818181818178" stroke="#000" stroke-width="0.3" stroke-dasharray="2 1.5" />
<line x1="68.95454545454541" y1="245.81818181818178" x2="68.95454545454544" y2="186.86363636363635" stroke="#000" stroke-width="0.3" />
<polygon points="68.95454545454541,245.81818181818178 68.95454545454544,186.86363636363635 45.372727272727246,201.6022727272727 45.37272727272723,231.0795454545454" fill="none" stroke="#666" stroke-width="0.2" />
<text x="70.75454545454542" y="216.34090909090907" font-size="3" text-anchor="middle" dominant-baseline="central" fill="#000">1</text>
<line x1="127.90909090909086" y1="186.86363636363635" x2="127.90909090909084" y2="245.81818181818178" stroke="#000" stroke-width="0.3" />
<polygon points="127.90909090909086,186.86363636363635 127.90909090909084,245.81818181818178 151.490909090909,231.0795454545454 151.49090909090904,201.6022727272727" fill="none" stroke="#666" stroke-width="0.2" />
<text x="126.10909090909085" y="216.34090909090907" font-size="3" text-anchor="middle" dominant-baseline="central" fill="#000">2</text>
<line x1="127.90909090909084" y1="245.81818181818178" x2="68.95454545454541" y2="245.81818181818178" stroke="#000" stroke-width="0.3" />
<polygon points="127.90909090909084,245.81818181818178 68.95454545454541,245.81818181818178 83.69318181818177,269.4 113.17045454545448,269.4" fill="none" stroke="#666" stroke-width="0.2" />
<text x="98.43181818181813" y="244.01818181818177" font-size="3" text-anchor="middle" dominant-baseline="central" fill="#000">3</text>
<line x1="68.95454545454541" y1="245.81818181818178" x2="127.90909090909086" y2="186.86363636363635" stroke="#000" stroke-width="0.3" stroke-dasharray="2 1.5" />
<line x1="10" y1="127.90909090909086" x2="10.000000000000027" y2="68.95454545454541" stroke="#000" stroke-width="0.3" />
<text x="10.000000000000014" y="98.43181818181813" font-size="3" text-anchor="middle" dominant-baseline="central" fill="#000">1</text>
<line x1="10.000000000000027" y1="68.95454545454541" x2="68.95454545454547" y2="127.90909090909089" stroke="#000" stroke-width="0.3" stroke-dasharray="2 1.5" />
<line x1="68.95454545454547" y1="127.90909090909089" x2="10" y2="127.90909090909086" stroke="#000" stroke-width="0.3" />
<polygon points="68.95454545454547,127.90909090909089 10,127.90909090909086 24.73863636363635,151.49090909090904 54.215909090909086,151.49090909090907" fill="none" stroke="#666" stroke-width="0.2" />
<text x="39.477272727272734" y="126.10909090909088" font-size="3" text-anchor="middle" dominant-baseline="central" fill="#000">4</text>
<line x1="10.000000000000027" y1="68.95454545454541" x2="68.95454545454547" y2="68.95454545454544" stroke="#000" stroke-width="0.3" />
<polygon points="10.000000000000027,68.95454545454541 68.95454545454547,68.95454545454544 54.21590909090912,45.37272727272726 24.738636363636402,45.372727272727246" fill="none" stroke="#666" stroke-width="0.2" />
<text x="39.47727272727275" y="70.75454545454542" font-size="3" text-anchor="middle" dominant-baseline="central" fill="#000">5</text>
<line x1="68.95454545454547" y1="68.95454545454544" x2="68.95454545454547" y2="127.90909090909089" stroke="#000" stroke-width="0.3" stroke-dasharray="2 1.5" />
<line x1="68.95454545454547" y1="127.90909090909089" x2="10.000000000000027" y2="68.95454545454541" stroke="#000" stroke-width="0.3" stroke-dasharray="2 1.5" />
<line x1="186.86363636363637" y1="68.9545454545455" x2="186.86363636363635" y2="127.90909090909095" stroke="#000" stroke-width="0.3" />
<text x="186.86363636363637" y="98.43181818181822" font-size="3" text-anchor="middle" dominant-baseline="central" fill="#000">2</text>
<line x1="186.86363636363635" y1="127.90909090909095" x2="127.90909090909092" y2="68.95454545454544" stroke="#000" stroke-width="0.3" stroke-dasharray="2 1.5" />
<line x1="127.90909090909092" y1="68.95454545454544" x2="186.86363636363637" y2="68.9545454545455" stroke="#000" stroke-width="0.3" />
<polygon points="127.90909090909092,68.95454545454544 186.86363636363637,68.9545454545455 172.12500000000003,45.372727272727296 142.6477272727273,45.37272727272728" fill="none" stroke="#666" stroke-width="0.2" />
<text x="157.38636363636365" y="70.75454545454546" font-size="3" text-anchor="middle" dominant-baseline="central" fill="#000">6</text>
<line x1="186.86363636363635" y1="127.90909090909095" x2="127.90909090909089" y2="127.90909090909089" stroke="#000" stroke-width="0.3" />
<polygon points="186.86363636363635,127.90909090909095 127.90909090909089,127.90909090909089 142.64772727272725,151.4909090909091 172.12499999999997,151.4909090909091" fill="none" stroke="#666" stroke-width="0.2" />
<text x="157.38636363636363" y="126.10909090909092" font-size="3" text-anchor="middle" dominant-baseline="central" fill="#000">7</text>
<line x1="127.90909090909089" y1="127.90909090909089" x2="127.90909090909092" y2="68.95454545454544" stroke="#000" stroke-width="0.3" stroke-dasharray="2 1.5" />
<line x1="127.90909090909092" y1="68.95454545454544" x2="186.86363636363635" y2="127.90909090909095" stroke="#000" stroke-width="0.3" stroke-dasharray="2 1.5" />
<line x1="68.9545454545455" y1="10" x2="127.90909090909095" y2="10" stroke="#000" stroke-width="0.3" />
<text x="98.43181818181822" y="10" font-size="3" text-anchor="middle" dominant-baseline="central" fill="#000">3</text>
<line x1="127.90909090909095" y1="10" x2="68.95454545454547" y2="68.95454545454544" stroke="#000" stroke-width="0.3" stroke-dasharray="2 1.5" />
<line x1="68.95454545454547" y1="68.95454545454544" x2="68.9545454545455" y2="10" stroke="#000" stroke-width="0.3" />
<text x="68.95454545454548" y="39.47727272727272" font-size="3" text-anchor="middle" dominant-baseline="central" fill="#000">5</text>
<line x1="127.90909090909095" y1="10" x2="127.90909090909092" y2="68.95454545454544" stroke="#000" stroke-width="0.3" />
<text x="127.90909090909093" y="39.47727272727272" font-size="3" text-anchor="middle" dominant-baseline="central" fill="#000">6</text>
<line x1="127.90909090909092" y1="68.95454545454544" x2="68.95454545454547" y2="68.95454545454544" stroke="#000" stroke-width="0.3" stroke-dasharray="2 1.5" />
<line x1="68.95454545454547" y1="68.95454545454544" x2="127.90909090909095" y2="10" stroke="#000" stroke-width="0.3" stroke-dasharray="2 1.5" />
<line x1="68.95454545454547" y1="127.90909090909089" x2="127.90909090909089" y2="127.90909090909089" stroke="#000" stroke-width="0.3" stroke-dasharray="2 1.5" />
<line x1="127.90909090909089" y1="127.90909090909089" x2="68.95454545454544" y2="186.86363636363635" stroke="#000" stroke-width="0.3" stroke-dasharray="2 1.5" />
<line x1="68.95454545454544" y1="186.86363636363635" x2="68.95454545454547" y2="127.90909090909089" stroke="#000" stroke-width="0.3" />
<text x="68.95454545454545" y="157.38636363636363" font-size="3" text-anchor="middle" dominant-baseline="central" fill="#000">4</text>
<line x1="127.90909090909089" y1="127.90909090909089" x2="127.90909090909086" y2="186.86363636363635" stroke="#000" stroke-width="0.3" />
<text x="127.90909090909088" y="157.38636363636363" font-size="3" text-anchor="middle" dominant-baseline="central" fill="#000">7</text>
<line x1="127.90909090909086" y1="186.86363636363635" x2="68.95454545454544" y2="186.86363636363635" stroke="#000" stroke-width="0.3" stroke-dasharray="2 1.5" />
<line x1="68.95454545454544" y1="186.86363636363635" x2="127.90909090909089" y2="127.90909090909089" stroke="#000" stroke-width="0.3" stroke-dasharray="2 1.5" />
</svg>