<svg xmlns="http://www.w3.org/2000/svg" width="215.9mm" height="279.4mm" viewBox="0 0 215.9 279.4">
<rect x="0" y="0" width="215.9" height="279.4" fill="none" stroke="#ccc" stroke-width="0.15" />
<line x1="42.79594968063159" y1="107.19355498872365" x2="40.58371318098163" y2="82.38989961916126" stroke="#000" stroke-width="0.3" />
<text x="41.689831430806606" y="94.79172730394245" font-size="3" text-anchor="middle" dominant-baseline="central" fill="#000">2</text>
<line x1="40.58371318098163" y1="82.38989961916126" x2="60.521036260577105" y2="79.14949848920519" stroke="#000" stroke-width="0.3" stroke-dasharray="2 1.5" />
<line x1="60.521036260577105" y1="79.14949848920519" x2="42.79594968063159" y2="107.19355498872365" stroke="#000" stroke-width="0.3" stroke-dasharray="2 1.5" />
<line x1="42.79594968063159" y1="107.19355498872365" x2="60.521036260577105" y2="79.14949848920519" stroke="#000" stroke-width="0.3" stroke-dasharray="2 1.5" />
<line x1="60.521036260577105" y1="79.14949848920519" x2="62.78753093843239" y2="108.41604872824648" stroke="#000" stroke-width="0.3" />
<polygon points="60.521036260577105,79.14949848920519 62.78753093843239,108.41604872824648 73.92752736458507,100.19281329734405 72.79428002565746,85.55953817782338" fill="none" stroke="#666" stroke-width="0.2" />
<text x="59.859657142223746" y="93.92175518601948" font-size="3" text-anchor="middle" dominant-baseline="central" fill="#000">3</text>
<line x1="62.78753093843239" y1="108.41604872824648" x2="42.79594968063159" y2="107.19355498872365" stroke="#000" stroke-width="0.3" stroke-dasharray="2 1.5" />
<line x1="43.672950960987095" y1="117.05501518819803" x2="42.79594968063159" y2="107.19355498872365" stroke="#000" stroke-width="0.3" />
<polygon points="43.672950960987095,117.05501518819803 42.79594968063159,107.19355498872365 39.07061592093072,110.00972055073444 39.50911656110847,114.94045065047163" fill="none" stroke="#666" stroke-width="0.2" />
<text x="45.02737422510545" y="111.96483643401801" font-size="3" text-anchor="middle" dominant-baseline="central" fill="#000">8</text>
<line x1="42.79594968063159" y1="107.19355498872365" x2="62.78753093843239" y2="108.41604872824648" stroke="#000" stroke-width="0.3" stroke-dasharray="2 1.5" />
<line x1="62.78753093843239" y1="108.41604872824648" x2="43.672950960987095" y2="117.05501518819803" stroke="#000" stroke-width="0.3" stroke-dasharray="2 1.5" />
<line x1="43.672950960987095" y1="117.05501518819803" x2="62.78753093843239" y2="108.41604872824648" stroke="#000" stroke-width="0.3" stroke-dasharray="2 1.5" />
<line x1="62.78753093843239" y1="108.41604872824648" x2="63.39432996339381" y2="115.32469028083067" stroke="#000" stroke-width="0.3" />
<polygon points="62.78753093843239,108.41604872824648 63.39432996339381,115.32469028083067 66.00608682818711,113.35481028270003 65.70268731570641,109.90048950640796" fill="none" stroke="#666" stroke-width="0.2" />
<text x="61.29783353278527" y="112.02786059063702" font-size="3" text-anchor="middle" dominant-baseline="central" fill="#000">9</text>
<line x1="63.39432996339381" y1="115.32469028083067" x2="43.672950960987095" y2="117.05501518819803" stroke="#000" stroke-width="0.3" stroke-dasharray="2 1.5" />
<line x1="60.521036260577105" y1="79.14949848920519" x2="40.58371318098163" y2="82.38989961916126" stroke="#000" stroke-width="0.3" stroke-dasharray="2 1.5" />
<line x1="40.58371318098163" y1="82.38989961916126" x2="39.96743752248145" y2="75.48020029519333" stroke="#000" stroke-width="0.3" />
<polygon points="40.58371318098163,82.38989961916126 39.96743752248145,75.48020029519333 37.357626707519316,77.45413538958539 37.665764536769416,80.90898505156935" fill="none" stroke="#666" stroke-width="0.2" />
<text x="42.068458423607645" y="78.77514282606643" font-size="3" text-anchor="middle" dominant-baseline="central" fill="#000">12</text>
<line x1="39.96743752248145" y1="75.48020029519333" x2="60.521036260577105" y2="79.14949848920519" stroke="#000" stroke-width="0.3" stroke-dasharray="2 1.5" />
<line x1="60.521036260577105" y1="79.14949848920519" x2="39.96743752248145" y2="75.48020029519333" stroke="#000" stroke-width="0.3" stroke-dasharray="2 1.5" />
<line x1="39.96743752248145" y1="75.48020029519333" x2="60.06724088602454" y2="73.51046820859403" stroke="#000" stroke-width="0.3" stroke-dasharray="2 1.5" />
<line x1="60.06724088602454" y1="73.51046820859403" x2="60.521036260577105" y2="79.14949848920519" stroke="#000" stroke-width="0.3" />
<text x="60.29413857330083" y="76.32998334889962" font-size="3" text-anchor="middle" dominant-baseline="central" fill="#000">370</text>
<line x1="60.06724088602454" y1="73.51046820859403" x2="39.96743752248145" y2="75.48020029519333" stroke="#000" stroke-width="0.3" stroke-dasharray="2 1.5" />
<line x1="39.96743752248145" y1="75.48020029519333" x2="39.35124134572969" y2="69.20391963102338" stroke="#000" stroke-width="0.3" />
<polygon points="39.96743752248145,75.48020029519333 39.35124134572969,69.20391963102338 36.99477812424966,71.01946826776657 37.30287621262552,74.15760859985154" fill="none" stroke="#666" stroke-width="0.2" />
<text x="41.45072652331551" y="72.1661841642845" font-size="3" text-anchor="middle" dominant-baseline="central" fill="#000">16</text>
<line x1="39.35124134572969" y1="69.20391963102338" x2="60.06724088602454" y2="73.51046820859403" stroke="#000" stroke-width="0.3" stroke-dasharray="2 1.5" />
<line x1="60.06724088602454" y1="73.51046820859403" x2="39.35124134572969" y2="69.20391963102338" stroke="#000" stroke-width="0.3" stroke-dasharray="2 1.5" />
<line x1="39.35124134572969" y1="69.20391963102338" x2="59.584347150378775" y2="68.89999948011194" stroke="#000" stroke-width="0.3" stroke-dasharray="2 1.5" />
<line x1="59.584347150378775" y1="68.89999948011194" x2="60.06724088602454" y2="73.51046820859403" stroke="#000" stroke-width="0.3" stroke-dasharray="2 1.5" />
<line x1="59.584347150378775" y1="68.89999948011194" x2="39.35124134572969" y2="69.20391963102338" stroke="#000" stroke-width="0.3" stroke-dasharray="2 1.5" />
<line x1="39.35124134572969" y1="69.20391963102338" x2="34.72464545210131" y2="59.88973871176951" stroke="#000" stroke-width="0.3" />
<polygon points="39.35124134572969,69.20391963102338 34.72464545210131,59.88973871176951 32.155622057806866,64.06892229903433 34.468920004621054,68.72601275866127" fill="none" stroke="#666" stroke-width="0.2" />
<text x="38.650017974461406" y="63.74606980499571" font-size="3" text-anchor="middle" dominant-baseline="central" fill="#000">19</text>
<line x1="34.72464545210131" y1="59.88973871176951" x2="59.584347150378775" y2="68.89999948011194" stroke="#000" stroke-width="0.3" stroke-dasharray="2 1.5" />
<line x1="59.584347150378775" y1="68.89999948011194" x2="34.72464545210131" y2="59.88973871176951" stroke="#000" stroke-width="0.3" stroke-dasharray="2 1.5" />
<line x1="34.72464545210131" y1="59.88973871176951" x2="48.45511809157137" y2="55.441866693116225" stroke="#000" stroke-width="0.3" stroke-dasharray="2 1.5" />
<line x1="48.45511809157137" y1="55.441866693116225" x2="59.584347150378775" y2="68.89999948011194" stroke="#000" stroke-width="0.3" />
<text x="54.01973262097508" y="62.170933086614085" font-size="3" text-anchor="middle" dominant-baseline="central" fill="#000">18</text>
<line x1="48.45511809157137" y1="55.441866693116225" x2="34.72464545210131" y2="59.88973871176951" stroke="#000" stroke-width="0.3" stroke-dasharray="2 1.5" />
<line x1="34.72464545210131" y1="59.88973871176951" x2="28.233050483098193" y2="49.15321654752535" stroke="#000" stroke-width="0.3" />
<polygon points="34.72464545210131,59.88973871176951 28.233050483098193,49.15321654752535 25.561340359651304,54.43398507618764 28.807137844152866,59.802246158309714" fill="none" stroke="#666" stroke-width="0.2" />
<text x="33.019181776977405" y="53.59014967683589" font-size="3" text-anchor="middle" dominant-baseline="central" fill="#000">23</text>
<line x1="28.233050483098193" y1="49.15321654752535" x2="48.45511809157137" y2="55.441866693116225" stroke="#000" stroke-width="0.3" stroke-dasharray="2 1.5" />
<line x1="48.45511809157137" y1="55.441866693116225" x2="28.233050483098193" y2="49.15321654752535" stroke="#000" stroke-width="0.3" stroke-dasharray="2 1.5" />
<line x1="28.233050483098193" y1="49.15321654752535" x2="38.69986051921298" y2="46.13607220793617" stroke="#000" stroke-width="0.3" stroke-dasharray="2 1.5" />
<line x1="38.69986051921298" y1="46.13607220793617" x2="48.45511809157137" y2="55.441866693116225" stroke="#000" stroke-width="0.3" />
<text x="43.57748930539218" y="50.788969450526196" font-size="3" text-anchor="middle" dominant-baseline="central" fill="#000">21</text>
<line x1="38.69986051921298" y1="46.13607220793617" x2="28.233050483098193" y2="49.15321654752535" stroke="#000" stroke-width="0.3" stroke-dasharray="2 1.5" />
<line x1="28.233050483098193" y1="49.15321654752535" x2="21.676742797225895" y2="42.83058409550574" stroke="#000" stroke-width="0.3" />
<polygon points="28.233050483098193,49.15321654752535 21.676742797225895,42.83058409550574 20.786766737886133,47.03376528285957 24.064920580822267,50.19508150886937" fill="none" stroke="#666" stroke-width="0.2" />
<text x="26.20438967767229" y="44.69622785163227" font-size="3" text-anchor="middle" dominant-baseline="central" fill="#000">27</text>
<line x1="21.676742797225895" y1="42.83058409550574" x2="38.69986051921298" y2="46.13607220793617" stroke="#000" stroke-width="0.3" stroke-dasharray="2 1.5" />
<line x1="38.69986051921298" y1="46.13607220793617" x2="21.676742797225895" y2="42.83058409550574" stroke="#000" stroke-width="0.3" stroke-dasharray="2 1.5" />
<line x1="21.676742797225895" y1="42.83058409550574" x2="29.34617547469415" y2="40.247885326611076" stroke="#000" stroke-width="0.3" stroke-dasharray="2 1.5" />
<line x1="29.34617547469415" y1="40.247885326611076" x2="38.69986051921298" y2="46.13607220793617" stroke="#000" stroke-width="0.3" />
<text x="34.02301799695357" y="43.191978767273625" font-size="3" text-anchor="middle" dominant-baseline="central" fill="#000">25</text>
<line x1="86.289331250303" y1="68.65036097707801" x2="85.41060655643034" y2="66.09158709554674" stroke="#000" stroke-width="0.3" stroke-dasharray="2 1.5" />
<line x1="85.41060655643034" y1="66.09158709554674" x2="87.97181732973786" y2="65.96523699653818" stroke="#000" stroke-width="0.3" />
<polygon points="85.41060655643034,66.09158709554674 87.97181732973786,65.96523699653818 87.28097459680754,64.97234021196732 86.0003692101538,65.0355152614716" fill="none" stroke="#666" stroke-width="0.2" />
<text x="86.77990200343471" y="67.82622573861325" font-size="3" text-anchor="middle" dominant-baseline="central" fill="#000">35</text>
<line x1="87.97181732973786" y1="65.96523699653818" x2="86.289331250303" y2="68.65036097707801" stroke="#000" stroke-width="0.3" stroke-dasharray="2 1.5" />
<line x1="86.289331250303" y1="68.65036097707801" x2="87.97181732973786" y2="65.96523699653818" stroke="#000" stroke-width="0.3" stroke-dasharray="2 1.5" />
<line x1="87.97181732973786" y1="65.96523699653818" x2="88.7200867654357" y2="68.14418555673458" stroke="#000" stroke-width="0.3" stroke-dasharray="2 1.5" />
<line x1="88.7200867654357" y1="68.14418555673458" x2="86.289331250303" y2="68.65036097707801" stroke="#000" stroke-width="0.3" />
<polygon points="88.7200867654357,68.14418555673458 86.289331250303,68.65036097707801 87.09949029722354,69.49611932804524 88.31486805478994,69.24303161787353" fill="none" stroke="#666" stroke-width="0.2" />
<text x="87.13775253139752" y="66.63507493970944" font-size="3" text-anchor="middle" dominant-baseline="central" fill="#000">36</text>
<line x1="60.06724088602454" y1="73.51046820859403" x2="59.584347150378775" y2="68.89999948011194" stroke="#000" stroke-width="0.3" stroke-dasharray="2 1.5" />
<line x1="59.584347150378775" y1="68.89999948011194" x2="85.41060655643034" y2="66.09158709554674" stroke="#000" stroke-width="0.3" />
<polygon points="59.584347150378775,68.89999948011194 85.41060655643034,66.09158709554674 77.83067675109137,56.46318642926741 64.91754704806559,57.86739262155002" fill="none" stroke="#666" stroke-width="0.2" />
<text x="72.69206625699505" y="69.28524431091165" font-size="3" text-anchor="middle" dominant-baseline="central" fill="#000">38</text>
<line x1="85.41060655643034" y1="66.09158709554674" x2="60.06724088602454" y2="73.51046820859403" stroke="#000" stroke-width="0.3" stroke-dasharray="2 1.5" />
<line x1="60.06724088602454" y1="73.51046820859403" x2="85.41060655643034" y2="66.09158709554674" stroke="#000" stroke-width="0.3" stroke-dasharray="2 1.5" />
<line x1="85.41060655643034" y1="66.09158709554674" x2="86.289331250303" y2="68.65036097707801" stroke="#000" stroke-width="0.3" stroke-dasharray="2 1.5" />
<line x1="86.289331250303" y1="68.65036097707801" x2="60.06724088602454" y2="73.51046820859403" stroke="#000" stroke-width="0.3" />
<text x="73.17828606816377" y="71.08041459283602" font-size="3" text-anchor="middle" dominant-baseline="central" fill="#000">11</text>
<line x1="91.1426111771519" y1="67.35558818773352" x2="90.4940489622773" y2="65.46689666951653" stroke="#000" stroke-width="0.3" stroke-dasharray="2 1.5" />
<line x1="90.4940489622773" y1="65.46689666951653" x2="107.64599882329108" y2="61.74999761604174" stroke="#000" stroke-width="0.3" />
<polygon points="90.4940489622773,65.46689666951653 107.64599882329108,61.74999761604174 101.87125173664771,55.818442435004926 93.29527680614082,57.676891961742314" fill="none" stroke="#666" stroke-width="0.2" />
<text x="99.45124293305076" y="65.36761514025358" font-size="3" text-anchor="middle" dominant-baseline="central" fill="#000">45</text>
<line x1="107.64599882329108" y1="61.74999761604174" x2="91.1426111771519" y2="67.35558818773352" stroke="#000" stroke-width="0.3" stroke-dasharray="2 1.5" />
<line x1="91.1426111771519" y1="67.35558818773352" x2="107.64599882329108" y2="61.74999761604174" stroke="#000" stroke-width="0.3" stroke-dasharray="2 1.5" />
<line x1="107.64599882329108" y1="61.74999761604174" x2="108.11759637392967" y2="63.12316259011162" stroke="#000" stroke-width="0.3" stroke-dasharray="2 1.5" />
<line x1="108.11759637392967" y1="63.12316259011162" x2="91.1426111771519" y2="67.35558818773352" stroke="#000" stroke-width="0.3" />
<polygon points="108.11759637392967,63.12316259011162 91.1426111771519,67.35558818773352 97.0793277153951,73.08747586703916 105.56682031378399,70.97126306822821" fill="none" stroke="#666" stroke-width="0.2" />
<text x="99.19463599027951" y="63.49284516931581" font-size="3" text-anchor="middle" dominant-baseline="central" fill="#000">46</text>
<line x1="88.7200867654357" y1="68.14418555673458" x2="87.97181732973786" y2="65.96523699653818" stroke="#000" stroke-width="0.3" stroke-dasharray="2 1.5" />
<line x1="87.97181732973786" y1="65.96523699653818" x2="90.4940489622773" y2="65.46689666951653" stroke="#000" stroke-width="0.3" />
<text x="89.23293314600758" y="65.71606683302736" font-size="3" text-anchor="middle" dominant-baseline="central" fill="#000">41</text>
<line x1="90.4940489622773" y1="65.46689666951653" x2="88.7200867654357" y2="68.14418555673458" stroke="#000" stroke-width="0.3" stroke-dasharray="2 1.5" />
<line x1="88.7200867654357" y1="68.14418555673458" x2="90.4940489622773" y2="65.46689666951653" stroke="#000" stroke-width="0.3" stroke-dasharray="2 1.5" />
<line x1="90.4940489622773" y1="65.46689666951653" x2="91.1426111771519" y2="67.35558818773352" stroke="#000" stroke-width="0.3" stroke-dasharray="2 1.5" />
<line x1="91.1426111771519" y1="67.35558818773352" x2="88.7200867654357" y2="68.14418555673458" stroke="#000" stroke-width="0.3" />
<polygon points="91.1426111771519,67.35558818773352 88.7200867654357,68.14418555673458 89.64115681596516,68.9160459791708 90.8524190218233,68.52174729467026" fill="none" stroke="#666" stroke-width="0.2" />
<text x="89.37417809691058" y="66.03829094540463" font-size="3" text-anchor="middle" dominant-baseline="central" fill="#000">50</text>
<line x1="44.53915233928309" y1="126.91742988662764" x2="43.672950960987095" y2="117.05501518819803" stroke="#000" stroke-width="0.3" />
<text x="44.10605165013509" y="121.98622253741283" font-size="3" text-anchor="middle" dominant-baseline="central" fill="#000">60</text>
<line x1="43.672950960987095" y1="117.05501518819803" x2="63.39432996339381" y2="115.32469028083067" stroke="#000" stroke-width="0.3" stroke-dasharray="2 1.5" />
<line x1="63.39432996339381" y1="115.32469028083067" x2="44.53915233928309" y2="126.91742988662764" stroke="#000" stroke-width="0.3" stroke-dasharray="2 1.5" />
<line x1="44.53915233928309" y1="126.91742988662764" x2="63.39432996339381" y2="115.32469028083067" stroke="#000" stroke-width="0.3" stroke-dasharray="2 1.5" />
<line x1="63.39432996339381" y1="115.32469028083067" x2="64.27036611800253" y2="125.20138665155633" stroke="#000" stroke-width="0.3" />
<text x="63.832348040698164" y="120.2630384661935" font-size="3" text-anchor="middle" dominant-baseline="central" fill="#000">57</text>
<line x1="64.27036611800253" y1="125.20138665155633" x2="44.53915233928309" y2="126.91742988662764" stroke="#000" stroke-width="0.3" stroke-dasharray="2 1.5" />
<line x1="44.53915233928309" y1="126.91742988662764" x2="64.27036611800253" y2="125.20138665155633" stroke="#000" stroke-width="0.3" stroke-dasharray="2 1.5" />
<line x1="64.27036611800253" y1="125.20138665155633" x2="62.68147682920765" y2="130.14422244365622" stroke="#000" stroke-width="0.3" />
<text x="63.475921473605084" y="127.67280454760628" font-size="3" text-anchor="middle" dominant-baseline="central" fill="#000">64</text>
<line x1="62.68147682920765" y1="130.14422244365622" x2="44.53915233928309" y2="126.91742988662764" stroke="#000" stroke-width="0.3" stroke-dasharray="2 1.5" />
<line x1="44.53915233928309" y1="126.91742988662764" x2="62.68147682920765" y2="130.14422244365622" stroke="#000" stroke-width="0.3" stroke-dasharray="2 1.5" />
<line x1="62.68147682920765" y1="130.14422244365622" x2="44.00745347042284" y2="131.7683262484164" stroke="#000" stroke-width="0.3" stroke-dasharray="2 1.5" />
<line x1="44.00745347042284" y1="131.7683262484164" x2="44.53915233928309" y2="126.91742988662764" stroke="#000" stroke-width="0.3" />
<polygon points="44.00745347042284,131.7683262484164 44.53915233928309,126.91742988662764 42.46586907735252,127.91747442953074 42.200019642922406,130.3429226104251" fill="none" stroke="#666" stroke-width="0.2" />
<text x="46.062586770120255" y="129.53899856490605" font-size="3" text-anchor="middle" dominant-baseline="central" fill="#000">65</text>
<line x1="44.00745347042284" y1="131.7683262484164" x2="62.68147682920765" y2="130.14422244365622" stroke="#000" stroke-width="0.3" stroke-dasharray="2 1.5" />
<line x1="62.68147682920765" y1="130.14422244365622" x2="61.89656228237818" y2="139.80332749841997" stroke="#000" stroke-width="0.3" stroke-dasharray="2 1.5" />
<line x1="61.89656228237818" y1="139.80332749841997" x2="44.00745347042284" y2="131.7683262484164" stroke="#000" stroke-width="0.3" stroke-dasharray="2 1.5" />
<line x1="44.00745347042284" y1="131.7683262484164" x2="61.89656228237818" y2="139.80332749841997" stroke="#000" stroke-width="0.3" stroke-dasharray="2 1.5" />
<line x1="61.89656228237818" y1="139.80332749841997" x2="45.68532363921509" y2="140.99539335604936" stroke="#000" stroke-width="0.3" stroke-dasharray="2 1.5" />
<line x1="45.68532363921509" y1="140.99539335604936" x2="44.00745347042284" y2="131.7683262484164" stroke="#000" stroke-width="0.3" />
<text x="44.846388554818965" y="136.3818598022329" font-size="3" text-anchor="middle" dominant-baseline="central" fill="#000">69</text>
<line x1="61.89656228237818" y1="139.80332749841997" x2="62.68147682920765" y2="130.14422244365622" stroke="#000" stroke-width="0.3" stroke-dasharray="2 1.5" />
<line x1="62.68147682920765" y1="130.14422244365622" x2="76.17929156132561" y2="134.8535367906605" stroke="#000" stroke-width="0.3" />
<polygon points="62.68147682920765,130.14422244365622 76.17929156132561,134.8535367906605 74.68856361709784,128.27708231106226 67.93965625103885,125.9224251375601" fill="none" stroke="#666" stroke-width="0.2" />
<text x="68.83742739534316" y="134.19840962084305" font-size="3" text-anchor="middle" dominant-baseline="central" fill="#000">78</text>
<line x1="76.17929156132561" y1="134.8535367906605" x2="61.89656228237818" y2="139.80332749841997" stroke="#000" stroke-width="0.3" stroke-dasharray="2 1.5" />
<line x1="61.89656228237818" y1="139.80332749841997" x2="76.17929156132561" y2="134.8535367906605" stroke="#000" stroke-width="0.3" stroke-dasharray="2 1.5" />
<line x1="76.17929156132561" y1="134.8535367906605" x2="76.43382736909543" y2="142.54621148852905" stroke="#000" stroke-width="0.3" stroke-dasharray="2 1.5" />
<line x1="76.43382736909543" y1="142.54621148852905" x2="61.89656228237818" y2="139.80332749841997" stroke="#000" stroke-width="0.3" />
<text x="69.1651948257368" y="141.1747694934745" font-size="3" text-anchor="middle" dominant-baseline="central" fill="#000">71</text>
<line x1="45.68532363921509" y1="140.99539335604936" x2="61.89656228237818" y2="139.80332749841997" stroke="#000" stroke-width="0.3" stroke-dasharray="2 1.5" />
<line x1="61.89656228237818" y1="139.80332749841997" x2="62.403419432408235" y2="149.32984781809975" stroke="#000" stroke-width="0.3" />
<text x="62.149990857393206" y="144.56658765825986" font-size="3" text-anchor="middle" dominant-baseline="central" fill="#000">385</text>
<line x1="62.403419432408235" y1="149.32984781809975" x2="45.68532363921509" y2="140.99539335604936" stroke="#000" stroke-width="0.3" stroke-dasharray="2 1.5" />
<line x1="45.68532363921509" y1="140.99539335604936" x2="62.403419432408235" y2="149.32984781809975" stroke="#000" stroke-width="0.3" stroke-dasharray="2 1.5" />
<line x1="62.403419432408235" y1="149.32984781809975" x2="48.33054203063403" y2="149.68670082485406" stroke="#000" stroke-width="0.3" stroke-dasharray="2 1.5" />
<line x1="48.33054203063403" y1="149.68670082485406" x2="45.68532363921509" y2="140.99539335604936" stroke="#000" stroke-width="0.3" />
<text x="47.00793283492456" y="145.3410470904517" font-size="3" text-anchor="middle" dominant-baseline="central" fill="#000">76</text>
<line x1="65.39137265796491" y1="152.1981646887103" x2="57.01677104743032" y2="163.3600356124966" stroke="#000" stroke-width="0.3" />
<text x="61.20407185269761" y="157.77910015060345" font-size="3" text-anchor="middle" dominant-baseline="central" fill="#000">362</text>
<line x1="57.01677104743032" y1="163.3600356124966" x2="54.529680555333854" y2="156.94432349405048" stroke="#000" stroke-width="0.3" />
<polygon points="57.01677104743032,163.3600356124966 54.529680555333854,156.94432349405048 52.58516833097952,159.5430877205006 53.82871357702777,162.75094377972363" fill="none" stroke="#666" stroke-width="0.2" />
<text x="57.45153210935882" y="159.50157373051638" font-size="3" text-anchor="middle" dominant-baseline="central" fill="#000">79</text>
<line x1="54.529680555333854" y1="156.94432349405048" x2="65.39137265796491" y2="152.1981646887103" stroke="#000" stroke-width="0.3" stroke-dasharray="2 1.5" />
<line x1="62.403419432408235" y1="149.32984781809975" x2="65.39137265796491" y2="152.1981646887103" stroke="#000" stroke-width="0.3" stroke-dasharray="2 1.5" />
<line x1="65.39137265796491" y1="152.1981646887103" x2="54.529680555333854" y2="156.94432349405048" stroke="#000" stroke-width="0.3" stroke-dasharray="2 1.5" />
<line x1="54.529680555333854" y1="156.94432349405048" x2="62.403419432408235" y2="149.32984781809975" stroke="#000" stroke-width="0.3" stroke-dasharray="2 1.5" />
<line x1="62.403419432408235" y1="149.32984781809975" x2="54.529680555333854" y2="156.94432349405048" stroke="#000" stroke-width="0.3" stroke-dasharray="2 1.5" />
<line x1="54.529680555333854" y1="156.94432349405048" x2="53.18305601900698" y2="155.27344251695374" stroke="#000" stroke-width="0.3" />
<polygon points="54.529680555333854,156.94432349405048 53.18305601900698,155.27344251695374 52.851359762250006,156.22981257575867 53.52467203041343,157.06525306430706" fill="none" stroke="#666" stroke-width="0.2" />
<text x="55.2578642274506" y="154.9793657947531" font-size="3" text-anchor="middle" dominant-baseline="central" fill="#000">83</text>
<line x1="53.18305601900698" y1="155.27344251695374" x2="62.403419432408235" y2="149.32984781809975" stroke="#000" stroke-width="0.3" stroke-dasharray="2 1.5" />
<line x1="48.33054203063403" y1="149.68670082485406" x2="62.403419432408235" y2="149.32984781809975" stroke="#000" stroke-width="0.3" stroke-dasharray="2 1.5" />
<line x1="62.403419432408235" y1="149.32984781809975" x2="53.18305601900698" y2="155.27344251695374" stroke="#000" stroke-width="0.3" stroke-dasharray="2 1.5" />
<line x1="53.18305601900698" y1="155.27344251695374" x2="48.33054203063403" y2="149.68670082485406" stroke="#000" stroke-width="0.3" stroke-dasharray="2 1.5" />
<line x1="48.33054203063403" y1="149.68670082485406" x2="53.18305601900698" y2="155.27344251695374" stroke="#000" stroke-width="0.3" stroke-dasharray="2 1.5" />
<line x1="53.18305601900698" y1="155.27344251695374" x2="48.40321191146217" y2="156.29844275690502" stroke="#000" stroke-width="0.3" />
<polygon points="53.18305601900698,155.27344251695374 48.40321191146217,156.29844275690502 50.00817303432887,157.95413033993512 52.3980950881013,157.44163021995948" fill="none" stroke="#666" stroke-width="0.2" />
<text x="50.41571830431519" y="154.0259547338764" font-size="3" text-anchor="middle" dominant-baseline="central" fill="#000">84</text>
<line x1="48.40321191146217" y1="156.29844275690502" x2="48.33054203063403" y2="149.68670082485406" stroke="#000" stroke-width="0.3" />
<text x="48.3668769710481" y="152.99257179087954" font-size="3" text-anchor="middle" dominant-baseline="central" fill="#000">80</text>
<line x1="76.43382736909543" y1="142.54621148852905" x2="76.17929156132561" y2="134.8535367906605" stroke="#000" stroke-width="0.3" stroke-dasharray="2 1.5" />
<line x1="76.17929156132561" y1="134.8535367906605" x2="85.2081311350928" y2="142.39961965425482" stroke="#000" stroke-width="0.3" stroke-dasharray="2 1.5" />
<line x1="85.2081311350928" y1="142.39961965425482" x2="76.43382736909543" y2="142.54621148852905" stroke="#000" stroke-width="0.3" stroke-dasharray="2 1.5" />
<line x1="76.43382736909543" y1="142.54621148852905" x2="85.2081311350928" y2="142.39961965425482" stroke="#000" stroke-width="0.3" stroke-dasharray="2 1.5" />
<line x1="85.2081311350928" y1="142.39961965425482" x2="85.39135004670385" y2="147.9371806353282" stroke="#000" stroke-width="0.3" stroke-dasharray="2 1.5" />
<line x1="85.39135004670385" y1="147.9371806353282" x2="76.43382736909543" y2="142.54621148852905" stroke="#000" stroke-width="0.3" />
<text x="80.91258870789963" y="145.24169606192862" font-size="3" text-anchor="middle" dominant-baseline="central" fill="#000">85</text>
<line x1="65.33997064215683" y1="125.53271246162441" x2="70.50001904199989" y2="123.58596493418538" stroke="#000" stroke-width="0.3" />
<text x="67.91999484207835" y="124.5593386979049" font-size="3" text-anchor="middle" dominant-baseline="central" fill="#000">63</text>
<line x1="70.50001904199989" y1="123.58596493418538" x2="79.33410542397723" y2="131.81477955768182" stroke="#000" stroke-width="0.3" />
<polygon points="70.50001904199989,123.58596493418538 79.33410542397723,131.81477955768182 80.41710967788147,126.22394134901678 76.00006648689279,122.10953403726857" fill="none" stroke="#666" stroke-width="0.2" />
<text x="73.69019140777502" y="129.01748574834704" font-size="3" text-anchor="middle" dominant-baseline="central" fill="#000">87</text>
<line x1="79.33410542397723" y1="131.81477955768182" x2="65.33997064215683" y2="125.53271246162441" stroke="#000" stroke-width="0.3" stroke-dasharray="2 1.5" />
<line x1="65.33997064215683" y1="125.53271246162441" x2="79.33410542397723" y2="131.81477955768182" stroke="#000" stroke-width="0.3" stroke-dasharray="2 1.5" />
<line x1="79.33410542397723" y1="131.81477955768182" x2="76.17929156132561" y2="134.8535367906605" stroke="#000" stroke-width="0.3" stroke-dasharray="2 1.5" />
<line x1="76.17929156132561" y1="134.8535367906605" x2="65.33997064215683" y2="125.53271246162441" stroke="#000" stroke-width="0.3" />
<text x="70.75963110174122" y="130.19312462614246" font-size="3" text-anchor="middle" dominant-baseline="central" fill="#000">78</text>
<line x1="65.39137265796491" y1="152.1981646887103" x2="62.403419432408235" y2="149.32984781809975" stroke="#000" stroke-width="0.3" stroke-dasharray="2 1.5" />
<line x1="62.403419432408235" y1="149.32984781809975" x2="74.6797554303051" y2="145.16982815839" stroke="#000" stroke-width="0.3" />
<text x="68.54158743135666" y="147.24983798824488" font-size="3" text-anchor="middle" dominant-baseline="central" fill="#000">72</text>
<line x1="74.6797554303051" y1="145.16982815839" x2="65.39137265796491" y2="152.1981646887103" stroke="#000" stroke-width="0.3" stroke-dasharray="2 1.5" />
<line x1="65.39137265796491" y1="152.1981646887103" x2="74.6797554303051" y2="145.16982815839" stroke="#000" stroke-width="0.3" stroke-dasharray="2 1.5" />
<line x1="74.6797554303051" y1="145.16982815839" x2="75.82193408730866" y2="148.25475741133206" stroke="#000" stroke-width="0.3" />
<polygon points="74.6797554303051,145.16982815839 75.82193408730866,148.25475741133206 76.7703611242346,147.02665363529513 76.19927179573281,145.4841890088241" fill="none" stroke="#666" stroke-width="0.2" />
<text x="73.5628279005317" y="147.33727205346025" font-size="3" text-anchor="middle" dominant-baseline="central" fill="#000">365</text>
<line x1="75.82193408730866" y1="148.25475741133206" x2="65.39137265796491" y2="152.1981646887103" stroke="#000" stroke-width="0.3" />
<text x="70.60665337263679" y="150.2264610500212" font-size="3" text-anchor="middle" dominant-baseline="central" fill="#000">89</text>
<line x1="76.17929156132561" y1="134.8535367906605" x2="79.33410542397723" y2="131.81477955768182" stroke="#000" stroke-width="0.3" stroke-dasharray="2 1.5" />
<line x1="79.33410542397723" y1="131.81477955768182" x2="87.47906503884094" y2="140.21224800435573" stroke="#000" stroke-width="0.3" />
<text x="83.40658523140908" y="136.0135137810188" font-size="3" text-anchor="middle" dominant-baseline="central" fill="#000">95</text>
<line x1="87.47906503884094" y1="140.21224800435573" x2="76.17929156132561" y2="134.8535367906605" stroke="#000" stroke-width="0.3" stroke-dasharray="2 1.5" />
<line x1="76.17929156132561" y1="134.8535367906605" x2="87.47906503884094" y2="140.21224800435573" stroke="#000" stroke-width="0.3" stroke-dasharray="2 1.5" />
<line x1="87.47906503884094" y1="140.21224800435573" x2="85.2081311350928" y2="142.39961965425482" stroke="#000" stroke-width="0.3" />
<text x="86.34359808696686" y="141.30593382930527" font-size="3" text-anchor="middle" dominant-baseline="central" fill="#000">374</text>
<line x1="85.2081311350928" y1="142.39961965425482" x2="76.17929156132561" y2="134.8535367906605" stroke="#000" stroke-width="0.3" stroke-dasharray="2 1.5" />
<line x1="85.39135004670385" y1="147.9371806353282" x2="85.2081311350928" y2="142.39961965425482" stroke="#000" stroke-width="0.3" stroke-dasharray="2 1.5" />
<line x1="85.2081311350928" y1="142.39961965425482" x2="94.26106992591255" y2="149.38025617347463" stroke="#000" stroke-width="0.3" />
<text x="89.73460053050268" y="145.88993791386474" font-size="3" text-anchor="middle" dominant-baseline="central" fill="#000">91</text>
<line x1="94.26106992591255" y1="149.38025617347463" x2="85.39135004670385" y2="147.9371806353282" stroke="#000" stroke-width="0.3" stroke-dasharray="2 1.5" />
<line x1="85.39135004670385" y1="147.9371806353282" x2="94.26106992591255" y2="149.38025617347463" stroke="#000" stroke-width="0.3" stroke-dasharray="2 1.5" />
<line x1="94.26106992591255" y1="149.38025617347463" x2="94.42939170979872" y2="154.4668996832661" stroke="#000" stroke-width="0.3" stroke-dasharray="2 1.5" />
<line x1="94.42939170979872" y1="154.4668996832661" x2="85.39135004670385" y2="147.9371806353282" stroke="#000" stroke-width="0.3" />
<polygon points="94.42939170979872,154.4668996832661 85.39135004670385,147.9371806353282 85.03897284330243,153.18482706255062 89.55799367484983,156.4496865865196" fill="none" stroke="#666" stroke-width="0.2" />
<text x="90.96449199235205" y="149.74298955126227" font-size="3" text-anchor="middle" dominant-baseline="central" fill="#000">99</text>
<line x1="94.42939170979872" y1="154.4668996832661" x2="94.26106992591255" y2="149.38025617347463" stroke="#000" stroke-width="0.3" stroke-dasharray="2 1.5" />
<line x1="94.26106992591255" y1="149.38025617347463" x2="103.54467965332226" y2="153.28242211844056" stroke="#000" stroke-width="0.3" />
<text x="98.90287478961741" y="151.3313391459576" font-size="3" text-anchor="middle" dominant-baseline="central" fill="#000">106</text>
<line x1="103.54467965332226" y1="153.28242211844056" x2="94.42939170979872" y2="154.4668996832661" stroke="#000" stroke-width="0.3" stroke-dasharray="2 1.5" />
<line x1="94.42939170979872" y1="154.4668996832661" x2="103.54467965332226" y2="153.28242211844056" stroke="#000" stroke-width="0.3" stroke-dasharray="2 1.5" />
<line x1="103.54467965332226" y1="153.28242211844056" x2="103.62806261442293" y2="155.80117470736747" stroke="#000" stroke-width="0.3" stroke-dasharray="2 1.5" />
<line x1="103.62806261442293" y1="155.80117470736747" x2="94.42939170979872" y2="154.4668996832661" stroke="#000" stroke-width="0.3" />
<text x="99.02872716211083" y="155.13403719531678" font-size="3" text-anchor="middle" dominant-baseline="central" fill="#000">98</text>
<line x1="103.62806261442293" y1="155.80117470736747" x2="103.54467965332226" y2="153.28242211844056" stroke="#000" stroke-width="0.3" stroke-dasharray="2 1.5" />
<line x1="103.54467965332226" y1="153.28242211844056" x2="115.987969459671" y2="154.65648859585983" stroke="#000" stroke-width="0.3" />
<text x="109.76632455649664" y="153.9694553571502" font-size="3" text-anchor="middle" dominant-baseline="central" fill="#000">104</text>
<line x1="115.987969459671" y1="154.65648859585983" x2="103.62806261442293" y2="155.80117470736747" stroke="#000" stroke-width="0.3" stroke-dasharray="2 1.5" />
<line x1="103.62806261442293" y1="155.80117470736747" x2="115.987969459671" y2="154.65648859585983" stroke="#000" stroke-width="0.3" stroke-dasharray="2 1.5" />
<line x1="115.987969459671" y1="154.65648859585983" x2="116.07134607712517" y2="157.17516048370922" stroke="#000" stroke-width="0.3" stroke-dasharray="2 1.5" />
<line x1="116.07134607712517" y1="157.17516048370922" x2="103.62806261442293" y2="155.80117470736747" stroke="#000" stroke-width="0.3" />
<polygon points="116.07134607712517,157.17516048370922 103.62806261442293,155.80117470736747 106.18928916956179,161.1219845365338 112.41093090091292,161.8089774247047" fill="none" stroke="#666" stroke-width="0.2" />
<text x="110.04725941564274" y="154.6990415534806" font-size="3" text-anchor="middle" dominant-baseline="central" fill="#000">110</text>
<line x1="120.39073401533783" y1="157.63582917914113" x2="120.31143240200784" y2="155.23831214512018" stroke="#000" stroke-width="0.3" stroke-dasharray="2 1.5" />
<line x1="120.31143240200784" y1="155.23831214512018" x2="126.28073841658235" y2="153.54221513795386" stroke="#000" stroke-width="0.3" />
<polygon points="120.31143240200784,155.23831214512018 126.28073841658235,153.54221513795386 124.10997311007216,151.57851698391565 121.12532010278494,152.42656548749878" fill="none" stroke="#666" stroke-width="0.2" />
<text x="123.78805702408992" y="156.12172658663175" font-size="3" text-anchor="middle" dominant-baseline="central" fill="#000">112</text>
<line x1="126.28073841658235" y1="153.54221513795386" x2="120.39073401533783" y2="157.63582917914113" stroke="#000" stroke-width="0.3" stroke-dasharray="2 1.5" />
<line x1="120.39073401533783" y1="157.63582917914113" x2="126.28073841658235" y2="153.54221513795386" stroke="#000" stroke-width="0.3" stroke-dasharray="2 1.5" />
<line x1="126.28073841658235" y1="153.54221513795386" x2="126.36004002991234" y2="155.9397321719748" stroke="#000" stroke-width="0.3" stroke-dasharray="2 1.5" />
<line x1="126.36004002991234" y1="155.9397321719748" x2="120.39073401533783" y2="157.63582917914113" stroke="#000" stroke-width="0.3" />
<polygon points="126.36004002991234,155.9397321719748 120.39073401533783,157.63582917914113 122.56149932184798,159.59952733317934 125.54615232913527,158.7514788295962" fill="none" stroke="#666" stroke-width="0.2" />
<text x="122.88341540783027" y="155.0563177304632" font-size="3" text-anchor="middle" dominant-baseline="central" fill="#000">113</text>
<line x1="116.07134607712517" y1="157.17516048370922" x2="115.987969459671" y2="154.65648859585983" stroke="#000" stroke-width="0.3" stroke-dasharray="2 1.5" />
<line x1="115.987969459671" y1="154.65648859585983" x2="120.31143240200784" y2="155.23831214512018" stroke="#000" stroke-width="0.3" />
<text x="118.14970093083943" y="154.94740037049002" font-size="3" text-anchor="middle" dominant-baseline="central" fill="#000">118</text>
<line x1="120.31143240200784" y1="155.23831214512018" x2="116.07134607712517" y2="157.17516048370922" stroke="#000" stroke-width="0.3" stroke-dasharray="2 1.5" />
<line x1="116.07134607712517" y1="157.17516048370922" x2="120.31143240200784" y2="155.23831214512018" stroke="#000" stroke-width="0.3" stroke-dasharray="2 1.5" />
<line x1="120.31143240200784" y1="155.23831214512018" x2="120.39073401533783" y2="157.63582917914113" stroke="#000" stroke-width="0.3" stroke-dasharray="2 1.5" />
<line x1="120.39073401533783" y1="157.63582917914113" x2="116.07134607712517" y2="157.17516048370922" stroke="#000" stroke-width="0.3" />
<text x="118.2310400462315" y="157.4054948314252" font-size="3" text-anchor="middle" dominant-baseline="central" fill="#000">109</text>
<line x1="113.39350011495993" y1="61.454919619876904" x2="112.89550401640429" y2="60.00480519964813" stroke="#000" stroke-width="0.3" stroke-dasharray="2 1.5" />
<line x1="112.89550401640429" y1="60.00480519964813" x2="116.43090661004943" y2="57.890977105053146" stroke="#000" stroke-width="0.3" />
<polygon points="112.89550401640429,60.00480519964813 116.43090661004943,57.890977105053146 114.70152472380015,57.005273091243836 112.93382342697755,58.062187138541326" fill="none" stroke="#666" stroke-width="0.2" />
<text x="115.58691453729281" y="60.49280580027636" font-size="3" text-anchor="middle" dominant-baseline="central" fill="#000">121</text>
<line x1="116.43090661004943" y1="57.890977105053146" x2="113.39350011495993" y2="61.454919619876904" stroke="#000" stroke-width="0.3" stroke-dasharray="2 1.5" />
<line x1="113.39350011495993" y1="61.454919619876904" x2="116.43090661004943" y2="57.890977105053146" stroke="#000" stroke-width="0.3" stroke-dasharray="2 1.5" />
<line x1="116.43090661004943" y1="57.890977105053146" x2="116.92890270860505" y2="59.34109152528192" stroke="#000" stroke-width="0.3" stroke-dasharray="2 1.5" />
<line x1="116.92890270860505" y1="59.34109152528192" x2="113.39350011495993" y2="61.454919619876904" stroke="#000" stroke-width="0.3" />
<polygon points="116.92890270860505,59.34109152528192 113.39350011495993,61.454919619876904 115.12288200120923,62.3406236336862 116.89058329803179,61.2837095863887" fill="none" stroke="#666" stroke-width="0.2" />
<text x="114.2374921877165" y="58.853090924653706" font-size="3" text-anchor="middle" dominant-baseline="central" fill="#000">122</text>
<line x1="108.11759637392967" y1="63.12316259011162" x2="107.64599882329108" y2="61.74999761604174" stroke="#000" stroke-width="0.3" stroke-dasharray="2 1.5" />
<line x1="107.64599882329108" y1="61.74999761604174" x2="112.89550401640429" y2="60.00480519964813" stroke="#000" stroke-width="0.3" />
<text x="110.27075141984768" y="60.877401407844935" font-size="3" text-anchor="middle" dominant-baseline="central" fill="#000">53</text>
<line x1="112.89550401640429" y1="60.00480519964813" x2="108.11759637392967" y2="63.12316259011162" stroke="#000" stroke-width="0.3" stroke-dasharray="2 1.5" />
<line x1="108.11759637392967" y1="63.12316259011162" x2="112.89550401640429" y2="60.00480519964813" stroke="#000" stroke-width="0.3" stroke-dasharray="2 1.5" />
<line x1="112.89550401640429" y1="60.00480519964813" x2="113.39350011495993" y2="61.454919619876904" stroke="#000" stroke-width="0.3" stroke-dasharray="2 1.5" />
<line x1="113.39350011495993" y1="61.454919619876904" x2="108.11759637392967" y2="63.12316259011162" stroke="#000" stroke-width="0.3" />
<polygon points="113.39350011495993,61.454919619876904 108.11759637392967,63.12316259011162 110.10386949728114,64.81646334396505 112.74182136779628,63.98234185884769" fill="none" stroke="#666" stroke-width="0.2" />
<text x="110.2128704928092" y="60.5727949519382" font-size="3" text-anchor="middle" dominant-baseline="central" fill="#000">126</text>
<line x1="29.34617547469415" y1="40.247885326611076" x2="21.676742797225895" y2="42.83058409550574" stroke="#000" stroke-width="0.3" stroke-dasharray="2 1.5" />
<line x1="21.676742797225895" y1="42.83058409550574" x2="17.17077586971098" y2="38.86938346686338" stroke="#000" stroke-width="0.3" />
<polygon points="21.676742797225895,42.83058409550574 17.17077586971098,38.86938346686338 16.71278735013276,41.66207039502994 18.96577081389021,43.642670709351115" fill="none" stroke="#666" stroke-width="0.2" />
<text x="20.612204558817965" y="39.498096971446444" font-size="3" text-anchor="middle" dominant-baseline="central" fill="#000">130</text>
<line x1="17.17077586971098" y1="38.86938346686338" x2="29.34617547469415" y2="40.247885326611076" stroke="#000" stroke-width="0.3" stroke-dasharray="2 1.5" />
<line x1="29.34617547469415" y1="40.247885326611076" x2="17.17077586971098" y2="38.86938346686338" stroke="#000" stroke-width="0.3" stroke-dasharray="2 1.5" />
<line x1="17.17077586971098" y1="38.86938346686338" x2="23.593831926037502" y2="34.52985636706845" stroke="#000" stroke-width="0.3" stroke-dasharray="2 1.5" />
<line x1="23.593831926037502" y1="34.52985636706845" x2="29.34617547469415" y2="40.247885326611076" stroke="#000" stroke-width="0.3" />
<polygon points="23.593831926037502,34.52985636706845 29.34617547469415,40.247885326611076 30.195301171347026,36.51744066726276 27.319129397018724,33.65842618749144" fill="none" stroke="#666" stroke-width="0.2" />
<text x="25.20102483812215" y="38.66546500599088" font-size="3" text-anchor="middle" dominant-baseline="central" fill="#000">381</text>
<line x1="23.593831926037502" y1="34.52985636706845" x2="17.17077586971098" y2="38.86938346686338" stroke="#000" stroke-width="0.3" stroke-dasharray="2 1.5" />
<line x1="17.17077586971098" y1="38.86938346686338" x2="12.293901134058867" y2="31.62484143406993" stroke="#000" stroke-width="0.3" />
<polygon points="17.17077586971098,38.86938346686338 12.293901134058867,31.62484143406993 10.615303004854496,35.386726836529135 13.053740372680572,39.00899785292586" fill="none" stroke="#666" stroke-width="0.2" />
<text x="16.225525727454876" y="34.24192992505413" font-size="3" text-anchor="middle" dominant-baseline="central" fill="#000">138</text>
<line x1="12.293901134058867" y1="31.62484143406993" x2="23.593831926037502" y2="34.52985636706845" stroke="#000" stroke-width="0.3" stroke-dasharray="2 1.5" />
<line x1="23.593831926037502" y1="34.52985636706845" x2="12.293901134058867" y2="31.62484143406993" stroke="#000" stroke-width="0.3" stroke-dasharray="2 1.5" />
<line x1="12.293901134058867" y1="31.62484143406993" x2="23.016660864171605" y2="29.6233633669678" stroke="#000" stroke-width="0.3" stroke-dasharray="2 1.5" />
<line x1="23.016660864171605" y1="29.6233633669678" x2="23.593831926037502" y2="34.52985636706845" stroke="#000" stroke-width="0.3" />
<polygon points="23.016660864171605,29.6233633669678 23.593831926037502,34.52985636706845 25.412136360611292,33.07236469229692 25.12355082967833,30.619118192246603" fill="none" stroke="#666" stroke-width="0.2" />
<text x="21.517572626588063" y="32.286901325137656" font-size="3" text-anchor="middle" dominant-baseline="central" fill="#000">139</text>
<line x1="25.63895296219339" y1="33.401918432756425" x2="24.016653530717555" y2="34.46142234361808" stroke="#000" stroke-width="0.3" />
<text x="24.827803246455474" y="33.93167038818726" font-size="3" text-anchor="middle" dominant-baseline="central" fill="#000">131</text>
<line x1="24.016653530717555" y1="34.46142234361808" x2="23.016660864171605" y2="29.6233633669678" stroke="#000" stroke-width="0.3" />
<text x="23.51665719744458" y="32.042392855292945" font-size="3" text-anchor="middle" dominant-baseline="central" fill="#000">139</text>
<line x1="23.016660864171605" y1="29.6233633669678" x2="25.63895296219339" y2="33.401918432756425" stroke="#000" stroke-width="0.3" stroke-dasharray="2 1.5" />
<line x1="25.63895296219339" y1="33.401918432756425" x2="23.016660864171605" y2="29.6233633669678" stroke="#000" stroke-width="0.3" stroke-dasharray="2 1.5" />
<line x1="23.016660864171605" y1="29.6233633669678" x2="25.687504435315724" y2="29.06157681364917" stroke="#000" stroke-width="0.3" stroke-dasharray="2 1.5" />
<line x1="25.687504435315724" y1="29.06157681364917" x2="25.63895296219339" y2="33.401918432756425" stroke="#000" stroke-width="0.3" />
<text x="25.66322869875456" y="31.2317476232028" font-size="3" text-anchor="middle" dominant-baseline="central" fill="#000">136</text>
<line x1="23.016660864171605" y1="29.6233633669678" x2="12.293901134058867" y2="31.62484143406993" stroke="#000" stroke-width="0.3" stroke-dasharray="2 1.5" />
<line x1="12.293901134058867" y1="31.62484143406993" x2="13.387550571074803" y2="25.206557700787805" stroke="#000" stroke-width="0.3" />
<polygon points="12.293901134058867,31.62484143406993 13.387550571074803,25.206557700787805 10.546824718507967,26.37366885930196 10,29.582810725943027" fill="none" stroke="#666" stroke-width="0.2" />
<text x="14.615150166226515" y="28.71805425168788" font-size="3" text-anchor="middle" dominant-baseline="central" fill="#000">143</text>
<line x1="13.387550571074803" y1="25.206557700787805" x2="23.016660864171605" y2="29.6233633669678" stroke="#000" stroke-width="0.3" stroke-dasharray="2 1.5" />
<line x1="23.016660864171605" y1="29.6233633669678" x2="13.387550571074803" y2="25.206557700787805" stroke="#000" stroke-width="0.3" stroke-dasharray="2 1.5" />
<line x1="13.387550571074803" y1="25.206557700787805" x2="22.347848110238456" y2="23.534139171841346" stroke="#000" stroke-width="0.3" />
<polygon points="13.387550571074803,25.206557700787805 22.347848110238456,23.534139171841346 19.43880631386896,20.368124788412498 14.958657544287131,21.20433405288573" fill="none" stroke="#666" stroke-width="0.2" />
<text x="18.197961637819905" y="26.139790951648834" font-size="3" text-anchor="middle" dominant-baseline="central" fill="#000">144</text>
<line x1="22.347848110238456" y1="23.534139171841346" x2="23.016660864171605" y2="29.6233633669678" stroke="#000" stroke-width="0.3" stroke-dasharray="2 1.5" />
<line x1="25.687504435315724" y1="29.06157681364917" x2="23.016660864171605" y2="29.6233633669678" stroke="#000" stroke-width="0.3" stroke-dasharray="2 1.5" />
<line x1="23.016660864171605" y1="29.6233633669678" x2="22.347848110238456" y2="23.534139171841346" stroke="#000" stroke-width="0.3" stroke-dasharray="2 1.5" />
<line x1="22.347848110238456" y1="23.534139171841346" x2="25.687504435315724" y2="29.06157681364917" stroke="#000" stroke-width="0.3" stroke-dasharray="2 1.5" />
<line x1="25.687504435315724" y1="29.06157681364917" x2="22.347848110238456" y2="23.534139171841346" stroke="#000" stroke-width="0.3" stroke-dasharray="2 1.5" />
<line x1="22.347848110238456" y1="23.534139171841346" x2="24.579654761813828" y2="23.06464185146948" stroke="#000" stroke-width="0.3" stroke-dasharray="2 1.5" />
<line x1="24.579654761813828" y1="23.06464185146948" x2="25.687504435315724" y2="29.06157681364917" stroke="#000" stroke-width="0.3" />
<text x="25.133579598564776" y="26.06310933255933" font-size="3" text-anchor="middle" dominant-baseline="central" fill="#000">141</text>
<line x1="24.579654761813828" y1="23.06464185146948" x2="22.347848110238456" y2="23.534139171841346" stroke="#000" stroke-width="0.3" stroke-dasharray="2 1.5" />
<line x1="22.347848110238456" y1="23.534139171841346" x2="22.435685414058952" y2="16.238553116946633" stroke="#000" stroke-width="0.3" />
<text x="22.391766762148706" y="19.88634614439399" font-size="3" text-anchor="middle" dominant-baseline="central" fill="#000">150</text>
<line x1="22.435685414058952" y1="16.238553116946633" x2="24.579654761813828" y2="23.06464185146948" stroke="#000" stroke-width="0.3" stroke-dasharray="2 1.5" />
<line x1="24.579654761813828" y1="23.06464185146948" x2="22.435685414058952" y2="16.238553116946633" stroke="#000" stroke-width="0.3" stroke-dasharray="2 1.5" />
<line x1="22.435685414058952" y1="16.238553116946633" x2="23.869495551676245" y2="16.023744346088158" stroke="#000" stroke-width="0.3" stroke-dasharray="2 1.5" />
<line x1="23.869495551676245" y1="16.023744346088158" x2="24.579654761813828" y2="23.06464185146948" stroke="#000" stroke-width="0.3" />
<text x="24.224575156745036" y="19.54419309877882" font-size="3" text-anchor="middle" dominant-baseline="central" fill="#000">148</text>
<line x1="23.869495551676245" y1="16.023744346088158" x2="22.435685414058952" y2="16.238553116946633" stroke="#000" stroke-width="0.3" stroke-dasharray="2 1.5" />
<line x1="22.435685414058952" y1="16.238553116946633" x2="21.542564910076276" y2="10" stroke="#000" stroke-width="0.3" />
<polygon points="22.435685414058952,16.238553116946633 21.542564910076276,10 19.27042378929329,11.916886480829728 19.71698404128462,15.036163039303045" fill="none" stroke="#666" stroke-width="0.2" />
<text x="23.77095825222374" y="12.864186694259399" font-size="3" text-anchor="middle" dominant-baseline="central" fill="#000">151</text>
<line x1="21.542564910076276" y1="10" x2="23.869495551676245" y2="16.023744346088158" stroke="#000" stroke-width="0.3" />
<polygon points="21.542564910076276,10 23.869495551676245,16.023744346088158 25.69726062971152,13.58703600292613 24.533795308911525,10.575163829882053" fill="none" stroke="#666" stroke-width="0.2" />
<text x="21.026953754277244" y="13.660487764694352" font-size="3" text-anchor="middle" dominant-baseline="central" fill="#000">377</text>
<line x1="126.36004002991234" y1="155.9397321719748" x2="126.28073841658235" y2="153.54221513795386" stroke="#000" stroke-width="0.3" stroke-dasharray="2 1.5" />
<line x1="126.28073841658235" y1="153.54221513795386" x2="129.5632269690337" y2="151.54219110605743" stroke="#000" stroke-width="0.3" />
<text x="127.92198269280803" y="152.54220312200565" font-size="3" text-anchor="middle" dominant-baseline="central" fill="#000">328</text>
<line x1="129.5632269690337" y1="151.54219110605743" x2="126.36004002991234" y2="155.9397321719748" stroke="#000" stroke-width="0.3" stroke-dasharray="2 1.5" />
<line x1="126.36004002991234" y1="155.9397321719748" x2="129.5632269690337" y2="151.54219110605743" stroke="#000" stroke-width="0.3" stroke-dasharray="2 1.5" />
<line x1="129.5632269690337" y1="151.54219110605743" x2="129.6500313317316" y2="154.16450832665058" stroke="#000" stroke-width="0.3" />
<text x="129.60662915038267" y="152.853349716354" font-size="3" text-anchor="middle" dominant-baseline="central" fill="#000">324</text>
<line x1="129.6500313317316" y1="154.16450832665058" x2="126.36004002991234" y2="155.9397321719748" stroke="#000" stroke-width="0.3" />
<text x="128.00503568082198" y="155.05212024931268" font-size="3" text-anchor="middle" dominant-baseline="central" fill="#000">320</text>
<line x1="116.92890270860505" y1="59.34109152528192" x2="116.43090661004943" y2="57.890977105053146" stroke="#000" stroke-width="0.3" stroke-dasharray="2 1.5" />
<line x1="116.43090661004943" y1="57.890977105053146" x2="119.44860478008071" y2="56.794381347132976" stroke="#000" stroke-width="0.3" />
<text x="117.93975569506507" y="57.34267922609306" font-size="3" text-anchor="middle" dominant-baseline="central" fill="#000">331</text>
<line x1="119.44860478008071" y1="56.794381347132976" x2="116.92890270860505" y2="59.34109152528192" stroke="#000" stroke-width="0.3" stroke-dasharray="2 1.5" />
<line x1="116.92890270860505" y1="59.34109152528192" x2="119.44860478008071" y2="56.794381347132976" stroke="#000" stroke-width="0.3" stroke-dasharray="2 1.5" />
<line x1="119.44860478008071" y1="56.794381347132976" x2="119.94660087863633" y2="58.244495767361755" stroke="#000" stroke-width="0.3" />
<text x="119.69760282935852" y="57.51943855724737" font-size="3" text-anchor="middle" dominant-baseline="central" fill="#000">336</text>
<line x1="119.94660087863633" y1="58.244495767361755" x2="116.92890270860505" y2="59.34109152528192" stroke="#000" stroke-width="0.3" />
<polygon points="119.94660087863633,58.244495767361755 116.92890270860505,59.34109152528192 118.12196555428093,60.27402185381439 119.63081463929657,59.72572397485431" fill="none" stroke="#666" stroke-width="0.2" />
<text x="117.82298517058359" y="57.10103066079474" font-size="3" text-anchor="middle" dominant-baseline="central" fill="#000">338</text>
</svg>