<svg xmlns="http://www.w3.org/2000/svg" width="215.9mm" height="279.4mm" viewBox="0 0 215.9 279.4">
<rect x="0" y="0" width="215.9" height="279.4" fill="none" stroke="#ccc" stroke-width="0.15" />
<line x1="28.828689386660876" y1="102.3601401138891" x2="44.82851899855207" y2="90.31176825206168" stroke="#000" stroke-width="0.3" stroke-dasharray="2 1.5" />
<line x1="44.82851899855207" y1="90.31176825206168" x2="59.0835666558856" y2="115.97227442996515" stroke="#000" stroke-width="0.3" />
<polygon points="44.82851899855207,90.31176825206168 59.0835666558856,115.97227442996515 65.78400721271362,103.8551288225559 58.656483384046844,91.02487573360416" fill="none" stroke="#666" stroke-width="0.2" />
<text x="50.38253918849285" y="104.01614164103859" font-size="3" text-anchor="middle" dominant-baseline="central" fill="#000">175</text>
<line x1="59.0835666558856" y1="115.97227442996515" x2="28.828689386660876" y2="102.3601401138891" stroke="#000" stroke-width="0.3" stroke-dasharray="2 1.5" />
<line x1="28.828689386660876" y1="102.3601401138891" x2="59.0835666558856" y2="115.97227442996515" stroke="#000" stroke-width="0.3" stroke-dasharray="2 1.5" />
<line x1="59.0835666558856" y1="115.97227442996515" x2="40.6669512142585" y2="124.2683775355451" stroke="#000" stroke-width="0.3" stroke-dasharray="2 1.5" />
<line x1="40.6669512142585" y1="124.2683775355451" x2="28.828689386660876" y2="102.3601401138891" stroke="#000" stroke-width="0.3" />
<text x="34.74782030045969" y="113.3142588247171" font-size="3" text-anchor="middle" dominant-baseline="central" fill="#000">174</text>
<line x1="24.119902341129798" y1="93.65124505932553" x2="41.52334460175631" y2="84.21477265049262" stroke="#000" stroke-width="0.3" stroke-dasharray="2 1.5" />
<line x1="41.52334460175631" y1="84.21477265049262" x2="44.82851899855207" y2="90.31176825206168" stroke="#000" stroke-width="0.3" />
<polygon points="41.52334460175631,84.21477265049262 44.82851899855207,90.31176825206168 46.44102363998075,87.4654495929511 44.78843644158287,84.41695179216657" fill="none" stroke="#666" stroke-width="0.2" />
<text x="41.593492772191716" y="88.12110885259828" font-size="3" text-anchor="middle" dominant-baseline="central" fill="#000">178</text>
<line x1="44.82851899855207" y1="90.31176825206168" x2="24.119902341129798" y2="93.65124505932553" stroke="#000" stroke-width="0.3" stroke-dasharray="2 1.5" />
<line x1="24.119902341129798" y1="93.65124505932553" x2="44.82851899855207" y2="90.31176825206168" stroke="#000" stroke-width="0.3" stroke-dasharray="2 1.5" />
<line x1="44.82851899855207" y1="90.31176825206168" x2="28.828689386660876" y2="102.3601401138891" stroke="#000" stroke-width="0.3" stroke-dasharray="2 1.5" />
<line x1="28.828689386660876" y1="102.3601401138891" x2="24.119902341129798" y2="93.65124505932553" stroke="#000" stroke-width="0.3" />
<polygon points="28.828689386660876,102.3601401138891 24.119902341129798,93.65124505932553 21.813541080687138,97.71198364117885 24.167934603452668,102.06643116846062" fill="none" stroke="#666" stroke-width="0.2" />
<text x="28.057670517089736" y="97.14958236728886" font-size="3" text-anchor="middle" dominant-baseline="central" fill="#000">179</text>
<line x1="59.0835666558856" y1="115.97227442996515" x2="61.815950629272436" y2="120.92592667548999" stroke="#000" stroke-width="0.3" />
<text x="60.44975864257901" y="118.44910055272757" font-size="3" text-anchor="middle" dominant-baseline="central" fill="#000">371</text>
<line x1="61.815950629272436" y1="120.92592667548999" x2="43.96480503976704" y2="130.3714833498401" stroke="#000" stroke-width="0.3" stroke-dasharray="2 1.5" />
<line x1="43.96480503976704" y1="130.3714833498401" x2="59.0835666558856" y2="115.97227442996515" stroke="#000" stroke-width="0.3" stroke-dasharray="2 1.5" />
<line x1="59.0835666558856" y1="115.97227442996515" x2="43.96480503976704" y2="130.3714833498401" stroke="#000" stroke-width="0.3" stroke-dasharray="2 1.5" />
<line x1="43.96480503976704" y1="130.3714833498401" x2="40.6669512142585" y2="124.2683775355451" stroke="#000" stroke-width="0.3" />
<polygon points="43.96480503976704,130.3714833498401 40.6669512142585,124.2683775355451 39.05017234491767,127.11329551932225 40.69909925767192,130.16484842646977" fill="none" stroke="#666" stroke-width="0.2" />
<text x="43.89947165073712" y="126.46422514785196" font-size="3" text-anchor="middle" dominant-baseline="central" fill="#000">181</text>
<line x1="40.6669512142585" y1="124.2683775355451" x2="59.0835666558856" y2="115.97227442996515" stroke="#000" stroke-width="0.3" stroke-dasharray="2 1.5" />
<line x1="61.815950629272436" y1="120.92592667548999" x2="63.9566392484424" y2="125.03774628388645" stroke="#000" stroke-width="0.3" stroke-dasharray="2 1.5" />
<line x1="63.9566392484424" y1="125.03774628388645" x2="46.913287743906885" y2="135.94623414669778" stroke="#000" stroke-width="0.3" stroke-dasharray="2 1.5" />
<line x1="46.913287743906885" y1="135.94623414669778" x2="61.815950629272436" y2="120.92592667548999" stroke="#000" stroke-width="0.3" stroke-dasharray="2 1.5" />
<line x1="61.815950629272436" y1="120.92592667548999" x2="46.913287743906885" y2="135.94623414669778" stroke="#000" stroke-width="0.3" stroke-dasharray="2 1.5" />
<line x1="46.913287743906885" y1="135.94623414669778" x2="43.96480503976704" y2="130.3714833498401" stroke="#000" stroke-width="0.3" />
<polygon points="46.913287743906885,135.94623414669778 43.96480503976704,130.3714833498401 42.47202539705891,132.94456413071043 43.946266749128846,135.73193952913925" fill="none" stroke="#666" stroke-width="0.2" />
<text x="47.03020158986132" y="132.3172976181066" font-size="3" text-anchor="middle" dominant-baseline="central" fill="#000">184</text>
<line x1="43.96480503976704" y1="130.3714833498401" x2="61.815950629272436" y2="120.92592667548999" stroke="#000" stroke-width="0.3" stroke-dasharray="2 1.5" />
<line x1="63.9566392484424" y1="125.03774628388645" x2="62.09859341337823" y2="142.40232929732542" stroke="#000" stroke-width="0.3" />
<text x="63.02761633091032" y="133.72003779060594" font-size="3" text-anchor="middle" dominant-baseline="central" fill="#000">185</text>
<line x1="62.09859341337823" y1="142.40232929732542" x2="48.19275906055952" y2="146.26719868056742" stroke="#000" stroke-width="0.3" stroke-dasharray="2 1.5" />
<line x1="48.19275906055952" y1="146.26719868056742" x2="63.9566392484424" y2="125.03774628388645" stroke="#000" stroke-width="0.3" stroke-dasharray="2 1.5" />
<line x1="63.9566392484424" y1="125.03774628388645" x2="48.19275906055952" y2="146.26719868056742" stroke="#000" stroke-width="0.3" stroke-dasharray="2 1.5" />
<line x1="48.19275906055952" y1="146.26719868056742" x2="46.913287743906885" y2="135.94623414669778" stroke="#000" stroke-width="0.3" />
<polygon points="48.19275906055952,146.26719868056742 46.913287743906885,135.94623414669778 43.10476975952216,139.03826380682625 43.7445054178485,144.19874607376107" fill="none" stroke="#666" stroke-width="0.2" />
<text x="49.33934950695472" y="140.88526879546873" font-size="3" text-anchor="middle" dominant-baseline="central" fill="#000">186</text>
<line x1="46.913287743906885" y1="135.94623414669778" x2="63.9566392484424" y2="125.03774628388645" stroke="#000" stroke-width="0.3" stroke-dasharray="2 1.5" />
<line x1="62.09859341337823" y1="142.40232929732542" x2="59.09581042160585" y2="155.54562247703439" stroke="#000" stroke-width="0.3" />
<text x="60.59720191749204" y="148.9739758871799" font-size="3" text-anchor="middle" dominant-baseline="central" fill="#000">189</text>
<line x1="59.09581042160585" y1="155.54562247703439" x2="48.701364869911636" y2="158.80334775257455" stroke="#000" stroke-width="0.3" />
<polygon points="59.09581042160585,155.54562247703439 48.701364869911636,158.80334775257455 52.60306636805127,162.14669465436717 57.80028914389836,160.5178320165971" fill="none" stroke="#666" stroke-width="0.2" />
<text x="53.36026855439965" y="155.4568668347788" font-size="3" text-anchor="middle" dominant-baseline="central" fill="#000">190</text>
<line x1="48.701364869911636" y1="158.80334775257455" x2="62.09859341337823" y2="142.40232929732542" stroke="#000" stroke-width="0.3" stroke-dasharray="2 1.5" />
<line x1="62.09859341337823" y1="142.40232929732542" x2="48.701364869911636" y2="158.80334775257455" stroke="#000" stroke-width="0.3" stroke-dasharray="2 1.5" />
<line x1="48.701364869911636" y1="158.80334775257455" x2="48.19275906055952" y2="146.26719868056742" stroke="#000" stroke-width="0.3" />
<polygon points="48.701364869911636,158.80334775257455 48.19275906055952,146.26719868056742 43.30545088409472,149.60467827231003 43.559753788770756,155.87275280831363" fill="none" stroke="#666" stroke-width="0.2" />
<text x="50.24558237618564" y="152.4623052003171" font-size="3" text-anchor="middle" dominant-baseline="central" fill="#000">191</text>
<line x1="48.19275906055952" y1="146.26719868056742" x2="62.09859341337823" y2="142.40232929732542" stroke="#000" stroke-width="0.3" stroke-dasharray="2 1.5" />
<line x1="86.3680005232408" y1="110.51364972093734" x2="88.67464542097858" y2="109.59485962181346" stroke="#000" stroke-width="0.3" />
<polygon points="86.3680005232408,110.51364972093734 88.67464542097858,109.59485962181346 87.73046815689456,108.90189918749931 86.57714570802567,109.36129423706124" fill="none" stroke="#666" stroke-width="0.2" />
<text x="88.18740821418425" y="111.72647787725745" font-size="3" text-anchor="middle" dominant-baseline="central" fill="#000">197</text>
<line x1="88.67464542097858" y1="109.59485962181346" x2="89.25259973902477" y2="111.82503736868328" stroke="#000" stroke-width="0.3" stroke-dasharray="2 1.5" />
<line x1="89.25259973902477" y1="111.82503736868328" x2="86.3680005232408" y2="110.51364972093734" stroke="#000" stroke-width="0.3" stroke-dasharray="2 1.5" />
<line x1="86.3680005232408" y1="110.51364972093734" x2="89.25259973902477" y2="111.82503736868328" stroke="#000" stroke-width="0.3" stroke-dasharray="2 1.5" />
<line x1="89.25259973902477" y1="111.82503736868328" x2="87.04668475676942" y2="113.13259389284863" stroke="#000" stroke-width="0.3" />
<polygon points="89.25259973902477,111.82503736868328 87.04668475676942,113.13259389284863 88.1211861119994,113.68807075470944 89.22414360312705,113.03429249262676" fill="none" stroke="#666" stroke-width="0.2" />
<text x="87.23181734748138" y="110.93039790541634" font-size="3" text-anchor="middle" dominant-baseline="central" fill="#000">198</text>
<line x1="87.04668475676942" y1="113.13259389284863" x2="86.3680005232408" y2="110.51364972093734" stroke="#000" stroke-width="0.3" stroke-dasharray="2 1.5" />
<line x1="61.815950629272436" y1="120.92592667548999" x2="86.3680005232408" y2="110.51364972093734" stroke="#000" stroke-width="0.3" />
<text x="74.09197557625662" y="115.71978819821366" font-size="3" text-anchor="middle" dominant-baseline="central" fill="#000">180</text>
<line x1="86.3680005232408" y1="110.51364972093734" x2="87.04668475676942" y2="113.13259389284863" stroke="#000" stroke-width="0.3" stroke-dasharray="2 1.5" />
<line x1="87.04668475676942" y1="113.13259389284863" x2="61.815950629272436" y2="120.92592667548999" stroke="#000" stroke-width="0.3" stroke-dasharray="2 1.5" />
<line x1="61.815950629272436" y1="120.92592667548999" x2="87.04668475676942" y2="113.13259389284863" stroke="#000" stroke-width="0.3" stroke-dasharray="2 1.5" />
<line x1="87.04668475676942" y1="113.13259389284863" x2="63.9566392484424" y2="125.03774628388645" stroke="#000" stroke-width="0.3" />
<polygon points="87.04668475676942,113.13259389284863 63.9566392484424,125.03774628388645 74.4912115819393,131.2974763894578 86.0362343361028,125.34490019393888" fill="none" stroke="#666" stroke-width="0.2" />
<text x="74.67677726838453" y="117.4853059768729" font-size="3" text-anchor="middle" dominant-baseline="central" fill="#000">200</text>
<line x1="63.9566392484424" y1="125.03774628388645" x2="61.815950629272436" y2="120.92592667548999" stroke="#000" stroke-width="0.3" stroke-dasharray="2 1.5" />
<line x1="91.13022848166557" y1="108.916168110283" x2="107.62333613161884" y2="103.08170593136006" stroke="#000" stroke-width="0.3" />
<polygon points="91.13022848166557,108.916168110283 107.62333613161884,103.08170593136006 101.16627434756133,97.9430784161095 92.91972052258474,100.86030950557097" fill="none" stroke="#666" stroke-width="0.2" />
<text x="99.97708118128135" y="107.69588759791769" font-size="3" text-anchor="middle" dominant-baseline="central" fill="#000">207</text>
<line x1="107.62333613161884" y1="103.08170593136006" x2="107.98752648271066" y2="104.48717798158106" stroke="#000" stroke-width="0.3" stroke-dasharray="2 1.5" />
<line x1="107.98752648271066" y1="104.48717798158106" x2="91.13022848166557" y2="108.916168110283" stroke="#000" stroke-width="0.3" stroke-dasharray="2 1.5" />
<line x1="91.13022848166557" y1="108.916168110283" x2="107.98752648271066" y2="104.48717798158106" stroke="#000" stroke-width="0.3" stroke-dasharray="2 1.5" />
<line x1="107.98752648271066" y1="104.48717798158106" x2="91.63121911863611" y2="110.84924777217375" stroke="#000" stroke-width="0.3" />
<polygon points="107.98752648271066,104.48717798158106 91.63121911863611,110.84924777217375 98.26512387589183,115.80125327015541 106.44327755792911,112.62021837485905" fill="none" stroke="#666" stroke-width="0.2" />
<text x="99.1568551764965" y="105.99064894362819" font-size="3" text-anchor="middle" dominant-baseline="central" fill="#000">208</text>
<line x1="91.63121911863611" y1="110.84924777217375" x2="91.13022848166557" y2="108.916168110283" stroke="#000" stroke-width="0.3" stroke-dasharray="2 1.5" />
<line x1="88.67464542097858" y1="109.59485962181346" x2="91.13022848166557" y2="108.916168110283" stroke="#000" stroke-width="0.3" />
<polygon points="88.67464542097858,109.59485962181346 91.13022848166557,108.916168110283 90.24485611188167,108.10360776389079 89.01706458153815,108.44295351965604" fill="none" stroke="#666" stroke-width="0.2" />
<text x="90.381955597694" y="110.99046685324461" font-size="3" text-anchor="middle" dominant-baseline="central" fill="#000">212</text>
<line x1="91.13022848166557" y1="108.916168110283" x2="91.63121911863611" y2="110.84924777217375" stroke="#000" stroke-width="0.3" stroke-dasharray="2 1.5" />
<line x1="91.63121911863611" y1="110.84924777217375" x2="88.67464542097858" y2="109.59485962181346" stroke="#000" stroke-width="0.3" stroke-dasharray="2 1.5" />
<line x1="88.67464542097858" y1="109.59485962181346" x2="91.63121911863611" y2="110.84924777217375" stroke="#000" stroke-width="0.3" stroke-dasharray="2 1.5" />
<line x1="91.63121911863611" y1="110.84924777217375" x2="89.25259973902477" y2="111.82503736868328" stroke="#000" stroke-width="0.3" />
<text x="90.44190942883044" y="111.33714257042851" font-size="3" text-anchor="middle" dominant-baseline="central" fill="#000">202</text>
<line x1="89.25259973902477" y1="111.82503736868328" x2="88.67464542097858" y2="109.59485962181346" stroke="#000" stroke-width="0.3" stroke-dasharray="2 1.5" />
<line x1="19.401580927697903" y1="84.94751186309803" x2="36.805347257624305" y2="75.49370209668729" stroke="#000" stroke-width="0.3" stroke-dasharray="2 1.5" />
<line x1="36.805347257624305" y1="75.49370209668729" x2="41.52334460175631" y2="84.21477265049262" stroke="#000" stroke-width="0.3" />
<text x="39.164345929690306" y="79.85423737358995" font-size="3" text-anchor="middle" dominant-baseline="central" fill="#000">220</text>
<line x1="41.52334460175631" y1="84.21477265049262" x2="19.401580927697903" y2="84.94751186309803" stroke="#000" stroke-width="0.3" stroke-dasharray="2 1.5" />
<line x1="19.401580927697903" y1="84.94751186309803" x2="41.52334460175631" y2="84.21477265049262" stroke="#000" stroke-width="0.3" stroke-dasharray="2 1.5" />
<line x1="41.52334460175631" y1="84.21477265049262" x2="24.119902341129798" y2="93.65124505932553" stroke="#000" stroke-width="0.3" stroke-dasharray="2 1.5" />
<line x1="24.119902341129798" y1="93.65124505932553" x2="19.401580927697903" y2="84.94751186309803" stroke="#000" stroke-width="0.3" />
<text x="21.76074163441385" y="89.29937846121177" font-size="3" text-anchor="middle" dominant-baseline="central" fill="#000">221</text>
<line x1="19.401580927697903" y1="84.94751186309803" x2="16.282021530619723" y2="81.19487967114746" stroke="#000" stroke-width="0.3" />
<polygon points="19.401580927697903,84.94751186309803 16.282021530619723,81.19487967114746 15.560858503109039,83.38086147796636 17.120638201648127,85.25717757394163" fill="none" stroke="#666" stroke-width="0.2" />
<text x="19.225983395207784" y="81.9205265135177" font-size="3" text-anchor="middle" dominant-baseline="central" fill="#000">224</text>
<line x1="16.282021530619723" y1="81.19487967114746" x2="32.75330414675973" y2="72.24760575378463" stroke="#000" stroke-width="0.3" stroke-dasharray="2 1.5" />
<line x1="32.75330414675973" y1="72.24760575378463" x2="19.401580927697903" y2="84.94751186309803" stroke="#000" stroke-width="0.3" stroke-dasharray="2 1.5" />
<line x1="19.401580927697903" y1="84.94751186309803" x2="32.75330414675973" y2="72.24760575378463" stroke="#000" stroke-width="0.3" stroke-dasharray="2 1.5" />
<line x1="32.75330414675973" y1="72.24760575378463" x2="36.805347257624305" y2="75.49370209668729" stroke="#000" stroke-width="0.3" />
<text x="34.77932570219202" y="73.87065392523596" font-size="3" text-anchor="middle" dominant-baseline="central" fill="#000">222</text>
<line x1="36.805347257624305" y1="75.49370209668729" x2="19.401580927697903" y2="84.94751186309803" stroke="#000" stroke-width="0.3" stroke-dasharray="2 1.5" />
<line x1="21.937272691686875" y1="56.398978037566394" x2="31.99186724781395" y2="48.218555223656956" stroke="#000" stroke-width="0.3" />
<polygon points="21.937272691686875,56.398978037566394 31.99186724781395,48.218555223656956 26.206049483218404,46.24182310468348 21.178752205154886,50.33203451163819" fill="none" stroke="#666" stroke-width="0.2" />
<text x="28.100561978284418" y="53.70501952910352" font-size="3" text-anchor="middle" dominant-baseline="central" fill="#000">227</text>
<line x1="31.99186724781395" y1="48.218555223656956" x2="36.981876499217705" y2="53.92042706489798" stroke="#000" stroke-width="0.3" stroke-dasharray="2 1.5" />
<line x1="36.981876499217705" y1="53.92042706489798" x2="21.937272691686875" y2="56.398978037566394" stroke="#000" stroke-width="0.3" stroke-dasharray="2 1.5" />
<line x1="21.937272691686875" y1="56.398978037566394" x2="36.981876499217705" y2="53.92042706489798" stroke="#000" stroke-width="0.3" stroke-dasharray="2 1.5" />
<line x1="36.981876499217705" y1="53.92042706489798" x2="26.77000738508767" y2="64.62431504920357" stroke="#000" stroke-width="0.3" />
<polygon points="36.981876499217705,53.92042706489798 26.77000738508767,64.62431504920357 33.60452985734241,66.03309069877918 38.710464414407454,60.681146706626414" fill="none" stroke="#666" stroke-width="0.2" />
<text x="30.57356907685236" y="58.029863544103904" font-size="3" text-anchor="middle" dominant-baseline="central" fill="#000">228</text>
<line x1="26.77000738508767" y1="64.62431504920357" x2="21.937272691686875" y2="56.398978037566394" stroke="#000" stroke-width="0.3" stroke-dasharray="2 1.5" />
<line x1="16.282021530619723" y1="81.19487967114746" x2="12.591184700053294" y2="72.5732940163958" stroke="#000" stroke-width="0.3" />
<text x="14.436603115336508" y="76.88408684377163" font-size="3" text-anchor="middle" dominant-baseline="central" fill="#000">226</text>
<line x1="12.591184700053294" y1="72.5732940163958" x2="26.77000738508767" y2="64.62431504920357" stroke="#000" stroke-width="0.3" stroke-dasharray="2 1.5" />
<line x1="26.77000738508767" y1="64.62431504920357" x2="16.282021530619723" y2="81.19487967114746" stroke="#000" stroke-width="0.3" stroke-dasharray="2 1.5" />
<line x1="16.282021530619723" y1="81.19487967114746" x2="26.77000738508767" y2="64.62431504920357" stroke="#000" stroke-width="0.3" stroke-dasharray="2 1.5" />
<line x1="26.77000738508767" y1="64.62431504920357" x2="32.75330414675973" y2="72.24760575378463" stroke="#000" stroke-width="0.3" stroke-dasharray="2 1.5" />
<line x1="32.75330414675973" y1="72.24760575378463" x2="16.282021530619723" y2="81.19487967114746" stroke="#000" stroke-width="0.3" stroke-dasharray="2 1.5" />
<line x1="26.77000738508767" y1="64.62431504920357" x2="37.38184069811443" y2="54.31681862566696" stroke="#000" stroke-width="0.3" />
<text x="32.07592404160105" y="59.47056683743527" font-size="3" text-anchor="middle" dominant-baseline="central" fill="#000">228</text>
<line x1="37.38184069811443" y1="54.31681862566696" x2="41.41335161839777" y2="60.87341470780438" stroke="#000" stroke-width="0.3" stroke-dasharray="2 1.5" />
<line x1="41.41335161839777" y1="60.87341470780438" x2="26.77000738508767" y2="64.62431504920357" stroke="#000" stroke-width="0.3" stroke-dasharray="2 1.5" />
<line x1="26.77000738508767" y1="64.62431504920357" x2="41.41335161839777" y2="60.87341470780438" stroke="#000" stroke-width="0.3" stroke-dasharray="2 1.5" />
<line x1="41.41335161839777" y1="60.87341470780438" x2="32.75330414675973" y2="72.24760575378463" stroke="#000" stroke-width="0.3" />
<polygon points="41.41335161839777,60.87341470780438 32.75330414675973,72.24760575378463 39.467992433061326,72.86807698094476 43.79801616888037,67.18098145795466" fill="none" stroke="#666" stroke-width="0.2" />
<text x="35.65118650755396" y="65.47011072513519" font-size="3" text-anchor="middle" dominant-baseline="central" fill="#000">232</text>
<line x1="32.75330414675973" y1="72.24760575378463" x2="26.77000738508767" y2="64.62431504920357" stroke="#000" stroke-width="0.3" stroke-dasharray="2 1.5" />
<line x1="12.591184700053294" y1="72.5732940163958" x2="10.002739349637968" y2="63.86490975044184" stroke="#000" stroke-width="0.3" />
<text x="11.29696202484563" y="68.21910188341883" font-size="3" text-anchor="middle" dominant-baseline="central" fill="#000">231</text>
<line x1="10.002739349637968" y1="63.86490975044184" x2="21.937272691686875" y2="56.398978037566394" stroke="#000" stroke-width="0.3" />
<polygon points="10.002739349637968,63.86490975044184 21.937272691686875,56.398978037566394 15.967266671024472,53.491647628965694 10,57.22461348540344" fill="none" stroke="#666" stroke-width="0.2" />
<text x="16.924633722456196" y="61.65794715447505" font-size="3" text-anchor="middle" dominant-baseline="central" fill="#000">380</text>
<line x1="21.937272691686875" y1="56.398978037566394" x2="12.591184700053294" y2="72.5732940163958" stroke="#000" stroke-width="0.3" stroke-dasharray="2 1.5" />
<line x1="12.591184700053294" y1="72.5732940163958" x2="21.937272691686875" y2="56.398978037566394" stroke="#000" stroke-width="0.3" stroke-dasharray="2 1.5" />
<line x1="21.937272691686875" y1="56.398978037566394" x2="26.77000738508767" y2="64.62431504920357" stroke="#000" stroke-width="0.3" stroke-dasharray="2 1.5" />
<line x1="26.77000738508767" y1="64.62431504920357" x2="12.591184700053294" y2="72.5732940163958" stroke="#000" stroke-width="0.3" stroke-dasharray="2 1.5" />
<line x1="31.99186724781395" y1="48.218555223656956" x2="36.98351850415729" y2="39.99840558045162" stroke="#000" stroke-width="0.3" />
<polygon points="31.99186724781395,48.218555223656956 36.98351850415729,39.99840558045162 32.44754583278931,40.0567824887156 29.951720204617647,44.166857310318285" fill="none" stroke="#666" stroke-width="0.2" />
<text x="36.02624014550074" y="45.04275675274906" font-size="3" text-anchor="middle" dominant-baseline="central" fill="#000">239</text>
<line x1="36.98351850415729" y1="39.99840558045162" x2="40.575525239926975" y2="44.10281790634983" stroke="#000" stroke-width="0.3" stroke-dasharray="2 1.5" />
<line x1="40.575525239926975" y1="44.10281790634983" x2="31.99186724781395" y2="48.218555223656956" stroke="#000" stroke-width="0.3" stroke-dasharray="2 1.5" />
<line x1="31.99186724781395" y1="48.218555223656956" x2="40.575525239926975" y2="44.10281790634983" stroke="#000" stroke-width="0.3" stroke-dasharray="2 1.5" />
<line x1="40.575525239926975" y1="44.10281790634983" x2="36.981876499217705" y2="53.92042706489798" stroke="#000" stroke-width="0.3" />
<polygon points="40.575525239926975,44.10281790634983 36.981876499217705,53.92042706489798 41.80733234781428,52.90348427154466 43.604156718168916,47.99467969227058" fill="none" stroke="#666" stroke-width="0.2" />
<text x="37.08838200661003" y="48.39289626061496" font-size="3" text-anchor="middle" dominant-baseline="central" fill="#000">240</text>
<line x1="36.981876499217705" y1="53.92042706489798" x2="31.99186724781395" y2="48.218555223656956" stroke="#000" stroke-width="0.3" stroke-dasharray="2 1.5" />
<line x1="37.38184069811443" y1="54.31681862566696" x2="41.878950030078585" y2="44.87882262450384" stroke="#000" stroke-width="0.3" />
<text x="39.63039536409651" y="49.597820625085404" font-size="3" text-anchor="middle" dominant-baseline="central" fill="#000">240</text>
<line x1="41.878950030078585" y1="44.87882262450384" x2="44.78103440043482" y2="49.59857442899655" stroke="#000" stroke-width="0.3" stroke-dasharray="2 1.5" />
<line x1="44.78103440043482" y1="49.59857442899655" x2="37.38184069811443" y2="54.31681862566696" stroke="#000" stroke-width="0.3" stroke-dasharray="2 1.5" />
<line x1="37.38184069811443" y1="54.31681862566696" x2="44.78103440043482" y2="49.59857442899655" stroke="#000" stroke-width="0.3" stroke-dasharray="2 1.5" />
<line x1="44.78103440043482" y1="49.59857442899655" x2="41.41335161839777" y2="60.87341470780438" stroke="#000" stroke-width="0.3" stroke-dasharray="2 1.5" />
<line x1="41.41335161839777" y1="60.87341470780438" x2="37.38184069811443" y2="54.31681862566696" stroke="#000" stroke-width="0.3" stroke-dasharray="2 1.5" />
<line x1="37.51468282287429" y1="74.62728782719486" x2="41.41335161839777" y2="60.87341470780438" stroke="#000" stroke-width="0.3" />
<text x="39.46401722063603" y="67.75035126749962" font-size="3" text-anchor="middle" dominant-baseline="central" fill="#000">232</text>
<line x1="41.41335161839777" y1="60.87341470780438" x2="45.72105368861676" y2="61.667517285051176" stroke="#000" stroke-width="0.3" stroke-dasharray="2 1.5" />
<line x1="45.72105368861676" y1="61.667517285051176" x2="37.51468282287429" y2="74.62728782719486" stroke="#000" stroke-width="0.3" stroke-dasharray="2 1.5" />
<line x1="37.51468282287429" y1="74.62728782719486" x2="45.72105368861676" y2="61.667517285051176" stroke="#000" stroke-width="0.3" stroke-dasharray="2 1.5" />
<line x1="45.72105368861676" y1="61.667517285051176" x2="42.89244929028294" y2="73.40435968281018" stroke="#000" stroke-width="0.3" />
<polygon points="45.72105368861676,61.667517285051176 42.89244929028294,73.40435968281018 48.29433734897,71.60159084270396 49.70863954813691,65.73316964382448" fill="none" stroke="#666" stroke-width="0.2" />
<text x="42.556853092562456" y="67.11420918619228" font-size="3" text-anchor="middle" dominant-baseline="central" fill="#000">241</text>
<line x1="42.89244929028294" y1="73.40435968281018" x2="37.51468282287429" y2="74.62728782719486" stroke="#000" stroke-width="0.3" />
<text x="40.203566056578616" y="74.01582375500251" font-size="3" text-anchor="middle" dominant-baseline="central" fill="#000">223</text>
<line x1="44.78103440043482" y1="49.59857442899655" x2="50.40655560488791" y2="39.03433876438307" stroke="#000" stroke-width="0.3" />
<text x="47.593795002661366" y="44.31645659668981" font-size="3" text-anchor="middle" dominant-baseline="central" fill="#000">375</text>
<line x1="50.40655560488791" y1="39.03433876438307" x2="47.881841757564196" y2="50.17017679423597" stroke="#000" stroke-width="0.3" />
<polygon points="50.40655560488791,39.03433876438307 47.881841757564196,50.17017679423597 52.967355431336294,48.39610282570223 54.22971235499815,42.82818381077579" fill="none" stroke="#666" stroke-width="0.2" />
<text x="47.38874998122341" y="44.20426297826431" font-size="3" text-anchor="middle" dominant-baseline="central" fill="#000">245</text>
<line x1="47.881841757564196" y1="50.17017679423597" x2="44.78103440043482" y2="49.59857442899655" stroke="#000" stroke-width="0.3" stroke-dasharray="2 1.5" />
<line x1="41.41335161839777" y1="60.87341470780438" x2="44.78103440043482" y2="49.59857442899655" stroke="#000" stroke-width="0.3" stroke-dasharray="2 1.5" />
<line x1="44.78103440043482" y1="49.59857442899655" x2="47.881841757564196" y2="50.17017679423597" stroke="#000" stroke-width="0.3" stroke-dasharray="2 1.5" />
<line x1="47.881841757564196" y1="50.17017679423597" x2="41.41335161839777" y2="60.87341470780438" stroke="#000" stroke-width="0.3" stroke-dasharray="2 1.5" />
<line x1="41.41335161839777" y1="60.87341470780438" x2="47.881841757564196" y2="50.17017679423597" stroke="#000" stroke-width="0.3" stroke-dasharray="2 1.5" />
<line x1="47.881841757564196" y1="50.17017679423597" x2="45.72105368861676" y2="61.667517285051176" stroke="#000" stroke-width="0.3" />
<text x="46.801447723090476" y="55.91884703964357" font-size="3" text-anchor="middle" dominant-baseline="central" fill="#000">248</text>
<line x1="45.72105368861676" y1="61.667517285051176" x2="41.41335161839777" y2="60.87341470780438" stroke="#000" stroke-width="0.3" stroke-dasharray="2 1.5" />
<line x1="41.07996639452239" y1="29.85148763885117" x2="48.903760208276395" y2="24.792585395364824" stroke="#000" stroke-width="0.3" />
<text x="44.99186330139939" y="27.322036517107996" font-size="3" text-anchor="middle" dominant-baseline="central" fill="#000">251</text>
<line x1="48.903760208276395" y1="24.792585395364824" x2="50.53756341330601" y2="26.659416292793406" stroke="#000" stroke-width="0.3" stroke-dasharray="2 1.5" />
<line x1="50.53756341330601" y1="26.659416292793406" x2="41.07996639452239" y2="29.85148763885117" stroke="#000" stroke-width="0.3" stroke-dasharray="2 1.5" />
<line x1="41.07996639452239" y1="29.85148763885117" x2="50.53756341330601" y2="26.659416292793406" stroke="#000" stroke-width="0.3" stroke-dasharray="2 1.5" />
<line x1="50.53756341330601" y1="26.659416292793406" x2="44.37946154555462" y2="33.62171603051783" stroke="#000" stroke-width="0.3" />
<polygon points="50.53756341330601,26.659416292793406 44.37946154555462,33.62171603051783 48.70390690758222,34.34438184318728 51.782957841457936,30.863231974325064" fill="none" stroke="#666" stroke-width="0.2" />
<text x="46.11023644451861" y="28.948026127240517" font-size="3" text-anchor="middle" dominant-baseline="central" fill="#000">252</text>
<line x1="44.37946154555462" y1="33.62171603051783" x2="41.07996639452239" y2="29.85148763885117" stroke="#000" stroke-width="0.3" stroke-dasharray="2 1.5" />
<line x1="41.878950030078585" y1="44.87882262450384" x2="45.81500430639445" y2="34.44661745576139" stroke="#000" stroke-width="0.3" />
<polygon points="41.878950030078585,44.87882262450384 45.81500430639445,34.44661745576139 40.658108669818525,35.48024703742067 38.690081531660574,40.696349621791875" fill="none" stroke="#666" stroke-width="0.2" />
<text x="45.53109369059676" y="40.298134502600405" font-size="3" text-anchor="middle" dominant-baseline="central" fill="#000">253</text>
<line x1="45.81500430639445" y1="34.44661745576139" x2="48.480756649146876" y2="38.782057325687404" stroke="#000" stroke-width="0.3" stroke-dasharray="2 1.5" />
<line x1="48.480756649146876" y1="38.782057325687404" x2="41.878950030078585" y2="44.87882262450384" stroke="#000" stroke-width="0.3" stroke-dasharray="2 1.5" />
<line x1="41.878950030078585" y1="44.87882262450384" x2="48.480756649146876" y2="38.782057325687404" stroke="#000" stroke-width="0.3" stroke-dasharray="2 1.5" />
<line x1="48.480756649146876" y1="38.782057325687404" x2="44.78103440043482" y2="49.59857442899655" stroke="#000" stroke-width="0.3" />
<text x="46.630895524790844" y="44.19031587734197" font-size="3" text-anchor="middle" dominant-baseline="central" fill="#000">244</text>
<line x1="44.78103440043482" y1="49.59857442899655" x2="41.878950030078585" y2="44.87882262450384" stroke="#000" stroke-width="0.3" stroke-dasharray="2 1.5" />
<line x1="36.98351850415729" y1="39.99840558045162" x2="41.07996639452239" y2="29.85148763885117" stroke="#000" stroke-width="0.3" />
<polygon points="36.98351850415729,39.99840558045162 41.07996639452239,29.85148763885117 35.99708724529092,30.749637968105244 33.948863300108385,35.82309693890546" fill="none" stroke="#666" stroke-width="0.2" />
<text x="40.70085461656423" y="35.59878974660798" font-size="3" text-anchor="middle" dominant-baseline="central" fill="#000">254</text>
<line x1="41.07996639452239" y1="29.85148763885117" x2="44.37946154555462" y2="33.62171603051783" stroke="#000" stroke-width="0.3" stroke-dasharray="2 1.5" />
<line x1="44.37946154555462" y1="33.62171603051783" x2="36.98351850415729" y2="39.99840558045162" stroke="#000" stroke-width="0.3" stroke-dasharray="2 1.5" />
<line x1="36.98351850415729" y1="39.99840558045162" x2="44.37946154555462" y2="33.62171603051783" stroke="#000" stroke-width="0.3" stroke-dasharray="2 1.5" />
<line x1="44.37946154555462" y1="33.62171603051783" x2="40.575525239926975" y2="44.10281790634983" stroke="#000" stroke-width="0.3" />
<text x="42.4774933927408" y="38.86226696843383" font-size="3" text-anchor="middle" dominant-baseline="central" fill="#000">253</text>
<line x1="40.575525239926975" y1="44.10281790634983" x2="36.98351850415729" y2="39.99840558045162" stroke="#000" stroke-width="0.3" stroke-dasharray="2 1.5" />
<line x1="45.81500430639445" y1="34.44661745576139" x2="52.75119872421732" y2="28.25912658710684" stroke="#000" stroke-width="0.3" />
<text x="49.28310151530589" y="31.352872021434116" font-size="3" text-anchor="middle" dominant-baseline="central" fill="#000">252</text>
<line x1="52.75119872421732" y1="28.25912658710684" x2="54.07116969277934" y2="30.405925125531294" stroke="#000" stroke-width="0.3" stroke-dasharray="2 1.5" />
<line x1="54.07116969277934" y1="30.405925125531294" x2="45.81500430639445" y2="34.44661745576139" stroke="#000" stroke-width="0.3" stroke-dasharray="2 1.5" />
<line x1="45.81500430639445" y1="34.44661745576139" x2="54.07116969277934" y2="30.405925125531294" stroke="#000" stroke-width="0.3" stroke-dasharray="2 1.5" />
<line x1="54.07116969277934" y1="30.405925125531294" x2="48.480756649146876" y2="38.782057325687404" stroke="#000" stroke-width="0.3" />
<text x="51.27596317096311" y="34.59399122560935" font-size="3" text-anchor="middle" dominant-baseline="central" fill="#000">260</text>
<line x1="48.480756649146876" y1="38.782057325687404" x2="45.81500430639445" y2="34.44661745576139" stroke="#000" stroke-width="0.3" stroke-dasharray="2 1.5" />
<line x1="58.40032509026616" y1="16.63544953691651" x2="61.784370637073636" y2="13.90684692973595" stroke="#000" stroke-width="0.3" />
<text x="60.0923478636699" y="15.27114823332623" font-size="3" text-anchor="middle" dominant-baseline="central" fill="#000">262</text>
<line x1="61.784370637073636" y1="13.90684692973595" x2="63.33957979928325" y2="15.683919823353168" stroke="#000" stroke-width="0.3" stroke-dasharray="2 1.5" />
<line x1="63.33957979928325" y1="15.683919823353168" x2="58.40032509026616" y2="16.63544953691651" stroke="#000" stroke-width="0.3" stroke-dasharray="2 1.5" />
<line x1="58.40032509026616" y1="16.63544953691651" x2="63.33957979928325" y2="15.683919823353168" stroke="#000" stroke-width="0.3" stroke-dasharray="2 1.5" />
<line x1="63.33957979928325" y1="15.683919823353168" x2="60.034142032427255" y2="18.502325219524835" stroke="#000" stroke-width="0.3" />
<polygon points="63.33957979928325,15.683919823353168 60.034142032427255,18.502325219524835 61.98786363260994,19.11989897722432 63.64058251603792,17.710696279138478" fill="none" stroke="#666" stroke-width="0.2" />
<text x="60.51898217724831" y="15.723429398177489" font-size="3" text-anchor="middle" dominant-baseline="central" fill="#000">263</text>
<line x1="60.034142032427255" y1="18.502325219524835" x2="58.40032509026616" y2="16.63544953691651" stroke="#000" stroke-width="0.3" stroke-dasharray="2 1.5" />
<line x1="52.75119872421732" y1="28.25912658710684" x2="62.37169776001228" y2="20.24856240291748" stroke="#000" stroke-width="0.3" />
<polygon points="52.75119872421732,28.25912658710684 62.37169776001228,20.24856240291748 56.76234732738779,18.403003834646853 51.95209780949031,22.408285926741517" fill="none" stroke="#666" stroke-width="0.2" />
<text x="58.71322695361542" y="25.63710361742342" font-size="3" text-anchor="middle" dominant-baseline="central" fill="#000">264</text>
<line x1="62.37169776001228" y1="20.24856240291748" x2="63.69162949929655" y2="22.39529013195324" stroke="#000" stroke-width="0.3" stroke-dasharray="2 1.5" />
<line x1="63.69162949929655" y1="22.39529013195324" x2="52.75119872421732" y2="28.25912658710684" stroke="#000" stroke-width="0.3" stroke-dasharray="2 1.5" />
<line x1="52.75119872421732" y1="28.25912658710684" x2="63.69162949929655" y2="22.39529013195324" stroke="#000" stroke-width="0.3" stroke-dasharray="2 1.5" />
<line x1="63.69162949929655" y1="22.39529013195324" x2="54.07116969277934" y2="30.405925125531294" stroke="#000" stroke-width="0.3" />
<text x="58.88139959603795" y="26.400607628742264" font-size="3" text-anchor="middle" dominant-baseline="central" fill="#000">257</text>
<line x1="54.07116969277934" y1="30.405925125531294" x2="52.75119872421732" y2="28.25912658710684" stroke="#000" stroke-width="0.3" stroke-dasharray="2 1.5" />
<line x1="48.903760208276395" y1="24.792585395364824" x2="58.40032509026616" y2="16.63544953691651" stroke="#000" stroke-width="0.3" />
<polygon points="48.903760208276395,24.792585395364824 58.40032509026616,16.63544953691651 52.76332952638942,14.876107548732683 48.015047085394514,18.95467547795684" fill="none" stroke="#666" stroke-width="0.2" />
<text x="54.82489404064692" y="22.079454983476495" font-size="3" text-anchor="middle" dominant-baseline="central" fill="#000">265</text>
<line x1="58.40032509026616" y1="16.63544953691651" x2="60.034142032427255" y2="18.502325219524835" stroke="#000" stroke-width="0.3" stroke-dasharray="2 1.5" />
<line x1="60.034142032427255" y1="18.502325219524835" x2="48.903760208276395" y2="24.792585395364824" stroke="#000" stroke-width="0.3" stroke-dasharray="2 1.5" />
<line x1="48.903760208276395" y1="24.792585395364824" x2="60.034142032427255" y2="18.502325219524835" stroke="#000" stroke-width="0.3" stroke-dasharray="2 1.5" />
<line x1="60.034142032427255" y1="18.502325219524835" x2="50.53756341330601" y2="26.659416292793406" stroke="#000" stroke-width="0.3" />
<text x="55.285852722866636" y="22.580870756159122" font-size="3" text-anchor="middle" dominant-baseline="central" fill="#000">264</text>
<line x1="50.53756341330601" y1="26.659416292793406" x2="48.903760208276395" y2="24.792585395364824" stroke="#000" stroke-width="0.3" stroke-dasharray="2 1.5" />
<line x1="65.72020349793378" y1="17.481463356834308" x2="71.63466581761199" y2="15.603034539322099" stroke="#000" stroke-width="0.3" />
<polygon points="65.72020349793378,17.481463356834308 71.63466581761199,15.603034539322099 69.40467871068758,13.706856815828854 66.44744755084845,14.646071224584976" fill="none" stroke="#666" stroke-width="0.2" />
<text x="69.22229362204436" y="18.2578038755151" font-size="3" text-anchor="middle" dominant-baseline="central" fill="#000">266</text>
<line x1="71.63466581761199" y1="15.603034539322099" x2="72.89115899534124" y2="17.646463414672848" stroke="#000" stroke-width="0.3" stroke-dasharray="2 1.5" />
<line x1="72.89115899534124" y1="17.646463414672848" x2="65.72020349793378" y2="17.481463356834308" stroke="#000" stroke-width="0.3" stroke-dasharray="2 1.5" />
<line x1="65.72020349793378" y1="17.481463356834308" x2="72.89115899534124" y2="17.646463414672848" stroke="#000" stroke-width="0.3" stroke-dasharray="2 1.5" />
<line x1="72.89115899534124" y1="17.646463414672848" x2="66.97669667566302" y2="19.52489223218506" stroke="#000" stroke-width="0.3" />
<polygon points="72.89115899534124,17.646463414672848 66.97669667566302,19.52489223218506 69.20668378258745,21.421069955678284 72.16391494242657,20.481855546922198" fill="none" stroke="#666" stroke-width="0.2" />
<text x="69.38906887123066" y="16.870122895992054" font-size="3" text-anchor="middle" dominant-baseline="central" fill="#000">267</text>
<line x1="66.97669667566302" y1="19.52489223218506" x2="65.72020349793378" y2="17.481463356834308" stroke="#000" stroke-width="0.3" stroke-dasharray="2 1.5" />
<line x1="62.37169776001228" y1="20.24856240291748" x2="65.72020349793378" y2="17.481463356834308" stroke="#000" stroke-width="0.3" />
<text x="64.04595062897303" y="18.86501287987589" font-size="3" text-anchor="middle" dominant-baseline="central" fill="#000">263</text>
<line x1="65.72020349793378" y1="17.481463356834308" x2="66.97669667566302" y2="19.52489223218506" stroke="#000" stroke-width="0.3" stroke-dasharray="2 1.5" />
<line x1="66.97669667566302" y1="19.52489223218506" x2="62.37169776001228" y2="20.24856240291748" stroke="#000" stroke-width="0.3" stroke-dasharray="2 1.5" />
<line x1="62.37169776001228" y1="20.24856240291748" x2="66.97669667566302" y2="19.52489223218506" stroke="#000" stroke-width="0.3" stroke-dasharray="2 1.5" />
<line x1="66.97669667566302" y1="19.52489223218506" x2="63.69162949929655" y2="22.39529013195324" stroke="#000" stroke-width="0.3" />
<text x="65.3341630874798" y="20.96009118206915" font-size="3" text-anchor="middle" dominant-baseline="central" fill="#000">272</text>
<line x1="63.69162949929655" y1="22.39529013195324" x2="62.37169776001228" y2="20.24856240291748" stroke="#000" stroke-width="0.3" stroke-dasharray="2 1.5" />
<line x1="61.784370637073636" y1="13.90684692973595" x2="67.62627624439266" y2="11.813400680658164" stroke="#000" stroke-width="0.3" />
<polygon points="61.784370637073636,13.90684692973595 67.62627624439266,11.813400680658164 65.32842134293178,10 62.40746853927227,11.046723124538893" fill="none" stroke="#666" stroke-width="0.2" />
<text x="65.31254254531163" y="14.554610441035445" font-size="3" text-anchor="middle" dominant-baseline="central" fill="#000">273</text>
<line x1="67.62627624439266" y1="11.813400680658164" x2="69.18141419592915" y2="13.590518228933579" stroke="#000" stroke-width="0.3" stroke-dasharray="2 1.5" />
<line x1="69.18141419592915" y1="13.590518228933579" x2="61.784370637073636" y2="13.90684692973595" stroke="#000" stroke-width="0.3" stroke-dasharray="2 1.5" />
<line x1="61.784370637073636" y1="13.90684692973595" x2="69.18141419592915" y2="13.590518228933579" stroke="#000" stroke-width="0.3" stroke-dasharray="2 1.5" />
<line x1="69.18141419592915" y1="13.590518228933579" x2="63.33957979928325" y2="15.683919823353168" stroke="#000" stroke-width="0.3" />
<text x="66.2604969976062" y="14.637219026143374" font-size="3" text-anchor="middle" dominant-baseline="central" fill="#000">266</text>
<line x1="63.33957979928325" y1="15.683919823353168" x2="61.784370637073636" y2="13.90684692973595" stroke="#000" stroke-width="0.3" stroke-dasharray="2 1.5" />
<line x1="112.94409095134121" y1="101.56257359981161" x2="117.05897336457281" y2="101.37526786597182" stroke="#000" stroke-width="0.3" />
<polygon points="112.94409095134121,101.56257359981161 117.05897336457281,101.37526786597182 115.95533046772898,99.77614133413914 113.8978892611132,99.86979420105902" fill="none" stroke="#666" stroke-width="0.2" />
<text x="115.08338178163767" y="103.26705883634855" font-size="3" text-anchor="middle" dominant-baseline="central" fill="#000">275</text>
<line x1="117.05897336457281" y1="101.37526786597182" x2="117.44359628037583" y2="102.85948387402831" stroke="#000" stroke-width="0.3" stroke-dasharray="2 1.5" />
<line x1="117.44359628037583" y1="102.85948387402831" x2="112.94409095134121" y2="101.56257359981161" stroke="#000" stroke-width="0.3" stroke-dasharray="2 1.5" />
<line x1="112.94409095134121" y1="101.56257359981161" x2="117.44359628037583" y2="102.85948387402831" stroke="#000" stroke-width="0.3" stroke-dasharray="2 1.5" />
<line x1="117.44359628037583" y1="102.85948387402831" x2="113.32871386714427" y2="103.04678960786812" stroke="#000" stroke-width="0.3" />
<polygon points="117.44359628037583,102.85948387402831 113.32871386714427,103.04678960786812 114.4323567639881,104.64591613970079 116.48979797060383,104.5522632727809" fill="none" stroke="#666" stroke-width="0.2" />
<text x="115.30430545007938" y="101.15499863749139" font-size="3" text-anchor="middle" dominant-baseline="central" fill="#000">276</text>
<line x1="113.32871386714427" y1="103.04678960786812" x2="112.94409095134121" y2="101.56257359981161" stroke="#000" stroke-width="0.3" stroke-dasharray="2 1.5" />
<line x1="107.62333613161884" y1="103.08170593136006" x2="112.94409095134121" y2="101.56257359981161" stroke="#000" stroke-width="0.3" />
<polygon points="107.62333613161884,103.08170593136006 112.94409095134121,101.56257359981161 111.00624931379124,99.81405475480979 108.34587190393005,100.57362092058402" fill="none" stroke="#666" stroke-width="0.2" />
<text x="110.77788575310079" y="104.05297592919631" font-size="3" text-anchor="middle" dominant-baseline="central" fill="#000">280</text>
<line x1="112.94409095134121" y1="101.56257359981161" x2="113.32871386714427" y2="103.04678960786812" stroke="#000" stroke-width="0.3" stroke-dasharray="2 1.5" />
<line x1="113.32871386714427" y1="103.04678960786812" x2="107.62333613161884" y2="103.08170593136006" stroke="#000" stroke-width="0.3" stroke-dasharray="2 1.5" />
<line x1="107.62333613161884" y1="103.08170593136006" x2="113.32871386714427" y2="103.04678960786812" stroke="#000" stroke-width="0.3" stroke-dasharray="2 1.5" />
<line x1="113.32871386714427" y1="103.04678960786812" x2="107.98752648271066" y2="104.48717798158106" stroke="#000" stroke-width="0.3" />
<text x="110.65812017492746" y="103.76698379472458" font-size="3" text-anchor="middle" dominant-baseline="central" fill="#000">214</text>
<line x1="107.98752648271066" y1="104.48717798158106" x2="107.62333613161884" y2="103.08170593136006" stroke="#000" stroke-width="0.3" stroke-dasharray="2 1.5" />
<line x1="67.62627624439266" y1="11.813400680658164" x2="71.19496355253762" y2="11.22574619360806" stroke="#000" stroke-width="0.3" />
<text x="69.41061989846514" y="11.519573437133111" font-size="3" text-anchor="middle" dominant-baseline="central" fill="#000">341</text>
<line x1="71.19496355253762" y1="11.22574619360806" x2="72.89601144385563" y2="13.169531586923013" stroke="#000" stroke-width="0.3" />
<polygon points="71.19496355253762,11.22574619360806 72.89601144385563,13.169531586923013 73.2482636283521,12.003166082067061 72.3977396826931,11.031273385409586" fill="none" stroke="#666" stroke-width="0.2" />
<text x="70.69093084011038" y="13.383040197854768" font-size="3" text-anchor="middle" dominant-baseline="central" fill="#000">342</text>
<line x1="72.89601144385563" y1="13.169531586923013" x2="67.62627624439266" y2="11.813400680658164" stroke="#000" stroke-width="0.3" stroke-dasharray="2 1.5" />
<line x1="67.62627624439266" y1="11.813400680658164" x2="72.89601144385563" y2="13.169531586923013" stroke="#000" stroke-width="0.3" stroke-dasharray="2 1.5" />
<line x1="72.89601144385563" y1="13.169531586923013" x2="69.18141419592915" y2="13.590518228933579" stroke="#000" stroke-width="0.3" />
<polygon points="72.89601144385563,13.169531586923013 69.18141419592915,13.590518228933579 70.278458164715,14.971110467601545 72.13575678867821,14.760617146596243" fill="none" stroke="#666" stroke-width="0.2" />
<text x="70.83601096316043" y="11.5914746689701" font-size="3" text-anchor="middle" dominant-baseline="central" fill="#000">343</text>
<line x1="69.18141419592915" y1="13.590518228933579" x2="67.62627624439266" y2="11.813400680658164" stroke="#000" stroke-width="0.3" stroke-dasharray="2 1.5" />
<line x1="71.63466581761199" y1="15.603034539322099" x2="75.35806225844938" y2="15.268697267374131" stroke="#000" stroke-width="0.3" />
<text x="73.49636403803069" y="15.435865903348116" font-size="3" text-anchor="middle" dominant-baseline="central" fill="#000">343</text>
<line x1="75.35806225844938" y1="15.268697267374131" x2="76.73231295476579" y2="17.50376273095157" stroke="#000" stroke-width="0.3" />
<text x="76.04518760660758" y="16.38622999916285" font-size="3" text-anchor="middle" dominant-baseline="central" fill="#000">344</text>
<line x1="76.73231295476579" y1="17.50376273095157" x2="71.63466581761199" y2="15.603034539322099" stroke="#000" stroke-width="0.3" stroke-dasharray="2 1.5" />
<line x1="71.63466581761199" y1="15.603034539322099" x2="76.73231295476579" y2="17.50376273095157" stroke="#000" stroke-width="0.3" stroke-dasharray="2 1.5" />
<line x1="76.73231295476579" y1="17.50376273095157" x2="72.89115899534124" y2="17.646463414672848" stroke="#000" stroke-width="0.3" />
<text x="74.81173597505352" y="17.575113072812208" font-size="3" text-anchor="middle" dominant-baseline="central" fill="#000">350</text>
<line x1="72.89115899534124" y1="17.646463414672848" x2="71.63466581761199" y2="15.603034539322099" stroke="#000" stroke-width="0.3" stroke-dasharray="2 1.5" />
<line x1="117.05897336457281" y1="101.37526786597182" x2="120.18088208296925" y2="100.6251275752936" stroke="#000" stroke-width="0.3" />
<polygon points="117.05897336457281,101.37526786597182 120.18088208296925,100.6251275752936 119.10034878709884,99.56389916060458 117.53939442790062,99.9389693059437" fill="none" stroke="#666" stroke-width="0.2" />
<text x="119.04046665981342" y="102.75038256894798" font-size="3" text-anchor="middle" dominant-baseline="central" fill="#000">360</text>
<line x1="120.18088208296925" y1="100.6251275752936" x2="120.56550499877228" y2="102.10934358335011" stroke="#000" stroke-width="0.3" />
<text x="120.37319354087077" y="101.36723557932186" font-size="3" text-anchor="middle" dominant-baseline="central" fill="#000">358</text>
<line x1="120.56550499877228" y1="102.10934358335011" x2="117.05897336457281" y2="101.37526786597182" stroke="#000" stroke-width="0.3" stroke-dasharray="2 1.5" />
<line x1="117.05897336457281" y1="101.37526786597182" x2="120.56550499877228" y2="102.10934358335011" stroke="#000" stroke-width="0.3" stroke-dasharray="2 1.5" />
<line x1="120.56550499877228" y1="102.10934358335011" x2="117.44359628037583" y2="102.85948387402831" stroke="#000" stroke-width="0.3" />
<text x="119.00455063957406" y="102.48441372868922" font-size="3" text-anchor="middle" dominant-baseline="central" fill="#000">351</text>
<line x1="117.44359628037583" y1="102.85948387402831" x2="117.05897336457281" y2="101.37526786597182" stroke="#000" stroke-width="0.3" stroke-dasharray="2 1.5" />
</svg>