<svg xmlns="http://www.w3.org/2000/svg" width="215.9mm" height="279.4mm" viewBox="0 0 215.9 279.4">
<rect x="0" y="0" width="215.9" height="279.4" fill="none" stroke="#ccc" stroke-width="0.15" />
<line x1="149.09517374304892" y1="43.98678722959239" x2="157.78008800421978" y2="64.26277806756818" stroke="#000" stroke-width="0.3" />
<polygon points="149.09517374304892,43.98678722959239 157.78008800421978,64.26277806756818 163.7192557741174,55.719814653605894 159.37679864353194,45.581819234617996" fill="none" stroke="#666" stroke-width="0.2" />
<text x="151.78302814574303" y="54.833506722430286" font-size="3" text-anchor="middle" dominant-baseline="central" fill="#000">8</text>
<line x1="157.78008800421978" y1="64.26277806756818" x2="152.9837288294724" y2="72.34600276278279" stroke="#000" stroke-width="0.3" />
<text x="155.3819084168461" y="68.30439041517548" font-size="3" text-anchor="middle" dominant-baseline="central" fill="#000">7</text>
<line x1="152.9837288294724" y1="72.34600276278279" x2="149.09517374304892" y2="43.98678722959239" stroke="#000" stroke-width="0.3" stroke-dasharray="2 1.5" />
<line x1="149.09517374304892" y1="43.98678722959238" x2="149.20713374133084" y2="28.21176025101224" stroke="#000" stroke-width="0.3" stroke-dasharray="2 1.5" />
<line x1="149.20713374133084" y1="28.21176025101224" x2="150.21157748213247" y2="39.19854070483272" stroke="#000" stroke-width="0.3" />
<polygon points="149.20713374133084,28.21176025101224 150.21157748213247,39.19854070483272 154.35517872846023,36.05006809505694 153.85295685805943,30.556677868146707" fill="none" stroke="#666" stroke-width="0.2" />
<text x="147.91683112126512" y="33.86902833206279" font-size="3" text-anchor="middle" dominant-baseline="central" fill="#000">10</text>
<line x1="150.21157748213247" y1="39.19854070483272" x2="149.09517374304892" y2="43.98678722959238" stroke="#000" stroke-width="0.3" />
<text x="149.6533756125907" y="41.59266396721255" font-size="3" text-anchor="middle" dominant-baseline="central" fill="#000">9</text>
<line x1="149.20713374133084" y1="28.21176025101224" x2="149.09517374304892" y2="43.98678722959238" stroke="#000" stroke-width="0.3" stroke-dasharray="2 1.5" />
<line x1="149.09517374304892" y1="43.98678722959238" x2="147.15089949104993" y2="29.807174041437353" stroke="#000" stroke-width="0.3" stroke-dasharray="2 1.5" />
<line x1="147.15089949104993" y1="29.807174041437353" x2="149.20713374133084" y2="28.21176025101224" stroke="#000" stroke-width="0.3" />
<polygon points="147.15089949104993,29.807174041437353 149.20713374133084,28.21176025101224 148.05490966259055,27.788119998506165 147.0267925374501,28.58582689371872" fill="none" stroke="#666" stroke-width="0.2" />
<text x="149.28243714575538" y="30.43160045043172" font-size="3" text-anchor="middle" dominant-baseline="central" fill="#000">11</text>
<line x1="94.85148070840683" y1="181.2091180444783" x2="105.33873009906938" y2="168.14496306062506" stroke="#000" stroke-width="0.3" stroke-dasharray="2 1.5" />
<line x1="105.33873009906938" y1="168.14496306062506" x2="103.23074482323214" y2="182.36212717507647" stroke="#000" stroke-width="0.3" stroke-dasharray="2 1.5" />
<line x1="103.23074482323214" y1="182.36212717507647" x2="94.85148070840683" y2="181.2091180444783" stroke="#000" stroke-width="0.3" />
<polygon points="103.23074482323214,182.36212717507647 94.85148070840683,181.2091180444783 96.48509308487388,184.84907597305795 100.67472514228653,185.42558053835702" fill="none" stroke="#666" stroke-width="0.2" />
<text x="99.28648546443962" y="180.0024254140719" font-size="3" text-anchor="middle" dominant-baseline="central" fill="#000">12</text>
<line x1="105.33873009906938" y1="168.14496306062506" x2="94.85148070840683" y2="181.2091180444783" stroke="#000" stroke-width="0.3" stroke-dasharray="2 1.5" />
<line x1="94.85148070840683" y1="181.2091180444783" x2="93.28954932948714" y2="163.63292986510547" stroke="#000" stroke-width="0.3" stroke-dasharray="2 1.5" />
<line x1="93.28954932948714" y1="163.63292986510547" x2="105.33873009906938" y2="168.14496306062506" stroke="#000" stroke-width="0.3" />
<polygon points="93.28954932948714,163.63292986510547 105.33873009906938,168.14496306062506 104.13124818488166,162.19728245391227 98.10665780009055,159.94126585615246" fill="none" stroke="#666" stroke-width="0.2" />
<text x="98.68290374108648" y="167.57463360648018" font-size="3" text-anchor="middle" dominant-baseline="central" fill="#000">13</text>
<line x1="77.60091339046609" y1="47.99821247351243" x2="118.02953157316972" y2="47.99821247351243" stroke="#000" stroke-width="0.3" stroke-dasharray="2 1.5" />
<line x1="118.02953157316972" y1="47.99821247351243" x2="82.77249092400999" y2="64.65236391158172" stroke="#000" stroke-width="0.3" stroke-dasharray="2 1.5" />
<line x1="82.77249092400999" y1="64.65236391158172" x2="77.60091339046609" y2="47.99821247351243" stroke="#000" stroke-width="0.3" stroke-dasharray="2 1.5" />
<line x1="118.02953157316972" y1="47.99821247351243" x2="77.60091339046609" y2="47.99821247351243" stroke="#000" stroke-width="0.3" stroke-dasharray="2 1.5" />
<line x1="77.60091339046609" y1="47.99821247351243" x2="108.45082344435518" y2="33.42583020805618" stroke="#000" stroke-width="0.3" stroke-dasharray="2 1.5" />
<line x1="108.45082344435518" y1="33.42583020805618" x2="118.02953157316972" y2="47.99821247351243" stroke="#000" stroke-width="0.3" stroke-dasharray="2 1.5" />
<line x1="59.94270260417245" y1="86.09919167668362" x2="47.687167293853754" y2="76.16612238901234" stroke="#000" stroke-width="0.3" stroke-dasharray="2 1.5" />
<line x1="47.687167293853754" y1="76.16612238901234" x2="50.225466002270096" y2="75.59124490505714" stroke="#000" stroke-width="0.3" />
<polygon points="47.687167293853754,76.16612238901234 50.225466002270096,75.59124490505714 49.36094033158392,74.71964479267939 48.09179097737575,75.007083534657" fill="none" stroke="#666" stroke-width="0.2" />
<text x="49.3539135734413" y="77.63422250588374" font-size="3" text-anchor="middle" dominant-baseline="central" fill="#000">18</text>
<line x1="50.225466002270096" y1="75.59124490505714" x2="59.94270260417245" y2="86.09919167668362" stroke="#000" stroke-width="0.3" stroke-dasharray="2 1.5" />
<line x1="47.687167293853754" y1="76.16612238901234" x2="59.94270260417245" y2="86.09919167668362" stroke="#000" stroke-width="0.3" stroke-dasharray="2 1.5" />
<line x1="59.94270260417245" y1="86.09919167668362" x2="55.53523739920106" y2="83.92022114969636" stroke="#000" stroke-width="0.3" />
<polygon points="59.94270260417245,86.09919167668362 55.53523739920106,83.92022114969636 55.765515489649005,86.22794986343173 57.9692480921347,87.31743512692535" fill="none" stroke="#666" stroke-width="0.2" />
<text x="58.53669396363297" y="83.3961276327963" font-size="3" text-anchor="middle" dominant-baseline="central" fill="#000">19</text>
<line x1="55.53523739920106" y1="83.92022114969636" x2="47.687167293853754" y2="76.16612238901234" stroke="#000" stroke-width="0.3" />
<polygon points="55.53523739920106,83.92022114969636 47.687167293853754,76.16612238901234 46.54754531591698,81.24387512132226 50.47158036859063,85.12092450166428" fill="none" stroke="#666" stroke-width="0.2" />
<text x="52.87630562118046" y="78.76273680245362" font-size="3" text-anchor="middle" dominant-baseline="central" fill="#000">20</text>
<line x1="50.96410593540294" y1="50.20328085356095" x2="54.12740159051566" y2="53.96721797961096" stroke="#000" stroke-width="0.3" />
<text x="52.5457537629593" y="52.08524941658595" font-size="3" text-anchor="middle" dominant-baseline="central" fill="#000">19</text>
<line x1="54.12740159051566" y1="53.96721797961096" x2="35.783426657802764" y2="66.21638627193056" stroke="#000" stroke-width="0.3" />
<polygon points="54.12740159051566,53.96721797961096 35.783426657802764,66.21638627193056 45.26908770790883,70.49168417193583 54.44107517426527,64.36710002577603" fill="none" stroke="#666" stroke-width="0.2" />
<text x="43.95583252872309" y="58.59485969733024" font-size="3" text-anchor="middle" dominant-baseline="central" fill="#000">21</text>
<line x1="35.783426657802764" y1="66.21638627193056" x2="50.96410593540294" y2="50.20328085356095" stroke="#000" stroke-width="0.3" stroke-dasharray="2 1.5" />
<line x1="70.08736777951745" y1="105.68564895373375" x2="59.94270260417245" y2="86.09919167668362" stroke="#000" stroke-width="0.3" />
<text x="65.01503519184496" y="95.89242031520868" font-size="3" text-anchor="middle" dominant-baseline="central" fill="#000">21</text>
<line x1="59.94270260417245" y1="86.09919167668362" x2="79.37716325205083" y2="107.11508341708246" stroke="#000" stroke-width="0.3" stroke-dasharray="2 1.5" />
<line x1="79.37716325205083" y1="107.11508341708246" x2="70.08736777951745" y2="105.68564895373375" stroke="#000" stroke-width="0.3" />
<polygon points="79.37716325205083,107.11508341708246 70.08736777951745,105.68564895373375 71.83804286231131,109.75892575858425 76.482940598578,110.47364299025861" fill="none" stroke="#666" stroke-width="0.2" />
<text x="75.00601244089013" y="104.62130389841671" font-size="3" text-anchor="middle" dominant-baseline="central" fill="#000">22</text>
<line x1="81.76453837672435" y1="125.49390271628855" x2="85.9178952594598" y2="117.06222379621902" stroke="#000" stroke-width="0.3" />
<text x="83.84121681809208" y="121.27806325625377" font-size="3" text-anchor="middle" dominant-baseline="central" fill="#000">22</text>
<line x1="85.9178952594598" y1="117.06222379621902" x2="101.29970641799694" y2="139.02859596658155" stroke="#000" stroke-width="0.3" stroke-dasharray="2 1.5" />
<line x1="101.29970641799694" y1="139.02859596658155" x2="81.76453837672435" y2="125.49390271628855" stroke="#000" stroke-width="0.3" stroke-dasharray="2 1.5" />
<line x1="109.44696244850024" y1="133.36403938321106" x2="101.29970641799694" y2="139.02859596658155" stroke="#000" stroke-width="0.3" />
<polygon points="109.44696244850024,133.36403938321106 101.29970641799694,139.02859596658155 105.60234305897096,140.87135923294025 109.6759710742226,138.039080941255" fill="none" stroke="#666" stroke-width="0.2" />
<text x="104.34579730982118" y="134.71842476268023" font-size="3" text-anchor="middle" dominant-baseline="central" fill="#000">23</text>
<line x1="101.29970641799694" y1="139.02859596658155" x2="85.91789525945981" y2="117.06222379621904" stroke="#000" stroke-width="0.3" stroke-dasharray="2 1.5" />
<line x1="85.91789525945981" y1="117.06222379621904" x2="109.44696244850024" y2="133.36403938321106" stroke="#000" stroke-width="0.3" stroke-dasharray="2 1.5" />
<line x1="78.67751290651148" y1="159.10749713619327" x2="99.02833441388724" y2="152.87533553721838" stroke="#000" stroke-width="0.3" stroke-dasharray="2 1.5" />
<line x1="99.02833441388724" y1="152.87533553721838" x2="93.28954932948716" y2="163.63292986510547" stroke="#000" stroke-width="0.3" />
<text x="96.1589418716872" y="158.25413270116192" font-size="3" text-anchor="middle" dominant-baseline="central" fill="#000">28</text>
<line x1="93.28954932948716" y1="163.63292986510547" x2="78.67751290651148" y2="159.10749713619327" stroke="#000" stroke-width="0.3" stroke-dasharray="2 1.5" />
<line x1="78.67751290651148" y1="159.10749713619327" x2="77.84303273895328" y2="149.40014864249022" stroke="#000" stroke-width="0.3" />
<polygon points="78.67751290651148,159.10749713619327 77.84303273895328,149.40014864249022 74.16871338336162,152.16077783293926 74.58595346714073,157.01445207979077" fill="none" stroke="#666" stroke-width="0.2" />
<text x="80.0536586669549" y="154.0996567006287" font-size="3" text-anchor="middle" dominant-baseline="central" fill="#000">29</text>
<line x1="77.84303273895328" y1="149.40014864249022" x2="99.02833441388724" y2="152.87533553721838" stroke="#000" stroke-width="0.3" stroke-dasharray="2 1.5" />
<line x1="99.02833441388724" y1="152.87533553721838" x2="78.67751290651148" y2="159.10749713619327" stroke="#000" stroke-width="0.3" stroke-dasharray="2 1.5" />
<line x1="21.61263339869855" y1="32.75675537562806" x2="14.827794701204036" y2="54.06121082890702" stroke="#000" stroke-width="0.3" stroke-dasharray="2 1.5" />
<line x1="14.827794701204036" y1="54.06121082890702" x2="12.45200386863631" y2="44.61215850350773" stroke="#000" stroke-width="0.3" />
<text x="13.639899284920173" y="49.336684666207375" font-size="3" text-anchor="middle" dominant-baseline="central" fill="#000">29</text>
<line x1="12.45200386863631" y1="44.61215850350773" x2="21.61263339869855" y2="32.75675537562806" stroke="#000" stroke-width="0.3" />
<polygon points="12.45200386863631,44.61215850350773 21.61263339869855,32.75675537562806 14.580314765031128,32.056354345573084 10,37.98405590951292" fill="none" stroke="#666" stroke-width="0.2" />
<text x="18.456652782757285" y="39.78503507479341" font-size="3" text-anchor="middle" dominant-baseline="central" fill="#000">30</text>
<line x1="14.827794701204036" y1="54.06121082890702" x2="21.61263339869855" y2="32.75675537562806" stroke="#000" stroke-width="0.3" stroke-dasharray="2 1.5" />
<line x1="21.61263339869855" y1="32.75675537562806" x2="25.599498737664966" y2="35.49069185594627" stroke="#000" stroke-width="0.3" />
<polygon points="21.61263339869855,32.75675537562806 25.599498737664966,35.49069185594627 25.696356995050643,33.21246160028015 23.70292432556743,31.845493360121047" fill="none" stroke="#666" stroke-width="0.2" />
<text x="22.588093257342305" y="35.608220620294624" font-size="3" text-anchor="middle" dominant-baseline="central" fill="#000">31</text>
<line x1="25.599498737664966" y1="35.49069185594627" x2="14.827794701204036" y2="54.06121082890702" stroke="#000" stroke-width="0.3" stroke-dasharray="2 1.5" />
<line x1="25.97373392846483" y1="30.670997681889837" x2="30.98536205228844" y2="26.205436271563855" stroke="#000" stroke-width="0.3" />
<polygon points="25.97373392846483,30.670997681889837 30.98536205228844,26.205436271563855 27.946230457202148,25.317175374615907 25.440416395290335,27.549956079778894" fill="none" stroke="#666" stroke-width="0.2" />
<text x="29.677016986388832" y="29.782117271982987" font-size="3" text-anchor="middle" dominant-baseline="central" fill="#000">32</text>
<line x1="30.98536205228844" y1="26.205436271563855" x2="25.599498737664966" y2="35.490691855946274" stroke="#000" stroke-width="0.3" stroke-dasharray="2 1.5" />
<line x1="25.599498737664966" y1="35.490691855946274" x2="25.97373392846483" y2="30.670997681889837" stroke="#000" stroke-width="0.3" />
<text x="25.7866163330649" y="33.080844768918055" font-size="3" text-anchor="middle" dominant-baseline="central" fill="#000">31</text>
<line x1="136.71205913496772" y1="165.82808047670025" x2="141.94124483768036" y2="170.03679430011923" stroke="#000" stroke-width="0.3" />
<text x="139.32665198632404" y="167.93243738840974" font-size="3" text-anchor="middle" dominant-baseline="central" fill="#000">32</text>
<line x1="141.94124483768036" y1="170.03679430011923" x2="134.12532921430284" y2="167.9493034245517" stroke="#000" stroke-width="0.3" stroke-dasharray="2 1.5" />
<line x1="134.12532921430284" y1="167.9493034245517" x2="136.71205913496772" y2="165.82808047670025" stroke="#000" stroke-width="0.3" />
<polygon points="134.12532921430284,167.9493034245517 136.71205913496772,165.82808047670025 135.2168874756609,165.32369424539718 133.92352251532847,166.3843057193229" fill="none" stroke="#666" stroke-width="0.2" />
<text x="136.56007102669275" y="168.28054642634797" font-size="3" text-anchor="middle" dominant-baseline="central" fill="#000">33</text>
<line x1="50.225466002270096" y1="75.59124490505714" x2="78.26999056475476" y2="69.1510145147277" stroke="#000" stroke-width="0.3" stroke-dasharray="2 1.5" />
<line x1="78.26999056475476" y1="69.1510145147277" x2="59.94270260417245" y2="86.09919167668362" stroke="#000" stroke-width="0.3" stroke-dasharray="2 1.5" />
<line x1="59.94270260417245" y1="86.09919167668362" x2="50.225466002270096" y2="75.59124490505714" stroke="#000" stroke-width="0.3" stroke-dasharray="2 1.5" />
<line x1="78.26999056475476" y1="69.1510145147277" x2="50.225466002270096" y2="75.59124490505714" stroke="#000" stroke-width="0.3" stroke-dasharray="2 1.5" />
<line x1="50.225466002270096" y1="75.59124490505714" x2="67.14495524861636" y2="59.94493121017474" stroke="#000" stroke-width="0.3" />
<polygon points="50.225466002270096,75.59124490505714 67.14495524861636,59.94493121017474 56.656557459076836,57.08871393535683 48.19681283590371,64.91187078279802" fill="none" stroke="#666" stroke-width="0.2" />
<text x="59.907308809880846" y="69.08963110556945" font-size="3" text-anchor="middle" dominant-baseline="central" fill="#000">34</text>
<line x1="67.14495524861636" y1="59.94493121017474" x2="78.26999056475476" y2="69.1510145147277" stroke="#000" stroke-width="0.3" stroke-dasharray="2 1.5" />
<line x1="50.96410593540294" y1="50.20328085356095" x2="30.98536205228844" y2="26.20543627156385" stroke="#000" stroke-width="0.3" stroke-dasharray="2 1.5" />
<line x1="30.98536205228844" y1="26.20543627156385" x2="54.14548422874191" y2="39.63932874634468" stroke="#000" stroke-width="0.3" stroke-dasharray="2 1.5" />
<line x1="54.14548422874191" y1="39.63932874634468" x2="50.96410593540294" y2="50.20328085356095" stroke="#000" stroke-width="0.3" />
<text x="52.554795082072424" y="44.921304799952814" font-size="3" text-anchor="middle" dominant-baseline="central" fill="#000">20</text>
<line x1="30.98536205228844" y1="26.20543627156385" x2="50.96410593540294" y2="50.20328085356095" stroke="#000" stroke-width="0.3" stroke-dasharray="2 1.5" />
<line x1="50.96410593540294" y1="50.20328085356095" x2="25.599498737664966" y2="35.490691855946274" stroke="#000" stroke-width="0.3" stroke-dasharray="2 1.5" />
<line x1="25.599498737664966" y1="35.490691855946274" x2="30.98536205228844" y2="26.20543627156385" stroke="#000" stroke-width="0.3" stroke-dasharray="2 1.5" />
<line x1="141.94124483768036" y1="170.03679430011923" x2="118.85280001089691" y2="188.83050466331326" stroke="#000" stroke-width="0.3" stroke-dasharray="2 1.5" />
<line x1="118.85280001089691" y1="188.83050466331326" x2="134.12532921430284" y2="167.9493034245517" stroke="#000" stroke-width="0.3" stroke-dasharray="2 1.5" />
<line x1="134.12532921430284" y1="167.9493034245517" x2="141.94124483768036" y2="170.03679430011923" stroke="#000" stroke-width="0.3" stroke-dasharray="2 1.5" />
<line x1="118.85280001089691" y1="188.83050466331326" x2="141.94124483768036" y2="170.03679430011923" stroke="#000" stroke-width="0.3" stroke-dasharray="2 1.5" />
<line x1="141.94124483768036" y1="170.03679430011923" x2="122.51934432279606" y2="190.9380687097172" stroke="#000" stroke-width="0.3" />
<polygon points="141.94124483768036,170.03679430011923 122.51934432279606,190.9380687097172 135.7353292153563,193.4815103132714 145.44627947279844,183.03087310847243" fill="none" stroke="#666" stroke-width="0.2" />
<text x="130.91169338340242" y="179.26215974579566" font-size="3" text-anchor="middle" dominant-baseline="central" fill="#000">35</text>
<line x1="122.51934432279606" y1="190.9380687097172" x2="118.85280001089691" y2="188.83050466331326" stroke="#000" stroke-width="0.3" />
<polygon points="122.51934432279606,190.9380687097172 118.85280001089691,188.83050466331326 118.92641047031015,190.82401339967393 120.75968262625972,191.8777954228759" fill="none" stroke="#666" stroke-width="0.2" />
<text x="121.58309661655237" y="188.32372680729563" font-size="3" text-anchor="middle" dominant-baseline="central" fill="#000">36</text>
<line x1="35.78342665780275" y1="66.21638627193056" x2="25.599498737664966" y2="35.490691855946274" stroke="#000" stroke-width="0.3" stroke-dasharray="2 1.5" />
<line x1="25.599498737664966" y1="35.490691855946274" x2="50.96410593540294" y2="50.20328085356095" stroke="#000" stroke-width="0.3" stroke-dasharray="2 1.5" />
<line x1="50.96410593540294" y1="50.20328085356095" x2="35.78342665780275" y2="66.21638627193056" stroke="#000" stroke-width="0.3" stroke-dasharray="2 1.5" />
<line x1="25.599498737664966" y1="35.490691855946274" x2="35.78342665780275" y2="66.21638627193056" stroke="#000" stroke-width="0.3" stroke-dasharray="2 1.5" />
<line x1="35.78342665780275" y1="66.21638627193056" x2="14.827794701204036" y2="54.06121082890702" stroke="#000" stroke-width="0.3" />
<polygon points="35.78342665780275,66.21638627193056 14.827794701204036,54.06121082890702 15.204632513144297,65.4822574723024 25.682448491443655,71.55984519381417" fill="none" stroke="#666" stroke-width="0.2" />
<text x="26.20875377405984" y="58.58177171996435" font-size="3" text-anchor="middle" dominant-baseline="central" fill="#000">37</text>
<line x1="14.827794701204036" y1="54.06121082890702" x2="25.599498737664966" y2="35.490691855946274" stroke="#000" stroke-width="0.3" stroke-dasharray="2 1.5" />
<line x1="77.84303273895328" y1="149.40014864249022" x2="101.29970641799694" y2="139.02859596658155" stroke="#000" stroke-width="0.3" stroke-dasharray="2 1.5" />
<line x1="101.29970641799694" y1="139.02859596658155" x2="99.02833441388724" y2="152.87533553721838" stroke="#000" stroke-width="0.3" />
<text x="100.16402041594209" y="145.95196575189996" font-size="3" text-anchor="middle" dominant-baseline="central" fill="#000">15</text>
<line x1="99.02833441388724" y1="152.87533553721838" x2="77.84303273895328" y2="149.40014864249022" stroke="#000" stroke-width="0.3" stroke-dasharray="2 1.5" />
<line x1="101.29970641799694" y1="139.02859596658155" x2="77.84303273895328" y2="149.40014864249022" stroke="#000" stroke-width="0.3" stroke-dasharray="2 1.5" />
<line x1="77.84303273895328" y1="149.40014864249022" x2="81.76453837672435" y2="125.49390271628855" stroke="#000" stroke-width="0.3" />
<text x="79.80378555783881" y="137.44702567938938" font-size="3" text-anchor="middle" dominant-baseline="central" fill="#000">37</text>
<line x1="81.76453837672435" y1="125.49390271628855" x2="101.29970641799694" y2="139.02859596658155" stroke="#000" stroke-width="0.3" stroke-dasharray="2 1.5" />
<line x1="112.52874962743773" y1="198.0611055137497" x2="118.85280001089691" y2="188.83050466331326" stroke="#000" stroke-width="0.3" stroke-dasharray="2 1.5" />
<line x1="118.85280001089691" y1="188.83050466331326" x2="119.32991253989097" y2="193.03261568463236" stroke="#000" stroke-width="0.3" />
<text x="119.09135627539393" y="190.9315601739728" font-size="3" text-anchor="middle" dominant-baseline="central" fill="#000">36</text>
<line x1="119.32991253989097" y1="193.03261568463236" x2="112.52874962743773" y2="198.0611055137497" stroke="#000" stroke-width="0.3" />
<polygon points="119.32991253989097,193.03261568463236 112.52874962743773,198.0611055137497 116.24043628719798,199.52444822145168 119.64101774342461,197.010203306893" fill="none" stroke="#666" stroke-width="0.2" />
<text x="114.85921478539521" y="194.0995005513181" font-size="3" text-anchor="middle" dominant-baseline="central" fill="#000">38</text>
<line x1="118.85280001089691" y1="188.83050466331326" x2="112.52874962743773" y2="198.0611055137497" stroke="#000" stroke-width="0.3" stroke-dasharray="2 1.5" />
<line x1="112.52874962743773" y1="198.0611055137497" x2="107.2197258695049" y2="183.7669060236114" stroke="#000" stroke-width="0.3" stroke-dasharray="2 1.5" />
<line x1="107.2197258695049" y1="183.7669060236114" x2="118.85280001089691" y2="188.83050466331326" stroke="#000" stroke-width="0.3" stroke-dasharray="2 1.5" />
<line x1="107.2197258695049" y1="183.7669060236114" x2="112.52874962743773" y2="198.0611055137497" stroke="#000" stroke-width="0.3" stroke-dasharray="2 1.5" />
<line x1="112.52874962743773" y1="198.0611055137497" x2="104.77336579106952" y2="194.68537261917749" stroke="#000" stroke-width="0.3" />
<polygon points="112.52874962743773,198.0611055137497 104.77336579106952,194.68537261917749 105.36191859233269,198.6314593773678 109.2396105105168,200.31932582465393" fill="none" stroke="#666" stroke-width="0.2" />
<text x="109.36944957308361" y="194.72281090080995" font-size="3" text-anchor="middle" dominant-baseline="central" fill="#000">39</text>
<line x1="104.77336579106952" y1="194.68537261917749" x2="107.2197258695049" y2="183.7669060236114" stroke="#000" stroke-width="0.3" stroke-dasharray="2 1.5" />
<line x1="107.2197258695049" y1="183.7669060236114" x2="104.77336579106952" y2="194.68537261917749" stroke="#000" stroke-width="0.3" stroke-dasharray="2 1.5" />
<line x1="104.77336579106952" y1="194.68537261917749" x2="103.81914486714544" y2="186.28114989547558" stroke="#000" stroke-width="0.3" />
<text x="104.29625532910748" y="190.48326125732655" font-size="3" text-anchor="middle" dominant-baseline="central" fill="#000">12</text>
<line x1="103.81914486714544" y1="186.28114989547558" x2="107.2197258695049" y2="183.7669060236114" stroke="#000" stroke-width="0.3" />
<polygon points="103.81914486714544,186.28114989547558 107.2197258695049,183.7669060236114 105.36388307016935,183.03523459063368 103.66359256898963,184.29235652656578" fill="none" stroke="#666" stroke-width="0.2" />
<text x="106.58955147200116" y="186.47138815129028" font-size="3" text-anchor="middle" dominant-baseline="central" fill="#000">40</text>
<line x1="107.21972586950491" y1="183.7669060236114" x2="105.33873009906938" y2="168.14496306062506" stroke="#000" stroke-width="0.3" stroke-dasharray="2 1.5" />
<line x1="105.33873009906938" y1="168.14496306062506" x2="111.30957388292295" y2="168.8169312097471" stroke="#000" stroke-width="0.3" />
<text x="108.32415199099617" y="168.48094713518609" font-size="3" text-anchor="middle" dominant-baseline="central" fill="#000">26</text>
<line x1="111.30957388292295" y1="168.8169312097471" x2="107.21972586950491" y2="183.7669060236114" stroke="#000" stroke-width="0.3" stroke-dasharray="2 1.5" />
<line x1="105.33873009906938" y1="168.14496306062506" x2="107.21972586950491" y2="183.7669060236114" stroke="#000" stroke-width="0.3" stroke-dasharray="2 1.5" />
<line x1="107.21972586950491" y1="183.7669060236114" x2="103.23074482323214" y2="182.36212717507647" stroke="#000" stroke-width="0.3" />
<text x="105.22523534636852" y="183.06451659934393" font-size="3" text-anchor="middle" dominant-baseline="central" fill="#000">40</text>
<line x1="103.23074482323214" y1="182.36212717507647" x2="105.33873009906938" y2="168.14496306062506" stroke="#000" stroke-width="0.3" stroke-dasharray="2 1.5" />
<line x1="118.85280001089691" y1="188.83050466331326" x2="111.30957388292295" y2="168.8169312097471" stroke="#000" stroke-width="0.3" stroke-dasharray="2 1.5" />
<line x1="111.30957388292295" y1="168.8169312097471" x2="134.12532921430284" y2="167.9493034245517" stroke="#000" stroke-width="0.3" />
<text x="122.7174515486129" y="168.3831173171494" font-size="3" text-anchor="middle" dominant-baseline="central" fill="#000">41</text>
<line x1="134.12532921430284" y1="167.9493034245517" x2="118.85280001089691" y2="188.83050466331326" stroke="#000" stroke-width="0.3" stroke-dasharray="2 1.5" />
<line x1="111.30957388292295" y1="168.8169312097471" x2="118.85280001089691" y2="188.83050466331326" stroke="#000" stroke-width="0.3" stroke-dasharray="2 1.5" />
<line x1="118.85280001089691" y1="188.83050466331326" x2="107.21972586950491" y2="183.7669060236114" stroke="#000" stroke-width="0.3" stroke-dasharray="2 1.5" />
<line x1="107.21972586950491" y1="183.7669060236114" x2="111.30957388292295" y2="168.8169312097471" stroke="#000" stroke-width="0.3" stroke-dasharray="2 1.5" />
<line x1="30.98536205228844" y1="26.20543627156385" x2="116.89230278083934" y2="10" stroke="#000" stroke-width="0.3" />
<text x="73.9388324165639" y="18.102718135781927" font-size="3" text-anchor="middle" dominant-baseline="central" fill="#000">45</text>
<line x1="116.89230278083934" y1="10" x2="54.14548422874191" y2="39.63932874634468" stroke="#000" stroke-width="0.3" stroke-dasharray="2 1.5" />
<line x1="54.14548422874191" y1="39.63932874634468" x2="30.98536205228844" y2="26.20543627156385" stroke="#000" stroke-width="0.3" stroke-dasharray="2 1.5" />
<line x1="54.145484228741914" y1="39.639328746344674" x2="116.89230278083934" y2="10" stroke="#000" stroke-width="0.3" stroke-dasharray="2 1.5" />
<line x1="116.89230278083934" y1="10" x2="119.03159783520192" y2="11.48218120521292" stroke="#000" stroke-width="0.3" />
<text x="117.96195030802063" y="10.741090602606459" font-size="3" text-anchor="middle" dominant-baseline="central" fill="#000">11</text>
<line x1="119.03159783520192" y1="11.48218120521292" x2="54.145484228741914" y2="39.639328746344674" stroke="#000" stroke-width="0.3" stroke-dasharray="2 1.5" />
<line x1="54.145484228741914" y1="39.639328746344674" x2="119.03159783520192" y2="11.48218120521292" stroke="#000" stroke-width="0.3" stroke-dasharray="2 1.5" />
<line x1="119.03159783520192" y1="11.48218120521292" x2="53.9315232081934" y2="42.233103049631815" stroke="#000" stroke-width="0.3" stroke-dasharray="2 1.5" />
<line x1="53.9315232081934" y1="42.233103049631815" x2="54.145484228741914" y2="39.639328746344674" stroke="#000" stroke-width="0.3" />
<text x="54.03850371846765" y="40.93621589798825" font-size="3" text-anchor="middle" dominant-baseline="central" fill="#000">18</text>
<line x1="53.9315232081934" y1="42.233103049631815" x2="119.03159783520192" y2="11.48218120521292" stroke="#000" stroke-width="0.3" stroke-dasharray="2 1.5" />
<line x1="119.03159783520192" y1="11.48218120521292" x2="105.90733332989612" y2="30.42498801388465" stroke="#000" stroke-width="0.3" />
<polygon points="119.03159783520192,11.48218120521292 105.90733332989612,30.42498801388465 116.76552217969127,30.938992113839042 123.32765443234416,21.46758870950318" fill="none" stroke="#666" stroke-width="0.2" />
<text x="110.989885774776" y="19.92847798464074" font-size="3" text-anchor="middle" dominant-baseline="central" fill="#000">46</text>
<line x1="105.90733332989612" y1="30.42498801388465" x2="53.9315232081934" y2="42.233103049631815" stroke="#000" stroke-width="0.3" stroke-dasharray="2 1.5" />
<line x1="53.9315232081934" y1="42.233103049631815" x2="105.90733332989612" y2="30.42498801388465" stroke="#000" stroke-width="0.3" stroke-dasharray="2 1.5" />
<line x1="105.90733332989612" y1="30.42498801388465" x2="76.89860605793116" y2="44.127662093096376" stroke="#000" stroke-width="0.3" stroke-dasharray="2 1.5" />
<line x1="76.89860605793116" y1="44.127662093096376" x2="53.9315232081934" y2="42.233103049631815" stroke="#000" stroke-width="0.3" />
<text x="65.41506463306229" y="43.18038257136409" font-size="3" text-anchor="middle" dominant-baseline="central" fill="#000">34</text>
<line x1="76.89860605793116" y1="44.127662093096376" x2="105.90733332989612" y2="30.424988013884644" stroke="#000" stroke-width="0.3" stroke-dasharray="2 1.5" />
<line x1="105.90733332989612" y1="30.424988013884644" x2="108.4508234443552" y2="33.425830208056176" stroke="#000" stroke-width="0.3" />
<polygon points="105.90733332989612,30.424988013884644 108.4508234443552,33.425830208056176 109.01528779340904,31.658223613729664 107.7435427361795,30.157802516643898" fill="none" stroke="#666" stroke-width="0.2" />
<text x="105.80595737862043" y="33.089255619751356" font-size="3" text-anchor="middle" dominant-baseline="central" fill="#000">47</text>
<line x1="108.4508234443552" y1="33.425830208056176" x2="76.89860605793116" y2="44.127662093096376" stroke="#000" stroke-width="0.3" stroke-dasharray="2 1.5" />
<line x1="76.89860605793116" y1="44.127662093096376" x2="108.4508234443552" y2="33.425830208056176" stroke="#000" stroke-width="0.3" stroke-dasharray="2 1.5" />
<line x1="108.4508234443552" y1="33.425830208056176" x2="77.60091339046609" y2="47.99821247351243" stroke="#000" stroke-width="0.3" stroke-dasharray="2 1.5" />
<line x1="77.60091339046609" y1="47.99821247351243" x2="76.89860605793116" y2="44.127662093096376" stroke="#000" stroke-width="0.3" />
<polygon points="77.60091339046609,47.99821247351243 76.89860605793116,44.127662093096376 75.52596273889849,45.37622262121436 75.87711640516594,47.311497811422385" fill="none" stroke="#666" stroke-width="0.2" />
<text x="79.02084054016085" y="45.74157651511606" font-size="3" text-anchor="middle" dominant-baseline="central" fill="#000">48</text>
<line x1="126.28269913054397" y1="122.52885355739737" x2="128.37268569802248" y2="81.30651335492801" stroke="#000" stroke-width="0.3" stroke-dasharray="2 1.5" />
<line x1="128.37268569802248" y1="81.30651335492801" x2="135.09696032108525" y2="118.36531521217128" stroke="#000" stroke-width="0.3" stroke-dasharray="2 1.5" />
<line x1="135.09696032108525" y1="118.36531521217128" x2="126.28269913054397" y2="122.52885355739737" stroke="#000" stroke-width="0.3" />
<text x="130.6898297258146" y="120.44708438478432" font-size="3" text-anchor="middle" dominant-baseline="central" fill="#000">2</text>
<line x1="128.37268569802248" y1="81.30651335492801" x2="126.28269913054397" y2="122.52885355739737" stroke="#000" stroke-width="0.3" stroke-dasharray="2 1.5" />
<line x1="126.28269913054397" y1="122.52885355739737" x2="101.92990623940402" y2="93.7971264477712" stroke="#000" stroke-width="0.3" stroke-dasharray="2 1.5" />
<line x1="101.92990623940402" y1="93.7971264477712" x2="128.37268569802248" y2="81.30651335492801" stroke="#000" stroke-width="0.3" stroke-dasharray="2 1.5" />
<line x1="64.07850168782761" y1="162.47448215967194" x2="86.51164584620437" y2="182.61933274305827" stroke="#000" stroke-width="0.3" stroke-dasharray="2 1.5" />
<line x1="86.51164584620437" y1="182.61933274305827" x2="79.1153349206227" y2="186.72251585076714" stroke="#000" stroke-width="0.3" />
<text x="82.81349038341354" y="184.6709242969127" font-size="3" text-anchor="middle" dominant-baseline="central" fill="#000">38</text>
<line x1="79.1153349206227" y1="186.72251585076714" x2="64.07850168782761" y2="162.47448215967194" stroke="#000" stroke-width="0.3" />
<text x="71.59691830422516" y="174.59849900521954" font-size="3" text-anchor="middle" dominant-baseline="central" fill="#000">35</text>
<line x1="86.51164584620437" y1="182.61933274305827" x2="64.07850168782761" y2="162.47448215967194" stroke="#000" stroke-width="0.3" stroke-dasharray="2 1.5" />
<line x1="64.07850168782761" y1="162.47448215967194" x2="78.67751290651148" y2="159.10749713619327" stroke="#000" stroke-width="0.3" />
<text x="71.37800729716955" y="160.7909896479326" font-size="3" text-anchor="middle" dominant-baseline="central" fill="#000">30</text>
<line x1="78.67751290651148" y1="159.10749713619327" x2="86.51164584620437" y2="182.61933274305827" stroke="#000" stroke-width="0.3" stroke-dasharray="2 1.5" />
<line x1="85.91789525945981" y1="117.06222379621904" x2="117.11116877479557" y2="122.30197765172242" stroke="#000" stroke-width="0.3" stroke-dasharray="2 1.5" />
<line x1="117.11116877479557" y1="122.30197765172242" x2="109.44696244850024" y2="133.36403938321106" stroke="#000" stroke-width="0.3" />
<polygon points="117.11116877479557,122.30197765172242 109.44696244850024,133.36403938321106 115.78783872266953,133.66420648085705 119.6199418858172,128.1331756151127" fill="none" stroke="#666" stroke-width="0.2" />
<text x="111.79948631833211" y="126.8079011500212" font-size="3" text-anchor="middle" dominant-baseline="central" fill="#000">55</text>
<line x1="109.44696244850024" y1="133.36403938321106" x2="85.91789525945981" y2="117.06222379621904" stroke="#000" stroke-width="0.3" stroke-dasharray="2 1.5" />
<line x1="117.11116877479557" y1="122.30197765172242" x2="85.91789525945981" y2="117.06222379621904" stroke="#000" stroke-width="0.3" stroke-dasharray="2 1.5" />
<line x1="85.91789525945981" y1="117.06222379621904" x2="97.95014918111953" y2="99.69556907392024" stroke="#000" stroke-width="0.3" />
<polygon points="85.91789525945981,117.06222379621904 97.95014918111953,99.69556907392024 87.99542381178509,99.22433118583105 81.97929685095521,107.90765854698044" fill="none" stroke="#666" stroke-width="0.2" />
<text x="93.41360183570427" y="109.40400333761669" font-size="3" text-anchor="middle" dominant-baseline="central" fill="#000">56</text>
<line x1="97.95014918111953" y1="99.69556907392024" x2="117.11116877479557" y2="122.30197765172242" stroke="#000" stroke-width="0.3" stroke-dasharray="2 1.5" />
<line x1="118.02953157316972" y1="47.99821247351243" x2="101.92990623940402" y2="93.7971264477712" stroke="#000" stroke-width="0.3" stroke-dasharray="2 1.5" />
<line x1="101.92990623940402" y1="93.7971264477712" x2="82.77249092400999" y2="64.65236391158172" stroke="#000" stroke-width="0.3" stroke-dasharray="2 1.5" />
<line x1="82.77249092400999" y1="64.65236391158172" x2="118.02953157316972" y2="47.99821247351243" stroke="#000" stroke-width="0.3" stroke-dasharray="2 1.5" />
<line x1="101.92990623940402" y1="93.7971264477712" x2="118.02953157316972" y2="47.99821247351243" stroke="#000" stroke-width="0.3" stroke-dasharray="2 1.5" />
<line x1="118.02953157316972" y1="47.99821247351243" x2="128.37268569802248" y2="81.30651335492801" stroke="#000" stroke-width="0.3" stroke-dasharray="2 1.5" />
<line x1="128.37268569802248" y1="81.30651335492801" x2="101.92990623940402" y2="93.7971264477712" stroke="#000" stroke-width="0.3" stroke-dasharray="2 1.5" />
<line x1="124.3640039738865" y1="47.37786890835158" x2="152.9837288294724" y2="72.34600276278279" stroke="#000" stroke-width="0.3" stroke-dasharray="2 1.5" />
<line x1="152.9837288294724" y1="72.34600276278279" x2="132.05197620326092" y2="75.21611820888052" stroke="#000" stroke-width="0.3" />
<polygon points="152.9837288294724,72.34600276278279 132.05197620326092,75.21611820888052 138.43296053825287,82.87129039784067 148.8988368513586,81.4362326747918" fill="none" stroke="#666" stroke-width="0.2" />
<text x="142.27332849168616" y="71.99774671608893" font-size="3" text-anchor="middle" dominant-baseline="central" fill="#000">58</text>
<line x1="132.05197620326092" y1="75.21611820888052" x2="124.3640039738865" y2="47.37786890835158" stroke="#000" stroke-width="0.3" stroke-dasharray="2 1.5" />
<line x1="152.9837288294724" y1="72.34600276278279" x2="124.3640039738865" y2="47.37786890835158" stroke="#000" stroke-width="0.3" stroke-dasharray="2 1.5" />
<line x1="124.3640039738865" y1="47.37786890835158" x2="149.09517374304892" y2="43.98678722959238" stroke="#000" stroke-width="0.3" stroke-dasharray="2 1.5" />
<line x1="149.09517374304892" y1="43.98678722959238" x2="152.9837288294724" y2="72.34600276278279" stroke="#000" stroke-width="0.3" stroke-dasharray="2 1.5" />
<line x1="147.15089949104993" y1="29.80717404143735" x2="124.3640039738865" y2="47.37786890835158" stroke="#000" stroke-width="0.3" stroke-dasharray="2 1.5" />
<line x1="124.3640039738865" y1="47.37786890835158" x2="124.31943865061577" y2="32.93777214525274" stroke="#000" stroke-width="0.3" stroke-dasharray="2 1.5" />
<line x1="124.31943865061577" y1="32.93777214525274" x2="147.15089949104993" y2="29.80717404143735" stroke="#000" stroke-width="0.3" />
<text x="135.73516907083285" y="31.372473093345043" font-size="3" text-anchor="middle" dominant-baseline="central" fill="#000">46</text>
<line x1="124.3640039738865" y1="47.37786890835158" x2="147.15089949104993" y2="29.80717404143735" stroke="#000" stroke-width="0.3" stroke-dasharray="2 1.5" />
<line x1="147.15089949104993" y1="29.80717404143735" x2="149.09517374304892" y2="43.98678722959238" stroke="#000" stroke-width="0.3" stroke-dasharray="2 1.5" />
<line x1="149.09517374304892" y1="43.98678722959238" x2="124.3640039738865" y2="47.37786890835158" stroke="#000" stroke-width="0.3" stroke-dasharray="2 1.5" />
<line x1="78.26999056475476" y1="69.1510145147277" x2="79.37716325205082" y2="107.11508341708246" stroke="#000" stroke-width="0.3" stroke-dasharray="2 1.5" />
<line x1="79.37716325205082" y1="107.11508341708246" x2="59.94270260417245" y2="86.09919167668362" stroke="#000" stroke-width="0.3" stroke-dasharray="2 1.5" />
<line x1="59.94270260417245" y1="86.09919167668362" x2="78.26999056475476" y2="69.1510145147277" stroke="#000" stroke-width="0.3" stroke-dasharray="2 1.5" />
<line x1="79.37716325205082" y1="107.11508341708246" x2="78.26999056475476" y2="69.1510145147277" stroke="#000" stroke-width="0.3" stroke-dasharray="2 1.5" />
<line x1="78.26999056475476" y1="69.1510145147277" x2="94.88885494643435" y2="92.77063321997724" stroke="#000" stroke-width="0.3" stroke-dasharray="2 1.5" />
<line x1="94.88885494643435" y1="92.77063321997724" x2="79.37716325205082" y2="107.11508341708246" stroke="#000" stroke-width="0.3" />
<text x="87.13300909924259" y="99.94285831852986" font-size="3" text-anchor="middle" dominant-baseline="central" fill="#000">56</text>
<line x1="86.51164584620437" y1="182.61933274305827" x2="93.28954932948716" y2="163.63292986510547" stroke="#000" stroke-width="0.3" stroke-dasharray="2 1.5" />
<line x1="93.28954932948716" y1="163.63292986510547" x2="94.85148070840683" y2="181.2091180444783" stroke="#000" stroke-width="0.3" stroke-dasharray="2 1.5" />
<line x1="94.85148070840683" y1="181.2091180444783" x2="86.51164584620437" y2="182.61933274305827" stroke="#000" stroke-width="0.3" />
<text x="90.6815632773056" y="181.91422539376828" font-size="3" text-anchor="middle" dominant-baseline="central" fill="#000">39</text>
<line x1="93.28954932948716" y1="163.63292986510547" x2="86.51164584620439" y2="182.61933274305827" stroke="#000" stroke-width="0.3" stroke-dasharray="2 1.5" />
<line x1="86.51164584620439" y1="182.61933274305827" x2="78.67751290651148" y2="159.10749713619327" stroke="#000" stroke-width="0.3" stroke-dasharray="2 1.5" />
<line x1="78.67751290651148" y1="159.10749713619327" x2="93.28954932948716" y2="163.63292986510547" stroke="#000" stroke-width="0.3" stroke-dasharray="2 1.5" />
<line x1="128.37268569802248" y1="81.30651335492801" x2="140.7470435628122" y2="111.13724485387048" stroke="#000" stroke-width="0.3" stroke-dasharray="2 1.5" />
<line x1="140.7470435628122" y1="111.13724485387048" x2="135.09696032108525" y2="118.36531521217128" stroke="#000" stroke-width="0.3" />
<text x="137.92200194194874" y="114.75128003302089" font-size="3" text-anchor="middle" dominant-baseline="central" fill="#000">76</text>
<line x1="135.09696032108525" y1="118.36531521217128" x2="128.37268569802248" y2="81.30651335492801" stroke="#000" stroke-width="0.3" stroke-dasharray="2 1.5" />
<line x1="128.37268569802248" y1="81.30651335492801" x2="135.4563174279611" y2="81.97901106610877" stroke="#000" stroke-width="0.3" />
<polygon points="128.37268569802248,81.30651335492801 135.4563174279611,81.97901106610877 133.95440857994873,78.97743394633814 130.41259271497944,78.64118509074775" fill="none" stroke="#666" stroke-width="0.2" />
<text x="131.74438015875023" y="83.43470492941843" font-size="3" text-anchor="middle" dominant-baseline="central" fill="#000">77</text>
<line x1="135.4563174279611" y1="81.97901106610877" x2="140.7470435628122" y2="111.13724485387048" stroke="#000" stroke-width="0.3" />
<text x="138.10168049538663" y="96.55812795998963" font-size="3" text-anchor="middle" dominant-baseline="central" fill="#000">64</text>
<line x1="140.7470435628122" y1="111.13724485387048" x2="128.37268569802248" y2="81.30651335492801" stroke="#000" stroke-width="0.3" stroke-dasharray="2 1.5" />
<line x1="118.02953157316972" y1="47.99821247351243" x2="132.05197620326092" y2="75.21611820888052" stroke="#000" stroke-width="0.3" stroke-dasharray="2 1.5" />
<line x1="132.05197620326092" y1="75.21611820888052" x2="128.37268569802248" y2="81.30651335492801" stroke="#000" stroke-width="0.3" />
<text x="130.2123309506417" y="78.26131578190427" font-size="3" text-anchor="middle" dominant-baseline="central" fill="#000">77</text>
<line x1="128.37268569802248" y1="81.30651335492801" x2="118.02953157316972" y2="47.99821247351243" stroke="#000" stroke-width="0.3" stroke-dasharray="2 1.5" />
<line x1="118.02953157316972" y1="47.99821247351243" x2="124.3640039738865" y2="47.37786890835158" stroke="#000" stroke-width="0.3" />
<polygon points="118.02953157316972,47.99821247351243 124.3640039738865,47.37786890835158 122.53224844764297,44.99916583935508 119.36501224728458,45.309337621935505" fill="none" stroke="#666" stroke-width="0.2" />
<text x="121.37220497838021" y="49.47947078645728" font-size="3" text-anchor="middle" dominant-baseline="central" fill="#000">78</text>
<line x1="124.3640039738865" y1="47.37786890835158" x2="132.05197620326092" y2="75.21611820888052" stroke="#000" stroke-width="0.3" stroke-dasharray="2 1.5" />
<line x1="132.05197620326092" y1="75.21611820888052" x2="118.02953157316972" y2="47.99821247351243" stroke="#000" stroke-width="0.3" stroke-dasharray="2 1.5" />
<line x1="108.45082344435518" y1="33.42583020805618" x2="118.36039310413165" y2="41.642042448913614" stroke="#000" stroke-width="0.3" />
<polygon points="108.45082344435518,33.42583020805618 118.36039310413165,41.642042448913614 119.16948558553051,35.62416152478866 114.21470075564227,31.516055404359953" fill="none" stroke="#666" stroke-width="0.2" />
<text x="112.25672630984721" y="38.91960231705687" font-size="3" text-anchor="middle" dominant-baseline="central" fill="#000">79</text>
<line x1="118.36039310413165" y1="41.642042448913614" x2="118.02953157316972" y2="47.99821247351243" stroke="#000" stroke-width="0.3" />
<text x="118.19496233865068" y="44.82012746121302" font-size="3" text-anchor="middle" dominant-baseline="central" fill="#000">78</text>
<line x1="118.02953157316972" y1="47.99821247351243" x2="108.45082344435518" y2="33.42583020805618" stroke="#000" stroke-width="0.3" stroke-dasharray="2 1.5" />
<line x1="124.3640039738865" y1="47.37786890835157" x2="120.94912362456672" y2="34.96641022580313" stroke="#000" stroke-width="0.3" />
<text x="122.6565637992266" y="41.17213956707735" font-size="3" text-anchor="middle" dominant-baseline="central" fill="#000">79</text>
<line x1="120.94912362456672" y1="34.96641022580313" x2="124.31943865061577" y2="32.93777214525274" stroke="#000" stroke-width="0.3" />
<text x="122.63428113759124" y="33.952091185527934" font-size="3" text-anchor="middle" dominant-baseline="central" fill="#000">47</text>
<line x1="124.31943865061577" y1="32.93777214525274" x2="124.3640039738865" y2="47.37786890835157" stroke="#000" stroke-width="0.3" stroke-dasharray="2 1.5" />
<line x1="70.85251222358843" y1="58.63023842704739" x2="78.26999056475476" y2="69.1510145147277" stroke="#000" stroke-width="0.3" />
<polygon points="70.85251222358843,58.63023842704739 78.26999056475476,69.1510145147277 80.6239314145353,63.553829156341095 76.91519224395215,58.293441112500936" fill="none" stroke="#666" stroke-width="0.2" />
<text x="73.09011974077053" y="64.92782059850371" font-size="3" text-anchor="middle" dominant-baseline="central" fill="#000">80</text>
<line x1="78.26999056475476" y1="69.1510145147277" x2="67.14495524861636" y2="59.94493121017474" stroke="#000" stroke-width="0.3" stroke-dasharray="2 1.5" />
<line x1="67.14495524861636" y1="59.94493121017474" x2="70.85251222358843" y2="58.63023842704739" stroke="#000" stroke-width="0.3" />
<text x="68.9987337361024" y="59.287584818611066" font-size="3" text-anchor="middle" dominant-baseline="central" fill="#000">48</text>
<line x1="77.65292119314901" y1="60.87078057848814" x2="77.60091339046609" y2="47.998212473512424" stroke="#000" stroke-width="0.3" />
<text x="77.62691729180756" y="54.43449652600028" font-size="3" text-anchor="middle" dominant-baseline="central" fill="#000">80</text>
<line x1="77.60091339046609" y1="47.998212473512424" x2="82.77249092400999" y2="64.65236391158172" stroke="#000" stroke-width="0.3" stroke-dasharray="2 1.5" />
<line x1="82.77249092400999" y1="64.65236391158172" x2="77.65292119314901" y2="60.87078057848814" stroke="#000" stroke-width="0.3" />
<polygon points="82.77249092400999,64.65236391158172 77.65292119314901,60.87078057848814 77.42018029262681,63.86400430410592 79.9799651580573,65.75479597065271" fill="none" stroke="#666" stroke-width="0.2" />
<text x="81.28216248100769" y="61.31372454568009" font-size="3" text-anchor="middle" dominant-baseline="central" fill="#000">81</text>
<line x1="78.26999056475476" y1="69.1510145147277" x2="82.77249092400999" y2="64.65236391158172" stroke="#000" stroke-width="0.3" />
<text x="80.52124074438237" y="66.90168921315471" font-size="3" text-anchor="middle" dominant-baseline="central" fill="#000">81</text>
<line x1="82.77249092400999" y1="64.65236391158172" x2="94.88885494643435" y2="92.77063321997724" stroke="#000" stroke-width="0.3" stroke-dasharray="2 1.5" />
<line x1="94.88885494643435" y1="92.77063321997724" x2="78.26999056475476" y2="69.1510145147277" stroke="#000" stroke-width="0.3" stroke-dasharray="2 1.5" />
<line x1="94.88885494643435" y1="92.77063321997724" x2="82.77249092400999" y2="64.65236391158172" stroke="#000" stroke-width="0.3" stroke-dasharray="2 1.5" />
<line x1="82.77249092400999" y1="64.65236391158172" x2="101.92990623940402" y2="93.79712644777122" stroke="#000" stroke-width="0.3" stroke-dasharray="2 1.5" />
<line x1="101.92990623940402" y1="93.79712644777122" x2="94.88885494643435" y2="92.77063321997724" stroke="#000" stroke-width="0.3" />
<polygon points="101.92990623940402,93.79712644777122 94.88885494643435,92.77063321997724 96.23852047855918,95.8436770441136 99.759046125044,96.3569236580106" fill="none" stroke="#666" stroke-width="0.2" />
<text x="98.66905206310183" y="91.50270866647533" font-size="3" text-anchor="middle" dominant-baseline="central" fill="#000">82</text>
<line x1="97.95014918111953" y1="99.69556907392024" x2="101.92990623940402" y2="93.7971264477712" stroke="#000" stroke-width="0.3" />
<text x="99.94002771026177" y="96.74634776084572" font-size="3" text-anchor="middle" dominant-baseline="central" fill="#000">82</text>
<line x1="101.92990623940402" y1="93.7971264477712" x2="117.11116877479557" y2="122.30197765172242" stroke="#000" stroke-width="0.3" stroke-dasharray="2 1.5" />
<line x1="117.11116877479557" y1="122.30197765172242" x2="97.95014918111953" y2="99.69556907392024" stroke="#000" stroke-width="0.3" stroke-dasharray="2 1.5" />
<line x1="126.28269913054397" y1="122.52885355739737" x2="117.11116877479556" y2="122.30197765172242" stroke="#000" stroke-width="0.3" />
<polygon points="126.28269913054397,122.52885355739737 117.11116877479556,122.30197765172242 119.31330100146268,126.02730877044051 123.89906617933688,126.14074672327801" fill="none" stroke="#666" stroke-width="0.2" />
<text x="121.74144688837559" y="120.61596607802272" font-size="3" text-anchor="middle" dominant-baseline="central" fill="#000">83</text>
<line x1="117.11116877479556" y1="122.30197765172242" x2="101.92990623940402" y2="93.7971264477712" stroke="#000" stroke-width="0.3" stroke-dasharray="2 1.5" />
<line x1="101.92990623940402" y1="93.7971264477712" x2="126.28269913054397" y2="122.52885355739737" stroke="#000" stroke-width="0.3" stroke-dasharray="2 1.5" />
<line x1="177.98305493899062" y1="10" x2="187.72620493928554" y2="10" stroke="#000" stroke-width="0.3" />
<text x="182.85462993913808" y="10" font-size="3" text-anchor="middle" dominant-baseline="central" fill="#000">70</text>
<line x1="187.72620493928554" y1="10" x2="168.7192557741174" y2="21.774962494398096" stroke="#000" stroke-width="0.3" />
<polygon points="187.72620493928554,10 168.7192557741174,21.774962494398096 178.18097806316868,26.434001536865818 187.68445264575274,20.546520289666773" fill="none" stroke="#666" stroke-width="0.2" />
<text x="177.27478249883583" y="14.357319537193233" font-size="3" text-anchor="middle" dominant-baseline="central" fill="#000">71</text>
<line x1="168.7192557741174" y1="21.774962494398096" x2="177.98305493899062" y2="10" stroke="#000" stroke-width="0.3" />
<text x="173.35115535655402" y="15.887481247199048" font-size="3" text-anchor="middle" dominant-baseline="central" fill="#000">62</text>
</svg>