<svg xmlns="http://www.w3.org/2000/svg" width="215.9mm" height="279.4mm" viewBox="0 0 215.9 279.4">
<rect x="0" y="0" width="215.9" height="279.4" fill="none" stroke="#ccc" stroke-width="0.15" />
<line x1="139.2319007118382" y1="57.879333908678035" x2="137.47935270930958" y2="53.33124216920688" stroke="#000" stroke-width="0.3" />
<polygon points="139.2319007118382,57.879333908678035 137.47935270930958,53.33124216920688 136.09825301415327,55.16928430508611 136.97452701541755,57.44333017482167" fill="none" stroke="#666" stroke-width="0.2" />
<text x="140.03524237823393" y="54.95806998530761" font-size="3" text-anchor="middle" dominant-baseline="central" fill="#000">1</text>
<line x1="137.47935270930958" y1="53.33124216920688" x2="154.46828061532597" y2="49.3964864065559" stroke="#000" stroke-width="0.3" stroke-dasharray="2 1.5" />
<line x1="154.46828061532597" y1="49.3964864065559" x2="139.2319007118382" y2="57.879333908678035" stroke="#000" stroke-width="0.3" stroke-dasharray="2 1.5" />
<line x1="144.23149691675542" y1="191.0116640265627" x2="179.08162229966445" y2="192.38743794832664" stroke="#000" stroke-width="0.3" stroke-dasharray="2 1.5" />
<line x1="179.08162229966445" y1="192.38743794832664" x2="145.2119782797817" y2="200.7103705477442" stroke="#000" stroke-width="0.3" stroke-dasharray="2 1.5" />
<line x1="145.2119782797817" y1="200.7103705477442" x2="144.23149691675542" y2="191.0116640265627" stroke="#000" stroke-width="0.3" />
<polygon points="145.2119782797817,200.7103705477442 144.23149691675542,191.0116640265627 140.59713464903942,193.82853320206857 141.08737533055253,198.67788646265933" fill="none" stroke="#666" stroke-width="0.2" />
<text x="146.51260950259248" y="195.67997082266646" font-size="3" text-anchor="middle" dominant-baseline="central" fill="#000">2</text>
<line x1="157.0678834654699" y1="67.2422111755213" x2="145.73545556106384" y2="80.10440004242558" stroke="#000" stroke-width="0.3" stroke-dasharray="2 1.5" />
<line x1="145.73545556106384" y1="80.10440004242558" x2="145.3331912743158" y2="75.43602785101224" stroke="#000" stroke-width="0.3" />
<polygon points="145.73545556106384,80.10440004242558 145.3331912743158,75.43602785101224 143.56640846943748,76.7640266135648 143.76754061281153,79.09821270927146" fill="none" stroke="#666" stroke-width="0.2" />
<text x="147.32767796980784" y="77.61568417483802" font-size="3" text-anchor="middle" dominant-baseline="central" fill="#000">3</text>
<line x1="145.3331912743158" y1="75.43602785101224" x2="157.0678834654699" y2="67.2422111755213" stroke="#000" stroke-width="0.3" stroke-dasharray="2 1.5" />
<line x1="145.73545556106384" y1="80.10440004242558" x2="157.0678834654699" y2="67.2422111755213" stroke="#000" stroke-width="0.3" stroke-dasharray="2 1.5" />
<line x1="157.0678834654699" y1="67.2422111755213" x2="154.48716914355336" y2="73.38682821688658" stroke="#000" stroke-width="0.3" />
<polygon points="157.0678834654699,67.2422111755213 154.48716914355336,73.38682821688658 157.59019454057864,72.88295968531187 158.88055170153686,69.81065116462925" fill="none" stroke="#666" stroke-width="0.2" />
<text x="154.1179561196393" y="69.61750692624716" font-size="3" text-anchor="middle" dominant-baseline="central" fill="#000">4</text>
<line x1="154.48716914355336" y1="73.38682821688658" x2="145.73545556106384" y2="80.10440004242558" stroke="#000" stroke-width="0.3" />
<polygon points="154.48716914355336,73.38682821688658 145.73545556106384,80.10440004242558 150.61041268690184,81.92569251903663 154.9862694781466,78.56690660626714" fill="none" stroke="#666" stroke-width="0.2" />
<text x="149.01532144077245" y="75.31774721644948" font-size="3" text-anchor="middle" dominant-baseline="central" fill="#000">5</text>
<line x1="177.95171234701402" y1="166.34835848038477" x2="177.279857961235" y2="172.97897056982956" stroke="#000" stroke-width="0.3" />
<text x="177.61578515412452" y="169.66366452510715" font-size="3" text-anchor="middle" dominant-baseline="central" fill="#000">4</text>
<line x1="177.279857961235" y1="172.97897056982956" x2="156.267503534963" y2="162.2657221157979" stroke="#000" stroke-width="0.3" stroke-dasharray="2 1.5" />
<line x1="156.267503534963" y1="162.2657221157979" x2="177.95171234701402" y2="166.34835848038477" stroke="#000" stroke-width="0.3" stroke-dasharray="2 1.5" />
<line x1="156.267503534963" y1="162.2657221157979" x2="177.279857961235" y2="172.97897056982956" stroke="#000" stroke-width="0.3" stroke-dasharray="2 1.5" />
<line x1="177.279857961235" y1="172.97897056982956" x2="148.93936006054304" y2="168.95625986183103" stroke="#000" stroke-width="0.3" stroke-dasharray="2 1.5" />
<line x1="148.93936006054304" y1="168.95625986183103" x2="156.267503534963" y2="162.2657221157979" stroke="#000" stroke-width="0.3" />
<polygon points="148.93936006054304,168.95625986183103 156.267503534963,162.2657221157979 151.75925256794474,161.00709916253817 148.09518083073473,164.35236803555478" fill="none" stroke="#666" stroke-width="0.2" />
<text x="153.8170794696509" y="166.94029882693806" font-size="3" text-anchor="middle" dominant-baseline="central" fill="#000">6</text>
<line x1="120.59885838174975" y1="164.9335544521607" x2="146.8092560487199" y2="159.26463259848697" stroke="#000" stroke-width="0.3" stroke-dasharray="2 1.5" />
<line x1="146.8092560487199" y1="159.26463259848697" x2="148.93936006054304" y2="168.95625986183103" stroke="#000" stroke-width="0.3" />
<text x="147.87430805463146" y="164.110446230159" font-size="3" text-anchor="middle" dominant-baseline="central" fill="#000">6</text>
<line x1="148.93936006054304" y1="168.95625986183103" x2="120.59885838174975" y2="164.9335544521607" stroke="#000" stroke-width="0.3" stroke-dasharray="2 1.5" />
<line x1="120.59885838174975" y1="164.9335544521607" x2="123.27936180256332" y2="155.92475407599977" stroke="#000" stroke-width="0.3" />
<polygon points="120.59885838174975,164.9335544521607 123.27936180256332,155.92475407599977 119.00571579689556,157.10475280171457 117.66546408648878,161.60915298979504" fill="none" stroke="#666" stroke-width="0.2" />
<text x="123.66435980811083" y="160.94248984398837" font-size="3" text-anchor="middle" dominant-baseline="central" fill="#000">7</text>
<line x1="123.27936180256332" y1="155.92475407599977" x2="146.8092560487199" y2="159.26463259848697" stroke="#000" stroke-width="0.3" stroke-dasharray="2 1.5" />
<line x1="146.8092560487199" y1="159.26463259848697" x2="120.59885838174975" y2="164.9335544521607" stroke="#000" stroke-width="0.3" stroke-dasharray="2 1.5" />
<line x1="101.4017568548601" y1="153.11158114533964" x2="102.56110419384764" y2="148.3335506056617" stroke="#000" stroke-width="0.3" />
<polygon points="101.4017568548601,153.11158114533964 102.56110419384764,148.3335506056617 100.36005514322959,149.06431930498616 99.7803814737358,151.45333457482513" fill="none" stroke="#666" stroke-width="0.2" />
<text x="103.73067375881008" y="151.14700445375334" font-size="3" text-anchor="middle" dominant-baseline="central" fill="#000">9</text>
<line x1="102.56110419384764" y1="148.3335506056617" x2="123.27936180256332" y2="155.92475407599977" stroke="#000" stroke-width="0.3" stroke-dasharray="2 1.5" />
<line x1="123.27936180256332" y1="155.92475407599977" x2="101.4017568548601" y2="153.11158114533964" stroke="#000" stroke-width="0.3" />
<text x="112.3405593287117" y="154.5181676106697" font-size="3" text-anchor="middle" dominant-baseline="central" fill="#000">8</text>
<line x1="188.38265513019152" y1="225.39399913285607" x2="162.75774549730363" y2="226.46577162012383" stroke="#000" stroke-width="0.3" stroke-dasharray="2 1.5" />
<line x1="162.75774549730363" y1="226.46577162012383" x2="183.18610336919758" y2="218.12580602379748" stroke="#000" stroke-width="0.3" stroke-dasharray="2 1.5" />
<line x1="183.18610336919758" y1="218.12580602379748" x2="188.38265513019152" y2="225.39399913285607" stroke="#000" stroke-width="0.3" />
<polygon points="183.18610336919758,218.12580602379748 188.38265513019152,225.39399913285607 189.99079443356646,221.49833015119384 187.3925185530695,217.86423359666452" fill="none" stroke="#666" stroke-width="0.2" />
<text x="184.32013417148804" y="222.8067962457773" font-size="3" text-anchor="middle" dominant-baseline="central" fill="#000">14</text>
<line x1="162.75774549730363" y1="226.46577162012383" x2="188.38265513019152" y2="225.39399913285607" stroke="#000" stroke-width="0.3" stroke-dasharray="2 1.5" />
<line x1="188.38265513019152" y1="225.39399913285607" x2="170.91875236571505" y2="237.88020522025633" stroke="#000" stroke-width="0.3" stroke-dasharray="2 1.5" />
<line x1="170.91875236571505" y1="237.88020522025633" x2="162.75774549730363" y2="226.46577162012383" stroke="#000" stroke-width="0.3" />
<polygon points="170.91875236571505,237.88020522025633 162.75774549730363,226.46577162012383 160.23222377435349,232.58378276752154 164.31272720855918,238.2909995675878" fill="none" stroke="#666" stroke-width="0.2" />
<text x="168.3024933512208" y="231.1260938317315" font-size="3" text-anchor="middle" dominant-baseline="central" fill="#000">15</text>
<line x1="198.15532541130565" y1="229.83454394337483" x2="192.07881477112025" y2="217.25955476436812" stroke="#000" stroke-width="0.3" stroke-dasharray="2 1.5" />
<line x1="192.07881477112025" y1="217.25955476436812" x2="202.90574514713703" y2="219.3798944763227" stroke="#000" stroke-width="0.3" />
<polygon points="192.07881477112025,217.25955476436812 202.90574514713703,219.3798944763227 201.04714843791467,214.51903739792735 195.6336832499063,213.45886754195004" fill="none" stroke="#666" stroke-width="0.2" />
<text x="197.14634051642162" y="220.08616904403374" font-size="3" text-anchor="middle" dominant-baseline="central" fill="#000">16</text>
<line x1="202.90574514713703" y1="219.3798944763227" x2="198.15532541130565" y2="229.83454394337483" stroke="#000" stroke-width="0.3" />
<polygon points="202.90574514713703,219.3798944763227 198.15532541130565,229.83454394337483 203.52479013208435,229.12104947094434 205.9,223.8937247374183" fill="none" stroke="#666" stroke-width="0.2" />
<text x="198.89177562502385" y="223.86259393779946" font-size="3" text-anchor="middle" dominant-baseline="central" fill="#000">17</text>
<line x1="192.07881477112025" y1="217.25955476436812" x2="198.15532541130565" y2="229.83454394337483" stroke="#000" stroke-width="0.3" stroke-dasharray="2 1.5" />
<line x1="198.15532541130565" y1="229.83454394337483" x2="188.38265513019152" y2="225.39399913285604" stroke="#000" stroke-width="0.3" stroke-dasharray="2 1.5" />
<line x1="188.38265513019152" y1="225.39399913285604" x2="192.07881477112025" y2="217.25955476436812" stroke="#000" stroke-width="0.3" />
<text x="190.2307349506559" y="221.32677694861206" font-size="3" text-anchor="middle" dominant-baseline="central" fill="#000">14</text>
<line x1="181.20077476042536" y1="211.76381928131113" x2="162.75774549730363" y2="226.46577162012383" stroke="#000" stroke-width="0.3" stroke-dasharray="2 1.5" />
<line x1="162.75774549730363" y1="226.46577162012383" x2="154.23881230840178" y2="221.37727877490875" stroke="#000" stroke-width="0.3" />
<text x="158.4982789028527" y="223.9215251975163" font-size="3" text-anchor="middle" dominant-baseline="central" fill="#000">23</text>
<line x1="154.23881230840178" y1="221.37727877490875" x2="181.20077476042536" y2="211.76381928131113" stroke="#000" stroke-width="0.3" stroke-dasharray="2 1.5" />
<line x1="181.20077476042536" y1="211.76381928131113" x2="183.18610336919758" y2="218.12580602379748" stroke="#000" stroke-width="0.3" />
<polygon points="181.20077476042536,211.76381928131113 183.18610336919758,218.12580602379748 185.23456591399906,215.741177894667 184.241901609613,212.56018452342386" fill="none" stroke="#666" stroke-width="0.2" />
<text x="180.47516053853286" y="215.48102054705967" font-size="3" text-anchor="middle" dominant-baseline="central" fill="#000">24</text>
<line x1="183.18610336919758" y1="218.12580602379748" x2="162.75774549730363" y2="226.46577162012383" stroke="#000" stroke-width="0.3" stroke-dasharray="2 1.5" />
<line x1="162.75774549730363" y1="226.46577162012383" x2="181.20077476042536" y2="211.76381928131113" stroke="#000" stroke-width="0.3" stroke-dasharray="2 1.5" />
<line x1="144.4205759751039" y1="34.4207907976448" x2="127.38744266090042" y2="32.488902043847716" stroke="#000" stroke-width="0.3" stroke-dasharray="2 1.5" />
<line x1="127.38744266090042" y1="32.488902043847716" x2="138.38391294872176" y2="31.596768045914157" stroke="#000" stroke-width="0.3" />
<text x="132.88567780481108" y="32.04283504488094" font-size="3" text-anchor="middle" dominant-baseline="central" fill="#000">16</text>
<line x1="138.38391294872176" y1="31.596768045914157" x2="144.4205759751039" y2="34.4207907976448" stroke="#000" stroke-width="0.3" />
<text x="141.40224446191283" y="33.00877942177948" font-size="3" text-anchor="middle" dominant-baseline="central" fill="#000">24</text>
<line x1="127.38744266090042" y1="32.488902043847716" x2="144.4205759751039" y2="34.4207907976448" stroke="#000" stroke-width="0.3" stroke-dasharray="2 1.5" />
<line x1="144.4205759751039" y1="34.4207907976448" x2="130.22183746864778" y2="36.22008436956825" stroke="#000" stroke-width="0.3" stroke-dasharray="2 1.5" />
<line x1="130.22183746864778" y1="36.22008436956825" x2="127.38744266090042" y2="32.488902043847716" stroke="#000" stroke-width="0.3" />
<polygon points="130.22183746864778,36.22008436956825 127.38744266090042,32.488902043847716 126.60356843254905,34.555455548376784 128.02076583642273,36.421046711237054" fill="none" stroke="#666" stroke-width="0.2" />
<text x="130.23797325549972" y="33.26566082090918" font-size="3" text-anchor="middle" dominant-baseline="central" fill="#000">25</text>
<line x1="129.15574880156998" y1="25.89894688105325" x2="123.43131878429982" y2="24.019285415459777" stroke="#000" stroke-width="0.3" stroke-dasharray="2 1.5" />
<line x1="123.43131878429982" y1="24.019285415459777" x2="127.97307689012035" y2="20.085464118955443" stroke="#000" stroke-width="0.3" />
<polygon points="123.43131878429982,24.019285415459777 127.97307689012035,20.085464118955443 125.26410884506349,19.25221620075331 122.99322979215322,21.21912684900547" fill="none" stroke="#666" stroke-width="0.2" />
<text x="126.88066746349423" y="23.41296630765086" font-size="3" text-anchor="middle" dominant-baseline="central" fill="#000">26</text>
<line x1="127.97307689012035" y1="20.085464118955443" x2="129.15574880156998" y2="25.89894688105325" stroke="#000" stroke-width="0.3" />
<polygon points="127.97307689012035,20.085464118955443 129.15574880156998,25.89894688105325 131.18547392854668,23.972507425948933 130.5941379728219,21.06576604490003" fill="none" stroke="#666" stroke-width="0.2" />
<text x="126.80054277473727" y="23.35104024226017" font-size="3" text-anchor="middle" dominant-baseline="central" fill="#000">27</text>
<line x1="193.3100020314256" y1="233.25772024904884" x2="188.38265513019152" y2="225.39399913285604" stroke="#000" stroke-width="0.3" stroke-dasharray="2 1.5" />
<line x1="188.38265513019152" y1="225.39399913285604" x2="198.15532541130565" y2="229.83454394337483" stroke="#000" stroke-width="0.3" stroke-dasharray="2 1.5" />
<line x1="198.15532541130565" y1="229.83454394337483" x2="193.3100020314256" y2="233.25772024904884" stroke="#000" stroke-width="0.3" />
<text x="195.7326637213656" y="231.54613209621184" font-size="3" text-anchor="middle" dominant-baseline="central" fill="#000">27</text>
<line x1="193.3100020314256" y1="233.25772024904884" x2="170.91875236571505" y2="237.88020522025633" stroke="#000" stroke-width="0.3" stroke-dasharray="2 1.5" />
<line x1="170.91875236571505" y1="237.88020522025633" x2="188.38265513019152" y2="225.39399913285607" stroke="#000" stroke-width="0.3" stroke-dasharray="2 1.5" />
<line x1="188.38265513019152" y1="225.39399913285607" x2="193.3100020314256" y2="233.25772024904884" stroke="#000" stroke-width="0.3" stroke-dasharray="2 1.5" />
<line x1="182.78926616467047" y1="240.66415782709626" x2="170.91875236571505" y2="237.88020522025633" stroke="#000" stroke-width="0.3" />
<polygon points="182.78926616467047,240.66415782709626 170.91875236571505,237.88020522025633 172.77279977271795,243.3243988915485 178.70805667219562,244.71637519496846" fill="none" stroke="#666" stroke-width="0.2" />
<text x="177.26500567064133" y="237.51973125199714" font-size="3" text-anchor="middle" dominant-baseline="central" fill="#000">28</text>
<line x1="170.91875236571505" y1="237.88020522025633" x2="193.3100020314256" y2="233.25772024904884" stroke="#000" stroke-width="0.3" stroke-dasharray="2 1.5" />
<line x1="193.3100020314256" y1="233.25772024904884" x2="182.78926616467047" y2="240.66415782709626" stroke="#000" stroke-width="0.3" />
<text x="188.04963409804805" y="236.96093903807255" font-size="3" text-anchor="middle" dominant-baseline="central" fill="#000">13</text>
<line x1="125.57334128654549" y1="36.80915034120032" x2="123.43131878429982" y2="24.019285415459777" stroke="#000" stroke-width="0.3" stroke-dasharray="2 1.5" />
<line x1="123.43131878429982" y1="24.019285415459777" x2="129.15574880156998" y2="25.89894688105325" stroke="#000" stroke-width="0.3" stroke-dasharray="2 1.5" />
<line x1="129.15574880156998" y1="25.89894688105325" x2="125.57334128654549" y2="36.80915034120032" stroke="#000" stroke-width="0.3" />
<text x="127.36454504405773" y="31.354048611126785" font-size="3" text-anchor="middle" dominant-baseline="central" fill="#000">17</text>
<line x1="101.73856418755882" y1="16.896373979775255" x2="123.43131878429982" y2="24.019285415459777" stroke="#000" stroke-width="0.3" />
<polygon points="101.73856418755882,16.896373979775255 123.43131878429982,24.019285415459777 120.85729470938837,13.561455717842247 110.01091741101789,10" fill="none" stroke="#666" stroke-width="0.2" />
<text x="112.02340056534852" y="22.167996880823083" font-size="3" text-anchor="middle" dominant-baseline="central" fill="#000">41</text>
<line x1="123.43131878429982" y1="24.019285415459777" x2="125.57334128654549" y2="36.80915034120032" stroke="#000" stroke-width="0.3" stroke-dasharray="2 1.5" />
<line x1="125.57334128654549" y1="36.80915034120032" x2="101.73856418755882" y2="16.896373979775255" stroke="#000" stroke-width="0.3" stroke-dasharray="2 1.5" />
<line x1="101.73856418755882" y1="16.896373979775255" x2="125.57334128654549" y2="36.80915034120032" stroke="#000" stroke-width="0.3" stroke-dasharray="2 1.5" />
<line x1="125.57334128654549" y1="36.80915034120032" x2="131.67263338201735" y2="47.668727823075784" stroke="#000" stroke-width="0.3" stroke-dasharray="2 1.5" />
<line x1="131.67263338201735" y1="47.668727823075784" x2="101.73856418755882" y2="16.896373979775255" stroke="#000" stroke-width="0.3" />
<polygon points="131.67263338201735,47.668727823075784 101.73856418755882,16.896373979775255 96.91313994885326,36.5630901183838 111.88017454608251,51.94926704003407" fill="none" stroke="#666" stroke-width="0.2" />
<text x="117.99584375303579" y="31.027454123518925" font-size="3" text-anchor="middle" dominant-baseline="central" fill="#000">42</text>
<line x1="131.67263338201735" y1="47.668727823075784" x2="125.57334128654549" y2="36.80915034120032" stroke="#000" stroke-width="0.3" stroke-dasharray="2 1.5" />
<line x1="125.57334128654549" y1="36.80915034120032" x2="130.22183746864778" y2="36.22008436956825" stroke="#000" stroke-width="0.3" />
<text x="127.89758937759663" y="36.51461735538429" font-size="3" text-anchor="middle" dominant-baseline="central" fill="#000">25</text>
<line x1="130.22183746864778" y1="36.22008436956825" x2="131.67263338201735" y2="47.668727823075784" stroke="#000" stroke-width="0.3" stroke-dasharray="2 1.5" />
<line x1="12.715903698966939" y1="117.95442863380659" x2="55.21678440082024" y2="111.899562891054" stroke="#000" stroke-width="0.3" />
<text x="33.966344049893586" y="114.9269957624303" font-size="3" text-anchor="middle" dominant-baseline="central" fill="#000">42</text>
<line x1="55.21678440082024" y1="111.899562891054" x2="106.99274193320417" y2="116.10909696883671" stroke="#000" stroke-width="0.3" />
<polygon points="55.21678440082024,111.899562891054 106.99274193320417,116.10909696883671 95.73256618122127,94.34633043643746 69.84458741502931,92.2415633975461" fill="none" stroke="#666" stroke-width="0.2" />
<text x="80.95889929387901" y="115.79841012060423" font-size="3" text-anchor="middle" dominant-baseline="central" fill="#000">43</text>
<line x1="106.99274193320417" y1="116.10909696883671" x2="12.715903698966939" y2="117.95442863380659" stroke="#000" stroke-width="0.3" stroke-dasharray="2 1.5" />
<line x1="12.715903698966939" y1="117.95442863380659" x2="106.99274193320416" y2="116.10909696883671" stroke="#000" stroke-width="0.3" stroke-dasharray="2 1.5" />
<line x1="106.99274193320416" y1="116.10909696883671" x2="109.78299452449666" y2="117.95442863380659" stroke="#000" stroke-width="0.3" />
<polygon points="106.99274193320416,116.10909696883671 109.78299452449666,117.95442863380659 109.82356404266149,116.37699468104712 108.42843774701525,115.45432884856218" fill="none" stroke="#666" stroke-width="0.2" />
<text x="107.39494155468888" y="118.53312772023328" font-size="3" text-anchor="middle" dominant-baseline="central" fill="#000">44</text>
<line x1="109.78299452449666" y1="117.95442863380659" x2="12.715903698966939" y2="117.95442863380659" stroke="#000" stroke-width="0.3" stroke-dasharray="2 1.5" />
<line x1="12.715903698966939" y1="117.95442863380659" x2="109.78299452449666" y2="117.95442863380659" stroke="#000" stroke-width="0.3" stroke-dasharray="2 1.5" />
<line x1="109.78299452449666" y1="117.95442863380659" x2="10" y2="119.90753528089277" stroke="#000" stroke-width="0.3" stroke-dasharray="2 1.5" />
<line x1="10" y1="119.90753528089277" x2="12.715903698966939" y2="117.95442863380659" stroke="#000" stroke-width="0.3" />
<text x="11.35795184948347" y="118.93098195734967" font-size="3" text-anchor="middle" dominant-baseline="central" fill="#000">33</text>
<line x1="10" y1="119.90753528089277" x2="109.78299452449664" y2="117.95442863380659" stroke="#000" stroke-width="0.3" stroke-dasharray="2 1.5" />
<line x1="109.78299452449664" y1="117.95442863380659" x2="95.0136016146506" y2="140.2865973445882" stroke="#000" stroke-width="0.3" stroke-dasharray="2 1.5" />
<line x1="95.0136016146506" y1="140.2865973445882" x2="10" y2="119.90753528089277" stroke="#000" stroke-width="0.3" />
<polygon points="95.0136016146506,140.2865973445882 10,119.90753528089277 23.101775578184476,159.00774144267686 65.60857638550976,169.19727247452457" fill="none" stroke="#666" stroke-width="0.2" />
<text x="52.9264009263557" y="128.34665614934744" font-size="3" text-anchor="middle" dominant-baseline="central" fill="#000">45</text>
<line x1="138.7264011930213" y1="65.97417969489078" x2="137.1818718019611" y2="108.87640211466847" stroke="#000" stroke-width="0.3" stroke-dasharray="2 1.5" />
<line x1="137.1818718019611" y1="108.87640211466847" x2="137.94753537135654" y2="56.93524584292437" stroke="#000" stroke-width="0.3" />
<text x="137.56470358665882" y="82.90582397879642" font-size="3" text-anchor="middle" dominant-baseline="central" fill="#000">43</text>
<line x1="137.94753537135654" y1="56.93524584292437" x2="138.7264011930213" y2="65.97417969489078" stroke="#000" stroke-width="0.3" />
<polygon points="137.94753537135654,56.93524584292437 138.7264011930213,65.97417969489078 142.1472582783917,63.402899903233276 141.7578253675593,58.88343297725008" fill="none" stroke="#666" stroke-width="0.2" />
<text x="136.54361371285427" y="61.609242340985055" font-size="3" text-anchor="middle" dominant-baseline="central" fill="#000">49</text>
<line x1="137.47935270930958" y1="53.33124216920688" x2="127.23555453363367" y2="55.582089210097585" stroke="#000" stroke-width="0.3" stroke-dasharray="2 1.5" />
<line x1="127.23555453363367" y1="55.582089210097585" x2="131.67263338201735" y2="47.668727823075784" stroke="#000" stroke-width="0.3" />
<text x="129.4540939578255" y="51.62540851658669" font-size="3" text-anchor="middle" dominant-baseline="central" fill="#000">49</text>
<line x1="131.67263338201735" y1="47.668727823075784" x2="137.47935270930958" y2="53.33124216920688" stroke="#000" stroke-width="0.3" stroke-dasharray="2 1.5" />
<line x1="127.23555453363367" y1="55.582089210097585" x2="137.47935270930958" y2="53.33124216920688" stroke="#000" stroke-width="0.3" stroke-dasharray="2 1.5" />
<line x1="137.47935270930958" y1="53.33124216920688" x2="135.0955769399035" y2="57.58261560058233" stroke="#000" stroke-width="0.3" />
<text x="136.28746482460656" y="55.45692888489461" font-size="3" text-anchor="middle" dominant-baseline="central" fill="#000">1</text>
<line x1="135.0955769399035" y1="57.58261560058233" x2="127.23555453363367" y2="55.582089210097585" stroke="#000" stroke-width="0.3" />
<polygon points="135.0955769399035,57.58261560058233 127.23555453363367,55.582089210097585 128.40034957900724,59.22622977022671 132.33036078214218,60.226492965469085" fill="none" stroke="#666" stroke-width="0.2" />
<text x="131.60954538380173" y="54.8379665325984" font-size="3" text-anchor="middle" dominant-baseline="central" fill="#000">50</text>
<line x1="141.49139495190286" y1="78.11858567723868" x2="137.1818718019611" y2="108.87640211466847" stroke="#000" stroke-width="0.3" stroke-dasharray="2 1.5" />
<line x1="137.1818718019611" y1="108.87640211466847" x2="138.7264011930213" y2="65.97417969489075" stroke="#000" stroke-width="0.3" stroke-dasharray="2 1.5" />
<line x1="138.7264011930213" y1="65.97417969489075" x2="141.49139495190286" y2="78.11858567723868" stroke="#000" stroke-width="0.3" stroke-dasharray="2 1.5" />
<line x1="138.7264011930213" y1="65.97417969489076" x2="145.3331912743158" y2="75.43602785101224" stroke="#000" stroke-width="0.3" stroke-dasharray="2 1.5" />
<line x1="145.3331912743158" y1="75.43602785101224" x2="141.49139495190286" y2="78.11858567723868" stroke="#000" stroke-width="0.3" />
<text x="143.41229311310934" y="76.77730676412546" font-size="3" text-anchor="middle" dominant-baseline="central" fill="#000">3</text>
<line x1="141.49139495190286" y1="78.11858567723868" x2="138.7264011930213" y2="65.97417969489076" stroke="#000" stroke-width="0.3" stroke-dasharray="2 1.5" />
<line x1="148.48569951725406" y1="89.03868681531989" x2="137.1818718019611" y2="108.87640211466847" stroke="#000" stroke-width="0.3" stroke-dasharray="2 1.5" />
<line x1="137.1818718019611" y1="108.87640211466847" x2="141.49139495190286" y2="78.11858567723868" stroke="#000" stroke-width="0.3" stroke-dasharray="2 1.5" />
<line x1="141.49139495190286" y1="78.11858567723868" x2="148.48569951725406" y2="89.03868681531989" stroke="#000" stroke-width="0.3" stroke-dasharray="2 1.5" />
<line x1="141.49139495190286" y1="78.11858567723868" x2="151.4686164148351" y2="83.8037624577015" stroke="#000" stroke-width="0.3" />
<polygon points="141.49139495190286,78.11858567723868 151.4686164148351,83.8037624577015 151.24838176128716,78.3915796774129 146.25977102982102,75.5489912871815" fill="none" stroke="#666" stroke-width="0.2" />
<text x="145.58885783913334" y="82.52509718569368" font-size="3" text-anchor="middle" dominant-baseline="central" fill="#000">51</text>
<line x1="151.4686164148351" y1="83.8037624577015" x2="148.48569951725406" y2="89.03868681531989" stroke="#000" stroke-width="0.3" stroke-dasharray="2 1.5" />
<line x1="148.48569951725406" y1="89.03868681531989" x2="141.49139495190286" y2="78.11858567723868" stroke="#000" stroke-width="0.3" stroke-dasharray="2 1.5" />
<line x1="148.48569951725406" y1="89.0386868153199" x2="162.75561334911765" y2="104.97019465451156" stroke="#000" stroke-width="0.3" />
<polygon points="148.48569951725406,89.0386868153199 162.75561334911765,104.97019465451156 165.5607380268284,95.2793521619682 158.4257811108966,87.3135982423724" fill="none" stroke="#666" stroke-width="0.2" />
<text x="154.27986658856287" y="98.20539143854846" font-size="3" text-anchor="middle" dominant-baseline="central" fill="#000">52</text>
<line x1="162.75561334911765" y1="104.97019465451156" x2="137.1818718019611" y2="108.87640211466847" stroke="#000" stroke-width="0.3" stroke-dasharray="2 1.5" />
<line x1="137.1818718019611" y1="108.87640211466847" x2="148.48569951725406" y2="89.0386868153199" stroke="#000" stroke-width="0.3" stroke-dasharray="2 1.5" />
<line x1="193.52353905697495" y1="134.6451897221067" x2="174.39174006595846" y2="144.2064474932568" stroke="#000" stroke-width="0.3" />
<text x="183.9576395614667" y="139.42581860768175" font-size="3" text-anchor="middle" dominant-baseline="central" fill="#000">52</text>
<line x1="174.39174006595846" y1="144.2064474932568" x2="181.54717540572517" y2="130.4576894109261" stroke="#000" stroke-width="0.3" stroke-dasharray="2 1.5" />
<line x1="181.54717540572517" y1="130.4576894109261" x2="193.52353905697495" y2="134.6451897221067" stroke="#000" stroke-width="0.3" />
<polygon points="181.54717540572517,130.4576894109261 193.52353905697495,134.6451897221067 192.20444826863474,128.80776918381164 186.21626644300986,126.71401902822134" fill="none" stroke="#666" stroke-width="0.2" />
<text x="186.94126074634084" y="134.25057151151057" font-size="3" text-anchor="middle" dominant-baseline="central" fill="#000">53</text>
<line x1="144.4205759751039" y1="34.4207907976448" x2="131.67263338201735" y2="47.668727823075784" stroke="#000" stroke-width="0.3" stroke-dasharray="2 1.5" />
<line x1="131.67263338201735" y1="47.668727823075784" x2="130.22183746864778" y2="36.22008436956825" stroke="#000" stroke-width="0.3" stroke-dasharray="2 1.5" />
<line x1="130.22183746864778" y1="36.22008436956825" x2="144.4205759751039" y2="34.4207907976448" stroke="#000" stroke-width="0.3" stroke-dasharray="2 1.5" />
<line x1="131.67263338201735" y1="47.668727823075784" x2="144.4205759751039" y2="34.4207907976448" stroke="#000" stroke-width="0.3" stroke-dasharray="2 1.5" />
<line x1="144.4205759751039" y1="34.4207907976448" x2="145.63031138086598" y2="43.96716424474699" stroke="#000" stroke-width="0.3" />
<polygon points="144.4205759751039,34.4207907976448 145.63031138086598,43.96716424474699 149.14642690826633,41.09667672066661 148.5415592053853,36.323489997115516" fill="none" stroke="#666" stroke-width="0.2" />
<text x="143.2397245256311" y="39.420267399265306" font-size="3" text-anchor="middle" dominant-baseline="central" fill="#000">54</text>
<line x1="145.63031138086598" y1="43.96716424474699" x2="131.67263338201735" y2="47.668727823075784" stroke="#000" stroke-width="0.3" stroke-dasharray="2 1.5" />
<line x1="169.55384046526902" y1="140.643128234719" x2="170.7337162536324" y2="123.93198110628633" stroke="#000" stroke-width="0.3" stroke-dasharray="2 1.5" />
<line x1="170.7337162536324" y1="123.93198110628633" x2="177.6657110352338" y2="128.77852064590553" stroke="#000" stroke-width="0.3" stroke-dasharray="2 1.5" />
<line x1="177.6657110352338" y1="128.77852064590553" x2="169.55384046526902" y2="140.643128234719" stroke="#000" stroke-width="0.3" stroke-dasharray="2 1.5" />
<line x1="170.7337162536324" y1="123.93198110628633" x2="169.55384046526902" y2="140.643128234719" stroke="#000" stroke-width="0.3" stroke-dasharray="2 1.5" />
<line x1="169.55384046526902" y1="140.643128234719" x2="157.64685572768252" y2="135.7682010317319" stroke="#000" stroke-width="0.3" />
<polygon points="169.55384046526902,140.643128234719 157.64685572768252,135.7682010317319 158.6736310308843,141.7497267275133 164.62712339967754,144.18719032900682" fill="none" stroke="#666" stroke-width="0.2" />
<text x="164.28235314472596" y="136.53987079419218" font-size="3" text-anchor="middle" dominant-baseline="central" fill="#000">57</text>
<line x1="157.64685572768252" y1="135.7682010317319" x2="170.7337162536324" y2="123.93198110628633" stroke="#000" stroke-width="0.3" stroke-dasharray="2 1.5" />
<line x1="157.0678834654699" y1="67.2422111755213" x2="138.7264011930213" y2="65.97417969489075" stroke="#000" stroke-width="0.3" stroke-dasharray="2 1.5" />
<line x1="138.7264011930213" y1="65.97417969489075" x2="151.5588558449441" y2="59.35251406981592" stroke="#000" stroke-width="0.3" stroke-dasharray="2 1.5" />
<line x1="151.5588558449441" y1="59.35251406981592" x2="157.0678834654699" y2="67.2422111755213" stroke="#000" stroke-width="0.3" />
<polygon points="151.5588558449441,59.35251406981592 157.0678834654699,67.2422111755213 158.8465054026206,63.066175850884655 156.09199159235772,59.12132729803194" fill="none" stroke="#666" stroke-width="0.2" />
<text x="152.83754396014103" y="64.32786663420039" font-size="3" text-anchor="middle" dominant-baseline="central" fill="#000">59</text>
<line x1="138.7264011930213" y1="65.97417969489075" x2="157.0678834654699" y2="67.2422111755213" stroke="#000" stroke-width="0.3" stroke-dasharray="2 1.5" />
<line x1="157.0678834654699" y1="67.2422111755213" x2="145.3331912743158" y2="75.43602785101224" stroke="#000" stroke-width="0.3" stroke-dasharray="2 1.5" />
<line x1="145.3331912743158" y1="75.43602785101224" x2="138.7264011930213" y2="65.97417969489075" stroke="#000" stroke-width="0.3" stroke-dasharray="2 1.5" />
<line x1="157.64685572768252" y1="135.7682010317319" x2="165.57202979137008" y2="117.23134353287614" stroke="#000" stroke-width="0.3" stroke-dasharray="2 1.5" />
<line x1="165.57202979137008" y1="117.23134353287614" x2="170.7337162536324" y2="123.93198110628633" stroke="#000" stroke-width="0.3" />
<polygon points="165.57202979137008,117.23134353287614 170.7337162536324,123.93198110628633 172.12354966743086,120.19214712802888 169.54270643629974,116.84182834132378" fill="none" stroke="#666" stroke-width="0.2" />
<text x="166.72690607975196" y="121.6801240977903" font-size="3" text-anchor="middle" dominant-baseline="central" fill="#000">60</text>
<line x1="170.7337162536324" y1="123.93198110628633" x2="157.64685572768252" y2="135.7682010317319" stroke="#000" stroke-width="0.3" stroke-dasharray="2 1.5" />
<line x1="165.57202979137008" y1="117.23134353287614" x2="157.64685572768252" y2="135.7682010317319" stroke="#000" stroke-width="0.3" stroke-dasharray="2 1.5" />
<line x1="157.64685572768252" y1="135.7682010317319" x2="143.85015287352962" y2="129.16198122275745" stroke="#000" stroke-width="0.3" stroke-dasharray="2 1.5" />
<line x1="143.85015287352962" y1="129.16198122275745" x2="165.57202979137008" y2="117.23134353287614" stroke="#000" stroke-width="0.3" stroke-dasharray="2 1.5" />
<line x1="165.57202979137008" y1="117.23134353287614" x2="135.42487323177374" y2="116.77318064845642" stroke="#000" stroke-width="0.3" stroke-dasharray="2 1.5" />
<line x1="135.42487323177374" y1="116.77318064845642" x2="162.93221776525567" y2="109.19561585020497" stroke="#000" stroke-width="0.3" stroke-dasharray="2 1.5" />
<line x1="162.93221776525567" y1="109.19561585020497" x2="165.57202979137008" y2="117.23134353287614" stroke="#000" stroke-width="0.3" />
<polygon points="162.93221776525567,109.19561585020497 165.57202979137008,117.23134353287614 168.12636785790997,114.16648680176259 166.80646184485272,110.14862296042699" fill="none" stroke="#666" stroke-width="0.2" />
<text x="162.54203517240862" y="113.77525986203118" font-size="3" text-anchor="middle" dominant-baseline="central" fill="#000">61</text>
<line x1="135.42487323177374" y1="116.77318064845642" x2="165.57202979137008" y2="117.23134353287614" stroke="#000" stroke-width="0.3" stroke-dasharray="2 1.5" />
<line x1="165.57202979137008" y1="117.23134353287614" x2="143.85015287352962" y2="129.16198122275745" stroke="#000" stroke-width="0.3" stroke-dasharray="2 1.5" />
<line x1="143.85015287352962" y1="129.16198122275745" x2="135.42487323177374" y2="116.77318064845642" stroke="#000" stroke-width="0.3" />
<polygon points="143.85015287352962,129.16198122275745 135.42487323177374,116.77318064845642 132.5756729124923,123.24049264873403 136.78831273337028,129.43489293588453" fill="none" stroke="#666" stroke-width="0.2" />
<text x="141.12593074152338" y="121.95534934972659" font-size="3" text-anchor="middle" dominant-baseline="central" fill="#000">62</text>
<line x1="149.7190975994092" y1="208.70126018417585" x2="181.20077476042536" y2="211.76381928131113" stroke="#000" stroke-width="0.3" stroke-dasharray="2 1.5" />
<line x1="181.20077476042536" y1="211.76381928131113" x2="154.23881230840178" y2="221.37727877490875" stroke="#000" stroke-width="0.3" stroke-dasharray="2 1.5" />
<line x1="154.23881230840178" y1="221.37727877490875" x2="149.7190975994092" y2="208.70126018417585" stroke="#000" stroke-width="0.3" />
<text x="151.9789549539055" y="215.0392694795423" font-size="3" text-anchor="middle" dominant-baseline="central" fill="#000">55</text>
<line x1="181.20077476042536" y1="211.76381928131113" x2="149.7190975994092" y2="208.70126018417585" stroke="#000" stroke-width="0.3" stroke-dasharray="2 1.5" />
<line x1="149.7190975994092" y1="208.70126018417585" x2="177.9690181537983" y2="202.7000201342087" stroke="#000" stroke-width="0.3" stroke-dasharray="2 1.5" />
<line x1="177.9690181537983" y1="202.7000201342087" x2="181.20077476042536" y2="211.76381928131113" stroke="#000" stroke-width="0.3" />
<text x="179.58489645711182" y="207.23191970775991" font-size="3" text-anchor="middle" dominant-baseline="central" fill="#000">54</text>
<line x1="147.04810518290583" y1="182.28038922742573" x2="177.279857961235" y2="172.97897056982956" stroke="#000" stroke-width="0.3" stroke-dasharray="2 1.5" />
<line x1="177.279857961235" y1="172.97897056982956" x2="175.92754261780289" y2="182.50619204072075" stroke="#000" stroke-width="0.3" />
<text x="176.60370028951894" y="177.74258130527517" font-size="3" text-anchor="middle" dominant-baseline="central" fill="#000">59</text>
<line x1="175.92754261780289" y1="182.50619204072075" x2="147.04810518290583" y2="182.28038922742573" stroke="#000" stroke-width="0.3" stroke-dasharray="2 1.5" />
<line x1="177.279857961235" y1="172.97897056982956" x2="147.04810518290583" y2="182.28038922742573" stroke="#000" stroke-width="0.3" stroke-dasharray="2 1.5" />
<line x1="147.04810518290583" y1="182.28038922742573" x2="148.93936006054304" y2="168.95625986183103" stroke="#000" stroke-width="0.3" stroke-dasharray="2 1.5" />
<line x1="148.93936006054304" y1="168.95625986183103" x2="177.279857961235" y2="172.97897056982956" stroke="#000" stroke-width="0.3" stroke-dasharray="2 1.5" />
<line x1="186.83786931749415" y1="165.41727222302092" x2="190.2746414161011" y2="151.8805469190687" stroke="#000" stroke-width="0.3" stroke-dasharray="2 1.5" />
<line x1="190.2746414161011" y1="151.8805469190687" x2="197.02136566784966" y2="161.1729037254111" stroke="#000" stroke-width="0.3" />
<text x="193.64800354197538" y="156.52672532223988" font-size="3" text-anchor="middle" dominant-baseline="central" fill="#000">51</text>
<line x1="197.02136566784966" y1="161.1729037254111" x2="186.83786931749415" y2="165.41727222302092" stroke="#000" stroke-width="0.3" />
<text x="191.92961749267192" y="163.29508797421602" font-size="3" text-anchor="middle" dominant-baseline="central" fill="#000">5</text>
<line x1="190.2746414161011" y1="151.8805469190687" x2="186.83786931749415" y2="165.41727222302092" stroke="#000" stroke-width="0.3" stroke-dasharray="2 1.5" />
<line x1="186.83786931749415" y1="165.41727222302092" x2="181.5884459822816" y2="158.18717292059208" stroke="#000" stroke-width="0.3" />
<polygon points="186.83786931749415,165.41727222302092 181.5884459822816,158.18717292059208 180.00876209511318,162.0944670802843 182.6334737627195,165.7095167314987" fill="none" stroke="#666" stroke-width="0.2" />
<text x="185.6697283765698" y="160.7446774341536" font-size="3" text-anchor="middle" dominant-baseline="central" fill="#000">63</text>
<line x1="181.5884459822816" y1="158.18717292059208" x2="190.2746414161011" y2="151.8805469190687" stroke="#000" stroke-width="0.3" stroke-dasharray="2 1.5" />
<line x1="147.04810518290583" y1="182.28038922742576" x2="120.59885838174975" y2="164.9335544521607" stroke="#000" stroke-width="0.3" stroke-dasharray="2 1.5" />
<line x1="120.59885838174975" y1="164.9335544521607" x2="148.93936006054304" y2="168.95625986183103" stroke="#000" stroke-width="0.3" stroke-dasharray="2 1.5" />
<line x1="148.93936006054304" y1="168.95625986183103" x2="147.04810518290583" y2="182.28038922742576" stroke="#000" stroke-width="0.3" stroke-dasharray="2 1.5" />
<line x1="120.59885838174975" y1="164.9335544521607" x2="147.04810518290583" y2="182.28038922742576" stroke="#000" stroke-width="0.3" stroke-dasharray="2 1.5" />
<line x1="147.04810518290583" y1="182.28038922742576" x2="117.62971602785498" y2="185.8514899229749" stroke="#000" stroke-width="0.3" />
<polygon points="147.04810518290583,182.28038922742576 117.62971602785498,185.8514899229749 126.41275359483734,196.72607041110797 141.12194817236278,194.94052006333342" fill="none" stroke="#666" stroke-width="0.2" />
<text x="132.12200075514139" y="182.27905678193457" font-size="3" text-anchor="middle" dominant-baseline="central" fill="#000">64</text>
<line x1="117.62971602785498" y1="185.8514899229749" x2="120.59885838174975" y2="164.9335544521607" stroke="#000" stroke-width="0.3" />
<text x="119.11428720480237" y="175.3925221875678" font-size="3" text-anchor="middle" dominant-baseline="central" fill="#000">58</text>
<line x1="156.267503534963" y1="162.2657221157979" x2="181.5884459822816" y2="158.18717292059208" stroke="#000" stroke-width="0.3" stroke-dasharray="2 1.5" />
<line x1="181.5884459822816" y1="158.18717292059208" x2="177.95171234701402" y2="166.34835848038477" stroke="#000" stroke-width="0.3" />
<text x="179.77007916464783" y="162.26776570048844" font-size="3" text-anchor="middle" dominant-baseline="central" fill="#000">63</text>
<line x1="177.95171234701402" y1="166.34835848038477" x2="156.267503534963" y2="162.2657221157979" stroke="#000" stroke-width="0.3" stroke-dasharray="2 1.5" />
<line x1="181.5884459822816" y1="158.18717292059208" x2="156.267503534963" y2="162.2657221157979" stroke="#000" stroke-width="0.3" stroke-dasharray="2 1.5" />
<line x1="156.267503534963" y1="162.2657221157979" x2="161.97887240493475" y2="149.44887409652222" stroke="#000" stroke-width="0.3" />
<polygon points="156.267503534963,162.2657221157979 161.97887240493475,149.44887409652222 155.42429097973155,150.3685385533524 152.56860654474568,156.77696256299026" fill="none" stroke="#666" stroke-width="0.2" />
<text x="160.76733421915887" y="156.58995294386244" font-size="3" text-anchor="middle" dominant-baseline="central" fill="#000">65</text>
<line x1="161.97887240493475" y1="149.44887409652222" x2="181.5884459822816" y2="158.18717292059208" stroke="#000" stroke-width="0.3" stroke-dasharray="2 1.5" />
<line x1="118.73631552365775" y1="123.8757070428237" x2="123.27936180256332" y2="155.92475407599977" stroke="#000" stroke-width="0.3" stroke-dasharray="2 1.5" />
<line x1="123.27936180256332" y1="155.92475407599977" x2="102.56110419384764" y2="148.3335506056617" stroke="#000" stroke-width="0.3" stroke-dasharray="2 1.5" />
<line x1="102.56110419384764" y1="148.3335506056617" x2="118.73631552365775" y2="123.8757070428237" stroke="#000" stroke-width="0.3" stroke-dasharray="2 1.5" />
<line x1="123.27936180256332" y1="155.92475407599977" x2="118.73631552365775" y2="123.8757070428237" stroke="#000" stroke-width="0.3" stroke-dasharray="2 1.5" />
<line x1="118.73631552365775" y1="123.8757070428237" x2="136.6429407570693" y2="135.71828089838195" stroke="#000" stroke-width="0.3" stroke-dasharray="2 1.5" />
<line x1="136.6429407570693" y1="135.71828089838195" x2="123.27936180256332" y2="155.92475407599977" stroke="#000" stroke-width="0.3" stroke-dasharray="2 1.5" />
<line x1="109.78299452449666" y1="117.95442863380657" x2="102.56110419384764" y2="148.3335506056617" stroke="#000" stroke-width="0.3" stroke-dasharray="2 1.5" />
<line x1="102.56110419384764" y1="148.3335506056617" x2="95.0136016146506" y2="140.2865973445882" stroke="#000" stroke-width="0.3" />
<text x="98.78735290424912" y="144.31007397512496" font-size="3" text-anchor="middle" dominant-baseline="central" fill="#000">10</text>
<line x1="95.0136016146506" y1="140.2865973445882" x2="109.78299452449666" y2="117.95442863380657" stroke="#000" stroke-width="0.3" stroke-dasharray="2 1.5" />
<line x1="102.56110419384764" y1="148.3335506056617" x2="109.78299452449666" y2="117.95442863380657" stroke="#000" stroke-width="0.3" stroke-dasharray="2 1.5" />
<line x1="109.78299452449666" y1="117.95442863380657" x2="118.73631552365775" y2="123.8757070428237" stroke="#000" stroke-width="0.3" />
<polygon points="109.78299452449666,117.95442863380657 118.73631552365775,123.8757070428237 118.86649663747433,118.81405904090498 114.38983613789378,115.85341983639643" fill="none" stroke="#666" stroke-width="0.2" />
<text x="113.2667276944043" y="122.41643232370456" font-size="3" text-anchor="middle" dominant-baseline="central" fill="#000">66</text>
<line x1="118.73631552365775" y1="123.8757070428237" x2="102.56110419384764" y2="148.3335506056617" stroke="#000" stroke-width="0.3" stroke-dasharray="2 1.5" />
<line x1="146.8092560487199" y1="159.26463259848697" x2="136.6429407570693" y2="135.71828089838195" stroke="#000" stroke-width="0.3" stroke-dasharray="2 1.5" />
<line x1="136.6429407570693" y1="135.71828089838195" x2="154.549578967371" y2="147.56084139080141" stroke="#000" stroke-width="0.3" stroke-dasharray="2 1.5" />
<line x1="154.549578967371" y1="147.56084139080141" x2="146.8092560487199" y2="159.26463259848697" stroke="#000" stroke-width="0.3" />
<text x="150.67941750804545" y="153.4127369946442" font-size="3" text-anchor="middle" dominant-baseline="central" fill="#000">65</text>
<line x1="136.6429407570693" y1="135.71828089838195" x2="146.8092560487199" y2="159.26463259848697" stroke="#000" stroke-width="0.3" stroke-dasharray="2 1.5" />
<line x1="146.8092560487199" y1="159.26463259848697" x2="123.27936180256332" y2="155.92475407599977" stroke="#000" stroke-width="0.3" stroke-dasharray="2 1.5" />
<line x1="123.27936180256332" y1="155.92475407599977" x2="136.6429407570693" y2="135.71828089838195" stroke="#000" stroke-width="0.3" stroke-dasharray="2 1.5" />
<line x1="161.97887240493475" y1="149.44887409652222" x2="190.2746414161011" y2="151.8805469190687" stroke="#000" stroke-width="0.3" stroke-dasharray="2 1.5" />
<line x1="190.2746414161011" y1="151.8805469190687" x2="181.5884459822816" y2="158.18717292059208" stroke="#000" stroke-width="0.3" stroke-dasharray="2 1.5" />
<line x1="181.5884459822816" y1="158.18717292059208" x2="161.97887240493475" y2="149.44887409652222" stroke="#000" stroke-width="0.3" stroke-dasharray="2 1.5" />
<line x1="190.2746414161011" y1="151.8805469190687" x2="161.97887240493475" y2="149.44887409652222" stroke="#000" stroke-width="0.3" stroke-dasharray="2 1.5" />
<line x1="161.97887240493475" y1="149.44887409652222" x2="184.84223111082562" y2="149.49638816796232" stroke="#000" stroke-width="0.3" stroke-dasharray="2 1.5" />
<line x1="184.84223111082562" y1="149.49638816796232" x2="190.2746414161011" y2="151.8805469190687" stroke="#000" stroke-width="0.3" />
<polygon points="184.84223111082562,149.49638816796232 190.2746414161011,151.8805469190687 189.87020234022478,149.11154310918195 187.15399718758707,147.91946373362873" fill="none" stroke="#666" stroke-width="0.2" />
<text x="186.83505813748624" y="152.33671633749591" font-size="3" text-anchor="middle" dominant-baseline="central" fill="#000">67</text>
<line x1="148.48569951725406" y1="89.03868681531989" x2="151.4686164148351" y2="83.8037624577015" stroke="#000" stroke-width="0.3" stroke-dasharray="2 1.5" />
<line x1="151.4686164148351" y1="83.8037624577015" x2="154.49280725538307" y2="88.90763984996772" stroke="#000" stroke-width="0.3" />
<text x="152.9807118351091" y="86.35570115383462" font-size="3" text-anchor="middle" dominant-baseline="central" fill="#000">67</text>
<line x1="154.49280725538307" y1="88.90763984996772" x2="148.48569951725406" y2="89.03868681531989" stroke="#000" stroke-width="0.3" />
<polygon points="154.49280725538307,88.90763984996772 148.48569951725406,89.03868681531989 150.0398952379272,91.40876816923345 153.0434491069917,91.34324468655737" fill="none" stroke="#666" stroke-width="0.2" />
<text x="151.44999515452716" y="87.17359149711275" font-size="3" text-anchor="middle" dominant-baseline="central" fill="#000">68</text>
<line x1="184.84223111082562" y1="149.49638816796232" x2="161.97887240493475" y2="149.44887409652222" stroke="#000" stroke-width="0.3" stroke-dasharray="2 1.5" />
<line x1="161.97887240493475" y1="149.44887409652222" x2="173.05201990527218" y2="144.34545422313417" stroke="#000" stroke-width="0.3" />
<polygon points="161.97887240493475,149.44887409652222 173.05201990527218,144.34545422313417 168.2423650808326,141.1920501913462 162.70579133066389,143.74376012804024" fill="none" stroke="#666" stroke-width="0.2" />
<text x="168.26886674793397" y="148.5318988203462" font-size="3" text-anchor="middle" dominant-baseline="central" fill="#000">69</text>
<line x1="173.05201990527218" y1="144.34545422313417" x2="184.84223111082562" y2="149.49638816796232" stroke="#000" stroke-width="0.3" />
<text x="178.94712550804888" y="146.92092119554826" font-size="3" text-anchor="middle" dominant-baseline="central" fill="#000">57</text>
<line x1="157.64685572768252" y1="135.7682010317319" x2="154.549578967371" y2="147.56084139080141" stroke="#000" stroke-width="0.3" />
<text x="156.09821734752677" y="141.66452121126667" font-size="3" text-anchor="middle" dominant-baseline="central" fill="#000">69</text>
<line x1="154.549578967371" y1="147.56084139080141" x2="136.6429407570693" y2="135.71828089838195" stroke="#000" stroke-width="0.3" stroke-dasharray="2 1.5" />
<line x1="136.6429407570693" y1="135.71828089838195" x2="157.64685572768252" y2="135.7682010317319" stroke="#000" stroke-width="0.3" stroke-dasharray="2 1.5" />
<line x1="157.64685572768252" y1="135.7682010317319" x2="136.6429407570693" y2="135.71828089838195" stroke="#000" stroke-width="0.3" stroke-dasharray="2 1.5" />
<line x1="136.6429407570693" y1="135.71828089838195" x2="143.85015287352962" y2="129.16198122275745" stroke="#000" stroke-width="0.3" />
<polygon points="136.6429407570693,135.71828089838195 143.85015287352962,129.16198122275745 139.42582997416474,127.91817129507942 135.82222391593456,131.19632113289168" fill="none" stroke="#666" stroke-width="0.2" />
<text x="141.4577915786221" y="133.77162875990058" font-size="3" text-anchor="middle" dominant-baseline="central" fill="#000">70</text>
<line x1="143.85015287352962" y1="129.16198122275745" x2="157.64685572768252" y2="135.7682010317319" stroke="#000" stroke-width="0.3" stroke-dasharray="2 1.5" />
<line x1="121.09137373434604" y1="119.65395329186471" x2="136.6429407570693" y2="135.71828089838198" stroke="#000" stroke-width="0.3" />
<text x="128.8671572457077" y="127.68611709512334" font-size="3" text-anchor="middle" dominant-baseline="central" fill="#000">71</text>
<line x1="136.6429407570693" y1="135.71828089838198" x2="118.73631552365775" y2="123.8757070428237" stroke="#000" stroke-width="0.3" stroke-dasharray="2 1.5" />
<line x1="118.73631552365775" y1="123.8757070428237" x2="121.09137373434604" y2="119.65395329186471" stroke="#000" stroke-width="0.3" />
<polygon points="118.73631552365775,123.8757070428237 121.09137373434604,119.65395329186471 118.81390768129036,119.76736844532914 117.63637857594622,121.87824532080865" fill="none" stroke="#666" stroke-width="0.2" />
<text x="121.4858016087908" y="122.6417288237994" font-size="3" text-anchor="middle" dominant-baseline="central" fill="#000">72</text>
<line x1="134.1059654998483" y1="110.19152906579424" x2="135.42487323177374" y2="116.77318064845642" stroke="#000" stroke-width="0.3" stroke-dasharray="2 1.5" />
<line x1="135.42487323177374" y1="116.77318064845642" x2="132.82559202502233" y2="120.84911503429919" stroke="#000" stroke-width="0.3" />
<text x="134.12523262839804" y="118.8111478413778" font-size="3" text-anchor="middle" dominant-baseline="central" fill="#000">72</text>
<line x1="132.82559202502233" y1="120.84911503429919" x2="134.1059654998483" y2="110.19152906579424" stroke="#000" stroke-width="0.3" />
<text x="133.46577876243532" y="115.52032205004672" font-size="3" text-anchor="middle" dominant-baseline="central" fill="#000">66</text>
<line x1="135.42487323177374" y1="116.77318064845642" x2="134.1059654998483" y2="110.19152906579424" stroke="#000" stroke-width="0.3" stroke-dasharray="2 1.5" />
<line x1="134.1059654998483" y1="110.19152906579424" x2="137.1818718019611" y2="108.87640211466847" stroke="#000" stroke-width="0.3" />
<text x="135.6439186509047" y="109.53396559023136" font-size="3" text-anchor="middle" dominant-baseline="central" fill="#000">44</text>
<line x1="137.1818718019611" y1="108.87640211466847" x2="135.42487323177374" y2="116.77318064845642" stroke="#000" stroke-width="0.3" stroke-dasharray="2 1.5" />
<line x1="170.7337162536324" y1="123.93198110628633" x2="181.49732201244043" y2="126.98851206487463" stroke="#000" stroke-width="0.3" stroke-dasharray="2 1.5" />
<line x1="181.49732201244043" y1="126.98851206487463" x2="177.6657110352338" y2="128.77852064590553" stroke="#000" stroke-width="0.3" />
<polygon points="181.49732201244043,126.98851206487463 177.6657110352338,128.77852064590553 179.33961721194785,129.86366289153045 181.25542270055115,128.968658601015" fill="none" stroke="#666" stroke-width="0.2" />
<text x="178.8196504893943" y="126.25270056396471" font-size="3" text-anchor="middle" dominant-baseline="central" fill="#000">73</text>
<line x1="177.6657110352338" y1="128.77852064590553" x2="170.7337162536324" y2="123.93198110628633" stroke="#000" stroke-width="0.3" stroke-dasharray="2 1.5" />
<line x1="181.49732201244043" y1="126.98851206487463" x2="170.7337162536324" y2="123.93198110628633" stroke="#000" stroke-width="0.3" stroke-dasharray="2 1.5" />
<line x1="170.7337162536324" y1="123.93198110628633" x2="182.59416601835952" y2="114.34867906005239" stroke="#000" stroke-width="0.3" stroke-dasharray="2 1.5" />
<line x1="182.59416601835952" y1="114.34867906005239" x2="181.49732201244043" y2="126.98851206487463" stroke="#000" stroke-width="0.3" />
<text x="182.04574401539998" y="120.66859556246351" font-size="3" text-anchor="middle" dominant-baseline="central" fill="#000">53</text>
<line x1="182.59416601835952" y1="114.34867906005239" x2="170.7337162536324" y2="123.93198110628633" stroke="#000" stroke-width="0.3" stroke-dasharray="2 1.5" />
<line x1="170.7337162536324" y1="123.93198110628633" x2="171.46494569231814" y2="115.50542460123057" stroke="#000" stroke-width="0.3" />
<text x="171.09933097297528" y="119.71870285375846" font-size="3" text-anchor="middle" dominant-baseline="central" fill="#000">60</text>
<line x1="171.46494569231814" y1="115.50542460123057" x2="182.59416601835952" y2="114.34867906005239" stroke="#000" stroke-width="0.3" stroke-dasharray="2 1.5" />
<line x1="182.59416601835952" y1="114.34867906005239" x2="171.46494569231814" y2="115.50542460123057" stroke="#000" stroke-width="0.3" stroke-dasharray="2 1.5" />
<line x1="171.46494569231814" y1="115.50542460123057" x2="179.12816991260266" y2="111.92540763578046" stroke="#000" stroke-width="0.3" />
<text x="175.2965578024604" y="113.71541611850552" font-size="3" text-anchor="middle" dominant-baseline="central" fill="#000">61</text>
<line x1="179.12816991260266" y1="111.92540763578046" x2="182.59416601835952" y2="114.34867906005239" stroke="#000" stroke-width="0.3" />
<polygon points="179.12816991260266,111.92540763578046 182.59416601835952,114.34867906005239 182.69697556162907,112.35646276168167 180.96397750875065,111.1448270495457" fill="none" stroke="#666" stroke-width="0.2" />
<text x="179.829771686182" y="114.61224561033606" font-size="3" text-anchor="middle" dominant-baseline="central" fill="#000">74</text>
<line x1="169.55384046526902" y1="140.643128234719" x2="181.54717540572517" y2="130.4576894109261" stroke="#000" stroke-width="0.3" stroke-dasharray="2 1.5" />
<line x1="181.54717540572517" y1="130.4576894109261" x2="174.39174006595846" y2="144.2064474932568" stroke="#000" stroke-width="0.3" stroke-dasharray="2 1.5" />
<line x1="174.39174006595846" y1="144.2064474932568" x2="169.55384046526902" y2="140.643128234719" stroke="#000" stroke-width="0.3" />
<text x="171.97279026561375" y="142.4247878639879" font-size="3" text-anchor="middle" dominant-baseline="central" fill="#000">68</text>
<line x1="181.54717540572517" y1="130.4576894109261" x2="169.55384046526902" y2="140.643128234719" stroke="#000" stroke-width="0.3" stroke-dasharray="2 1.5" />
<line x1="169.55384046526902" y1="140.643128234719" x2="177.6657110352338" y2="128.77852064590553" stroke="#000" stroke-width="0.3" stroke-dasharray="2 1.5" />
<line x1="177.6657110352338" y1="128.77852064590553" x2="181.54717540572517" y2="130.4576894109261" stroke="#000" stroke-width="0.3" />
<text x="179.6064432204795" y="129.6181050284158" font-size="3" text-anchor="middle" dominant-baseline="central" fill="#000">73</text>
<line x1="162.75561334911765" y1="104.97019465451156" x2="135.42487323177374" y2="116.77318064845642" stroke="#000" stroke-width="0.3" stroke-dasharray="2 1.5" />
<line x1="135.42487323177374" y1="116.77318064845642" x2="137.1818718019611" y2="108.87640211466847" stroke="#000" stroke-width="0.3" stroke-dasharray="2 1.5" />
<line x1="137.1818718019611" y1="108.87640211466847" x2="162.75561334911765" y2="104.97019465451156" stroke="#000" stroke-width="0.3" stroke-dasharray="2 1.5" />
<line x1="135.42487323177374" y1="116.77318064845642" x2="162.75561334911765" y2="104.97019465451156" stroke="#000" stroke-width="0.3" stroke-dasharray="2 1.5" />
<line x1="162.75561334911765" y1="104.97019465451156" x2="162.93221776525567" y2="109.19561585020497" stroke="#000" stroke-width="0.3" />
<text x="162.84391555718668" y="107.08290525235827" font-size="3" text-anchor="middle" dominant-baseline="central" fill="#000">74</text>
<line x1="162.93221776525567" y1="109.19561585020497" x2="135.42487323177374" y2="116.77318064845642" stroke="#000" stroke-width="0.3" stroke-dasharray="2 1.5" />
<line x1="139.2319007118382" y1="57.879333908678035" x2="151.5588558449441" y2="59.35251406981592" stroke="#000" stroke-width="0.3" stroke-dasharray="2 1.5" />
<line x1="151.5588558449441" y1="59.35251406981592" x2="138.7264011930213" y2="65.97417969489075" stroke="#000" stroke-width="0.3" stroke-dasharray="2 1.5" />
<line x1="138.7264011930213" y1="65.97417969489075" x2="139.2319007118382" y2="57.879333908678035" stroke="#000" stroke-width="0.3" />
<text x="138.97915095242973" y="61.92675680178439" font-size="3" text-anchor="middle" dominant-baseline="central" fill="#000">50</text>
<line x1="151.5588558449441" y1="59.35251406981592" x2="139.2319007118382" y2="57.879333908678035" stroke="#000" stroke-width="0.3" stroke-dasharray="2 1.5" />
<line x1="139.2319007118382" y1="57.879333908678035" x2="154.46828061532597" y2="49.3964864065559" stroke="#000" stroke-width="0.3" stroke-dasharray="2 1.5" />
<line x1="154.46828061532597" y1="49.3964864065559" x2="151.5588558449441" y2="59.35251406981592" stroke="#000" stroke-width="0.3" />
<polygon points="154.46828061532597,49.3964864065559 151.5588558449441,59.35251406981592 156.26862310284358,58.027277062153665 157.72333548803454,53.04926323052365" fill="none" stroke="#666" stroke-width="0.2" />
<text x="151.28582890685382" y="53.86960734777471" font-size="3" text-anchor="middle" dominant-baseline="central" fill="#000">75</text>
<line x1="175.92754261780289" y1="182.50619204072075" x2="179.08162229966445" y2="192.38743794832664" stroke="#000" stroke-width="0.3" />
<text x="177.50458245873367" y="187.4468149945237" font-size="3" text-anchor="middle" dominant-baseline="central" fill="#000">75</text>
<line x1="179.08162229966445" y1="192.38743794832664" x2="147.04810518290583" y2="182.28038922742573" stroke="#000" stroke-width="0.3" stroke-dasharray="2 1.5" />
<line x1="147.04810518290583" y1="182.28038922742573" x2="175.92754261780289" y2="182.50619204072075" stroke="#000" stroke-width="0.3" stroke-dasharray="2 1.5" />
<line x1="147.04810518290583" y1="182.28038922742576" x2="179.08162229966445" y2="192.38743794832664" stroke="#000" stroke-width="0.3" stroke-dasharray="2 1.5" />
<line x1="179.08162229966445" y1="192.38743794832664" x2="144.23149691675542" y2="191.0116640265627" stroke="#000" stroke-width="0.3" stroke-dasharray="2 1.5" />
<line x1="144.23149691675542" y1="191.0116640265627" x2="147.04810518290583" y2="182.28038922742576" stroke="#000" stroke-width="0.3" />
<polygon points="144.23149691675542,191.0116640265627 147.04810518290583,182.28038922742576 142.85144319671343,183.33656462074984 141.44313906363826,187.7022020203183" fill="none" stroke="#666" stroke-width="0.2" />
<text x="147.35287266317653" y="187.19864371644084" font-size="3" text-anchor="middle" dominant-baseline="central" fill="#000">76</text>
<line x1="179.08162229966445" y1="192.38743794832664" x2="149.7190975994092" y2="208.70126018417585" stroke="#000" stroke-width="0.3" stroke-dasharray="2 1.5" />
<line x1="149.7190975994092" y1="208.70126018417585" x2="145.2119782797817" y2="200.7103705477442" stroke="#000" stroke-width="0.3" />
<text x="147.46553793959544" y="204.70581536596" font-size="3" text-anchor="middle" dominant-baseline="central" fill="#000">83</text>
<line x1="145.2119782797817" y1="200.7103705477442" x2="179.08162229966445" y2="192.38743794832664" stroke="#000" stroke-width="0.3" stroke-dasharray="2 1.5" />
<line x1="179.08162229966445" y1="192.38743794832664" x2="177.9690181537983" y2="202.7000201342087" stroke="#000" stroke-width="0.3" />
<polygon points="179.08162229966445,192.38743794832664 177.9690181537983,202.7000201342087 182.37220206461768,200.56691624608467 182.92850413755073,195.41062515314363" fill="none" stroke="#666" stroke-width="0.2" />
<text x="176.73570549586037" y="197.35065103876738" font-size="3" text-anchor="middle" dominant-baseline="central" fill="#000">84</text>
<line x1="177.9690181537983" y1="202.7000201342087" x2="149.7190975994092" y2="208.70126018417585" stroke="#000" stroke-width="0.3" stroke-dasharray="2 1.5" />
<line x1="149.7190975994092" y1="208.70126018417585" x2="179.08162229966445" y2="192.38743794832664" stroke="#000" stroke-width="0.3" stroke-dasharray="2 1.5" />
<line x1="137.47935270930958" y1="53.33124216920688" x2="145.63031138086598" y2="43.96716424474699" stroke="#000" stroke-width="0.3" stroke-dasharray="2 1.5" />
<line x1="145.63031138086598" y1="43.96716424474699" x2="154.46828061532597" y2="49.3964864065559" stroke="#000" stroke-width="0.3" />
<text x="150.04929599809597" y="46.681825325651445" font-size="3" text-anchor="middle" dominant-baseline="central" fill="#000">84</text>
<line x1="154.46828061532597" y1="49.3964864065559" x2="137.47935270930958" y2="53.33124216920688" stroke="#000" stroke-width="0.3" stroke-dasharray="2 1.5" />
<line x1="145.63031138086598" y1="43.96716424474699" x2="137.47935270930958" y2="53.33124216920688" stroke="#000" stroke-width="0.3" stroke-dasharray="2 1.5" />
<line x1="137.47935270930958" y1="53.33124216920688" x2="131.67263338201735" y2="47.668727823075784" stroke="#000" stroke-width="0.3" stroke-dasharray="2 1.5" />
<line x1="131.67263338201735" y1="47.668727823075784" x2="145.63031138086598" y2="43.96716424474699" stroke="#000" stroke-width="0.3" stroke-dasharray="2 1.5" />
</svg>