<svg xmlns="http://www.w3.org/2000/svg" width="215.9mm" height="279.4mm" viewBox="0 0 215.9 279.4">
<rect x="0" y="0" width="215.9" height="279.4" fill="none" stroke="#ccc" stroke-width="0.15" />
<line x1="116.85454545454547" y1="54.52272727272727" x2="161.37727272727275" y2="54.52272727272727" stroke="#000" stroke-width="0.3" stroke-dasharray="2 1.5" />
<line x1="161.37727272727275" y1="54.52272727272727" x2="161.37727272727275" y2="99.04545454545455" stroke="#000" stroke-width="0.3" stroke-dasharray="2 1.5" />
<line x1="161.37727272727275" y1="99.04545454545455" x2="116.85454545454547" y2="54.52272727272727" stroke="#000" stroke-width="0.3" stroke-dasharray="2 1.5" />
<line x1="116.85454545454547" y1="54.52272727272727" x2="161.37727272727275" y2="99.04545454545455" stroke="#000" stroke-width="0.3" stroke-dasharray="2 1.5" />
<line x1="161.37727272727275" y1="99.04545454545455" x2="116.85454545454549" y2="99.04545454545455" stroke="#000" stroke-width="0.3" stroke-dasharray="2 1.5" />
<line x1="116.85454545454549" y1="99.04545454545455" x2="116.85454545454547" y2="54.52272727272727" stroke="#000" stroke-width="0.3" stroke-dasharray="2 1.5" />
<line x1="72.33181818181819" y1="54.522727272727295" x2="72.33181818181822" y2="99.04545454545456" stroke="#000" stroke-width="0.3" stroke-dasharray="2 1.5" />
<line x1="72.33181818181822" y1="99.04545454545456" x2="27.809090909090944" y2="99.0454545454546" stroke="#000" stroke-width="0.3" />
<polygon points="72.33181818181822,99.04545454545456 27.809090909090944,99.0454545454546 38.93977272727278,116.85454545454552 61.20113636363641,116.85454545454547" fill="none" stroke="#666" stroke-width="0.2" />
<text x="50.07045454545458" y="97.24545454545459" font-size="3" text-anchor="middle" dominant-baseline="central" fill="#000">1</text>
<line x1="27.809090909090944" y1="99.0454545454546" x2="72.33181818181819" y2="54.522727272727295" stroke="#000" stroke-width="0.3" stroke-dasharray="2 1.5" />
<line x1="72.33181818181819" y1="54.522727272727295" x2="27.809090909090944" y2="99.0454545454546" stroke="#000" stroke-width="0.3" stroke-dasharray="2 1.5" />
<line x1="27.809090909090944" y1="99.0454545454546" x2="27.809090909090926" y2="54.52272727272732" stroke="#000" stroke-width="0.3" />
<polygon points="27.809090909090944,99.0454545454546 27.809090909090926,54.52272727272732 10,65.65340909090915 10.000000000000039,87.91477272727279" fill="none" stroke="#666" stroke-width="0.2" />
<text x="29.609090909090934" y="76.78409090909096" font-size="3" text-anchor="middle" dominant-baseline="central" fill="#000">2</text>
<line x1="27.809090909090926" y1="54.52272727272732" x2="72.33181818181819" y2="54.522727272727295" stroke="#000" stroke-width="0.3" />
<polygon points="27.809090909090926,54.52272727272732 72.33181818181819,54.522727272727295 61.20113636363637,36.7136363636364 38.939772727272725,36.71363636363641" fill="none" stroke="#666" stroke-width="0.2" />
<text x="50.07045454545456" y="56.322727272727306" font-size="3" text-anchor="middle" dominant-baseline="central" fill="#000">3</text>
<line x1="116.85454545454547" y1="54.52272727272727" x2="116.85454545454549" y2="99.04545454545455" stroke="#000" stroke-width="0.3" stroke-dasharray="2 1.5" />
<line x1="116.85454545454549" y1="99.04545454545455" x2="72.33181818181822" y2="99.04545454545456" stroke="#000" stroke-width="0.3" />
<polygon points="116.85454545454549,99.04545454545455 72.33181818181822,99.04545454545456 83.46250000000003,116.85454545454547 105.72386363636367,116.85454545454546" fill="none" stroke="#666" stroke-width="0.2" />
<text x="94.59318181818185" y="97.24545454545456" font-size="3" text-anchor="middle" dominant-baseline="central" fill="#000">4</text>
<line x1="72.33181818181822" y1="99.04545454545456" x2="116.85454545454547" y2="54.52272727272727" stroke="#000" stroke-width="0.3" stroke-dasharray="2 1.5" />
<line x1="116.85454545454547" y1="54.52272727272727" x2="72.33181818181822" y2="99.04545454545456" stroke="#000" stroke-width="0.3" stroke-dasharray="2 1.5" />
<line x1="72.33181818181822" y1="99.04545454545456" x2="72.33181818181819" y2="54.522727272727295" stroke="#000" stroke-width="0.3" stroke-dasharray="2 1.5" />
<line x1="72.33181818181819" y1="54.522727272727295" x2="116.85454545454547" y2="54.52272727272727" stroke="#000" stroke-width="0.3" />
<polygon points="72.33181818181819,54.522727272727295 116.85454545454547,54.52272727272727 105.72386363636366,36.71363636363637 83.4625,36.71363636363638" fill="none" stroke="#666" stroke-width="0.2" />
<text x="94.59318181818183" y="56.32272727272728" font-size="3" text-anchor="middle" dominant-baseline="central" fill="#000">5</text>
<line x1="116.85454545454549" y1="99.04545454545455" x2="161.37727272727275" y2="99.04545454545455" stroke="#000" stroke-width="0.3" stroke-dasharray="2 1.5" />
<line x1="161.37727272727275" y1="99.04545454545455" x2="161.37727272727275" y2="143.5681818181818" stroke="#000" stroke-width="0.3" />
<polygon points="161.37727272727275,99.04545454545455 161.37727272727275,143.5681818181818 179.18636363636367,132.4375 179.18636363636367,110.17613636363636" fill="none" stroke="#666" stroke-width="0.2" />
<text x="159.57727272727274" y="121.30681818181819" font-size="3" text-anchor="middle" dominant-baseline="central" fill="#000">6</text>
<line x1="161.37727272727275" y1="143.5681818181818" x2="116.85454545454549" y2="99.04545454545455" stroke="#000" stroke-width="0.3" stroke-dasharray="2 1.5" />
<line x1="116.85454545454549" y1="99.04545454545455" x2="161.37727272727275" y2="143.5681818181818" stroke="#000" stroke-width="0.3" stroke-dasharray="2 1.5" />
<line x1="161.37727272727275" y1="143.5681818181818" x2="116.85454545454549" y2="143.5681818181818" stroke="#000" stroke-width="0.3" />
<text x="139.11590909090913" y="143.5681818181818" font-size="3" text-anchor="middle" dominant-baseline="central" fill="#000">1</text>
<line x1="116.85454545454549" y1="143.5681818181818" x2="116.85454545454549" y2="99.04545454545455" stroke="#000" stroke-width="0.3" />
<text x="116.85454545454549" y="121.30681818181819" font-size="3" text-anchor="middle" dominant-baseline="central" fill="#000">4</text>
<line x1="161.37727272727275" y1="99.04545454545455" x2="161.37727272727275" y2="54.52272727272727" stroke="#000" stroke-width="0.3" stroke-dasharray="2 1.5" />
<line x1="161.37727272727275" y1="54.52272727272727" x2="205.9" y2="54.52272727272725" stroke="#000" stroke-width="0.3" />
<polygon points="161.37727272727275,54.52272727272727 205.9,54.52272727272725 194.7693181818182,36.71363636363635 172.50795454545457,36.713636363636354" fill="none" stroke="#666" stroke-width="0.2" />
<text x="183.63863636363638" y="56.32272727272726" font-size="3" text-anchor="middle" dominant-baseline="central" fill="#000">7</text>
<line x1="205.9" y1="54.52272727272725" x2="161.37727272727275" y2="99.04545454545455" stroke="#000" stroke-width="0.3" stroke-dasharray="2 1.5" />
<line x1="161.37727272727275" y1="99.04545454545455" x2="205.9" y2="54.52272727272725" stroke="#000" stroke-width="0.3" stroke-dasharray="2 1.5" />
<line x1="205.9" y1="54.52272727272725" x2="205.9" y2="99.04545454545453" stroke="#000" stroke-width="0.3" />
<text x="205.9" y="76.78409090909089" font-size="3" text-anchor="middle" dominant-baseline="central" fill="#000">2</text>
<line x1="205.9" y1="99.04545454545453" x2="161.37727272727275" y2="99.04545454545455" stroke="#000" stroke-width="0.3" />
<text x="183.63863636363638" y="99.04545454545453" font-size="3" text-anchor="middle" dominant-baseline="central" fill="#000">6</text>
<line x1="161.37727272727275" y1="54.52272727272727" x2="116.85454545454547" y2="54.52272727272727" stroke="#000" stroke-width="0.3" stroke-dasharray="2 1.5" />
<line x1="116.85454545454547" y1="54.52272727272727" x2="116.85454545454547" y2="10" stroke="#000" stroke-width="0.3" />
<text x="116.85454545454547" y="32.26136363636364" font-size="3" text-anchor="middle" dominant-baseline="central" fill="#000">5</text>
<line x1="116.85454545454547" y1="10" x2="161.37727272727275" y2="54.52272727272727" stroke="#000" stroke-width="0.3" stroke-dasharray="2 1.5" />
<line x1="161.37727272727275" y1="54.52272727272727" x2="116.85454545454547" y2="10" stroke="#000" stroke-width="0.3" stroke-dasharray="2 1.5" />
<line x1="116.85454545454547" y1="10" x2="161.37727272727275" y2="10" stroke="#000" stroke-width="0.3" />
<text x="139.1159090909091" y="10" font-size="3" text-anchor="middle" dominant-baseline="central" fill="#000">3</text>
<line x1="161.37727272727275" y1="10" x2="161.37727272727275" y2="54.52272727272727" stroke="#000" stroke-width="0.3" />
<text x="161.37727272727275" y="32.26136363636364" font-size="3" text-anchor="middle" dominant-baseline="central" fill="#000">7</text>
</svg>