<svg xmlns="http://www.w3.org/2000/svg" width="215.9mm" height="279.4mm" viewBox="0 0 215.9 279.4">
<rect x="0" y="0" width="215.9" height="279.4" fill="none" stroke="#ccc" stroke-width="0.15" />
<line x1="106.85951089179402" y1="39.84567278955786" x2="131.30891309424578" y2="39.84567278955786" stroke="#000" stroke-width="0.3" stroke-dasharray="2 1.5" />
<line x1="131.30891309424578" y1="39.84567278955786" x2="125.19658559883477" y2="56.0174409865569" stroke="#000" stroke-width="0.3" />
<polygon points="131.30891309424578,39.84567278955786 125.19658559883477,56.0174409865569 133.19337475148714,54.41942993547154 136.24953849919265,46.33354583697202" fill="none" stroke="#666" stroke-width="0.2" />
<text x="126.56900261521848" y="47.29516318541475" font-size="3" text-anchor="middle" dominant-baseline="central" fill="#000">1</text>
<line x1="125.19658559883477" y1="56.0174409865569" x2="106.85951089179402" y2="39.84567278955786" stroke="#000" stroke-width="0.3" stroke-dasharray="2 1.5" />
<line x1="106.85951089179402" y1="39.84567278955786" x2="125.19658559883477" y2="56.0174409865569" stroke="#000" stroke-width="0.3" stroke-dasharray="2 1.5" />
<line x1="125.19658559883477" y1="56.0174409865569" x2="109.91570345851281" y2="64.10330983549426" stroke="#000" stroke-width="0.3" stroke-dasharray="2 1.5" />
<line x1="109.91570345851281" y1="64.10330983549426" x2="106.85951089179402" y2="39.84567278955786" stroke="#000" stroke-width="0.3" stroke-dasharray="2 1.5" />
<line x1="106.85951089179402" y1="39.84567278955786" x2="109.91570345851281" y2="64.10330983549426" stroke="#000" stroke-width="0.3" stroke-dasharray="2 1.5" />
<line x1="109.91570345851281" y1="64.10330983549426" x2="93.10673079866451" y2="60.06040591020737" stroke="#000" stroke-width="0.3" />
<polygon points="109.91570345851281,64.10330983549426 93.10673079866451,60.06040591020737 95.69181239351184,67.79472095546842 104.09629872343598,69.81617291811185" fill="none" stroke="#666" stroke-width="0.2" />
<text x="101.9321498420883" y="60.331767689258605" font-size="3" text-anchor="middle" dominant-baseline="central" fill="#000">2</text>
<line x1="93.10673079866451" y1="60.06040591020737" x2="106.85951089179402" y2="39.84567278955786" stroke="#000" stroke-width="0.3" stroke-dasharray="2 1.5" />
<line x1="106.85951089179402" y1="39.84567278955786" x2="93.10673079866451" y2="60.06040591020737" stroke="#000" stroke-width="0.3" stroke-dasharray="2 1.5" />
<line x1="93.10673079866451" y1="60.06040591020737" x2="83.17416115389948" y2="45.91011636262149" stroke="#000" stroke-width="0.3" />
<polygon points="93.10673079866451,60.06040591020737 83.17416115389948,45.91011636262149 79.99718774605638,53.42071660742398 84.96347256843892,60.495861381216926" fill="none" stroke="#666" stroke-width="0.2" />
<text x="89.61372357232284" y="51.95111746892712" font-size="3" text-anchor="middle" dominant-baseline="central" fill="#000">3</text>
<line x1="83.17416115389948" y1="45.91011636262149" x2="106.85951089179402" y2="39.84567278955786" stroke="#000" stroke-width="0.3" stroke-dasharray="2 1.5" />
<line x1="106.85951089179402" y1="39.84567278955786" x2="83.17416115389948" y2="45.91011636262149" stroke="#000" stroke-width="0.3" stroke-dasharray="2 1.5" />
<line x1="83.17416115389948" y1="45.91011636262149" x2="85.08422170864425" y2="28.727616465754476" stroke="#000" stroke-width="0.3" />
<polygon points="83.17416115389948,45.91011636262149 85.08422170864425,28.727616465754476 77.73370661121126,32.25921721807332 76.77867633383886,40.85046716650682" fill="none" stroke="#666" stroke-width="0.2" />
<text x="85.91817193636317" y="37.517735095491176" font-size="3" text-anchor="middle" dominant-baseline="central" fill="#000">4</text>
<line x1="85.08422170864425" y1="28.727616465754476" x2="106.85951089179402" y2="39.84567278955786" stroke="#000" stroke-width="0.3" stroke-dasharray="2 1.5" />
<line x1="106.85951089179402" y1="39.84567278955786" x2="85.08422170864425" y2="28.727616465754476" stroke="#000" stroke-width="0.3" stroke-dasharray="2 1.5" />
<line x1="85.08422170864425" y1="28.727616465754476" x2="97.88194738850247" y2="17.104155214830776" stroke="#000" stroke-width="0.3" />
<polygon points="85.08422170864425,28.727616465754476 97.88194738850247,17.104155214830776 90.03313146816842,14.890930255618418 83.63426862823931,20.702660881080263" fill="none" stroke="#666" stroke-width="0.2" />
<text x="92.69327780941418" y="24.24833931843565" font-size="3" text-anchor="middle" dominant-baseline="central" fill="#000">5</text>
<line x1="97.88194738850247" y1="17.104155214830776" x2="106.85951089179402" y2="39.84567278955786" stroke="#000" stroke-width="0.3" stroke-dasharray="2 1.5" />
<line x1="106.85951089179402" y1="39.84567278955786" x2="97.88194738850247" y2="17.104155214830776" stroke="#000" stroke-width="0.3" stroke-dasharray="2 1.5" />
<line x1="97.88194738850247" y1="17.104155214830776" x2="115.1684378887508" y2="16.851409861855526" stroke="#000" stroke-width="0.3" />
<polygon points="97.88194738850247,17.104155214830776 115.1684378887508,16.851409861855526 110.74571712249862,10 102.10247187237445,10.126372676487627" fill="none" stroke="#666" stroke-width="0.2" />
<text x="106.55150758185022" y="18.77759017355396" font-size="3" text-anchor="middle" dominant-baseline="central" fill="#000">6</text>
<line x1="115.1684378887508" y1="16.851409861855526" x2="106.85951089179402" y2="39.84567278955786" stroke="#000" stroke-width="0.3" />
<polygon points="115.1684378887508,16.851409861855526 106.85951089179402,39.84567278955786 118.13444781211413,37.42067785641499 122.28891131059254,25.92354639256382" fill="none" stroke="#666" stroke-width="0.2" />
<text x="109.32110542367263" y="27.736826799212984" font-size="3" text-anchor="middle" dominant-baseline="central" fill="#000">7</text>
<line x1="106.85951089179402" y1="39.84567278955786" x2="125.19658559883477" y2="23.67390459255882" stroke="#000" stroke-width="0.3" />
<text x="116.0280482453144" y="31.75978869105834" font-size="3" text-anchor="middle" dominant-baseline="central" fill="#000">7</text>
<line x1="125.19658559883477" y1="23.67390459255882" x2="131.30891309424578" y2="39.84567278955786" stroke="#000" stroke-width="0.3" />
<polygon points="125.19658559883477,23.67390459255882 131.30891309424578,39.84567278955786 136.24953849919265,33.3577997421437 133.19337475148714,25.271915643644178" fill="none" stroke="#666" stroke-width="0.2" />
<text x="126.56900261521848" y="32.39618239370097" font-size="3" text-anchor="middle" dominant-baseline="central" fill="#000">8</text>
<line x1="131.30891309424578" y1="39.84567278955786" x2="106.85951089179402" y2="39.84567278955786" stroke="#000" stroke-width="0.3" stroke-dasharray="2 1.5" />
<line x1="137.47925557249448" y1="43.850984955863936" x2="157.0435421084197" y2="58.51427109497574" stroke="#000" stroke-width="0.3" stroke-dasharray="2 1.5" />
<line x1="157.0435421084197" y1="58.51427109497574" x2="139.67320724787635" y2="75.72022166127243" stroke="#000" stroke-width="0.3" stroke-dasharray="2 1.5" />
<line x1="139.67320724787635" y1="75.72022166127243" x2="137.47925557249448" y2="43.850984955863936" stroke="#000" stroke-width="0.3" stroke-dasharray="2 1.5" />
<line x1="137.47925557249448" y1="43.850984955863936" x2="139.67320724787635" y2="75.72022166127243" stroke="#000" stroke-width="0.3" stroke-dasharray="2 1.5" />
<line x1="139.67320724787635" y1="75.72022166127243" x2="125.19658559883477" y2="56.0174409865569" stroke="#000" stroke-width="0.3" stroke-dasharray="2 1.5" />
<line x1="125.19658559883477" y1="56.0174409865569" x2="137.47925557249448" y2="43.850984955863936" stroke="#000" stroke-width="0.3" />
<text x="131.33792058566462" y="49.934212971210414" font-size="3" text-anchor="middle" dominant-baseline="central" fill="#000">1</text>
<line x1="125.19658559883477" y1="56.0174409865569" x2="139.67320724787635" y2="75.72022166127243" stroke="#000" stroke-width="0.3" stroke-dasharray="2 1.5" />
<line x1="139.67320724787635" y1="75.72022166127243" x2="118.06278738062124" y2="87.15538765124387" stroke="#000" stroke-width="0.3" />
<polygon points="139.67320724787635,75.72022166127243 118.06278738062124,87.15538765124387 128.0394587434236,92.94076410065306 138.84466867705115,87.22318110566734" fill="none" stroke="#666" stroke-width="0.2" />
<text x="128.0261240196991" y="79.84681460100198" font-size="3" text-anchor="middle" dominant-baseline="central" fill="#000">9</text>
<line x1="118.06278738062124" y1="87.15538765124387" x2="125.19658559883477" y2="56.0174409865569" stroke="#000" stroke-width="0.3" stroke-dasharray="2 1.5" />
<line x1="125.19658559883477" y1="56.0174409865569" x2="118.06278738062124" y2="87.15538765124387" stroke="#000" stroke-width="0.3" stroke-dasharray="2 1.5" />
<line x1="118.06278738062124" y1="87.15538765124387" x2="109.91570345851281" y2="64.10330983549426" stroke="#000" stroke-width="0.3" stroke-dasharray="2 1.5" />
<line x1="109.91570345851281" y1="64.10330983549426" x2="125.19658559883477" y2="56.0174409865569" stroke="#000" stroke-width="0.3" stroke-dasharray="2 1.5" />
<line x1="109.91570345851281" y1="64.10330983549426" x2="118.06278738062124" y2="87.15538765124387" stroke="#000" stroke-width="0.3" stroke-dasharray="2 1.5" />
<line x1="118.06278738062124" y1="87.15538765124387" x2="94.0661265144705" y2="91.83871289429531" stroke="#000" stroke-width="0.3" />
<polygon points="118.06278738062124,87.15538765124387 94.0661265144705,91.83871289429531 101.93862182822876,100.26654592999274 113.93695226130413,97.92488330846703" fill="none" stroke="#666" stroke-width="0.2" />
<text x="105.7196638369541" y="87.73038173824241" font-size="3" text-anchor="middle" dominant-baseline="central" fill="#000">10</text>
<line x1="94.0661265144705" y1="91.83871289429531" x2="109.91570345851281" y2="64.10330983549426" stroke="#000" stroke-width="0.3" stroke-dasharray="2 1.5" />
<line x1="109.91570345851281" y1="64.10330983549426" x2="94.0661265144705" y2="91.83871289429531" stroke="#000" stroke-width="0.3" stroke-dasharray="2 1.5" />
<line x1="94.0661265144705" y1="91.83871289429531" x2="92.94750499103638" y2="67.41493704835467" stroke="#000" stroke-width="0.3" stroke-dasharray="2 1.5" />
<line x1="92.94750499103638" y1="67.41493704835467" x2="109.91570345851281" y2="64.10330983549426" stroke="#000" stroke-width="0.3" />
<text x="101.43160422477459" y="65.75912344192446" font-size="3" text-anchor="middle" dominant-baseline="central" fill="#000">2</text>
<line x1="92.94750499103638" y1="67.41493704835467" x2="94.0661265144705" y2="91.83871289429531" stroke="#000" stroke-width="0.3" stroke-dasharray="2 1.5" />
<line x1="94.0661265144705" y1="91.83871289429531" x2="69.74183048145717" y2="89.36851238510887" stroke="#000" stroke-width="0.3" />
<polygon points="94.0661265144705,91.83871289429531 69.74183048145717,89.36851238510887 74.83482428603592,99.71578092561083 86.9969723025426,100.95088118020405" fill="none" stroke="#666" stroke-width="0.2" />
<text x="82.08583819660667" y="88.81282313503955" font-size="3" text-anchor="middle" dominant-baseline="central" fill="#000">11</text>
<line x1="69.74183048145717" y1="89.36851238510887" x2="92.94750499103638" y2="67.41493704835467" stroke="#000" stroke-width="0.3" stroke-dasharray="2 1.5" />
<line x1="92.94750499103638" y1="67.41493704835467" x2="69.74183048145717" y2="89.36851238510887" stroke="#000" stroke-width="0.3" stroke-dasharray="2 1.5" />
<line x1="69.74183048145717" y1="89.36851238510887" x2="75.74763198355672" y2="65.66822512156222" stroke="#000" stroke-width="0.3" stroke-dasharray="2 1.5" />
<line x1="75.74763198355672" y1="65.66822512156222" x2="92.94750499103638" y2="67.41493704835467" stroke="#000" stroke-width="0.3" />
<text x="84.34756848729654" y="66.54158108495844" font-size="3" text-anchor="middle" dominant-baseline="central" fill="#000">3</text>
<line x1="75.74763198355672" y1="65.66822512156222" x2="69.74183048145717" y2="89.36851238510887" stroke="#000" stroke-width="0.3" stroke-dasharray="2 1.5" />
<line x1="69.74183048145717" y1="89.36851238510887" x2="47.17660430861261" y2="79.95661375488424" stroke="#000" stroke-width="0.3" />
<polygon points="69.74183048145717,89.36851238510887 47.17660430861261,79.95661375488424 49.05315139973389,91.33567888157822 60.33576448615618,96.04162819669055" fill="none" stroke="#666" stroke-width="0.2" />
<text x="59.15213484938089" y="83.0012788073062" font-size="3" text-anchor="middle" dominant-baseline="central" fill="#000">12</text>
<line x1="47.17660430861261" y1="79.95661375488424" x2="75.74763198355672" y2="65.66822512156222" stroke="#000" stroke-width="0.3" stroke-dasharray="2 1.5" />
<line x1="75.74763198355672" y1="65.66822512156222" x2="47.17660430861261" y2="79.95661375488424" stroke="#000" stroke-width="0.3" stroke-dasharray="2 1.5" />
<line x1="47.17660430861261" y1="79.95661375488424" x2="59.791601193627976" y2="59.01302298642965" stroke="#000" stroke-width="0.3" stroke-dasharray="2 1.5" />
<line x1="59.791601193627976" y1="59.01302298642965" x2="75.74763198355672" y2="65.66822512156222" stroke="#000" stroke-width="0.3" />
<text x="67.76961658859234" y="62.34062405399593" font-size="3" text-anchor="middle" dominant-baseline="central" fill="#000">4</text>
<line x1="59.791601193627976" y1="59.01302298642965" x2="47.17660430861261" y2="79.95661375488424" stroke="#000" stroke-width="0.3" stroke-dasharray="2 1.5" />
<line x1="47.17660430861261" y1="79.95661375488424" x2="28.30620835574479" y2="64.41050734076101" stroke="#000" stroke-width="0.3" />
<polygon points="47.17660430861261,79.95661375488424 28.30620835574479,64.41050734076101 26.805364778312452,75.84519232543894 36.240562754746364,83.61824553250057" fill="none" stroke="#666" stroke-width="0.2" />
<text x="38.88593294733724" y="70.79429497666867" font-size="3" text-anchor="middle" dominant-baseline="central" fill="#000">13</text>
<line x1="28.30620835574479" y1="64.41050734076101" x2="59.791601193627976" y2="59.01302298642965" stroke="#000" stroke-width="0.3" stroke-dasharray="2 1.5" />
<line x1="59.791601193627976" y1="59.01302298642965" x2="28.30620835574479" y2="64.41050734076101" stroke="#000" stroke-width="0.3" stroke-dasharray="2 1.5" />
<line x1="28.30620835574479" y1="64.41050734076101" x2="46.4482267305808" y2="48.02025300031938" stroke="#000" stroke-width="0.3" stroke-dasharray="2 1.5" />
<line x1="46.4482267305808" y1="48.02025300031938" x2="59.791601193627976" y2="59.01302298642965" stroke="#000" stroke-width="0.3" />
<text x="53.11991396210439" y="53.516637993374516" font-size="3" text-anchor="middle" dominant-baseline="central" fill="#000">5</text>
<line x1="46.4482267305808" y1="48.02025300031938" x2="28.30620835574479" y2="64.41050734076101" stroke="#000" stroke-width="0.3" stroke-dasharray="2 1.5" />
<line x1="28.30620835574479" y1="64.41050734076101" x2="14.74952077544609" y2="44.06377566445909" stroke="#000" stroke-width="0.3" />
<polygon points="28.30620835574479,64.41050734076101 14.74952077544609,44.06377566445909 10,54.57313361565405 16.778343790149336,64.74649945380501" fill="none" stroke="#666" stroke-width="0.2" />
<text x="23.02582008671942" y="53.23907875070806" font-size="3" text-anchor="middle" dominant-baseline="central" fill="#000">14</text>
<line x1="14.74952077544609" y1="44.06377566445909" x2="46.4482267305808" y2="48.02025300031938" stroke="#000" stroke-width="0.3" stroke-dasharray="2 1.5" />
<line x1="46.4482267305808" y1="48.02025300031938" x2="14.74952077544609" y2="44.06377566445909" stroke="#000" stroke-width="0.3" stroke-dasharray="2 1.5" />
<line x1="14.74952077544609" y1="44.06377566445909" x2="36.862187297372586" y2="33.63295019494255" stroke="#000" stroke-width="0.3" />
<polygon points="14.74952077544609,44.06377566445909 36.862187297372586,33.63295019494255 27.16169047908435,27.395589953551085 16.105357218121103,32.611002688309355" fill="none" stroke="#666" stroke-width="0.2" />
<text x="26.573787067839707" y="40.47633063799179" font-size="3" text-anchor="middle" dominant-baseline="central" fill="#000">15</text>
<line x1="36.862187297372586" y1="33.63295019494255" x2="46.4482267305808" y2="48.02025300031938" stroke="#000" stroke-width="0.3" />
<text x="41.65520701397669" y="40.82660159763097" font-size="3" text-anchor="middle" dominant-baseline="central" fill="#000">6</text>
<line x1="145.71002913549844" y1="28.647662931280564" x2="168.68359321435648" y2="37.01351579874408" stroke="#000" stroke-width="0.3" />
<text x="157.19681117492746" y="32.83058936501232" font-size="3" text-anchor="middle" dominant-baseline="central" fill="#000">15</text>
<line x1="168.68359321435648" y1="37.01351579874408" x2="157.0435421084197" y2="58.51427109497574" stroke="#000" stroke-width="0.3" />
<polygon points="168.68359321435648,37.01351579874408 157.0435421084197,58.51427109497574 168.55385700339656,57.795102713292536 174.37388255636498,47.044725065176706" fill="none" stroke="#666" stroke-width="0.2" />
<text x="161.28065126888276" y="46.90693621669151" font-size="3" text-anchor="middle" dominant-baseline="central" fill="#000">16</text>
<line x1="157.0435421084197" y1="58.51427109497574" x2="145.71002913549844" y2="28.647662931280564" stroke="#000" stroke-width="0.3" stroke-dasharray="2 1.5" />
<line x1="145.71002913549844" y1="28.647662931280564" x2="157.0435421084197" y2="58.51427109497574" stroke="#000" stroke-width="0.3" stroke-dasharray="2 1.5" />
<line x1="157.0435421084197" y1="58.51427109497574" x2="137.47925557249448" y2="43.850984955863936" stroke="#000" stroke-width="0.3" stroke-dasharray="2 1.5" />
<line x1="137.47925557249448" y1="43.850984955863936" x2="145.71002913549844" y2="28.647662931280564" stroke="#000" stroke-width="0.3" />
<text x="141.59464235399645" y="36.24932394357225" font-size="3" text-anchor="middle" dominant-baseline="central" fill="#000">8</text>
<line x1="157.0435421084197" y1="58.51427109497574" x2="171.52014259555162" y2="78.21709592780681" stroke="#000" stroke-width="0.3" stroke-dasharray="2 1.5" />
<line x1="171.52014259555162" y1="78.21709592780681" x2="159.23744942646874" y2="90.38352854146935" stroke="#000" stroke-width="0.3" stroke-dasharray="2 1.5" />
<line x1="159.23744942646874" y1="90.38352854146935" x2="157.0435421084197" y2="58.51427109497574" stroke="#000" stroke-width="0.3" stroke-dasharray="2 1.5" />
<line x1="157.0435421084197" y1="58.51427109497574" x2="159.23744942646874" y2="90.38352854146935" stroke="#000" stroke-width="0.3" stroke-dasharray="2 1.5" />
<line x1="159.23744942646874" y1="90.38352854146935" x2="139.67320724787635" y2="75.72022166127243" stroke="#000" stroke-width="0.3" stroke-dasharray="2 1.5" />
<line x1="139.67320724787635" y1="75.72022166127243" x2="157.0435421084197" y2="58.51427109497574" stroke="#000" stroke-width="0.3" stroke-dasharray="2 1.5" />
<line x1="139.67320724787635" y1="75.72022166127243" x2="159.23744942646874" y2="90.38352854146935" stroke="#000" stroke-width="0.3" stroke-dasharray="2 1.5" />
<line x1="159.23744942646874" y1="90.38352854146935" x2="151.0066511230172" y2="105.58683717204467" stroke="#000" stroke-width="0.3" />
<polygon points="159.23744942646874,90.38352854146935 151.0066511230172,105.58683717204467 159.14567415111023,105.07832933578146 163.261073302836,97.4766750204938" fill="none" stroke="#666" stroke-width="0.2" />
<text x="153.5391360936729" y="97.12822154177988" font-size="3" text-anchor="middle" dominant-baseline="central" fill="#000">17</text>
<line x1="151.0066511230172" y1="105.58683717204467" x2="139.67320724787635" y2="75.72022166127243" stroke="#000" stroke-width="0.3" stroke-dasharray="2 1.5" />
<line x1="139.67320724787635" y1="75.72022166127243" x2="151.0066511230172" y2="105.58683717204467" stroke="#000" stroke-width="0.3" stroke-dasharray="2 1.5" />
<line x1="151.0066511230172" y1="105.58683717204467" x2="128.03308016234075" y2="97.22093582359352" stroke="#000" stroke-width="0.3" stroke-dasharray="2 1.5" />
<line x1="128.03308016234075" y1="97.22093582359352" x2="139.67320724787635" y2="75.72022166127243" stroke="#000" stroke-width="0.3" />
<text x="133.85314370510855" y="86.47057874243298" font-size="3" text-anchor="middle" dominant-baseline="central" fill="#000">9</text>
<line x1="128.03308016234075" y1="97.22093582359352" x2="151.0066511230172" y2="105.58683717204467" stroke="#000" stroke-width="0.3" stroke-dasharray="2 1.5" />
<line x1="151.0066511230172" y1="105.58683717204467" x2="147.53383515358203" y2="122.52278070262669" stroke="#000" stroke-width="0.3" />
<polygon points="151.0066511230172,105.58683717204467 147.53383515358203,122.52278070262669 155.17641655817363,119.67792120775526 156.91282454289123,111.20994944246425" fill="none" stroke="#666" stroke-width="0.2" />
<text x="147.50693320124776" y="113.69323174517041" font-size="3" text-anchor="middle" dominant-baseline="central" fill="#000">18</text>
<line x1="147.53383515358203" y1="122.52278070262669" x2="128.03308016234075" y2="97.22093582359352" stroke="#000" stroke-width="0.3" stroke-dasharray="2 1.5" />
<line x1="128.03308016234075" y1="97.22093582359352" x2="147.53383515358203" y2="122.52278070262669" stroke="#000" stroke-width="0.3" stroke-dasharray="2 1.5" />
<line x1="147.53383515358203" y1="122.52278070262669" x2="123.1217995501783" y2="121.17198153783843" stroke="#000" stroke-width="0.3" stroke-dasharray="2 1.5" />
<line x1="123.1217995501783" y1="121.17198153783843" x2="128.03308016234075" y2="97.22093582359352" stroke="#000" stroke-width="0.3" />
<text x="125.57743985625953" y="109.19645868071598" font-size="3" text-anchor="middle" dominant-baseline="central" fill="#000">10</text>
<line x1="123.1217995501783" y1="121.17198153783843" x2="147.53383515358203" y2="122.52278070262669" stroke="#000" stroke-width="0.3" stroke-dasharray="2 1.5" />
<line x1="147.53383515358203" y1="122.52278070262669" x2="149.11692683537103" y2="139.73848442787934" stroke="#000" stroke-width="0.3" />
<polygon points="147.53383515358203,122.52278070262669 149.11692683537103,139.73848442787934 155.60743540502483,134.80132182385057 154.81588956413034,126.19346996122425" fill="none" stroke="#666" stroke-width="0.2" />
<text x="146.5329434253938" y="131.29545841559445" font-size="3" text-anchor="middle" dominant-baseline="central" fill="#000">19</text>
<line x1="149.11692683537103" y1="139.73848442787934" x2="123.1217995501783" y2="121.17198153783843" stroke="#000" stroke-width="0.3" stroke-dasharray="2 1.5" />
<line x1="123.1217995501783" y1="121.17198153783843" x2="149.11692683537103" y2="139.73848442787934" stroke="#000" stroke-width="0.3" stroke-dasharray="2 1.5" />
<line x1="149.11692683537103" y1="139.73848442787934" x2="125.36060606848304" y2="145.518665366049" stroke="#000" stroke-width="0.3" stroke-dasharray="2 1.5" />
<line x1="125.36060606848304" y1="145.518665366049" x2="123.1217995501783" y2="121.17198153783843" stroke="#000" stroke-width="0.3" />
<text x="124.24120280933067" y="133.34532345194373" font-size="3" text-anchor="middle" dominant-baseline="central" fill="#000">11</text>
<line x1="125.36060606848304" y1="145.518665366049" x2="149.11692683537103" y2="139.73848442787934" stroke="#000" stroke-width="0.3" stroke-dasharray="2 1.5" />
<line x1="149.11692683537103" y1="139.73848442787934" x2="155.62011364401957" y2="155.75707348436137" stroke="#000" stroke-width="0.3" />
<polygon points="149.11692683537103,139.73848442787934 155.62011364401957,155.75707348436137 160.40175256445025,149.15115149678144 157.15015916012595,141.14185696854042" fill="none" stroke="#666" stroke-width="0.2" />
<text x="150.70072197325442" y="148.42486753411944" font-size="3" text-anchor="middle" dominant-baseline="central" fill="#000">20</text>
<line x1="155.62011364401957" y1="155.75707348436137" x2="125.36060606848304" y2="145.518665366049" stroke="#000" stroke-width="0.3" stroke-dasharray="2 1.5" />
<line x1="125.36060606848304" y1="145.518665366049" x2="155.62011364401957" y2="155.75707348436137" stroke="#000" stroke-width="0.3" stroke-dasharray="2 1.5" />
<line x1="155.62011364401957" y1="155.75707348436137" x2="134.55752264666137" y2="168.1723624928158" stroke="#000" stroke-width="0.3" stroke-dasharray="2 1.5" />
<line x1="134.55752264666137" y1="168.1723624928158" x2="125.36060606848304" y2="145.518665366049" stroke="#000" stroke-width="0.3" />
<text x="129.9590643575722" y="156.8455139294324" font-size="3" text-anchor="middle" dominant-baseline="central" fill="#000">12</text>
<line x1="134.55752264666137" y1="168.1723624928158" x2="155.62011364401957" y2="155.75707348436137" stroke="#000" stroke-width="0.3" stroke-dasharray="2 1.5" />
<line x1="155.62011364401957" y1="155.75707348436137" x2="166.4855141045034" y2="169.20436714747234" stroke="#000" stroke-width="0.3" />
<polygon points="155.62011364401957,155.75707348436137 166.4855141045034,169.20436714747234 169.14808145462683,161.49638354750107 163.71538122438488,154.77273671594557" fill="none" stroke="#666" stroke-width="0.2" />
<text x="159.65272969827208" y="163.61198699541558" font-size="3" text-anchor="middle" dominant-baseline="central" fill="#000">21</text>
<line x1="166.4855141045034" y1="169.20436714747234" x2="134.55752264666137" y2="168.1723624928158" stroke="#000" stroke-width="0.3" stroke-dasharray="2 1.5" />
<line x1="134.55752264666137" y1="168.1723624928158" x2="166.4855141045034" y2="169.20436714747234" stroke="#000" stroke-width="0.3" stroke-dasharray="2 1.5" />
<line x1="166.4855141045034" y1="169.20436714747234" x2="149.92350121013416" y2="187.18972221608303" stroke="#000" stroke-width="0.3" stroke-dasharray="2 1.5" />
<line x1="149.92350121013416" y1="187.18972221608303" x2="134.55752264666137" y2="168.1723624928158" stroke="#000" stroke-width="0.3" />
<text x="142.24051192839778" y="177.6810423544494" font-size="3" text-anchor="middle" dominant-baseline="central" fill="#000">13</text>
<line x1="149.92350121013416" y1="187.18972221608303" x2="166.4855141045034" y2="169.20436714747234" stroke="#000" stroke-width="0.3" stroke-dasharray="2 1.5" />
<line x1="166.4855141045034" y1="169.20436714747234" x2="180.7810197455107" y2="178.92677181383735" stroke="#000" stroke-width="0.3" />
<polygon points="166.4855141045034,169.20436714747234 180.7810197455107,178.92677181383735 181.09610520180487,170.77796839084317 173.94835238130122,165.91676605766068" fill="none" stroke="#666" stroke-width="0.2" />
<text x="172.62100488426015" y="175.55396645756088" font-size="3" text-anchor="middle" dominant-baseline="central" fill="#000">22</text>
<line x1="180.7810197455107" y1="178.92677181383735" x2="149.92350121013416" y2="187.18972221608303" stroke="#000" stroke-width="0.3" stroke-dasharray="2 1.5" />
<line x1="149.92350121013416" y1="187.18972221608303" x2="180.7810197455107" y2="178.92677181383735" stroke="#000" stroke-width="0.3" stroke-dasharray="2 1.5" />
<line x1="180.7810197455107" y1="178.92677181383735" x2="170.1404122754445" y2="200.93925948228173" stroke="#000" stroke-width="0.3" />
<polygon points="180.7810197455107,178.92677181383735 170.1404122754445,200.93925948228173 181.6055592103388,199.69238055319707 186.9258629453719,188.68613671897492" fill="none" stroke="#666" stroke-width="0.2" />
<text x="173.84012361978392" y="189.14963815079162" font-size="3" text-anchor="middle" dominant-baseline="central" fill="#000">23</text>
<line x1="170.1404122754445" y1="200.93925948228173" x2="149.92350121013416" y2="187.18972221608303" stroke="#000" stroke-width="0.3" />
<text x="160.03195674278933" y="194.0644908491824" font-size="3" text-anchor="middle" dominant-baseline="central" fill="#000">14</text>
<line x1="178.65400238529028" y1="47.079181472281405" x2="186.80103789403697" y2="70.13125194555266" stroke="#000" stroke-width="0.3" />
<text x="182.72752013966362" y="58.605216708917034" font-size="3" text-anchor="middle" dominant-baseline="central" fill="#000">23</text>
<line x1="186.80103789403697" y1="70.13125194555266" x2="171.52014259555162" y2="78.21709592780681" stroke="#000" stroke-width="0.3" />
<polygon points="186.80103789403697,70.13125194555266 171.52014259555162,78.21709592780681 178.57470401307464,82.30799305163741 186.2151516623173,78.26507106051032" fill="none" stroke="#666" stroke-width="0.2" />
<text x="178.31872105589355" y="72.58318170892386" font-size="3" text-anchor="middle" dominant-baseline="central" fill="#000">24</text>
<line x1="171.52014259555162" y1="78.21709592780681" x2="178.65400238529028" y2="47.079181472281405" stroke="#000" stroke-width="0.3" stroke-dasharray="2 1.5" />
<line x1="178.65400238529028" y1="47.079181472281405" x2="171.52014259555162" y2="78.21709592780681" stroke="#000" stroke-width="0.3" stroke-dasharray="2 1.5" />
<line x1="171.52014259555162" y1="78.21709592780681" x2="157.0435421084197" y2="58.51427109497574" stroke="#000" stroke-width="0.3" stroke-dasharray="2 1.5" />
<line x1="157.0435421084197" y1="58.51427109497574" x2="178.65400238529028" y2="47.079181472281405" stroke="#000" stroke-width="0.3" />
<text x="167.848772246855" y="52.79672628362857" font-size="3" text-anchor="middle" dominant-baseline="central" fill="#000">16</text>
<line x1="181.47350536736414" y1="100.54877382244675" x2="159.23744942646874" y2="90.38352854146935" stroke="#000" stroke-width="0.3" stroke-dasharray="2 1.5" />
<line x1="159.23744942646874" y1="90.38352854146935" x2="171.52014259555162" y2="78.21709592780681" stroke="#000" stroke-width="0.3" stroke-dasharray="2 1.5" />
<line x1="171.52014259555162" y1="78.21709592780681" x2="181.47350536736414" y2="100.54877382244675" stroke="#000" stroke-width="0.3" stroke-dasharray="2 1.5" />
<line x1="181.47350536736414" y1="100.54877382244675" x2="158.07280519586334" y2="107.63259338118584" stroke="#000" stroke-width="0.3" stroke-dasharray="2 1.5" />
<line x1="158.07280519586334" y1="107.63259338118584" x2="159.23744942646874" y2="90.38352854146935" stroke="#000" stroke-width="0.3" />
<text x="158.65512731116604" y="99.0080609613276" font-size="3" text-anchor="middle" dominant-baseline="central" fill="#000">17</text>
<line x1="159.23744942646874" y1="90.38352854146935" x2="181.47350536736414" y2="100.54877382244675" stroke="#000" stroke-width="0.3" stroke-dasharray="2 1.5" />
<line x1="181.47350536736414" y1="100.54877382244675" x2="168.60846691840638" y2="121.33976180127789" stroke="#000" stroke-width="0.3" stroke-dasharray="2 1.5" />
<line x1="168.60846691840638" y1="121.33976180127789" x2="158.07280519586334" y2="107.63259338118584" stroke="#000" stroke-width="0.3" />
<text x="163.34063605713487" y="114.48617759123186" font-size="3" text-anchor="middle" dominant-baseline="central" fill="#000">18</text>
<line x1="158.07280519586334" y1="107.63259338118584" x2="181.47350536736414" y2="100.54877382244675" stroke="#000" stroke-width="0.3" stroke-dasharray="2 1.5" />
<line x1="181.47350536736414" y1="100.54877382244675" x2="185.5766599968292" y2="124.65141662658655" stroke="#000" stroke-width="0.3" stroke-dasharray="2 1.5" />
<line x1="185.5766599968292" y1="124.65141662658655" x2="168.60846691840638" y2="121.33976180127789" stroke="#000" stroke-width="0.3" />
<text x="177.09256345761779" y="122.99558921393222" font-size="3" text-anchor="middle" dominant-baseline="central" fill="#000">19</text>
<line x1="168.60846691840638" y1="121.33976180127789" x2="181.47350536736414" y2="100.54877382244675" stroke="#000" stroke-width="0.3" stroke-dasharray="2 1.5" />
<line x1="181.47350536736414" y1="100.54877382244675" x2="200.49328349887298" y2="115.91179550625755" stroke="#000" stroke-width="0.3" stroke-dasharray="2 1.5" />
<line x1="200.49328349887298" y1="115.91179550625755" x2="185.5766599968292" y2="124.65141662658655" stroke="#000" stroke-width="0.3" />
<text x="193.0349717478511" y="120.28160606642206" font-size="3" text-anchor="middle" dominant-baseline="central" fill="#000">20</text>
<line x1="185.5766599968292" y1="124.65141662658655" x2="181.47350536736414" y2="100.54877382244675" stroke="#000" stroke-width="0.3" stroke-dasharray="2 1.5" />
<line x1="181.47350536736414" y1="100.54877382244675" x2="205.9" y2="99.49064905708818" stroke="#000" stroke-width="0.3" stroke-dasharray="2 1.5" />
<line x1="205.9" y1="99.49064905708818" x2="200.49328349887298" y2="115.91179550625755" stroke="#000" stroke-width="0.3" />
<text x="203.19664174943648" y="107.70122228167287" font-size="3" text-anchor="middle" dominant-baseline="central" fill="#000">21</text>
<line x1="200.49328349887298" y1="115.91179550625755" x2="181.47350536736414" y2="100.54877382244675" stroke="#000" stroke-width="0.3" stroke-dasharray="2 1.5" />
<line x1="181.47350536736414" y1="100.54877382244675" x2="199.09351525201038" y2="83.59856299502536" stroke="#000" stroke-width="0.3" />
<polygon points="181.47350536736414,100.54877382244675 199.09351525201038,83.59856299502536 187.90842844988026,80.78811174802222 179.0984235075572,89.26321716173291" fill="none" stroke="#666" stroke-width="0.2" />
<text x="191.53140792559626" y="93.37087754384441" font-size="3" text-anchor="middle" dominant-baseline="central" fill="#000">25</text>
<line x1="199.09351525201038" y1="83.59856299502536" x2="205.9" y2="99.49064905708818" stroke="#000" stroke-width="0.3" />
<text x="202.4967576260052" y="91.54460602605677" font-size="3" text-anchor="middle" dominant-baseline="central" fill="#000">22</text>
<line x1="205.9" y1="99.49064905708818" x2="181.47350536736414" y2="100.54877382244675" stroke="#000" stroke-width="0.3" stroke-dasharray="2 1.5" />
<line x1="181.47350536736414" y1="100.54877382244675" x2="171.52014259555162" y2="78.21709592780681" stroke="#000" stroke-width="0.3" stroke-dasharray="2 1.5" />
<line x1="171.52014259555162" y1="78.21709592780681" x2="188.77949837897435" y2="77.2164601449872" stroke="#000" stroke-width="0.3" />
<text x="180.14982048726299" y="77.716778036397" font-size="3" text-anchor="middle" dominant-baseline="central" fill="#000">24</text>
<line x1="188.77949837897435" y1="77.2164601449872" x2="181.47350536736414" y2="100.54877382244675" stroke="#000" stroke-width="0.3" />
<text x="185.12650187316925" y="88.88261698371697" font-size="3" text-anchor="middle" dominant-baseline="central" fill="#000">25</text>
</svg>