<svg xmlns="http://www.w3.org/2000/svg" width="215.9mm" height="279.4mm" viewBox="0 0 215.9 279.4">
<rect x="0" y="0" width="215.9" height="279.4" fill="none" stroke="#ccc" stroke-width="0.15" />
<line x1="40.55959077365535" y1="51.12547568258717" x2="81.9392771145434" y2="51.12547568258717" stroke="#000" stroke-width="0.3" stroke-dasharray="2 1.5" />
<line x1="81.9392771145434" y1="51.12547568258717" x2="61.24943418234066" y2="63.070762344082816" stroke="#000" stroke-width="0.3" stroke-dasharray="2 1.5" />
<line x1="61.24943418234066" y1="63.070762344082816" x2="40.55959077365535" y2="51.12547568258717" stroke="#000" stroke-width="0.3" />
<polygon points="61.24943418234066,63.070762344082816 40.55959077365535,51.12547568258717 40.953936961228415,62.3877347114352 51.29885866557106,68.36037804218303" fill="none" stroke="#666" stroke-width="0.2" />
<text x="51.804512477998" y="55.539273286523006" font-size="3" text-anchor="middle" dominant-baseline="central" fill="#000">1</text>
<line x1="81.9392771145434" y1="51.12547568258717" x2="40.55959077365535" y2="51.12547568258717" stroke="#000" stroke-width="0.3" stroke-dasharray="2 1.5" />
<line x1="40.55959077365535" y1="51.12547568258717" x2="81.93927663806085" y2="27.234902359595857" stroke="#000" stroke-width="0.3" stroke-dasharray="2 1.5" />
<line x1="81.93927663806085" y1="27.234902359595857" x2="81.9392771145434" y2="51.12547568258717" stroke="#000" stroke-width="0.3" />
<polygon points="81.93927663806085,27.234902359595857 81.9392771145434,51.12547568258717 91.49550632461929,45.15283216124632 91.49550608637801,33.207545499750665" fill="none" stroke="#666" stroke-width="0.2" />
<text x="80.13927687630213" y="39.18018905699139" font-size="3" text-anchor="middle" dominant-baseline="central" fill="#000">2</text>
<line x1="81.93927663806085" y1="27.234902359595857" x2="40.55959077365535" y2="51.12547568258717" stroke="#000" stroke-width="0.3" stroke-dasharray="2 1.5" />
<line x1="40.55959077365535" y1="51.12547568258717" x2="40.559590297172804" y2="27.23490235959586" stroke="#000" stroke-width="0.3" />
<polygon points="40.55959077365535,51.12547568258717 40.559590297172804,27.23490235959586 31.003361087096916,33.207545880936706 31.00336132533819,45.152832542432364" fill="none" stroke="#666" stroke-width="0.2" />
<text x="42.35959053541407" y="39.18018898519164" font-size="3" text-anchor="middle" dominant-baseline="central" fill="#000">3</text>
<line x1="40.559590297172804" y1="27.23490235959586" x2="81.93927663806085" y2="27.234902359595857" stroke="#000" stroke-width="0.3" stroke-dasharray="2 1.5" />
<line x1="81.93927663806085" y1="27.234902359595857" x2="40.559590297172804" y2="27.23490235959586" stroke="#000" stroke-width="0.3" stroke-dasharray="2 1.5" />
<line x1="40.559590297172804" y1="27.23490235959586" x2="61.24943322937555" y2="15.289615698100203" stroke="#000" stroke-width="0.3" />
<polygon points="40.559590297172804,27.23490235959586 61.24943322937555,15.289615698100203 51.2988578317266,10.00000019059302 40.953936365625225,15.97264352134085" fill="none" stroke="#666" stroke-width="0.2" />
<text x="51.804511778819275" y="22.82110474668505" font-size="3" text-anchor="middle" dominant-baseline="central" fill="#000">4</text>
<line x1="61.24943322937555" y1="15.289615698100203" x2="81.93927663806085" y2="27.234902359595857" stroke="#000" stroke-width="0.3" />
<polygon points="61.24943322937555,15.289615698100203 81.93927663806085,27.234902359595857 81.5449304504878,15.972643330747822 71.20000874614513,10" fill="none" stroke="#666" stroke-width="0.2" />
<text x="70.69435493371819" y="22.821104755660016" font-size="3" text-anchor="middle" dominant-baseline="central" fill="#000">5</text>
<line x1="31.308486344812856" y1="141.05583802907105" x2="10" y2="168.95137634247905" stroke="#000" stroke-width="0.3" stroke-dasharray="2 1.5" />
<line x1="10" y1="168.95137634247905" x2="11.172373213781466" y2="145.08958607542593" stroke="#000" stroke-width="0.3" />
<text x="10.586186606890733" y="157.0204812089525" font-size="3" text-anchor="middle" dominant-baseline="central" fill="#000">3</text>
<line x1="11.172373213781466" y1="145.08958607542593" x2="31.308486344812856" y2="141.05583802907105" stroke="#000" stroke-width="0.3" />
<polygon points="11.172373213781466,145.08958607542593 31.308486344812856,141.05583802907105 24.66095884351305,134.0098297882472 14.592902277997354,136.02670381142465" fill="none" stroke="#666" stroke-width="0.2" />
<text x="21.593988761793995" y="144.83764719153714" font-size="3" text-anchor="middle" dominant-baseline="central" fill="#000">6</text>
<line x1="10" y1="168.95137634247905" x2="31.308486344812856" y2="141.05583802907105" stroke="#000" stroke-width="0.3" stroke-dasharray="2 1.5" />
<line x1="31.308486344812856" y1="141.05583802907105" x2="29.64371655882457" y2="174.93958109475716" stroke="#000" stroke-width="0.3" stroke-dasharray="2 1.5" />
<line x1="29.64371655882457" y1="174.93958109475716" x2="10" y2="168.95137634247905" stroke="#000" stroke-width="0.3" />
<polygon points="29.64371655882457,174.93958109475716 10,168.95137634247905 12.515647238794902,178.30591415407844 22.337505518207188,181.30001653021745" fill="none" stroke="#666" stroke-width="0.2" />
<text x="20.346725847236705" y="170.22370229984415" font-size="3" text-anchor="middle" dominant-baseline="central" fill="#000">7</text>
<line x1="33.167487036324616" y1="192.28422371712097" x2="80.19122665425557" y2="207.24604620479317" stroke="#000" stroke-width="0.3" stroke-dasharray="2 1.5" />
<line x1="80.19122665425557" y1="207.24604620479317" x2="47.922312337949926" y2="222.83212926989032" stroke="#000" stroke-width="0.3" />
<polygon points="80.19122665425557,207.24604620479317 47.922312337949926,222.83212926989032 62.22397414306519,231.84317423013832 78.358431301218,224.05013269758973" fill="none" stroke="#666" stroke-width="0.2" />
<text x="63.27389586020021" y="213.41825188192368" font-size="3" text-anchor="middle" dominant-baseline="central" fill="#000">8</text>
<line x1="47.922312337949926" y1="222.83212926989032" x2="33.167487036324616" y2="192.28422371712097" stroke="#000" stroke-width="0.3" stroke-dasharray="2 1.5" />
<line x1="80.19122665425557" y1="207.24604620479317" x2="33.167487036324616" y2="192.28422371712097" stroke="#000" stroke-width="0.3" stroke-dasharray="2 1.5" />
<line x1="33.167487036324616" y1="192.28422371712097" x2="65.43640135263027" y2="176.69814065202382" stroke="#000" stroke-width="0.3" />
<polygon points="33.167487036324616,192.28422371712097 65.43640135263027,176.69814065202382 51.134739547515,167.68709569177585 35.00028238936217,175.48013722432444" fill="none" stroke="#666" stroke-width="0.2" />
<text x="50.084817830379976" y="186.11201803999043" font-size="3" text-anchor="middle" dominant-baseline="central" fill="#000">9</text>
<line x1="65.43640135263027" y1="176.69814065202382" x2="80.19122665425557" y2="207.24604620479317" stroke="#000" stroke-width="0.3" stroke-dasharray="2 1.5" />
<line x1="67.10117113861855" y1="142.81439758633772" x2="29.64371655882457" y2="174.93958109475716" stroke="#000" stroke-width="0.3" stroke-dasharray="2 1.5" />
<line x1="29.64371655882457" y1="174.93958109475716" x2="31.308486344812856" y2="141.05583802907105" stroke="#000" stroke-width="0.3" stroke-dasharray="2 1.5" />
<line x1="31.308486344812856" y1="141.05583802907105" x2="67.10117113861855" y2="142.81439758633772" stroke="#000" stroke-width="0.3" />
<polygon points="31.308486344812856,141.05583802907105 67.10117113861855,142.81439758633772 58.85642376307381,128.05768377949877 40.960081366170954,127.17840400086541" fill="none" stroke="#666" stroke-width="0.2" />
<text x="49.11649802329219" y="143.73294919139497" font-size="3" text-anchor="middle" dominant-baseline="central" fill="#000">10</text>
<line x1="29.64371655882457" y1="174.93958109475716" x2="67.10117113861855" y2="142.81439758633772" stroke="#000" stroke-width="0.3" stroke-dasharray="2 1.5" />
<line x1="67.10117113861855" y1="142.81439758633772" x2="65.43640135263027" y2="176.69814065202382" stroke="#000" stroke-width="0.3" stroke-dasharray="2 1.5" />
<line x1="65.43640135263027" y1="176.69814065202382" x2="29.64371655882457" y2="174.93958109475716" stroke="#000" stroke-width="0.3" />
<text x="47.54005895572742" y="175.8188608733905" font-size="3" text-anchor="middle" dominant-baseline="central" fill="#000">9</text>
<line x1="147.19387995213123" y1="60.239980717973424" x2="117.8062343410283" y2="41.041571056282294" stroke="#000" stroke-width="0.3" stroke-dasharray="2 1.5" />
<line x1="117.8062343410283" y1="41.041571056282294" x2="141.68961084212614" y2="40.45520887466398" stroke="#000" stroke-width="0.3" />
<text x="129.7479225915772" y="40.74838996547314" font-size="3" text-anchor="middle" dominant-baseline="central" fill="#000">2</text>
<line x1="141.68961084212614" y1="40.45520887466398" x2="147.19387995213123" y2="60.239980717973424" stroke="#000" stroke-width="0.3" />
<polygon points="141.68961084212614,40.45520887466398 147.19387995213123,60.239980717973424 153.7317214119537,53.09208011314403 150.9795868569512,43.19969419148931" fill="none" stroke="#666" stroke-width="0.2" />
<text x="142.70760540586826" y="50.830045302289385" font-size="3" text-anchor="middle" dominant-baseline="central" fill="#000">11</text>
<line x1="117.8062343410283" y1="41.041571056282294" x2="147.19387995213123" y2="60.239980717973424" stroke="#000" stroke-width="0.3" stroke-dasharray="2 1.5" />
<line x1="147.19387995213123" y1="60.239980717973424" x2="113.27948444956905" y2="61.07261525819094" stroke="#000" stroke-width="0.3" stroke-dasharray="2 1.5" />
<line x1="113.27948444956905" y1="61.07261525819094" x2="117.8062343410283" y2="41.041571056282294" stroke="#000" stroke-width="0.3" />
<polygon points="113.27948444956905,61.07261525819094 117.8062343410283,41.041571056282294 108.66212918740003,44.238632150175754 106.3987542416704,54.254154251130075" fill="none" stroke="#666" stroke-width="0.2" />
<text x="117.29858517392032" y="51.453863859637174" font-size="3" text-anchor="middle" dominant-baseline="central" fill="#000">12</text>
<line x1="80.19122665425557" y1="207.24604620479317" x2="86.8926687240131" y2="256.1355030767266" stroke="#000" stroke-width="0.3" stroke-dasharray="2 1.5" />
<line x1="86.8926687240131" y1="256.1355030767266" x2="59.317351879131685" y2="236.37490077097257" stroke="#000" stroke-width="0.3" stroke-dasharray="2 1.5" />
<line x1="59.317351879131685" y1="236.37490077097257" x2="80.19122665425557" y2="207.24604620479317" stroke="#000" stroke-width="0.3" />
<text x="69.75428926669363" y="221.81047348788286" font-size="3" text-anchor="middle" dominant-baseline="central" fill="#000">8</text>
<line x1="86.8926687240131" y1="256.1355030767266" x2="80.19122665425557" y2="207.24604620479317" stroke="#000" stroke-width="0.3" stroke-dasharray="2 1.5" />
<line x1="80.19122665425557" y1="207.24604620479317" x2="107.766543499137" y2="227.00664851054722" stroke="#000" stroke-width="0.3" stroke-dasharray="2 1.5" />
<line x1="107.766543499137" y1="227.00664851054722" x2="86.8926687240131" y2="256.1355030767266" stroke="#000" stroke-width="0.3" />
<polygon points="107.766543499137,227.00664851054722 86.8926687240131,256.1355030767266 103.76267924426584,257.20283934523127 114.1996166318278,242.6384120621416" fill="none" stroke="#666" stroke-width="0.2" />
<text x="95.86649237166642" y="240.52260157645722" font-size="3" text-anchor="middle" dominant-baseline="central" fill="#000">13</text>
<line x1="27.808496842847436" y1="226.97563293558437" x2="33.167487036324616" y2="192.28422371712097" stroke="#000" stroke-width="0.3" stroke-dasharray="2 1.5" />
<line x1="33.167487036324616" y1="192.28422371712097" x2="47.922312337949926" y2="222.83212926989032" stroke="#000" stroke-width="0.3" stroke-dasharray="2 1.5" />
<line x1="47.922312337949926" y1="222.83212926989032" x2="27.808496842847436" y2="226.97563293558437" stroke="#000" stroke-width="0.3" />
<polygon points="47.922312337949926,222.83212926989032 27.808496842847436,226.97563293558437 34.49435218290068,233.98528321720187 44.55125993045193,231.9135313843548" fill="none" stroke="#666" stroke-width="0.2" />
<text x="37.502225510649104" y="223.14090040062166" font-size="3" text-anchor="middle" dominant-baseline="central" fill="#000">14</text>
<line x1="33.167487036324616" y1="192.28422371712097" x2="27.808496842847436" y2="226.97563293558437" stroke="#000" stroke-width="0.3" stroke-dasharray="2 1.5" />
<line x1="27.808496842847436" y1="226.97563293558437" x2="17.41777479944934" y2="205.46302339138063" stroke="#000" stroke-width="0.3" />
<text x="22.61313582114839" y="216.2193281634825" font-size="3" text-anchor="middle" dominant-baseline="central" fill="#000">4</text>
<line x1="17.41777479944934" y1="205.46302339138063" x2="33.167487036324616" y2="192.28422371712097" stroke="#000" stroke-width="0.3" />
<text x="25.292630917886978" y="198.8736235542508" font-size="3" text-anchor="middle" dominant-baseline="central" fill="#000">7</text>
<line x1="84.77945097631878" y1="113.85998644465268" x2="96.2410979478032" y2="65.86291498702472" stroke="#000" stroke-width="0.3" stroke-dasharray="2 1.5" />
<line x1="96.2410979478032" y1="65.86291498702472" x2="114.15902794004668" y2="96.89767938532884" stroke="#000" stroke-width="0.3" />
<polygon points="96.2410979478032,65.86291498702472 114.15902794004668,96.89767938532884 122.09345120130746,81.97181628885541 113.13448620518571,66.45443408970335" fill="none" stroke="#666" stroke-width="0.2" />
<text x="103.64121722608792" y="82.2802972017219" font-size="3" text-anchor="middle" dominant-baseline="central" fill="#000">15</text>
<line x1="114.15902794004668" y1="96.89767938532884" x2="84.77945097631878" y2="113.85998644465268" stroke="#000" stroke-width="0.3" stroke-dasharray="2 1.5" />
<line x1="96.2410979478032" y1="65.86291498702472" x2="84.77945097631878" y2="113.85998644465268" stroke="#000" stroke-width="0.3" stroke-dasharray="2 1.5" />
<line x1="84.77945097631878" y1="113.85998644465268" x2="66.8615209840753" y2="82.82522204634856" stroke="#000" stroke-width="0.3" />
<polygon points="84.77945097631878,113.85998644465268 66.8615209840753,82.82522204634856 58.927097722814516,97.75108514282198 67.88606271893626,113.26846734197403" fill="none" stroke="#666" stroke-width="0.2" />
<text x="77.37933169803406" y="97.4426042299555" font-size="3" text-anchor="middle" dominant-baseline="central" fill="#000">16</text>
<line x1="66.8615209840753" y1="82.82522204634856" x2="96.2410979478032" y2="65.86291498702472" stroke="#000" stroke-width="0.3" stroke-dasharray="2 1.5" />
<line x1="84.77945097631878" y1="113.85998644465268" x2="36.51552688510338" y2="124.14015912629343" stroke="#000" stroke-width="0.3" stroke-dasharray="2 1.5" />
<line x1="36.51552688510338" y1="124.14015912629343" x2="54.193806722803586" y2="95.18574798460838" stroke="#000" stroke-width="0.3" stroke-dasharray="2 1.5" />
<line x1="54.193806722803586" y1="95.18574798460838" x2="84.77945097631878" y2="113.85998644465268" stroke="#000" stroke-width="0.3" />
<text x="69.48662884956119" y="104.52286721463054" font-size="3" text-anchor="middle" dominant-baseline="central" fill="#000">16</text>
<line x1="36.51552688510338" y1="124.14015912629343" x2="84.77945097631878" y2="113.85998644465268" stroke="#000" stroke-width="0.3" stroke-dasharray="2 1.5" />
<line x1="84.77945097631878" y1="113.85998644465268" x2="67.10117113861855" y2="142.81439758633772" stroke="#000" stroke-width="0.3" stroke-dasharray="2 1.5" />
<line x1="67.10117113861855" y1="142.81439758633772" x2="36.51552688510338" y2="124.14015912629343" stroke="#000" stroke-width="0.3" />
<text x="51.80834901186097" y="133.47727835631557" font-size="3" text-anchor="middle" dominant-baseline="central" fill="#000">10</text>
<line x1="123.45445899380461" y1="129.96014435127455" x2="84.77945097631878" y2="113.85998644465268" stroke="#000" stroke-width="0.3" stroke-dasharray="2 1.5" />
<line x1="84.77945097631878" y1="113.85998644465268" x2="114.15902794004668" y2="96.89767938532884" stroke="#000" stroke-width="0.3" stroke-dasharray="2 1.5" />
<line x1="114.15902794004668" y1="96.89767938532884" x2="123.45445899380461" y2="129.96014435127455" stroke="#000" stroke-width="0.3" stroke-dasharray="2 1.5" />
<line x1="84.77945097631878" y1="113.85998644465268" x2="123.45445899380461" y2="129.96014435127455" stroke="#000" stroke-width="0.3" stroke-dasharray="2 1.5" />
<line x1="123.45445899380461" y1="129.96014435127455" x2="108.76467051194065" y2="138.44129788093645" stroke="#000" stroke-width="0.3" stroke-dasharray="2 1.5" />
<line x1="108.76467051194065" y1="138.44129788093645" x2="84.77945097631878" y2="113.85998644465268" stroke="#000" stroke-width="0.3" stroke-dasharray="2 1.5" />
<line x1="108.76467051194065" y1="138.44129788093645" x2="67.10117113861855" y2="142.81439758633772" stroke="#000" stroke-width="0.3" stroke-dasharray="2 1.5" />
<line x1="67.10117113861855" y1="142.81439758633772" x2="84.77945097631878" y2="113.85998644465268" stroke="#000" stroke-width="0.3" stroke-dasharray="2 1.5" />
<line x1="84.77945097631878" y1="113.85998644465268" x2="108.76467051194065" y2="138.44129788093645" stroke="#000" stroke-width="0.3" stroke-dasharray="2 1.5" />
<line x1="67.10117113861855" y1="142.81439758633772" x2="108.76467051194065" y2="138.44129788093645" stroke="#000" stroke-width="0.3" stroke-dasharray="2 1.5" />
<line x1="108.76467051194065" y1="138.44129788093645" x2="99.92553125850343" y2="152.9185012901075" stroke="#000" stroke-width="0.3" />
<polygon points="108.76467051194065,138.44129788093645 99.92553125850343,152.9185012901075 107.92619743553115,152.83485613918964 112.34576706224976,145.5962544346041" fill="none" stroke="#666" stroke-width="0.2" />
<text x="102.80881406179297" y="144.7419108882776" font-size="3" text-anchor="middle" dominant-baseline="central" fill="#000">17</text>
<line x1="99.92553125850343" y1="152.9185012901075" x2="67.10117113861855" y2="142.81439758633772" stroke="#000" stroke-width="0.3" stroke-dasharray="2 1.5" />
<line x1="66.8615209840753" y1="82.82522204634856" x2="81.9392771145434" y2="51.12547568258717" stroke="#000" stroke-width="0.3" stroke-dasharray="2 1.5" />
<line x1="81.9392771145434" y1="51.12547568258717" x2="96.2410979478032" y2="65.86291498702472" stroke="#000" stroke-width="0.3" />
<text x="89.0901875311733" y="58.49419533480595" font-size="3" text-anchor="middle" dominant-baseline="central" fill="#000">12</text>
<line x1="96.2410979478032" y1="65.86291498702472" x2="66.8615209840753" y2="82.82522204634856" stroke="#000" stroke-width="0.3" stroke-dasharray="2 1.5" />
<line x1="81.9392771145434" y1="51.12547568258717" x2="66.8615209840753" y2="82.82522204634856" stroke="#000" stroke-width="0.3" stroke-dasharray="2 1.5" />
<line x1="66.8615209840753" y1="82.82522204634856" x2="61.24943418234066" y2="63.070762344082816" stroke="#000" stroke-width="0.3" />
<polygon points="66.8615209840753,82.82522204634856 61.24943418234066,63.070762344082816 54.75067200186802,70.2542119903431 57.55671540273534,80.13144184147598" fill="none" stroke="#666" stroke-width="0.2" />
<text x="65.78696066478919" y="72.45609145502718" font-size="3" text-anchor="middle" dominant-baseline="central" fill="#000">18</text>
<line x1="61.24943418234066" y1="63.070762344082816" x2="81.9392771145434" y2="51.12547568258717" stroke="#000" stroke-width="0.3" stroke-dasharray="2 1.5" />
<line x1="59.317351879131685" y1="236.37490077097257" x2="71.2150637825803" y2="269.4" stroke="#000" stroke-width="0.3" stroke-dasharray="2 1.5" />
<line x1="71.2150637825803" y1="269.4" x2="51.795826979111105" y2="255.4840833693208" stroke="#000" stroke-width="0.3" />
<text x="61.5054453808457" y="262.4420416846604" font-size="3" text-anchor="middle" dominant-baseline="central" fill="#000">5</text>
<line x1="51.795826979111105" y1="255.4840833693208" x2="59.317351879131685" y2="236.37490077097257" stroke="#000" stroke-width="0.3" />
<text x="55.556589429121395" y="245.9294920701467" font-size="3" text-anchor="middle" dominant-baseline="central" fill="#000">14</text>
<line x1="71.2150637825803" y1="269.4" x2="59.317351879131685" y2="236.37490077097257" stroke="#000" stroke-width="0.3" stroke-dasharray="2 1.5" />
<line x1="59.317351879131685" y1="236.37490077097257" x2="86.8926687240131" y2="256.1355030767266" stroke="#000" stroke-width="0.3" stroke-dasharray="2 1.5" />
<line x1="86.8926687240131" y1="256.1355030767266" x2="71.2150637825803" y2="269.4" stroke="#000" stroke-width="0.3" />
<text x="79.0538662532967" y="262.7677515383633" font-size="3" text-anchor="middle" dominant-baseline="central" fill="#000">11</text>
<line x1="138.14424680165874" y1="138.44129612755992" x2="108.76467051194065" y2="138.44129788093645" stroke="#000" stroke-width="0.3" stroke-dasharray="2 1.5" />
<line x1="108.76467051194065" y1="138.44129788093645" x2="123.45445899380461" y2="129.96014435127455" stroke="#000" stroke-width="0.3" stroke-dasharray="2 1.5" />
<line x1="123.45445899380461" y1="129.96014435127455" x2="138.14424680165874" y2="138.44129612755992" stroke="#000" stroke-width="0.3" />
<polygon points="123.45445899380461,129.96014435127455 138.14424680165874,138.44129612755992 137.86426056020935,130.44509306034692 130.5193666562823,126.2045171722042" fill="none" stroke="#666" stroke-width="0.2" />
<text x="129.89935299076376" y="135.75956601994136" font-size="3" text-anchor="middle" dominant-baseline="central" fill="#000">19</text>
<line x1="108.76467051194065" y1="138.44129788093645" x2="138.14424680165874" y2="138.44129612755992" stroke="#000" stroke-width="0.3" stroke-dasharray="2 1.5" />
<line x1="138.14424680165874" y1="138.44129612755992" x2="108.76466983793084" y2="155.40360318688374" stroke="#000" stroke-width="0.3" stroke-dasharray="2 1.5" />
<line x1="108.76466983793084" y1="155.40360318688374" x2="108.76467051194065" y2="138.44129788093645" stroke="#000" stroke-width="0.3" />
<text x="108.76467017493574" y="146.92245053391008" font-size="3" text-anchor="middle" dominant-baseline="central" fill="#000">17</text>
<line x1="108.76466983793084" y1="155.40360318688374" x2="138.14424680165874" y2="138.44129612755992" stroke="#000" stroke-width="0.3" stroke-dasharray="2 1.5" />
<line x1="138.14424680165874" y1="138.44129612755992" x2="138.14424612764893" y2="155.40360143350725" stroke="#000" stroke-width="0.3" />
<polygon points="138.14424680165874,138.44129612755992 138.14424612764893,155.40360143350725 144.9291684185303,151.16302537662432 144.92916875553522,142.68187272365068" fill="none" stroke="#666" stroke-width="0.2" />
<text x="136.34424646465382" y="146.92244870900925" font-size="3" text-anchor="middle" dominant-baseline="central" fill="#000">20</text>
<line x1="138.14424612764893" y1="155.40360143350725" x2="108.76466983793084" y2="155.40360318688374" stroke="#000" stroke-width="0.3" stroke-dasharray="2 1.5" />
<line x1="108.76466983793084" y1="155.40360318688374" x2="138.14424612764893" y2="155.40360143350725" stroke="#000" stroke-width="0.3" stroke-dasharray="2 1.5" />
<line x1="138.14424612764893" y1="155.40360143350725" x2="123.45445764578497" y2="163.88475496316914" stroke="#000" stroke-width="0.3" />
<polygon points="138.14424612764893,155.40360143350725 123.45445764578497,163.88475496316914 130.51936617811572,167.64038197349925 137.8642604190477,163.39980520866828" fill="none" stroke="#666" stroke-width="0.2" />
<text x="129.89935187117186" y="158.08533248050117" font-size="3" text-anchor="middle" dominant-baseline="central" fill="#000">21</text>
<line x1="123.45445764578497" y1="163.88475496316914" x2="108.76466983793084" y2="155.40360318688374" stroke="#000" stroke-width="0.3" />
<polygon points="123.45445764578497,163.88475496316914 108.76466983793084,155.40360318688374 109.04465607938022,163.39980625409675 116.38954998330728,167.64038214223945" fill="none" stroke="#666" stroke-width="0.2" />
<text x="117.00956364882579" y="158.08533329450233" font-size="3" text-anchor="middle" dominant-baseline="central" fill="#000">22</text>
<line x1="148.07342344260888" y1="96.06504484511133" x2="113.27948444956905" y2="61.07261525819094" stroke="#000" stroke-width="0.3" stroke-dasharray="2 1.5" />
<line x1="113.27948444956905" y1="61.07261525819094" x2="147.19387995213123" y2="60.239980717973424" stroke="#000" stroke-width="0.3" stroke-dasharray="2 1.5" />
<line x1="147.19387995213123" y1="60.239980717973424" x2="148.07342344260888" y2="96.06504484511133" stroke="#000" stroke-width="0.3" />
<text x="147.63365169737006" y="78.15251278154238" font-size="3" text-anchor="middle" dominant-baseline="central" fill="#000">13</text>
<line x1="113.27948444956905" y1="61.07261525819094" x2="148.07342344260888" y2="96.06504484511133" stroke="#000" stroke-width="0.3" stroke-dasharray="2 1.5" />
<line x1="148.07342344260888" y1="96.06504484511133" x2="114.15902794004668" y2="96.89767938532884" stroke="#000" stroke-width="0.3" stroke-dasharray="2 1.5" />
<line x1="114.15902794004668" y1="96.89767938532884" x2="113.27948444956905" y2="61.07261525819094" stroke="#000" stroke-width="0.3" />
<text x="113.71925619480787" y="78.9851473217599" font-size="3" text-anchor="middle" dominant-baseline="central" fill="#000">15</text>
<line x1="99.92553125850343" y1="152.9185012901075" x2="65.43640135263027" y2="176.69814065202382" stroke="#000" stroke-width="0.3" stroke-dasharray="2 1.5" />
<line x1="65.43640135263027" y1="176.69814065202382" x2="67.10117113861855" y2="142.81439758633772" stroke="#000" stroke-width="0.3" stroke-dasharray="2 1.5" />
<line x1="67.10117113861855" y1="142.81439758633772" x2="99.92553125850343" y2="152.9185012901075" stroke="#000" stroke-width="0.3" stroke-dasharray="2 1.5" />
<line x1="65.43640135263027" y1="176.69814065202382" x2="99.92553125850343" y2="152.9185012901075" stroke="#000" stroke-width="0.3" stroke-dasharray="2 1.5" />
<line x1="99.92553125850343" y1="152.9185012901075" x2="99.09314703092222" y2="169.86037066127912" stroke="#000" stroke-width="0.3" />
<text x="99.50933914471283" y="161.38943597569332" font-size="3" text-anchor="middle" dominant-baseline="central" fill="#000">22</text>
<line x1="99.09314703092222" y1="169.86037066127912" x2="65.43640135263027" y2="176.69814065202382" stroke="#000" stroke-width="0.3" stroke-dasharray="2 1.5" />
<line x1="65.43640135263027" y1="176.69814065202382" x2="106.47055968173485" y2="185.13432343766377" stroke="#000" stroke-width="0.3" stroke-dasharray="2 1.5" />
<line x1="106.47055968173485" y1="185.13432343766377" x2="80.19122665425557" y2="207.24604620479317" stroke="#000" stroke-width="0.3" stroke-dasharray="2 1.5" />
<line x1="80.19122665425557" y1="207.24604620479317" x2="65.43640135263027" y2="176.69814065202382" stroke="#000" stroke-width="0.3" stroke-dasharray="2 1.5" />
<line x1="106.47055968173485" y1="185.13432343766377" x2="65.43640135263027" y2="176.69814065202382" stroke="#000" stroke-width="0.3" stroke-dasharray="2 1.5" />
<line x1="65.43640135263027" y1="176.69814065202382" x2="99.09314703092222" y2="169.86037066127912" stroke="#000" stroke-width="0.3" stroke-dasharray="2 1.5" />
<line x1="99.09314703092222" y1="169.86037066127912" x2="106.47055968173485" y2="185.13432343766377" stroke="#000" stroke-width="0.3" />
<text x="102.78185335632854" y="177.49734704947144" font-size="3" text-anchor="middle" dominant-baseline="central" fill="#000">21</text>
<line x1="140.41165454031685" y1="129.54382657659454" x2="114.15902794004668" y2="96.89767938532884" stroke="#000" stroke-width="0.3" stroke-dasharray="2 1.5" />
<line x1="114.15902794004668" y1="96.89767938532884" x2="148.07342344260888" y2="96.06504484511133" stroke="#000" stroke-width="0.3" stroke-dasharray="2 1.5" />
<line x1="148.07342344260888" y1="96.06504484511133" x2="140.41165454031685" y2="129.54382657659454" stroke="#000" stroke-width="0.3" />
<polygon points="148.07342344260888,96.06504484511133 140.41165454031685,129.54382657659454 155.71860945848312,124.23883870464054 159.54949390962912,107.49944783889893" fill="none" stroke="#666" stroke-width="0.2" />
<text x="142.48790162409747" y="112.40287910333046" font-size="3" text-anchor="middle" dominant-baseline="central" fill="#000">23</text>
<line x1="114.15902794004668" y1="96.89767938532884" x2="140.41165454031685" y2="129.54382657659454" stroke="#000" stroke-width="0.3" stroke-dasharray="2 1.5" />
<line x1="140.41165454031685" y1="129.54382657659454" x2="123.45445899380461" y2="129.96014435127455" stroke="#000" stroke-width="0.3" />
<text x="131.93305676706072" y="129.75198546393455" font-size="3" text-anchor="middle" dominant-baseline="central" fill="#000">19</text>
<line x1="123.45445899380461" y1="129.96014435127455" x2="114.15902794004668" y2="96.89767938532884" stroke="#000" stroke-width="0.3" stroke-dasharray="2 1.5" />
<line x1="106.47055968173485" y1="185.13432343766377" x2="107.766543499137" y2="227.00664851054722" stroke="#000" stroke-width="0.3" stroke-dasharray="2 1.5" />
<line x1="107.766543499137" y1="227.00664851054722" x2="80.19122665425557" y2="207.24604620479317" stroke="#000" stroke-width="0.3" stroke-dasharray="2 1.5" />
<line x1="80.19122665425557" y1="207.24604620479317" x2="106.47055968173485" y2="185.13432343766377" stroke="#000" stroke-width="0.3" stroke-dasharray="2 1.5" />
<line x1="107.766543499137" y1="227.00664851054722" x2="106.47055968173485" y2="185.13432343766377" stroke="#000" stroke-width="0.3" stroke-dasharray="2 1.5" />
<line x1="106.47055968173485" y1="185.13432343766377" x2="120.25821599731813" y2="195.01462376789286" stroke="#000" stroke-width="0.3" />
<text x="113.3643878395265" y="190.0744736027783" font-size="3" text-anchor="middle" dominant-baseline="central" fill="#000">20</text>
<line x1="120.25821599731813" y1="195.01462376789286" x2="107.766543499137" y2="227.00664851054722" stroke="#000" stroke-width="0.3" />
<text x="114.01237974822757" y="211.01063613922003" font-size="3" text-anchor="middle" dominant-baseline="central" fill="#000">23</text>
<line x1="54.193806722803586" y1="95.18574798460838" x2="22.133546123351834" y2="109.48093661294794" stroke="#000" stroke-width="0.3" stroke-dasharray="2 1.5" />
<line x1="22.133546123351834" y1="109.48093661294794" x2="34.5830385123263" y2="89.09050667736072" stroke="#000" stroke-width="0.3" />
<text x="28.358292317839066" y="99.28572164515433" font-size="3" text-anchor="middle" dominant-baseline="central" fill="#000">1</text>
<line x1="34.5830385123263" y1="89.09050667736072" x2="54.193806722803586" y2="95.18574798460838" stroke="#000" stroke-width="0.3" />
<text x="44.38842261756494" y="92.13812733098456" font-size="3" text-anchor="middle" dominant-baseline="central" fill="#000">18</text>
<line x1="22.133546123351834" y1="109.48093661294794" x2="54.193806722803586" y2="95.18574798460838" stroke="#000" stroke-width="0.3" stroke-dasharray="2 1.5" />
<line x1="54.193806722803586" y1="95.18574798460838" x2="36.51552688510338" y2="124.14015912629343" stroke="#000" stroke-width="0.3" stroke-dasharray="2 1.5" />
<line x1="36.51552688510338" y1="124.14015912629343" x2="22.133546123351834" y2="109.48093661294794" stroke="#000" stroke-width="0.3" />
<text x="29.324536504227606" y="116.81054786962068" font-size="3" text-anchor="middle" dominant-baseline="central" fill="#000">6</text>
</svg>