<svg xmlns="http://www.w3.org/2000/svg" width="215.9mm" height="279.4mm" viewBox="0 0 215.9 279.4">
<rect x="0" y="0" width="215.9" height="279.4" fill="none" stroke="#ccc" stroke-width="0.15" />
<line x1="90.74252439724343" y1="109.52034824358735" x2="106.85890110645676" y2="122.75419469628878" stroke="#000" stroke-width="0.3" stroke-dasharray="2 1.5" />
<line x1="106.85890110645676" y1="122.75419469628878" x2="86.05748761633095" y2="121.49181017584743" stroke="#000" stroke-width="0.3" stroke-dasharray="2 1.5" />
<line x1="86.05748761633095" y1="121.49181017584743" x2="90.74252439724343" y2="109.52034824358735" stroke="#000" stroke-width="0.3" />
<polygon points="86.05748761633095,121.49181017584743 90.74252439724343,109.52034824358735 84.78268042911128,110.63919901428739 82.44016203865505,116.62492998041742" fill="none" stroke="#666" stroke-width="0.2" />
<text x="90.07621679651704" y="116.16206502388808" font-size="3" text-anchor="middle" dominant-baseline="central" fill="#000">1</text>
<line x1="106.85890110645676" y1="122.75419469628878" x2="90.74252439724343" y2="109.52034824358735" stroke="#000" stroke-width="0.3" stroke-dasharray="2 1.5" />
<line x1="90.74252439724343" y1="109.52034824358735" x2="104.04385642471594" y2="110.32756739993977" stroke="#000" stroke-width="0.3" stroke-dasharray="2 1.5" />
<line x1="104.04385642471594" y1="110.32756739993977" x2="106.85890110645676" y2="122.75419469628878" stroke="#000" stroke-width="0.3" />
<polygon points="104.04385642471594,110.32756739993977 106.85890110645676,122.75419469628878 111.12579085456116,118.52151999950519 109.71826851369075,112.3082063513307" fill="none" stroke="#666" stroke-width="0.2" />
<text x="103.6958595250096" y="116.93856458557188" font-size="3" text-anchor="middle" dominant-baseline="central" fill="#000">2</text>
<line x1="95.73914009174861" y1="222.5006903956135" x2="76.69002404228877" y2="229.61519319496924" stroke="#000" stroke-width="0.3" stroke-dasharray="2 1.5" />
<line x1="76.69002404228877" y1="229.61519319496924" x2="77.97829880729188" y2="217.23788544561722" stroke="#000" stroke-width="0.3" />
<polygon points="76.69002404228877,229.61519319496924 77.97829880729188,217.23788544561722 72.70530701630028,219.81690247695394 72.06116963379873,226.00555635163002" fill="none" stroke="#666" stroke-width="0.2" />
<text x="79.12448987953553" y="223.6128831533805" font-size="3" text-anchor="middle" dominant-baseline="central" fill="#000">3</text>
<line x1="77.97829880729188" y1="217.23788544561722" x2="95.73914009174861" y2="222.5006903956135" stroke="#000" stroke-width="0.3" stroke-dasharray="2 1.5" />
<line x1="76.69002404228877" y1="229.61519319496924" x2="95.73914009174861" y2="222.5006903956135" stroke="#000" stroke-width="0.3" stroke-dasharray="2 1.5" />
<line x1="95.73914009174861" y1="222.5006903956135" x2="90.0763576716197" y2="233.58176292508443" stroke="#000" stroke-width="0.3" />
<polygon points="95.73914009174861,222.5006903956135 90.0763576716197,233.58176292508443 95.9244822884403,233.07660776076827 98.75587349850476,227.5360714960328" fill="none" stroke="#666" stroke-width="0.2" />
<text x="91.30491505693416" y="227.22212731946453" font-size="3" text-anchor="middle" dominant-baseline="central" fill="#000">4</text>
<line x1="90.0763576716197" y1="233.58176292508443" x2="76.69002404228877" y2="229.61519319496924" stroke="#000" stroke-width="0.3" stroke-dasharray="2 1.5" />
<line x1="119.23322922665272" y1="125.79089456560266" x2="108.81780972493063" y2="168.5618133443688" stroke="#000" stroke-width="0.3" stroke-dasharray="2 1.5" />
<line x1="108.81780972493063" y1="168.5618133443688" x2="106.85890110645676" y2="122.75419469628878" stroke="#000" stroke-width="0.3" stroke-dasharray="2 1.5" />
<line x1="106.85890110645676" y1="122.75419469628878" x2="119.23322922665272" y2="125.79089456560266" stroke="#000" stroke-width="0.3" />
<text x="113.04606516655474" y="124.27254463094572" font-size="3" text-anchor="middle" dominant-baseline="central" fill="#000">2</text>
<line x1="108.81780972493063" y1="168.5618133443688" x2="119.23322922665272" y2="125.79089456560266" stroke="#000" stroke-width="0.3" stroke-dasharray="2 1.5" />
<line x1="119.23322922665272" y1="125.79089456560266" x2="121.13921370404168" y2="170.36094649558848" stroke="#000" stroke-width="0.3" />
<polygon points="119.23322922665272,125.79089456560266 121.13921370404168,170.36094649558848 138.49073835668878,158.45603972213644 137.5377461179943,136.17101375714353" fill="none" stroke="#666" stroke-width="0.2" />
<text x="118.38786507917837" y="148.15282507094108" font-size="3" text-anchor="middle" dominant-baseline="central" fill="#000">5</text>
<line x1="121.13921370404168" y1="170.36094649558848" x2="108.81780972493063" y2="168.5618133443688" stroke="#000" stroke-width="0.3" />
<polygon points="121.13921370404168,170.36094649558848 108.81780972493063,168.5618133443688 111.17850745922051,173.94015822381814 117.33920944877606,174.83972479942798" fill="none" stroke="#666" stroke-width="0.2" />
<text x="115.23858425340877" y="167.6802672692745" font-size="3" text-anchor="middle" dominant-baseline="central" fill="#000">6</text>
<line x1="135.20932346245957" y1="57.77203779865655" x2="117.63402183364627" y2="77.0509923924745" stroke="#000" stroke-width="0.3" stroke-dasharray="2 1.5" />
<line x1="117.63402183364627" y1="77.0509923924745" x2="111.3257234044429" y2="66.31510644671377" stroke="#000" stroke-width="0.3" />
<text x="114.47987261904458" y="71.68304941959414" font-size="3" text-anchor="middle" dominant-baseline="central" fill="#000">6</text>
<line x1="111.3257234044429" y1="66.31510644671377" x2="135.20932346245957" y2="57.77203779865655" stroke="#000" stroke-width="0.3" stroke-dasharray="2 1.5" />
<line x1="117.63402183364627" y1="77.0509923924745" x2="135.20932346245957" y2="57.77203779865655" stroke="#000" stroke-width="0.3" stroke-dasharray="2 1.5" />
<line x1="135.20932346245957" y1="57.77203779865655" x2="142.44447547050333" y2="68.17638301153374" stroke="#000" stroke-width="0.3" />
<polygon points="135.20932346245957,57.77203779865655 142.44447547050333,68.17638301153374 144.79742555364325,62.68123590509692 141.17984954962137,57.47906329865834" fill="none" stroke="#666" stroke-width="0.2" />
<text x="137.34909344948454" y="64.00187249748141" font-size="3" text-anchor="middle" dominant-baseline="central" fill="#000">7</text>
<line x1="142.44447547050333" y1="68.17638301153374" x2="117.63402183364627" y2="77.0509923924745" stroke="#000" stroke-width="0.3" />
<polygon points="142.44447547050333,68.17638301153374 117.63402183364627,77.0509923924745 127.38647899523683,84.75652150198214 139.79170581366537,80.31921681151175" fill="none" stroke="#666" stroke-width="0.2" />
<text x="129.4330112065723" y="70.91884960953905" font-size="3" text-anchor="middle" dominant-baseline="central" fill="#000">8</text>
<line x1="112.33780000288071" y1="37.60040842416162" x2="133.30668451514225" y2="46.4745667333806" stroke="#000" stroke-width="0.3" />
<polygon points="112.33780000288071,37.60040842416162 133.30668451514225,46.4745667333806 131.61412671076448,35.868473351171254 121.12968445463369,31.431394196561754" fill="none" stroke="#666" stroke-width="0.2" />
<text x="122.12070875947222" y="43.69515182373273" font-size="3" text-anchor="middle" dominant-baseline="central" fill="#000">9</text>
<line x1="133.30668451514225" y1="46.4745667333806" x2="107.62067198700359" y2="50.800382146574755" stroke="#000" stroke-width="0.3" stroke-dasharray="2 1.5" />
<line x1="107.62067198700359" y1="50.800382146574755" x2="112.33780000288071" y2="37.60040842416162" stroke="#000" stroke-width="0.3" />
<polygon points="107.62067198700359,50.800382146574755 112.33780000288071,37.60040842416162 105.87852850994618,39.01355064841405 103.51996450200762,45.61353750962063" fill="none" stroke="#666" stroke-width="0.2" />
<text x="111.67425541774712" y="44.80612555233023" font-size="3" text-anchor="middle" dominant-baseline="central" fill="#000">10</text>
<line x1="119.79166403960275" y1="208.923153848972" x2="104.85458958621048" y2="191.7380262626124" stroke="#000" stroke-width="0.3" />
<text x="112.32312681290662" y="200.3305900557922" font-size="3" text-anchor="middle" dominant-baseline="central" fill="#000">9</text>
<line x1="104.85458958621048" y1="191.7380262626124" x2="127.05563931545406" y2="198.3165329003889" stroke="#000" stroke-width="0.3" stroke-dasharray="2 1.5" />
<line x1="127.05563931545406" y1="198.3165329003889" x2="119.79166403960275" y2="208.923153848972" stroke="#000" stroke-width="0.3" />
<polygon points="127.05563931545406,198.3165329003889 119.79166403960275,208.923153848972 125.85030623799881,209.17708872216673 129.48229387592448,203.8737782478752" fill="none" stroke="#666" stroke-width="0.2" />
<text x="121.93854335727883" y="202.60276261233878" font-size="3" text-anchor="middle" dominant-baseline="central" fill="#000">11</text>
<line x1="76.58638670839356" y1="263.04820471325684" x2="103.40927362620826" y2="254.46230417584115" stroke="#000" stroke-width="0.3" stroke-dasharray="2 1.5" />
<line x1="103.40927362620826" y1="254.46230417584115" x2="89.97113672780775" y2="267.2122255955726" stroke="#000" stroke-width="0.3" />
<polygon points="103.40927362620826,254.46230417584115 89.97113672780775,267.2122255955726 98.43063952030047,269.4 105.14970796950071,263.02503929013426" fill="none" stroke="#666" stroke-width="0.2" />
<text x="95.451289363967" y="259.5314748535053" font-size="3" text-anchor="middle" dominant-baseline="central" fill="#000">12</text>
<line x1="89.97113672780775" y1="267.2122255955726" x2="76.58638670839356" y2="263.04820471325684" stroke="#000" stroke-width="0.3" />
<text x="83.27876171810065" y="265.1302151544147" font-size="3" text-anchor="middle" dominant-baseline="central" fill="#000">10</text>
<line x1="103.40927362620826" y1="254.46230417584115" x2="76.58638670839356" y2="263.04820471325684" stroke="#000" stroke-width="0.3" stroke-dasharray="2 1.5" />
<line x1="76.58638670839356" y1="263.04820471325684" x2="93.33435908034933" y2="247.15795643727108" stroke="#000" stroke-width="0.3" stroke-dasharray="2 1.5" />
<line x1="93.33435908034933" y1="247.15795643727108" x2="103.40927362620826" y2="254.46230417584115" stroke="#000" stroke-width="0.3" />
<polygon points="93.33435908034933,247.15795643727108 103.40927362620826,254.46230417584115 103.81228408517157,248.60625142285508 98.77482681224211,244.95407755357" fill="none" stroke="#666" stroke-width="0.2" />
<text x="97.31527143539063" y="252.26742671994793" font-size="3" text-anchor="middle" dominant-baseline="central" fill="#000">13</text>
<line x1="109.17728368008389" y1="209.75075329880195" x2="105.81405375078795" y2="229.80503074255918" stroke="#000" stroke-width="0.3" stroke-dasharray="2 1.5" />
<line x1="105.81405375078795" y1="229.80503074255918" x2="95.73914009174861" y2="222.5006903956135" stroke="#000" stroke-width="0.3" />
<text x="100.77659692126828" y="226.15286056908633" font-size="3" text-anchor="middle" dominant-baseline="central" fill="#000">4</text>
<line x1="95.73914009174861" y1="222.5006903956135" x2="109.17728368008389" y2="209.75075329880195" stroke="#000" stroke-width="0.3" stroke-dasharray="2 1.5" />
<line x1="105.81405375078795" y1="229.80503074255918" x2="109.17728368008389" y2="209.75075329880195" stroke="#000" stroke-width="0.3" stroke-dasharray="2 1.5" />
<line x1="109.17728368008389" y1="209.75075329880195" x2="115.94237436875096" y2="220.19541446929586" stroke="#000" stroke-width="0.3" />
<text x="112.55982902441743" y="214.9730838840489" font-size="3" text-anchor="middle" dominant-baseline="central" fill="#000">13</text>
<line x1="115.94237436875096" y1="220.19541446929586" x2="105.81405375078795" y2="229.80503074255918" stroke="#000" stroke-width="0.3" />
<polygon points="115.94237436875096,220.19541446929586 105.81405375078795,229.80503074255918 112.18998041458404,231.45395492142856 117.25414072356557,226.64914678479687" fill="none" stroke="#666" stroke-width="0.2" />
<text x="109.63929800928615" y="223.694432799008" font-size="3" text-anchor="middle" dominant-baseline="central" fill="#000">14</text>
<line x1="45.263821389494666" y1="220.71617793182486" x2="43.9758820877048" y2="201.58517226245476" stroke="#000" stroke-width="0.3" stroke-dasharray="2 1.5" />
<line x1="43.9758820877048" y1="201.58517226245476" x2="56.85792710432661" y2="215.16257933016104" stroke="#000" stroke-width="0.3" stroke-dasharray="2 1.5" />
<line x1="56.85792710432661" y1="215.16257933016104" x2="45.263821389494666" y2="220.71617793182486" stroke="#000" stroke-width="0.3" />
<polygon points="56.85792710432661,215.16257933016104 45.263821389494666,220.71617793182486 50.383787258868175,223.96542056734168 56.180840116284145,221.18862126650978" fill="none" stroke="#666" stroke-width="0.2" />
<text x="50.28327546869098" y="216.31600555615427" font-size="3" text-anchor="middle" dominant-baseline="central" fill="#000">15</text>
<line x1="43.9758820877048" y1="201.58517226245476" x2="45.263821389494666" y2="220.71617793182486" stroke="#000" stroke-width="0.3" stroke-dasharray="2 1.5" />
<line x1="45.263821389494666" y1="220.71617793182486" x2="37.3784321232056" y2="212.40512964934638" stroke="#000" stroke-width="0.3" />
<polygon points="45.263821389494666,220.71617793182486 37.3784321232056,212.40512964934638 36.02536012678647,217.6370474264816 39.968054759931,221.79257156772084" fill="none" stroke="#666" stroke-width="0.2" />
<text x="42.62691837678005" y="215.32173965150452" font-size="3" text-anchor="middle" dominant-baseline="central" fill="#000">16</text>
<line x1="37.3784321232056" y1="212.40512964934638" x2="43.9758820877048" y2="201.58517226245476" stroke="#000" stroke-width="0.3" stroke-dasharray="2 1.5" />
<line x1="92.10692053110058" y1="87.03834077706436" x2="78.29235339196916" y2="112.72327071743578" stroke="#000" stroke-width="0.3" stroke-dasharray="2 1.5" />
<line x1="78.29235339196916" y1="112.72327071743578" x2="79.71888225915814" y2="89.21742490755592" stroke="#000" stroke-width="0.3" />
<polygon points="78.29235339196916,112.72327071743578 79.71888225915814,89.21742490755592 69.95991171840895,94.5232748131503 69.24664728481446,106.27619771809022" fill="none" stroke="#666" stroke-width="0.2" />
<text x="80.80231219556076" y="101.07938606642838" font-size="3" text-anchor="middle" dominant-baseline="central" fill="#000">17</text>
<line x1="79.71888225915814" y1="89.21742490755592" x2="92.10692053110058" y2="87.03834077706436" stroke="#000" stroke-width="0.3" />
<polygon points="79.71888225915814,89.21742490755592 92.10692053110058,87.03834077706436 88.13827731091835,82.62789650091025 81.94425817494712,83.71743856615603" fill="none" stroke="#666" stroke-width="0.2" />
<text x="86.22473788275342" y="89.90066540229495" font-size="3" text-anchor="middle" dominant-baseline="central" fill="#000">18</text>
<line x1="78.29235339196916" y1="112.72327071743578" x2="92.10692053110058" y2="87.03834077706436" stroke="#000" stroke-width="0.3" stroke-dasharray="2 1.5" />
<line x1="92.10692053110058" y1="87.03834077706436" x2="90.74252439724343" y2="109.52034824358735" stroke="#000" stroke-width="0.3" stroke-dasharray="2 1.5" />
<line x1="90.74252439724343" y1="109.52034824358735" x2="78.29235339196916" y2="112.72327071743578" stroke="#000" stroke-width="0.3" />
<text x="84.5174388946063" y="111.12180948051156" font-size="3" text-anchor="middle" dominant-baseline="central" fill="#000">1</text>
<line x1="90.0337600688927" y1="29.28768561239417" x2="68.37174052712209" y2="22.27329235584029" stroke="#000" stroke-width="0.3" stroke-dasharray="2 1.5" />
<line x1="68.37174052712209" y1="22.27329235584029" x2="75.28667481357105" y2="11.435883598706827" stroke="#000" stroke-width="0.3" />
<text x="71.82920767034656" y="16.85458797727356" font-size="3" text-anchor="middle" dominant-baseline="central" fill="#000">15</text>
<line x1="75.28667481357105" y1="11.435883598706827" x2="90.0337600688927" y2="29.28768561239417" stroke="#000" stroke-width="0.3" />
<polygon points="75.28667481357105,11.435883598706827 90.0337600688927,29.28768561239417 93.48770956053724,18.92590100684368 86.1141669328764,10" fill="none" stroke="#666" stroke-width="0.2" />
<text x="81.2724841684305" y="21.5081686439774" font-size="3" text-anchor="middle" dominant-baseline="central" fill="#000">19</text>
<line x1="68.37174052712209" y1="22.27329235584029" x2="90.0337600688927" y2="29.28768561239417" stroke="#000" stroke-width="0.3" stroke-dasharray="2 1.5" />
<line x1="90.0337600688927" y1="29.28768561239417" x2="84.96101623737894" y2="42.35512120666473" stroke="#000" stroke-width="0.3" stroke-dasharray="2 1.5" />
<line x1="84.96101623737894" y1="42.35512120666473" x2="68.37174052712209" y2="22.27329235584029" stroke="#000" stroke-width="0.3" stroke-dasharray="2 1.5" />
<line x1="37.3784321232056" y1="212.40512964934638" x2="18.67737422391542" y2="194.21612882407678" stroke="#000" stroke-width="0.3" stroke-dasharray="2 1.5" />
<line x1="18.67737422391542" y1="194.21612882407678" x2="43.9758820877048" y2="201.58517226245476" stroke="#000" stroke-width="0.3" />
<polygon points="18.67737422391542,194.21612882407678 43.9758820877048,201.58517226245476 40.598872497108644,189.6235082573445 27.949618565213957,185.93898653815552" fill="none" stroke="#666" stroke-width="0.2" />
<text x="30.823238104697168" y="199.62882832822905" font-size="3" text-anchor="middle" dominant-baseline="central" fill="#000">20</text>
<line x1="43.9758820877048" y1="201.58517226245476" x2="37.3784321232056" y2="212.40512964934638" stroke="#000" stroke-width="0.3" stroke-dasharray="2 1.5" />
<line x1="18.67737422391542" y1="194.21612882407678" x2="37.3784321232056" y2="212.40512964934638" stroke="#000" stroke-width="0.3" stroke-dasharray="2 1.5" />
<line x1="37.3784321232056" y1="212.40512964934638" x2="13.025010780405587" y2="205.31138292728443" stroke="#000" stroke-width="0.3" />
<polygon points="37.3784321232056,212.40512964934638 13.025010780405587,205.31138292728443 16.275867427280797,216.82618814491988 28.45257809868081,220.37306150595086" fill="none" stroke="#666" stroke-width="0.2" />
<text x="25.705110953430975" y="207.13007834329545" font-size="3" text-anchor="middle" dominant-baseline="central" fill="#000">21</text>
<line x1="13.025010780405587" y1="205.31138292728443" x2="18.67737422391542" y2="194.21612882407678" stroke="#000" stroke-width="0.3" />
<polygon points="13.025010780405587,205.31138292728443 18.67737422391542,194.21612882407678 12.826181721754912,194.72899697247473 10,200.27662402407856" fill="none" stroke="#666" stroke-width="0.2" />
<text x="17.45505984386143" y="200.58082964849748" font-size="3" text-anchor="middle" dominant-baseline="central" fill="#000">22</text>
<line x1="107.82254911197167" y1="39.13877491495735" x2="90.0337600688927" y2="29.28768561239417" stroke="#000" stroke-width="0.3" stroke-dasharray="2 1.5" />
<line x1="90.0337600688927" y1="29.28768561239417" x2="108.37725871177858" y2="26.706973104592286" stroke="#000" stroke-width="0.3" />
<polygon points="90.0337600688927,29.28768561239417 108.37725871177858,26.706973104592286 102.75909904793636,20.014751774388408 93.58734972649341,21.30510802828936" fill="none" stroke="#666" stroke-width="0.2" />
<text x="99.45627842879264" y="29.779775680083684" font-size="3" text-anchor="middle" dominant-baseline="central" fill="#000">23</text>
<line x1="108.37725871177858" y1="26.706973104592286" x2="107.82254911197167" y2="39.13877491495735" stroke="#000" stroke-width="0.3" />
<text x="108.09990391187512" y="32.922874009774816" font-size="3" text-anchor="middle" dominant-baseline="central" fill="#000">3</text>
<line x1="90.0337600688927" y1="29.28768561239417" x2="107.82254911197167" y2="39.13877491495735" stroke="#000" stroke-width="0.3" stroke-dasharray="2 1.5" />
<line x1="107.82254911197167" y1="39.13877491495735" x2="84.96101623737894" y2="42.35512120666473" stroke="#000" stroke-width="0.3" />
<polygon points="107.82254911197167,39.13877491495735 84.96101623737894,42.35512120666473 91.96293797271008,50.69564778357497 103.39370441000644,49.08747463772128" fill="none" stroke="#666" stroke-width="0.2" />
<text x="96.1410136362183" y="38.96450173922058" font-size="3" text-anchor="middle" dominant-baseline="central" fill="#000">24</text>
<line x1="84.96101623737894" y1="42.35512120666473" x2="90.0337600688927" y2="29.28768561239417" stroke="#000" stroke-width="0.3" stroke-dasharray="2 1.5" />
<line x1="30.914527898682884" y1="146.98561582251992" x2="25.477293895860207" y2="172.58473693279402" stroke="#000" stroke-width="0.3" stroke-dasharray="2 1.5" />
<line x1="25.477293895860207" y1="172.58473693279402" x2="18.286160413558992" y2="151.24018643917609" stroke="#000" stroke-width="0.3" stroke-dasharray="2 1.5" />
<line x1="18.286160413558992" y1="151.24018643917609" x2="30.914527898682884" y2="146.98561582251992" stroke="#000" stroke-width="0.3" />
<polygon points="18.286160413558992,151.24018643917609 30.914527898682884,146.98561582251992 26.05560778073946,142.99791148263444 19.741424038177513,145.12519679096246" fill="none" stroke="#666" stroke-width="0.2" />
<text x="25.17503574322056" y="150.81869407834103" font-size="3" text-anchor="middle" dominant-baseline="central" fill="#000">25</text>
<line x1="25.477293895860207" y1="172.58473693279402" x2="30.914527898682884" y2="146.98561582251995" stroke="#000" stroke-width="0.3" stroke-dasharray="2 1.5" />
<line x1="30.914527898682884" y1="146.98561582251995" x2="49.443084338574984" y2="187.56658306239007" stroke="#000" stroke-width="0.3" stroke-dasharray="2 1.5" />
<line x1="49.443084338574984" y1="187.56658306239007" x2="25.477293895860207" y2="172.58473693279402" stroke="#000" stroke-width="0.3" stroke-dasharray="2 1.5" />
<line x1="25.477293895860207" y1="172.58473693279402" x2="49.443084338574984" y2="187.56658306239007" stroke="#000" stroke-width="0.3" stroke-dasharray="2 1.5" />
<line x1="49.443084338574984" y1="187.56658306239007" x2="24.804410159589956" y2="182.5571932572015" stroke="#000" stroke-width="0.3" stroke-dasharray="2 1.5" />
<line x1="24.804410159589956" y1="182.5571932572015" x2="25.477293895860207" y2="172.58473693279402" stroke="#000" stroke-width="0.3" />
<polygon points="24.804410159589956,182.5571932572015 25.477293895860207,172.58473693279402 21.32009043202964,174.8086975193878 20.98364856389452,179.79492568159156" fill="none" stroke="#666" stroke-width="0.2" />
<text x="26.936768472440978" y="177.69214316066567" font-size="3" text-anchor="middle" dominant-baseline="central" fill="#000">26</text>
<line x1="24.804410159589963" y1="182.55719325720153" x2="49.443084338574984" y2="187.56658306239007" stroke="#000" stroke-width="0.3" stroke-dasharray="2 1.5" />
<line x1="49.443084338574984" y1="187.56658306239007" x2="29.29599603659272" y2="188.8340850116581" stroke="#000" stroke-width="0.3" stroke-dasharray="2 1.5" />
<line x1="29.29599603659272" y1="188.8340850116581" x2="24.804410159589963" y2="182.55719325720153" stroke="#000" stroke-width="0.3" stroke-dasharray="2 1.5" />
<line x1="29.29599603659272" y1="188.8340850116581" x2="49.443084338574984" y2="187.56658306239007" stroke="#000" stroke-width="0.3" stroke-dasharray="2 1.5" />
<line x1="49.443084338574984" y1="187.56658306239007" x2="23.01910428213615" y2="193.32567088866085" stroke="#000" stroke-width="0.3" stroke-dasharray="2 1.5" />
<line x1="23.01910428213615" y1="193.32567088866085" x2="29.29599603659272" y2="188.8340850116581" stroke="#000" stroke-width="0.3" />
<polygon points="23.01910428213615,193.32567088866085 29.29599603659272,188.8340850116581 25.930138747177473,187.44622477912614 22.79169286994919,189.69201771762752" fill="none" stroke="#666" stroke-width="0.2" />
<text x="27.205028075165476" y="192.543705131185" font-size="3" text-anchor="middle" dominant-baseline="central" fill="#000">29</text>
<line x1="111.3257234044429" y1="66.31510644671377" x2="92.10692053110058" y2="87.03834077706436" stroke="#000" stroke-width="0.3" stroke-dasharray="2 1.5" />
<line x1="92.10692053110058" y1="87.03834077706436" x2="88.85179254808607" y2="77.58811329414374" stroke="#000" stroke-width="0.3" />
<text x="90.47935653959333" y="82.31322703560406" font-size="3" text-anchor="middle" dominant-baseline="central" fill="#000">27</text>
<line x1="88.85179254808607" y1="77.58811329414374" x2="111.3257234044429" y2="66.31510644671377" stroke="#000" stroke-width="0.3" stroke-dasharray="2 1.5" />
<line x1="111.3257234044429" y1="66.31510644671377" x2="88.85179254808607" y2="77.58811329414374" stroke="#000" stroke-width="0.3" stroke-dasharray="2 1.5" />
<line x1="88.85179254808607" y1="77.58811329414374" x2="91.54731685203033" y2="70.35569582040085" stroke="#000" stroke-width="0.3" />
<polygon points="88.85179254808607,77.58811329414374 91.54731685203033,70.35569582040085 87.98046878654712,71.08559046725887 86.63270663457497,74.7017992041303" fill="none" stroke="#666" stroke-width="0.2" />
<text x="91.88621900728828" y="74.60052488363478" font-size="3" text-anchor="middle" dominant-baseline="central" fill="#000">30</text>
<line x1="91.54731685203033" y1="70.35569582040085" x2="111.3257234044429" y2="66.31510644671377" stroke="#000" stroke-width="0.3" stroke-dasharray="2 1.5" />
<line x1="104.04385642471594" y1="110.32756739993977" x2="92.10692053110058" y2="87.03834077706436" stroke="#000" stroke-width="0.3" stroke-dasharray="2 1.5" />
<line x1="92.10692053110058" y1="87.03834077706436" x2="111.3257234044429" y2="66.31510644671377" stroke="#000" stroke-width="0.3" stroke-dasharray="2 1.5" />
<line x1="111.3257234044429" y1="66.31510644671377" x2="104.04385642471594" y2="110.32756739993977" stroke="#000" stroke-width="0.3" />
<text x="107.68478991457943" y="88.32133692332677" font-size="3" text-anchor="middle" dominant-baseline="central" fill="#000">5</text>
<line x1="92.10692053110058" y1="87.03834077706436" x2="104.04385642471594" y2="110.32756739993977" stroke="#000" stroke-width="0.3" stroke-dasharray="2 1.5" />
<line x1="104.04385642471594" y1="110.32756739993977" x2="90.74252439724343" y2="109.52034824358735" stroke="#000" stroke-width="0.3" stroke-dasharray="2 1.5" />
<line x1="90.74252439724343" y1="109.52034824358735" x2="92.10692053110058" y2="87.03834077706436" stroke="#000" stroke-width="0.3" stroke-dasharray="2 1.5" />
<line x1="23.01910428213615" y1="193.32567088866085" x2="49.443084338574984" y2="187.56658306239007" stroke="#000" stroke-width="0.3" stroke-dasharray="2 1.5" />
<line x1="49.443084338574984" y1="187.56658306239007" x2="33.78758101527829" y2="195.1109755107363" stroke="#000" stroke-width="0.3" />
<polygon points="49.443084338574984,187.56658306239007 33.78758101527829,195.1109755107363 40.71921382544097,199.48707872796842 48.54696548708931,195.7148825037953" fill="none" stroke="#666" stroke-width="0.2" />
<text x="40.83391322900912" y="189.71724185362606" font-size="3" text-anchor="middle" dominant-baseline="central" fill="#000">31</text>
<line x1="33.78758101527829" y1="195.1109755107363" x2="23.01910428213615" y2="193.32567088866085" stroke="#000" stroke-width="0.3" />
<polygon points="33.78758101527829,195.1109755107363 23.01910428213615,193.32567088866085 24.997101616591507,198.07938773743658 30.38133998316258,198.9720400484743" fill="none" stroke="#666" stroke-width="0.2" />
<text x="28.697745859913372" y="192.44256230666383" font-size="3" text-anchor="middle" dominant-baseline="central" fill="#000">32</text>
<line x1="87.01042314312687" y1="60.42775548919721" x2="72.00552138922652" y2="51.66045458890781" stroke="#000" stroke-width="0.3" />
<text x="79.5079722661767" y="56.04410503905251" font-size="3" text-anchor="middle" dominant-baseline="central" fill="#000">31</text>
<line x1="72.00552138922652" y1="51.66045458890781" x2="89.70594798617601" y2="53.19533656897086" stroke="#000" stroke-width="0.3" stroke-dasharray="2 1.5" />
<line x1="89.70594798617601" y1="53.19533656897086" x2="87.01042314312687" y2="60.42775548919721" stroke="#000" stroke-width="0.3" stroke-dasharray="2 1.5" />
<line x1="94.24284061686974" y1="63.123279793141485" x2="91.54731685203033" y2="70.35569582040085" stroke="#000" stroke-width="0.3" />
<polygon points="94.24284061686974,63.123279793141485 91.54731685203033,70.35569582040085 95.11416420414393,69.62580131952178 96.46192608656364,66.0095933058921" fill="none" stroke="#666" stroke-width="0.2" />
<text x="91.20841442721996" y="66.11086748040867" font-size="3" text-anchor="middle" dominant-baseline="central" fill="#000">33</text>
<line x1="91.54731685203033" y1="70.35569582040085" x2="87.01042314312687" y2="60.42775548919721" stroke="#000" stroke-width="0.3" />
<text x="89.2788699975786" y="65.39172565479903" font-size="3" text-anchor="middle" dominant-baseline="central" fill="#000">32</text>
<line x1="87.01042314312687" y1="60.42775548919721" x2="94.24284061686974" y2="63.123279793141485" stroke="#000" stroke-width="0.3" stroke-dasharray="2 1.5" />
<line x1="111.3257234044429" y1="66.31510644671377" x2="91.54731685203033" y2="70.35569582040085" stroke="#000" stroke-width="0.3" stroke-dasharray="2 1.5" />
<line x1="91.54731685203033" y1="70.35569582040085" x2="94.24284061686974" y2="63.123279793141485" stroke="#000" stroke-width="0.3" />
<text x="92.89507873445004" y="66.73948780677117" font-size="3" text-anchor="middle" dominant-baseline="central" fill="#000">33</text>
<line x1="94.24284061686974" y1="63.123279793141485" x2="111.3257234044429" y2="66.31510644671377" stroke="#000" stroke-width="0.3" stroke-dasharray="2 1.5" />
<line x1="89.70594798617601" y1="53.19533656897086" x2="72.00552138922652" y2="51.66045458890781" stroke="#000" stroke-width="0.3" stroke-dasharray="2 1.5" />
<line x1="72.00552138922652" y1="51.66045458890781" x2="59.53914310497845" y2="29.56973739523707" stroke="#000" stroke-width="0.3" />
<text x="65.77233224710248" y="40.61509599207244" font-size="3" text-anchor="middle" dominant-baseline="central" fill="#000">21</text>
<line x1="59.53914310497845" y1="29.56973739523707" x2="89.70594798617601" y2="53.19533656897086" stroke="#000" stroke-width="0.3" stroke-dasharray="2 1.5" />
<line x1="111.3257234044429" y1="66.31510644671377" x2="94.24284061686974" y2="63.123279793141485" stroke="#000" stroke-width="0.3" stroke-dasharray="2 1.5" />
<line x1="94.24284061686974" y1="63.123279793141485" x2="96.93836545991887" y2="55.89086087291512" stroke="#000" stroke-width="0.3" stroke-dasharray="2 1.5" />
<line x1="96.93836545991887" y1="55.89086087291512" x2="111.3257234044429" y2="66.31510644671377" stroke="#000" stroke-width="0.3" stroke-dasharray="2 1.5" />
<line x1="89.705947986176" y1="53.19533656897084" x2="59.53914310497845" y2="29.56973739523707" stroke="#000" stroke-width="0.3" stroke-dasharray="2 1.5" />
<line x1="59.53914310497845" y1="29.56973739523707" x2="96.93836545991887" y2="55.89086087291512" stroke="#000" stroke-width="0.3" stroke-dasharray="2 1.5" />
<line x1="96.93836545991887" y1="55.89086087291512" x2="89.705947986176" y2="53.19533656897084" stroke="#000" stroke-width="0.3" />
<polygon points="96.93836545991887,55.89086087291512 89.705947986176,53.19533656897084 90.43584263303401,56.762184634454066 94.05205136990544,58.10994678642619" fill="none" stroke="#666" stroke-width="0.2" />
<text x="93.95077704940992" y="52.8564344137129" font-size="3" text-anchor="middle" dominant-baseline="central" fill="#000">34</text>
<line x1="111.3257234044429" y1="66.31510644671377" x2="96.93836545991887" y2="55.89086087291512" stroke="#000" stroke-width="0.3" stroke-dasharray="2 1.5" />
<line x1="96.93836545991887" y1="55.89086087291512" x2="135.20932346245957" y2="57.77203779865655" stroke="#000" stroke-width="0.3" stroke-dasharray="2 1.5" />
<line x1="135.20932346245957" y1="57.77203779865655" x2="111.3257234044429" y2="66.31510644671377" stroke="#000" stroke-width="0.3" stroke-dasharray="2 1.5" />
<line x1="96.93836545991887" y1="55.8908608729151" x2="59.53914310497845" y2="29.56973739523707" stroke="#000" stroke-width="0.3" stroke-dasharray="2 1.5" />
<line x1="59.53914310497845" y1="29.56973739523707" x2="84.96101623737894" y2="42.35512120666473" stroke="#000" stroke-width="0.3" stroke-dasharray="2 1.5" />
<line x1="84.96101623737894" y1="42.35512120666473" x2="96.93836545991887" y2="55.8908608729151" stroke="#000" stroke-width="0.3" />
<polygon points="84.96101623737894,42.35512120666473 96.93836545991887,55.8908608729151 99.35832402078404,47.71598626733654 93.36964940951408,40.94811643421134" fill="none" stroke="#666" stroke-width="0.2" />
<text x="89.60166635704091" y="50.31581540658704" font-size="3" text-anchor="middle" dominant-baseline="central" fill="#000">35</text>
<line x1="84.96101623737894" y1="42.35512120666473" x2="59.53914310497845" y2="29.56973739523707" stroke="#000" stroke-width="0.3" stroke-dasharray="2 1.5" />
<line x1="59.53914310497845" y1="29.56973739523707" x2="68.37174052712209" y2="22.27329235584029" stroke="#000" stroke-width="0.3" />
<text x="63.95544181605027" y="25.92151487553868" font-size="3" text-anchor="middle" dominant-baseline="central" fill="#000">16</text>
<line x1="68.37174052712209" y1="22.27329235584029" x2="84.96101623737894" y2="42.35512120666473" stroke="#000" stroke-width="0.3" stroke-dasharray="2 1.5" />
<line x1="135.20932346245957" y1="57.77203779865655" x2="96.93836545991887" y2="55.89086087291512" stroke="#000" stroke-width="0.3" stroke-dasharray="2 1.5" />
<line x1="96.93836545991887" y1="55.89086087291512" x2="107.62067198700359" y2="50.800382146574755" stroke="#000" stroke-width="0.3" />
<polygon points="96.93836545991887,55.89086087291512 107.62067198700359,50.800382146574755 102.91390386469628,47.800079217325965 97.57275060115391,50.34531858049612" fill="none" stroke="#666" stroke-width="0.2" />
<text x="103.05385372302726" y="54.97055391093801" font-size="3" text-anchor="middle" dominant-baseline="central" fill="#000">36</text>
<line x1="107.62067198700359" y1="50.800382146574755" x2="135.20932346245957" y2="57.77203779865655" stroke="#000" stroke-width="0.3" stroke-dasharray="2 1.5" />
<line x1="76.58638670839356" y1="263.04820471325684" x2="64.75380365453773" y2="262.92727218858295" stroke="#000" stroke-width="0.3" />
<text x="70.67009518146565" y="262.9877384509199" font-size="3" text-anchor="middle" dominant-baseline="central" fill="#000">36</text>
<line x1="64.75380365453773" y1="262.92727218858295" x2="59.94205167033301" y2="245.50544147095505" stroke="#000" stroke-width="0.3" />
<text x="62.34792766243537" y="254.21635682976898" font-size="3" text-anchor="middle" dominant-baseline="central" fill="#000">35</text>
<line x1="59.94205167033301" y1="245.50544147095505" x2="76.58638670839356" y2="263.04820471325684" stroke="#000" stroke-width="0.3" stroke-dasharray="2 1.5" />
<line x1="135.20932346245957" y1="57.77203779865655" x2="107.62067198700359" y2="50.800382146574755" stroke="#000" stroke-width="0.3" stroke-dasharray="2 1.5" />
<line x1="107.62067198700359" y1="50.800382146574755" x2="133.30668451514225" y2="46.4745667333806" stroke="#000" stroke-width="0.3" stroke-dasharray="2 1.5" />
<line x1="133.30668451514225" y1="46.4745667333806" x2="135.20932346245957" y2="57.77203779865655" stroke="#000" stroke-width="0.3" />
<polygon points="133.30668451514225,46.4745667333806 135.20932346245957,57.77203779865655 139.2526521517406,54.18661445341064 138.30133267808196,48.53787892077266" fill="none" stroke="#666" stroke-width="0.2" />
<text x="132.48300009667008" y="52.422235674858015" font-size="3" text-anchor="middle" dominant-baseline="central" fill="#000">37</text>
<line x1="76.69002404228877" y1="229.61519319496924" x2="76.58638670839356" y2="263.04820471325684" stroke="#000" stroke-width="0.3" stroke-dasharray="2 1.5" />
<line x1="76.58638670839356" y1="263.04820471325684" x2="59.94205167033301" y2="245.50544147095505" stroke="#000" stroke-width="0.3" stroke-dasharray="2 1.5" />
<line x1="59.94205167033301" y1="245.50544147095505" x2="76.69002404228877" y2="229.61519319496924" stroke="#000" stroke-width="0.3" />
<text x="68.31603785631088" y="237.56031733296214" font-size="3" text-anchor="middle" dominant-baseline="central" fill="#000">24</text>
<line x1="76.58638670839356" y1="263.04820471325684" x2="76.69002404228877" y2="229.61519319496924" stroke="#000" stroke-width="0.3" stroke-dasharray="2 1.5" />
<line x1="76.69002404228877" y1="229.61519319496924" x2="93.33435908034933" y2="247.15795643727108" stroke="#000" stroke-width="0.3" stroke-dasharray="2 1.5" />
<line x1="93.33435908034933" y1="247.15795643727108" x2="76.58638670839356" y2="263.04820471325684" stroke="#000" stroke-width="0.3" stroke-dasharray="2 1.5" />
<line x1="93.33435908034933" y1="247.15795643727108" x2="76.69002404228877" y2="229.61519319496924" stroke="#000" stroke-width="0.3" stroke-dasharray="2 1.5" />
<line x1="76.69002404228877" y1="229.61519319496924" x2="90.0763576716197" y2="233.58176292508443" stroke="#000" stroke-width="0.3" stroke-dasharray="2 1.5" />
<line x1="90.0763576716197" y1="233.58176292508443" x2="93.33435908034933" y2="247.15795643727108" stroke="#000" stroke-width="0.3" />
<text x="91.70535837598452" y="240.36985968117776" font-size="3" text-anchor="middle" dominant-baseline="central" fill="#000">14</text>
<line x1="106.85890110645676" y1="122.75419469628878" x2="84.63097521093508" y2="144.99765698475906" stroke="#000" stroke-width="0.3" stroke-dasharray="2 1.5" />
<line x1="84.63097521093508" y1="144.99765698475906" x2="86.05748761633095" y2="121.49181017584743" stroke="#000" stroke-width="0.3" />
<text x="85.34423141363301" y="133.24473358030326" font-size="3" text-anchor="middle" dominant-baseline="central" fill="#000">17</text>
<line x1="86.05748761633095" y1="121.49181017584743" x2="106.85890110645676" y2="122.75419469628878" stroke="#000" stroke-width="0.3" stroke-dasharray="2 1.5" />
<line x1="84.63097521093505" y1="144.99765698475906" x2="106.85890110645676" y2="122.75419469628878" stroke="#000" stroke-width="0.3" stroke-dasharray="2 1.5" />
<line x1="106.85890110645676" y1="122.75419469628878" x2="108.81780972493063" y2="168.5618133443688" stroke="#000" stroke-width="0.3" stroke-dasharray="2 1.5" />
<line x1="108.81780972493063" y1="168.5618133443688" x2="84.63097521093505" y2="144.99765698475906" stroke="#000" stroke-width="0.3" stroke-dasharray="2 1.5" />
<line x1="84.63097521093506" y1="144.99765698475906" x2="108.81780972493063" y2="168.5618133443688" stroke="#000" stroke-width="0.3" stroke-dasharray="2 1.5" />
<line x1="108.81780972493063" y1="168.5618133443688" x2="70.4647866804403" y2="148.39725879799008" stroke="#000" stroke-width="0.3" stroke-dasharray="2 1.5" />
<line x1="70.4647866804403" y1="148.39725879799008" x2="84.63097521093506" y2="144.99765698475906" stroke="#000" stroke-width="0.3" />
<text x="77.54788094568768" y="146.69745789137457" font-size="3" text-anchor="middle" dominant-baseline="central" fill="#000">39</text>
<line x1="59.606090310639864" y1="180.37164138618132" x2="70.46478668044031" y2="148.39725879799008" stroke="#000" stroke-width="0.3" stroke-dasharray="2 1.5" />
<line x1="70.46478668044031" y1="148.39725879799008" x2="108.81780972493063" y2="168.5618133443688" stroke="#000" stroke-width="0.3" stroke-dasharray="2 1.5" />
<line x1="108.81780972493063" y1="168.5618133443688" x2="59.606090310639864" y2="180.37164138618132" stroke="#000" stroke-width="0.3" stroke-dasharray="2 1.5" />
<line x1="59.60609031063987" y1="180.37164138618132" x2="108.81780972493063" y2="168.5618133443688" stroke="#000" stroke-width="0.3" stroke-dasharray="2 1.5" />
<line x1="108.81780972493063" y1="168.5618133443688" x2="132.37296336386348" y2="180.37164138618132" stroke="#000" stroke-width="0.3" />
<text x="120.59538654439706" y="174.46672736527506" font-size="3" text-anchor="middle" dominant-baseline="central" fill="#000">8</text>
<line x1="132.37296336386348" y1="180.37164138618132" x2="59.60609031063987" y2="180.37164138618132" stroke="#000" stroke-width="0.3" stroke-dasharray="2 1.5" />
<line x1="40.56305654034453" y1="138.66387095899532" x2="70.46478668044031" y2="148.3972587979901" stroke="#000" stroke-width="0.3" stroke-dasharray="2 1.5" />
<line x1="70.46478668044031" y1="148.3972587979901" x2="59.606090310639864" y2="180.37164138618132" stroke="#000" stroke-width="0.3" stroke-dasharray="2 1.5" />
<line x1="59.606090310639864" y1="180.37164138618132" x2="40.56305654034453" y2="138.66387095899532" stroke="#000" stroke-width="0.3" stroke-dasharray="2 1.5" />
<line x1="70.46478668044031" y1="148.3972587979901" x2="40.56305654034453" y2="138.66387095899532" stroke="#000" stroke-width="0.3" stroke-dasharray="2 1.5" />
<line x1="40.56305654034453" y1="138.66387095899532" x2="58.52611467823542" y2="128.09878883913512" stroke="#000" stroke-width="0.3" stroke-dasharray="2 1.5" />
<line x1="58.52611467823542" y1="128.09878883913512" x2="70.46478668044031" y2="148.3972587979901" stroke="#000" stroke-width="0.3" stroke-dasharray="2 1.5" />
<line x1="59.606090310639864" y1="180.37164138618132" x2="132.37296336386348" y2="180.37164138618132" stroke="#000" stroke-width="0.3" stroke-dasharray="2 1.5" />
<line x1="132.37296336386348" y1="180.37164138618132" x2="43.97588208770479" y2="201.58517226245476" stroke="#000" stroke-width="0.3" stroke-dasharray="2 1.5" />
<line x1="43.97588208770479" y1="201.58517226245476" x2="59.606090310639864" y2="180.37164138618132" stroke="#000" stroke-width="0.3" />
<text x="51.79098619917232" y="190.97840682431803" font-size="3" text-anchor="middle" dominant-baseline="central" fill="#000">20</text>
<line x1="43.9758820877048" y1="201.58517226245476" x2="132.37296336386348" y2="180.37164138618132" stroke="#000" stroke-width="0.3" stroke-dasharray="2 1.5" />
<line x1="132.37296336386348" y1="180.37164138618132" x2="104.8545895862105" y2="191.7380262626124" stroke="#000" stroke-width="0.3" stroke-dasharray="2 1.5" />
<line x1="104.8545895862105" y1="191.7380262626124" x2="43.9758820877048" y2="201.58517226245476" stroke="#000" stroke-width="0.3" stroke-dasharray="2 1.5" />
<line x1="104.85458958621048" y1="191.7380262626124" x2="132.37296336386348" y2="180.37164138618132" stroke="#000" stroke-width="0.3" stroke-dasharray="2 1.5" />
<line x1="132.37296336386348" y1="180.37164138618132" x2="127.05563931545406" y2="198.3165329003889" stroke="#000" stroke-width="0.3" stroke-dasharray="2 1.5" />
<line x1="127.05563931545406" y1="198.3165329003889" x2="104.85458958621048" y2="191.7380262626124" stroke="#000" stroke-width="0.3" stroke-dasharray="2 1.5" />
<line x1="43.9758820877048" y1="201.58517226245476" x2="104.8545895862105" y2="191.7380262626124" stroke="#000" stroke-width="0.3" stroke-dasharray="2 1.5" />
<line x1="104.8545895862105" y1="191.7380262626124" x2="73.65560471341848" y2="199.22515840942768" stroke="#000" stroke-width="0.3" stroke-dasharray="2 1.5" />
<line x1="73.65560471341848" y1="199.22515840942768" x2="43.9758820877048" y2="201.58517226245476" stroke="#000" stroke-width="0.3" stroke-dasharray="2 1.5" />
<line x1="56.85792710432661" y1="215.16257933016104" x2="43.9758820877048" y2="201.58517226245476" stroke="#000" stroke-width="0.3" stroke-dasharray="2 1.5" />
<line x1="43.9758820877048" y1="201.58517226245476" x2="73.65560471341848" y2="199.22515840942768" stroke="#000" stroke-width="0.3" stroke-dasharray="2 1.5" />
<line x1="73.65560471341848" y1="199.22515840942768" x2="56.85792710432661" y2="215.16257933016104" stroke="#000" stroke-width="0.3" />
<text x="65.25676590887255" y="207.19386886979436" font-size="3" text-anchor="middle" dominant-baseline="central" fill="#000">19</text>
<line x1="104.8545895862105" y1="191.7380262626124" x2="77.97829880729188" y2="217.23788544561722" stroke="#000" stroke-width="0.3" stroke-dasharray="2 1.5" />
<line x1="77.97829880729188" y1="217.23788544561722" x2="73.6556047134185" y2="199.22515840942768" stroke="#000" stroke-width="0.3" />
<text x="75.81695176035518" y="208.23152192752246" font-size="3" text-anchor="middle" dominant-baseline="central" fill="#000">23</text>
<line x1="73.6556047134185" y1="199.22515840942768" x2="104.8545895862105" y2="191.7380262626124" stroke="#000" stroke-width="0.3" stroke-dasharray="2 1.5" />
<line x1="77.97829880729188" y1="217.23788544561722" x2="104.8545895862105" y2="191.7380262626124" stroke="#000" stroke-width="0.3" stroke-dasharray="2 1.5" />
<line x1="104.8545895862105" y1="191.7380262626124" x2="109.17728368008389" y2="209.75075329880195" stroke="#000" stroke-width="0.3" />
<text x="107.01593663314719" y="200.7443897807072" font-size="3" text-anchor="middle" dominant-baseline="central" fill="#000">12</text>
<line x1="109.17728368008389" y1="209.75075329880195" x2="77.97829880729188" y2="217.23788544561722" stroke="#000" stroke-width="0.3" stroke-dasharray="2 1.5" />
<line x1="77.97829880729188" y1="217.23788544561722" x2="109.17728368008389" y2="209.75075329880195" stroke="#000" stroke-width="0.3" stroke-dasharray="2 1.5" />
<line x1="109.17728368008389" y1="209.75075329880195" x2="95.73914009174861" y2="222.5006903956135" stroke="#000" stroke-width="0.3" stroke-dasharray="2 1.5" />
<line x1="95.73914009174861" y1="222.5006903956135" x2="77.97829880729188" y2="217.23788544561722" stroke="#000" stroke-width="0.3" stroke-dasharray="2 1.5" />
<line x1="143.16225080347473" y1="187.01912966625127" x2="127.05563931545406" y2="198.3165329003889" stroke="#000" stroke-width="0.3" stroke-dasharray="2 1.5" />
<line x1="127.05563931545406" y1="198.3165329003889" x2="132.37296336386348" y2="180.37164138618132" stroke="#000" stroke-width="0.3" stroke-dasharray="2 1.5" />
<line x1="132.37296336386348" y1="180.37164138618132" x2="143.16225080347473" y2="187.01912966625127" stroke="#000" stroke-width="0.3" />
<text x="137.7676070836691" y="183.69538552621628" font-size="3" text-anchor="middle" dominant-baseline="central" fill="#000">7</text>
<line x1="127.05563931545406" y1="198.3165329003889" x2="143.16225080347473" y2="187.01912966625127" stroke="#000" stroke-width="0.3" stroke-dasharray="2 1.5" />
<line x1="143.16225080347473" y1="187.01912966625127" x2="139.90740282335193" y2="198.0036119963789" stroke="#000" stroke-width="0.3" />
<text x="141.53482681341333" y="192.5113708313151" font-size="3" text-anchor="middle" dominant-baseline="central" fill="#000">37</text>
<line x1="139.90740282335193" y1="198.0036119963789" x2="127.05563931545406" y2="198.3165329003889" stroke="#000" stroke-width="0.3" />
<text x="133.481521069403" y="198.16007244838391" font-size="3" text-anchor="middle" dominant-baseline="central" fill="#000">11</text>
<line x1="49.443084338574984" y1="187.56658306239007" x2="40.563056540344526" y2="138.66387095899532" stroke="#000" stroke-width="0.3" stroke-dasharray="2 1.5" />
<line x1="40.563056540344526" y1="138.66387095899532" x2="59.606090310639864" y2="180.37164138618132" stroke="#000" stroke-width="0.3" stroke-dasharray="2 1.5" />
<line x1="59.606090310639864" y1="180.37164138618132" x2="49.443084338574984" y2="187.56658306239007" stroke="#000" stroke-width="0.3" />
<text x="54.524587324607424" y="183.9691122242857" font-size="3" text-anchor="middle" dominant-baseline="central" fill="#000">22</text>
<line x1="40.563056540344526" y1="138.66387095899532" x2="49.443084338574984" y2="187.56658306239007" stroke="#000" stroke-width="0.3" stroke-dasharray="2 1.5" />
<line x1="49.443084338574984" y1="187.56658306239007" x2="30.914527898682884" y2="146.98561582251995" stroke="#000" stroke-width="0.3" stroke-dasharray="2 1.5" />
<line x1="30.914527898682884" y1="146.98561582251995" x2="40.563056540344526" y2="138.66387095899532" stroke="#000" stroke-width="0.3" />
<polygon points="30.914527898682884,146.98561582251995 40.563056540344526,138.66387095899532 34.822226434519266,136.88489571821182 29.99796211368845,141.04576814997412" fill="none" stroke="#666" stroke-width="0.2" />
<text x="36.9144115468416" y="144.18779848766792" font-size="3" text-anchor="middle" dominant-baseline="central" fill="#000">40</text>
<line x1="71.07391905699922" y1="125.30270663248747" x2="70.46478668044031" y2="148.3972587979901" stroke="#000" stroke-width="0.3" />
<polygon points="71.07391905699922,125.30270663248747 70.46478668044031,148.3972587979901 79.85489064078108,142.867273707238 80.15945682906053,131.3199976244867" fill="none" stroke="#666" stroke-width="0.2" />
<text x="68.96997864668111" y="136.80252316337848" font-size="3" text-anchor="middle" dominant-baseline="central" fill="#000">41</text>
<line x1="70.46478668044031" y1="148.3972587979901" x2="58.52611467823542" y2="128.09878883913512" stroke="#000" stroke-width="0.3" stroke-dasharray="2 1.5" />
<line x1="58.52611467823542" y1="128.09878883913512" x2="71.07391905699922" y2="125.30270663248747" stroke="#000" stroke-width="0.3" />
<polygon points="58.52611467823542,128.09878883913512 71.07391905699922,125.30270663248747 66.81853507964921,120.9826054326439 60.54463289026731,122.38064653596771" fill="none" stroke="#666" stroke-width="0.2" />
<text x="65.19151651822597" y="128.45765639125509" font-size="3" text-anchor="middle" dominant-baseline="central" fill="#000">42</text>
<line x1="12.950228923623646" y1="173.71811377049403" x2="18.286160413558992" y2="151.24018643917609" stroke="#000" stroke-width="0.3" />
<text x="15.618194668591318" y="162.47915010483507" font-size="3" text-anchor="middle" dominant-baseline="central" fill="#000">41</text>
<line x1="18.286160413558992" y1="151.24018643917609" x2="25.477293895860207" y2="172.58473693279402" stroke="#000" stroke-width="0.3" stroke-dasharray="2 1.5" />
<line x1="25.477293895860207" y1="172.58473693279402" x2="12.950228923623646" y2="173.71811377049403" stroke="#000" stroke-width="0.3" />
<text x="19.213761409741927" y="173.15142535164404" font-size="3" text-anchor="middle" dominant-baseline="central" fill="#000">38</text>
<line x1="37.4320157213654" y1="126.31307641319991" x2="58.52611467823542" y2="128.09878883913512" stroke="#000" stroke-width="0.3" stroke-dasharray="2 1.5" />
<line x1="58.52611467823542" y1="128.09878883913512" x2="40.56305654034453" y2="138.66387095899532" stroke="#000" stroke-width="0.3" stroke-dasharray="2 1.5" />
<line x1="40.56305654034453" y1="138.66387095899532" x2="37.4320157213654" y2="126.31307641319991" stroke="#000" stroke-width="0.3" />
<text x="38.99753613085497" y="132.48847368609762" font-size="3" text-anchor="middle" dominant-baseline="central" fill="#000">40</text>
<line x1="58.52611467823542" y1="128.09878883913512" x2="37.4320157213654" y2="126.31307641319991" stroke="#000" stroke-width="0.3" stroke-dasharray="2 1.5" />
<line x1="37.4320157213654" y1="126.31307641319991" x2="48.918381505790485" y2="119.55730572897468" stroke="#000" stroke-width="0.3" />
<text x="43.17519861357795" y="122.9351910710873" font-size="3" text-anchor="middle" dominant-baseline="central" fill="#000">25</text>
<line x1="48.918381505790485" y1="119.55730572897468" x2="58.52611467823542" y2="128.09878883913512" stroke="#000" stroke-width="0.3" />
<text x="53.722248092012954" y="123.8280472840549" font-size="3" text-anchor="middle" dominant-baseline="central" fill="#000">42</text>
<line x1="89.70594798617601" y1="53.19533656897086" x2="94.24284061686974" y2="63.123279793141485" stroke="#000" stroke-width="0.3" stroke-dasharray="2 1.5" />
<line x1="94.24284061686974" y1="63.123279793141485" x2="87.01042314312687" y2="60.42775548919721" stroke="#000" stroke-width="0.3" stroke-dasharray="2 1.5" />
<line x1="87.01042314312687" y1="60.42775548919721" x2="89.70594798617601" y2="53.19533656897086" stroke="#000" stroke-width="0.3" stroke-dasharray="2 1.5" />
<line x1="94.24284061686974" y1="63.123279793141485" x2="89.70594798617601" y2="53.19533656897086" stroke="#000" stroke-width="0.3" stroke-dasharray="2 1.5" />
<line x1="89.70594798617601" y1="53.19533656897086" x2="96.93836545991887" y2="55.89086087291512" stroke="#000" stroke-width="0.3" />
<text x="93.32215672304744" y="54.54309872094299" font-size="3" text-anchor="middle" dominant-baseline="central" fill="#000">34</text>
<line x1="96.93836545991887" y1="55.89086087291512" x2="94.24284061686974" y2="63.123279793141485" stroke="#000" stroke-width="0.3" stroke-dasharray="2 1.5" />
<line x1="29.29599603659272" y1="188.8340850116581" x2="18.5275184051334" y2="187.04877913420427" stroke="#000" stroke-width="0.3" stroke-dasharray="2 1.5" />
<line x1="18.5275184051334" y1="187.04877913420427" x2="24.804410159589963" y2="182.55719325720153" stroke="#000" stroke-width="0.3" />
<text x="21.66596428236168" y="184.80298619570289" font-size="3" text-anchor="middle" dominant-baseline="central" fill="#000">28</text>
<line x1="24.804410159589963" y1="182.55719325720153" x2="29.29599603659272" y2="188.8340850116581" stroke="#000" stroke-width="0.3" stroke-dasharray="2 1.5" />
<line x1="18.5275184051334" y1="187.04877913420427" x2="29.29599603659272" y2="188.8340850116581" stroke="#000" stroke-width="0.3" stroke-dasharray="2 1.5" />
<line x1="29.29599603659272" y1="188.8340850116581" x2="23.01910428213615" y2="193.32567088866085" stroke="#000" stroke-width="0.3" />
<text x="26.157550159364433" y="191.07987795015947" font-size="3" text-anchor="middle" dominant-baseline="central" fill="#000">29</text>
<line x1="23.01910428213615" y1="193.32567088866085" x2="18.5275184051334" y2="187.04877913420427" stroke="#000" stroke-width="0.3" />
<text x="20.773311343634774" y="190.18722501143256" font-size="3" text-anchor="middle" dominant-baseline="central" fill="#000">30</text>
<line x1="170.3218093405311" y1="32.73887087352385" x2="160.69434072018012" y2="35.424854050855686" stroke="#000" stroke-width="0.3" />
<text x="165.5080750303556" y="34.08186246218977" font-size="3" text-anchor="middle" dominant-baseline="central" fill="#000">26</text>
<line x1="160.69434072018012" y1="35.424854050855686" x2="153.5879800735835" y2="21.037097640067145" stroke="#000" stroke-width="0.3" stroke-dasharray="2 1.5" />
<line x1="153.5879800735835" y1="21.037097640067145" x2="170.3218093405311" y2="32.73887087352385" stroke="#000" stroke-width="0.3" stroke-dasharray="2 1.5" />
<line x1="154.36906647968283" y1="31.001662943729873" x2="153.5879800735835" y2="21.037097640067145" stroke="#000" stroke-width="0.3" />
<polygon points="154.36906647968283,31.001662943729873 153.5879800735835,21.037097640067145 149.79742555364325,23.84067352842256 150.18796875669292,28.822956180253925" fill="none" stroke="#666" stroke-width="0.2" />
<text x="155.77301864579252" y="25.878716259304593" font-size="3" text-anchor="middle" dominant-baseline="central" fill="#000">27</text>
<line x1="153.5879800735835" y1="21.037097640067145" x2="160.69434072018012" y2="35.4248540508557" stroke="#000" stroke-width="0.3" stroke-dasharray="2 1.5" />
<line x1="160.69434072018012" y1="35.4248540508557" x2="154.36906647968283" y2="31.001662943729873" stroke="#000" stroke-width="0.3" />
<polygon points="160.69434072018012,35.4248540508557 154.36906647968283,31.001662943729873 154.18110859695685,34.63757041671024 157.34374571720548,36.849165970273155" fill="none" stroke="#666" stroke-width="0.2" />
<text x="158.56323124494526" y="31.738148088688632" font-size="3" text-anchor="middle" dominant-baseline="central" fill="#000">28</text>
<line x1="153.5879800735835" y1="21.037097640067145" x2="174.93487806618728" y2="21.037097640067145" stroke="#000" stroke-width="0.3" stroke-dasharray="2 1.5" />
<line x1="174.93487806618728" y1="21.037097640067145" x2="170.3218093405311" y2="32.73887087352385" stroke="#000" stroke-width="0.3" />
<polygon points="174.93487806618728,21.037097640067145 170.3218093405311,32.73887087352385 176.15578581532782,31.65865505542215 178.46232017815592,25.8077684386938" fill="none" stroke="#666" stroke-width="0.2" />
<text x="170.9537686775334" y="26.227833908101722" font-size="3" text-anchor="middle" dominant-baseline="central" fill="#000">38</text>
<line x1="170.3218093405311" y1="32.73887087352385" x2="153.5879800735835" y2="21.037097640067145" stroke="#000" stroke-width="0.3" stroke-dasharray="2 1.5" />
<line x1="174.93487806618728" y1="21.037097640067145" x2="153.5879800735835" y2="21.037097640067145" stroke="#000" stroke-width="0.3" stroke-dasharray="2 1.5" />
<line x1="153.5879800735835" y1="21.037097640067145" x2="162.9959925152653" y2="12.68837308046934" stroke="#000" stroke-width="0.3" />
<text x="158.29198629442442" y="16.862735360268243" font-size="3" text-anchor="middle" dominant-baseline="central" fill="#000">18</text>
<line x1="162.9959925152653" y1="12.68837308046934" x2="174.93487806618728" y2="21.037097640067145" stroke="#000" stroke-width="0.3" />
<polygon points="162.9959925152653,12.68837308046934 174.93487806618728,21.037097640067145 175.2896465022959,14.1743622797989 169.32020372683493,10" fill="none" stroke="#666" stroke-width="0.2" />
<text x="167.9339076457125" y="18.337845768872388" font-size="3" text-anchor="middle" dominant-baseline="central" fill="#000">39</text>
</svg>