<svg xmlns="http://www.w3.org/2000/svg" width="215.9mm" height="279.4mm" viewBox="0 0 215.9 279.4">
<rect x="0" y="0" width="215.9" height="279.4" fill="none" stroke="#ccc" stroke-width="0.15" />
<line x1="44.68135673981446" y1="20.920689982551806" x2="53.39081471048378" y2="15.453218031889083" stroke="#000" stroke-width="0.3" stroke-dasharray="2 1.5" />
<line x1="53.39081471048378" y1="15.453218031889083" x2="53.58324711828021" y2="15.644052983573939" stroke="#000" stroke-width="0.3" />
<polygon points="53.39081471048378,15.453218031889083 53.58324711828021,15.644052983573939 53.61147299700505,15.51937128253413 53.51525679310683,15.423953806691737" fill="none" stroke="#666" stroke-width="0.2" />
<text x="52.21955470807506" y="16.826721602815002" font-size="3" text-anchor="middle" dominant-baseline="central" fill="#000">7</text>
<line x1="53.58324711828021" y1="15.644052983573939" x2="44.68135673981446" y2="20.920689982551806" stroke="#000" stroke-width="0.3" stroke-dasharray="2 1.5" />
<line x1="44.68135673981446" y1="20.920689982551806" x2="53.58324711828021" y2="15.644052983573939" stroke="#000" stroke-width="0.3" stroke-dasharray="2 1.5" />
<line x1="53.58324711828021" y1="15.644052983573939" x2="44.75073371074186" y2="21.14844846610007" stroke="#000" stroke-width="0.3" stroke-dasharray="2 1.5" />
<line x1="44.75073371074186" y1="21.14844846610007" x2="44.68135673981446" y2="20.920689982551806" stroke="#000" stroke-width="0.3" />
<polygon points="44.75073371074186,21.14844846610007 44.68135673981446,20.920689982551806 44.607597589127,21.005380391809823 44.6422860745907,21.119259633583972" fill="none" stroke="#666" stroke-width="0.2" />
<text x="46.437933554598814" y="20.510068908454397" font-size="3" text-anchor="middle" dominant-baseline="central" fill="#000">10</text>
<line x1="50.19230339323531" y1="65.67871448171464" x2="60.25394076158943" y2="74.3923612886677" stroke="#000" stroke-width="0.3" stroke-dasharray="2 1.5" />
<line x1="60.25394076158943" y1="74.3923612886677" x2="48.66387453177243" y2="70.01362321313849" stroke="#000" stroke-width="0.3" stroke-dasharray="2 1.5" />
<line x1="48.66387453177243" y1="70.01362321313849" x2="50.19230339323531" y2="65.67871448171464" stroke="#000" stroke-width="0.3" />
<text x="49.42808896250387" y="67.84616884742655" font-size="3" text-anchor="middle" dominant-baseline="central" fill="#000">3</text>
<line x1="44.75073371074186" y1="21.14844846610007" x2="53.58324711828021" y2="15.644052983573939" stroke="#000" stroke-width="0.3" stroke-dasharray="2 1.5" />
<line x1="53.58324711828021" y1="15.644052983573939" x2="56.283693125958514" y2="20.216347013698257" stroke="#000" stroke-width="0.3" />
<polygon points="53.58324711828021,15.644052983573939 56.283693125958514,20.216347013698257 57.43749923608867,17.99309510309586 56.087276232249515,15.706948088033704" fill="none" stroke="#666" stroke-width="0.2" />
<text x="53.38359989265579" y="18.845570017711736" font-size="3" text-anchor="middle" dominant-baseline="central" fill="#000">28</text>
<line x1="56.283693125958514" y1="20.216347013698257" x2="44.75073371074186" y2="21.14844846610007" stroke="#000" stroke-width="0.3" stroke-dasharray="2 1.5" />
<line x1="13.214575946738654" y1="104.20901283107585" x2="13.417227893119541" y2="104.08403571496541" stroke="#000" stroke-width="0.3" />
<polygon points="13.214575946738654,104.20901283107585 13.417227893119541,104.08403571496541 13.316574060080145,104.03421921544066 13.215248086889696,104.09670777349588" fill="none" stroke="#666" stroke-width="0.2" />
<text x="14.260747680711278" y="105.67860341207708" font-size="3" text-anchor="middle" dominant-baseline="central" fill="#000">109</text>
<line x1="13.417227893119541" y1="104.08403571496541" x2="16.133117708048033" y2="114.06954129874084" stroke="#000" stroke-width="0.3" stroke-dasharray="2 1.5" />
<line x1="16.133117708048033" y1="114.06954129874084" x2="13.214575946738654" y2="104.20901283107585" stroke="#000" stroke-width="0.3" />
<polygon points="16.133117708048033,114.06954129874084 13.214575946738654,104.20901283107585 10,107.84156165251585 11.459270880654685,112.77182588634835" fill="none" stroke="#666" stroke-width="0.2" />
<text x="16.399830983603785" y="108.62841632800392" font-size="3" text-anchor="middle" dominant-baseline="central" fill="#000">162</text>
<line x1="42.85161507063414" y1="15.704428725971455" x2="53.39081471048378" y2="15.453218031889083" stroke="#000" stroke-width="0.3" stroke-dasharray="2 1.5" />
<line x1="53.39081471048378" y1="15.453218031889083" x2="44.68135673981446" y2="20.920689982551806" stroke="#000" stroke-width="0.3" stroke-dasharray="2 1.5" />
<line x1="44.68135673981446" y1="20.920689982551806" x2="42.85161507063414" y2="15.704428725971455" stroke="#000" stroke-width="0.3" />
<text x="43.7664859052243" y="18.31255935426163" font-size="3" text-anchor="middle" dominant-baseline="central" fill="#000">76</text>
<line x1="42.85161507063414" y1="15.704428725971455" x2="48.83087903330522" y2="11.287464538100789" stroke="#000" stroke-width="0.3" />
<polygon points="42.85161507063414,15.704428725971455 48.83087903330522,11.287464538100789 45.56927736748919,10 42.57964538615364,12.20848209393535" fill="none" stroke="#666" stroke-width="0.2" />
<text x="46.91076073378083" y="14.943752034850586" font-size="3" text-anchor="middle" dominant-baseline="central" fill="#000">130</text>
<line x1="48.83087903330522" y1="11.287464538100789" x2="53.39081471048378" y2="15.453218031889083" stroke="#000" stroke-width="0.3" />
<polygon points="48.83087903330522,11.287464538100789 53.39081471048378,15.453218031889083 53.91713218870446,12.587805387570583 51.63716435011518,10.504928640676452" fill="none" stroke="#666" stroke-width="0.2" />
<text x="49.89679110751385" y="14.699276422981027" font-size="3" text-anchor="middle" dominant-baseline="central" fill="#000">131</text>
<line x1="53.39081471048378" y1="15.453218031889083" x2="42.85161507063414" y2="15.704428725971455" stroke="#000" stroke-width="0.3" stroke-dasharray="2 1.5" />
<line x1="48.66387453177243" y1="70.01362321313849" x2="60.25394076158943" y2="74.3923612886677" stroke="#000" stroke-width="0.3" stroke-dasharray="2 1.5" />
<line x1="60.25394076158943" y1="74.3923612886677" x2="57.96350724184576" y2="79.53220769120635" stroke="#000" stroke-width="0.3" />
<text x="59.1087240017176" y="76.96228448993702" font-size="3" text-anchor="middle" dominant-baseline="central" fill="#000">79</text>
<line x1="57.96350724184576" y1="79.53220769120635" x2="48.66387453177243" y2="70.01362321313849" stroke="#000" stroke-width="0.3" stroke-dasharray="2 1.5" />
<line x1="13.417227893119541" y1="104.08403571496541" x2="16.403663686996552" y2="114.05363269636086" stroke="#000" stroke-width="0.3" stroke-dasharray="2 1.5" />
<line x1="16.403663686996552" y1="114.05363269636086" x2="16.133117708048033" y2="114.06954129874084" stroke="#000" stroke-width="0.3" />
<polygon points="16.403663686996552,114.05363269636086 16.133117708048033,114.06954129874084 16.207117643737163,114.17378253972527 16.342390633211416,114.16582823853527" fill="none" stroke="#666" stroke-width="0.2" />
<text x="16.162729890556825" y="112.26469084198943" font-size="3" text-anchor="middle" dominant-baseline="central" fill="#000">140</text>
<line x1="16.133117708048033" y1="114.06954129874084" x2="13.417227893119541" y2="104.08403571496541" stroke="#000" stroke-width="0.3" stroke-dasharray="2 1.5" />
<line x1="13.417227893119541" y1="104.08403571496541" x2="17.614608380104347" y2="102.54956888100442" stroke="#000" stroke-width="0.3" />
<text x="15.515918136611944" y="103.3168022979849" font-size="3" text-anchor="middle" dominant-baseline="central" fill="#000">149</text>
<line x1="17.614608380104347" y1="102.54956888100442" x2="16.403663686996552" y2="114.05363269636086" stroke="#000" stroke-width="0.3" stroke-dasharray="2 1.5" />
<line x1="16.403663686996552" y1="114.05363269636086" x2="13.417227893119541" y2="104.08403571496541" stroke="#000" stroke-width="0.3" stroke-dasharray="2 1.5" />
<line x1="50.19230339323531" y1="65.67871448171464" x2="61.934306575050535" y2="69.02202820002128" stroke="#000" stroke-width="0.3" stroke-dasharray="2 1.5" />
<line x1="61.934306575050535" y1="69.02202820002128" x2="60.25394076158943" y2="74.3923612886677" stroke="#000" stroke-width="0.3" />
<text x="61.09412366831998" y="71.70719474434449" font-size="3" text-anchor="middle" dominant-baseline="central" fill="#000">15</text>
<line x1="60.25394076158943" y1="74.3923612886677" x2="50.19230339323531" y2="65.67871448171464" stroke="#000" stroke-width="0.3" stroke-dasharray="2 1.5" />
<line x1="51.35414577377379" y1="61.22367482015552" x2="61.934306575050535" y2="69.02202820002128" stroke="#000" stroke-width="0.3" stroke-dasharray="2 1.5" />
<line x1="61.934306575050535" y1="69.02202820002128" x2="50.19230339323531" y2="65.67871448171464" stroke="#000" stroke-width="0.3" stroke-dasharray="2 1.5" />
<line x1="50.19230339323531" y1="65.67871448171464" x2="51.35414577377379" y2="61.22367482015552" stroke="#000" stroke-width="0.3" />
<text x="50.77322458350455" y="63.45119465093508" font-size="3" text-anchor="middle" dominant-baseline="central" fill="#000">37</text>
<line x1="52.187381751224606" y1="42.83174912590263" x2="63.37802744571049" y2="41.234436484178396" stroke="#000" stroke-width="0.3" stroke-dasharray="2 1.5" />
<line x1="63.37802744571049" y1="41.234436484178396" x2="64.02508378307903" y2="46.78603923296812" stroke="#000" stroke-width="0.3" />
<text x="63.701555614394756" y="44.01023785857326" font-size="3" text-anchor="middle" dominant-baseline="central" fill="#000">22</text>
<line x1="64.02508378307903" y1="46.78603923296812" x2="52.187381751224606" y2="42.83174912590263" stroke="#000" stroke-width="0.3" stroke-dasharray="2 1.5" />
<line x1="51.428511029905806" y1="38.252253988151445" x2="63.37802744571049" y2="41.234436484178396" stroke="#000" stroke-width="0.3" stroke-dasharray="2 1.5" />
<line x1="63.37802744571049" y1="41.234436484178396" x2="52.187381751224606" y2="42.83174912590263" stroke="#000" stroke-width="0.3" stroke-dasharray="2 1.5" />
<line x1="52.187381751224606" y1="42.83174912590263" x2="51.428511029905806" y2="38.252253988151445" stroke="#000" stroke-width="0.3" />
<text x="51.807946390565206" y="40.542001557027035" font-size="3" text-anchor="middle" dominant-baseline="central" fill="#000">51</text>
<line x1="52.187381751224606" y1="42.83174912590263" x2="64.02508378307903" y2="46.78603923296812" stroke="#000" stroke-width="0.3" stroke-dasharray="2 1.5" />
<line x1="64.02508378307903" y1="46.78603923296812" x2="52.559366313330074" y2="47.45116152836988" stroke="#000" stroke-width="0.3" stroke-dasharray="2 1.5" />
<line x1="52.559366313330074" y1="47.45116152836988" x2="52.187381751224606" y2="42.83174912590263" stroke="#000" stroke-width="0.3" />
<text x="52.37337403227734" y="45.141455327136256" font-size="3" text-anchor="middle" dominant-baseline="central" fill="#000">23</text>
<line x1="52.559366313330074" y1="47.45116152836988" x2="64.02508378307903" y2="46.78603923296812" stroke="#000" stroke-width="0.3" stroke-dasharray="2 1.5" />
<line x1="64.02508378307903" y1="46.78603923296812" x2="64.20512227440307" y2="52.37990703015607" stroke="#000" stroke-width="0.3" />
<text x="64.11510302874105" y="49.5829731315621" font-size="3" text-anchor="middle" dominant-baseline="central" fill="#000">21</text>
<line x1="64.20512227440307" y1="52.37990703015607" x2="52.559366313330074" y2="47.45116152836988" stroke="#000" stroke-width="0.3" stroke-dasharray="2 1.5" />
<line x1="50.28683054867579" y1="33.74508019459604" x2="60.70930641641698" y2="30.412854778034138" stroke="#000" stroke-width="0.3" stroke-dasharray="2 1.5" />
<line x1="60.70930641641698" y1="30.412854778034138" x2="62.269756148393306" y2="35.76398153019845" stroke="#000" stroke-width="0.3" />
<text x="61.48953128240514" y="33.0884181541163" font-size="3" text-anchor="middle" dominant-baseline="central" fill="#000">27</text>
<line x1="62.269756148393306" y1="35.76398153019845" x2="50.28683054867579" y2="33.74508019459604" stroke="#000" stroke-width="0.3" stroke-dasharray="2 1.5" />
<line x1="48.769142818689694" y1="29.34221302504607" x2="60.70930641641698" y2="30.412854778034138" stroke="#000" stroke-width="0.3" stroke-dasharray="2 1.5" />
<line x1="60.70930641641698" y1="30.412854778034138" x2="50.28683054867579" y2="33.74508019459604" stroke="#000" stroke-width="0.3" stroke-dasharray="2 1.5" />
<line x1="50.28683054867579" y1="33.74508019459604" x2="48.769142818689694" y2="29.34221302504607" stroke="#000" stroke-width="0.3" />
<text x="49.52798668368274" y="31.543646609821057" font-size="3" text-anchor="middle" dominant-baseline="central" fill="#000">69</text>
<line x1="50.28683054867579" y1="33.74508019459604" x2="62.269756148393306" y2="35.76398153019845" stroke="#000" stroke-width="0.3" stroke-dasharray="2 1.5" />
<line x1="62.269756148393306" y1="35.76398153019845" x2="51.428511029905806" y2="38.252253988151445" stroke="#000" stroke-width="0.3" stroke-dasharray="2 1.5" />
<line x1="51.428511029905806" y1="38.252253988151445" x2="50.28683054867579" y2="33.74508019459604" stroke="#000" stroke-width="0.3" />
<text x="50.85767078929079" y="35.99866709137375" font-size="3" text-anchor="middle" dominant-baseline="central" fill="#000">41</text>
<line x1="51.428511029905806" y1="38.252253988151445" x2="62.269756148393306" y2="35.76398153019845" stroke="#000" stroke-width="0.3" stroke-dasharray="2 1.5" />
<line x1="62.269756148393306" y1="35.76398153019845" x2="63.37802744571049" y2="41.234436484178396" stroke="#000" stroke-width="0.3" />
<text x="62.8238917970519" y="38.499209007188426" font-size="3" text-anchor="middle" dominant-baseline="central" fill="#000">39</text>
<line x1="63.37802744571049" y1="41.234436484178396" x2="51.428511029905806" y2="38.252253988151445" stroke="#000" stroke-width="0.3" stroke-dasharray="2 1.5" />
<line x1="52.559366313330074" y1="47.45116152836988" x2="64.20512227440307" y2="52.37990703015607" stroke="#000" stroke-width="0.3" stroke-dasharray="2 1.5" />
<line x1="64.20512227440307" y1="52.37990703015607" x2="52.54311394073314" y2="52.07791693010222" stroke="#000" stroke-width="0.3" stroke-dasharray="2 1.5" />
<line x1="52.54311394073314" y1="52.07791693010222" x2="52.559366313330074" y2="47.45116152836988" stroke="#000" stroke-width="0.3" />
<text x="52.551240127031605" y="49.76453922923605" font-size="3" text-anchor="middle" dominant-baseline="central" fill="#000">17</text>
<line x1="52.54311394073314" y1="52.07791693010222" x2="64.20512227440307" y2="52.37990703015607" stroke="#000" stroke-width="0.3" stroke-dasharray="2 1.5" />
<line x1="64.20512227440307" y1="52.37990703015607" x2="63.91561321929916" y2="57.97676584689428" stroke="#000" stroke-width="0.3" />
<text x="64.06036774685111" y="55.17833643852518" font-size="3" text-anchor="middle" dominant-baseline="central" fill="#000">13</text>
<line x1="63.91561321929916" y1="57.97676584689428" x2="52.54311394073314" y2="52.07791693010222" stroke="#000" stroke-width="0.3" stroke-dasharray="2 1.5" />
<line x1="52.54311394073314" y1="52.07791693010222" x2="63.91561321929916" y2="57.97676584689428" stroke="#000" stroke-width="0.3" stroke-dasharray="2 1.5" />
<line x1="63.91561321929916" y1="57.97676584689428" x2="52.14000689455644" y2="56.679500494981234" stroke="#000" stroke-width="0.3" stroke-dasharray="2 1.5" />
<line x1="52.14000689455644" y1="56.679500494981234" x2="52.54311394073314" y2="52.07791693010222" stroke="#000" stroke-width="0.3" />
<text x="52.34156041764479" y="54.37870871254172" font-size="3" text-anchor="middle" dominant-baseline="central" fill="#000">19</text>
<line x1="52.14000689455644" y1="56.679500494981234" x2="63.91561321929916" y2="57.97676584689428" stroke="#000" stroke-width="0.3" stroke-dasharray="2 1.5" />
<line x1="63.91561321929916" y1="57.97676584689428" x2="63.157316248640974" y2="63.53722410697261" stroke="#000" stroke-width="0.3" />
<text x="63.536464733970064" y="60.75699497693344" font-size="3" text-anchor="middle" dominant-baseline="central" fill="#000">35</text>
<line x1="63.157316248640974" y1="63.53722410697261" x2="52.14000689455644" y2="56.679500494981234" stroke="#000" stroke-width="0.3" stroke-dasharray="2 1.5" />
<line x1="51.35414577377379" y1="61.22367482015552" x2="63.157316248640974" y2="63.53722410697261" stroke="#000" stroke-width="0.3" stroke-dasharray="2 1.5" />
<line x1="63.157316248640974" y1="63.53722410697261" x2="61.934306575050535" y2="69.02202820002128" stroke="#000" stroke-width="0.3" />
<text x="62.545811411845754" y="66.27962615349695" font-size="3" text-anchor="middle" dominant-baseline="central" fill="#000">54</text>
<line x1="61.934306575050535" y1="69.02202820002128" x2="51.35414577377379" y2="61.22367482015552" stroke="#000" stroke-width="0.3" stroke-dasharray="2 1.5" />
<line x1="52.14000689455644" y1="56.679500494981234" x2="63.157316248640974" y2="63.53722410697261" stroke="#000" stroke-width="0.3" stroke-dasharray="2 1.5" />
<line x1="63.157316248640974" y1="63.53722410697261" x2="51.35414577377379" y2="61.22367482015552" stroke="#000" stroke-width="0.3" stroke-dasharray="2 1.5" />
<line x1="51.35414577377379" y1="61.22367482015552" x2="52.14000689455644" y2="56.679500494981234" stroke="#000" stroke-width="0.3" />
<text x="51.747076334165115" y="58.95158765756838" font-size="3" text-anchor="middle" dominant-baseline="central" fill="#000">55</text>
<line x1="48.769142818689694" y1="29.34221302504607" x2="58.70888202152591" y2="25.21826358303759" stroke="#000" stroke-width="0.3" stroke-dasharray="2 1.5" />
<line x1="58.70888202152591" y1="25.21826358303759" x2="60.70930641641698" y2="30.412854778034138" stroke="#000" stroke-width="0.3" />
<text x="59.709094218971444" y="27.815559180535864" font-size="3" text-anchor="middle" dominant-baseline="central" fill="#000">45</text>
<line x1="60.70930641641698" y1="30.412854778034138" x2="48.769142818689694" y2="29.34221302504607" stroke="#000" stroke-width="0.3" stroke-dasharray="2 1.5" />
<line x1="46.88491521567219" y1="25.075006847311336" x2="58.70888202152591" y2="25.21826358303759" stroke="#000" stroke-width="0.3" stroke-dasharray="2 1.5" />
<line x1="58.70888202152591" y1="25.21826358303759" x2="48.769142818689694" y2="29.34221302504607" stroke="#000" stroke-width="0.3" stroke-dasharray="2 1.5" />
<line x1="48.769142818689694" y1="29.34221302504607" x2="46.88491521567219" y2="25.075006847311336" stroke="#000" stroke-width="0.3" />
<text x="47.82702901718094" y="27.208609936178703" font-size="3" text-anchor="middle" dominant-baseline="central" fill="#000">44</text>
<line x1="46.88491521567219" y1="25.075006847311336" x2="56.283693125958514" y2="20.216347013698257" stroke="#000" stroke-width="0.3" stroke-dasharray="2 1.5" />
<line x1="56.283693125958514" y1="20.216347013698257" x2="58.70888202152591" y2="25.21826358303759" stroke="#000" stroke-width="0.3" />
<text x="57.49628757374221" y="22.717305298367926" font-size="3" text-anchor="middle" dominant-baseline="central" fill="#000">24</text>
<line x1="58.70888202152591" y1="25.21826358303759" x2="46.88491521567219" y2="25.075006847311336" stroke="#000" stroke-width="0.3" stroke-dasharray="2 1.5" />
<line x1="44.75073371074186" y1="21.14844846610007" x2="56.283693125958514" y2="20.216347013698257" stroke="#000" stroke-width="0.3" stroke-dasharray="2 1.5" />
<line x1="56.283693125958514" y1="20.216347013698257" x2="46.88491521567219" y2="25.075006847311336" stroke="#000" stroke-width="0.3" stroke-dasharray="2 1.5" />
<line x1="46.88491521567219" y1="25.075006847311336" x2="44.75073371074186" y2="21.14844846610007" stroke="#000" stroke-width="0.3" />
<text x="45.817824463207025" y="23.111727656705703" font-size="3" text-anchor="middle" dominant-baseline="central" fill="#000">87</text>
<line x1="42.454694740230515" y1="82.31518477558966" x2="52.146412433716634" y2="89.12829051808059" stroke="#000" stroke-width="0.3" stroke-dasharray="2 1.5" />
<line x1="52.146412433716634" y1="89.12829051808059" x2="48.662797378123805" y2="93.51840102374378" stroke="#000" stroke-width="0.3" />
<text x="50.40460490592022" y="91.32334577091218" font-size="3" text-anchor="middle" dominant-baseline="central" fill="#000">116</text>
<line x1="48.662797378123805" y1="93.51840102374378" x2="42.454694740230515" y2="82.31518477558966" stroke="#000" stroke-width="0.3" stroke-dasharray="2 1.5" />
<line x1="42.454694740230515" y1="82.31518477558966" x2="44.869896310758385" y2="78.38658459582454" stroke="#000" stroke-width="0.3" />
<text x="43.66229552549445" y="80.3508846857071" font-size="3" text-anchor="middle" dominant-baseline="central" fill="#000">151</text>
<line x1="44.869896310758385" y1="78.38658459582454" x2="52.146412433716634" y2="89.12829051808059" stroke="#000" stroke-width="0.3" stroke-dasharray="2 1.5" />
<line x1="52.146412433716634" y1="89.12829051808059" x2="42.454694740230515" y2="82.31518477558966" stroke="#000" stroke-width="0.3" stroke-dasharray="2 1.5" />
<line x1="39.714397600855065" y1="86.03376490558185" x2="42.454694740230515" y2="82.31518477558966" stroke="#000" stroke-width="0.3" />
<text x="41.084546170542794" y="84.17447484058576" font-size="3" text-anchor="middle" dominant-baseline="central" fill="#000">155</text>
<line x1="42.454694740230515" y1="82.31518477558966" x2="48.662797378123805" y2="93.51840102374378" stroke="#000" stroke-width="0.3" stroke-dasharray="2 1.5" />
<line x1="48.662797378123805" y1="93.51840102374378" x2="39.714397600855065" y2="86.03376490558185" stroke="#000" stroke-width="0.3" stroke-dasharray="2 1.5" />
<line x1="39.714397600855065" y1="86.03376490558185" x2="48.662797378123805" y2="93.51840102374378" stroke="#000" stroke-width="0.3" stroke-dasharray="2 1.5" />
<line x1="48.662797378123805" y1="93.51840102374378" x2="44.82891348410291" y2="97.59579051678242" stroke="#000" stroke-width="0.3" />
<text x="46.745855431113355" y="95.55709577026309" font-size="3" text-anchor="middle" dominant-baseline="central" fill="#000">103</text>
<line x1="44.82891348410291" y1="97.59579051678242" x2="39.714397600855065" y2="86.03376490558185" stroke="#000" stroke-width="0.3" stroke-dasharray="2 1.5" />
<line x1="44.869896310758385" y1="78.38658459582454" x2="55.25428182777174" y2="84.45551209542049" stroke="#000" stroke-width="0.3" stroke-dasharray="2 1.5" />
<line x1="55.25428182777174" y1="84.45551209542049" x2="52.146412433716634" y2="89.12829051808059" stroke="#000" stroke-width="0.3" />
<text x="53.70034713074419" y="86.79190130675053" font-size="3" text-anchor="middle" dominant-baseline="central" fill="#000">71</text>
<line x1="52.146412433716634" y1="89.12829051808059" x2="44.869896310758385" y2="78.38658459582454" stroke="#000" stroke-width="0.3" stroke-dasharray="2 1.5" />
<line x1="44.869896310758385" y1="78.38658459582454" x2="46.94410549091443" y2="74.27624247134922" stroke="#000" stroke-width="0.3" />
<text x="45.90700090083641" y="76.33141353358688" font-size="3" text-anchor="middle" dominant-baseline="central" fill="#000">144</text>
<line x1="46.94410549091443" y1="74.27624247134922" x2="55.25428182777174" y2="84.45551209542049" stroke="#000" stroke-width="0.3" stroke-dasharray="2 1.5" />
<line x1="55.25428182777174" y1="84.45551209542049" x2="44.869896310758385" y2="78.38658459582454" stroke="#000" stroke-width="0.3" stroke-dasharray="2 1.5" />
<line x1="36.66724488021697" y1="89.51542973496768" x2="39.714397600855065" y2="86.03376490558185" stroke="#000" stroke-width="0.3" />
<text x="38.19082124053602" y="87.77459732027476" font-size="3" text-anchor="middle" dominant-baseline="central" fill="#000">159</text>
<line x1="39.714397600855065" y1="86.03376490558185" x2="44.82891348410291" y2="97.59579051678242" stroke="#000" stroke-width="0.3" stroke-dasharray="2 1.5" />
<line x1="44.82891348410291" y1="97.59579051678242" x2="36.66724488021697" y2="89.51542973496768" stroke="#000" stroke-width="0.3" stroke-dasharray="2 1.5" />
<line x1="36.66724488021697" y1="89.51542973496768" x2="44.82891348410291" y2="97.59579051678242" stroke="#000" stroke-width="0.3" stroke-dasharray="2 1.5" />
<line x1="44.82891348410291" y1="97.59579051678242" x2="40.67262743772407" y2="101.33266906508646" stroke="#000" stroke-width="0.3" />
<text x="42.750770460913486" y="99.46422979093444" font-size="3" text-anchor="middle" dominant-baseline="central" fill="#000">118</text>
<line x1="40.67262743772407" y1="101.33266906508646" x2="36.66724488021697" y2="89.51542973496768" stroke="#000" stroke-width="0.3" stroke-dasharray="2 1.5" />
<line x1="33.333699247035874" y1="92.73487331577667" x2="36.66724488021697" y2="89.51542973496768" stroke="#000" stroke-width="0.3" />
<text x="35.00047206362642" y="91.12515152537217" font-size="3" text-anchor="middle" dominant-baseline="central" fill="#000">143</text>
<line x1="36.66724488021697" y1="89.51542973496768" x2="40.67262743772407" y2="101.33266906508646" stroke="#000" stroke-width="0.3" stroke-dasharray="2 1.5" />
<line x1="40.67262743772407" y1="101.33266906508646" x2="33.333699247035874" y2="92.73487331577667" stroke="#000" stroke-width="0.3" stroke-dasharray="2 1.5" />
<line x1="33.333699247035874" y1="92.73487331577667" x2="40.67262743772407" y2="101.33266906508646" stroke="#000" stroke-width="0.3" stroke-dasharray="2 1.5" />
<line x1="40.67262743772407" y1="101.33266906508646" x2="36.22400267613354" y2="104.70370457402795" stroke="#000" stroke-width="0.3" />
<text x="38.448315056928806" y="103.0181868195572" font-size="3" text-anchor="middle" dominant-baseline="central" fill="#000">122</text>
<line x1="36.22400267613354" y1="104.70370457402795" x2="33.333699247035874" y2="92.73487331577667" stroke="#000" stroke-width="0.3" stroke-dasharray="2 1.5" />
<line x1="21.84972397261171" y1="100.59427909650404" x2="26.57956897433524" y2="110.2604024497575" stroke="#000" stroke-width="0.3" stroke-dasharray="2 1.5" />
<line x1="26.57956897433524" y1="110.2604024497575" x2="21.45282387791445" y2="112.40916843565277" stroke="#000" stroke-width="0.3" />
<text x="24.016196426124843" y="111.33478544270514" font-size="3" text-anchor="middle" dominant-baseline="central" fill="#000">77</text>
<line x1="21.45282387791445" y1="112.40916843565277" x2="21.84972397261171" y2="100.59427909650404" stroke="#000" stroke-width="0.3" stroke-dasharray="2 1.5" />
<line x1="21.84972397261171" y1="100.59427909650404" x2="25.89957032194003" y2="98.29485310176463" stroke="#000" stroke-width="0.3" />
<text x="23.87464714727587" y="99.44456609913433" font-size="3" text-anchor="middle" dominant-baseline="central" fill="#000">135</text>
<line x1="25.89957032194003" y1="98.29485310176463" x2="26.57956897433524" y2="110.2604024497575" stroke="#000" stroke-width="0.3" stroke-dasharray="2 1.5" />
<line x1="26.57956897433524" y1="110.2604024497575" x2="21.84972397261171" y2="100.59427909650404" stroke="#000" stroke-width="0.3" stroke-dasharray="2 1.5" />
<line x1="46.94410549091443" y1="74.27624247134922" x2="48.66387453177243" y2="70.01362321313849" stroke="#000" stroke-width="0.3" />
<text x="47.80399001134343" y="72.14493284224386" font-size="3" text-anchor="middle" dominant-baseline="central" fill="#000">9</text>
<line x1="48.66387453177243" y1="70.01362321313849" x2="57.96350724184576" y2="79.53220769120635" stroke="#000" stroke-width="0.3" stroke-dasharray="2 1.5" />
<line x1="57.96350724184576" y1="79.53220769120635" x2="46.94410549091443" y2="74.27624247134922" stroke="#000" stroke-width="0.3" stroke-dasharray="2 1.5" />
<line x1="46.94410549091443" y1="74.27624247134922" x2="57.96350724184576" y2="79.53220769120635" stroke="#000" stroke-width="0.3" stroke-dasharray="2 1.5" />
<line x1="57.96350724184576" y1="79.53220769120635" x2="55.25428182777174" y2="84.45551209542049" stroke="#000" stroke-width="0.3" />
<text x="56.608894534808755" y="81.99385989331341" font-size="3" text-anchor="middle" dominant-baseline="central" fill="#000">88</text>
<line x1="55.25428182777174" y1="84.45551209542049" x2="46.94410549091443" y2="74.27624247134922" stroke="#000" stroke-width="0.3" stroke-dasharray="2 1.5" />
<line x1="17.614608380104347" y1="102.54956888100442" x2="21.84972397261171" y2="100.59427909650404" stroke="#000" stroke-width="0.3" />
<text x="19.732166176358028" y="101.57192398875424" font-size="3" text-anchor="middle" dominant-baseline="central" fill="#000">141</text>
<line x1="21.84972397261171" y1="100.59427909650404" x2="21.45282387791445" y2="112.40916843565277" stroke="#000" stroke-width="0.3" stroke-dasharray="2 1.5" />
<line x1="21.45282387791445" y1="112.40916843565277" x2="17.614608380104347" y2="102.54956888100442" stroke="#000" stroke-width="0.3" stroke-dasharray="2 1.5" />
<line x1="17.614608380104347" y1="102.54956888100442" x2="21.45282387791445" y2="112.40916843565277" stroke="#000" stroke-width="0.3" stroke-dasharray="2 1.5" />
<line x1="21.45282387791445" y1="112.40916843565277" x2="16.403663686996552" y2="114.05363269636086" stroke="#000" stroke-width="0.3" />
<text x="18.928243782455503" y="113.23140056600681" font-size="3" text-anchor="middle" dominant-baseline="central" fill="#000">157</text>
<line x1="16.403663686996552" y1="114.05363269636086" x2="17.614608380104347" y2="102.54956888100442" stroke="#000" stroke-width="0.3" stroke-dasharray="2 1.5" />
<line x1="29.736312928683784" y1="95.66855226291712" x2="33.333699247035874" y2="92.73487331577667" stroke="#000" stroke-width="0.3" />
<text x="31.535006087859827" y="94.20171278934689" font-size="3" text-anchor="middle" dominant-baseline="central" fill="#000">139</text>
<line x1="33.333699247035874" y1="92.73487331577667" x2="36.22400267613354" y2="104.70370457402795" stroke="#000" stroke-width="0.3" stroke-dasharray="2 1.5" />
<line x1="36.22400267613354" y1="104.70370457402795" x2="29.736312928683784" y2="95.66855226291712" stroke="#000" stroke-width="0.3" stroke-dasharray="2 1.5" />
<line x1="29.736312928683784" y1="95.66855226291712" x2="36.22400267613354" y2="104.70370457402795" stroke="#000" stroke-width="0.3" stroke-dasharray="2 1.5" />
<line x1="36.22400267613354" y1="104.70370457402795" x2="31.515064041218746" y2="107.68622998320059" stroke="#000" stroke-width="0.3" />
<text x="33.869533358676144" y="106.19496727861427" font-size="3" text-anchor="middle" dominant-baseline="central" fill="#000">112</text>
<line x1="31.515064041218746" y1="107.68622998320059" x2="29.736312928683784" y2="95.66855226291712" stroke="#000" stroke-width="0.3" stroke-dasharray="2 1.5" />
<line x1="25.89957032194003" y1="98.29485310176463" x2="29.736312928683784" y2="95.66855226291712" stroke="#000" stroke-width="0.3" />
<text x="27.817941625311907" y="96.98170268234088" font-size="3" text-anchor="middle" dominant-baseline="central" fill="#000">123</text>
<line x1="29.736312928683784" y1="95.66855226291712" x2="31.515064041218746" y2="107.68622998320059" stroke="#000" stroke-width="0.3" stroke-dasharray="2 1.5" />
<line x1="31.515064041218746" y1="107.68622998320059" x2="25.89957032194003" y2="98.29485310176463" stroke="#000" stroke-width="0.3" stroke-dasharray="2 1.5" />
<line x1="25.89957032194003" y1="98.29485310176463" x2="31.515064041218746" y2="107.68622998320059" stroke="#000" stroke-width="0.3" stroke-dasharray="2 1.5" />
<line x1="31.515064041218746" y1="107.68622998320059" x2="26.57956897433524" y2="110.2604024497575" stroke="#000" stroke-width="0.3" />
<text x="29.04731650777699" y="108.97331621647905" font-size="3" text-anchor="middle" dominant-baseline="central" fill="#000">64</text>
<line x1="26.57956897433524" y1="110.2604024497575" x2="25.89957032194003" y2="98.29485310176463" stroke="#000" stroke-width="0.3" stroke-dasharray="2 1.5" />
</svg>