<svg xmlns="http://www.w3.org/2000/svg" width="215.9mm" height="279.4mm" viewBox="0 0 215.9 279.4">
<rect x="0" y="0" width="215.9" height="279.4" fill="none" stroke="#ccc" stroke-width="0.15" />
<line x1="33.69683310620056" y1="126.16856985676549" x2="55.10115821420067" y2="126.16856985676549" stroke="#000" stroke-width="0.3" stroke-dasharray="2 1.5" />
<line x1="55.10115821420067" y1="126.16856985676549" x2="70.23634201226923" y2="141.303672919766" stroke="#000" stroke-width="0.3" />
<polygon points="55.10115821420067,126.16856985676549 70.23634201226923,141.303672919766 72.5065872879523,131.46582363478845 64.93899538891802,123.8982721032882" fill="none" stroke="#666" stroke-width="0.2" />
<text x="61.39596130181765" y="135.008916989111" font-size="3" text-anchor="middle" dominant-baseline="central" fill="#000">1</text>
<line x1="70.23634201226923" y1="141.303672919766" x2="33.69683310620056" y2="126.16856985676549" stroke="#000" stroke-width="0.3" stroke-dasharray="2 1.5" />
<line x1="33.69683310620056" y1="126.16856985676549" x2="70.23634201226923" y2="141.303672919766" stroke="#000" stroke-width="0.3" stroke-dasharray="2 1.5" />
<line x1="70.23634201226923" y1="141.303672919766" x2="70.23634201226923" y2="162.7079980277661" stroke="#000" stroke-width="0.3" />
<polygon points="70.23634201226923,141.303672919766 70.23634201226923,162.7079980277661 78.79807205546928,157.3569167507661 78.79807205546928,146.65475419676602" fill="none" stroke="#666" stroke-width="0.2" />
<text x="68.43634201226924" y="152.00583547376607" font-size="3" text-anchor="middle" dominant-baseline="central" fill="#000">2</text>
<line x1="70.23634201226923" y1="162.7079980277661" x2="33.69683310620056" y2="126.16856985676549" stroke="#000" stroke-width="0.3" stroke-dasharray="2 1.5" />
<line x1="33.69683310620056" y1="126.16856985676549" x2="70.23634201226923" y2="162.7079980277661" stroke="#000" stroke-width="0.3" stroke-dasharray="2 1.5" />
<line x1="70.23634201226923" y1="162.7079980277661" x2="55.10123894926872" y2="177.84318182583468" stroke="#000" stroke-width="0.3" />
<polygon points="70.23634201226923,162.7079980277661 55.10123894926872,177.84318182583468 64.93908823424627,180.11342710151774 72.50663976574651,172.54583520248343" fill="none" stroke="#666" stroke-width="0.2" />
<text x="61.395994879923755" y="169.0028011153831" font-size="3" text-anchor="middle" dominant-baseline="central" fill="#000">3</text>
<line x1="55.10123894926872" y1="177.84318182583468" x2="33.69683310620056" y2="126.16856985676549" stroke="#000" stroke-width="0.3" stroke-dasharray="2 1.5" />
<line x1="33.69683310620056" y1="126.16856985676549" x2="55.10123894926872" y2="177.84318182583468" stroke="#000" stroke-width="0.3" stroke-dasharray="2 1.5" />
<line x1="55.10123894926872" y1="177.84318182583468" x2="33.6969138412686" y2="177.84318182583468" stroke="#000" stroke-width="0.3" />
<polygon points="55.10123894926872,177.84318182583468 33.6969138412686,177.84318182583468 39.04799511826863,186.40491186903472 49.75015767226869,186.40491186903472" fill="none" stroke="#666" stroke-width="0.2" />
<text x="44.39907639526866" y="176.04318182583467" font-size="3" text-anchor="middle" dominant-baseline="central" fill="#000">4</text>
<line x1="33.6969138412686" y1="177.84318182583468" x2="33.69683310620056" y2="126.16856985676549" stroke="#000" stroke-width="0.3" stroke-dasharray="2 1.5" />
<line x1="33.69683310620056" y1="126.16856985676549" x2="33.6969138412686" y2="177.84318182583468" stroke="#000" stroke-width="0.3" stroke-dasharray="2 1.5" />
<line x1="33.6969138412686" y1="177.84318182583468" x2="18.56173004320004" y2="162.70807876283416" stroke="#000" stroke-width="0.3" />
<polygon points="33.6969138412686,177.84318182583468 18.56173004320004,162.70807876283416 16.291484767516977,172.5459280478117 23.859076666551253,180.11347957931196" fill="none" stroke="#666" stroke-width="0.2" />
<text x="27.40211075365162" y="169.00283469348918" font-size="3" text-anchor="middle" dominant-baseline="central" fill="#000">5</text>
<line x1="18.56173004320004" y1="162.70807876283416" x2="33.69683310620056" y2="126.16856985676549" stroke="#000" stroke-width="0.3" stroke-dasharray="2 1.5" />
<line x1="33.69683310620056" y1="126.16856985676549" x2="18.561730043200047" y2="162.70807876283416" stroke="#000" stroke-width="0.3" stroke-dasharray="2 1.5" />
<line x1="18.561730043200047" y1="162.70807876283416" x2="18.561730043200058" y2="141.30375365483405" stroke="#000" stroke-width="0.3" />
<polygon points="18.561730043200047,162.70807876283416 18.561730043200058,141.30375365483405 10.000000000000004,146.65483493183407 10,157.3569974858341" fill="none" stroke="#666" stroke-width="0.2" />
<text x="20.36173004320005" y="152.0059162088341" font-size="3" text-anchor="middle" dominant-baseline="central" fill="#000">6</text>
<line x1="18.561730043200058" y1="141.30375365483405" x2="33.69683310620056" y2="126.16856985676549" stroke="#000" stroke-width="0.3" />
<polygon points="18.561730043200058,141.30375365483405 33.69683310620056,126.16856985676549 23.858983821223013,123.89832458108242 16.291432289722763,131.46591648011668" fill="none" stroke="#666" stroke-width="0.2" />
<text x="27.40207717554552" y="135.00895056721708" font-size="3" text-anchor="middle" dominant-baseline="central" fill="#000">7</text>
<line x1="119.31405280313294" y1="18.56173004320003" x2="134.4492366012015" y2="33.696833106200515" stroke="#000" stroke-width="0.3" />
<polygon points="119.31405280313294,18.56173004320003 134.4492366012015,33.696833106200515 136.71948187688457,23.858983821222967 129.15188997785026,16.29143228972272" fill="none" stroke="#666" stroke-width="0.2" />
<text x="125.60885589074992" y="27.402077175545493" font-size="3" text-anchor="middle" dominant-baseline="central" fill="#000">8</text>
<line x1="134.4492366012015" y1="33.696833106200515" x2="134.44923660120156" y2="55.10115821420062" stroke="#000" stroke-width="0.3" />
<polygon points="134.4492366012015,33.696833106200515 134.44923660120156,55.10115821420062 143.0109666444016,49.75007693720058 143.01096664440158,39.04791438320052" fill="none" stroke="#666" stroke-width="0.2" />
<text x="132.64923660120152" y="44.39899566020057" font-size="3" text-anchor="middle" dominant-baseline="central" fill="#000">9</text>
<line x1="134.44923660120156" y1="55.10115821420062" x2="119.31405280313294" y2="18.56173004320003" stroke="#000" stroke-width="0.3" stroke-dasharray="2 1.5" />
<line x1="119.31405280313294" y1="18.56173004320003" x2="134.44923660120156" y2="55.10115821420062" stroke="#000" stroke-width="0.3" stroke-dasharray="2 1.5" />
<line x1="134.44923660120156" y1="55.10115821420062" x2="119.31413353820108" y2="70.2363420122692" stroke="#000" stroke-width="0.3" />
<polygon points="134.44923660120156,55.10115821420062 119.31413353820108,70.2363420122692 129.15198282317863,72.50658728795224 136.71953435467884,64.93899538891796" fill="none" stroke="#666" stroke-width="0.2" />
<text x="125.6088894688561" y="61.395961301817614" font-size="3" text-anchor="middle" dominant-baseline="central" fill="#000">10</text>
<line x1="119.31413353820108" y1="70.2363420122692" x2="119.31405280313294" y2="18.56173004320003" stroke="#000" stroke-width="0.3" stroke-dasharray="2 1.5" />
<line x1="119.31405280313294" y1="18.56173004320003" x2="119.31413353820108" y2="70.2363420122692" stroke="#000" stroke-width="0.3" stroke-dasharray="2 1.5" />
<line x1="119.31413353820108" y1="70.2363420122692" x2="97.90980843020094" y2="70.23634201226923" stroke="#000" stroke-width="0.3" stroke-dasharray="2 1.5" />
<line x1="97.90980843020094" y1="70.23634201226923" x2="119.31405280313294" y2="18.56173004320003" stroke="#000" stroke-width="0.3" stroke-dasharray="2 1.5" />
<line x1="119.31405280313294" y1="18.56173004320003" x2="97.90980843020094" y2="70.23634201226923" stroke="#000" stroke-width="0.3" stroke-dasharray="2 1.5" />
<line x1="97.90980843020094" y1="70.23634201226923" x2="82.77462463213237" y2="55.101238949268755" stroke="#000" stroke-width="0.3" />
<polygon points="97.90980843020094,70.23634201226923 82.77462463213237,55.101238949268755 80.5043793564493,64.9390882342463 88.0719712554836,72.50663976574654" fill="none" stroke="#666" stroke-width="0.2" />
<text x="91.61500534258396" y="61.39599487992377" font-size="3" text-anchor="middle" dominant-baseline="central" fill="#000">11</text>
<line x1="82.77462463213237" y1="55.101238949268755" x2="119.31405280313294" y2="18.56173004320003" stroke="#000" stroke-width="0.3" stroke-dasharray="2 1.5" />
<line x1="119.31405280313294" y1="18.56173004320003" x2="82.77462463213237" y2="55.101238949268755" stroke="#000" stroke-width="0.3" stroke-dasharray="2 1.5" />
<line x1="82.77462463213237" y1="55.101238949268755" x2="82.77462463213233" y2="33.696913841268625" stroke="#000" stroke-width="0.3" />
<polygon points="82.77462463213237,55.101238949268755 82.77462463213233,33.696913841268625 74.21289458893229,39.04799511826867 74.21289458893231,49.75015767226874" fill="none" stroke="#666" stroke-width="0.2" />
<text x="84.57462463213234" y="44.39907639526869" font-size="3" text-anchor="middle" dominant-baseline="central" fill="#000">12</text>
<line x1="82.77462463213233" y1="33.696913841268625" x2="119.31405280313294" y2="18.56173004320003" stroke="#000" stroke-width="0.3" stroke-dasharray="2 1.5" />
<line x1="119.31405280313294" y1="18.56173004320003" x2="82.77462463213233" y2="33.696913841268625" stroke="#000" stroke-width="0.3" stroke-dasharray="2 1.5" />
<line x1="82.77462463213233" y1="33.696913841268625" x2="97.90972769513283" y2="18.561730043200065" stroke="#000" stroke-width="0.3" />
<polygon points="82.77462463213233,33.696913841268625 97.90972769513283,18.561730043200065 88.07187841015529,16.291484767517 80.50432687865504,23.85907666655129" fill="none" stroke="#666" stroke-width="0.2" />
<text x="91.6149717644778" y="27.402110753651645" font-size="3" text-anchor="middle" dominant-baseline="central" fill="#000">13</text>
<line x1="97.90972769513283" y1="18.561730043200065" x2="119.31405280313294" y2="18.56173004320003" stroke="#000" stroke-width="0.3" />
<polygon points="97.90972769513283,18.561730043200065 119.31405280313294,18.56173004320003 113.9629715261329,10 103.26080897213284,10.000000000000012" fill="none" stroke="#666" stroke-width="0.2" />
<text x="108.61189024913288" y="20.361730043200048" font-size="3" text-anchor="middle" dominant-baseline="central" fill="#000">14</text>
<line x1="33.69683310620059" y1="70.23634201226928" x2="55.101158214200716" y2="70.23634201226928" stroke="#000" stroke-width="0.3" />
<text x="44.398995660200654" y="70.23634201226928" font-size="3" text-anchor="middle" dominant-baseline="central" fill="#000">13</text>
<line x1="55.101158214200716" y1="70.23634201226928" x2="55.1011582142007" y2="126.16856985676549" stroke="#000" stroke-width="0.3" stroke-dasharray="2 1.5" />
<line x1="55.1011582142007" y1="126.16856985676549" x2="33.69683310620059" y2="70.23634201226928" stroke="#000" stroke-width="0.3" stroke-dasharray="2 1.5" />
<line x1="33.69683310620059" y1="70.23634201226928" x2="55.1011582142007" y2="126.16856985676549" stroke="#000" stroke-width="0.3" stroke-dasharray="2 1.5" />
<line x1="55.1011582142007" y1="126.16856985676549" x2="33.69683310620056" y2="126.16856985676549" stroke="#000" stroke-width="0.3" stroke-dasharray="2 1.5" />
<line x1="33.69683310620056" y1="126.16856985676549" x2="33.69683310620059" y2="70.23634201226928" stroke="#000" stroke-width="0.3" stroke-dasharray="2 1.5" />
<line x1="55.101158214200716" y1="70.23634201226928" x2="76.50548332220082" y2="70.23634201226926" stroke="#000" stroke-width="0.3" />
<text x="65.80332076820076" y="70.23634201226926" font-size="3" text-anchor="middle" dominant-baseline="central" fill="#000">12</text>
<line x1="76.50548332220082" y1="70.23634201226926" x2="76.50548332220085" y2="126.16856985676549" stroke="#000" stroke-width="0.3" stroke-dasharray="2 1.5" />
<line x1="76.50548332220085" y1="126.16856985676549" x2="55.101158214200716" y2="70.23634201226928" stroke="#000" stroke-width="0.3" stroke-dasharray="2 1.5" />
<line x1="55.101158214200716" y1="70.23634201226928" x2="76.50548332220085" y2="126.16856985676549" stroke="#000" stroke-width="0.3" stroke-dasharray="2 1.5" />
<line x1="76.50548332220085" y1="126.16856985676549" x2="55.1011582142007" y2="126.16856985676549" stroke="#000" stroke-width="0.3" />
<text x="65.80332076820078" y="126.16856985676549" font-size="3" text-anchor="middle" dominant-baseline="central" fill="#000">1</text>
<line x1="55.1011582142007" y1="126.16856985676549" x2="55.101158214200716" y2="70.23634201226928" stroke="#000" stroke-width="0.3" stroke-dasharray="2 1.5" />
<line x1="76.50548332220082" y1="70.23634201226926" x2="97.90980843020094" y2="70.23634201226923" stroke="#000" stroke-width="0.3" />
<text x="87.20764587620087" y="70.23634201226925" font-size="3" text-anchor="middle" dominant-baseline="central" fill="#000">11</text>
<line x1="97.90980843020094" y1="70.23634201226923" x2="97.909808430201" y2="126.16856985676543" stroke="#000" stroke-width="0.3" stroke-dasharray="2 1.5" />
<line x1="97.909808430201" y1="126.16856985676543" x2="76.50548332220082" y2="70.23634201226926" stroke="#000" stroke-width="0.3" stroke-dasharray="2 1.5" />
<line x1="76.50548332220082" y1="70.23634201226926" x2="97.909808430201" y2="126.16856985676543" stroke="#000" stroke-width="0.3" stroke-dasharray="2 1.5" />
<line x1="97.909808430201" y1="126.16856985676543" x2="76.50548332220085" y2="126.16856985676549" stroke="#000" stroke-width="0.3" />
<text x="87.20764587620093" y="126.16856985676546" font-size="3" text-anchor="middle" dominant-baseline="central" fill="#000">2</text>
<line x1="76.50548332220085" y1="126.16856985676549" x2="76.50548332220082" y2="70.23634201226926" stroke="#000" stroke-width="0.3" stroke-dasharray="2 1.5" />
<line x1="97.90980843020094" y1="70.23634201226923" x2="119.31413353820105" y2="70.2363420122692" stroke="#000" stroke-width="0.3" stroke-dasharray="2 1.5" />
<line x1="119.31413353820105" y1="70.2363420122692" x2="119.31413353820113" y2="126.16856985676542" stroke="#000" stroke-width="0.3" stroke-dasharray="2 1.5" />
<line x1="119.31413353820113" y1="126.16856985676542" x2="97.90980843020094" y2="70.23634201226923" stroke="#000" stroke-width="0.3" stroke-dasharray="2 1.5" />
<line x1="97.90980843020094" y1="70.23634201226923" x2="119.31413353820113" y2="126.16856985676542" stroke="#000" stroke-width="0.3" stroke-dasharray="2 1.5" />
<line x1="119.31413353820113" y1="126.16856985676542" x2="97.909808430201" y2="126.16856985676543" stroke="#000" stroke-width="0.3" />
<text x="108.61197098420106" y="126.16856985676543" font-size="3" text-anchor="middle" dominant-baseline="central" fill="#000">3</text>
<line x1="97.909808430201" y1="126.16856985676543" x2="97.90980843020094" y2="70.23634201226923" stroke="#000" stroke-width="0.3" stroke-dasharray="2 1.5" />
<line x1="119.31413353820105" y1="70.2363420122692" x2="140.71845864620119" y2="70.23634201226915" stroke="#000" stroke-width="0.3" />
<text x="130.01629609220112" y="70.23634201226918" font-size="3" text-anchor="middle" dominant-baseline="central" fill="#000">10</text>
<line x1="140.71845864620119" y1="70.23634201226915" x2="140.7184586462013" y2="126.16856985676539" stroke="#000" stroke-width="0.3" stroke-dasharray="2 1.5" />
<line x1="140.7184586462013" y1="126.16856985676539" x2="119.31413353820105" y2="70.2363420122692" stroke="#000" stroke-width="0.3" stroke-dasharray="2 1.5" />
<line x1="119.31413353820105" y1="70.2363420122692" x2="140.7184586462013" y2="126.16856985676539" stroke="#000" stroke-width="0.3" stroke-dasharray="2 1.5" />
<line x1="140.7184586462013" y1="126.16856985676539" x2="119.31413353820113" y2="126.16856985676542" stroke="#000" stroke-width="0.3" />
<text x="130.01629609220123" y="126.1685698567654" font-size="3" text-anchor="middle" dominant-baseline="central" fill="#000">4</text>
<line x1="119.31413353820113" y1="126.16856985676542" x2="119.31413353820105" y2="70.2363420122692" stroke="#000" stroke-width="0.3" stroke-dasharray="2 1.5" />
<line x1="140.71845864620119" y1="70.23634201226916" x2="162.1227837542013" y2="70.23634201226909" stroke="#000" stroke-width="0.3" />
<text x="151.42062120020125" y="70.23634201226912" font-size="3" text-anchor="middle" dominant-baseline="central" fill="#000">9</text>
<line x1="162.1227837542013" y1="70.23634201226909" x2="162.12278375420144" y2="126.16856985676532" stroke="#000" stroke-width="0.3" stroke-dasharray="2 1.5" />
<line x1="162.12278375420144" y1="126.16856985676532" x2="140.71845864620119" y2="70.23634201226916" stroke="#000" stroke-width="0.3" stroke-dasharray="2 1.5" />
<line x1="140.71845864620119" y1="70.23634201226916" x2="162.12278375420144" y2="126.16856985676532" stroke="#000" stroke-width="0.3" stroke-dasharray="2 1.5" />
<line x1="162.12278375420144" y1="126.16856985676532" x2="140.7184586462013" y2="126.16856985676539" stroke="#000" stroke-width="0.3" />
<text x="151.42062120020137" y="126.16856985676534" font-size="3" text-anchor="middle" dominant-baseline="central" fill="#000">5</text>
<line x1="140.7184586462013" y1="126.16856985676539" x2="140.71845864620119" y2="70.23634201226916" stroke="#000" stroke-width="0.3" stroke-dasharray="2 1.5" />
<line x1="162.1227837542013" y1="70.23634201226909" x2="183.5271088622014" y2="70.23634201226903" stroke="#000" stroke-width="0.3" />
<text x="172.82494630820133" y="70.23634201226906" font-size="3" text-anchor="middle" dominant-baseline="central" fill="#000">8</text>
<line x1="183.5271088622014" y1="70.23634201226903" x2="183.52710886220157" y2="126.16856985676523" stroke="#000" stroke-width="0.3" />
<polygon points="183.5271088622014,70.23634201226903 183.52710886220157,126.16856985676523 205.9,112.18551289564112 205.89999999999992,84.219398973393" fill="none" stroke="#666" stroke-width="0.2" />
<text x="181.72710886220148" y="98.20245593451713" font-size="3" text-anchor="middle" dominant-baseline="central" fill="#000">15</text>
<line x1="183.52710886220157" y1="126.16856985676523" x2="162.1227837542013" y2="70.23634201226909" stroke="#000" stroke-width="0.3" stroke-dasharray="2 1.5" />
<line x1="162.1227837542013" y1="70.23634201226909" x2="183.52710886220157" y2="126.16856985676523" stroke="#000" stroke-width="0.3" stroke-dasharray="2 1.5" />
<line x1="183.52710886220157" y1="126.16856985676523" x2="162.12278375420144" y2="126.16856985676532" stroke="#000" stroke-width="0.3" />
<text x="172.8249463082015" y="126.16856985676527" font-size="3" text-anchor="middle" dominant-baseline="central" fill="#000">6</text>
<line x1="162.12278375420144" y1="126.16856985676532" x2="162.1227837542013" y2="70.23634201226909" stroke="#000" stroke-width="0.3" stroke-dasharray="2 1.5" />
<line x1="12.29250799820048" y1="70.23634201226926" x2="33.69683310620059" y2="70.23634201226928" stroke="#000" stroke-width="0.3" />
<text x="22.994670552200535" y="70.23634201226926" font-size="3" text-anchor="middle" dominant-baseline="central" fill="#000">14</text>
<line x1="33.69683310620059" y1="70.23634201226928" x2="33.69683310620056" y2="126.16856985676549" stroke="#000" stroke-width="0.3" stroke-dasharray="2 1.5" />
<line x1="33.69683310620056" y1="126.16856985676549" x2="12.29250799820048" y2="70.23634201226926" stroke="#000" stroke-width="0.3" stroke-dasharray="2 1.5" />
<line x1="12.29250799820048" y1="70.23634201226926" x2="33.69683310620056" y2="126.16856985676549" stroke="#000" stroke-width="0.3" stroke-dasharray="2 1.5" />
<line x1="33.69683310620056" y1="126.16856985676549" x2="12.292507998200417" y2="126.16856985676549" stroke="#000" stroke-width="0.3" />
<text x="22.99467055220049" y="126.16856985676549" font-size="3" text-anchor="middle" dominant-baseline="central" fill="#000">7</text>
<line x1="12.292507998200417" y1="126.16856985676549" x2="12.29250799820048" y2="70.23634201226926" stroke="#000" stroke-width="0.3" />
<text x="12.292507998200449" y="98.20245593451737" font-size="3" text-anchor="middle" dominant-baseline="central" fill="#000">15</text>
</svg>