<svg xmlns="http://www.w3.org/2000/svg" width="215.9mm" height="279.4mm" viewBox="0 0 215.9 279.4">
<rect x="0" y="0" width="215.9" height="279.4" fill="none" stroke="#ccc" stroke-width="0.15" />
<line x1="69.95473940219101" y1="114.72604640349401" x2="89.2507533520894" y2="114.72604640349401" stroke="#000" stroke-width="0.3" stroke-dasharray="2 1.5" />
<line x1="89.2507533520894" y1="114.72604640349401" x2="102.89513205724421" y2="128.37035232592888" stroke="#000" stroke-width="0.3" />
<polygon points="89.2507533520894,114.72604640349401 102.89513205724421,128.37035232592888 104.94175974992946,119.50152436325826 98.11957039735205,112.6793714020408" fill="none" stroke="#666" stroke-width="0.2" />
<text x="94.80015389324952" y="122.82099496555666" font-size="3" text-anchor="middle" dominant-baseline="central" fill="#000">1</text>
<line x1="102.89513205724421" y1="128.37035232592888" x2="69.95473940219101" y2="114.72604640349401" stroke="#000" stroke-width="0.3" stroke-dasharray="2 1.5" />
<line x1="69.95473940219101" y1="114.72604640349401" x2="102.89513205724421" y2="128.37035232592888" stroke="#000" stroke-width="0.3" stroke-dasharray="2 1.5" />
<line x1="102.89513205724421" y1="128.37035232592888" x2="102.8951320572442" y2="147.6663662758273" stroke="#000" stroke-width="0.3" />
<polygon points="102.89513205724421,128.37035232592888 102.8951320572442,147.6663662758273 110.61353763720356,142.8423627883527 110.61353763720356,133.1943558134035" fill="none" stroke="#666" stroke-width="0.2" />
<text x="101.09513205724421" y="138.0183593008781" font-size="3" text-anchor="middle" dominant-baseline="central" fill="#000">2</text>
<line x1="102.8951320572442" y1="147.6663662758273" x2="69.95473940219101" y2="114.72604640349401" stroke="#000" stroke-width="0.3" stroke-dasharray="2 1.5" />
<line x1="69.95473940219101" y1="114.72604640349401" x2="102.8951320572442" y2="147.6663662758273" stroke="#000" stroke-width="0.3" stroke-dasharray="2 1.5" />
<line x1="102.8951320572442" y1="147.6663662758273" x2="89.25082613480932" y2="161.3107449809821" stroke="#000" stroke-width="0.3" />
<polygon points="102.8951320572442,147.6663662758273 89.25082613480932,161.3107449809821 98.11965409747997,163.35737267366733 104.94180705869739,156.53518332108993" fill="none" stroke="#666" stroke-width="0.2" />
<text x="94.80018349518153" y="153.2157668169874" font-size="3" text-anchor="middle" dominant-baseline="central" fill="#000">3</text>
<line x1="89.25082613480932" y1="161.3107449809821" x2="69.95473940219101" y2="114.72604640349401" stroke="#000" stroke-width="0.3" stroke-dasharray="2 1.5" />
<line x1="69.95473940219101" y1="114.72604640349401" x2="89.25082613480932" y2="161.3107449809821" stroke="#000" stroke-width="0.3" stroke-dasharray="2 1.5" />
<line x1="89.25082613480932" y1="161.3107449809821" x2="69.95481218491094" y2="161.3107449809821" stroke="#000" stroke-width="0.3" />
<polygon points="89.25082613480932,161.3107449809821 69.95481218491094,161.3107449809821 74.77881567238553,169.02915056094145 84.42682264733472,169.02915056094145" fill="none" stroke="#666" stroke-width="0.2" />
<text x="79.60281915986013" y="159.51074498098208" font-size="3" text-anchor="middle" dominant-baseline="central" fill="#000">4</text>
<line x1="69.95481218491094" y1="161.3107449809821" x2="69.95473940219101" y2="114.72604640349401" stroke="#000" stroke-width="0.3" stroke-dasharray="2 1.5" />
<line x1="69.95473940219101" y1="114.72604640349401" x2="69.95481218491094" y2="161.3107449809821" stroke="#000" stroke-width="0.3" stroke-dasharray="2 1.5" />
<line x1="69.95481218491094" y1="161.3107449809821" x2="56.31043347975612" y2="147.6664390585472" stroke="#000" stroke-width="0.3" />
<polygon points="69.95481218491094,161.3107449809821 56.31043347975612,147.6664390585472 54.263805787070865,156.53526702121786 61.08599513964827,163.3574199824353" fill="none" stroke="#666" stroke-width="0.2" />
<text x="64.40541164375082" y="153.21579641891944" font-size="3" text-anchor="middle" dominant-baseline="central" fill="#000">5</text>
<line x1="56.31043347975612" y1="147.6664390585472" x2="69.95473940219101" y2="114.72604640349401" stroke="#000" stroke-width="0.3" stroke-dasharray="2 1.5" />
<line x1="69.95473940219101" y1="114.72604640349401" x2="56.31043347975612" y2="147.6664390585472" stroke="#000" stroke-width="0.3" stroke-dasharray="2 1.5" />
<line x1="56.31043347975612" y1="147.6664390585472" x2="56.31043347975613" y2="128.37042510864882" stroke="#000" stroke-width="0.3" />
<polygon points="56.31043347975612,147.6664390585472 56.31043347975613,128.37042510864882 48.59202789979677,133.1944285961234 48.59202789979677,142.8424355710726" fill="none" stroke="#666" stroke-width="0.2" />
<text x="58.110433479756125" y="138.01843208359801" font-size="3" text-anchor="middle" dominant-baseline="central" fill="#000">6</text>
<line x1="56.31043347975613" y1="128.37042510864882" x2="69.95473940219101" y2="114.72604640349401" stroke="#000" stroke-width="0.3" />
<polygon points="56.31043347975613,128.37042510864882 69.95473940219101,114.72604640349401 61.085911439520366,112.67941871080875 54.26375847830293,119.50160806338614" fill="none" stroke="#666" stroke-width="0.2" />
<text x="64.40538204181878" y="122.82102456748872" font-size="3" text-anchor="middle" dominant-baseline="central" fill="#000">7</text>
<line x1="50.658725452292636" y1="64.30310415744744" x2="31.362711502394244" y2="64.30310415744742" stroke="#000" stroke-width="0.3" stroke-dasharray="2 1.5" />
<line x1="31.362711502394244" y1="64.30310415744742" x2="17.71840557995936" y2="50.658725452292636" stroke="#000" stroke-width="0.3" />
<polygon points="31.362711502394244,64.30310415744742 17.71840557995936,50.658725452292636 15.671730578506164,59.52754249755528 22.4938835397236,66.34973185013268" fill="none" stroke="#666" stroke-width="0.2" />
<text x="25.813354142022018" y="56.208125993452725" font-size="3" text-anchor="middle" dominant-baseline="central" fill="#000">8</text>
<line x1="17.71840557995936" y1="50.658725452292636" x2="50.658725452292636" y2="64.30310415744744" stroke="#000" stroke-width="0.3" stroke-dasharray="2 1.5" />
<line x1="50.658725452292636" y1="64.30310415744744" x2="17.71840557995936" y2="50.658725452292636" stroke="#000" stroke-width="0.3" stroke-dasharray="2 1.5" />
<line x1="17.71840557995936" y1="50.658725452292636" x2="17.71840557995936" y2="31.362711502394244" stroke="#000" stroke-width="0.3" />
<polygon points="17.71840557995936,50.658725452292636 17.71840557995936,31.362711502394244 10,36.18671498986884 10,45.83472196481804" fill="none" stroke="#666" stroke-width="0.2" />
<text x="19.51840557995936" y="41.01071847734344" font-size="3" text-anchor="middle" dominant-baseline="central" fill="#000">9</text>
<line x1="17.71840557995936" y1="31.362711502394244" x2="50.658725452292636" y2="64.30310415744744" stroke="#000" stroke-width="0.3" stroke-dasharray="2 1.5" />
<line x1="50.658725452292636" y1="64.30310415744744" x2="17.71840557995936" y2="31.362711502394244" stroke="#000" stroke-width="0.3" stroke-dasharray="2 1.5" />
<line x1="17.71840557995936" y1="31.362711502394244" x2="31.36278428511414" y2="17.718405579959345" stroke="#000" stroke-width="0.3" />
<polygon points="17.71840557995936,31.362711502394244 31.36278428511414,17.718405579959345 22.493967239851486,15.671730578506153 15.671777887274098,22.4938835397236" fill="none" stroke="#666" stroke-width="0.2" />
<text x="25.81338374395405" y="25.81335414202201" font-size="3" text-anchor="middle" dominant-baseline="central" fill="#000">10</text>
<line x1="31.36278428511414" y1="17.718405579959345" x2="50.658725452292636" y2="64.30310415744744" stroke="#000" stroke-width="0.3" stroke-dasharray="2 1.5" />
<line x1="50.658725452292636" y1="64.30310415744744" x2="31.36278428511414" y2="17.718405579959345" stroke="#000" stroke-width="0.3" stroke-dasharray="2 1.5" />
<line x1="31.36278428511414" y1="17.718405579959345" x2="50.65879823501253" y2="17.71840557995936" stroke="#000" stroke-width="0.3" />
<polygon points="31.36278428511414,17.718405579959345 50.65879823501253,17.71840557995936 45.83479474753794,10 36.186787772588744,10" fill="none" stroke="#666" stroke-width="0.2" />
<text x="41.010791260063336" y="19.518405579959353" font-size="3" text-anchor="middle" dominant-baseline="central" fill="#000">11</text>
<line x1="50.65879823501253" y1="17.71840557995936" x2="50.658725452292636" y2="64.30310415744744" stroke="#000" stroke-width="0.3" stroke-dasharray="2 1.5" />
<line x1="50.658725452292636" y1="64.30310415744744" x2="50.65879823501253" y2="17.71840557995936" stroke="#000" stroke-width="0.3" stroke-dasharray="2 1.5" />
<line x1="50.65879823501253" y1="17.71840557995936" x2="64.30310415744742" y2="31.362784285114152" stroke="#000" stroke-width="0.3" />
<polygon points="50.65879823501253,17.71840557995936 64.30310415744742,31.362784285114152 66.34977915890062,22.49396723985149 59.527626197683176,15.671777887274098" fill="none" stroke="#666" stroke-width="0.2" />
<text x="56.20815559538477" y="25.813383743954056" font-size="3" text-anchor="middle" dominant-baseline="central" fill="#000">12</text>
<line x1="64.30310415744742" y1="31.362784285114152" x2="50.658725452292636" y2="64.30310415744744" stroke="#000" stroke-width="0.3" stroke-dasharray="2 1.5" />
<line x1="50.658725452292636" y1="64.30310415744744" x2="64.30310415744742" y2="31.362784285114152" stroke="#000" stroke-width="0.3" stroke-dasharray="2 1.5" />
<line x1="64.30310415744742" y1="31.362784285114152" x2="64.30310415744742" y2="50.658798235012554" stroke="#000" stroke-width="0.3" />
<polygon points="64.30310415744742,31.362784285114152 64.30310415744742,50.658798235012554 72.02150973740679,45.834794747537956 72.02150973740679,36.18678777258875" fill="none" stroke="#666" stroke-width="0.2" />
<text x="62.503104157447424" y="41.01079126006336" font-size="3" text-anchor="middle" dominant-baseline="central" fill="#000">13</text>
<line x1="64.30310415744742" y1="50.658798235012554" x2="50.658725452292636" y2="64.30310415744744" stroke="#000" stroke-width="0.3" />
<polygon points="64.30310415744742,50.658798235012554 50.658725452292636,64.30310415744744 59.52754249755528,66.34977915890063 66.34973185013268,59.5276261976832" fill="none" stroke="#666" stroke-width="0.2" />
<text x="56.208125993452725" y="56.20815559538478" font-size="3" text-anchor="middle" dominant-baseline="central" fill="#000">14</text>
<line x1="69.95473940219102" y1="64.30310415744744" x2="89.2507533520894" y2="64.30310415744744" stroke="#000" stroke-width="0.3" />
<text x="79.60274637714022" y="64.30310415744744" font-size="3" text-anchor="middle" dominant-baseline="central" fill="#000">13</text>
<line x1="89.2507533520894" y1="64.30310415744744" x2="89.2507533520894" y2="114.72604640349401" stroke="#000" stroke-width="0.3" stroke-dasharray="2 1.5" />
<line x1="89.2507533520894" y1="114.72604640349401" x2="69.95473940219102" y2="64.30310415744744" stroke="#000" stroke-width="0.3" stroke-dasharray="2 1.5" />
<line x1="69.95473940219102" y1="64.30310415744744" x2="89.2507533520894" y2="114.72604640349401" stroke="#000" stroke-width="0.3" stroke-dasharray="2 1.5" />
<line x1="89.2507533520894" y1="114.72604640349401" x2="69.95473940219101" y2="114.72604640349401" stroke="#000" stroke-width="0.3" stroke-dasharray="2 1.5" />
<line x1="69.95473940219101" y1="114.72604640349401" x2="69.95473940219102" y2="64.30310415744744" stroke="#000" stroke-width="0.3" stroke-dasharray="2 1.5" />
<line x1="89.2507533520894" y1="64.30310415744744" x2="108.54676730198779" y2="64.30310415744744" stroke="#000" stroke-width="0.3" />
<text x="98.89876032703859" y="64.30310415744744" font-size="3" text-anchor="middle" dominant-baseline="central" fill="#000">12</text>
<line x1="108.54676730198779" y1="64.30310415744744" x2="108.5467673019878" y2="114.72604640349401" stroke="#000" stroke-width="0.3" stroke-dasharray="2 1.5" />
<line x1="108.5467673019878" y1="114.72604640349401" x2="89.2507533520894" y2="64.30310415744744" stroke="#000" stroke-width="0.3" stroke-dasharray="2 1.5" />
<line x1="89.2507533520894" y1="64.30310415744744" x2="108.5467673019878" y2="114.72604640349401" stroke="#000" stroke-width="0.3" stroke-dasharray="2 1.5" />
<line x1="108.5467673019878" y1="114.72604640349401" x2="89.2507533520894" y2="114.72604640349401" stroke="#000" stroke-width="0.3" />
<text x="98.8987603270386" y="114.72604640349401" font-size="3" text-anchor="middle" dominant-baseline="central" fill="#000">1</text>
<line x1="89.2507533520894" y1="114.72604640349401" x2="89.2507533520894" y2="64.30310415744744" stroke="#000" stroke-width="0.3" stroke-dasharray="2 1.5" />
<line x1="108.54676730198779" y1="64.30310415744744" x2="127.84278125188618" y2="64.30310415744742" stroke="#000" stroke-width="0.3" />
<text x="118.19477427693698" y="64.30310415744742" font-size="3" text-anchor="middle" dominant-baseline="central" fill="#000">11</text>
<line x1="127.84278125188618" y1="64.30310415744742" x2="127.84278125188618" y2="114.72604640349401" stroke="#000" stroke-width="0.3" stroke-dasharray="2 1.5" />
<line x1="127.84278125188618" y1="114.72604640349401" x2="108.54676730198779" y2="64.30310415744744" stroke="#000" stroke-width="0.3" stroke-dasharray="2 1.5" />
<line x1="108.54676730198779" y1="64.30310415744744" x2="127.84278125188618" y2="114.72604640349401" stroke="#000" stroke-width="0.3" stroke-dasharray="2 1.5" />
<line x1="127.84278125188618" y1="114.72604640349401" x2="108.5467673019878" y2="114.72604640349401" stroke="#000" stroke-width="0.3" />
<text x="118.19477427693698" y="114.72604640349401" font-size="3" text-anchor="middle" dominant-baseline="central" fill="#000">2</text>
<line x1="108.5467673019878" y1="114.72604640349401" x2="108.54676730198779" y2="64.30310415744744" stroke="#000" stroke-width="0.3" stroke-dasharray="2 1.5" />
<line x1="127.84278125188618" y1="64.30310415744742" x2="147.13879520178457" y2="64.30310415744742" stroke="#000" stroke-width="0.3" />
<text x="137.49078822683538" y="64.30310415744742" font-size="3" text-anchor="middle" dominant-baseline="central" fill="#000">10</text>
<line x1="147.13879520178457" y1="64.30310415744742" x2="147.13879520178457" y2="114.72604640349398" stroke="#000" stroke-width="0.3" stroke-dasharray="2 1.5" />
<line x1="147.13879520178457" y1="114.72604640349398" x2="127.84278125188618" y2="64.30310415744742" stroke="#000" stroke-width="0.3" stroke-dasharray="2 1.5" />
<line x1="127.84278125188618" y1="64.30310415744742" x2="147.13879520178457" y2="114.72604640349398" stroke="#000" stroke-width="0.3" stroke-dasharray="2 1.5" />
<line x1="147.13879520178457" y1="114.72604640349398" x2="127.84278125188618" y2="114.72604640349401" stroke="#000" stroke-width="0.3" />
<text x="137.49078822683538" y="114.726046403494" font-size="3" text-anchor="middle" dominant-baseline="central" fill="#000">3</text>
<line x1="127.84278125188618" y1="114.72604640349401" x2="127.84278125188618" y2="64.30310415744742" stroke="#000" stroke-width="0.3" stroke-dasharray="2 1.5" />
<line x1="147.13879520178457" y1="64.30310415744742" x2="166.43480915168297" y2="64.30310415744741" stroke="#000" stroke-width="0.3" />
<text x="156.78680217673377" y="64.30310415744742" font-size="3" text-anchor="middle" dominant-baseline="central" fill="#000">9</text>
<line x1="166.43480915168297" y1="64.30310415744741" x2="166.43480915168297" y2="114.72604640349398" stroke="#000" stroke-width="0.3" stroke-dasharray="2 1.5" />
<line x1="166.43480915168297" y1="114.72604640349398" x2="147.13879520178457" y2="64.30310415744742" stroke="#000" stroke-width="0.3" stroke-dasharray="2 1.5" />
<line x1="147.13879520178457" y1="64.30310415744742" x2="166.43480915168297" y2="114.72604640349398" stroke="#000" stroke-width="0.3" stroke-dasharray="2 1.5" />
<line x1="166.43480915168297" y1="114.72604640349398" x2="147.13879520178457" y2="114.72604640349398" stroke="#000" stroke-width="0.3" />
<text x="156.78680217673377" y="114.72604640349398" font-size="3" text-anchor="middle" dominant-baseline="central" fill="#000">4</text>
<line x1="147.13879520178457" y1="114.72604640349398" x2="147.13879520178457" y2="64.30310415744742" stroke="#000" stroke-width="0.3" stroke-dasharray="2 1.5" />
<line x1="166.43480915168297" y1="64.30310415744741" x2="185.73082310158136" y2="64.3031041574474" stroke="#000" stroke-width="0.3" />
<text x="176.08281612663217" y="64.3031041574474" font-size="3" text-anchor="middle" dominant-baseline="central" fill="#000">8</text>
<line x1="185.73082310158136" y1="64.3031041574474" x2="185.73082310158136" y2="114.72604640349397" stroke="#000" stroke-width="0.3" />
<polygon points="185.73082310158136,64.3031041574474 185.73082310158136,114.72604640349397 205.9,102.1203108419823 205.89999999999995,76.90883971895903" fill="none" stroke="#666" stroke-width="0.2" />
<text x="183.93082310158135" y="89.51457528047068" font-size="3" text-anchor="middle" dominant-baseline="central" fill="#000">15</text>
<line x1="185.73082310158136" y1="114.72604640349397" x2="166.43480915168297" y2="64.30310415744741" stroke="#000" stroke-width="0.3" stroke-dasharray="2 1.5" />
<line x1="166.43480915168297" y1="64.30310415744741" x2="185.73082310158136" y2="114.72604640349397" stroke="#000" stroke-width="0.3" stroke-dasharray="2 1.5" />
<line x1="185.73082310158136" y1="114.72604640349397" x2="166.43480915168297" y2="114.72604640349398" stroke="#000" stroke-width="0.3" />
<text x="176.08281612663217" y="114.72604640349397" font-size="3" text-anchor="middle" dominant-baseline="central" fill="#000">5</text>
<line x1="166.43480915168297" y1="114.72604640349398" x2="166.43480915168297" y2="64.30310415744741" stroke="#000" stroke-width="0.3" stroke-dasharray="2 1.5" />
<line x1="31.362711502394244" y1="64.30310415744742" x2="50.658725452292636" y2="64.30310415744744" stroke="#000" stroke-width="0.3" stroke-dasharray="2 1.5" />
<line x1="50.658725452292636" y1="64.30310415744744" x2="50.658725452292614" y2="114.72604640349401" stroke="#000" stroke-width="0.3" stroke-dasharray="2 1.5" />
<line x1="50.658725452292614" y1="114.72604640349401" x2="31.362711502394244" y2="64.30310415744742" stroke="#000" stroke-width="0.3" stroke-dasharray="2 1.5" />
<line x1="31.362711502394244" y1="64.30310415744742" x2="50.658725452292614" y2="114.72604640349401" stroke="#000" stroke-width="0.3" stroke-dasharray="2 1.5" />
<line x1="50.658725452292614" y1="114.72604640349401" x2="31.362711502394223" y2="114.72604640349401" stroke="#000" stroke-width="0.3" />
<text x="41.01071847734342" y="114.72604640349401" font-size="3" text-anchor="middle" dominant-baseline="central" fill="#000">6</text>
<line x1="31.362711502394223" y1="114.72604640349401" x2="31.362711502394244" y2="64.30310415744742" stroke="#000" stroke-width="0.3" />
<text x="31.362711502394234" y="89.51457528047072" font-size="3" text-anchor="middle" dominant-baseline="central" fill="#000">15</text>
<line x1="50.658725452292636" y1="64.30310415744744" x2="69.95473940219102" y2="64.30310415744744" stroke="#000" stroke-width="0.3" />
<text x="60.306732427241826" y="64.30310415744744" font-size="3" text-anchor="middle" dominant-baseline="central" fill="#000">14</text>
<line x1="69.95473940219102" y1="64.30310415744744" x2="69.95473940219101" y2="114.72604640349401" stroke="#000" stroke-width="0.3" stroke-dasharray="2 1.5" />
<line x1="69.95473940219101" y1="114.72604640349401" x2="50.658725452292636" y2="64.30310415744744" stroke="#000" stroke-width="0.3" stroke-dasharray="2 1.5" />
<line x1="50.658725452292636" y1="64.30310415744744" x2="69.95473940219101" y2="114.72604640349401" stroke="#000" stroke-width="0.3" stroke-dasharray="2 1.5" />
<line x1="69.95473940219101" y1="114.72604640349401" x2="50.658725452292614" y2="114.72604640349401" stroke="#000" stroke-width="0.3" />
<text x="60.30673242724181" y="114.72604640349401" font-size="3" text-anchor="middle" dominant-baseline="central" fill="#000">7</text>
<line x1="50.658725452292614" y1="114.72604640349401" x2="50.658725452292636" y2="64.30310415744744" stroke="#000" stroke-width="0.3" stroke-dasharray="2 1.5" />
</svg>