<svg xmlns="http://www.w3.org/2000/svg" width="215.9mm" height="279.4mm" viewBox="0 0 215.9 279.4">
<rect x="0" y="0" width="215.9" height="279.4" fill="none" stroke="#ccc" stroke-width="0.15" />
<line x1="78.41101322271258" y1="29.685293616862825" x2="88.37839052380359" y2="34.92152304967063" stroke="#000" stroke-width="0.3" stroke-dasharray="2 1.5" />
<line x1="88.37839052380359" y1="34.92152304967063" x2="84.07244084522567" y2="37.89198241272888" stroke="#000" stroke-width="0.3" />
<text x="86.22541568451463" y="36.40675273119976" font-size="3" text-anchor="middle" dominant-baseline="central" fill="#000">34</text>
<line x1="84.07244084522567" y1="37.89198241272888" x2="78.41101322271258" y2="29.685293616862825" stroke="#000" stroke-width="0.3" />
<text x="81.24172703396913" y="33.78863801479585" font-size="3" text-anchor="middle" dominant-baseline="central" fill="#000">94</text>
<line x1="104.6957556210861" y1="23.664914095701906" x2="88.37839052380359" y2="34.92152304967063" stroke="#000" stroke-width="0.3" stroke-dasharray="2 1.5" />
<line x1="88.37839052380359" y1="34.92152304967063" x2="78.41101322271258" y2="29.685293616862825" stroke="#000" stroke-width="0.3" stroke-dasharray="2 1.5" />
<line x1="78.41101322271258" y1="29.685293616862825" x2="104.6957556210861" y2="23.664914095701906" stroke="#000" stroke-width="0.3" stroke-dasharray="2 1.5" />
<line x1="103.22300586561762" y1="46.07772783900643" x2="88.37839052380359" y2="34.92152304967063" stroke="#000" stroke-width="0.3" stroke-dasharray="2 1.5" />
<line x1="88.37839052380359" y1="34.92152304967063" x2="104.6957556210861" y2="23.664914095701906" stroke="#000" stroke-width="0.3" stroke-dasharray="2 1.5" />
<line x1="104.6957556210861" y1="23.664914095701906" x2="103.22300586561762" y2="46.07772783900643" stroke="#000" stroke-width="0.3" />
<text x="103.95938074335186" y="34.871320967354166" font-size="3" text-anchor="middle" dominant-baseline="central" fill="#000">42</text>
<line x1="88.37839052380359" y1="34.92152304967063" x2="103.22300586561762" y2="46.07772783900643" stroke="#000" stroke-width="0.3" stroke-dasharray="2 1.5" />
<line x1="103.22300586561762" y1="46.07772783900643" x2="92.34023388666465" y2="47.78190913471369" stroke="#000" stroke-width="0.3" />
<text x="97.78161987614114" y="46.92981848686006" font-size="3" text-anchor="middle" dominant-baseline="central" fill="#000">46</text>
<line x1="92.34023388666465" y1="47.78190913471369" x2="88.37839052380359" y2="34.92152304967063" stroke="#000" stroke-width="0.3" />
<text x="90.35931220523412" y="41.35171609219216" font-size="3" text-anchor="middle" dominant-baseline="central" fill="#000">86</text>
<line x1="104.6957556210861" y1="23.664914095701906" x2="78.41101322271258" y2="29.685293616862825" stroke="#000" stroke-width="0.3" stroke-dasharray="2 1.5" />
<line x1="78.41101322271258" y1="29.685293616862825" x2="67.6998323284063" y2="28.198734981181953" stroke="#000" stroke-width="0.3" stroke-dasharray="2 1.5" />
<line x1="67.6998323284063" y1="28.198734981181953" x2="104.6957556210861" y2="23.664914095701906" stroke="#000" stroke-width="0.3" />
<polygon points="67.6998323284063,28.198734981181953 104.6957556210861,23.664914095701906 93.63324644372413,10 75.13528479738424,12.266910442740027" fill="none" stroke="#666" stroke-width="0.2" />
<text x="86.41674453252728" y="27.718458427420686" font-size="3" text-anchor="middle" dominant-baseline="central" fill="#000">83</text>
<line x1="67.6998323284063" y1="28.198734981181953" x2="78.41101322271258" y2="29.685293616862825" stroke="#000" stroke-width="0.3" stroke-dasharray="2 1.5" />
<line x1="78.41101322271258" y1="29.685293616862825" x2="76.37691560316692" y2="33.20845178131697" stroke="#000" stroke-width="0.3" />
<text x="77.39396441293975" y="31.446872699089894" font-size="3" text-anchor="middle" dominant-baseline="central" fill="#000">33</text>
<line x1="76.37691560316692" y1="33.20845178131697" x2="67.6998323284063" y2="28.198734981181953" stroke="#000" stroke-width="0.3" stroke-dasharray="2 1.5" />
<line x1="70.16380747610367" y1="43.96986960981065" x2="67.6998323284063" y2="28.198734981181953" stroke="#000" stroke-width="0.3" stroke-dasharray="2 1.5" />
<line x1="67.6998323284063" y1="28.198734981181953" x2="76.37691560316692" y2="33.20845178131697" stroke="#000" stroke-width="0.3" stroke-dasharray="2 1.5" />
<line x1="76.37691560316692" y1="33.20845178131697" x2="70.16380747610367" y2="43.96986960981065" stroke="#000" stroke-width="0.3" />
<text x="73.2703615396353" y="38.589160695563805" font-size="3" text-anchor="middle" dominant-baseline="central" fill="#000">32</text>
<line x1="67.6998323284063" y1="28.198734981181953" x2="70.16380747610367" y2="43.96986960981065" stroke="#000" stroke-width="0.3" stroke-dasharray="2 1.5" />
<line x1="70.16380747610367" y1="43.96986960981065" x2="62.92848109659304" y2="39.79255072311546" stroke="#000" stroke-width="0.3" stroke-dasharray="2 1.5" />
<line x1="62.92848109659304" y1="39.79255072311546" x2="67.6998323284063" y2="28.198734981181953" stroke="#000" stroke-width="0.3" />
<polygon points="62.92848109659304,39.79255072311546 67.6998323284063,28.198734981181953 61.86946822367959,29.188648423940023 59.48379260777295,34.98555629490678" fill="none" stroke="#666" stroke-width="0.2" />
<text x="66.97870731366427" y="34.680676644134586" font-size="3" text-anchor="middle" dominant-baseline="central" fill="#000">57</text>
<line x1="45.31136800160103" y1="87.01552213337787" x2="47.61875224069013" y2="59.65057808158542" stroke="#000" stroke-width="0.3" stroke-dasharray="2 1.5" />
<line x1="47.61875224069013" y1="59.65057808158542" x2="57.73759056090299" y2="65.49269599910338" stroke="#000" stroke-width="0.3" stroke-dasharray="2 1.5" />
<line x1="57.73759056090299" y1="65.49269599910338" x2="45.31136800160103" y2="87.01552213337787" stroke="#000" stroke-width="0.3" />
<text x="51.52447928125201" y="76.25410906624063" font-size="3" text-anchor="middle" dominant-baseline="central" fill="#000">30</text>
<line x1="47.61875224069013" y1="59.65057808158542" x2="45.31136800160103" y2="87.01552213337787" stroke="#000" stroke-width="0.3" stroke-dasharray="2 1.5" />
<line x1="45.31136800160103" y1="87.01552213337787" x2="29.425507916319" y2="77.84381708598634" stroke="#000" stroke-width="0.3" stroke-dasharray="2 1.5" />
<line x1="29.425507916319" y1="77.84381708598634" x2="47.61875224069013" y2="59.65057808158542" stroke="#000" stroke-width="0.3" />
<polygon points="29.425507916319,77.84381708598634 47.61875224069013,59.65057808158542 35.79314555783697,56.9215901029372 26.696523395651415,66.01820960513766" fill="none" stroke="#666" stroke-width="0.2" />
<text x="39.794922098548795" y="70.0199899760132" font-size="3" text-anchor="middle" dominant-baseline="central" fill="#000">60</text>
<line x1="47.61875224069013" y1="59.65057808158542" x2="70.16380747610367" y2="43.96986960981065" stroke="#000" stroke-width="0.3" stroke-dasharray="2 1.5" />
<line x1="70.16380747610367" y1="43.96986960981065" x2="57.73759056090299" y2="65.49269599910338" stroke="#000" stroke-width="0.3" />
<text x="63.95069901850333" y="54.73128280445701" font-size="3" text-anchor="middle" dominant-baseline="central" fill="#000">31</text>
<line x1="57.73759056090299" y1="65.49269599910338" x2="47.61875224069013" y2="59.65057808158542" stroke="#000" stroke-width="0.3" stroke-dasharray="2 1.5" />
<line x1="70.16380747610367" y1="43.96986960981065" x2="47.61875224069013" y2="59.65057808158542" stroke="#000" stroke-width="0.3" stroke-dasharray="2 1.5" />
<line x1="47.61875224069013" y1="59.65057808158542" x2="62.92848109659304" y2="39.79255072311546" stroke="#000" stroke-width="0.3" />
<polygon points="47.61875224069013,59.65057808158542 62.92848109659304,39.79255072311546 51.157837939229324,38.63316602037179 43.50297351127787,48.56217969960677" fill="none" stroke="#666" stroke-width="0.2" />
<text x="56.69914826217747" y="50.82059109712679" font-size="3" text-anchor="middle" dominant-baseline="central" fill="#000">70</text>
<line x1="62.92848109659304" y1="39.79255072311546" x2="70.16380747610367" y2="43.96986960981065" stroke="#000" stroke-width="0.3" stroke-dasharray="2 1.5" />
<line x1="14.115780849204693" y1="97.7018486259445" x2="45.31136800160103" y2="87.01552213337787" stroke="#000" stroke-width="0.3" stroke-dasharray="2 1.5" />
<line x1="45.31136800160103" y1="87.01552213337787" x2="32.885155750329226" y2="108.53835022805586" stroke="#000" stroke-width="0.3" />
<text x="39.09826187596513" y="97.77693618071686" font-size="3" text-anchor="middle" dominant-baseline="central" fill="#000">28</text>
<line x1="32.885155750329226" y1="108.53835022805586" x2="14.115780849204693" y2="97.7018486259445" stroke="#000" stroke-width="0.3" />
<text x="23.500468299766958" y="103.12009942700018" font-size="3" text-anchor="middle" dominant-baseline="central" fill="#000">91</text>
<line x1="45.31136800160103" y1="87.01552213337787" x2="14.115780849204693" y2="97.7018486259445" stroke="#000" stroke-width="0.3" stroke-dasharray="2 1.5" />
<line x1="14.115780849204693" y1="97.7018486259445" x2="29.425507916319" y2="77.84381708598634" stroke="#000" stroke-width="0.3" />
<polygon points="14.115780849204693,97.7018486259445 29.425507916319,77.84381708598634 17.654863533557158,76.68443414413017 10,86.61344991410925" fill="none" stroke="#666" stroke-width="0.2" />
<text x="23.19617615029365" y="88.87185932505415" font-size="3" text-anchor="middle" dominant-baseline="central" fill="#000">82</text>
<line x1="29.425507916319" y1="77.84381708598634" x2="45.31136800160103" y2="87.01552213337787" stroke="#000" stroke-width="0.3" stroke-dasharray="2 1.5" />
<line x1="145.41624900510544" y1="39.07282512135443" x2="157.97251864844915" y2="17.474904034168887" stroke="#000" stroke-width="0.3" />
<polygon points="145.41624900510544,39.07282512135443 157.97251864844915,17.474904034168887 146.194282802739,17.85187644862778 139.91614798106716,28.65083699222056" fill="none" stroke="#666" stroke-width="0.2" />
<text x="153.25051746336425" y="29.178545795143066" font-size="3" text-anchor="middle" dominant-baseline="central" fill="#000">92</text>
<line x1="157.97251864844915" y1="17.474904034168887" x2="162.74386636151104" y2="29.068722282441747" stroke="#000" stroke-width="0.3" stroke-dasharray="2 1.5" />
<line x1="162.74386636151104" y1="29.068722282441747" x2="145.41624900510544" y2="39.07282512135443" stroke="#000" stroke-width="0.3" />
<text x="154.08005768330824" y="34.07077370189809" font-size="3" text-anchor="middle" dominant-baseline="central" fill="#000">49</text>
<line x1="135.4305534025171" y1="65.6280042359336" x2="127.17422055657008" y2="58.69889122748892" stroke="#000" stroke-width="0.3" stroke-dasharray="2 1.5" />
<line x1="127.17422055657008" y1="58.69889122748892" x2="139.6451414215944" y2="59.98671451254514" stroke="#000" stroke-width="0.3" />
<text x="133.40968098908223" y="59.34280287001703" font-size="3" text-anchor="middle" dominant-baseline="central" fill="#000">66</text>
<line x1="139.6451414215944" y1="59.98671451254514" x2="135.4305534025171" y2="65.6280042359336" stroke="#000" stroke-width="0.3" />
<text x="137.53784741205573" y="62.80735937423937" font-size="3" text-anchor="middle" dominant-baseline="central" fill="#000">53</text>
<line x1="127.17422055657008" y1="58.69889122748892" x2="135.4305534025171" y2="65.6280042359336" stroke="#000" stroke-width="0.3" stroke-dasharray="2 1.5" />
<line x1="135.4305534025171" y1="65.6280042359336" x2="120.32841267611327" y2="64.54994307001023" stroke="#000" stroke-width="0.3" />
<text x="127.87948303931518" y="65.08897365297192" font-size="3" text-anchor="middle" dominant-baseline="central" fill="#000">2</text>
<line x1="120.32841267611327" y1="64.54994307001023" x2="127.17422055657008" y2="58.69889122748892" stroke="#000" stroke-width="0.3" stroke-dasharray="2 1.5" />
<line x1="127.17422055657008" y1="58.69889122748892" x2="120.32841267611327" y2="64.54994307001023" stroke="#000" stroke-width="0.3" stroke-dasharray="2 1.5" />
<line x1="120.32841267611327" y1="64.54994307001023" x2="117.63153189855441" y2="35.51126216828612" stroke="#000" stroke-width="0.3" stroke-dasharray="2 1.5" />
<line x1="117.63153189855441" y1="35.51126216828612" x2="127.17422055657008" y2="58.69889122748892" stroke="#000" stroke-width="0.3" />
<text x="122.40287622756225" y="47.105076697887526" font-size="3" text-anchor="middle" dominant-baseline="central" fill="#000">71</text>
<line x1="117.63153189855441" y1="35.51126216828612" x2="120.32841267611327" y2="64.54994307001023" stroke="#000" stroke-width="0.3" stroke-dasharray="2 1.5" />
<line x1="120.32841267611327" y1="64.54994307001023" x2="109.6957556210861" y2="36.19691575724303" stroke="#000" stroke-width="0.3" />
<text x="115.01208414859968" y="50.37342941362663" font-size="3" text-anchor="middle" dominant-baseline="central" fill="#000">3</text>
<line x1="109.6957556210861" y1="36.19691575724303" x2="117.63153189855441" y2="35.51126216828612" stroke="#000" stroke-width="0.3" stroke-dasharray="2 1.5" />
<line x1="129.26738067510678" y1="10" x2="117.63153189855441" y2="35.51126216828612" stroke="#000" stroke-width="0.3" stroke-dasharray="2 1.5" />
<line x1="117.63153189855441" y1="35.51126216828612" x2="109.6957556210861" y2="36.19691575724303" stroke="#000" stroke-width="0.3" stroke-dasharray="2 1.5" />
<line x1="109.6957556210861" y1="36.19691575724303" x2="129.26738067510678" y2="10" stroke="#000" stroke-width="0.3" />
<text x="119.48156814809644" y="23.098457878621517" font-size="3" text-anchor="middle" dominant-baseline="central" fill="#000">58</text>
<line x1="129.26738067510678" y1="10" x2="133.0306810974378" y2="14.899268366908071" stroke="#000" stroke-width="0.3" stroke-dasharray="2 1.5" />
<line x1="133.0306810974378" y1="14.899268366908071" x2="117.63153189855441" y2="35.51126216828612" stroke="#000" stroke-width="0.3" />
<text x="125.3311064979961" y="25.2052652675971" font-size="3" text-anchor="middle" dominant-baseline="central" fill="#000">74</text>
<line x1="117.63153189855441" y1="35.51126216828612" x2="129.26738067510678" y2="10" stroke="#000" stroke-width="0.3" stroke-dasharray="2 1.5" />
<line x1="159.47166080686418" y1="12.156114202157616" x2="133.0306810974378" y2="14.899268366908071" stroke="#000" stroke-width="0.3" stroke-dasharray="2 1.5" />
<line x1="133.0306810974378" y1="14.899268366908071" x2="129.26738067510678" y2="10" stroke="#000" stroke-width="0.3" stroke-dasharray="2 1.5" />
<line x1="129.26738067510678" y1="10" x2="159.47166080686418" y2="12.156114202157616" stroke="#000" stroke-width="0.3" />
<text x="144.36952074098548" y="11.078057101078809" font-size="3" text-anchor="middle" dominant-baseline="central" fill="#000">62</text>
<line x1="159.47166080686418" y1="12.156114202157616" x2="157.97251864844915" y2="17.474904034168887" stroke="#000" stroke-width="0.3" stroke-dasharray="2 1.5" />
<line x1="157.97251864844915" y1="17.474904034168887" x2="133.0306810974378" y2="14.899268366908071" stroke="#000" stroke-width="0.3" />
<text x="145.50159987294347" y="16.18708620053848" font-size="3" text-anchor="middle" dominant-baseline="central" fill="#000">65</text>
<line x1="133.0306810974378" y1="14.899268366908071" x2="159.47166080686418" y2="12.156114202157616" stroke="#000" stroke-width="0.3" stroke-dasharray="2 1.5" />
<line x1="164.78799513205985" y1="26.332625047223615" x2="157.97251864844915" y2="17.474904034168887" stroke="#000" stroke-width="0.3" stroke-dasharray="2 1.5" />
<line x1="157.97251864844915" y1="17.474904034168887" x2="159.47166080686418" y2="12.156114202157616" stroke="#000" stroke-width="0.3" stroke-dasharray="2 1.5" />
<line x1="159.47166080686418" y1="12.156114202157616" x2="164.78799513205985" y2="26.332625047223615" stroke="#000" stroke-width="0.3" />
<text x="162.129827969462" y="19.244369624690616" font-size="3" text-anchor="middle" dominant-baseline="central" fill="#000">19</text>
<line x1="157.97251864844915" y1="17.474904034168887" x2="164.78799513205985" y2="26.332625047223615" stroke="#000" stroke-width="0.3" stroke-dasharray="2 1.5" />
<line x1="164.78799513205985" y1="26.332625047223615" x2="162.74386636151104" y2="29.068722282441747" stroke="#000" stroke-width="0.3" />
<text x="163.76593074678544" y="27.70067366483268" font-size="3" text-anchor="middle" dominant-baseline="central" fill="#000">50</text>
<line x1="162.74386636151104" y1="29.068722282441747" x2="157.97251864844915" y2="17.474904034168887" stroke="#000" stroke-width="0.3" stroke-dasharray="2 1.5" />
<line x1="29.371746126954346" y1="142.6111753494103" x2="16.81547648361075" y2="121.01325426222468" stroke="#000" stroke-width="0.3" stroke-dasharray="2 1.5" />
<line x1="16.81547648361075" y1="121.01325426222468" x2="35.58485138473529" y2="131.84975586433603" stroke="#000" stroke-width="0.3" />
<polygon points="16.81547648361075,121.01325426222468 35.58485138473529,131.84975586433603 35.227108300298696,121.63288050335838 25.84242084973642,116.2146297023027" fill="none" stroke="#666" stroke-width="0.2" />
<text x="25.300164061839887" y="127.99035086380084" font-size="3" text-anchor="middle" dominant-baseline="central" fill="#000">91</text>
<line x1="35.58485138473529" y1="131.84975586433603" x2="29.371746126954346" y2="142.6111753494103" stroke="#000" stroke-width="0.3" />
<text x="32.47829875584482" y="137.23046560687317" font-size="3" text-anchor="middle" dominant-baseline="central" fill="#000">26</text>
<line x1="16.81547648361075" y1="121.01325426222468" x2="29.371746126954346" y2="142.6111753494103" stroke="#000" stroke-width="0.3" stroke-dasharray="2 1.5" />
<line x1="29.371746126954346" y1="142.6111753494103" x2="12.044128770548806" y2="132.60707251049752" stroke="#000" stroke-width="0.3" />
<polygon points="29.371746126954346,142.6111753494103 12.044128770548806,132.60707251049752 12.374391974085071,142.03914516278792 21.03820065228785,147.0411965822443" fill="none" stroke="#666" stroke-width="0.2" />
<text x="21.607937333628783" y="136.05027813667576" font-size="3" text-anchor="middle" dominant-baseline="central" fill="#000">41</text>
<line x1="12.044128770548806" y1="132.60707251049752" x2="16.81547648361075" y2="121.01325426222468" stroke="#000" stroke-width="0.3" stroke-dasharray="2 1.5" />
<line x1="10" y1="129.87097527527936" x2="16.81547648361075" y2="121.01325426222468" stroke="#000" stroke-width="0.3" stroke-dasharray="2 1.5" />
<line x1="16.81547648361075" y1="121.01325426222468" x2="12.044128770548806" y2="132.60707251049752" stroke="#000" stroke-width="0.3" stroke-dasharray="2 1.5" />
<line x1="12.044128770548806" y1="132.60707251049752" x2="10" y2="129.87097527527936" stroke="#000" stroke-width="0.3" />
<text x="11.022064385274403" y="131.23902389288844" font-size="3" text-anchor="middle" dominant-baseline="central" fill="#000">51</text>
<line x1="16.81547648361075" y1="121.01325426222468" x2="10" y2="129.87097527527936" stroke="#000" stroke-width="0.3" stroke-dasharray="2 1.5" />
<line x1="10" y1="129.87097527527936" x2="15.316334325195758" y2="115.69446443021342" stroke="#000" stroke-width="0.3" />
<text x="12.658167162597879" y="122.7827198527464" font-size="3" text-anchor="middle" dominant-baseline="central" fill="#000">18</text>
<line x1="15.316334325195758" y1="115.69446443021342" x2="16.81547648361075" y2="121.01325426222468" stroke="#000" stroke-width="0.3" stroke-dasharray="2 1.5" />
<line x1="16.81547648361075" y1="121.01325426222468" x2="15.316334325195758" y2="115.69446443021342" stroke="#000" stroke-width="0.3" stroke-dasharray="2 1.5" />
<line x1="15.316334325195758" y1="115.69446443021342" x2="41.75731403462211" y2="118.43761859496392" stroke="#000" stroke-width="0.3" stroke-dasharray="2 1.5" />
<line x1="41.75731403462211" y1="118.43761859496392" x2="16.81547648361075" y2="121.01325426222468" stroke="#000" stroke-width="0.3" />
<text x="29.286395259116432" y="119.72543642859429" font-size="3" text-anchor="middle" dominant-baseline="central" fill="#000">82</text>
<line x1="41.75731403462211" y1="118.43761859496392" x2="15.316334325195758" y2="115.69446443021342" stroke="#000" stroke-width="0.3" stroke-dasharray="2 1.5" />
<line x1="15.316334325195758" y1="115.69446443021342" x2="45.52061445695315" y2="113.53835022805586" stroke="#000" stroke-width="0.3" />
<text x="30.418474391074454" y="114.61640732913463" font-size="3" text-anchor="middle" dominant-baseline="central" fill="#000">61</text>
<line x1="45.52061445695315" y1="113.53835022805586" x2="41.75731403462211" y2="118.43761859496392" stroke="#000" stroke-width="0.3" stroke-dasharray="2 1.5" />
<line x1="41.75731403462211" y1="118.43761859496392" x2="45.52061445695315" y2="113.53835022805586" stroke="#000" stroke-width="0.3" stroke-dasharray="2 1.5" />
<line x1="45.52061445695315" y1="113.53835022805586" x2="57.15646323350542" y2="139.049612396342" stroke="#000" stroke-width="0.3" stroke-dasharray="2 1.5" />
<line x1="57.15646323350542" y1="139.049612396342" x2="41.75731403462211" y2="118.43761859496392" stroke="#000" stroke-width="0.3" />
<text x="49.456888634063766" y="128.74361549565296" font-size="3" text-anchor="middle" dominant-baseline="central" fill="#000">60</text>
<line x1="65.09223951097374" y1="139.73526598529895" x2="57.15646323350542" y2="139.049612396342" stroke="#000" stroke-width="0.3" stroke-dasharray="2 1.5" />
<line x1="57.15646323350542" y1="139.049612396342" x2="45.52061445695315" y2="113.53835022805586" stroke="#000" stroke-width="0.3" stroke-dasharray="2 1.5" />
<line x1="45.52061445695315" y1="113.53835022805586" x2="65.09223951097374" y2="139.73526598529895" stroke="#000" stroke-width="0.3" />
<text x="55.30642698396345" y="126.6368081066774" font-size="3" text-anchor="middle" dominant-baseline="central" fill="#000">59</text>
<line x1="54.459582455942844" y1="168.08829329806133" x2="57.15646323350542" y2="139.049612396342" stroke="#000" stroke-width="0.3" stroke-dasharray="2 1.5" />
<line x1="57.15646323350542" y1="139.049612396342" x2="65.09223951097374" y2="139.73526598529895" stroke="#000" stroke-width="0.3" stroke-dasharray="2 1.5" />
<line x1="65.09223951097374" y1="139.73526598529895" x2="54.459582455942844" y2="168.08829329806133" stroke="#000" stroke-width="0.3" />
<text x="59.77591098345829" y="153.91177964168014" font-size="3" text-anchor="middle" dominant-baseline="central" fill="#000">4</text>
<line x1="54.459582455942844" y1="168.08829329806133" x2="47.61377457548964" y2="162.2372414555448" stroke="#000" stroke-width="0.3" stroke-dasharray="2 1.5" />
<line x1="47.61377457548964" y1="162.2372414555448" x2="57.15646323350542" y2="139.049612396342" stroke="#000" stroke-width="0.3" />
<text x="52.38511890449753" y="150.6434269259434" font-size="3" text-anchor="middle" dominant-baseline="central" fill="#000">70</text>
<line x1="57.15646323350542" y1="139.049612396342" x2="54.459582455942844" y2="168.08829329806133" stroke="#000" stroke-width="0.3" stroke-dasharray="2 1.5" />
<line x1="39.35744172954261" y1="169.16635446398945" x2="47.61377457548964" y2="162.2372414555448" stroke="#000" stroke-width="0.3" stroke-dasharray="2 1.5" />
<line x1="47.61377457548964" y1="162.2372414555448" x2="54.459582455942844" y2="168.08829329806133" stroke="#000" stroke-width="0.3" stroke-dasharray="2 1.5" />
<line x1="54.459582455942844" y1="168.08829329806133" x2="39.35744172954261" y2="169.16635446398945" stroke="#000" stroke-width="0.3" />
<text x="46.908512092742725" y="168.6273238810254" font-size="3" text-anchor="middle" dominant-baseline="central" fill="#000">1</text>
<line x1="47.61377457548964" y1="162.2372414555448" x2="39.35744172954261" y2="169.16635446398945" stroke="#000" stroke-width="0.3" stroke-dasharray="2 1.5" />
<line x1="39.35744172954261" y1="169.16635446398945" x2="35.142853710465346" y2="163.52506474060095" stroke="#000" stroke-width="0.3" />
<text x="37.25014772000398" y="166.3457096022952" font-size="3" text-anchor="middle" dominant-baseline="central" fill="#000">52</text>
<line x1="35.142853710465346" y1="163.52506474060095" x2="47.61377457548964" y2="162.2372414555448" stroke="#000" stroke-width="0.3" />
<text x="41.378314142977494" y="162.88115309807287" font-size="3" text-anchor="middle" dominant-baseline="central" fill="#000">57</text>
<line x1="76.0358780744995" y1="130.16215440505653" x2="76.52400529956027" y2="143.8499915542452" stroke="#000" stroke-width="0.3" stroke-dasharray="2 1.5" />
<line x1="76.52400529956027" y1="143.8499915542452" x2="74.69992920595898" y2="142.51634668535743" stroke="#000" stroke-width="0.3" />
<polygon points="76.52400529956027,143.8499915542452 74.69992920595898,142.51634668535743 74.62249028180418,143.5793883400199 75.53452832860484,144.2462107744638" fill="none" stroke="#666" stroke-width="0.2" />
<text x="76.67434302351461" y="141.73011794323776" font-size="3" text-anchor="middle" dominant-baseline="central" fill="#000">25</text>
<line x1="74.69992920595898" y1="142.51634668535743" x2="76.0358780744995" y2="130.16215440505653" stroke="#000" stroke-width="0.3" />
<polygon points="74.69992920595898,142.51634668535743 76.0358780744995,130.16215440505653 70.760213945244,132.71632292771554 70.09223951097374,138.89341906786598" fill="none" stroke="#666" stroke-width="0.2" />
<text x="77.15747074467409" y="136.53276948146095" font-size="3" text-anchor="middle" dominant-baseline="central" fill="#000">26</text>
<line x1="76.52400529956027" y1="143.8499915542452" x2="76.0358780744995" y2="130.16215440505653" stroke="#000" stroke-width="0.3" stroke-dasharray="2 1.5" />
<line x1="76.0358780744995" y1="130.16215440505653" x2="77.12343676333971" y2="134.29004304570515" stroke="#000" stroke-width="0.3" stroke-dasharray="2 1.5" />
<line x1="77.12343676333971" y1="134.29004304570515" x2="76.52400529956027" y2="143.8499915542452" stroke="#000" stroke-width="0.3" />
<polygon points="77.12343676333971,134.29004304570515 76.52400529956027,143.8499915542452 80.49784256892116,141.69977701262198 80.79755830081088,136.91980275835195" fill="none" stroke="#666" stroke-width="0.2" />
<text x="75.02724906068354" y="138.95737424315186" font-size="3" text-anchor="middle" dominant-baseline="central" fill="#000">27</text>
<line x1="77.12343676333971" y1="134.29004304570515" x2="76.0358780744995" y2="130.16215440505653" stroke="#000" stroke-width="0.3" stroke-dasharray="2 1.5" />
<line x1="76.0358780744995" y1="130.16215440505653" x2="94.9790151923134" y2="127.3484494244615" stroke="#000" stroke-width="0.3" stroke-dasharray="2 1.5" />
<line x1="94.9790151923134" y1="127.3484494244615" x2="77.12343676333971" y2="134.29004304570515" stroke="#000" stroke-width="0.3" />
<polygon points="94.9790151923134,127.3484494244615 77.12343676333971,134.29004304570515 84.3639688190806,139.6968760119837 93.29175803356743,136.22607920136187" fill="none" stroke="#666" stroke-width="0.2" />
<text x="85.39900572846109" y="129.14156666307989" font-size="3" text-anchor="middle" dominant-baseline="central" fill="#000">90</text>
<line x1="94.9790151923134" y1="127.3484494244615" x2="76.0358780744995" y2="130.16215440505653" stroke="#000" stroke-width="0.3" stroke-dasharray="2 1.5" />
<line x1="76.0358780744995" y1="130.16215440505653" x2="98.76990849975614" y2="120.12189839585919" stroke="#000" stroke-width="0.3" />
<polygon points="76.0358780744995,130.16215440505653 98.76990849975614,120.12189839585919 89.07029848976306,113.53835022805586 77.70328327713473,118.55847823265452" fill="none" stroke="#666" stroke-width="0.2" />
<text x="88.13008441579353" y="126.7885964907941" font-size="3" text-anchor="middle" dominant-baseline="central" fill="#000">28</text>
<line x1="98.76990849975614" y1="120.12189839585919" x2="94.9790151923134" y2="127.3484494244615" stroke="#000" stroke-width="0.3" stroke-dasharray="2 1.5" />
<line x1="94.9790151923134" y1="127.3484494244615" x2="98.76990849975614" y2="120.12189839585919" stroke="#000" stroke-width="0.3" stroke-dasharray="2 1.5" />
<line x1="98.76990849975614" y1="120.12189839585919" x2="111.63574062509588" y2="139.52675518900588" stroke="#000" stroke-width="0.3" stroke-dasharray="2 1.5" />
<line x1="111.63574062509588" y1="139.52675518900588" x2="94.9790151923134" y2="127.3484494244615" stroke="#000" stroke-width="0.3" />
<polygon points="111.63574062509588,139.52675518900588 94.9790151923134,127.3484494244615 94.27187424469126,137.05571603871059 102.60023696108252,143.1448689209828" fill="none" stroke="#666" stroke-width="0.2" />
<text x="104.3697536794524" y="131.98455113016487" font-size="3" text-anchor="middle" dominant-baseline="central" fill="#000">29</text>
<line x1="118.83204520773381" y1="134.79001765532558" x2="111.63574062509588" y2="139.52675518900588" stroke="#000" stroke-width="0.3" stroke-dasharray="2 1.5" />
<line x1="111.63574062509588" y1="139.52675518900588" x2="98.76990849975614" y2="120.12189839585919" stroke="#000" stroke-width="0.3" stroke-dasharray="2 1.5" />
<line x1="98.76990849975614" y1="120.12189839585919" x2="118.83204520773381" y2="134.79001765532558" stroke="#000" stroke-width="0.3" />
<polygon points="98.76990849975614,120.12189839585919 118.83204520773381,134.79001765532558 119.68375873452595,123.09813315726792 109.65269038053712,115.76407352753472" fill="none" stroke="#666" stroke-width="0.2" />
<text x="107.73860108299607" y="128.9090092021604" font-size="3" text-anchor="middle" dominant-baseline="central" fill="#000">30</text>
<line x1="116.16015467859293" y1="159.49839525498885" x2="111.63574062509588" y2="139.52675518900588" stroke="#000" stroke-width="0.3" stroke-dasharray="2 1.5" />
<line x1="111.63574062509588" y1="139.52675518900588" x2="118.83204520773381" y2="134.79001765532558" stroke="#000" stroke-width="0.3" stroke-dasharray="2 1.5" />
<line x1="118.83204520773381" y1="134.79001765532558" x2="116.16015467859293" y2="159.49839525498885" stroke="#000" stroke-width="0.3" />
<polygon points="118.83204520773381,134.79001765532558 116.16015467859293,159.49839525498885 126.71147835074345,154.39005706672938 128.0474236153139,142.03586826689775" fill="none" stroke="#666" stroke-width="0.2" />
<text x="115.70653278874504" y="146.9506879810338" font-size="3" text-anchor="middle" dominant-baseline="central" fill="#000">31</text>
<line x1="116.16015467859293" y1="159.49839525498885" x2="110.43687981499104" y2="158.64664886183826" stroke="#000" stroke-width="0.3" stroke-dasharray="2 1.5" />
<line x1="110.43687981499104" y1="158.64664886183826" x2="111.63574062509588" y2="139.52675518900588" stroke="#000" stroke-width="0.3" />
<text x="111.03631022004346" y="149.08670202542208" font-size="3" text-anchor="middle" dominant-baseline="central" fill="#000">20</text>
<line x1="111.63574062509588" y1="139.52675518900588" x2="116.16015467859293" y2="159.49839525498885" stroke="#000" stroke-width="0.3" stroke-dasharray="2 1.5" />
<line x1="116.16015467859293" y1="159.49839525498885" x2="101.5090848664532" y2="162.11744392629487" stroke="#000" stroke-width="0.3" stroke-dasharray="2 1.5" />
<line x1="101.5090848664532" y1="162.11744392629487" x2="110.43687981499104" y2="158.64664886183826" stroke="#000" stroke-width="0.3" />
<text x="105.97298234072213" y="160.38204639406655" font-size="3" text-anchor="middle" dominant-baseline="central" fill="#000">23</text>
<line x1="110.43687981499104" y1="158.64664886183826" x2="116.16015467859293" y2="159.49839525498885" stroke="#000" stroke-width="0.3" stroke-dasharray="2 1.5" />
<line x1="101.5090848664532" y1="162.11744392629487" x2="116.16015467859293" y2="159.49839525498885" stroke="#000" stroke-width="0.3" stroke-dasharray="2 1.5" />
<line x1="116.16015467859293" y1="159.49839525498885" x2="104.7931365523097" y2="164.51852724476265" stroke="#000" stroke-width="0.3" />
<polygon points="116.16015467859293,159.49839525498885 104.7931365523097,164.51852724476265 109.64294387979002,167.81030149783248 115.32645294293164,165.3002355029456" fill="none" stroke="#666" stroke-width="0.2" />
<text x="109.74945415970593" y="160.361891303991" font-size="3" text-anchor="middle" dominant-baseline="central" fill="#000">32</text>
<line x1="104.7931365523097" y1="164.51852724476265" x2="101.5090848664532" y2="162.11744392629487" stroke="#000" stroke-width="0.3" />
<polygon points="104.7931365523097,164.51852724476265 101.5090848664532,162.11744392629487 101.36966446053022,164.03133543025442 103.01169030345847,165.2318770894883" fill="none" stroke="#666" stroke-width="0.2" />
<text x="104.21348648012962" y="161.8649344089602" font-size="3" text-anchor="middle" dominant-baseline="central" fill="#000">33</text>
<line x1="144.93469255203473" y1="159.49839525498862" x2="159.58576236417446" y2="162.11744392629473" stroke="#000" stroke-width="0.3" stroke-dasharray="2 1.5" />
<line x1="159.58576236417446" y1="162.11744392629473" x2="156.3017106783179" y2="164.51852724476248" stroke="#000" stroke-width="0.3" />
<polygon points="159.58576236417446,162.11744392629473 156.3017106783179,164.51852724476248 158.08315692716914,165.23187708948817 159.7251827700974,164.03133543025427" fill="none" stroke="#666" stroke-width="0.2" />
<text x="156.88136075049803" y="161.86493440896007" font-size="3" text-anchor="middle" dominant-baseline="central" fill="#000">5</text>
<line x1="156.3017106783179" y1="164.51852724476248" x2="144.93469255203473" y2="159.49839525498862" stroke="#000" stroke-width="0.3" />
<polygon points="156.3017106783179,164.51852724476248 144.93469255203473,159.49839525498862 145.768394287696,165.30023550294536 151.45190335083757,167.81030149783228" fill="none" stroke="#666" stroke-width="0.2" />
<text x="151.3453930709217" y="160.3618913039908" font-size="3" text-anchor="middle" dominant-baseline="central" fill="#000">6</text>
<line x1="159.58576236417446" y1="162.11744392629473" x2="144.93469255203473" y2="159.49839525498862" stroke="#000" stroke-width="0.3" stroke-dasharray="2 1.5" />
<line x1="144.93469255203473" y1="159.49839525498862" x2="150.65796741563662" y2="158.64664886183806" stroke="#000" stroke-width="0.3" stroke-dasharray="2 1.5" />
<line x1="150.65796741563662" y1="158.64664886183806" x2="159.58576236417446" y2="162.11744392629473" stroke="#000" stroke-width="0.3" />
<polygon points="150.65796741563662,158.64664886183806 159.58576236417446,162.11744392629473 158.74213165282265,157.67862718076543 154.27823417855373,155.94322964853708" fill="none" stroke="#666" stroke-width="0.2" />
<text x="154.46964528949377" y="162.05972621835906" font-size="3" text-anchor="middle" dominant-baseline="central" fill="#000">7</text>
<line x1="150.65796741563662" y1="158.64664886183806" x2="144.93469255203473" y2="159.49839525498862" stroke="#000" stroke-width="0.3" stroke-dasharray="2 1.5" />
<line x1="144.93469255203473" y1="159.49839525498862" x2="149.45910660553193" y2="139.52675518900568" stroke="#000" stroke-width="0.3" stroke-dasharray="2 1.5" />
<line x1="149.45910660553193" y1="139.52675518900568" x2="150.65796741563662" y2="158.64664886183806" stroke="#000" stroke-width="0.3" />
<polygon points="149.45910660553193,139.52675518900568 150.65796741563662,158.64664886183806 158.0062096822434,153.38713111958808 157.40677927719105,143.8271842831719" fill="none" stroke="#666" stroke-width="0.2" />
<text x="148.26206502862246" y="149.19934490369712" font-size="3" text-anchor="middle" dominant-baseline="central" fill="#000">8</text>
<line x1="149.45910660553193" y1="139.52675518900568" x2="144.93469255203473" y2="159.49839525498862" stroke="#000" stroke-width="0.3" stroke-dasharray="2 1.5" />
<line x1="144.93469255203473" y1="159.49839525498862" x2="142.26280202289405" y2="134.79001765532533" stroke="#000" stroke-width="0.3" />
<polygon points="144.93469255203473,159.49839525498862 142.26280202289405,134.79001765532533 133.0474236153139,142.0358682668974 134.38336887988424,154.39005706672907" fill="none" stroke="#666" stroke-width="0.2" />
<text x="145.38831444188273" y="146.95068798103355" font-size="3" text-anchor="middle" dominant-baseline="central" fill="#000">9</text>
<line x1="142.26280202289405" y1="134.79001765532533" x2="149.45910660553193" y2="139.52675518900568" stroke="#000" stroke-width="0.3" stroke-dasharray="2 1.5" />
<line x1="162.32493873087182" y1="120.1218983958591" x2="149.45910660553193" y2="139.52675518900568" stroke="#000" stroke-width="0.3" stroke-dasharray="2 1.5" />
<line x1="149.45910660553193" y1="139.52675518900568" x2="142.26280202289405" y2="134.79001765532533" stroke="#000" stroke-width="0.3" stroke-dasharray="2 1.5" />
<line x1="142.26280202289405" y1="134.79001765532533" x2="162.32493873087182" y2="120.1218983958591" stroke="#000" stroke-width="0.3" />
<polygon points="142.26280202289405,134.79001765532533 162.32493873087182,120.1218983958591 151.4421568500909,115.76407352753455 141.411088496102,123.09813315726765" fill="none" stroke="#666" stroke-width="0.2" />
<text x="153.3562461476318" y="128.90900920216023" font-size="3" text-anchor="middle" dominant-baseline="central" fill="#000">10</text>
<line x1="162.32493873087182" y1="120.1218983958591" x2="166.11583203831452" y2="127.34844942446145" stroke="#000" stroke-width="0.3" stroke-dasharray="2 1.5" />
<line x1="166.11583203831452" y1="127.34844942446145" x2="149.45910660553193" y2="139.52675518900568" stroke="#000" stroke-width="0.3" />
<polygon points="166.11583203831452,127.34844942446145 149.45910660553193,139.52675518900568 158.49461026954526,143.14486892098267 166.82297298593656,137.05571603871056" fill="none" stroke="#666" stroke-width="0.2" />
<text x="156.72509355117546" y="131.98455113016473" font-size="3" text-anchor="middle" dominant-baseline="central" fill="#000">11</text>
<line x1="149.45910660553193" y1="139.52675518900568" x2="162.32493873087182" y2="120.1218983958591" stroke="#000" stroke-width="0.3" stroke-dasharray="2 1.5" />
<line x1="185.0589691561284" y1="130.16215440505664" x2="166.11583203831452" y2="127.34844942446145" stroke="#000" stroke-width="0.3" stroke-dasharray="2 1.5" />
<line x1="166.11583203831452" y1="127.34844942446145" x2="162.32493873087182" y2="120.1218983958591" stroke="#000" stroke-width="0.3" stroke-dasharray="2 1.5" />
<line x1="162.32493873087182" y1="120.1218983958591" x2="185.0589691561284" y2="130.16215440505664" stroke="#000" stroke-width="0.3" />
<polygon points="162.32493873087182,120.1218983958591 185.0589691561284,130.16215440505664 183.39156395349326,118.55847823265462 172.024548740865,113.53835022805586" fill="none" stroke="#666" stroke-width="0.2" />
<text x="172.96476281483436" y="126.78859649079409" font-size="3" text-anchor="middle" dominant-baseline="central" fill="#000">12</text>
<line x1="185.0589691561284" y1="130.16215440505664" x2="183.97141046728814" y2="134.29004304570526" stroke="#000" stroke-width="0.3" stroke-dasharray="2 1.5" />
<line x1="183.97141046728814" y1="134.29004304570526" x2="166.11583203831452" y2="127.34844942446145" stroke="#000" stroke-width="0.3" />
<polygon points="183.97141046728814,134.29004304570526 166.11583203831452,127.34844942446145 167.80308919706042,136.22607920136184 176.73087841154722,139.69687601198376" fill="none" stroke="#666" stroke-width="0.2" />
<text x="175.69584150216681" y="129.14156666307994" font-size="3" text-anchor="middle" dominant-baseline="central" fill="#000">89</text>
<line x1="166.11583203831452" y1="127.34844942446145" x2="185.0589691561284" y2="130.16215440505664" stroke="#000" stroke-width="0.3" stroke-dasharray="2 1.5" />
<line x1="185.0589691561284" y1="130.16215440505664" x2="184.5708419310675" y2="143.84999155424532" stroke="#000" stroke-width="0.3" stroke-dasharray="2 1.5" />
<line x1="184.5708419310675" y1="143.84999155424532" x2="183.97141046728814" y2="134.29004304570526" stroke="#000" stroke-width="0.3" />
<polygon points="184.5708419310675,143.84999155424532 183.97141046728814,134.29004304570526 180.29728892981694,136.919802758352 180.59700466170662,141.69977701262206" fill="none" stroke="#666" stroke-width="0.2" />
<text x="186.06759816994426" y="138.957374243152" font-size="3" text-anchor="middle" dominant-baseline="central" fill="#000">13</text>
<line x1="183.97141046728814" y1="134.29004304570526" x2="185.0589691561284" y2="130.16215440505664" stroke="#000" stroke-width="0.3" stroke-dasharray="2 1.5" />
<line x1="184.5708419310675" y1="143.84999155424532" x2="185.0589691561284" y2="130.16215440505664" stroke="#000" stroke-width="0.3" stroke-dasharray="2 1.5" />
<line x1="185.0589691561284" y1="130.16215440505664" x2="186.39491802466878" y2="142.51634668535755" stroke="#000" stroke-width="0.3" />
<polygon points="185.0589691561284,130.16215440505664 186.39491802466878,142.51634668535755 191.00260771965407,138.89341906786615 190.33463328538386,132.7163229277157" fill="none" stroke="#666" stroke-width="0.2" />
<text x="183.93737648595373" y="136.53276948146103" font-size="3" text-anchor="middle" dominant-baseline="central" fill="#000">14</text>
<line x1="186.39491802466878" y1="142.51634668535755" x2="184.5708419310675" y2="143.84999155424532" stroke="#000" stroke-width="0.3" />
<polygon points="186.39491802466878,142.51634668535755 184.5708419310675,143.84999155424532 185.5603189020229,144.2462107744639 186.47235694882357,143.57938834002002" fill="none" stroke="#666" stroke-width="0.2" />
<text x="184.4205042071132" y="141.73011794323787" font-size="3" text-anchor="middle" dominant-baseline="central" fill="#000">15</text>
<line x1="25.43155539651124" y1="189.3895584058023" x2="42.86888027725277" y2="183.27313972568228" stroke="#000" stroke-width="0.3" stroke-dasharray="2 1.5" />
<line x1="42.86888027725277" y1="183.27313972568228" x2="38.26563449989999" y2="192.80574301088316" stroke="#000" stroke-width="0.3" />
<text x="40.56725738857638" y="188.03944136828272" font-size="3" text-anchor="middle" dominant-baseline="central" fill="#000">95</text>
<line x1="38.26563449989999" y1="192.80574301088316" x2="25.43155539651124" y2="189.3895584058023" stroke="#000" stroke-width="0.3" />
<polygon points="38.26563449989999,192.80574301088316 25.43155539651124,189.3895584058023 27.273601330326073,195.377236198428 33.690640882020446,197.08532850096844" fill="none" stroke="#666" stroke-width="0.2" />
<text x="32.31159854125077" y="189.35821756135854" font-size="3" text-anchor="middle" dominant-baseline="central" fill="#000">36</text>
<line x1="25.43155539651124" y1="189.3895584058023" x2="24.369005212054144" y2="180.9973594115311" stroke="#000" stroke-width="0.3" stroke-dasharray="2 1.5" />
<line x1="24.369005212054144" y1="180.9973594115311" x2="42.86888027725277" y2="183.27313972568228" stroke="#000" stroke-width="0.3" />
<polygon points="24.369005212054144,180.9973594115311 42.86888027725277,183.27313972568228 39.154223636613594,175.30424462106504 29.90428610401428,174.16635446398945" fill="none" stroke="#666" stroke-width="0.2" />
<text x="33.39917062974859" y="183.9217825846773" font-size="3" text-anchor="middle" dominant-baseline="central" fill="#000">37</text>
<line x1="42.86888027725277" y1="183.27313972568228" x2="25.43155539651124" y2="189.3895584058023" stroke="#000" stroke-width="0.3" stroke-dasharray="2 1.5" />
<line x1="16.299541942036452" y1="198.65300345203943" x2="24.369005212054144" y2="180.9973594115311" stroke="#000" stroke-width="0.3" stroke-dasharray="2 1.5" />
<line x1="24.369005212054144" y1="180.9973594115311" x2="25.43155539651124" y2="189.3895584058023" stroke="#000" stroke-width="0.3" stroke-dasharray="2 1.5" />
<line x1="25.43155539651124" y1="189.3895584058023" x2="16.299541942036452" y2="198.65300345203943" stroke="#000" stroke-width="0.3" />
<polygon points="25.43155539651124,189.3895584058023 16.299541942036452,198.65300345203943 22.287923324150007,199.98994757227007 26.8539300513874,195.35822504915149" fill="none" stroke="#666" stroke-width="0.2" />
<text x="19.58369535434032" y="192.75761480252754" font-size="3" text-anchor="middle" dominant-baseline="central" fill="#000">85</text>
<line x1="24.369005212054144" y1="180.9973594115311" x2="16.299541942036452" y2="198.65300345203943" stroke="#000" stroke-width="0.3" stroke-dasharray="2 1.5" />
<line x1="16.299541942036452" y1="198.65300345203943" x2="13.148179110887629" y2="195.88082350197925" stroke="#000" stroke-width="0.3" stroke-dasharray="2 1.5" />
<line x1="13.148179110887629" y1="195.88082350197925" x2="24.369005212054144" y2="180.9973594115311" stroke="#000" stroke-width="0.3" />
<polygon points="13.148179110887629,195.88082350197925 24.369005212054144,180.9973594115311 15.610413050583256,180.22989499367654 10,187.6716270389006" fill="none" stroke="#666" stroke-width="0.2" />
<text x="20.195888585009353" y="189.52268685674707" font-size="3" text-anchor="middle" dominant-baseline="central" fill="#000">38</text>
<line x1="16.299541942036452" y1="198.65300345203943" x2="16.78770974874943" y2="204.4604484511027" stroke="#000" stroke-width="0.3" stroke-dasharray="2 1.5" />
<line x1="16.78770974874943" y1="204.4604484511027" x2="13.148179110887629" y2="195.88082350197925" stroke="#000" stroke-width="0.3" />
<polygon points="16.78770974874943,204.4604484511027 13.148179110887629,195.88082350197925 10.626211790703698,199.48154199440484 12.445977109634597,203.77135446896656" fill="none" stroke="#666" stroke-width="0.2" />
<text x="16.625013180218662" y="199.4676970343509" font-size="3" text-anchor="middle" dominant-baseline="central" fill="#000">39</text>
<line x1="13.148179110887629" y1="195.88082350197925" x2="16.299541942036452" y2="198.65300345203943" stroke="#000" stroke-width="0.3" stroke-dasharray="2 1.5" />
<line x1="16.78770974874943" y1="204.4604484511027" x2="16.299541942036452" y2="198.65300345203943" stroke="#000" stroke-width="0.3" stroke-dasharray="2 1.5" />
<line x1="16.299541942036452" y1="198.65300345203943" x2="19.670400549309495" y2="204.81506549324922" stroke="#000" stroke-width="0.3" stroke-dasharray="2 1.5" />
<line x1="19.670400549309495" y1="204.81506549324922" x2="16.78770974874943" y2="204.4604484511027" stroke="#000" stroke-width="0.3" />
<polygon points="19.670400549309495,204.81506549324922 16.78770974874943,204.4604484511027 17.36653563203084,205.70217903186335 18.807881032310867,205.8794875529366" fill="none" stroke="#666" stroke-width="0.2" />
<text x="18.44882726393439" y="202.8512239561054" font-size="3" text-anchor="middle" dominant-baseline="central" fill="#000">40</text>
<line x1="16.299541942036452" y1="198.65300345203943" x2="41.94183794595341" y2="201.9019420798553" stroke="#000" stroke-width="0.3" stroke-dasharray="2 1.5" />
<line x1="41.94183794595341" y1="201.9019420798553" x2="19.670400549309495" y2="204.81506549324922" stroke="#000" stroke-width="0.3" />
<polygon points="41.94183794595341,201.9019420798553 19.670400549309495,204.81506549324922 26.403509263828035,212.9953595985583 37.53922796214999,211.53879789186135" fill="none" stroke="#666" stroke-width="0.2" />
<text x="30.572666268090497" y="201.57370696160456" font-size="3" text-anchor="middle" dominant-baseline="central" fill="#000">42</text>
<line x1="19.670400549309495" y1="204.81506549324922" x2="16.299541942036452" y2="198.65300345203943" stroke="#000" stroke-width="0.3" stroke-dasharray="2 1.5" />
<line x1="41.94183794595341" y1="201.9019420798553" x2="16.299541942036452" y2="198.65300345203943" stroke="#000" stroke-width="0.3" stroke-dasharray="2 1.5" />
<line x1="16.299541942036452" y1="198.65300345203943" x2="41.069532334973694" y2="198.33526540720024" stroke="#000" stroke-width="0.3" />
<polygon points="16.299541942036452,198.65300345203943 41.069532334973694,198.33526540720024 34.74993951880371,188.50670376123514 22.36494432233509,188.66557278365474" fill="none" stroke="#666" stroke-width="0.2" />
<text x="28.707624811258846" y="200.29398635668684" font-size="3" text-anchor="middle" dominant-baseline="central" fill="#000">43</text>
<line x1="41.069532334973694" y1="198.33526540720024" x2="41.94183794595341" y2="201.9019420798553" stroke="#000" stroke-width="0.3" />
<polygon points="41.069532334973694,198.33526540720024 41.94183794595341,201.9019420798553 43.1504322122705,200.66135066729967 42.71427940678065,198.87801233097213" fill="none" stroke="#666" stroke-width="0.2" />
<text x="39.75721797378343" y="200.54622807286557" font-size="3" text-anchor="middle" dominant-baseline="central" fill="#000">44</text>
<line x1="49.85283829271842" y1="195.49112237337602" x2="53.723613808324394" y2="178.4212220604703" stroke="#000" stroke-width="0.3" />
<text x="51.7882260505214" y="186.95617221692316" font-size="3" text-anchor="middle" dominant-baseline="central" fill="#000">84</text>
<line x1="53.723613808324394" y1="178.4212220604703" x2="66.53909589072737" y2="181.90652300639164" stroke="#000" stroke-width="0.3" />
<polygon points="53.723613808324394,178.4212220604703 66.53909589072737,181.90652300639164 64.72934574849515,175.9090049369501 58.321604707293666,174.16635446398945" fill="none" stroke="#666" stroke-width="0.2" />
<text x="59.65898375505833" y="181.90078518210146" font-size="3" text-anchor="middle" dominant-baseline="central" fill="#000">67</text>
<line x1="66.53909589072737" y1="181.90652300639164" x2="49.85283829271842" y2="195.49112237337602" stroke="#000" stroke-width="0.3" stroke-dasharray="2 1.5" />
<line x1="49.85283829271842" y1="195.49112237337602" x2="75.67110934520208" y2="191.16996805262883" stroke="#000" stroke-width="0.3" stroke-dasharray="2 1.5" />
<line x1="75.67110934520208" y1="191.16996805262883" x2="53.363425193121294" y2="201.9412543872476" stroke="#000" stroke-width="0.3" />
<polygon points="75.67110934520208,191.16996805262883 53.363425193121294,201.9412543872476 63.248860764989004,208.17150646442522 74.4027028410294,202.78586329711584" fill="none" stroke="#666" stroke-width="0.2" />
<text x="63.734597588680835" y="194.93467686862846" font-size="3" text-anchor="middle" dominant-baseline="central" fill="#000">68</text>
<line x1="53.363425193121294" y1="201.9412543872476" x2="49.85283829271842" y2="195.49112237337602" stroke="#000" stroke-width="0.3" />
<polygon points="53.363425193121294,201.9412543872476 49.85283829271842,195.49112237337602 48.1504322122705,198.50789013700506 49.90572566247194,201.73295614394084" fill="none" stroke="#666" stroke-width="0.2" />
<text x="53.18913311419349" y="197.8557032473601" font-size="3" text-anchor="middle" dominant-baseline="central" fill="#000">69</text>
<line x1="75.67110934520208" y1="191.16996805262883" x2="49.85283829271842" y2="195.49112237337602" stroke="#000" stroke-width="0.3" stroke-dasharray="2 1.5" />
<line x1="49.85283829271842" y1="195.49112237337602" x2="66.53909589072737" y2="181.90652300639164" stroke="#000" stroke-width="0.3" stroke-dasharray="2 1.5" />
<line x1="66.53909589072737" y1="181.90652300639164" x2="75.67110934520208" y2="191.16996805262883" stroke="#000" stroke-width="0.3" />
<polygon points="66.53909589072737,181.90652300639164 75.67110934520208,191.16996805262883 77.09348400007829,185.20130140927964 72.52747727284093,180.56957888616103" fill="none" stroke="#666" stroke-width="0.2" />
<text x="69.82324930303119" y="187.80191165590355" font-size="3" text-anchor="middle" dominant-baseline="central" fill="#000">88</text>
<line x1="113.367410791959" y1="192.41951233913895" x2="114.97195451526648" y2="177.96321665902565" stroke="#000" stroke-width="0.3" stroke-dasharray="2 1.5" />
<line x1="114.97195451526648" y1="177.96321665902565" x2="120.04514492050968" y2="189.36398163969372" stroke="#000" stroke-width="0.3" stroke-dasharray="2 1.5" />
<line x1="120.04514492050968" y1="189.36398163969372" x2="113.367410791959" y2="192.41951233913895" stroke="#000" stroke-width="0.3" />
<polygon points="120.04514492050968,189.36398163969372 113.367410791959,192.41951233913895 116.25905660387477,194.3267233156979 119.59792366815009,192.7989579659753" fill="none" stroke="#666" stroke-width="0.2" />
<text x="115.95733206408093" y="189.2549573876606" font-size="3" text-anchor="middle" dominant-baseline="central" fill="#000">16</text>
<line x1="114.97195451526648" y1="177.96321665902565" x2="113.367410791959" y2="192.41951233913895" stroke="#000" stroke-width="0.3" stroke-dasharray="2 1.5" />
<line x1="113.367410791959" y1="192.41951233913895" x2="104.04097953695607" y2="180.26532784417748" stroke="#000" stroke-width="0.3" stroke-dasharray="2 1.5" />
<line x1="104.04097953695607" y1="180.26532784417748" x2="114.97195451526648" y2="177.96321665902565" stroke="#000" stroke-width="0.3" />
<polygon points="104.04097953695607,180.26532784417748 114.97195451526648,177.96321665902565 111.31836629662814,174.16635446398945 105.85287880747293,175.31741005656536" fill="none" stroke="#666" stroke-width="0.2" />
<text x="109.8774175512341" y="180.87563414170566" font-size="3" text-anchor="middle" dominant-baseline="central" fill="#000">17</text>
<line x1="107.91175505256193" y1="197.3352281570832" x2="112.93353973388312" y2="205.65125901174957" stroke="#000" stroke-width="0.3" stroke-dasharray="2 1.5" />
<line x1="112.93353973388312" y1="205.65125901174957" x2="109.44105927770875" y2="204.51782183684816" stroke="#000" stroke-width="0.3" />
<text x="111.18729950579593" y="205.08454042429886" font-size="3" text-anchor="middle" dominant-baseline="central" fill="#000">44</text>
<line x1="109.44105927770875" y1="204.51782183684816" x2="107.91175505256193" y2="197.3352281570832" stroke="#000" stroke-width="0.3" />
<polygon points="109.44105927770875,204.51782183684816 107.91175505256193,197.3352281570832 105.42104363694266,199.74259826708317 106.18569574951606,203.33389510696566" fill="none" stroke="#666" stroke-width="0.2" />
<text x="110.43694329564993" y="200.55167498275634" font-size="3" text-anchor="middle" dominant-baseline="central" fill="#000">45</text>
<line x1="112.93353973388312" y1="205.65125901174957" x2="107.91175505256193" y2="197.3352281570832" stroke="#000" stroke-width="0.3" stroke-dasharray="2 1.5" />
<line x1="107.91175505256193" y1="197.3352281570832" x2="121.11702220818458" y2="198.2776863073326" stroke="#000" stroke-width="0.3" stroke-dasharray="2 1.5" />
<line x1="121.11702220818458" y1="198.2776863073326" x2="112.93353973388312" y2="205.65125901174957" stroke="#000" stroke-width="0.3" />
<polygon points="121.11702220818458,198.2776863073326 112.93353973388312,205.65125901174957 117.92883943422527,207.08125882536592 122.020580671376,203.39447247315744" fill="none" stroke="#666" stroke-width="0.2" />
<text x="115.82038281962765" y="200.62722905991612" font-size="3" text-anchor="middle" dominant-baseline="central" fill="#000">46</text>
<line x1="121.11702220818458" y1="198.2776863073326" x2="107.91175505256193" y2="197.3352281570832" stroke="#000" stroke-width="0.3" stroke-dasharray="2 1.5" />
<line x1="107.91175505256193" y1="197.3352281570832" x2="113.367410791959" y2="192.41951233913895" stroke="#000" stroke-width="0.3" stroke-dasharray="2 1.5" />
<line x1="113.367410791959" y1="192.41951233913895" x2="121.11702220818458" y2="198.2776863073326" stroke="#000" stroke-width="0.3" stroke-dasharray="2 1.5" />
<line x1="121.11702220818458" y1="198.2776863073326" x2="113.367410791959" y2="192.41951233913895" stroke="#000" stroke-width="0.3" stroke-dasharray="2 1.5" />
<line x1="113.367410791959" y1="192.41951233913895" x2="120.35237075651588" y2="194.68639020095688" stroke="#000" stroke-width="0.3" />
<text x="116.85989077423744" y="193.5529512700479" font-size="3" text-anchor="middle" dominant-baseline="central" fill="#000">16</text>
<line x1="120.35237075651588" y1="194.68639020095688" x2="121.11702220818458" y2="198.2776863073326" stroke="#000" stroke-width="0.3" />
<polygon points="120.35237075651588,194.68639020095688 121.11702220818458,198.2776863073326 122.3623777878177,197.0740017000712 121.98005206198334,195.27835364688332" fill="none" stroke="#666" stroke-width="0.2" />
<text x="118.97416030143823" y="196.8568880316554" font-size="3" text-anchor="middle" dominant-baseline="central" fill="#000">47</text>
<line x1="123.62252047433283" y1="188.53664633093612" x2="114.97195451526648" y2="177.96321665902565" stroke="#000" stroke-width="0.3" stroke-dasharray="2 1.5" />
<line x1="114.97195451526648" y1="177.96321665902565" x2="119.66067711147178" y2="175.67626024589305" stroke="#000" stroke-width="0.3" />
<text x="117.31631581336913" y="176.81973845245935" font-size="3" text-anchor="middle" dominant-baseline="central" fill="#000">35</text>
<line x1="119.66067711147178" y1="175.67626024589305" x2="123.62252047433283" y2="188.53664633093612" stroke="#000" stroke-width="0.3" />
<polygon points="119.66067711147178,175.67626024589305 123.62252047433283,188.53664633093612 127.77621406763478,183.73681246453094 125.79529238620427,177.3066194220094" fill="none" stroke="#666" stroke-width="0.2" />
<text x="119.92137720254686" y="182.63639449277127" font-size="3" text-anchor="middle" dominant-baseline="central" fill="#000">86</text>
<line x1="114.97195451526648" y1="177.96321665902565" x2="123.62252047433283" y2="188.53664633093612" stroke="#000" stroke-width="0.3" stroke-dasharray="2 1.5" />
<line x1="123.62252047433283" y1="188.53664633093612" x2="120.04514492050968" y2="189.36398163969372" stroke="#000" stroke-width="0.3" />
<text x="121.83383269742126" y="188.95031398531492" font-size="3" text-anchor="middle" dominant-baseline="central" fill="#000">47</text>
<line x1="120.04514492050968" y1="189.36398163969372" x2="114.97195451526648" y2="177.96321665902565" stroke="#000" stroke-width="0.3" stroke-dasharray="2 1.5" />
<line x1="82.09348400007829" y1="193.01407383633585" x2="107.91175505256193" y2="197.3352281570832" stroke="#000" stroke-width="0.3" stroke-dasharray="2 1.5" />
<line x1="107.91175505256193" y1="197.3352281570832" x2="104.40116815215902" y2="203.78536017095476" stroke="#000" stroke-width="0.3" />
<text x="106.15646160236048" y="200.56029416401898" font-size="3" text-anchor="middle" dominant-baseline="central" fill="#000">45</text>
<line x1="104.40116815215902" y1="203.78536017095476" x2="82.09348400007829" y2="193.01407383633585" stroke="#000" stroke-width="0.3" />
<text x="93.24732607611865" y="198.39971700364532" font-size="3" text-anchor="middle" dominant-baseline="central" fill="#000">43</text>
<line x1="107.91175505256193" y1="197.3352281570832" x2="82.09348400007829" y2="193.01407383633585" stroke="#000" stroke-width="0.3" stroke-dasharray="2 1.5" />
<line x1="82.09348400007829" y1="193.01407383633585" x2="91.22549745455308" y2="183.75062879009872" stroke="#000" stroke-width="0.3" />
<text x="86.65949072731568" y="188.38235131321727" font-size="3" text-anchor="middle" dominant-baseline="central" fill="#000">85</text>
<line x1="91.22549745455308" y1="183.75062879009872" x2="107.91175505256193" y2="197.3352281570832" stroke="#000" stroke-width="0.3" stroke-dasharray="2 1.5" />
<line x1="107.91175505256193" y1="197.3352281570832" x2="104.04097953695607" y2="180.26532784417748" stroke="#000" stroke-width="0.3" stroke-dasharray="2 1.5" />
<line x1="104.04097953695607" y1="180.26532784417748" x2="113.367410791959" y2="192.41951233913895" stroke="#000" stroke-width="0.3" stroke-dasharray="2 1.5" />
<line x1="113.367410791959" y1="192.41951233913895" x2="107.91175505256193" y2="197.3352281570832" stroke="#000" stroke-width="0.3" stroke-dasharray="2 1.5" />
<line x1="104.04097953695607" y1="180.26532784417748" x2="107.91175505256193" y2="197.3352281570832" stroke="#000" stroke-width="0.3" stroke-dasharray="2 1.5" />
<line x1="107.91175505256193" y1="197.3352281570832" x2="91.22549745455308" y2="183.75062879009872" stroke="#000" stroke-width="0.3" stroke-dasharray="2 1.5" />
<line x1="91.22549745455308" y1="183.75062879009872" x2="104.04097953695607" y2="180.26532784417748" stroke="#000" stroke-width="0.3" />
<text x="97.63323849575457" y="182.0079783171381" font-size="3" text-anchor="middle" dominant-baseline="central" fill="#000">36</text>
<line x1="141.71031258858946" y1="198.76733129929795" x2="136.51830964099102" y2="198.1286319536314" stroke="#000" stroke-width="0.3" />
<polygon points="141.71031258858946,198.76733129929795 136.51830964099102,198.1286319536314 137.56083063962402,200.36510796908743 140.15683211342323,200.6844576419207" fill="none" stroke="#666" stroke-width="0.2" />
<text x="139.3340832296932" y="196.66144861039388" font-size="3" text-anchor="middle" dominant-baseline="central" fill="#000">34</text>
<line x1="136.51830964099102" y1="198.1286319536314" x2="139.7255822289891" y2="194.01430433347153" stroke="#000" stroke-width="0.3" />
<polygon points="136.51830964099102,198.1286319536314 139.7255822289891,194.01430433347153 137.27803303392565,193.75997720331225 135.67439673992658,195.8171410133922" fill="none" stroke="#666" stroke-width="0.2" />
<text x="139.54156844923227" y="197.17811710191933" font-size="3" text-anchor="middle" dominant-baseline="central" fill="#000">35</text>
<line x1="139.7255822289891" y1="194.01430433347153" x2="141.71031258858946" y2="198.76733129929795" stroke="#000" stroke-width="0.3" stroke-dasharray="2 1.5" />
<line x1="139.7255822289891" y1="194.01430433347153" x2="147.3207286625364" y2="191.32559763642465" stroke="#000" stroke-width="0.3" stroke-dasharray="2 1.5" />
<line x1="147.3207286625364" y1="191.32559763642465" x2="141.71031258858946" y2="198.76733129929795" stroke="#000" stroke-width="0.3" />
<text x="144.51552062556294" y="195.0464644678613" font-size="3" text-anchor="middle" dominant-baseline="central" fill="#000">24</text>
<line x1="141.71031258858946" y1="198.76733129929795" x2="139.7255822289891" y2="194.01430433347153" stroke="#000" stroke-width="0.3" stroke-dasharray="2 1.5" />
<line x1="139.7255822289891" y1="194.01430433347153" x2="140.04168971472973" y2="174.16635446398945" stroke="#000" stroke-width="0.3" stroke-dasharray="2 1.5" />
<line x1="140.04168971472973" y1="174.16635446398945" x2="147.3207286625364" y2="191.32559763642465" stroke="#000" stroke-width="0.3" />
<text x="143.68120918863306" y="182.74597605020705" font-size="3" text-anchor="middle" dominant-baseline="central" fill="#000">22</text>
<line x1="147.3207286625364" y1="191.32559763642465" x2="139.7255822289891" y2="194.01430433347153" stroke="#000" stroke-width="0.3" stroke-dasharray="2 1.5" />
<line x1="135.43844393737695" y1="183.69895774919033" x2="140.04168971472973" y2="174.16635446398945" stroke="#000" stroke-width="0.3" />
<polygon points="135.43844393737695,183.69895774919033 140.04168971472973,174.16635446398945 135.07783695631116,174.70820697434857 132.77621406763478,179.47450861694898" fill="none" stroke="#666" stroke-width="0.2" />
<text x="139.36097325994083" y="179.71538360232657" font-size="3" text-anchor="middle" dominant-baseline="central" fill="#000">95</text>
<line x1="140.04168971472973" y1="174.16635446398945" x2="139.7255822289891" y2="194.01430433347153" stroke="#000" stroke-width="0.3" stroke-dasharray="2 1.5" />
<line x1="139.7255822289891" y1="194.01430433347153" x2="135.43844393737695" y2="183.69895774919033" stroke="#000" stroke-width="0.3" />
<text x="137.58201308318303" y="188.85663104133093" font-size="3" text-anchor="middle" dominant-baseline="central" fill="#000">17</text>
<line x1="159.59976761038283" y1="174.16635446398945" x2="157.93114473648302" y2="198.7673312992813" stroke="#000" stroke-width="0.3" stroke-dasharray="2 1.5" />
<line x1="157.93114473648302" y1="198.7673312992813" x2="152.3207286625364" y2="191.32559763640776" stroke="#000" stroke-width="0.3" />
<text x="155.1259366995097" y="195.04646446784454" font-size="3" text-anchor="middle" dominant-baseline="central" fill="#000">73</text>
<line x1="152.3207286625364" y1="191.32559763640776" x2="159.59976761038283" y2="174.16635446398945" stroke="#000" stroke-width="0.3" />
<text x="155.9602481364596" y="182.7459760501986" font-size="3" text-anchor="middle" dominant-baseline="central" fill="#000">75</text>
<line x1="157.93114473648302" y1="198.7673312992813" x2="159.59976761038283" y2="174.16635446398945" stroke="#000" stroke-width="0.3" stroke-dasharray="2 1.5" />
<line x1="159.59976761038283" y1="174.16635446398945" x2="159.91587509612324" y2="194.01430433347153" stroke="#000" stroke-width="0.3" stroke-dasharray="2 1.5" />
<line x1="159.91587509612324" y1="194.01430433347153" x2="157.93114473648302" y2="198.7673312992813" stroke="#000" stroke-width="0.3" stroke-dasharray="2 1.5" />
<line x1="163.12314768408683" y1="198.12863195365833" x2="157.93114473648302" y2="198.7673312992813" stroke="#000" stroke-width="0.3" />
<text x="160.5271462102849" y="198.4479816264698" font-size="3" text-anchor="middle" dominant-baseline="central" fill="#000">54</text>
<line x1="157.93114473648302" y1="198.7673312992813" x2="159.91587509612324" y2="194.01430433347153" stroke="#000" stroke-width="0.3" stroke-dasharray="2 1.5" />
<line x1="159.91587509612324" y1="194.01430433347153" x2="163.12314768408683" y2="198.12863195365833" stroke="#000" stroke-width="0.3" />
<polygon points="159.91587509612324,194.01430433347153 163.12314768408683,198.12863195365833 163.96706058517066,195.81714101342618 162.36342429118886,193.7599772033328" fill="none" stroke="#666" stroke-width="0.2" />
<text x="160.09988887585354" y="197.17811710192083" font-size="3" text-anchor="middle" dominant-baseline="central" fill="#000">79</text>
<line x1="159.91587509612324" y1="194.01430433347153" x2="159.59976761038283" y2="174.16635446398945" stroke="#000" stroke-width="0.3" stroke-dasharray="2 1.5" />
<line x1="159.59976761038283" y1="174.16635446398945" x2="164.20301338773552" y2="183.69895774919036" stroke="#000" stroke-width="0.3" />
<polygon points="159.59976761038283,174.16635446398945 164.20301338773552,183.69895774919036 166.86524325747772,179.47450861694907 164.56362036880137,174.7082069743486" fill="none" stroke="#666" stroke-width="0.2" />
<text x="160.2804840651717" y="179.71538360232654" font-size="3" text-anchor="middle" dominant-baseline="central" fill="#000">96</text>
<line x1="164.20301338773552" y1="183.69895774919036" x2="159.91587509612324" y2="194.01430433347153" stroke="#000" stroke-width="0.3" />
<text x="162.05944424192938" y="188.85663104133096" font-size="3" text-anchor="middle" dominant-baseline="central" fill="#000">64</text>
<line x1="176.4684890348304" y1="185.97473806334125" x2="171.86524325747772" y2="176.44213477814034" stroke="#000" stroke-width="0.3" />
<text x="174.16686614615406" y="181.20843642074078" font-size="3" text-anchor="middle" dominant-baseline="central" fill="#000">96</text>
<line x1="171.86524325747772" y1="176.44213477814034" x2="190.36511832267638" y2="174.16635446398945" stroke="#000" stroke-width="0.3" />
<text x="181.11518079007703" y="175.3042446210649" font-size="3" text-anchor="middle" dominant-baseline="central" fill="#000">78</text>
<line x1="190.36511832267638" y1="174.16635446398945" x2="176.4684890348304" y2="185.97473806334125" stroke="#000" stroke-width="0.3" stroke-dasharray="2 1.5" />
<line x1="176.4684890348304" y1="185.97473806334125" x2="190.36511832267638" y2="174.16635446398945" stroke="#000" stroke-width="0.3" stroke-dasharray="2 1.5" />
<line x1="190.36511832267638" y1="174.16635446398945" x2="189.30256813821921" y2="182.55855345826063" stroke="#000" stroke-width="0.3" stroke-dasharray="2 1.5" />
<line x1="189.30256813821921" y1="182.55855345826063" x2="176.4684890348304" y2="185.97473806334125" stroke="#000" stroke-width="0.3" />
<text x="182.8855285865248" y="184.26664576080094" font-size="3" text-anchor="middle" dominant-baseline="central" fill="#000">67</text>
<line x1="189.30256813821921" y1="182.55855345826063" x2="190.36511832267638" y2="174.16635446398945" stroke="#000" stroke-width="0.3" stroke-dasharray="2 1.5" />
<line x1="190.36511832267638" y1="174.16635446398945" x2="198.43458159269395" y2="191.82199850449783" stroke="#000" stroke-width="0.3" stroke-dasharray="2 1.5" />
<line x1="198.43458159269395" y1="191.82199850449783" x2="189.30256813821921" y2="182.55855345826063" stroke="#000" stroke-width="0.3" />
<text x="193.8685748654566" y="187.19027598137922" font-size="3" text-anchor="middle" dominant-baseline="central" fill="#000">88</text>
<line x1="198.43458159269395" y1="191.82199850449783" x2="190.36511832267638" y2="174.16635446398945" stroke="#000" stroke-width="0.3" stroke-dasharray="2 1.5" />
<line x1="190.36511832267638" y1="174.16635446398945" x2="201.5859444238428" y2="189.04981855443768" stroke="#000" stroke-width="0.3" />
<text x="195.97553137325957" y="181.60808650921356" font-size="3" text-anchor="middle" dominant-baseline="central" fill="#000">76</text>
<line x1="201.5859444238428" y1="189.04981855443768" x2="198.43458159269395" y2="191.82199850449783" stroke="#000" stroke-width="0.3" stroke-dasharray="2 1.5" />
<line x1="197.94641378598092" y1="197.6294435035611" x2="198.43458159269395" y2="191.82199850449783" stroke="#000" stroke-width="0.3" stroke-dasharray="2 1.5" />
<line x1="198.43458159269395" y1="191.82199850449783" x2="201.5859444238428" y2="189.04981855443768" stroke="#000" stroke-width="0.3" stroke-dasharray="2 1.5" />
<line x1="201.5859444238428" y1="189.04981855443768" x2="197.94641378598092" y2="197.6294435035611" stroke="#000" stroke-width="0.3" />
<text x="199.76617910491186" y="193.3396310289994" font-size="3" text-anchor="middle" dominant-baseline="central" fill="#000">77</text>
<line x1="198.43458159269395" y1="191.82199850449783" x2="197.94641378598092" y2="197.6294435035611" stroke="#000" stroke-width="0.3" stroke-dasharray="2 1.5" />
<line x1="197.94641378598092" y1="197.6294435035611" x2="195.06372298542087" y2="197.9840605457076" stroke="#000" stroke-width="0.3" />
<text x="196.5050683857009" y="197.80675202463436" font-size="3" text-anchor="middle" dominant-baseline="central" fill="#000">48</text>
<line x1="195.06372298542087" y1="197.9840605457076" x2="198.43458159269395" y2="191.82199850449783" stroke="#000" stroke-width="0.3" stroke-dasharray="2 1.5" />
<line x1="172.79228558877696" y1="195.07093713231353" x2="198.43458159269395" y2="191.82199850449783" stroke="#000" stroke-width="0.3" stroke-dasharray="2 1.5" />
<line x1="198.43458159269395" y1="191.82199850449783" x2="195.06372298542087" y2="197.9840605457076" stroke="#000" stroke-width="0.3" stroke-dasharray="2 1.5" />
<line x1="195.06372298542087" y1="197.9840605457076" x2="172.79228558877696" y2="195.07093713231353" stroke="#000" stroke-width="0.3" />
<text x="183.92800428709893" y="196.52749883901055" font-size="3" text-anchor="middle" dominant-baseline="central" fill="#000">55</text>
<line x1="198.43458159269395" y1="191.82199850449783" x2="172.79228558877696" y2="195.07093713231353" stroke="#000" stroke-width="0.3" stroke-dasharray="2 1.5" />
<line x1="172.79228558877696" y1="195.07093713231353" x2="173.6645911997567" y2="191.5042604596585" stroke="#000" stroke-width="0.3" />
<text x="173.22843839426685" y="193.287598795986" font-size="3" text-anchor="middle" dominant-baseline="central" fill="#000">81</text>
<line x1="173.6645911997567" y1="191.5042604596585" x2="198.43458159269395" y2="191.82199850449783" stroke="#000" stroke-width="0.3" />
<text x="186.04958639622532" y="191.66312948207815" font-size="3" text-anchor="middle" dominant-baseline="central" fill="#000">68</text>
<line x1="15.467827310823214" y1="224.7972135277224" x2="19.699592517526632" y2="224.7972135277224" stroke="#000" stroke-width="0.3" stroke-dasharray="2 1.5" />
<line x1="19.699592517526632" y1="224.7972135277224" x2="17.583709914186464" y2="239.78920843188246" stroke="#000" stroke-width="0.3" />
<polygon points="19.699592517526632,224.7972135277224 17.583709914186464,239.78920843188246 24.109478526685532,236.8875627471785 25.16741982835562,229.39156529509847" fill="none" stroke="#666" stroke-width="0.2" />
<text x="16.859314737700437" y="232.0416624186178" font-size="3" text-anchor="middle" dominant-baseline="central" fill="#000">1</text>
<line x1="17.583709914186464" y1="239.78920843188246" x2="15.467827310823214" y2="224.7972135277224" stroke="#000" stroke-width="0.3" />
<polygon points="17.583709914186464,239.78920843188246 15.467827310823214,224.7972135277224 10,229.39156529510768 11.057941301681625,236.88756274718773" fill="none" stroke="#666" stroke-width="0.2" />
<text x="18.308105090660575" y="232.04166241861512" font-size="3" text-anchor="middle" dominant-baseline="central" fill="#000">2</text>
<line x1="19.699592517526632" y1="224.7972135277224" x2="13.645278260708658" y2="217.9953595985583" stroke="#000" stroke-width="0.3" stroke-dasharray="2 1.5" />
<line x1="13.645278260708658" y1="217.9953595985583" x2="21.522141567641192" y2="217.9953595985583" stroke="#000" stroke-width="0.3" />
<text x="17.583709914174925" y="217.9953595985583" font-size="3" text-anchor="middle" dominant-baseline="central" fill="#000">93</text>
<line x1="21.522141567641192" y1="217.9953595985583" x2="19.699592517526632" y2="224.7972135277224" stroke="#000" stroke-width="0.3" />
<polygon points="21.522141567641192,217.9953595985583 19.699592517526632,224.7972135277224 22.8759713517209,223.8257696654772 23.78724587677818,220.42484270089514" fill="none" stroke="#666" stroke-width="0.2" />
<text x="18.872200413572884" y="220.93041281075304" font-size="3" text-anchor="middle" dominant-baseline="central" fill="#000">52</text>
<line x1="13.645278260708658" y1="217.9953595985583" x2="19.699592517526632" y2="224.7972135277224" stroke="#000" stroke-width="0.3" stroke-dasharray="2 1.5" />
<line x1="19.699592517526632" y1="224.7972135277224" x2="15.467827310823214" y2="224.7972135277224" stroke="#000" stroke-width="0.3" stroke-dasharray="2 1.5" />
<line x1="15.467827310823214" y1="224.7972135277224" x2="13.645278260708658" y2="217.9953595985583" stroke="#000" stroke-width="0.3" />
<polygon points="15.467827310823214,224.7972135277224 13.645278260708658,217.9953595985583 11.380173951571667,220.42484270089514 12.291448476628947,223.8257696654772" fill="none" stroke="#666" stroke-width="0.2" />
<text x="16.295219414776962" y="220.93041281075304" font-size="3" text-anchor="middle" dominant-baseline="central" fill="#000">53</text>
<line x1="43.48540085327559" y1="226.98965411293005" x2="31.40906491995962" y2="225.89639574032583" stroke="#000" stroke-width="0.3" stroke-dasharray="2 1.5" />
<line x1="31.40906491995962" y1="225.89639574032583" x2="37.82397323076251" y2="218.78296531706403" stroke="#000" stroke-width="0.3" />
<polygon points="31.40906491995962,225.89639574032583 37.82397323076251,218.78296531706403 33.37487398375706,217.9953595985583 30.16741982835562,221.5520748101892" fill="none" stroke="#666" stroke-width="0.2" />
<text x="35.95324989987116" y="223.54514753479862" font-size="3" text-anchor="middle" dominant-baseline="central" fill="#000">23</text>
<line x1="37.82397323076251" y1="218.78296531706403" x2="43.48540085327559" y2="226.98965411293005" stroke="#000" stroke-width="0.3" />
<polygon points="37.82397323076251,218.78296531706403 43.48540085327559,226.98965411293005 45.35271946599374,222.67341086495833 42.5220056547372,218.5700664670253" fill="none" stroke="#666" stroke-width="0.2" />
<text x="39.173042611393" y="223.90842995312696" font-size="3" text-anchor="middle" dominant-baseline="central" fill="#000">94</text>
<line x1="31.40906491995962" y1="225.89639574032583" x2="43.48540085327559" y2="226.98965411293005" stroke="#000" stroke-width="0.3" stroke-dasharray="2 1.5" />
<line x1="43.48540085327559" y1="226.98965411293005" x2="35.81404813072791" y2="232.28177238808266" stroke="#000" stroke-width="0.3" />
<polygon points="43.48540085327559,226.98965411293005 35.81404813072791,232.28177238808266 39.84873362142587,234.0272839083136 43.684409982699705,231.38122477073728" fill="none" stroke="#666" stroke-width="0.2" />
<text x="38.627604898886865" y="228.15406837491346" font-size="3" text-anchor="middle" dominant-baseline="central" fill="#000">24</text>
<line x1="35.81404813072791" y1="232.28177238808266" x2="31.40906491995962" y2="225.89639574032583" stroke="#000" stroke-width="0.3" />
<text x="33.611556525343765" y="229.08908406420426" font-size="3" text-anchor="middle" dominant-baseline="central" fill="#000">21</text>
<line x1="60.43179309266359" y1="217.9953595985583" x2="54.77036547015047" y2="226.20204839442434" stroke="#000" stroke-width="0.3" stroke-dasharray="2 1.5" />
<line x1="54.77036547015047" y1="226.20204839442434" x2="50.46441579157256" y2="223.23158903136607" stroke="#000" stroke-width="0.3" />
<polygon points="54.77036547015047,226.20204839442434 50.46441579157256,223.23158903136607 50.35271946599374,225.6965837435618 52.50569430528269,227.18181342509092" fill="none" stroke="#666" stroke-width="0.2" />
<text x="53.63950556002483" y="223.2351706198645" font-size="3" text-anchor="middle" dominant-baseline="central" fill="#000">54</text>
<line x1="50.46441579157256" y1="223.23158903136607" x2="60.43179309266359" y2="217.9953595985583" stroke="#000" stroke-width="0.3" />
<text x="55.44810444211808" y="220.6134743149622" font-size="3" text-anchor="middle" dominant-baseline="central" fill="#000">87</text>
<line x1="66.84670140346645" y1="225.10879002182014" x2="54.77036547015047" y2="226.20204839442434" stroke="#000" stroke-width="0.3" stroke-dasharray="2 1.5" />
<line x1="54.77036547015047" y1="226.20204839442434" x2="60.43179309266359" y2="217.9953595985583" stroke="#000" stroke-width="0.3" stroke-dasharray="2 1.5" />
<line x1="60.43179309266359" y1="217.9953595985583" x2="66.84670140346645" y2="225.10879002182014" stroke="#000" stroke-width="0.3" />
<text x="63.63924724806502" y="221.55207481018923" font-size="3" text-anchor="middle" dominant-baseline="central" fill="#000">7</text>
<line x1="54.77036547015047" y1="226.20204839442434" x2="66.84670140346645" y2="225.10879002182014" stroke="#000" stroke-width="0.3" stroke-dasharray="2 1.5" />
<line x1="66.84670140346645" y1="225.10879002182014" x2="62.44171819269812" y2="231.49416666957697" stroke="#000" stroke-width="0.3" />
<polygon points="66.84670140346645,225.10879002182014 62.44171819269812,231.49416666957697 66.09711465449294,231.65981579194508 68.2996062598771,228.46712746806668" fill="none" stroke="#666" stroke-width="0.2" />
<text x="63.1625650850105" y="227.27935851699627" font-size="3" text-anchor="middle" dominant-baseline="central" fill="#000">72</text>
<line x1="62.44171819269812" y1="231.49416666957697" x2="54.77036547015047" y2="226.20204839442434" stroke="#000" stroke-width="0.3" />
<polygon points="62.44171819269812,231.49416666957697 54.77036547015047,226.20204839442434 54.57135634072633,230.59361905223156 58.40703270200016,233.23967818980788" fill="none" stroke="#666" stroke-width="0.2" />
<text x="59.62816142453919" y="227.36646265640778" font-size="3" text-anchor="middle" dominant-baseline="central" fill="#000">73</text>
</svg>