<svg xmlns="http://www.w3.org/2000/svg" width="215.9mm" height="279.4mm" viewBox="0 0 215.9 279.4">
<rect x="0" y="0" width="215.9" height="279.4" fill="none" stroke="#ccc" stroke-width="0.15" />
<line x1="103.19079256191475" y1="39.983991013265374" x2="107.4225577686297" y2="10" stroke="#000" stroke-width="0.3" />
<polygon points="103.19079256191475,39.983991013265374 107.4225577686297,10 94.37102006164481,15.803291670630351 92.25513745828734,30.79528717726305" fill="none" stroke="#666" stroke-width="0.2" />
<text x="107.08901164482688" y="25.24354405790798" font-size="3" text-anchor="middle" dominant-baseline="central" fill="#000">3</text>
<line x1="107.4225577686297" y1="10" x2="111.65432297532159" y2="39.983991013265374" stroke="#000" stroke-width="0.3" />
<polygon points="107.4225577686297,10 111.65432297532159,39.983991013265374 122.58997807895476,30.79528717727228 120.47409547560883,15.803291670639581" fill="none" stroke="#666" stroke-width="0.2" />
<text x="107.75610389242078" y="25.243544057906632" font-size="3" text-anchor="middle" dominant-baseline="central" fill="#000">4</text>
<line x1="111.65432297532159" y1="39.983991013265374" x2="103.19079256191475" y2="39.983991013265374" stroke="#000" stroke-width="0.3" stroke-dasharray="2 1.5" />
<line x1="122.23373401740825" y1="116.54629345694437" x2="90.49549891647634" y2="101.55429855278432" stroke="#000" stroke-width="0.3" stroke-dasharray="2 1.5" />
<line x1="90.49549891647634" y1="101.55429855278432" x2="124.34961662075997" y2="101.55429855278432" stroke="#000" stroke-width="0.3" stroke-dasharray="2 1.5" />
<line x1="124.34961662075997" y1="101.55429855278432" x2="122.23373401740825" y2="116.54629345694437" stroke="#000" stroke-width="0.3" />
<polygon points="124.34961662075997,101.55429855278432 122.23373401740825,116.54629345694437 128.75950262991023,113.64464777224507 129.81744393158607,106.14865032016502" fill="none" stroke="#666" stroke-width="0.2" />
<text x="121.50933884092818" y="108.79874744367835" font-size="3" text-anchor="middle" dominant-baseline="central" fill="#000">18</text>
<line x1="90.49549891647634" y1="101.55429855278432" x2="122.23373401740825" y2="116.54629345694437" stroke="#000" stroke-width="0.3" stroke-dasharray="2 1.5" />
<line x1="122.23373401740825" y1="116.54629345694437" x2="92.61138151982803" y2="116.54629345694437" stroke="#000" stroke-width="0.3" stroke-dasharray="2 1.5" />
<line x1="92.61138151982803" y1="116.54629345694437" x2="90.49549891647634" y2="101.55429855278432" stroke="#000" stroke-width="0.3" />
<polygon points="92.61138151982803,116.54629345694437 90.49549891647634,101.55429855278432 85.02767160565024,106.148650320165 86.08561290732608,113.64464777224502" fill="none" stroke="#666" stroke-width="0.2" />
<text x="93.33577669630812" y="108.79874744367837" font-size="3" text-anchor="middle" dominant-baseline="central" fill="#000">19</text>
<line x1="204.44709440575872" y1="113.89603740705097" x2="182.18653344099582" y2="114.45226582147541" stroke="#000" stroke-width="0.3" stroke-dasharray="2 1.5" />
<line x1="182.18653344099582" y1="114.45226582147541" x2="200.04211259786524" y2="107.51065979151436" stroke="#000" stroke-width="0.3" />
<polygon points="182.18653344099582,114.45226582147541 200.04211259786524,107.51065979151436 192.80157539666345,102.10382963625686 183.87378581822875,105.57463265123738" fill="none" stroke="#666" stroke-width="0.2" />
<text x="191.76654425852462" y="112.6591419937278" font-size="3" text-anchor="middle" dominant-baseline="central" fill="#000">20</text>
<line x1="200.04211259786524" y1="107.51065979151436" x2="204.44709440575872" y2="113.89603740705097" stroke="#000" stroke-width="0.3" />
<polygon points="200.04211259786524,107.51065979151436 204.44709440575872,113.89603740705097 205.9,110.5377002800094 203.69750909605327,107.3450114722411" fill="none" stroke="#666" stroke-width="0.2" />
<text x="200.7629585641793" y="111.72546810246587" font-size="3" text-anchor="middle" dominant-baseline="central" fill="#000">21</text>
<line x1="182.18653344099582" y1="114.45226582147541" x2="204.44709440575872" y2="113.89603740705097" stroke="#000" stroke-width="0.3" stroke-dasharray="2 1.5" />
<line x1="204.44709440575872" y1="113.89603740705097" x2="189.10440698375052" y2="124.48026987449991" stroke="#000" stroke-width="0.3" />
<polygon points="204.44709440575872,113.89603740705097 189.10440698375052,124.48026987449991 197.17377182623216,127.97128672644097 204.84511553723624,122.6791704927165" fill="none" stroke="#666" stroke-width="0.2" />
<text x="195.75363055525838" y="117.7065091421064" font-size="3" text-anchor="middle" dominant-baseline="central" fill="#000">22</text>
<line x1="189.10440698375052" y1="124.48026987449991" x2="182.18653344099582" y2="114.45226582147541" stroke="#000" stroke-width="0.3" stroke-dasharray="2 1.5" />
<line x1="143.96249128767005" y1="124.69284700674392" x2="150.74764791755518" y2="150.9408492251382" stroke="#000" stroke-width="0.3" stroke-dasharray="2 1.5" />
<line x1="150.74764791755518" y1="150.9408492251382" x2="137.54757878172825" y2="131.80627312267552" stroke="#000" stroke-width="0.3" stroke-dasharray="2 1.5" />
<line x1="137.54757878172825" y1="131.80627312267552" x2="143.96249128767005" y2="124.69284700674392" stroke="#000" stroke-width="0.3" />
<text x="140.75503503469915" y="128.24956006470973" font-size="3" text-anchor="middle" dominant-baseline="central" fill="#000">27</text>
<line x1="150.74764791755518" y1="150.9408492251382" x2="143.96249128767005" y2="124.69284700674392" stroke="#000" stroke-width="0.3" stroke-dasharray="2 1.5" />
<line x1="143.96249128767005" y1="124.69284700674392" x2="158.4190033693865" y2="145.64873688097785" stroke="#000" stroke-width="0.3" stroke-dasharray="2 1.5" />
<line x1="158.4190033693865" y1="145.64873688097785" x2="150.74764791755518" y2="150.9408492251382" stroke="#000" stroke-width="0.3" />
<text x="154.58332564347086" y="148.29479305305802" font-size="3" text-anchor="middle" dominant-baseline="central" fill="#000">39</text>
<line x1="161.81806971664375" y1="117.75125338550025" x2="158.4190033693865" y2="145.64873688097785" stroke="#000" stroke-width="0.3" stroke-dasharray="2 1.5" />
<line x1="158.4190033693865" y1="145.64873688097785" x2="143.96249128767005" y2="124.69284700674392" stroke="#000" stroke-width="0.3" stroke-dasharray="2 1.5" />
<line x1="143.96249128767005" y1="124.69284700674392" x2="161.81806971664375" y2="117.75125338550025" stroke="#000" stroke-width="0.3" />
<text x="152.89028050215688" y="121.22205019612208" font-size="3" text-anchor="middle" dominant-baseline="central" fill="#000">90</text>
<line x1="158.4190033693865" y1="145.64873688097785" x2="161.81806971664375" y2="117.75125338550025" stroke="#000" stroke-width="0.3" stroke-dasharray="2 1.5" />
<line x1="161.81806971664375" y1="117.75125338550025" x2="173.76169943072415" y2="135.0644976880224" stroke="#000" stroke-width="0.3" stroke-dasharray="2 1.5" />
<line x1="173.76169943072415" y1="135.0644976880224" x2="158.4190033693865" y2="145.64873688097785" stroke="#000" stroke-width="0.3" />
<text x="166.09035140005534" y="140.35661728450015" font-size="3" text-anchor="middle" dominant-baseline="central" fill="#000">38</text>
<line x1="173.76169943072415" y1="135.0644976880224" x2="182.18653344099582" y2="114.45226582147541" stroke="#000" stroke-width="0.3" stroke-dasharray="2 1.5" />
<line x1="182.18653344099582" y1="114.45226582147541" x2="189.10440698375052" y2="124.48026987449991" stroke="#000" stroke-width="0.3" stroke-dasharray="2 1.5" />
<line x1="189.10440698375052" y1="124.48026987449991" x2="173.76169943072415" y2="135.0644976880224" stroke="#000" stroke-width="0.3" />
<text x="181.43305320723732" y="129.77238378126117" font-size="3" text-anchor="middle" dominant-baseline="central" fill="#000">37</text>
<line x1="182.18653344099582" y1="114.45226582147541" x2="173.76169943072415" y2="135.0644976880224" stroke="#000" stroke-width="0.3" stroke-dasharray="2 1.5" />
<line x1="173.76169943072415" y1="135.0644976880224" x2="161.81806971664375" y2="117.75125338550025" stroke="#000" stroke-width="0.3" stroke-dasharray="2 1.5" />
<line x1="161.81806971664375" y1="117.75125338550025" x2="182.18653344099582" y2="114.45226582147541" stroke="#000" stroke-width="0.3" />
<text x="172.00230157881978" y="116.10175960348784" font-size="3" text-anchor="middle" dominant-baseline="central" fill="#000">29</text>
<line x1="148.35691271476406" y1="152.59010502347564" x2="111.36098942208426" y2="157.12392590895567" stroke="#000" stroke-width="0.3" />
<text x="129.85895106842418" y="154.85701546621567" font-size="3" text-anchor="middle" dominant-baseline="central" fill="#000">83</text>
<line x1="111.36098942208426" y1="157.12392590895567" x2="66.48820282247195" y2="152.59010502347545" stroke="#000" stroke-width="0.3" stroke-dasharray="2 1.5" />
<line x1="66.48820282247195" y1="152.59010502347545" x2="148.35691271476406" y2="152.59010502347564" stroke="#000" stroke-width="0.3" stroke-dasharray="2 1.5" />
<line x1="148.35691271476406" y1="152.59010502347564" x2="66.48820282247195" y2="152.59010502347545" stroke="#000" stroke-width="0.3" stroke-dasharray="2 1.5" />
<line x1="66.48820282247195" y1="152.59010502347545" x2="64.09746761968086" y2="150.94084922513787" stroke="#000" stroke-width="0.3" />
<polygon points="66.48820282247195,152.59010502347545 64.09746761968086,150.94084922513787 64.0354491010436,152.3094572558387 65.23081670243914,153.13408515500748" fill="none" stroke="#666" stroke-width="0.2" />
<text x="66.314953144755" y="150.28383109704677" font-size="3" text-anchor="middle" dominant-baseline="central" fill="#000">48</text>
<line x1="64.09746761968086" y1="150.94084922513787" x2="148.35691271476406" y2="152.59010502347564" stroke="#000" stroke-width="0.3" stroke-dasharray="2 1.5" />
<line x1="148.35691271476406" y1="152.59010502347564" x2="64.09746761968086" y2="150.94084922513787" stroke="#000" stroke-width="0.3" stroke-dasharray="2 1.5" />
<line x1="64.09746761968086" y1="150.94084922513787" x2="150.74764791755518" y2="150.9408492251382" stroke="#000" stroke-width="0.3" stroke-dasharray="2 1.5" />
<line x1="150.74764791755518" y1="150.9408492251382" x2="148.35691271476406" y2="152.59010502347564" stroke="#000" stroke-width="0.3" />
<text x="149.55228031615962" y="151.76547712430693" font-size="3" text-anchor="middle" dominant-baseline="central" fill="#000">40</text>
<line x1="150.74764791755518" y1="150.9408492251382" x2="64.09746761968086" y2="150.94084922513787" stroke="#000" stroke-width="0.3" stroke-dasharray="2 1.5" />
<line x1="64.09746761968086" y1="150.94084922513787" x2="77.29753675550793" y2="131.8062731226753" stroke="#000" stroke-width="0.3" stroke-dasharray="2 1.5" />
<line x1="77.29753675550793" y1="131.8062731226753" x2="150.74764791755518" y2="150.9408492251382" stroke="#000" stroke-width="0.3" stroke-dasharray="2 1.5" />
<line x1="150.74764791755518" y1="150.9408492251382" x2="77.29753675550793" y2="131.8062731226753" stroke="#000" stroke-width="0.3" stroke-dasharray="2 1.5" />
<line x1="77.29753675550793" y1="131.8062731226753" x2="137.54757878172825" y2="131.80627312267552" stroke="#000" stroke-width="0.3" stroke-dasharray="2 1.5" />
<line x1="137.54757878172825" y1="131.80627312267552" x2="150.74764791755518" y2="150.9408492251382" stroke="#000" stroke-width="0.3" stroke-dasharray="2 1.5" />
<line x1="137.54757878172825" y1="131.80627312267552" x2="77.29753675550793" y2="131.8062731226753" stroke="#000" stroke-width="0.3" stroke-dasharray="2 1.5" />
<line x1="77.29753675550793" y1="131.8062731226753" x2="76.16772825936775" y2="129.84938912161442" stroke="#000" stroke-width="0.3" />
<text x="76.73263250743784" y="130.82783112214486" font-size="3" text-anchor="middle" dominant-baseline="central" fill="#000">15</text>
<line x1="76.16772825936775" y1="129.84938912161442" x2="137.54757878172825" y2="131.80627312267552" stroke="#000" stroke-width="0.3" stroke-dasharray="2 1.5" />
<line x1="137.54757878172825" y1="131.80627312267552" x2="76.16772825936775" y2="129.84938912161442" stroke="#000" stroke-width="0.3" stroke-dasharray="2 1.5" />
<line x1="76.16772825936775" y1="129.84938912161442" x2="138.67738727786846" y2="129.8493891216146" stroke="#000" stroke-width="0.3" stroke-dasharray="2 1.5" />
<line x1="138.67738727786846" y1="129.8493891216146" x2="137.54757878172825" y2="131.80627312267552" stroke="#000" stroke-width="0.3" />
<text x="138.11248302979834" y="130.82783112214506" font-size="3" text-anchor="middle" dominant-baseline="central" fill="#000">25</text>
<line x1="138.67738727786846" y1="129.8493891216146" x2="76.16772825936775" y2="129.84938912161442" stroke="#000" stroke-width="0.3" stroke-dasharray="2 1.5" />
<line x1="76.16772825936775" y1="129.84938912161442" x2="93.49534139658878" y2="119.84527897486204" stroke="#000" stroke-width="0.3" />
<polygon points="76.16772825936775,129.84938912161442 93.49534139658878,119.84527897486204 85.16179405358257,115.41526125666172 76.49798748497204,120.4173163300379" fill="none" stroke="#666" stroke-width="0.2" />
<text x="85.73153537029121" y="126.40617946194556" font-size="3" text-anchor="middle" dominant-baseline="central" fill="#000">49</text>
<line x1="93.49534139658878" y1="119.84527897486204" x2="138.67738727786846" y2="129.8493891216146" stroke="#000" stroke-width="0.3" stroke-dasharray="2 1.5" />
<line x1="138.67738727786846" y1="129.8493891216146" x2="93.49534139658878" y2="119.84527897486204" stroke="#000" stroke-width="0.3" stroke-dasharray="2 1.5" />
<line x1="93.49534139658878" y1="119.84527897486204" x2="121.3497741406475" y2="119.84527897486208" stroke="#000" stroke-width="0.3" stroke-dasharray="2 1.5" />
<line x1="121.3497741406475" y1="119.84527897486208" x2="138.67738727786846" y2="129.8493891216146" stroke="#000" stroke-width="0.3" />
<text x="130.01358070925798" y="124.84733404823834" font-size="3" text-anchor="middle" dominant-baseline="central" fill="#000">41</text>
<line x1="121.3497741406475" y1="119.84527897486208" x2="93.49534139658878" y2="119.84527897486204" stroke="#000" stroke-width="0.3" stroke-dasharray="2 1.5" />
<line x1="93.49534139658878" y1="119.84527897486204" x2="92.61138151982803" y2="116.54629345694437" stroke="#000" stroke-width="0.3" />
<polygon points="93.49534139658878,119.84527897486204 92.61138151982803,116.54629345694437 91.51277728185114,117.72462378712808 91.95475722023153,119.37411654608692" fill="none" stroke="#666" stroke-width="0.2" />
<text x="94.79202802835252" y="117.72991224382142" font-size="3" text-anchor="middle" dominant-baseline="central" fill="#000">50</text>
<line x1="92.61138151982803" y1="116.54629345694437" x2="121.3497741406475" y2="119.84527897486208" stroke="#000" stroke-width="0.3" stroke-dasharray="2 1.5" />
<line x1="121.3497741406475" y1="119.84527897486208" x2="92.61138151982803" y2="116.54629345694437" stroke="#000" stroke-width="0.3" stroke-dasharray="2 1.5" />
<line x1="92.61138151982803" y1="116.54629345694437" x2="122.23373401740825" y2="116.54629345694437" stroke="#000" stroke-width="0.3" stroke-dasharray="2 1.5" />
<line x1="122.23373401740825" y1="116.54629345694437" x2="121.3497741406475" y2="119.84527897486208" stroke="#000" stroke-width="0.3" />
<polygon points="122.23373401740825,116.54629345694437 121.3497741406475,119.84527897486208 122.89035831700477,119.37411654608697 123.33233825538515,117.72462378712811" fill="none" stroke="#666" stroke-width="0.2" />
<text x="120.05308750888375" y="117.72991224382143" font-size="3" text-anchor="middle" dominant-baseline="central" fill="#000">51</text>
<line x1="103.48412611515172" y1="157.12392590895567" x2="66.48820282247195" y2="152.59010502347545" stroke="#000" stroke-width="0.3" stroke-dasharray="2 1.5" />
<line x1="66.48820282247195" y1="152.59010502347545" x2="111.36098942208426" y2="157.12392590895567" stroke="#000" stroke-width="0.3" stroke-dasharray="2 1.5" />
<line x1="111.36098942208426" y1="157.12392590895567" x2="103.48412611515172" y2="157.12392590895567" stroke="#000" stroke-width="0.3" />
<polygon points="111.36098942208426,157.12392590895567 103.48412611515172,157.12392590895567 105.45334194188486,160.2746712317287 109.39177359535113,160.2746712317287" fill="none" stroke="#666" stroke-width="0.2" />
<text x="107.42255776861799" y="155.32392590895566" font-size="3" text-anchor="middle" dominant-baseline="central" fill="#000">93</text>
<line x1="92.77294522084543" y1="158.61048454463648" x2="66.48820282247195" y2="152.59010502347545" stroke="#000" stroke-width="0.3" stroke-dasharray="2 1.5" />
<line x1="66.48820282247195" y1="152.59010502347545" x2="103.48412611515172" y2="157.12392590895567" stroke="#000" stroke-width="0.3" stroke-dasharray="2 1.5" />
<line x1="103.48412611515172" y1="157.12392590895567" x2="92.77294522084543" y2="158.61048454463648" stroke="#000" stroke-width="0.3" stroke-dasharray="2 1.5" />
<line x1="103.48412611515172" y1="157.12392590895567" x2="94.80704284039108" y2="162.13364270909065" stroke="#000" stroke-width="0.3" stroke-dasharray="2 1.5" />
<line x1="94.80704284039108" y1="162.13364270909065" x2="92.77294522084543" y2="158.61048454463648" stroke="#000" stroke-width="0.3" />
<text x="93.78999403061826" y="160.37206362686356" font-size="3" text-anchor="middle" dominant-baseline="central" fill="#000">5</text>
<line x1="92.77294522084543" y1="158.61048454463648" x2="103.48412611515172" y2="157.12392590895567" stroke="#000" stroke-width="0.3" stroke-dasharray="2 1.5" />
<line x1="82.80556791975441" y1="163.84671397744424" x2="66.48820282247195" y2="152.59010502347545" stroke="#000" stroke-width="0.3" stroke-dasharray="2 1.5" />
<line x1="66.48820282247195" y1="152.59010502347545" x2="92.77294522084543" y2="158.61048454463648" stroke="#000" stroke-width="0.3" stroke-dasharray="2 1.5" />
<line x1="92.77294522084543" y1="158.61048454463648" x2="82.80556791975441" y2="163.84671397744424" stroke="#000" stroke-width="0.3" />
<polygon points="92.77294522084543,158.61048454463648 82.80556791975441,163.84671397744424 87.39190401815026,166.52460753967873 92.37559266869576,163.90649282327485" fill="none" stroke="#666" stroke-width="0.2" />
<text x="86.95213493785744" y="159.63510392923143" font-size="3" text-anchor="middle" dominant-baseline="central" fill="#000">87</text>
<line x1="82.80556791975441" y1="163.84671397744424" x2="67.9609525779403" y2="175.00291876677997" stroke="#000" stroke-width="0.3" stroke-dasharray="2 1.5" />
<line x1="67.9609525779403" y1="175.00291876677997" x2="66.48820282247195" y2="152.59010502347545" stroke="#000" stroke-width="0.3" />
<polygon points="67.9609525779403,175.00291876677997 66.48820282247195,152.59010502347545 57.89126476401722,158.7824083614889 58.62763964175141,169.9888152331412" fill="none" stroke="#666" stroke-width="0.2" />
<text x="69.02070419598509" y="163.6784881214175" font-size="3" text-anchor="middle" dominant-baseline="central" fill="#000">55</text>
<line x1="66.48820282247195" y1="152.59010502347545" x2="82.80556791975441" y2="163.84671397744424" stroke="#000" stroke-width="0.3" stroke-dasharray="2 1.5" />
<line x1="67.9609525779403" y1="175.00291876677997" x2="82.80556791975441" y2="163.84671397744424" stroke="#000" stroke-width="0.3" stroke-dasharray="2 1.5" />
<line x1="82.80556791975441" y1="163.84671397744424" x2="78.84372455689326" y2="176.70710006248729" stroke="#000" stroke-width="0.3" stroke-dasharray="2 1.5" />
<line x1="78.84372455689326" y1="176.70710006248729" x2="67.9609525779403" y2="175.00291876677997" stroke="#000" stroke-width="0.3" />
<polygon points="78.84372455689326,176.70710006248729 67.9609525779403,175.00291876677997 69.99997305439561,179.78207288228796 75.4413590438721,180.63416353014162" fill="none" stroke="#666" stroke-width="0.2" />
<text x="73.68081481972645" y="174.07668127368225" font-size="3" text-anchor="middle" dominant-baseline="central" fill="#000">56</text>
<line x1="111.65432297532159" y1="39.983991013265374" x2="94.72726412317976" y2="71.57031065981462" stroke="#000" stroke-width="0.3" stroke-dasharray="2 1.5" />
<line x1="94.72726412317976" y1="71.57031065981462" x2="103.19079256191475" y2="39.983991013265374" stroke="#000" stroke-width="0.3" />
<polygon points="94.72726412317976,71.57031065981462 103.19079256191475,39.983991013265374 88.4403825936113,44.49515954940869 84.20861837424381,60.28831937268331" fill="none" stroke="#666" stroke-width="0.2" />
<text x="100.6976948354055" y="56.24302509705674" font-size="3" text-anchor="middle" dominant-baseline="central" fill="#000">58</text>
<line x1="103.19079256191475" y1="39.983991013265374" x2="111.65432297532159" y2="39.983991013265374" stroke="#000" stroke-width="0.3" stroke-dasharray="2 1.5" />
<line x1="94.72726412317976" y1="71.57031065981462" x2="111.65432297532159" y2="39.983991013265374" stroke="#000" stroke-width="0.3" stroke-dasharray="2 1.5" />
<line x1="111.65432297532159" y1="39.983991013265374" x2="120.11785141405656" y2="71.57031065981462" stroke="#000" stroke-width="0.3" />
<polygon points="111.65432297532159,39.983991013265374 120.11785141405656,71.57031065981462 130.6364971629925,60.28831937268331 126.40473294362502,44.49515954940869" fill="none" stroke="#666" stroke-width="0.2" />
<text x="114.14742070183084" y="56.24302509705674" font-size="3" text-anchor="middle" dominant-baseline="central" fill="#000">59</text>
<line x1="120.11785141405656" y1="71.57031065981462" x2="94.72726412317976" y2="71.57031065981462" stroke="#000" stroke-width="0.3" stroke-dasharray="2 1.5" />
<line x1="90.49549891647634" y1="101.55429855278432" x2="120.11785141405656" y2="71.57031065981462" stroke="#000" stroke-width="0.3" stroke-dasharray="2 1.5" />
<line x1="120.11785141405656" y1="71.57031065981462" x2="124.34961662075997" y2="101.55429855278432" stroke="#000" stroke-width="0.3" />
<polygon points="120.11785141405656,71.57031065981462 124.34961662075997,101.55429855278432 135.285270476272,92.36559549686052 133.1693878729203,77.37360155037568" fill="none" stroke="#666" stroke-width="0.2" />
<text x="120.4513975414759" y="86.81385318324035" font-size="3" text-anchor="middle" dominant-baseline="central" fill="#000">61</text>
<line x1="124.34961662075997" y1="101.55429855278432" x2="90.49549891647634" y2="101.55429855278432" stroke="#000" stroke-width="0.3" stroke-dasharray="2 1.5" />
<line x1="120.11785141405656" y1="71.57031065981462" x2="90.49549891647634" y2="101.55429855278432" stroke="#000" stroke-width="0.3" stroke-dasharray="2 1.5" />
<line x1="90.49549891647634" y1="101.55429855278432" x2="94.72726412317976" y2="71.57031065981462" stroke="#000" stroke-width="0.3" />
<polygon points="90.49549891647634,101.55429855278432 94.72726412317976,71.57031065981462 81.67572766431603,77.37360155037567 79.5598450609643,92.36559549686052" fill="none" stroke="#666" stroke-width="0.2" />
<text x="94.39371799576043" y="86.81385318324035" font-size="3" text-anchor="middle" dominant-baseline="central" fill="#000">62</text>
<line x1="94.72726412317976" y1="71.57031065981462" x2="120.11785141405656" y2="71.57031065981462" stroke="#000" stroke-width="0.3" stroke-dasharray="2 1.5" />
<line x1="87.49429051595969" y1="166.13367039057687" x2="89.09883423926706" y2="180.58996607069017" stroke="#000" stroke-width="0.3" stroke-dasharray="2 1.5" />
<line x1="89.09883423926706" y1="180.58996607069017" x2="82.42110011071641" y2="177.5344353712449" stroke="#000" stroke-width="0.3" />
<polygon points="89.09883423926706,180.58996607069017 82.42110011071641,177.5344353712449 82.86832136307596,180.96941169752648 86.2071884273513,182.49717704724912" fill="none" stroke="#666" stroke-width="0.2" />
<text x="86.50891296714519" y="177.42541111921184" font-size="3" text-anchor="middle" dominant-baseline="central" fill="#000">63</text>
<line x1="82.42110011071641" y1="177.5344353712449" x2="87.49429051595969" y2="166.13367039057687" stroke="#000" stroke-width="0.3" stroke-dasharray="2 1.5" />
<line x1="89.09883423926706" y1="180.58996607069017" x2="87.49429051595969" y2="166.13367039057687" stroke="#000" stroke-width="0.3" stroke-dasharray="2 1.5" />
<line x1="87.49429051595969" y1="166.13367039057687" x2="98.42526549427008" y2="168.43578157572875" stroke="#000" stroke-width="0.3" />
<polygon points="87.49429051595969,166.13367039057687 98.42526549427008,168.43578157572875 96.61336622375325,163.48786378811664 91.14787873459805,162.3368081955407" fill="none" stroke="#666" stroke-width="0.2" />
<text x="92.58882747999203" y="169.0460878732569" font-size="3" text-anchor="middle" dominant-baseline="central" fill="#000">64</text>
<line x1="98.42526549427008" y1="168.43578157572875" x2="89.09883423926706" y2="180.58996607069017" stroke="#000" stroke-width="0.3" stroke-dasharray="2 1.5" />
<line x1="157.06817759435296" y1="226.62703955371853" x2="125.87259044195667" y2="215.9407130611517" stroke="#000" stroke-width="0.3" stroke-dasharray="2 1.5" />
<line x1="125.87259044195667" y1="215.9407130611517" x2="141.75845052723878" y2="206.76900801376027" stroke="#000" stroke-width="0.3" stroke-dasharray="2 1.5" />
<line x1="141.75845052723878" y1="206.76900801376027" x2="157.06817759435296" y2="226.62703955371853" stroke="#000" stroke-width="0.3" />
<polygon points="141.75845052723878,206.76900801376027 157.06817759435296,226.62703955371853 161.1839584435577,215.53864084188328 153.52909491000062,205.60962507190416" fill="none" stroke="#666" stroke-width="0.2" />
<text x="147.98778229326405" y="217.79705025282814" font-size="3" text-anchor="middle" dominant-baseline="central" fill="#000">65</text>
<line x1="125.87259044195667" y1="215.9407130611517" x2="157.06817759435296" y2="226.62703955371853" stroke="#000" stroke-width="0.3" stroke-dasharray="2 1.5" />
<line x1="157.06817759435296" y1="226.62703955371853" x2="138.29880269322837" y2="237.46354115582977" stroke="#000" stroke-width="0.3" stroke-dasharray="2 1.5" />
<line x1="138.29880269322837" y1="237.46354115582977" x2="125.87259044195667" y2="215.9407130611517" stroke="#000" stroke-width="0.3" />
<text x="132.08569656759252" y="226.70212710849074" font-size="3" text-anchor="middle" dominant-baseline="central" fill="#000">12</text>
<line x1="101.0201509674543" y1="172.89506053758436" x2="103.48412611515172" y2="157.12392590895567" stroke="#000" stroke-width="0.3" stroke-dasharray="2 1.5" />
<line x1="103.48412611515172" y1="157.12392590895567" x2="108.25547734696492" y2="168.7177416508892" stroke="#000" stroke-width="0.3" />
<polygon points="103.48412611515172,157.12392590895567 108.25547734696492,168.7177416508892 111.70016583578504,163.91074722268056 109.31449021987844,158.11383935171378" fill="none" stroke="#666" stroke-width="0.2" />
<text x="104.2052511298937" y="163.60586757190828" font-size="3" text-anchor="middle" dominant-baseline="central" fill="#000">66</text>
<line x1="108.25547734696492" y1="168.7177416508892" x2="101.0201509674543" y2="172.89506053758436" stroke="#000" stroke-width="0.3" stroke-dasharray="2 1.5" />
<line x1="103.48412611515172" y1="157.12392590895567" x2="101.0201509674543" y2="172.89506053758436" stroke="#000" stroke-width="0.3" stroke-dasharray="2 1.5" />
<line x1="101.0201509674543" y1="172.89506053758436" x2="94.80704284039108" y2="162.13364270909065" stroke="#000" stroke-width="0.3" />
<text x="97.9135969039227" y="167.51435162333752" font-size="3" text-anchor="middle" dominant-baseline="central" fill="#000">6</text>
<line x1="94.80704284039108" y1="162.13364270909065" x2="103.48412611515172" y2="157.12392590895567" stroke="#000" stroke-width="0.3" stroke-dasharray="2 1.5" />
<line x1="98.42526549427008" y1="168.43578157572875" x2="94.5544899786641" y2="185.50568188863446" stroke="#000" stroke-width="0.3" />
<polygon points="98.42526549427008,168.43578157572875 94.5544899786641,185.50568188863446 102.35014398272787,182.78651701665044 104.28553174053087,174.25156686019758" fill="none" stroke="#666" stroke-width="0.2" />
<text x="94.73444440215172" y="176.5726691632626" font-size="3" text-anchor="middle" dominant-baseline="central" fill="#000">84</text>
<line x1="94.5544899786641" y1="185.50568188863446" x2="89.09883423926706" y2="180.58996607069017" stroke="#000" stroke-width="0.3" stroke-dasharray="2 1.5" />
<line x1="89.09883423926706" y1="180.58996607069017" x2="98.42526549427008" y2="168.43578157572875" stroke="#000" stroke-width="0.3" stroke-dasharray="2 1.5" />
<line x1="123.56520620286774" y1="188.57576900935925" x2="101.0201509674543" y2="172.89506053758436" stroke="#000" stroke-width="0.3" stroke-dasharray="2 1.5" />
<line x1="101.0201509674543" y1="172.89506053758436" x2="108.25547734696492" y2="168.7177416508892" stroke="#000" stroke-width="0.3" stroke-dasharray="2 1.5" />
<line x1="108.25547734696492" y1="168.7177416508892" x2="123.56520620286774" y2="188.57576900935925" stroke="#000" stroke-width="0.3" />
<polygon points="108.25547734696492,168.7177416508892 123.56520620286774,188.57576900935925 127.68098493228005,177.4873706273806 120.02612050432863,167.55835694814562" fill="none" stroke="#666" stroke-width="0.2" />
<text x="114.48481018138044" y="179.74578202490056" font-size="3" text-anchor="middle" dominant-baseline="central" fill="#000">71</text>
<line x1="101.0201509674543" y1="172.89506053758436" x2="123.56520620286774" y2="188.57576900935925" stroke="#000" stroke-width="0.3" stroke-dasharray="2 1.5" />
<line x1="123.56520620286774" y1="188.57576900935925" x2="113.44636788265485" y2="194.41788692687715" stroke="#000" stroke-width="0.3" stroke-dasharray="2 1.5" />
<line x1="113.44636788265485" y1="194.41788692687715" x2="101.0201509674543" y2="172.89506053758436" stroke="#000" stroke-width="0.3" />
<text x="107.23325942505457" y="183.65647373223075" font-size="3" text-anchor="middle" dominant-baseline="central" fill="#000">9</text>
<line x1="157.06817759435296" y1="226.62703955371853" x2="144.51190795100925" y2="248.22496064090407" stroke="#000" stroke-width="0.3" />
<text x="150.7900427726811" y="237.42600009731132" font-size="3" text-anchor="middle" dominant-baseline="central" fill="#000">92</text>
<line x1="144.51190795100925" y1="248.22496064090407" x2="138.29880269322837" y2="237.46354115582977" stroke="#000" stroke-width="0.3" />
<text x="141.4053553221188" y="242.8442508983669" font-size="3" text-anchor="middle" dominant-baseline="central" fill="#000">14</text>
<line x1="138.29880269322837" y1="237.46354115582977" x2="157.06817759435296" y2="226.62703955371853" stroke="#000" stroke-width="0.3" stroke-dasharray="2 1.5" />
<line x1="123.56520620286774" y1="188.57576900935925" x2="125.87259044195667" y2="215.9407130611517" stroke="#000" stroke-width="0.3" stroke-dasharray="2 1.5" />
<line x1="125.87259044195667" y1="215.9407130611517" x2="113.44636788265485" y2="194.41788692687715" stroke="#000" stroke-width="0.3" />
<text x="119.65947916230576" y="205.17929999401443" font-size="3" text-anchor="middle" dominant-baseline="central" fill="#000">10</text>
<line x1="113.44636788265485" y1="194.41788692687715" x2="123.56520620286774" y2="188.57576900935925" stroke="#000" stroke-width="0.3" stroke-dasharray="2 1.5" />
<line x1="125.87259044195667" y1="215.9407130611517" x2="123.56520620286774" y2="188.57576900935925" stroke="#000" stroke-width="0.3" stroke-dasharray="2 1.5" />
<line x1="123.56520620286774" y1="188.57576900935925" x2="141.75845052723878" y2="206.76900801376027" stroke="#000" stroke-width="0.3" />
<polygon points="123.56520620286774,188.57576900935925 141.75845052723878,206.76900801376027 144.48743504790642,194.94340053291162 135.39081288572092,185.8467810307111" fill="none" stroke="#666" stroke-width="0.2" />
<text x="131.389036345009" y="198.94518090378705" font-size="3" text-anchor="middle" dominant-baseline="central" fill="#000">74</text>
<line x1="141.75845052723878" y1="206.76900801376027" x2="125.87259044195667" y2="215.9407130611517" stroke="#000" stroke-width="0.3" stroke-dasharray="2 1.5" />
<line x1="32.65858209624052" y1="114.45226582147481" x2="10.398021131477607" y2="113.8960374070502" stroke="#000" stroke-width="0.3" stroke-dasharray="2 1.5" />
<line x1="10.398021131477607" y1="113.8960374070502" x2="14.80300293937118" y2="107.5106597915136" stroke="#000" stroke-width="0.3" />
<text x="12.600512035424394" y="110.7033485992819" font-size="3" text-anchor="middle" dominant-baseline="central" fill="#000">72</text>
<line x1="14.80300293937118" y1="107.5106597915136" x2="32.65858209624052" y2="114.45226582147481" stroke="#000" stroke-width="0.3" />
<text x="23.730792517805853" y="110.9814628064942" font-size="3" text-anchor="middle" dominant-baseline="central" fill="#000">8</text>
<line x1="10.398021131477607" y1="113.8960374070502" x2="32.65858209624052" y2="114.45226582147481" stroke="#000" stroke-width="0.3" stroke-dasharray="2 1.5" />
<line x1="32.65858209624052" y1="114.45226582147481" x2="25.740708553485746" y2="124.48026987449927" stroke="#000" stroke-width="0.3" stroke-dasharray="2 1.5" />
<line x1="25.740708553485746" y1="124.48026987449927" x2="10.398021131477607" y2="113.8960374070502" stroke="#000" stroke-width="0.3" />
<polygon points="25.740708553485746,124.48026987449927 10.398021131477607,113.8960374070502 10,122.67917049271573 17.671343711004074,127.97128672644027" fill="none" stroke="#666" stroke-width="0.2" />
<text x="19.09148498197791" y="117.70650914210572" font-size="3" text-anchor="middle" dominant-baseline="central" fill="#000">75</text>
<line x1="56.426112167849595" y1="145.64873688097745" x2="53.02704582059258" y2="117.75125338549981" stroke="#000" stroke-width="0.3" stroke-dasharray="2 1.5" />
<line x1="53.02704582059258" y1="117.75125338549981" x2="70.88262424956619" y2="124.69284700674363" stroke="#000" stroke-width="0.3" />
<text x="61.954835035079384" y="121.22205019612173" font-size="3" text-anchor="middle" dominant-baseline="central" fill="#000">89</text>
<line x1="70.88262424956619" y1="124.69284700674363" x2="56.426112167849595" y2="145.64873688097745" stroke="#000" stroke-width="0.3" stroke-dasharray="2 1.5" />
<line x1="53.02704582059258" y1="117.75125338549981" x2="56.426112167849595" y2="145.64873688097745" stroke="#000" stroke-width="0.3" stroke-dasharray="2 1.5" />
<line x1="56.426112167849595" y1="145.64873688097745" x2="41.08341610651203" y2="135.0644976880219" stroke="#000" stroke-width="0.3" />
<polygon points="56.426112167849595,145.64873688097745 41.08341610651203,135.0644976880219 40.68539444466421,143.84763591079582 48.35674247533299,149.1397555072736" fill="none" stroke="#666" stroke-width="0.2" />
<text x="49.77688432677255" y="138.8749728203893" font-size="3" text-anchor="middle" dominant-baseline="central" fill="#000">76</text>
<line x1="41.08341610651203" y1="135.0644976880219" x2="53.02704582059258" y2="117.75125338549981" stroke="#000" stroke-width="0.3" stroke-dasharray="2 1.5" />
<line x1="64.09746761968086" y1="150.94084922513787" x2="70.88262424956619" y2="124.69284700674363" stroke="#000" stroke-width="0.3" stroke-dasharray="2 1.5" />
<line x1="70.88262424956619" y1="124.69284700674363" x2="77.29753675550793" y2="131.8062731226753" stroke="#000" stroke-width="0.3" />
<text x="74.09008050253706" y="128.24956006470947" font-size="3" text-anchor="middle" dominant-baseline="central" fill="#000">13</text>
<line x1="77.29753675550793" y1="131.8062731226753" x2="64.09746761968086" y2="150.94084922513787" stroke="#000" stroke-width="0.3" stroke-dasharray="2 1.5" />
<line x1="70.88262424956619" y1="124.69284700674363" x2="64.09746761968086" y2="150.94084922513787" stroke="#000" stroke-width="0.3" stroke-dasharray="2 1.5" />
<line x1="64.09746761968086" y1="150.94084922513787" x2="56.426112167849595" y2="145.64873688097745" stroke="#000" stroke-width="0.3" />
<polygon points="64.09746761968086,150.94084922513787 56.426112167849595,145.64873688097745 56.227106093143234,150.04030714775004 60.06278381905887,152.68636331983026" fill="none" stroke="#666" stroke-width="0.2" />
<text x="61.28390846434575" y="146.81314747206522" font-size="3" text-anchor="middle" dominant-baseline="central" fill="#000">77</text>
<line x1="56.426112167849595" y1="145.64873688097745" x2="70.88262424956619" y2="124.69284700674363" stroke="#000" stroke-width="0.3" stroke-dasharray="2 1.5" />
<line x1="32.65858209624052" y1="114.45226582147481" x2="41.08341610651203" y2="135.0644976880219" stroke="#000" stroke-width="0.3" stroke-dasharray="2 1.5" />
<line x1="41.08341610651203" y1="135.0644976880219" x2="25.740708553485746" y2="124.48026987449927" stroke="#000" stroke-width="0.3" />
<polygon points="41.08341610651203,135.0644976880219 25.740708553485746,124.48026987449927 25.342694316333258,133.26340984909046 33.01404809284641,138.55552375585177" fill="none" stroke="#666" stroke-width="0.2" />
<text x="34.434181256306765" y="128.29073844566804" font-size="3" text-anchor="middle" dominant-baseline="central" fill="#000">78</text>
<line x1="25.740708553485746" y1="124.48026987449927" x2="32.65858209624052" y2="114.45226582147481" stroke="#000" stroke-width="0.3" stroke-dasharray="2 1.5" />
<line x1="41.08341610651203" y1="135.0644976880219" x2="32.65858209624052" y2="114.45226582147481" stroke="#000" stroke-width="0.3" stroke-dasharray="2 1.5" />
<line x1="32.65858209624052" y1="114.45226582147481" x2="53.02704582059258" y2="117.75125338549981" stroke="#000" stroke-width="0.3" />
<text x="42.842813958416556" y="116.10175960348731" font-size="3" text-anchor="middle" dominant-baseline="central" fill="#000">11</text>
<line x1="53.02704582059258" y1="117.75125338549981" x2="41.08341610651203" y2="135.0644976880219" stroke="#000" stroke-width="0.3" stroke-dasharray="2 1.5" />
<line x1="89.09883423926706" y1="180.58996607069017" x2="81.3492228230388" y2="186.44814003888027" stroke="#000" stroke-width="0.3" stroke-dasharray="2 1.5" />
<line x1="81.3492228230388" y1="186.44814003888027" x2="82.11387427470915" y2="182.8568439325049" stroke="#000" stroke-width="0.3" />
<polygon points="81.3492228230388,186.44814003888027 82.11387427470915,182.8568439325049 80.48619296924142,183.44880737843062 80.10386724340624,185.2444554316183" fill="none" stroke="#666" stroke-width="0.2" />
<text x="83.49208472978582" y="185.02734176320394" font-size="3" text-anchor="middle" dominant-baseline="central" fill="#000">80</text>
<line x1="82.11387427470915" y1="182.8568439325049" x2="89.09883423926706" y2="180.58996607069017" stroke="#000" stroke-width="0.3" />
<text x="85.60635425698811" y="181.72340500159754" font-size="3" text-anchor="middle" dominant-baseline="central" fill="#000">63</text>
<line x1="81.3492228230388" y1="186.44814003888027" x2="89.09883423926706" y2="180.58996607069017" stroke="#000" stroke-width="0.3" stroke-dasharray="2 1.5" />
<line x1="89.09883423926706" y1="180.58996607069017" x2="89.5327052973391" y2="193.82171274329852" stroke="#000" stroke-width="0.3" stroke-dasharray="2 1.5" />
<line x1="89.5327052973391" y1="193.82171274329852" x2="81.3492228230388" y2="186.44814003888027" stroke="#000" stroke-width="0.3" />
<text x="85.44096406018895" y="190.13492639108938" font-size="3" text-anchor="middle" dominant-baseline="central" fill="#000">56</text>
<line x1="89.5327052973391" y1="193.82171274329852" x2="89.09883423926706" y2="180.58996607069017" stroke="#000" stroke-width="0.3" stroke-dasharray="2 1.5" />
<line x1="89.09883423926706" y1="180.58996607069017" x2="94.5544899786641" y2="185.50568188863446" stroke="#000" stroke-width="0.3" stroke-dasharray="2 1.5" />
<line x1="94.5544899786641" y1="185.50568188863446" x2="89.5327052973391" y2="193.82171274329852" stroke="#000" stroke-width="0.3" stroke-dasharray="2 1.5" />
<line x1="89.5327052973391" y1="193.82171274329852" x2="94.5544899786641" y2="185.50568188863446" stroke="#000" stroke-width="0.3" stroke-dasharray="2 1.5" />
<line x1="94.5544899786641" y1="185.50568188863446" x2="93.02518575351401" y2="192.68827556839872" stroke="#000" stroke-width="0.3" />
<text x="93.78983786608904" y="189.0969787285166" font-size="3" text-anchor="middle" dominant-baseline="central" fill="#000">69</text>
<line x1="93.02518575351401" y1="192.68827556839872" x2="89.5327052973391" y2="193.82171274329852" stroke="#000" stroke-width="0.3" />
<polygon points="93.02518575351401,192.68827556839872 89.5327052973391,193.82171274329852 90.85920028134275,194.93534563204355 92.6054405094302,194.36862704459364" fill="none" stroke="#666" stroke-width="0.2" />
<text x="90.72330848072308" y="191.54289968574682" font-size="3" text-anchor="middle" dominant-baseline="central" fill="#000">81</text>
<line x1="87.49429051595969" y1="166.13367039057687" x2="78.84372455689326" y2="176.70710006248729" stroke="#000" stroke-width="0.3" stroke-dasharray="2 1.5" />
<line x1="78.84372455689326" y1="176.70710006248729" x2="82.80556791975441" y2="163.84671397744424" stroke="#000" stroke-width="0.3" stroke-dasharray="2 1.5" />
<line x1="82.80556791975441" y1="163.84671397744424" x2="87.49429051595969" y2="166.13367039057687" stroke="#000" stroke-width="0.3" />
<text x="85.14992921785705" y="164.99019218401054" font-size="3" text-anchor="middle" dominant-baseline="central" fill="#000">79</text>
<line x1="78.84372455689326" y1="176.70710006248729" x2="87.49429051595969" y2="166.13367039057687" stroke="#000" stroke-width="0.3" stroke-dasharray="2 1.5" />
<line x1="87.49429051595969" y1="166.13367039057687" x2="82.42110011071641" y2="177.5344353712449" stroke="#000" stroke-width="0.3" stroke-dasharray="2 1.5" />
<line x1="82.42110011071641" y1="177.5344353712449" x2="78.84372455689326" y2="176.70710006248729" stroke="#000" stroke-width="0.3" />
<text x="80.63241233380484" y="177.1207677168661" font-size="3" text-anchor="middle" dominant-baseline="central" fill="#000">80</text>
</svg>