<svg xmlns="http://www.w3.org/2000/svg" width="215.9mm" height="279.4mm" viewBox="0 0 215.9 279.4">
<rect x="0" y="0" width="215.9" height="279.4" fill="none" stroke="#ccc" stroke-width="0.15" />
<line x1="39.26208464294101" y1="134.92719041215693" x2="67.9181022210879" y2="126.46472191459469" stroke="#000" stroke-width="0.3" stroke-dasharray="2 1.5" />
<line x1="67.9181022210879" y1="126.46472191459469" x2="45.47072360708887" y2="152.2424072034427" stroke="#000" stroke-width="0.3" stroke-dasharray="2 1.5" />
<line x1="45.47072360708887" y1="152.2424072034427" x2="39.26208464294101" y2="134.92719041215693" stroke="#000" stroke-width="0.3" />
<polygon points="45.47072360708887,152.2424072034427 39.26208464294101,134.92719041215693 33.88815766746367,141.73945019563752 36.9924771495376,150.3970585912804" fill="none" stroke="#666" stroke-width="0.2" />
<text x="44.060774728564745" y="142.97725600451244" font-size="3" text-anchor="middle" dominant-baseline="central" fill="#000">10</text>
<line x1="67.9181022210879" y1="126.46472191459469" x2="39.26208464294101" y2="134.92719041215693" stroke="#000" stroke-width="0.3" stroke-dasharray="2 1.5" />
<line x1="39.26208464294101" y1="134.92719041215693" x2="59.21674768904189" y2="112.01203968739227" stroke="#000" stroke-width="0.3" />
<polygon points="39.26208464294101,134.92719041215693 59.21674768904189,112.01203968739227 45.062021637610805,109.75896215014306 35.084690114560374,121.21653751252542" fill="none" stroke="#666" stroke-width="0.2" />
<text x="50.59687141129122" y="124.65169595098575" font-size="3" text-anchor="middle" dominant-baseline="central" fill="#000">11</text>
<line x1="59.21674768904189" y1="112.01203968739227" x2="67.9181022210879" y2="126.46472191459469" stroke="#000" stroke-width="0.3" />
<polygon points="59.21674768904189,112.01203968739227 67.9181022210879,126.46472191459469 71.52383647895738,119.37100954497568 67.17315921293437,112.14466843137447" fill="none" stroke="#666" stroke-width="0.2" />
<text x="62.02533964988173" y="120.16680576378701" font-size="3" text-anchor="middle" dominant-baseline="central" fill="#000">12</text>
<line x1="59.91522828564016" y1="201.91302228367275" x2="92.10333199349024" y2="222.61610066295856" stroke="#000" stroke-width="0.3" stroke-dasharray="2 1.5" />
<line x1="92.10333199349024" y1="222.61610066295856" x2="61.497576781237576" y2="218.34295811112037" stroke="#000" stroke-width="0.3" />
<polygon points="92.10333199349024,222.61610066295856 61.497576781237576,218.34295811112037 67.43975856356548,231.65354583398098 82.7426361696918,233.79011710990008" fill="none" stroke="#666" stroke-width="0.2" />
<text x="77.04935419861503" y="218.69682108673928" font-size="3" text-anchor="middle" dominant-baseline="central" fill="#000">19</text>
<line x1="61.497576781237576" y1="218.34295811112037" x2="59.91522828564016" y2="201.91302228367275" stroke="#000" stroke-width="0.3" stroke-dasharray="2 1.5" />
<line x1="92.10333199349024" y1="222.61610066295856" x2="59.91522828564016" y2="201.91302228367275" stroke="#000" stroke-width="0.3" stroke-dasharray="2 1.5" />
<line x1="59.91522828564016" y1="201.91302228367275" x2="89.18789591861028" y2="206.00004353873774" stroke="#000" stroke-width="0.3" />
<polygon points="59.91522828564016,201.91302228367275 89.18789591861028,206.00004353873774 83.50453751239375,193.26922117178344 68.86820369590868,191.22571054425094" fill="none" stroke="#666" stroke-width="0.2" />
<text x="74.30266211441085" y="205.73924118686782" font-size="3" text-anchor="middle" dominant-baseline="central" fill="#000">20</text>
<line x1="89.18789591861028" y1="206.00004353873774" x2="92.10333199349024" y2="222.61610066295856" stroke="#000" stroke-width="0.3" />
<text x="90.64561395605025" y="214.30807210084816" font-size="3" text-anchor="middle" dominant-baseline="central" fill="#000">2</text>
<line x1="34.57189829596322" y1="210.61491795779816" x2="10.067407093577636" y2="182.7739777327915" stroke="#000" stroke-width="0.3" />
<text x="22.31965269477043" y="196.69444784529483" font-size="3" text-anchor="middle" dominant-baseline="central" fill="#000">44</text>
<line x1="10.067407093577636" y1="182.7739777327915" x2="39.16450197313094" y2="198.32899170316094" stroke="#000" stroke-width="0.3" />
<polygon points="10.067407093577636,182.7739777327915 39.16450197313094,198.32899170316094 38.11223384139039,182.8014002587473 23.563686401613737,175.02389327356255" fill="none" stroke="#666" stroke-width="0.2" />
<text x="23.767343122368246" y="192.1388909902154" font-size="3" text-anchor="middle" dominant-baseline="central" fill="#000">42</text>
<line x1="39.16450197313094" y1="198.32899170316094" x2="34.57189829596322" y2="210.61491795779816" stroke="#000" stroke-width="0.3" stroke-dasharray="2 1.5" />
<line x1="34.57189829596322" y1="210.61491795779816" x2="39.16450197313094" y2="198.32899170316094" stroke="#000" stroke-width="0.3" stroke-dasharray="2 1.5" />
<line x1="39.16450197313094" y1="198.32899170316094" x2="59.91522828564016" y2="201.91302228367275" stroke="#000" stroke-width="0.3" stroke-dasharray="2 1.5" />
<line x1="59.91522828564016" y1="201.91302228367275" x2="34.57189829596322" y2="210.61491795779816" stroke="#000" stroke-width="0.3" stroke-dasharray="2 1.5" />
<line x1="48.744109234258836" y1="195.03973401605415" x2="59.91522828564016" y2="201.91302228367275" stroke="#000" stroke-width="0.3" stroke-dasharray="2 1.5" />
<line x1="59.91522828564016" y1="201.91302228367275" x2="39.16450197313094" y2="198.32899170316094" stroke="#000" stroke-width="0.3" stroke-dasharray="2 1.5" />
<line x1="39.16450197313094" y1="198.32899170316094" x2="48.744109234258836" y2="195.03973401605415" stroke="#000" stroke-width="0.3" />
<polygon points="39.16450197313094,198.32899170316094 48.744109234258836,195.03973401605415 45.033504344134144,192.0302055333797 40.24370071357019,193.6748343769331" fill="none" stroke="#666" stroke-width="0.2" />
<text x="44.53885595839867" y="198.38680254512232" font-size="3" text-anchor="middle" dominant-baseline="central" fill="#000">28</text>
<line x1="62.148484285468534" y1="164.89139874634776" x2="59.91522828564016" y2="201.91302228367275" stroke="#000" stroke-width="0.3" />
<polygon points="62.148484285468534,164.89139874634776 59.91522828564016,201.91302228367275 75.28219170052725,193.55091879927286 76.39881970044144,175.04010703061036" fill="none" stroke="#666" stroke-width="0.2" />
<text x="59.235122354326904" y="183.293826104803" font-size="3" text-anchor="middle" dominant-baseline="central" fill="#000">43</text>
<line x1="59.91522828564016" y1="201.91302228367275" x2="48.744109234258836" y2="195.03973401605415" stroke="#000" stroke-width="0.3" stroke-dasharray="2 1.5" />
<line x1="48.744109234258836" y1="195.03973401605415" x2="62.148484285468534" y2="164.89139874634776" stroke="#000" stroke-width="0.3" stroke-dasharray="2 1.5" />
<line x1="62.148484285468534" y1="164.89139874634776" x2="48.744109234258836" y2="195.03973401605415" stroke="#000" stroke-width="0.3" stroke-dasharray="2 1.5" />
<line x1="48.744109234258836" y1="195.03973401605415" x2="45.45485154715203" y2="185.46012675492622" stroke="#000" stroke-width="0.3" />
<polygon points="48.744109234258836,195.03973401605415 45.45485154715203,185.46012675492622 42.44532306447756,189.17073164505095 44.089951908030976,193.9605352756149" fill="none" stroke="#666" stroke-width="0.2" />
<text x="48.80192007622022" y="189.6653800307864" font-size="3" text-anchor="middle" dominant-baseline="central" fill="#000">29</text>
<line x1="45.45485154715203" y1="185.46012675492622" x2="62.148484285468534" y2="164.89139874634776" stroke="#000" stroke-width="0.3" stroke-dasharray="2 1.5" />
<line x1="62.148484285468534" y1="164.89139874634776" x2="45.45485154715203" y2="185.46012675492622" stroke="#000" stroke-width="0.3" stroke-dasharray="2 1.5" />
<line x1="45.45485154715203" y1="185.46012675492622" x2="42.16559451789677" y2="175.8805214097198" stroke="#000" stroke-width="0.3" />
<text x="43.810223032524405" y="180.67032408232302" font-size="3" text-anchor="middle" dominant-baseline="central" fill="#000">30</text>
<line x1="42.16559451789677" y1="175.8805214097198" x2="62.148484285468534" y2="164.89139874634776" stroke="#000" stroke-width="0.3" stroke-dasharray="2 1.5" />
<line x1="62.148484285468534" y1="164.89139874634776" x2="42.16559451789677" y2="175.8805214097198" stroke="#000" stroke-width="0.3" stroke-dasharray="2 1.5" />
<line x1="42.16559451789677" y1="175.8805214097198" x2="38.87633617293844" y2="166.3009122326704" stroke="#000" stroke-width="0.3" stroke-dasharray="2 1.5" />
<line x1="38.87633617293844" y1="166.3009122326704" x2="62.148484285468534" y2="164.89139874634776" stroke="#000" stroke-width="0.3" stroke-dasharray="2 1.5" />
<line x1="62.148484285468534" y1="164.89139874634776" x2="38.87633617293844" y2="166.3009122326704" stroke="#000" stroke-width="0.3" stroke-dasharray="2 1.5" />
<line x1="38.87633617293844" y1="166.3009122326704" x2="79.25591079968025" y2="136.33773156153788" stroke="#000" stroke-width="0.3" stroke-dasharray="2 1.5" />
<line x1="79.25591079968025" y1="136.33773156153788" x2="62.148484285468534" y2="164.89139874634776" stroke="#000" stroke-width="0.3" />
<text x="70.7021975425744" y="150.6145651539428" font-size="3" text-anchor="middle" dominant-baseline="central" fill="#000">7</text>
<line x1="79.25591079968025" y1="136.33773156153788" x2="38.87633617293844" y2="166.3009122326704" stroke="#000" stroke-width="0.3" stroke-dasharray="2 1.5" />
<line x1="38.87633617293844" y1="166.3009122326704" x2="45.47072360708887" y2="152.2424072034427" stroke="#000" stroke-width="0.3" />
<polygon points="38.87633617293844,166.3009122326704 45.47072360708887,152.2424072034427 38.19872473686017,153.11927848708947 34.901531019784954,160.14853100170333" fill="none" stroke="#666" stroke-width="0.2" />
<text x="43.80315709296726" y="160.03606483276576" font-size="3" text-anchor="middle" dominant-baseline="central" fill="#000">33</text>
<line x1="45.47072360708887" y1="152.2424072034427" x2="79.25591079968025" y2="136.33773156153788" stroke="#000" stroke-width="0.3" stroke-dasharray="2 1.5" />
<line x1="79.25591079968025" y1="136.33773156153788" x2="45.47072360708887" y2="152.2424072034427" stroke="#000" stroke-width="0.3" stroke-dasharray="2 1.5" />
<line x1="45.47072360708887" y1="152.2424072034427" x2="67.9181022210879" y2="126.46472191459469" stroke="#000" stroke-width="0.3" stroke-dasharray="2 1.5" />
<line x1="67.9181022210879" y1="126.46472191459469" x2="79.25591079968025" y2="136.33773156153788" stroke="#000" stroke-width="0.3" stroke-dasharray="2 1.5" />
<line x1="59.91522828564016" y1="201.91302228367275" x2="43.41617345153853" y2="224.5513958136999" stroke="#000" stroke-width="0.3" stroke-dasharray="2 1.5" />
<line x1="43.41617345153853" y1="224.5513958136999" x2="34.57189829596322" y2="210.61491795779816" stroke="#000" stroke-width="0.3" stroke-dasharray="2 1.5" />
<line x1="34.57189829596322" y1="210.61491795779816" x2="59.91522828564016" y2="201.91302228367275" stroke="#000" stroke-width="0.3" stroke-dasharray="2 1.5" />
<line x1="43.41617345153853" y1="224.5513958136999" x2="59.91522828564016" y2="201.91302228367275" stroke="#000" stroke-width="0.3" stroke-dasharray="2 1.5" />
<line x1="59.91522828564016" y1="201.91302228367275" x2="61.497576781237576" y2="218.34295811112037" stroke="#000" stroke-width="0.3" stroke-dasharray="2 1.5" />
<line x1="61.497576781237576" y1="218.34295811112037" x2="43.41617345153853" y2="224.5513958136999" stroke="#000" stroke-width="0.3" />
<polygon points="61.497576781237576,218.34295811112037 43.41617345153853,224.5513958136999 50.41989936499511,230.23184771993465 59.46060102984463,227.12762886864488" fill="none" stroke="#666" stroke-width="0.2" />
<text x="51.872324761684276" y="219.74473727689536" font-size="3" text-anchor="middle" dominant-baseline="central" fill="#000">34</text>
<line x1="175.75750709386878" y1="128.03418754886513" x2="161.32236498160094" y2="89.3758620357492" stroke="#000" stroke-width="0.3" stroke-dasharray="2 1.5" />
<line x1="161.32236498160094" y1="89.3758620357492" x2="188.6034274233915" y2="103.89190941193894" stroke="#000" stroke-width="0.3" />
<text x="174.9628962024962" y="96.63388572384406" font-size="3" text-anchor="middle" dominant-baseline="central" fill="#000">19</text>
<line x1="188.6034274233915" y1="103.89190941193894" x2="175.75750709386878" y2="128.03418754886513" stroke="#000" stroke-width="0.3" />
<text x="182.18046725863013" y="115.96304848040204" font-size="3" text-anchor="middle" dominant-baseline="central" fill="#000">1</text>
<line x1="161.32236498160094" y1="89.3758620357492" x2="175.75750709386878" y2="128.03418754886513" stroke="#000" stroke-width="0.3" stroke-dasharray="2 1.5" />
<line x1="175.75750709386878" y1="128.03418754886513" x2="120.00964750953612" y2="105.40239533133864" stroke="#000" stroke-width="0.3" />
<text x="147.88357730170245" y="116.7182914401019" font-size="3" text-anchor="middle" dominant-baseline="central" fill="#000">6</text>
<line x1="120.00964750953612" y1="105.40239533133864" x2="161.32236498160094" y2="89.3758620357492" stroke="#000" stroke-width="0.3" stroke-dasharray="2 1.5" />
<line x1="161.32236498160094" y1="89.3758620357492" x2="120.00964750953612" y2="105.40239533133864" stroke="#000" stroke-width="0.3" stroke-dasharray="2 1.5" />
<line x1="120.00964750953612" y1="105.40239533133864" x2="164.98640725077277" y2="70.61268961401345" stroke="#000" stroke-width="0.3" stroke-dasharray="2 1.5" />
<line x1="164.98640725077277" y1="70.61268961401345" x2="161.32236498160094" y2="89.3758620357492" stroke="#000" stroke-width="0.3" />
<text x="163.15438611618686" y="79.99427582488133" font-size="3" text-anchor="middle" dominant-baseline="central" fill="#000">34</text>
<line x1="132.73811146329706" y1="40.22127942618631" x2="164.98640725077277" y2="70.61268961401345" stroke="#000" stroke-width="0.3" stroke-dasharray="2 1.5" />
<line x1="164.98640725077277" y1="70.61268961401345" x2="120.00964750953612" y2="105.40239533133864" stroke="#000" stroke-width="0.3" stroke-dasharray="2 1.5" />
<line x1="120.00964750953612" y1="105.40239533133864" x2="132.73811146329706" y2="40.22127942618631" stroke="#000" stroke-width="0.3" stroke-dasharray="2 1.5" />
<line x1="132.73811146329706" y1="40.22127942618631" x2="120.00964750953612" y2="105.40239533133864" stroke="#000" stroke-width="0.3" stroke-dasharray="2 1.5" />
<line x1="120.00964750953612" y1="105.40239533133864" x2="93.07227483950943" y2="127.08228180024274" stroke="#000" stroke-width="0.3" />
<text x="106.54096117452278" y="116.24233856579069" font-size="3" text-anchor="middle" dominant-baseline="central" fill="#000">9</text>
<line x1="93.07227483950943" y1="127.08228180024274" x2="132.73811146329706" y2="40.22127942618631" stroke="#000" stroke-width="0.3" stroke-dasharray="2 1.5" />
<line x1="192.90472889158653" y1="40.22508069130503" x2="164.98640725077277" y2="70.61268961401345" stroke="#000" stroke-width="0.3" stroke-dasharray="2 1.5" />
<line x1="164.98640725077277" y1="70.61268961401345" x2="132.73811146329706" y2="40.22127942618631" stroke="#000" stroke-width="0.3" stroke-dasharray="2 1.5" />
<line x1="132.73811146329706" y1="40.22127942618631" x2="192.90472889158653" y2="40.22508069130503" stroke="#000" stroke-width="0.3" />
<polygon points="132.73811146329706,40.22127942618631 192.90472889158653,40.22508069130503 177.86459504056162,16.157483403709556 147.78128632641693,16.155582771150222" fill="none" stroke="#666" stroke-width="0.2" />
<text x="162.82130645529" y="42.02318005515325" font-size="3" text-anchor="middle" dominant-baseline="central" fill="#000">35</text>
<line x1="164.98640725077277" y1="70.61268961401345" x2="192.90472889158653" y2="40.22508069130503" stroke="#000" stroke-width="0.3" stroke-dasharray="2 1.5" />
<line x1="192.90472889158653" y1="40.22508069130503" x2="195.72433464246208" y2="67.42649767944704" stroke="#000" stroke-width="0.3" />
<polygon points="192.90472889158653,40.22508069130503 195.72433464246208,67.42649767944704 205.9,59.49830113206133 204.4901971245622,45.8975926379903" fill="none" stroke="#666" stroke-width="0.2" />
<text x="192.5241247478969" y="54.011376646857926" font-size="3" text-anchor="middle" dominant-baseline="central" fill="#000">36</text>
<line x1="195.72433464246208" y1="67.42649767944704" x2="164.98640725077277" y2="70.61268961401345" stroke="#000" stroke-width="0.3" />
<polygon points="195.72433464246208,67.42649767944704 164.98640725077277,70.61268961401345 173.94536587252165,82.11131258704759 189.31432956836633,80.51821661976436" fill="none" stroke="#666" stroke-width="0.2" />
<text x="180.16978327630153" y="67.22918664924987" font-size="3" text-anchor="middle" dominant-baseline="central" fill="#000">37</text>
<line x1="132.73811146329706" y1="40.22127942618631" x2="93.07227483950943" y2="127.08228180024274" stroke="#000" stroke-width="0.3" stroke-dasharray="2 1.5" />
<line x1="93.07227483950943" y1="127.08228180024274" x2="115.93591537133213" y2="10" stroke="#000" stroke-width="0.3" stroke-dasharray="2 1.5" />
<line x1="115.93591537133213" y1="10" x2="132.73811146329706" y2="40.22127942618631" stroke="#000" stroke-width="0.3" />
<text x="124.3370134173146" y="25.110639713093153" font-size="3" text-anchor="middle" dominant-baseline="central" fill="#000">23</text>
<line x1="115.93591537133213" y1="10" x2="93.07227483950943" y2="127.08228180024274" stroke="#000" stroke-width="0.3" stroke-dasharray="2 1.5" />
<line x1="93.07227483950943" y1="127.08228180024274" x2="94.50484614986851" y2="88.03799452594396" stroke="#000" stroke-width="0.3" stroke-dasharray="2 1.5" />
<line x1="94.50484614986851" y1="88.03799452594396" x2="115.93591537133213" y2="10" stroke="#000" stroke-width="0.3" stroke-dasharray="2 1.5" />
<line x1="94.50484614986851" y1="88.03799452594396" x2="93.07227483950943" y2="127.08228180024274" stroke="#000" stroke-width="0.3" stroke-dasharray="2 1.5" />
<line x1="93.07227483950943" y1="127.08228180024274" x2="74.55017679014003" y2="110.95313975275889" stroke="#000" stroke-width="0.3" stroke-dasharray="2 1.5" />
<line x1="74.55017679014003" y1="110.95313975275889" x2="94.50484614986851" y2="88.03799452594396" stroke="#000" stroke-width="0.3" />
<text x="84.52751147000427" y="99.49556713935142" font-size="3" text-anchor="middle" dominant-baseline="central" fill="#000">11</text>
<line x1="115.93591537133213" y1="10" x2="94.50484614986851" y2="88.03799452594396" stroke="#000" stroke-width="0.3" stroke-dasharray="2 1.5" />
<line x1="94.50484614986851" y1="88.03799452594396" x2="102.57437022002205" y2="46.71481636188226" stroke="#000" stroke-width="0.3" stroke-dasharray="2 1.5" />
<line x1="102.57437022002205" y1="46.71481636188226" x2="115.93591537133213" y2="10" stroke="#000" stroke-width="0.3" stroke-dasharray="2 1.5" />
<line x1="92.7066049773728" y1="17.975993854025912" x2="115.93591537133213" y2="10" stroke="#000" stroke-width="0.3" />
<text x="104.32126017435246" y="13.987996927012956" font-size="3" text-anchor="middle" dominant-baseline="central" fill="#000">16</text>
<line x1="115.93591537133213" y1="10" x2="102.57437022002205" y2="46.71481636188226" stroke="#000" stroke-width="0.3" stroke-dasharray="2 1.5" />
<line x1="102.57437022002205" y1="46.71481636188226" x2="92.7066049773728" y2="17.975993854025912" stroke="#000" stroke-width="0.3" />
<text x="97.64048759869743" y="32.345405107954086" font-size="3" text-anchor="middle" dominant-baseline="central" fill="#000">21</text>
<line x1="94.50484614986851" y1="88.03799452594396" x2="78.71644241974296" y2="42.05587841950078" stroke="#000" stroke-width="0.3" stroke-dasharray="2 1.5" />
<line x1="78.71644241974296" y1="42.05587841950078" x2="102.57437022002205" y2="46.71481636188226" stroke="#000" stroke-width="0.3" />
<text x="90.64540631988251" y="44.38534739069152" font-size="3" text-anchor="middle" dominant-baseline="central" fill="#000">25</text>
<line x1="102.57437022002205" y1="46.71481636188226" x2="94.50484614986851" y2="88.03799452594396" stroke="#000" stroke-width="0.3" stroke-dasharray="2 1.5" />
<line x1="78.71644241974296" y1="42.05587841950078" x2="94.50484614986851" y2="88.03799452594396" stroke="#000" stroke-width="0.3" stroke-dasharray="2 1.5" />
<line x1="94.50484614986851" y1="88.03799452594396" x2="70.64691834958941" y2="83.37905658356249" stroke="#000" stroke-width="0.3" />
<text x="82.57588224972896" y="85.70852555475322" font-size="3" text-anchor="middle" dominant-baseline="central" fill="#000">13</text>
<line x1="70.64691834958941" y1="83.37905658356249" x2="78.71644241974296" y2="42.05587841950078" stroke="#000" stroke-width="0.3" stroke-dasharray="2 1.5" />
<line x1="78.71644241974296" y1="42.05587841950078" x2="70.64691834958941" y2="83.37905658356249" stroke="#000" stroke-width="0.3" stroke-dasharray="2 1.5" />
<line x1="70.64691834958941" y1="83.37905658356249" x2="62.75270654371511" y2="60.38799658911513" stroke="#000" stroke-width="0.3" />
<text x="66.69981244665226" y="71.8835265863388" font-size="3" text-anchor="middle" dominant-baseline="central" fill="#000">14</text>
<line x1="62.75270654371511" y1="60.38799658911513" x2="78.71644241974296" y2="42.05587841950078" stroke="#000" stroke-width="0.3" />
<text x="70.73457448172903" y="51.22193750430796" font-size="3" text-anchor="middle" dominant-baseline="central" fill="#000">4</text>
<line x1="79.25591079968025" y1="136.33773156153788" x2="74.55017679014003" y2="110.95313975275889" stroke="#000" stroke-width="0.3" stroke-dasharray="2 1.5" />
<line x1="74.55017679014003" y1="110.95313975275889" x2="93.07227483950943" y2="127.08228180024274" stroke="#000" stroke-width="0.3" stroke-dasharray="2 1.5" />
<line x1="93.07227483950943" y1="127.08228180024274" x2="79.25591079968025" y2="136.33773156153788" stroke="#000" stroke-width="0.3" />
<text x="86.16409281959484" y="131.7100066808903" font-size="3" text-anchor="middle" dominant-baseline="central" fill="#000">8</text>
<line x1="74.55017679014003" y1="110.95313975275889" x2="79.25591079968025" y2="136.33773156153788" stroke="#000" stroke-width="0.3" stroke-dasharray="2 1.5" />
<line x1="79.25591079968025" y1="136.33773156153788" x2="67.9181022210879" y2="126.46472191459469" stroke="#000" stroke-width="0.3" stroke-dasharray="2 1.5" />
<line x1="67.9181022210879" y1="126.46472191459469" x2="74.55017679014003" y2="110.95313975275889" stroke="#000" stroke-width="0.3" />
<text x="71.23413950561397" y="118.70893083367679" font-size="3" text-anchor="middle" dominant-baseline="central" fill="#000">12</text>
<line x1="13.984225600017757" y1="231.822005123515" x2="43.41617345153853" y2="224.5513958136999" stroke="#000" stroke-width="0.3" stroke-dasharray="2 1.5" />
<line x1="43.41617345153853" y1="224.5513958136999" x2="21.890929002960767" y2="246.72425875039875" stroke="#000" stroke-width="0.3" />
<text x="32.65355122724965" y="235.63782728204933" font-size="3" text-anchor="middle" dominant-baseline="central" fill="#000">37</text>
<line x1="21.890929002960767" y1="246.72425875039875" x2="13.984225600017757" y2="231.822005123515" stroke="#000" stroke-width="0.3" />
<polygon points="21.890929002960767,246.72425875039875 13.984225600017757,231.822005123515 10,238.71024989141313 13.95335170147151,246.161376704855" fill="none" stroke="#666" stroke-width="0.2" />
<text x="19.527632700435" y="238.4294946758763" font-size="3" text-anchor="middle" dominant-baseline="central" fill="#000">39</text>
<line x1="43.41617345153853" y1="224.5513958136999" x2="13.984225600017757" y2="231.822005123515" stroke="#000" stroke-width="0.3" stroke-dasharray="2 1.5" />
<line x1="13.984225600017757" y1="231.822005123515" x2="34.57189829596322" y2="210.61491795779816" stroke="#000" stroke-width="0.3" />
<text x="24.27806194799049" y="221.21846154065656" font-size="3" text-anchor="middle" dominant-baseline="central" fill="#000">27</text>
<line x1="34.57189829596322" y1="210.61491795779816" x2="43.41617345153853" y2="224.5513958136999" stroke="#000" stroke-width="0.3" stroke-dasharray="2 1.5" />
<line x1="42.16559451789677" y1="175.8805214097198" x2="29.29672891181053" y2="169.59016991977722" stroke="#000" stroke-width="0.3" />
<text x="35.73116171485365" y="172.7353456647485" font-size="3" text-anchor="middle" dominant-baseline="central" fill="#000">40</text>
<line x1="29.29672891181053" y1="169.59016991977722" x2="38.87633617293844" y2="166.3009122326704" stroke="#000" stroke-width="0.3" />
<text x="34.086532542374485" y="167.94554107622383" font-size="3" text-anchor="middle" dominant-baseline="central" fill="#000">32</text>
<line x1="38.87633617293844" y1="166.3009122326704" x2="42.16559451789677" y2="175.8805214097198" stroke="#000" stroke-width="0.3" stroke-dasharray="2 1.5" />
</svg>