<svg xmlns="http://www.w3.org/2000/svg" width="215.9mm" height="279.4mm" viewBox="0 0 215.9 279.4">
<rect x="0" y="0" width="215.9" height="279.4" fill="none" stroke="#ccc" stroke-width="0.15" />
<line x1="41.95740100992448" y1="114.9718253749232" x2="69.32281392195966" y2="114.9718253749232" stroke="#000" stroke-width="0.3" stroke-dasharray="2 1.5" />
<line x1="69.32281392195966" y1="114.9718253749232" x2="47.17551490926766" y2="131.0144065012745" stroke="#000" stroke-width="0.3" />
<polygon points="69.32281392195966,114.9718253749232 47.17551490926766,131.0144065012745 59.12937211298117,135.86268082476346 70.20302161932719,127.84139026158782" fill="none" stroke="#666" stroke-width="0.2" />
<text x="57.19323597386882" y="121.53537277625094" font-size="3" text-anchor="middle" dominant-baseline="central" fill="#000">1</text>
<line x1="47.17551490926766" y1="131.0144065012745" x2="41.95740100992448" y2="114.9718253749232" stroke="#000" stroke-width="0.3" />
<polygon points="47.17551490926766,131.0144065012745 41.95740100992448,114.9718253749232 36.844897034219755,121.06971621624828 39.45395398389135,129.09100677942394" fill="none" stroke="#666" stroke-width="0.2" />
<text x="46.27818515010383" y="122.43634845945411" font-size="3" text-anchor="middle" dominant-baseline="central" fill="#000">2</text>
<line x1="69.32281392195966" y1="114.9718253749232" x2="41.95740100992448" y2="114.9718253749232" stroke="#000" stroke-width="0.3" stroke-dasharray="2 1.5" />
<line x1="41.95740100992448" y1="114.9718253749232" x2="56.11934715378051" y2="104.71349385301136" stroke="#000" stroke-width="0.3" stroke-dasharray="2 1.5" />
<line x1="56.11934715378051" y1="104.71349385301136" x2="69.32281392195966" y2="114.9718253749232" stroke="#000" stroke-width="0.3" />
<polygon points="56.11934715378051,104.71349385301136 69.32281392195966,114.9718253749232 70.12527983867962,107.12585578717358 63.52354645459004,101.99669002621765" fill="none" stroke="#666" stroke-width="0.2" />
<text x="61.61672754334412" y="111.26406893695679" font-size="3" text-anchor="middle" dominant-baseline="central" fill="#000">3</text>
<line x1="56.11934715378051" y1="104.71349385301136" x2="42.27967977859725" y2="48.62890384016753" stroke="#000" stroke-width="0.3" stroke-dasharray="2 1.5" />
<line x1="42.27967977859725" y1="48.62890384016753" x2="72.35970881706766" y2="100.73661651551471" stroke="#000" stroke-width="0.3" />
<polygon points="42.27967977859725,48.62890384016753 72.35970881706766,100.73661651551471 85.68278662758892,75.67767673128975 70.64277210835373,49.62382039361615" fill="none" stroke="#666" stroke-width="0.2" />
<text x="55.76079192576174" y="75.5826620582438" font-size="3" text-anchor="middle" dominant-baseline="central" fill="#000">6</text>
<line x1="72.35970881706766" y1="100.73661651551471" x2="56.11934715378051" y2="104.71349385301136" stroke="#000" stroke-width="0.3" />
<text x="64.23952798542408" y="102.72505518426303" font-size="3" text-anchor="middle" dominant-baseline="central" fill="#000">3</text>
<line x1="42.27967977859725" y1="48.62890384016753" x2="56.11934715378051" y2="104.71349385301136" stroke="#000" stroke-width="0.3" stroke-dasharray="2 1.5" />
<line x1="56.11934715378051" y1="104.71349385301136" x2="26.85197986569217" y2="54.013554453644915" stroke="#000" stroke-width="0.3" stroke-dasharray="2 1.5" />
<line x1="26.85197986569217" y1="54.013554453644915" x2="42.27967977859725" y2="48.62890384016753" stroke="#000" stroke-width="0.3" stroke-dasharray="2 1.5" />
<line x1="21.94108099111534" y1="21.091540179246053" x2="42.27967977859725" y2="48.62890384016753" stroke="#000" stroke-width="0.3" stroke-dasharray="2 1.5" />
<line x1="42.27967977859725" y1="48.62890384016753" x2="26.85197986569217" y2="54.013554453644915" stroke="#000" stroke-width="0.3" stroke-dasharray="2 1.5" />
<line x1="26.85197986569217" y1="54.013554453644915" x2="21.94108099111534" y2="21.091540179246053" stroke="#000" stroke-width="0.3" />
<polygon points="26.85197986569217,54.013554453644915 21.94108099111534,21.091540179246053 10,31.286403297676504 12.455449437288417,47.74741043487594" fill="none" stroke="#666" stroke-width="0.2" />
<text x="26.176832662633164" y="37.28698384983577" font-size="3" text-anchor="middle" dominant-baseline="central" fill="#000">7</text>
<line x1="42.27967977859725" y1="48.62890384016753" x2="21.94108099111534" y2="21.091540179246053" stroke="#000" stroke-width="0.3" stroke-dasharray="2 1.5" />
<line x1="21.94108099111534" y1="21.091540179246053" x2="37.17819163964528" y2="14.429278952800626" stroke="#000" stroke-width="0.3" />
<polygon points="21.94108099111534,21.091540179246053 37.17819163964528,14.429278952800626 30.70400948693462,10 23.08545416266965,13.33113061322272" fill="none" stroke="#666" stroke-width="0.2" />
<text x="30.280749102149677" y="19.409650709324623" font-size="3" text-anchor="middle" dominant-baseline="central" fill="#000">8</text>
<line x1="37.17819163964528" y1="14.429278952800626" x2="42.27967977859725" y2="48.62890384016753" stroke="#000" stroke-width="0.3" />
<polygon points="37.17819163964528,14.429278952800626 42.27967977859725,48.62890384016753 54.68415769880601,38.038402362745 52.13341362933002,20.938589919061563" fill="none" stroke="#666" stroke-width="0.2" />
<text x="37.948633559329906" y="31.794655429154687" font-size="3" text-anchor="middle" dominant-baseline="central" fill="#000">9</text>
<line x1="56.11934715378051" y1="104.71349385301136" x2="24.618723865863792" y2="91.03517799096991" stroke="#000" stroke-width="0.3" stroke-dasharray="2 1.5" />
<line x1="24.618723865863792" y1="91.03517799096991" x2="26.85197986569217" y2="54.013554453644915" stroke="#000" stroke-width="0.3" />
<text x="25.73535186577798" y="72.5243662223074" font-size="3" text-anchor="middle" dominant-baseline="central" fill="#000">43</text>
<line x1="26.85197986569217" y1="54.013554453644915" x2="56.11934715378051" y2="104.71349385301136" stroke="#000" stroke-width="0.3" stroke-dasharray="2 1.5" />
<line x1="24.618723865863792" y1="91.03517799096991" x2="56.11934715378051" y2="104.71349385301136" stroke="#000" stroke-width="0.3" stroke-dasharray="2 1.5" />
<line x1="56.11934715378051" y1="104.71349385301136" x2="41.95740100992448" y2="114.9718253749232" stroke="#000" stroke-width="0.3" stroke-dasharray="2 1.5" />
<line x1="41.95740100992448" y1="114.9718253749232" x2="24.618723865863792" y2="91.03517799096991" stroke="#000" stroke-width="0.3" />
<text x="33.28806243789414" y="103.00350168294656" font-size="3" text-anchor="middle" dominant-baseline="central" fill="#000">20</text>
<line x1="170.90085385775154" y1="33.779540352242805" x2="144.48887370925053" y2="37.57998678444572" stroke="#000" stroke-width="0.3" stroke-dasharray="2 1.5" />
<line x1="144.48887370925053" y1="37.57998678444572" x2="149.59845552804592" y2="22.069918449429828" stroke="#000" stroke-width="0.3" stroke-dasharray="2 1.5" />
<line x1="149.59845552804592" y1="22.069918449429828" x2="170.90085385775154" y2="33.779540352242805" stroke="#000" stroke-width="0.3" />
<polygon points="149.59845552804592,22.069918449429828 170.90085385775154,33.779540352242805 170.2591030364503,22.33117554465731 159.6079038715975,16.476364593250835" fill="none" stroke="#666" stroke-width="0.2" />
<text x="159.38258170720107" y="29.502127396737585" font-size="3" text-anchor="middle" dominant-baseline="central" fill="#000">4</text>
<line x1="144.48887370925053" y1="37.57998678444572" x2="170.90085385775154" y2="33.779540352242805" stroke="#000" stroke-width="0.3" stroke-dasharray="2 1.5" />
<line x1="170.90085385775154" y1="33.779540352242805" x2="160.54447714827955" y2="46.40551717983977" stroke="#000" stroke-width="0.3" stroke-dasharray="2 1.5" />
<line x1="160.54447714827955" y1="46.40551717983977" x2="144.48887370925053" y2="37.57998678444572" stroke="#000" stroke-width="0.3" />
<polygon points="160.54447714827955,46.40551717983977 144.48887370925053,37.57998678444572 144.97256241085017,46.20861075890585 153.0003641303647,50.621375956602876" fill="none" stroke="#666" stroke-width="0.2" />
<text x="153.38374812495994" y="40.41535382710602" font-size="3" text-anchor="middle" dominant-baseline="central" fill="#000">5</text>
<line x1="182.17858407870128" y1="89.07847621885034" x2="186.5510485314292" y2="52.38004643084921" stroke="#000" stroke-width="0.3" stroke-dasharray="2 1.5" />
<line x1="186.5510485314292" y1="52.38004643084921" x2="194.4452604019702" y2="75.37108469834165" stroke="#000" stroke-width="0.3" />
<polygon points="186.5510485314292,52.38004643084921 194.4452604019702,75.37108469834165 201.6681227413319,66.46564038325215 197.7210168060614,54.97012124950594" fill="none" stroke="#666" stroke-width="0.2" />
<text x="188.79571478118493" y="64.46011591929921" font-size="3" text-anchor="middle" dominant-baseline="central" fill="#000">13</text>
<line x1="194.4452604019702" y1="75.37108469834165" x2="182.17858407870128" y2="89.07847621885034" stroke="#000" stroke-width="0.3" />
<text x="188.31192224033572" y="82.224780458596" font-size="3" text-anchor="middle" dominant-baseline="central" fill="#000">10</text>
<line x1="186.5510485314292" y1="52.38004643084921" x2="182.17858407870128" y2="89.07847621885034" stroke="#000" stroke-width="0.3" stroke-dasharray="2 1.5" />
<line x1="182.17858407870128" y1="89.07847621885034" x2="172.3400146917558" y2="60.42470697853457" stroke="#000" stroke-width="0.3" stroke-dasharray="2 1.5" />
<line x1="172.3400146917558" y1="60.42470697853457" x2="186.5510485314292" y2="52.38004643084921" stroke="#000" stroke-width="0.3" stroke-dasharray="2 1.5" />
<line x1="186.5510485314292" y1="52.38004643084921" x2="160.54447714827955" y2="46.40551717983977" stroke="#000" stroke-width="0.3" stroke-dasharray="2 1.5" />
<line x1="160.54447714827955" y1="46.40551717983977" x2="170.90085385775154" y2="33.779540352242805" stroke="#000" stroke-width="0.3" stroke-dasharray="2 1.5" />
<line x1="170.90085385775154" y1="33.779540352242805" x2="186.5510485314292" y2="52.38004643084921" stroke="#000" stroke-width="0.3" />
<polygon points="170.90085385775154,33.779540352242805 186.5510485314292,52.38004643084921 190.07870229445234,41.46984204172655 182.25360495761353,32.169589002423336" fill="none" stroke="#666" stroke-width="0.2" />
<text x="177.3486226629842" y="44.2386575406263" font-size="3" text-anchor="middle" dominant-baseline="central" fill="#000">14</text>
<line x1="160.54447714827955" y1="46.40551717983977" x2="186.5510485314292" y2="52.38004643084921" stroke="#000" stroke-width="0.3" stroke-dasharray="2 1.5" />
<line x1="186.5510485314292" y1="52.38004643084921" x2="172.3400146917558" y2="60.42470697853457" stroke="#000" stroke-width="0.3" stroke-dasharray="2 1.5" />
<line x1="172.3400146917558" y1="60.42470697853457" x2="160.54447714827955" y2="46.40551717983977" stroke="#000" stroke-width="0.3" />
<polygon points="172.3400146917558,60.42470697853457 160.54447714827955,46.40551717983977 157.8856856146707,54.628529646903964 163.7834543864088,61.63812454625136" fill="none" stroke="#666" stroke-width="0.2" />
<text x="167.81957466431234" y="52.25624818289059" font-size="3" text-anchor="middle" dominant-baseline="central" fill="#000">15</text>
<line x1="118.61720238718495" y1="92.83279242879183" x2="99.1480486184347" y2="108.77223507452895" stroke="#000" stroke-width="0.3" stroke-dasharray="2 1.5" />
<line x1="99.1480486184347" y1="108.77223507452895" x2="103.85527671308279" y2="84.66706253825944" stroke="#000" stroke-width="0.3" />
<polygon points="99.1480486184347,108.77223507452895 103.85527671308279,84.66706253825944 93.03640067491298,88.8104644344676 90.68278662758892,100.86305070260234" fill="none" stroke="#666" stroke-width="0.2" />
<text x="103.26829364189055" y="97.06463430488878" font-size="3" text-anchor="middle" dominant-baseline="central" fill="#000">16</text>
<line x1="103.85527671308279" y1="84.66706253825944" x2="118.61720238718495" y2="92.83279242879183" stroke="#000" stroke-width="0.3" />
<polygon points="103.85527671308279,84.66706253825944 118.61720238718495,92.83279242879183 118.19301292487236,84.88658968651788 110.81205008782128,80.80372474125167" fill="none" stroke="#666" stroke-width="0.2" />
<text x="110.36496514775448" y="90.32500872452829" font-size="3" text-anchor="middle" dominant-baseline="central" fill="#000">17</text>
<line x1="99.1480486184347" y1="108.77223507452895" x2="118.61720238718495" y2="92.83279242879183" stroke="#000" stroke-width="0.3" stroke-dasharray="2 1.5" />
<line x1="118.61720238718495" y1="92.83279242879183" x2="115.73578915672545" y2="107.58811962437677" stroke="#000" stroke-width="0.3" stroke-dasharray="2 1.5" />
<line x1="115.73578915672545" y1="107.58811962437677" x2="99.1480486184347" y2="108.77223507452895" stroke="#000" stroke-width="0.3" />
<polygon points="115.73578915672545,107.58811962437677 99.1480486184347,108.77223507452895 103.76862993306825,115.1113024273072 112.06250020221363,114.5192447022311" fill="none" stroke="#666" stroke-width="0.2" />
<text x="107.3137520740774" y="106.3847461288497" font-size="3" text-anchor="middle" dominant-baseline="central" fill="#000">18</text>
<line x1="144.48887370925053" y1="37.57998678444572" x2="125.50740813955844" y2="18.825252457383378" stroke="#000" stroke-width="0.3" stroke-dasharray="2 1.5" />
<line x1="125.50740813955844" y1="18.825252457383378" x2="149.59845552804592" y2="22.069918449429828" stroke="#000" stroke-width="0.3" />
<polygon points="125.50740813955844,18.825252457383378 149.59845552804592,22.069918449429828 144.8735600777426,11.62233299602321 132.82803638349887,10" fill="none" stroke="#666" stroke-width="0.2" />
<text x="137.3126709074868" y="22.231478580050148" font-size="3" text-anchor="middle" dominant-baseline="central" fill="#000">25</text>
<line x1="149.59845552804592" y1="22.069918449429828" x2="144.48887370925053" y2="37.57998678444572" stroke="#000" stroke-width="0.3" stroke-dasharray="2 1.5" />
<line x1="125.50740813955844" y1="18.825252457383378" x2="144.48887370925053" y2="37.57998678444572" stroke="#000" stroke-width="0.3" stroke-dasharray="2 1.5" />
<line x1="144.48887370925053" y1="37.57998678444572" x2="114.46416127148026" y2="33.53615416078148" stroke="#000" stroke-width="0.3" />
<polygon points="144.48887370925053,37.57998678444572 114.46416127148026,33.53615416078148 120.35280633145712,46.55699729180564 135.36516255034226,48.57891360363777" fill="none" stroke="#666" stroke-width="0.2" />
<text x="129.71677841668077" y="33.77417734597006" font-size="3" text-anchor="middle" dominant-baseline="central" fill="#000">26</text>
<line x1="114.46416127148026" y1="33.53615416078148" x2="125.50740813955844" y2="18.825252457383378" stroke="#000" stroke-width="0.3" />
<text x="119.98578470551935" y="26.18070330908243" font-size="3" text-anchor="middle" dominant-baseline="central" fill="#000">22</text>
<line x1="175.87236244474337" y1="135.16506071856867" x2="146.7752675651901" y2="119.61004674819925" stroke="#000" stroke-width="0.3" />
<text x="161.32381500496672" y="127.38755373338395" font-size="3" text-anchor="middle" dominant-baseline="central" fill="#000">42</text>
<line x1="146.7752675651901" y1="119.61004674819925" x2="172.5831047576366" y2="125.58545345744076" stroke="#000" stroke-width="0.3" stroke-dasharray="2 1.5" />
<line x1="172.5831047576366" y1="125.58545345744076" x2="175.87236244474337" y2="135.16506071856867" stroke="#000" stroke-width="0.3" stroke-dasharray="2 1.5" />
<line x1="172.5831047576366" y1="125.58545345744076" x2="146.7752675651901" y2="119.61004674819925" stroke="#000" stroke-width="0.3" stroke-dasharray="2 1.5" />
<line x1="146.7752675651901" y1="119.61004674819925" x2="182.16271201876452" y2="122.29619577033394" stroke="#000" stroke-width="0.3" stroke-dasharray="2 1.5" />
<line x1="182.16271201876452" y1="122.29619577033394" x2="172.5831047576366" y2="125.58545345744076" stroke="#000" stroke-width="0.3" stroke-dasharray="2 1.5" />
<line x1="182.16271201876452" y1="122.29619577033394" x2="146.7752675651901" y2="119.61004674819925" stroke="#000" stroke-width="0.3" stroke-dasharray="2 1.5" />
<line x1="146.7752675651901" y1="119.61004674819925" x2="169.2938477283813" y2="116.0058481122343" stroke="#000" stroke-width="0.3" stroke-dasharray="2 1.5" />
<line x1="169.2938477283813" y1="116.0058481122343" x2="182.16271201876452" y2="122.29619577033394" stroke="#000" stroke-width="0.3" stroke-dasharray="2 1.5" />
<line x1="169.2938477283813" y1="116.0058481122343" x2="146.7752675651901" y2="119.61004674819925" stroke="#000" stroke-width="0.3" stroke-dasharray="2 1.5" />
<line x1="146.7752675651901" y1="119.61004674819925" x2="166.00458938342297" y2="106.42623893518495" stroke="#000" stroke-width="0.3" stroke-dasharray="2 1.5" />
<line x1="166.00458938342297" y1="106.42623893518495" x2="169.2938477283813" y2="116.0058481122343" stroke="#000" stroke-width="0.3" stroke-dasharray="2 1.5" />
<line x1="178.87345498950924" y1="112.71659042512749" x2="182.16271201876452" y2="122.29619577033394" stroke="#000" stroke-width="0.3" />
<polygon points="178.87345498950924,112.71659042512749 182.16271201876452,122.29619577033394 185.17223989953328,118.58559162233024 183.5276113849056,113.795788949727" fill="none" stroke="#666" stroke-width="0.2" />
<text x="178.8156438186221" y="118.0909434524345" font-size="3" text-anchor="middle" dominant-baseline="central" fill="#000">30</text>
<line x1="182.16271201876452" y1="122.29619577033394" x2="169.2938477283813" y2="116.0058481122343" stroke="#000" stroke-width="0.3" stroke-dasharray="2 1.5" />
<line x1="169.2938477283813" y1="116.0058481122343" x2="178.87345498950924" y2="112.71659042512749" stroke="#000" stroke-width="0.3" />
<polygon points="169.2938477283813,116.0058481122343 178.87345498950924,112.71659042512749 175.1628500993845,109.70706194245304 170.37304646882058,111.35169078600646" fill="none" stroke="#666" stroke-width="0.2" />
<text x="174.66820171364907" y="116.06365895419569" font-size="3" text-anchor="middle" dominant-baseline="central" fill="#000">31</text>
<line x1="166.00458938342297" y1="106.42623893518495" x2="146.7752675651901" y2="119.61004674819925" stroke="#000" stroke-width="0.3" stroke-dasharray="2 1.5" />
<line x1="146.7752675651901" y1="119.61004674819925" x2="115.73578915672545" y2="107.58811962437677" stroke="#000" stroke-width="0.3" />
<text x="131.25552836095778" y="113.59908318628801" font-size="3" text-anchor="middle" dominant-baseline="central" fill="#000">24</text>
<line x1="115.73578915672545" y1="107.58811962437677" x2="166.00458938342297" y2="106.42623893518495" stroke="#000" stroke-width="0.3" stroke-dasharray="2 1.5" />
<line x1="166.00458938342297" y1="106.42623893518495" x2="115.73578915672545" y2="107.58811962437677" stroke="#000" stroke-width="0.3" stroke-dasharray="2 1.5" />
<line x1="115.73578915672545" y1="107.58811962437677" x2="175.58419664455084" y2="103.1369812480781" stroke="#000" stroke-width="0.3" stroke-dasharray="2 1.5" />
<line x1="175.58419664455084" y1="103.1369812480781" x2="166.00458938342297" y2="106.42623893518495" stroke="#000" stroke-width="0.3" />
<polygon points="175.58419664455084,103.1369812480781 166.00458938342297,106.42623893518495 169.7151942735477,109.4357674178594 174.50499790411163,107.79113857430596" fill="none" stroke="#666" stroke-width="0.2" />
<text x="170.2098426592831" y="103.07917040611676" font-size="3" text-anchor="middle" dominant-baseline="central" fill="#000">32</text>
<line x1="175.58419664455084" y1="103.1369812480781" x2="115.73578915672545" y2="107.58811962437677" stroke="#000" stroke-width="0.3" stroke-dasharray="2 1.5" />
<line x1="115.73578915672545" y1="107.58811962437677" x2="152.1650231162938" y2="99.38394422207872" stroke="#000" stroke-width="0.3" stroke-dasharray="2 1.5" />
<line x1="152.1650231162938" y1="99.38394422207872" x2="175.58419664455084" y2="103.1369812480781" stroke="#000" stroke-width="0.3" stroke-dasharray="2 1.5" />
<line x1="152.1650231162938" y1="99.38394422207872" x2="115.73578915672545" y2="107.58811962437677" stroke="#000" stroke-width="0.3" stroke-dasharray="2 1.5" />
<line x1="115.73578915672545" y1="107.58811962437677" x2="118.61720238718495" y2="92.83279242879183" stroke="#000" stroke-width="0.3" stroke-dasharray="2 1.5" />
<line x1="118.61720238718495" y1="92.83279242879183" x2="152.1650231162938" y2="99.38394422207872" stroke="#000" stroke-width="0.3" />
<text x="135.39111275173937" y="96.10836832543528" font-size="3" text-anchor="middle" dominant-baseline="central" fill="#000">45</text>
<line x1="182.17858407870128" y1="89.07847621885034" x2="175.58419664455084" y2="103.1369812480781" stroke="#000" stroke-width="0.3" />
<text x="178.88139036162607" y="96.10772873346423" font-size="3" text-anchor="middle" dominant-baseline="central" fill="#000">33</text>
<line x1="175.58419664455084" y1="103.1369812480781" x2="152.1650231162938" y2="99.38394422207872" stroke="#000" stroke-width="0.3" stroke-dasharray="2 1.5" />
<line x1="152.1650231162938" y1="99.38394422207872" x2="182.17858407870128" y2="89.07847621885034" stroke="#000" stroke-width="0.3" stroke-dasharray="2 1.5" />
<line x1="142.32645372934834" y1="70.73017498176293" x2="182.17858407870128" y2="89.07847621885034" stroke="#000" stroke-width="0.3" stroke-dasharray="2 1.5" />
<line x1="182.17858407870128" y1="89.07847621885034" x2="152.1650231162938" y2="99.38394422207872" stroke="#000" stroke-width="0.3" stroke-dasharray="2 1.5" />
<line x1="152.1650231162938" y1="99.38394422207872" x2="142.32645372934834" y2="70.73017498176293" stroke="#000" stroke-width="0.3" />
<text x="147.2457384228211" y="85.05705960192083" font-size="3" text-anchor="middle" dominant-baseline="central" fill="#000">26</text>
<line x1="182.17858407870128" y1="89.07847621885034" x2="142.32645372934834" y2="70.73017498176293" stroke="#000" stroke-width="0.3" stroke-dasharray="2 1.5" />
<line x1="142.32645372934834" y1="70.73017498176293" x2="172.3400146917558" y2="60.42470697853457" stroke="#000" stroke-width="0.3" stroke-dasharray="2 1.5" />
<line x1="172.3400146917558" y1="60.42470697853457" x2="182.17858407870128" y2="89.07847621885034" stroke="#000" stroke-width="0.3" stroke-dasharray="2 1.5" />
<line x1="172.3400146917558" y1="60.42470697853457" x2="142.32645372934834" y2="70.73017498176293" stroke="#000" stroke-width="0.3" stroke-dasharray="2 1.5" />
<line x1="142.32645372934834" y1="70.73017498176293" x2="154.35829798802519" y2="56.91326098889424" stroke="#000" stroke-width="0.3" />
<text x="148.34237585868675" y="63.82171798532858" font-size="3" text-anchor="middle" dominant-baseline="central" fill="#000">5</text>
<line x1="154.35829798802519" y1="56.91326098889424" x2="172.3400146917558" y2="60.42470697853457" stroke="#000" stroke-width="0.3" />
<text x="163.3491563398905" y="58.668983983714405" font-size="3" text-anchor="middle" dominant-baseline="central" fill="#000">15</text>
<line x1="166.00458938342297" y1="106.42623893518495" x2="178.87345498950924" y2="112.71659042512749" stroke="#000" stroke-width="0.3" />
<polygon points="166.00458938342297,106.42623893518495 178.87345498950924,112.71659042512749 178.17237918396467,105.99645631020738 171.73794638092156,102.8512805652361" fill="none" stroke="#666" stroke-width="0.2" />
<text x="171.64855489831896" y="111.18856076705416" font-size="3" text-anchor="middle" dominant-baseline="central" fill="#000">40</text>
<line x1="178.87345498950924" y1="112.71659042512749" x2="169.2938477283813" y2="116.0058481122343" stroke="#000" stroke-width="0.3" />
<text x="174.08365135894527" y="114.3612192686809" font-size="3" text-anchor="middle" dominant-baseline="central" fill="#000">31</text>
<line x1="169.2938477283813" y1="116.0058481122343" x2="166.00458938342297" y2="106.42623893518495" stroke="#000" stroke-width="0.3" stroke-dasharray="2 1.5" />
<line x1="172.5831047576366" y1="125.58545345744076" x2="185.4519697058713" y2="131.87580303146188" stroke="#000" stroke-width="0.3" />
<polygon points="172.5831047576366,125.58545345744076 185.4519697058713,131.87580303146188 184.7508932984211,125.15566965866272 178.31646082430373,122.01049487165217" fill="none" stroke="#666" stroke-width="0.2" />
<text x="178.2270701053214" y="130.34777441039597" font-size="3" text-anchor="middle" dominant-baseline="central" fill="#000">41</text>
<line x1="185.4519697058713" y1="131.87580303146188" x2="175.87236244474337" y2="135.16506071856867" stroke="#000" stroke-width="0.3" />
<text x="180.66216607530734" y="133.52043187501528" font-size="3" text-anchor="middle" dominant-baseline="central" fill="#000">28</text>
<line x1="175.87236244474337" y1="135.16506071856867" x2="172.5831047576366" y2="125.58545345744076" stroke="#000" stroke-width="0.3" stroke-dasharray="2 1.5" />
<line x1="185.4519697058713" y1="131.87580303146183" x2="172.5831047576366" y2="125.58545345744076" stroke="#000" stroke-width="0.3" />
<text x="179.01753723175395" y="128.73062824445128" font-size="3" text-anchor="middle" dominant-baseline="central" fill="#000">41</text>
<line x1="172.5831047576366" y1="125.58545345744076" x2="182.16271201876452" y2="122.29619577033394" stroke="#000" stroke-width="0.3" stroke-dasharray="2 1.5" />
<line x1="182.16271201876452" y1="122.29619577033394" x2="185.4519697058713" y2="131.87580303146183" stroke="#000" stroke-width="0.3" />
<text x="183.80734086231791" y="127.08599940089789" font-size="3" text-anchor="middle" dominant-baseline="central" fill="#000">29</text>
<line x1="33.91796031481793" y1="140.86268082476346" x2="34.7854180035101" y2="175.0856630909297" stroke="#000" stroke-width="0.3" stroke-dasharray="2 1.5" />
<line x1="34.7854180035101" y1="175.0856630909297" x2="17.802133556610713" y2="144.96577642009078" stroke="#000" stroke-width="0.3" />
<polygon points="34.7854180035101,175.0856630909297 17.802133556610713,144.96577642009078 10,159.28906186656027 18.491642223449688,174.3490052019797" fill="none" stroke="#666" stroke-width="0.2" />
<text x="27.861702304639753" y="159.141634684083" font-size="3" text-anchor="middle" dominant-baseline="central" fill="#000">23</text>
<line x1="17.802133556610713" y1="144.96577642009078" x2="33.91796031481793" y2="140.86268082476346" stroke="#000" stroke-width="0.3" />
<text x="25.860046935714323" y="142.91422862242712" font-size="3" text-anchor="middle" dominant-baseline="central" fill="#000">18</text>
<line x1="34.7854180035101" y1="175.0856630909297" x2="33.91796031481793" y2="140.86268082476346" stroke="#000" stroke-width="0.3" stroke-dasharray="2 1.5" />
<line x1="33.91796031481793" y1="140.86268082476346" x2="50.26680108716272" y2="169.8573589061038" stroke="#000" stroke-width="0.3" />
<polygon points="33.91796031481793,140.86268082476346 50.26680108716272,169.8573589061038 57.777462126612676,156.06915307683082 49.603041740440275,141.57181403616062" fill="none" stroke="#666" stroke-width="0.2" />
<text x="40.52445445751277" y="156.24410543539523" font-size="3" text-anchor="middle" dominant-baseline="central" fill="#000">24</text>
<line x1="50.26680108716272" y1="169.8573589061038" x2="34.7854180035101" y2="175.0856630909297" stroke="#000" stroke-width="0.3" stroke-dasharray="2 1.5" />
<line x1="58.31750328309377" y1="227.84226071017457" x2="74.77129228954831" y2="197.69829913111045" stroke="#000" stroke-width="0.3" stroke-dasharray="2 1.5" />
<line x1="74.77129228954831" y1="197.69829913111045" x2="75.79400150567045" y2="227.23720362922867" stroke="#000" stroke-width="0.3" />
<polygon points="74.77129228954831,197.69829913111045 75.79400150567045,227.23720362922867 87.3538860008872,219.44339381825026 86.84253139282613,204.67394156919116" fill="none" stroke="#666" stroke-width="0.2" />
<text x="73.48372477124019" y="212.5300344698434" font-size="3" text-anchor="middle" dominant-baseline="central" fill="#000">27</text>
<line x1="75.79400150567045" y1="227.23720362922867" x2="58.31750328309377" y2="227.84226071017457" stroke="#000" stroke-width="0.3" stroke-dasharray="2 1.5" />
<line x1="74.77129228954831" y1="197.69829913111045" x2="58.31750328309377" y2="227.84226071017457" stroke="#000" stroke-width="0.3" stroke-dasharray="2 1.5" />
<line x1="58.31750328309377" y1="227.84226071017457" x2="50.26680108716272" y2="169.8573589061038" stroke="#000" stroke-width="0.3" stroke-dasharray="2 1.5" />
<line x1="50.26680108716272" y1="169.8573589061038" x2="74.77129228954831" y2="197.69829913111045" stroke="#000" stroke-width="0.3" />
<polygon points="50.26680108716272,169.8573589061038 74.77129228954831,197.69829913111045 79.78154557895456,180.93626759390457 67.52929997776178,167.01579748140125" fill="none" stroke="#666" stroke-width="0.2" />
<text x="61.16786980306544" y="184.96708131507654" font-size="3" text-anchor="middle" dominant-baseline="central" fill="#000">44</text>
<line x1="50.26680108716272" y1="169.8573589061038" x2="43.059660844260925" y2="234.6806190236598" stroke="#000" stroke-width="0.3" stroke-dasharray="2 1.5" />
<line x1="43.059660844260925" y1="234.6806190236598" x2="34.7854180035101" y2="175.0856630909297" stroke="#000" stroke-width="0.3" />
<text x="38.92253942388551" y="204.88314105729475" font-size="3" text-anchor="middle" dominant-baseline="central" fill="#000">35</text>
<line x1="34.7854180035101" y1="175.0856630909297" x2="50.26680108716272" y2="169.8573589061038" stroke="#000" stroke-width="0.3" stroke-dasharray="2 1.5" />
<line x1="43.059660844260925" y1="234.6806190236598" x2="50.26680108716272" y2="169.8573589061038" stroke="#000" stroke-width="0.3" stroke-dasharray="2 1.5" />
<line x1="50.26680108716272" y1="169.8573589061038" x2="58.31750328309377" y2="227.84226071017457" stroke="#000" stroke-width="0.3" stroke-dasharray="2 1.5" />
<line x1="58.31750328309377" y1="227.84226071017457" x2="43.059660844260925" y2="234.6806190236598" stroke="#000" stroke-width="0.3" />
<polygon points="58.31750328309377,227.84226071017457 43.059660844260925,234.6806190236598 49.609464779363236,239.07416642082163 57.23838599877966,235.654987264079" fill="none" stroke="#666" stroke-width="0.2" />
<text x="49.95240372268613" y="229.61886827022636" font-size="3" text-anchor="middle" dominant-baseline="central" fill="#000">38</text>
<line x1="58.31750328309377" y1="227.84226071017457" x2="81.53143549043051" y2="243.10147080841477" stroke="#000" stroke-width="0.3" stroke-dasharray="2 1.5" />
<line x1="81.53143549043051" y1="243.10147080841477" x2="54.20064873771157" y2="244.04770451662512" stroke="#000" stroke-width="0.3" />
<text x="67.86604211407104" y="243.57458766251995" font-size="3" text-anchor="middle" dominant-baseline="central" fill="#000">36</text>
<line x1="54.20064873771157" y1="244.04770451662512" x2="58.31750328309377" y2="227.84226071017457" stroke="#000" stroke-width="0.3" />
<text x="56.259076010402666" y="235.94498261339984" font-size="3" text-anchor="middle" dominant-baseline="central" fill="#000">38</text>
<line x1="81.53143549043051" y1="243.10147080841477" x2="58.31750328309377" y2="227.84226071017457" stroke="#000" stroke-width="0.3" stroke-dasharray="2 1.5" />
<line x1="58.31750328309377" y1="227.84226071017457" x2="75.79400150567045" y2="227.23720362922867" stroke="#000" stroke-width="0.3" stroke-dasharray="2 1.5" />
<line x1="75.79400150567045" y1="227.23720362922867" x2="81.53143549043051" y2="243.10147080841477" stroke="#000" stroke-width="0.3" />
<text x="78.66271849805048" y="235.16933721882174" font-size="3" text-anchor="middle" dominant-baseline="central" fill="#000">39</text>
<line x1="122.17632071936974" y1="157.15940497227027" x2="94.3661125151839" y2="168.0852017922341" stroke="#000" stroke-width="0.3" stroke-dasharray="2 1.5" />
<line x1="94.3661125151839" y1="168.0852017922341" x2="92.3538860008872" y2="151.33573795878522" stroke="#000" stroke-width="0.3" />
<text x="93.35999925803554" y="159.71046987550966" font-size="3" text-anchor="middle" dominant-baseline="central" fill="#000">17</text>
<line x1="92.3538860008872" y1="151.33573795878522" x2="122.17632071936974" y2="157.15940497227027" stroke="#000" stroke-width="0.3" />
<polygon points="92.3538860008872,151.33573795878522 122.17632071936974,157.15940497227027 117.05017884514314,143.77451433150597 102.13896148590186,140.86268082476346" fill="none" stroke="#666" stroke-width="0.2" />
<text x="106.92011905567043" y="156.0142026748291" font-size="3" text-anchor="middle" dominant-baseline="central" fill="#000">21</text>
<line x1="94.3661125151839" y1="168.0852017922341" x2="122.17632071936974" y2="157.15940497227027" stroke="#000" stroke-width="0.3" stroke-dasharray="2 1.5" />
<line x1="122.17632071936974" y1="157.15940497227027" x2="127.91393324429276" y2="174.63635358552096" stroke="#000" stroke-width="0.3" />
<polygon points="122.17632071936974,157.15940497227027 127.91393324429276,174.63635358552096 133.4703095583623,167.97207142223908 130.60150329590078,159.23359711561372" fill="none" stroke="#666" stroke-width="0.2" />
<text x="123.33493020364563" y="166.45933006025007" font-size="3" text-anchor="middle" dominant-baseline="central" fill="#000">22</text>
<line x1="127.91393324429276" y1="174.63635358552096" x2="94.3661125151839" y2="168.0852017922341" stroke="#000" stroke-width="0.3" />
<polygon points="127.91393324429276,174.63635358552096 94.3661125151839,168.0852017922341 100.13260698014636,183.14211803219933 116.9065173447008,186.4176939288428" fill="none" stroke="#666" stroke-width="0.2" />
<text x="111.48500711570308" y="169.59414646620093" font-size="3" text-anchor="middle" dominant-baseline="central" fill="#000">45</text>
</svg>