<svg xmlns="http://www.w3.org/2000/svg" width="215.9mm" height="279.4mm" viewBox="0 0 215.9 279.4">
<rect x="0" y="0" width="215.9" height="279.4" fill="none" stroke="#ccc" stroke-width="0.15" />
<line x1="115.29704486959187" y1="37.30303714105048" x2="137.66353468260007" y2="37.30303714105048" stroke="#000" stroke-width="0.3" stroke-dasharray="2 1.5" />
<line x1="137.66353468260007" y1="37.30303714105048" x2="132.07193332041336" y2="52.09708754937652" stroke="#000" stroke-width="0.3" />
<polygon points="137.66353468260007,37.30303714105048 132.07193332041336,52.09708754937652 139.38745382429045,50.63521549216969 142.18325450538381,43.23819028800668" fill="none" stroke="#666" stroke-width="0.2" />
<text x="133.18398727018496" y="44.06366864257087" font-size="3" text-anchor="middle" dominant-baseline="central" fill="#000">1</text>
<line x1="132.07193332041336" y1="52.09708754937652" x2="115.29704486959187" y2="37.30303714105048" stroke="#000" stroke-width="0.3" stroke-dasharray="2 1.5" />
<line x1="115.29704486959187" y1="37.30303714105048" x2="132.07193332041336" y2="52.09708754937652" stroke="#000" stroke-width="0.3" stroke-dasharray="2 1.5" />
<line x1="132.07193332041336" y1="52.09708754937652" x2="118.09287191452684" y2="59.49409880312987" stroke="#000" stroke-width="0.3" stroke-dasharray="2 1.5" />
<line x1="118.09287191452684" y1="59.49409880312987" x2="115.29704486959187" y2="37.30303714105048" stroke="#000" stroke-width="0.3" stroke-dasharray="2 1.5" />
<line x1="115.29704486959187" y1="37.30303714105048" x2="118.09287191452684" y2="59.49409880312987" stroke="#000" stroke-width="0.3" stroke-dasharray="2 1.5" />
<line x1="118.09287191452684" y1="59.49409880312987" x2="102.715902258969" y2="55.7956210771251" stroke="#000" stroke-width="0.3" />
<polygon points="118.09287191452684,59.49409880312987 102.715902258969,55.7956210771251 105.08075358245655,62.87102837084944 112.76923841023546,64.72026723385181" fill="none" stroke="#666" stroke-width="0.2" />
<text x="110.82531980024754" y="55.89476975653527" font-size="3" text-anchor="middle" dominant-baseline="central" fill="#000">2</text>
<line x1="102.715902258969" y1="55.7956210771251" x2="115.29704486959187" y2="37.30303714105048" stroke="#000" stroke-width="0.3" stroke-dasharray="2 1.5" />
<line x1="115.29704486959187" y1="37.30303714105048" x2="102.715902258969" y2="55.7956210771251" stroke="#000" stroke-width="0.3" stroke-dasharray="2 1.5" />
<line x1="102.715902258969" y1="55.7956210771251" x2="93.62951577241701" y2="42.85083394505123" stroke="#000" stroke-width="0.3" />
<polygon points="102.715902258969,55.7956210771251 93.62951577241701,42.85083394505123 90.72319754122546,49.72158532269049 95.26639078450145,56.19397888872743" fill="none" stroke="#666" stroke-width="0.2" />
<text x="99.64598661173385" y="48.28908384360086" font-size="3" text-anchor="middle" dominant-baseline="central" fill="#000">3</text>
<line x1="93.62951577241701" y1="42.85083394505123" x2="115.29704486959187" y2="37.30303714105048" stroke="#000" stroke-width="0.3" stroke-dasharray="2 1.5" />
<line x1="115.29704486959187" y1="37.30303714105048" x2="93.62951577241701" y2="42.85083394505123" stroke="#000" stroke-width="0.3" stroke-dasharray="2 1.5" />
<line x1="93.62951577241701" y1="42.85083394505123" x2="95.37685297052829" y2="27.13215887385656" stroke="#000" stroke-width="0.3" />
<polygon points="93.62951577241701,42.85083394505123 95.37685297052829,27.13215887385656 88.65254864252262,30.362892762410716 87.77888004346696,38.22223029800804" fill="none" stroke="#666" stroke-width="0.2" />
<text x="96.29216487656396" y="35.19036509075709" font-size="3" text-anchor="middle" dominant-baseline="central" fill="#000">4</text>
<line x1="95.37685297052829" y1="27.13215887385656" x2="115.29704486959187" y2="37.30303714105048" stroke="#000" stroke-width="0.3" stroke-dasharray="2 1.5" />
<line x1="115.29704486959187" y1="37.30303714105048" x2="95.37685297052829" y2="27.13215887385656" stroke="#000" stroke-width="0.3" stroke-dasharray="2 1.5" />
<line x1="95.37685297052829" y1="27.13215887385656" x2="107.08430490240082" y2="16.49893252713589" stroke="#000" stroke-width="0.3" />
<polygon points="95.37685297052829,27.13215887385656 107.08430490240082,16.49893252713589 99.90415138074441,14.474258341067053 94.05042541480815,19.790871514427383" fill="none" stroke="#666" stroke-width="0.2" />
<text x="102.44077219730538" y="23.14799917863925" font-size="3" text-anchor="middle" dominant-baseline="central" fill="#000">5</text>
<line x1="107.08430490240082" y1="16.49893252713589" x2="115.29704486959187" y2="37.30303714105048" stroke="#000" stroke-width="0.3" stroke-dasharray="2 1.5" />
<line x1="115.29704486959187" y1="37.30303714105048" x2="107.08430490240082" y2="16.49893252713589" stroke="#000" stroke-width="0.3" stroke-dasharray="2 1.5" />
<line x1="107.08430490240082" y1="16.49893252713589" x2="122.89811132903384" y2="16.267719251825657" stroke="#000" stroke-width="0.3" />
<polygon points="107.08430490240082,16.49893252713589 122.89811132903384,16.267719251825657 118.8521744122515,10 110.94527119893498,10.115606637655118" fill="none" stroke="#666" stroke-width="0.2" />
<text x="115.0175230589409" y="18.183133524691584" font-size="3" text-anchor="middle" dominant-baseline="central" fill="#000">6</text>
<line x1="122.89811132903384" y1="16.267719251825657" x2="115.29704486959187" y2="37.30303714105048" stroke="#000" stroke-width="0.3" />
<polygon points="122.89811132903384,16.267719251825657 115.29704486959187,37.30303714105048 125.61143864014228,35.08463425252106 129.4119718698633,24.566975307908653" fill="none" stroke="#666" stroke-width="0.2" />
<text x="117.40470913271308" y="26.17366366994436" font-size="3" text-anchor="middle" dominant-baseline="central" fill="#000">7</text>
<line x1="115.29704486959187" y1="37.30303714105048" x2="132.07193332041336" y2="22.508986732724445" stroke="#000" stroke-width="0.3" />
<text x="123.68448909500262" y="29.906011936887463" font-size="3" text-anchor="middle" dominant-baseline="central" fill="#000">7</text>
<line x1="132.07193332041336" y1="22.508986732724445" x2="137.66353468260007" y2="37.30303714105048" stroke="#000" stroke-width="0.3" />
<polygon points="132.07193332041336,22.508986732724445 137.66353468260007,37.30303714105048 142.18325450538381,31.36788399409428 139.38745382429045,23.970858789931263" fill="none" stroke="#666" stroke-width="0.2" />
<text x="133.18398727018496" y="30.542405639530095" font-size="3" text-anchor="middle" dominant-baseline="central" fill="#000">8</text>
<line x1="137.66353468260007" y1="37.30303714105048" x2="115.29704486959187" y2="37.30303714105048" stroke="#000" stroke-width="0.3" stroke-dasharray="2 1.5" />
<line x1="143.30820857031915" y1="40.96712565429107" x2="161.20575927037942" y2="54.38120577534942" stroke="#000" stroke-width="0.3" stroke-dasharray="2 1.5" />
<line x1="161.20575927037942" y1="54.38120577534942" x2="145.31525141706575" y2="70.12133368839946" stroke="#000" stroke-width="0.3" stroke-dasharray="2 1.5" />
<line x1="145.31525141706575" y1="70.12133368839946" x2="143.30820857031915" y2="40.96712565429107" stroke="#000" stroke-width="0.3" stroke-dasharray="2 1.5" />
<line x1="143.30820857031915" y1="40.96712565429107" x2="145.31525141706575" y2="70.12133368839946" stroke="#000" stroke-width="0.3" stroke-dasharray="2 1.5" />
<line x1="145.31525141706575" y1="70.12133368839946" x2="132.07193332041336" y2="52.09708754937652" stroke="#000" stroke-width="0.3" stroke-dasharray="2 1.5" />
<line x1="132.07193332041336" y1="52.09708754937652" x2="143.30820857031915" y2="40.96712565429107" stroke="#000" stroke-width="0.3" />
<text x="137.69007094536624" y="46.53210660183379" font-size="3" text-anchor="middle" dominant-baseline="central" fill="#000">1</text>
<line x1="132.07193332041336" y1="52.09708754937652" x2="145.31525141706575" y2="70.12133368839946" stroke="#000" stroke-width="0.3" stroke-dasharray="2 1.5" />
<line x1="145.31525141706575" y1="70.12133368839946" x2="125.54588315957432" y2="80.58230616972688" stroke="#000" stroke-width="0.3" stroke-dasharray="2 1.5" />
<line x1="125.54588315957432" y1="80.58230616972688" x2="132.07193332041336" y2="52.09708754937652" stroke="#000" stroke-width="0.3" stroke-dasharray="2 1.5" />
<line x1="132.07193332041336" y1="52.09708754937652" x2="125.54588315957432" y2="80.58230616972688" stroke="#000" stroke-width="0.3" stroke-dasharray="2 1.5" />
<line x1="125.54588315957432" y1="80.58230616972688" x2="118.09287191452684" y2="59.49409880312987" stroke="#000" stroke-width="0.3" stroke-dasharray="2 1.5" />
<line x1="118.09287191452684" y1="59.49409880312987" x2="132.07193332041336" y2="52.09708754937652" stroke="#000" stroke-width="0.3" stroke-dasharray="2 1.5" />
<line x1="118.09287191452684" y1="59.49409880312987" x2="125.54588315957432" y2="80.58230616972688" stroke="#000" stroke-width="0.3" stroke-dasharray="2 1.5" />
<line x1="125.54588315957432" y1="80.58230616972688" x2="103.59356439264955" y2="84.86664594508588" stroke="#000" stroke-width="0.3" />
<polygon points="125.54588315957432,80.58230616972688 103.59356439264955,84.86664594508588 110.79537999452435,92.57648850801603 121.77153937798671,90.43431862033653" fill="none" stroke="#666" stroke-width="0.2" />
<text x="114.22493066552018" y="80.9578075228792" font-size="3" text-anchor="middle" dominant-baseline="central" fill="#000">9</text>
<line x1="103.59356439264955" y1="84.86664594508588" x2="118.09287191452684" y2="59.49409880312987" stroke="#000" stroke-width="0.3" stroke-dasharray="2 1.5" />
<line x1="118.09287191452684" y1="59.49409880312987" x2="103.59356439264955" y2="84.86664594508588" stroke="#000" stroke-width="0.3" stroke-dasharray="2 1.5" />
<line x1="103.59356439264955" y1="84.86664594508588" x2="102.57024133954063" y2="62.523599308197255" stroke="#000" stroke-width="0.3" stroke-dasharray="2 1.5" />
<line x1="102.57024133954063" y1="62.523599308197255" x2="118.09287191452684" y2="59.49409880312987" stroke="#000" stroke-width="0.3" />
<text x="110.33155662703373" y="61.00884905566356" font-size="3" text-anchor="middle" dominant-baseline="central" fill="#000">2</text>
<line x1="102.57024133954063" y1="62.523599308197255" x2="103.59356439264955" y2="84.86664594508588" stroke="#000" stroke-width="0.3" stroke-dasharray="2 1.5" />
<line x1="103.59356439264955" y1="84.86664594508588" x2="81.34152260749573" y2="82.60688866892369" stroke="#000" stroke-width="0.3" stroke-dasharray="2 1.5" />
<line x1="81.34152260749573" y1="82.60688866892369" x2="102.57024133954063" y2="62.523599308197255" stroke="#000" stroke-width="0.3" stroke-dasharray="2 1.5" />
<line x1="102.57024133954063" y1="62.523599308197255" x2="81.34152260749573" y2="82.60688866892369" stroke="#000" stroke-width="0.3" stroke-dasharray="2 1.5" />
<line x1="81.34152260749573" y1="82.60688866892369" x2="86.83567322121456" y2="60.925694615339545" stroke="#000" stroke-width="0.3" stroke-dasharray="2 1.5" />
<line x1="86.83567322121456" y1="60.925694615339545" x2="102.57024133954063" y2="62.523599308197255" stroke="#000" stroke-width="0.3" />
<text x="94.7029572803776" y="61.7246469617684" font-size="3" text-anchor="middle" dominant-baseline="central" fill="#000">3</text>
<line x1="86.83567322121456" y1="60.925694615339545" x2="81.34152260749573" y2="82.60688866892369" stroke="#000" stroke-width="0.3" stroke-dasharray="2 1.5" />
<line x1="81.34152260749573" y1="82.60688866892369" x2="60.69869064195416" y2="73.99681578898739" stroke="#000" stroke-width="0.3" />
<polygon points="81.34152260749573,82.60688866892369 60.69869064195416,73.99681578898739 62.415369481365026,84.40646679518808 72.73678546413582,88.71150323515626" fill="none" stroke="#666" stroke-width="0.2" />
<text x="71.71302407907095" y="76.64056796626518" font-size="3" text-anchor="middle" dominant-baseline="central" fill="#000">10</text>
<line x1="60.69869064195416" y1="73.99681578898739" x2="86.83567322121456" y2="60.925694615339545" stroke="#000" stroke-width="0.3" stroke-dasharray="2 1.5" />
<line x1="86.83567322121456" y1="60.925694615339545" x2="60.69869064195416" y2="73.99681578898739" stroke="#000" stroke-width="0.3" stroke-dasharray="2 1.5" />
<line x1="60.69869064195416" y1="73.99681578898739" x2="72.23898095185515" y2="54.837467609771856" stroke="#000" stroke-width="0.3" stroke-dasharray="2 1.5" />
<line x1="72.23898095185515" y1="54.837467609771856" x2="86.83567322121456" y2="60.925694615339545" stroke="#000" stroke-width="0.3" />
<text x="79.53732708653486" y="57.8815811125557" font-size="3" text-anchor="middle" dominant-baseline="central" fill="#000">4</text>
<line x1="72.23898095185515" y1="54.837467609771856" x2="60.69869064195416" y2="73.99681578898739" stroke="#000" stroke-width="0.3" stroke-dasharray="2 1.5" />
<line x1="60.69869064195416" y1="73.99681578898739" x2="43.43591606152188" y2="59.77512530084283" stroke="#000" stroke-width="0.3" stroke-dasharray="2 1.5" />
<line x1="43.43591606152188" y1="59.77512530084283" x2="72.23898095185515" y2="54.837467609771856" stroke="#000" stroke-width="0.3" stroke-dasharray="2 1.5" />
<line x1="72.23898095185515" y1="54.837467609771856" x2="43.43591606152188" y2="59.77512530084283" stroke="#000" stroke-width="0.3" stroke-dasharray="2 1.5" />
<line x1="43.43591606152188" y1="59.77512530084283" x2="60.032365570110954" y2="44.78120218965364" stroke="#000" stroke-width="0.3" stroke-dasharray="2 1.5" />
<line x1="60.032365570110954" y1="44.78120218965364" x2="72.23898095185515" y2="54.837467609771856" stroke="#000" stroke-width="0.3" />
<text x="66.13567326098305" y="49.80933489971275" font-size="3" text-anchor="middle" dominant-baseline="central" fill="#000">5</text>
<line x1="60.032365570110954" y1="44.78120218965364" x2="43.43591606152188" y2="59.77512530084283" stroke="#000" stroke-width="0.3" stroke-dasharray="2 1.5" />
<line x1="43.43591606152188" y1="59.77512530084283" x2="31.034160298655845" y2="41.16178813219898" stroke="#000" stroke-width="0.3" />
<polygon points="43.43591606152188,59.77512530084283 31.034160298655845,41.16178813219898 26.689264371914817,50.775824729506354 32.89014225334782,60.08249331382828" fill="none" stroke="#666" stroke-width="0.2" />
<text x="38.73299370121285" y="49.470393964618914" font-size="3" text-anchor="middle" dominant-baseline="central" fill="#000">11</text>
<line x1="31.034160298655845" y1="41.16178813219898" x2="60.032365570110954" y2="44.78120218965364" stroke="#000" stroke-width="0.3" stroke-dasharray="2 1.5" />
<line x1="60.032365570110954" y1="44.78120218965364" x2="31.034160298655845" y2="41.16178813219898" stroke="#000" stroke-width="0.3" stroke-dasharray="2 1.5" />
<line x1="31.034160298655845" y1="41.16178813219898" x2="51.26298742521521" y2="31.619593616628652" stroke="#000" stroke-width="0.3" />
<polygon points="31.034160298655845,41.16178813219898 51.26298742521521,31.619593616628652 42.388902837347246,25.913611394897487 32.27448927406756,30.684708652682648" fill="none" stroke="#666" stroke-width="0.2" />
<text x="41.9165068933659" y="38.01865858270479" font-size="3" text-anchor="middle" dominant-baseline="central" fill="#000">12</text>
<line x1="51.26298742521521" y1="31.619593616628652" x2="60.032365570110954" y2="44.78120218965364" stroke="#000" stroke-width="0.3" />
<text x="55.647676497663085" y="38.200397903141145" font-size="3" text-anchor="middle" dominant-baseline="central" fill="#000">6</text>
<line x1="150.83777970362257" y1="27.059016802753266" x2="171.85416213634898" y2="34.71215945989702" stroke="#000" stroke-width="0.3" />
<text x="161.34597091998577" y="30.885588131325143" font-size="3" text-anchor="middle" dominant-baseline="central" fill="#000">12</text>
<line x1="171.85416213634898" y1="34.71215945989702" x2="161.20575927037942" y2="54.38120577534942" stroke="#000" stroke-width="0.3" />
<polygon points="171.85416213634898,34.71215945989702 161.20575927037942,54.38120577534942 171.73547851305275,53.72330534287415 177.05967994603756,43.88878218514795" fill="none" stroke="#666" stroke-width="0.2" />
<text x="164.94704431085887" y="43.68972538745482" font-size="3" text-anchor="middle" dominant-baseline="central" fill="#000">13</text>
<line x1="161.20575927037942" y1="54.38120577534942" x2="150.83777970362257" y2="27.059016802753266" stroke="#000" stroke-width="0.3" stroke-dasharray="2 1.5" />
<line x1="150.83777970362257" y1="27.059016802753266" x2="161.20575927037942" y2="54.38120577534942" stroke="#000" stroke-width="0.3" stroke-dasharray="2 1.5" />
<line x1="161.20575927037942" y1="54.38120577534942" x2="143.30820857031915" y2="40.96712565429107" stroke="#000" stroke-width="0.3" stroke-dasharray="2 1.5" />
<line x1="143.30820857031915" y1="40.96712565429107" x2="150.83777970362257" y2="27.059016802753266" stroke="#000" stroke-width="0.3" />
<text x="147.07299413697086" y="34.013071228522165" font-size="3" text-anchor="middle" dominant-baseline="central" fill="#000">8</text>
<line x1="161.20575927037942" y1="54.38120577534942" x2="174.44905800796394" y2="72.40549231053555" stroke="#000" stroke-width="0.3" stroke-dasharray="2 1.5" />
<line x1="174.44905800796394" y1="72.40549231053555" x2="163.2127615387174" y2="83.53543278355234" stroke="#000" stroke-width="0.3" stroke-dasharray="2 1.5" />
<line x1="163.2127615387174" y1="83.53543278355234" x2="161.20575927037942" y2="54.38120577534942" stroke="#000" stroke-width="0.3" stroke-dasharray="2 1.5" />
<line x1="161.20575927037942" y1="54.38120577534942" x2="163.2127615387174" y2="83.53543278355234" stroke="#000" stroke-width="0.3" stroke-dasharray="2 1.5" />
<line x1="163.2127615387174" y1="83.53543278355234" x2="145.31525141706575" y2="70.12133368839946" stroke="#000" stroke-width="0.3" />
<polygon points="163.2127615387174,83.53543278355234 145.31525141706575,70.12133368839946 144.42398930941752,80.63386251084833 153.3727443702433,87.34091205842478" fill="none" stroke="#666" stroke-width="0.2" />
<text x="155.34354114523035" y="75.38803435392902" font-size="3" text-anchor="middle" dominant-baseline="central" fill="#000">14</text>
<line x1="145.31525141706575" y1="70.12133368839946" x2="161.20575927037942" y2="54.38120577534942" stroke="#000" stroke-width="0.3" stroke-dasharray="2 1.5" />
<line x1="145.31525141706575" y1="70.12133368839946" x2="152.7682928949536" y2="91.20950800051305" stroke="#000" stroke-width="0.3" />
<text x="149.04177215600967" y="80.66542084445626" font-size="3" text-anchor="middle" dominant-baseline="central" fill="#000">14</text>
<line x1="152.7682928949536" y1="91.20950800051305" x2="138.78924559155345" y2="98.60654590544509" stroke="#000" stroke-width="0.3" />
<polygon points="152.7682928949536,91.20950800051305 138.78924559155345,98.60654590544509 145.24282257937628,102.34890535057214 152.23234623107635,98.65038639810611" fill="none" stroke="#666" stroke-width="0.2" />
<text x="144.93689443208734" y="93.31703770024231" font-size="3" text-anchor="middle" dominant-baseline="central" fill="#000">15</text>
<line x1="138.78924559155345" y1="98.60654590544509" x2="145.31525141706575" y2="70.12133368839946" stroke="#000" stroke-width="0.3" stroke-dasharray="2 1.5" />
<line x1="145.31525141706575" y1="70.12133368839946" x2="138.78924559155345" y2="98.60654590544509" stroke="#000" stroke-width="0.3" stroke-dasharray="2 1.5" />
<line x1="138.78924559155345" y1="98.60654590544509" x2="125.54588315957432" y2="80.58230616972688" stroke="#000" stroke-width="0.3" stroke-dasharray="2 1.5" />
<line x1="125.54588315957432" y1="80.58230616972688" x2="145.31525141706575" y2="70.12133368839946" stroke="#000" stroke-width="0.3" stroke-dasharray="2 1.5" />
<line x1="125.54588315957432" y1="80.58230616972688" x2="138.78924559155345" y2="98.60654590544509" stroke="#000" stroke-width="0.3" stroke-dasharray="2 1.5" />
<line x1="138.78924559155345" y1="98.60654590544509" x2="127.55298845351723" y2="109.73652608537492" stroke="#000" stroke-width="0.3" />
<polygon points="138.78924559155345,98.60654590544509 127.55298845351723,109.73652608537492 134.81404480999822,111.44853389560694 140.43217337901632,105.88354380564203" fill="none" stroke="#666" stroke-width="0.2" />
<text x="131.90438700402152" y="102.89271033872494" font-size="3" text-anchor="middle" dominant-baseline="central" fill="#000">16</text>
<line x1="127.55298845351723" y1="109.73652608537492" x2="125.54588315957432" y2="80.58230616972688" stroke="#000" stroke-width="0.3" stroke-dasharray="2 1.5" />
<line x1="125.54588315957432" y1="80.58230616972688" x2="127.55298845351723" y2="109.73652608537492" stroke="#000" stroke-width="0.3" stroke-dasharray="2 1.5" />
<line x1="127.55298845351723" y1="109.73652608537492" x2="109.6554309290453" y2="96.32249023677879" stroke="#000" stroke-width="0.3" />
<polygon points="127.55298845351723,109.73652608537492 109.6554309290453,96.32249023677879 108.76420597072483,106.83502220871661 117.71298473296079,113.54204013301467" fill="none" stroke="#666" stroke-width="0.2" />
<text x="119.68373926868816" y="101.58915546416415" font-size="3" text-anchor="middle" dominant-baseline="central" fill="#000">17</text>
<line x1="109.6554309290453" y1="96.32249023677879" x2="125.54588315957432" y2="80.58230616972688" stroke="#000" stroke-width="0.3" />
<text x="117.6006570443098" y="88.45239820325284" font-size="3" text-anchor="middle" dominant-baseline="central" fill="#000">9</text>
<line x1="103.59356439264955" y1="84.86664594508588" x2="98.09945726841259" y2="106.54782926142295" stroke="#000" stroke-width="0.3" />
<text x="100.84651083053107" y="95.70723760325441" font-size="3" text-anchor="middle" dominant-baseline="central" fill="#000">17</text>
<line x1="98.09945726841259" y1="106.54782926142295" x2="82.36488610369706" y2="104.9499545666478" stroke="#000" stroke-width="0.3" />
<polygon points="98.09945726841259,106.54782926142295 82.36488610369706,104.9499545666478 85.6593790169659,111.64325170622779 93.52666459932367,112.44218905361537" fill="none" stroke="#666" stroke-width="0.2" />
<text x="90.41402967762117" y="103.95810223601524" font-size="3" text-anchor="middle" dominant-baseline="central" fill="#000">18</text>
<line x1="82.36488610369706" y1="104.9499545666478" x2="103.59356439264955" y2="84.86664594508588" stroke="#000" stroke-width="0.3" stroke-dasharray="2 1.5" />
<line x1="103.59356439264955" y1="84.86664594508588" x2="82.36488610369706" y2="104.9499545666478" stroke="#000" stroke-width="0.3" stroke-dasharray="2 1.5" />
<line x1="82.36488610369706" y1="104.9499545666478" x2="81.34152260749573" y2="82.60688866892369" stroke="#000" stroke-width="0.3" stroke-dasharray="2 1.5" />
<line x1="81.34152260749573" y1="82.60688866892369" x2="103.59356439264955" y2="84.86664594508588" stroke="#000" stroke-width="0.3" stroke-dasharray="2 1.5" />
<line x1="81.34152260749573" y1="82.60688866892369" x2="82.36488610369706" y2="104.9499545666478" stroke="#000" stroke-width="0.3" stroke-dasharray="2 1.5" />
<line x1="82.36488610369706" y1="104.9499545666478" x2="66.84226045865603" y2="107.97948033178238" stroke="#000" stroke-width="0.3" />
<polygon points="82.36488610369706,104.9499545666478 66.84226045865603,107.97948033178238 71.93472717597012,113.43114914851515 79.69603999849065,111.91638626594786" fill="none" stroke="#666" stroke-width="0.2" />
<text x="74.25877561159245" y="104.69804980445296" font-size="3" text-anchor="middle" dominant-baseline="central" fill="#000">19</text>
<line x1="66.84226045865603" y1="107.97948033178238" x2="81.34152260749573" y2="82.60688866892369" stroke="#000" stroke-width="0.3" stroke-dasharray="2 1.5" />
<line x1="81.34152260749573" y1="82.60688866892369" x2="66.84226045865603" y2="107.97948033178238" stroke="#000" stroke-width="0.3" stroke-dasharray="2 1.5" />
<line x1="66.84226045865603" y1="107.97948033178238" x2="59.38921898076821" y2="86.89130601966879" stroke="#000" stroke-width="0.3" />
<polygon points="66.84226045865603,107.97948033178238 59.38921898076821,86.89130601966879 52.817209625394725,95.14456618885231 56.543730364338636,105.68865334490911" fill="none" stroke="#666" stroke-width="0.2" />
<text x="64.81286563769763" y="96.83559019265375" font-size="3" text-anchor="middle" dominant-baseline="central" fill="#000">20</text>
<line x1="59.38921898076821" y1="86.89130601966879" x2="81.34152260749573" y2="82.60688866892369" stroke="#000" stroke-width="0.3" />
<text x="70.36537079413198" y="84.74909734429625" font-size="3" text-anchor="middle" dominant-baseline="central" fill="#000">10</text>
<line x1="60.69869064195416" y1="73.99681578898739" x2="44.102283276296816" y2="88.99075408559108" stroke="#000" stroke-width="0.3" />
<text x="52.40048695912549" y="81.49378493728923" font-size="3" text-anchor="middle" dominant-baseline="central" fill="#000">20</text>
<line x1="44.102283276296816" y1="88.99075408559108" x2="31.895648722224518" y2="78.93451193750077" stroke="#000" stroke-width="0.3" />
<polygon points="44.102283276296816,88.99075408559108 31.895648722224518,78.93451193750077 30.924810501506464,86.33122629615227 37.02812777854261,91.35934737019743" fill="none" stroke="#666" stroke-width="0.2" />
<text x="39.14349129009638" y="82.57336634936857" font-size="3" text-anchor="middle" dominant-baseline="central" fill="#000">21</text>
<line x1="31.895648722224518" y1="78.93451193750077" x2="60.69869064195416" y2="73.99681578898739" stroke="#000" stroke-width="0.3" stroke-dasharray="2 1.5" />
<line x1="60.69869064195416" y1="73.99681578898739" x2="31.895648722224518" y2="78.93451193750077" stroke="#000" stroke-width="0.3" stroke-dasharray="2 1.5" />
<line x1="31.895648722224518" y1="78.93451193750077" x2="43.43591606152188" y2="59.77512530084283" stroke="#000" stroke-width="0.3" stroke-dasharray="2 1.5" />
<line x1="43.43591606152188" y1="59.77512530084283" x2="60.69869064195416" y2="73.99681578898739" stroke="#000" stroke-width="0.3" stroke-dasharray="2 1.5" />
<line x1="43.43591606152188" y1="59.77512530084283" x2="31.895648722224518" y2="78.93451193750077" stroke="#000" stroke-width="0.3" stroke-dasharray="2 1.5" />
<line x1="31.895648722224518" y1="78.93451193750077" x2="17.29894654547559" y2="72.84630868522731" stroke="#000" stroke-width="0.3" />
<polygon points="31.895648722224518,78.93451193750077 17.29894654547559,72.84630868522731 18.512840788753444,80.20704036899525 25.811191877127904,83.25114199513197" fill="none" stroke="#666" stroke-width="0.2" />
<text x="25.290210801150664" y="74.2291242605644" font-size="3" text-anchor="middle" dominant-baseline="central" fill="#000">22</text>
<line x1="17.29894654547559" y1="72.84630868522731" x2="43.43591606152188" y2="59.77512530084283" stroke="#000" stroke-width="0.3" stroke-dasharray="2 1.5" />
<line x1="43.43591606152188" y1="59.77512530084283" x2="17.29894654547559" y2="72.84630868522731" stroke="#000" stroke-width="0.3" stroke-dasharray="2 1.5" />
<line x1="17.29894654547559" y1="72.84630868522731" x2="22.793053669712542" y2="51.16512536889024" stroke="#000" stroke-width="0.3" />
<polygon points="17.29894654547559,72.84630868522731 22.793053669712542,51.16512536889024 12.747053562118477,54.387778348279724 10,65.22837000644827" fill="none" stroke="#666" stroke-width="0.2" />
<text x="21.79084997435632" y="62.447869650549535" font-size="3" text-anchor="middle" dominant-baseline="central" fill="#000">23</text>
<line x1="22.793053669712542" y1="51.16512536889024" x2="43.43591606152188" y2="59.77512530084283" stroke="#000" stroke-width="0.3" />
<text x="33.114484865617214" y="55.47012533486654" font-size="3" text-anchor="middle" dominant-baseline="central" fill="#000">11</text>
<line x1="180.97516449487912" y1="43.92030315535895" x2="188.4281314510334" y2="65.00850380500367" stroke="#000" stroke-width="0.3" />
<text x="184.70164797295627" y="54.46440348018131" font-size="3" text-anchor="middle" dominant-baseline="central" fill="#000">23</text>
<line x1="188.4281314510334" y1="65.00850380500367" x2="174.44905800796394" y2="72.40549231053555" stroke="#000" stroke-width="0.3" />
<polygon points="188.4281314510334,65.00850380500367 174.44905800796394,72.40549231053555 180.90262177094405,76.14787456138036 187.89215849247879,72.44938030861442" fill="none" stroke="#666" stroke-width="0.2" />
<text x="180.59672554059793" y="67.11600583001373" font-size="3" text-anchor="middle" dominant-baseline="central" fill="#000">24</text>
<line x1="174.44905800796394" y1="72.40549231053555" x2="180.97516449487912" y2="43.92030315535895" stroke="#000" stroke-width="0.3" stroke-dasharray="2 1.5" />
<line x1="180.97516449487912" y1="43.92030315535895" x2="174.44905800796394" y2="72.40549231053555" stroke="#000" stroke-width="0.3" stroke-dasharray="2 1.5" />
<line x1="174.44905800796394" y1="72.40549231053555" x2="161.20575927037942" y2="54.38120577534942" stroke="#000" stroke-width="0.3" stroke-dasharray="2 1.5" />
<line x1="161.20575927037942" y1="54.38120577534942" x2="180.97516449487912" y2="43.92030315535895" stroke="#000" stroke-width="0.3" />
<text x="171.09046188262926" y="49.15075446535418" font-size="3" text-anchor="middle" dominant-baseline="central" fill="#000">13</text>
<line x1="183.5544661973959" y1="92.83467262349048" x2="163.2127615387174" y2="83.53543278355234" stroke="#000" stroke-width="0.3" stroke-dasharray="2 1.5" />
<line x1="163.2127615387174" y1="83.53543278355234" x2="174.44905800796394" y2="72.40549231053555" stroke="#000" stroke-width="0.3" stroke-dasharray="2 1.5" />
<line x1="174.44905800796394" y1="72.40549231053555" x2="183.5544661973959" y2="92.83467262349048" stroke="#000" stroke-width="0.3" stroke-dasharray="2 1.5" />
<line x1="183.5544661973959" y1="92.83467262349048" x2="162.14733658051523" y2="99.31500194548258" stroke="#000" stroke-width="0.3" stroke-dasharray="2 1.5" />
<line x1="162.14733658051523" y1="99.31500194548258" x2="163.2127615387174" y2="83.53543278355234" stroke="#000" stroke-width="0.3" />
<text x="162.6800490596163" y="91.42521736451747" font-size="3" text-anchor="middle" dominant-baseline="central" fill="#000">15</text>
<line x1="163.2127615387174" y1="83.53543278355234" x2="183.5544661973959" y2="92.83467262349048" stroke="#000" stroke-width="0.3" stroke-dasharray="2 1.5" />
<line x1="183.5544661973959" y1="92.83467262349048" x2="171.78543605793024" y2="111.85441866800811" stroke="#000" stroke-width="0.3" stroke-dasharray="2 1.5" />
<line x1="171.78543605793024" y1="111.85441866800811" x2="162.14733658051523" y2="99.31500194548258" stroke="#000" stroke-width="0.3" />
<text x="166.96638631922275" y="105.58471030674534" font-size="3" text-anchor="middle" dominant-baseline="central" fill="#000">16</text>
<line x1="162.14733658051523" y1="99.31500194548258" x2="183.5544661973959" y2="92.83467262349048" stroke="#000" stroke-width="0.3" stroke-dasharray="2 1.5" />
<line x1="183.5544661973959" y1="92.83467262349048" x2="187.30806170297126" y2="114.88394443314269" stroke="#000" stroke-width="0.3" stroke-dasharray="2 1.5" />
<line x1="187.30806170297126" y1="114.88394443314269" x2="171.78543605793024" y2="111.85441866800811" stroke="#000" stroke-width="0.3" />
<text x="179.54674888045076" y="113.3691815505754" font-size="3" text-anchor="middle" dominant-baseline="central" fill="#000">18</text>
<line x1="171.78543605793024" y1="111.85441866800811" x2="183.5544661973959" y2="92.83467262349048" stroke="#000" stroke-width="0.3" stroke-dasharray="2 1.5" />
<line x1="183.5544661973959" y1="92.83467262349048" x2="200.9538966743263" y2="106.88887587732384" stroke="#000" stroke-width="0.3" stroke-dasharray="2 1.5" />
<line x1="200.9538966743263" y1="106.88887587732384" x2="187.30806170297126" y2="114.88394443314269" stroke="#000" stroke-width="0.3" />
<text x="194.13097918864878" y="110.88641015523326" font-size="3" text-anchor="middle" dominant-baseline="central" fill="#000">19</text>
<line x1="187.30806170297126" y1="114.88394443314269" x2="183.5544661973959" y2="92.83467262349048" stroke="#000" stroke-width="0.3" stroke-dasharray="2 1.5" />
<line x1="183.5544661973959" y1="92.83467262349048" x2="205.9" y2="91.86669244183554" stroke="#000" stroke-width="0.3" stroke-dasharray="2 1.5" />
<line x1="205.9" y1="91.86669244183554" x2="200.9538966743263" y2="106.88887587732384" stroke="#000" stroke-width="0.3" />
<text x="203.42694833716314" y="99.37778415957969" font-size="3" text-anchor="middle" dominant-baseline="central" fill="#000">21</text>
<line x1="200.9538966743263" y1="106.88887587732384" x2="183.5544661973959" y2="92.83467262349048" stroke="#000" stroke-width="0.3" stroke-dasharray="2 1.5" />
<line x1="183.5544661973959" y1="92.83467262349048" x2="199.6733785669803" y2="77.32849727161033" stroke="#000" stroke-width="0.3" />
<polygon points="183.5544661973959,92.83467262349048 199.6733785669803,77.32849727161033 189.44118033383214,74.75747616174661 181.38172414903994,82.51056383768669" fill="none" stroke="#666" stroke-width="0.2" />
<text x="192.86181999809713" y="86.37879408265876" font-size="3" text-anchor="middle" dominant-baseline="central" fill="#000">25</text>
<line x1="199.6733785669803" y1="77.32849727161033" x2="205.9" y2="91.86669244183554" stroke="#000" stroke-width="0.3" />
<text x="202.78668928349015" y="84.59759485672294" font-size="3" text-anchor="middle" dominant-baseline="central" fill="#000">22</text>
<line x1="205.9" y1="91.86669244183554" x2="183.5544661973959" y2="92.83467262349048" stroke="#000" stroke-width="0.3" stroke-dasharray="2 1.5" />
<line x1="183.5544661973959" y1="92.83467262349048" x2="174.44905800796394" y2="72.40549231053555" stroke="#000" stroke-width="0.3" stroke-dasharray="2 1.5" />
<line x1="174.44905800796394" y1="72.40549231053555" x2="190.23804139956187" y2="71.49010346553865" stroke="#000" stroke-width="0.3" />
<text x="182.3435497037629" y="71.9477978880371" font-size="3" text-anchor="middle" dominant-baseline="central" fill="#000">24</text>
<line x1="190.23804139956187" y1="71.49010346553865" x2="183.5544661973959" y2="92.83467262349048" stroke="#000" stroke-width="0.3" />
<text x="186.89625379847888" y="82.16238804451456" font-size="3" text-anchor="middle" dominant-baseline="central" fill="#000">25</text>
</svg>