<svg xmlns="http://www.w3.org/2000/svg" width="215.9mm" height="279.4mm" viewBox="0 0 215.9 279.4">
<rect x="0" y="0" width="215.9" height="279.4" fill="none" stroke="#ccc" stroke-width="0.15" />
<line x1="90.61316109603816" y1="47.6284358703903" x2="109.32402939625055" y2="33.604780303219584" stroke="#000" stroke-width="0.3" stroke-dasharray="2 1.5" />
<line x1="109.32402939625055" y1="33.604780303219584" x2="113.92211123896996" y2="49.48676372390481" stroke="#000" stroke-width="0.3" />
<polygon points="109.32402939625055,33.604780303219584 113.92211123896996,49.48676372390481 119.1253841465642,43.677035131645745 116.8263432252045,35.73604342130313" fill="none" stroke="#666" stroke-width="0.2" />
<text x="109.89407399637318" y="42.046343408219016" font-size="3" text-anchor="middle" dominant-baseline="central" fill="#000">1</text>
<line x1="113.92211123896996" y1="49.48676372390481" x2="90.61316109603816" y2="47.6284358703903" stroke="#000" stroke-width="0.3" stroke-dasharray="2 1.5" />
<line x1="90.61316109603816" y1="47.6284358703903" x2="113.92211123896996" y2="49.4867637239048" stroke="#000" stroke-width="0.3" stroke-dasharray="2 1.5" />
<line x1="113.92211123896996" y1="49.4867637239048" x2="106.865696030482" y2="64.43958146547732" stroke="#000" stroke-width="0.3" stroke-dasharray="2 1.5" />
<line x1="106.865696030482" y1="64.43958146547732" x2="90.61316109603816" y2="47.6284358703903" stroke="#000" stroke-width="0.3" />
<polygon points="106.865696030482,64.43958146547732 90.61316109603816,47.6284358703903 87.95183659161431,58.332236242939594 96.07810405883625,66.73780904048311" fill="none" stroke="#666" stroke-width="0.2" />
<text x="100.03353990226759" y="54.78289882373459" font-size="3" text-anchor="middle" dominant-baseline="central" fill="#000">2</text>
<line x1="85.095006989742" y1="55.90748871481327" x2="106.86569603048201" y2="64.43958146547732" stroke="#000" stroke-width="0.3" />
<text x="95.980351510112" y="60.17353509014529" font-size="3" text-anchor="middle" dominant-baseline="central" fill="#000">2</text>
<line x1="106.86569603048201" y1="64.43958146547732" x2="95.7795923633088" y2="76.70653135075665" stroke="#000" stroke-width="0.3" stroke-dasharray="2 1.5" />
<line x1="95.7795923633088" y1="76.70653135075665" x2="85.095006989742" y2="55.90748871481327" stroke="#000" stroke-width="0.3" stroke-dasharray="2 1.5" />
<line x1="85.095006989742" y1="55.90748871481327" x2="95.77959236330881" y2="76.70653135075665" stroke="#000" stroke-width="0.3" stroke-dasharray="2 1.5" />
<line x1="95.77959236330881" y1="76.70653135075665" x2="79.35118593406254" y2="78.57394030510116" stroke="#000" stroke-width="0.3" />
<polygon points="95.77959236330881,76.70653135075665 79.35118593406254,78.57394030510116 84.2052511231119,84.67845063821353 92.41945433773503,83.74474616104129" fill="none" stroke="#666" stroke-width="0.2" />
<text x="87.36209317948693" y="75.8517530214956" font-size="3" text-anchor="middle" dominant-baseline="central" fill="#000">3</text>
<line x1="79.35118593406254" y1="78.57394030510116" x2="85.095006989742" y2="55.90748871481327" stroke="#000" stroke-width="0.3" />
<polygon points="79.35118593406254,78.57394030510116 85.095006989742,55.90748871481327 74.59247108970696,59.27657319011345 71.72056056186725,70.6097989852574" fill="none" stroke="#666" stroke-width="0.2" />
<text x="83.96794554741783" y="67.68287021644025" font-size="3" text-anchor="middle" dominant-baseline="central" fill="#000">4</text>
<line x1="90.61316109603816" y1="47.6284358703903" x2="69.00857857530758" y2="56.57279286905007" stroke="#000" stroke-width="0.3" />
<text x="79.81086983567286" y="52.100614369720184" font-size="3" text-anchor="middle" dominant-baseline="central" fill="#000">4</text>
<line x1="69.00857857530758" y1="56.57279286905007" x2="68.49356458106229" y2="40.046616221289185" stroke="#000" stroke-width="0.3" />
<polygon points="69.00857857530758,56.57279286905007 68.49356458106229,40.046616221289185 62.011847420519246,44.38416598092752 62.2693544176419,52.647254304807966" fill="none" stroke="#666" stroke-width="0.2" />
<text x="70.55019816528849" y="48.25363741061538" font-size="3" text-anchor="middle" dominant-baseline="central" fill="#000">5</text>
<line x1="68.49356458106229" y1="40.046616221289185" x2="90.61316109603816" y2="47.6284358703903" stroke="#000" stroke-width="0.3" stroke-dasharray="2 1.5" />
<line x1="90.61316109603816" y1="47.6284358703903" x2="68.49356458106229" y2="40.046616221289185" stroke="#000" stroke-width="0.3" stroke-dasharray="2 1.5" />
<line x1="68.49356458106229" y1="40.046616221289185" x2="79.03836970251645" y2="27.311356547540093" stroke="#000" stroke-width="0.3" />
<polygon points="68.49356458106229,40.046616221289185 79.03836970251645,27.311356547540093 71.30806455265328,26.277249417395698 66.03566199192619,32.64487925427024" fill="none" stroke="#666" stroke-width="0.2" />
<text x="75.15239455092721" y="34.8269493799817" font-size="3" text-anchor="middle" dominant-baseline="central" fill="#000">6</text>
<line x1="79.03836970251645" y1="27.311356547540093" x2="90.61316109603816" y2="47.6284358703903" stroke="#000" stroke-width="0.3" stroke-dasharray="2 1.5" />
<line x1="90.61316109603816" y1="47.6284358703903" x2="79.03836970251645" y2="27.311356547540093" stroke="#000" stroke-width="0.3" stroke-dasharray="2 1.5" />
<line x1="79.03836970251645" y1="27.311356547540093" x2="95.37054869122817" y2="24.73459821817566" stroke="#000" stroke-width="0.3" />
<polygon points="79.03836970251645,27.311356547540093 95.37054869122817,24.73459821817566 90.25680061230447,18.845916205032076 82.09071111794862,20.134295369714287" fill="none" stroke="#666" stroke-width="0.2" />
<text x="87.48497867319826" y="27.800984363553344" font-size="3" text-anchor="middle" dominant-baseline="central" fill="#000">7</text>
<line x1="95.37054869122817" y1="24.73459821817566" x2="90.61316109603816" y2="47.6284358703903" stroke="#000" stroke-width="0.3" stroke-dasharray="2 1.5" />
<line x1="90.61316109603816" y1="47.6284358703903" x2="95.37054869122817" y2="24.734598218175663" stroke="#000" stroke-width="0.3" stroke-dasharray="2 1.5" />
<line x1="95.37054869122817" y1="24.734598218175663" x2="109.32402939625057" y2="33.604780303219584" stroke="#000" stroke-width="0.3" />
<polygon points="95.37054869122817,24.734598218175663 109.32402939625057,33.604780303219584 109.38373205401253,25.80584249994965 102.40699170150134,21.370751457427694" fill="none" stroke="#666" stroke-width="0.2" />
<text x="101.38163432747962" y="30.68873862426857" font-size="3" text-anchor="middle" dominant-baseline="central" fill="#000">8</text>
<line x1="109.32402939625057" y1="33.604780303219584" x2="90.61316109603816" y2="47.6284358703903" stroke="#000" stroke-width="0.3" stroke-dasharray="2 1.5" />
<line x1="116.34348869901346" y1="33.1308264165152" x2="139.72637791344826" y2="33.1308264165152" stroke="#000" stroke-width="0.3" stroke-dasharray="2 1.5" />
<line x1="139.72637791344826" y1="33.1308264165152" x2="136.30201102032612" y2="56.26161151767033" stroke="#000" stroke-width="0.3" stroke-dasharray="2 1.5" />
<line x1="136.30201102032612" y1="56.26161151767033" x2="116.34348869901346" y2="33.1308264165152" stroke="#000" stroke-width="0.3" stroke-dasharray="2 1.5" />
<line x1="116.34348869901346" y1="33.1308264165152" x2="136.30201102032612" y2="56.26161151767034" stroke="#000" stroke-width="0.3" stroke-dasharray="2 1.5" />
<line x1="136.30201102032612" y1="56.26161151767034" x2="113.92211123896996" y2="49.4867637239048" stroke="#000" stroke-width="0.3" stroke-dasharray="2 1.5" />
<line x1="113.92211123896996" y1="49.4867637239048" x2="116.34348869901346" y2="33.1308264165152" stroke="#000" stroke-width="0.3" />
<text x="115.13279996899172" y="41.308795070209996" font-size="3" text-anchor="middle" dominant-baseline="central" fill="#000">1</text>
<line x1="113.92211123896996" y1="49.4867637239048" x2="136.30201102032612" y2="56.26161151767034" stroke="#000" stroke-width="0.3" stroke-dasharray="2 1.5" />
<line x1="136.30201102032612" y1="56.26161151767034" x2="126.32275308872512" y2="77.40809867627686" stroke="#000" stroke-width="0.3" />
<polygon points="136.30201102032612,56.26161151767034 126.32275308872512,77.40809867627686 137.276162435068,76.11318005926562 142.26579140086847,65.53993647996236" fill="none" stroke="#666" stroke-width="0.2" />
<text x="129.68453886815007" y="66.0666581426899" font-size="3" text-anchor="middle" dominant-baseline="central" fill="#000">9</text>
<line x1="126.32275308872512" y1="77.40809867627686" x2="113.92211123896996" y2="49.4867637239048" stroke="#000" stroke-width="0.3" stroke-dasharray="2 1.5" />
<line x1="113.92211123896996" y1="49.4867637239048" x2="126.32275308872512" y2="77.40809867627686" stroke="#000" stroke-width="0.3" stroke-dasharray="2 1.5" />
<line x1="126.32275308872512" y1="77.40809867627686" x2="106.86569603048201" y2="64.43958146547732" stroke="#000" stroke-width="0.3" stroke-dasharray="2 1.5" />
<line x1="106.86569603048201" y1="64.43958146547732" x2="113.92211123896996" y2="49.4867637239048" stroke="#000" stroke-width="0.3" stroke-dasharray="2 1.5" />
<line x1="106.86569603048201" y1="64.43958146547732" x2="126.32275308872512" y2="77.40809867627686" stroke="#000" stroke-width="0.3" stroke-dasharray="2 1.5" />
<line x1="126.32275308872512" y1="77.40809867627686" x2="110.6446183916167" y2="94.75617062776061" stroke="#000" stroke-width="0.3" stroke-dasharray="2 1.5" />
<line x1="110.6446183916167" y1="94.75617062776061" x2="106.86569603048201" y2="64.43958146547732" stroke="#000" stroke-width="0.3" stroke-dasharray="2 1.5" />
<line x1="106.86569603048201" y1="64.43958146547732" x2="110.6446183916167" y2="94.75617062776061" stroke="#000" stroke-width="0.3" stroke-dasharray="2 1.5" />
<line x1="110.6446183916167" y1="94.75617062776061" x2="95.77959236330881" y2="76.70653135075665" stroke="#000" stroke-width="0.3" stroke-dasharray="2 1.5" />
<line x1="95.77959236330881" y1="76.70653135075665" x2="106.86569603048201" y2="64.43958146547732" stroke="#000" stroke-width="0.3" stroke-dasharray="2 1.5" />
<line x1="95.77959236330881" y1="76.70653135075665" x2="110.64461839161669" y2="94.7561706277606" stroke="#000" stroke-width="0.3" stroke-dasharray="2 1.5" />
<line x1="110.64461839161669" y1="94.7561706277606" x2="90.61263819691654" y2="106.81764970346573" stroke="#000" stroke-width="0.3" />
<polygon points="110.64461839161669,94.7561706277606 90.61263819691654,106.81764970346573 100.44522487587363,111.81507201241952 110.4612149732237,105.78433247456694" fill="none" stroke="#666" stroke-width="0.2" />
<text x="99.70014327527815" y="99.24486101934252" font-size="3" text-anchor="middle" dominant-baseline="central" fill="#000">10</text>
<line x1="90.61263819691654" y1="106.81764970346573" x2="95.77959236330881" y2="76.70653135075665" stroke="#000" stroke-width="0.3" stroke-dasharray="2 1.5" />
<line x1="95.77959236330881" y1="76.70653135075665" x2="90.61263819691654" y2="106.81764970346573" stroke="#000" stroke-width="0.3" stroke-dasharray="2 1.5" />
<line x1="90.61263819691654" y1="106.81764970346573" x2="81.61483519697579" y2="85.23527149371347" stroke="#000" stroke-width="0.3" stroke-dasharray="2 1.5" />
<line x1="81.61483519697579" y1="85.23527149371347" x2="95.77959236330881" y2="76.70653135075665" stroke="#000" stroke-width="0.3" />
<text x="88.6972137801423" y="80.97090142223506" font-size="3" text-anchor="middle" dominant-baseline="central" fill="#000">3</text>
<line x1="81.61483519697579" y1="85.23527149371347" x2="90.61263819691654" y2="106.81764970346573" stroke="#000" stroke-width="0.3" stroke-dasharray="2 1.5" />
<line x1="90.61263819691654" y1="106.81764970346573" x2="67.94524554989216" y2="112.55775585232371" stroke="#000" stroke-width="0.3" stroke-dasharray="2 1.5" />
<line x1="67.94524554989216" y1="112.55775585232371" x2="81.61483519697579" y2="85.23527149371347" stroke="#000" stroke-width="0.3" stroke-dasharray="2 1.5" />
<line x1="81.61483519697579" y1="85.23527149371347" x2="67.94524554989216" y2="112.55775585232371" stroke="#000" stroke-width="0.3" stroke-dasharray="2 1.5" />
<line x1="67.94524554989216" y1="112.55775585232371" x2="65.58657201358429" y2="89.29415475530186" stroke="#000" stroke-width="0.3" stroke-dasharray="2 1.5" />
<line x1="65.58657201358429" y1="89.29415475530186" x2="81.61483519697579" y2="85.23527149371347" stroke="#000" stroke-width="0.3" />
<text x="73.60070360528005" y="87.26471312450767" font-size="3" text-anchor="middle" dominant-baseline="central" fill="#000">5</text>
<line x1="65.58657201358429" y1="89.29415475530186" x2="67.94524554989216" y2="112.5577558523237" stroke="#000" stroke-width="0.3" stroke-dasharray="2 1.5" />
<line x1="67.94524554989216" y1="112.5577558523237" x2="44.58701656415651" y2="111.484142018364" stroke="#000" stroke-width="0.3" />
<polygon points="67.94524554989216,112.5577558523237 44.58701656415651,111.484142018364 49.997128277006546,121.0958370711482 61.67624276987438,121.63264398812802" fill="none" stroke="#666" stroke-width="0.2" />
<text x="56.3487771698894" y="110.22284726412826" font-size="3" text-anchor="middle" dominant-baseline="central" fill="#000">11</text>
<line x1="44.58701656415651" y1="111.484142018364" x2="65.58657201358429" y2="89.29415475530186" stroke="#000" stroke-width="0.3" stroke-dasharray="2 1.5" />
<line x1="65.58657201358429" y1="89.29415475530186" x2="44.58701656415651" y2="111.48414201836401" stroke="#000" stroke-width="0.3" stroke-dasharray="2 1.5" />
<line x1="44.58701656415651" y1="111.48414201836401" x2="49.06981062494221" y2="88.53497938825664" stroke="#000" stroke-width="0.3" stroke-dasharray="2 1.5" />
<line x1="49.06981062494221" y1="88.53497938825664" x2="65.58657201358429" y2="89.29415475530186" stroke="#000" stroke-width="0.3" />
<text x="57.32819131926325" y="88.91456707177926" font-size="3" text-anchor="middle" dominant-baseline="central" fill="#000">6</text>
<line x1="49.06981062494221" y1="88.53497938825664" x2="44.58701656415651" y2="111.484142018364" stroke="#000" stroke-width="0.3" stroke-dasharray="2 1.5" />
<line x1="44.58701656415651" y1="111.484142018364" x2="22.541776014506397" y2="103.68883079156912" stroke="#000" stroke-width="0.3" stroke-dasharray="2 1.5" />
<line x1="22.541776014506397" y1="103.68883079156912" x2="49.06981062494221" y2="88.53497938825664" stroke="#000" stroke-width="0.3" stroke-dasharray="2 1.5" />
<line x1="49.06981062494221" y1="88.53497938825664" x2="22.541776014506397" y2="103.68883079156912" stroke="#000" stroke-width="0.3" stroke-dasharray="2 1.5" />
<line x1="22.541776014506397" y1="103.68883079156912" x2="33.48146628495765" y2="83.02287681797213" stroke="#000" stroke-width="0.3" />
<polygon points="22.541776014506397,103.68883079156912 33.48146628495765,83.02287681797213 22.480162127906038,83.81348920319087 17.010316992680423,94.14646618998935" fill="none" stroke="#666" stroke-width="0.2" />
<text x="29.60247469605348" y="94.19798502622986" font-size="3" text-anchor="middle" dominant-baseline="central" fill="#000">12</text>
<line x1="33.48146628495765" y1="83.02287681797213" x2="49.06981062494221" y2="88.53497938825664" stroke="#000" stroke-width="0.3" />
<text x="41.27563845494993" y="85.7789281031144" font-size="3" text-anchor="middle" dominant-baseline="central" fill="#000">7</text>
<line x1="113.92211123902126" y1="16.774889109118" x2="136.30201102037742" y2="10.00004131535247" stroke="#000" stroke-width="0.3" />
<text x="125.11206112969934" y="13.387465212235234" font-size="3" text-anchor="middle" dominant-baseline="central" fill="#000">12</text>
<line x1="136.30201102037742" y1="10.00004131535247" x2="139.72637791344826" y2="33.1308264165152" stroke="#000" stroke-width="0.3" stroke-dasharray="2 1.5" />
<line x1="139.72637791344826" y1="33.1308264165152" x2="113.92211123902126" y2="16.774889109118" stroke="#000" stroke-width="0.3" stroke-dasharray="2 1.5" />
<line x1="113.92211123902126" y1="16.774889109118" x2="139.72637791344826" y2="33.1308264165152" stroke="#000" stroke-width="0.3" stroke-dasharray="2 1.5" />
<line x1="139.72637791344826" y1="33.1308264165152" x2="116.34348869901346" y2="33.1308264165152" stroke="#000" stroke-width="0.3" stroke-dasharray="2 1.5" />
<line x1="116.34348869901346" y1="33.1308264165152" x2="113.92211123902126" y2="16.774889109118" stroke="#000" stroke-width="0.3" />
<text x="115.13279996901736" y="24.9528577628166" font-size="3" text-anchor="middle" dominant-baseline="central" fill="#000">8</text>
<line x1="139.72637791344826" y1="33.1308264165152" x2="162.10628682797247" y2="39.90572014203836" stroke="#000" stroke-width="0.3" />
<polygon points="139.72637791344826,33.1308264165152 162.10628682797247,39.90572014203836 159.22126708955068,29.2600331448479 148.03131263228858,25.872586282086317" fill="none" stroke="#666" stroke-width="0.2" />
<text x="150.3948053432285" y="38.2410644911205" font-size="3" text-anchor="middle" dominant-baseline="central" fill="#000">13</text>
<line x1="162.10628682797247" y1="39.90572014203836" x2="159.68487818520833" y2="56.26165283302279" stroke="#000" stroke-width="0.3" stroke-dasharray="2 1.5" />
<line x1="159.68487818520833" y1="56.26165283302279" x2="139.72637791344826" y2="33.1308264165152" stroke="#000" stroke-width="0.3" stroke-dasharray="2 1.5" />
<line x1="139.72637791344826" y1="33.1308264165152" x2="159.68487818520833" y2="56.26165283302279" stroke="#000" stroke-width="0.3" stroke-dasharray="2 1.5" />
<line x1="159.68487818520833" y1="56.26165283302279" x2="136.30201102032612" y2="56.26161151767033" stroke="#000" stroke-width="0.3" />
<polygon points="159.68487818520833,56.26165283302279 136.30201102032612,56.26161151767033 142.1477112854057,65.61476871246134 153.8391448678468,65.61478937013757" fill="none" stroke="#666" stroke-width="0.2" />
<text x="147.99344778319988" y="54.46163217534937" font-size="3" text-anchor="middle" dominant-baseline="central" fill="#000">14</text>
<line x1="136.30201102032612" y1="56.26161151767033" x2="139.72637791344826" y2="33.1308264165152" stroke="#000" stroke-width="0.3" stroke-dasharray="2 1.5" />
<line x1="146.3547759063246" y1="65.3466903899404" x2="155.35253228751426" y2="86.92906414624896" stroke="#000" stroke-width="0.3" />
<text x="150.85365409691943" y="76.13787726809468" font-size="3" text-anchor="middle" dominant-baseline="central" fill="#000">14</text>
<line x1="155.35253228751426" y1="86.92906414624896" x2="141.18776124232926" y2="95.45778123879896" stroke="#000" stroke-width="0.3" />
<polygon points="155.35253228751426,86.92906414624896 141.18776124232926,95.45778123879896 148.1404408406455,98.99151038373546 155.22282636323803,94.72715183746045" fill="none" stroke="#666" stroke-width="0.2" />
<text x="147.34166572528758" y="89.65137115024666" font-size="3" text-anchor="middle" dominant-baseline="central" fill="#000">15</text>
<line x1="141.18776124232926" y1="95.45778123879896" x2="146.3547759063246" y2="65.3466903899404" stroke="#000" stroke-width="0.3" stroke-dasharray="2 1.5" />
<line x1="146.3547759063246" y1="65.3466903899404" x2="141.18776124232926" y2="95.45778123879896" stroke="#000" stroke-width="0.3" stroke-dasharray="2 1.5" />
<line x1="141.18776124232926" y1="95.45778123879896" x2="126.32275308872512" y2="77.40809867627686" stroke="#000" stroke-width="0.3" stroke-dasharray="2 1.5" />
<line x1="126.32275308872512" y1="77.40809867627686" x2="146.3547759063246" y2="65.3466903899404" stroke="#000" stroke-width="0.3" />
<text x="136.33876449752486" y="71.37739453310863" font-size="3" text-anchor="middle" dominant-baseline="central" fill="#000">9</text>
<line x1="126.32275308872512" y1="77.40809867627686" x2="141.18776124232923" y2="95.45778123879894" stroke="#000" stroke-width="0.3" stroke-dasharray="2 1.5" />
<line x1="141.18776124232923" y1="95.45778123879894" x2="130.10163418813835" y2="107.72470998831089" stroke="#000" stroke-width="0.3" />
<polygon points="141.18776124232923,95.45778123879894 130.10163418813835,107.72470998831089 137.77993745149087,109.09242862260926 143.32300097858632,102.9589642478533" fill="none" stroke="#666" stroke-width="0.2" />
<text x="134.30925527589972" y="100.384351462759" font-size="3" text-anchor="middle" dominant-baseline="central" fill="#000">16</text>
<line x1="130.10163418813835" y1="107.72470998831089" x2="126.32275308872512" y2="77.40809867627686" stroke="#000" stroke-width="0.3" stroke-dasharray="2 1.5" />
<line x1="126.32275308872512" y1="77.40809867627686" x2="130.10163418813835" y2="107.72470998831089" stroke="#000" stroke-width="0.3" stroke-dasharray="2 1.5" />
<line x1="130.10163418813835" y1="107.72470998831089" x2="110.64461839161672" y2="94.7561706277606" stroke="#000" stroke-width="0.3" />
<polygon points="130.10163418813835,107.72470998831089 110.64461839161672,94.7561706277606 110.321456596527,105.78111178650683 120.04996449478783,112.26538146678197" fill="none" stroke="#666" stroke-width="0.2" />
<text x="121.37143717640613" y="99.74265014454872" font-size="3" text-anchor="middle" dominant-baseline="central" fill="#000">17</text>
<line x1="110.64461839161672" y1="94.7561706277606" x2="126.32275308872512" y2="77.40809867627686" stroke="#000" stroke-width="0.3" stroke-dasharray="2 1.5" />
<line x1="113.9708633885547" y1="107.89134608105687" x2="109.48803300594703" y2="130.84047914993346" stroke="#000" stroke-width="0.3" />
<text x="111.72944819725086" y="119.36591261549516" font-size="3" text-anchor="middle" dominant-baseline="central" fill="#000">17</text>
<line x1="109.48803300594703" y1="130.84047914993346" x2="92.97127285273751" y2="130.0812769050629" stroke="#000" stroke-width="0.3" />
<polygon points="109.48803300594703,130.84047914993346 92.97127285273751,130.0812769050629 96.79678199309168,136.87778152756434 105.05516206969644,137.2573826499996" fill="none" stroke="#666" stroke-width="0.2" />
<text x="101.31230368231728" y="128.66277656956188" font-size="3" text-anchor="middle" dominant-baseline="central" fill="#000">18</text>
<line x1="92.97127285273751" y1="130.0812769050629" x2="113.9708633885547" y2="107.89134608105687" stroke="#000" stroke-width="0.3" stroke-dasharray="2 1.5" />
<line x1="113.9708633885547" y1="107.89134608105687" x2="92.97127285273751" y2="130.0812769050629" stroke="#000" stroke-width="0.3" stroke-dasharray="2 1.5" />
<line x1="92.97127285273751" y1="130.0812769050629" x2="90.61263819691654" y2="106.81764970346573" stroke="#000" stroke-width="0.3" stroke-dasharray="2 1.5" />
<line x1="90.61263819691654" y1="106.81764970346573" x2="113.9708633885547" y2="107.89134608105687" stroke="#000" stroke-width="0.3" />
<text x="102.29175079273563" y="107.35449789226129" font-size="3" text-anchor="middle" dominant-baseline="central" fill="#000">10</text>
<line x1="90.61263819691654" y1="106.81764970346573" x2="92.97127285273751" y2="130.0812769050629" stroke="#000" stroke-width="0.3" stroke-dasharray="2 1.5" />
<line x1="92.97127285273751" y1="130.0812769050629" x2="76.94300193108181" y2="134.14012960863226" stroke="#000" stroke-width="0.3" />
<polygon points="92.97127285273751,130.0812769050629 76.94300193108181,134.14012960863226 82.57361074292348,139.5367248014022 90.58774620375134,137.5072984496175" fill="none" stroke="#666" stroke-width="0.2" />
<text x="84.51526931995498" y="130.36578130816707" font-size="3" text-anchor="middle" dominant-baseline="central" fill="#000">19</text>
<line x1="76.94300193108181" y1="134.14012960863226" x2="90.61263819691654" y2="106.81764970346573" stroke="#000" stroke-width="0.3" stroke-dasharray="2 1.5" />
<line x1="90.61263819691654" y1="106.81764970346573" x2="76.94300193108181" y2="134.14012960863226" stroke="#000" stroke-width="0.3" stroke-dasharray="2 1.5" />
<line x1="76.94300193108181" y1="134.14012960863226" x2="67.94524554989218" y2="112.5577558523237" stroke="#000" stroke-width="0.3" />
<polygon points="76.94300193108181,134.14012960863226 67.94524554989218,112.5577558523237 61.561735142666166,121.5524518438767 66.06061333326099,132.34363872203096" fill="none" stroke="#666" stroke-width="0.2" />
<text x="74.10552276770463" y="122.65630049067428" font-size="3" text-anchor="middle" dominant-baseline="central" fill="#000">20</text>
<line x1="67.94524554989218" y1="112.5577558523237" x2="90.61263819691654" y2="106.81764970346573" stroke="#000" stroke-width="0.3" stroke-dasharray="2 1.5" />
<line x1="63.428061669440766" y1="125.33241004563642" x2="46.96991955602273" y2="141.942287679947" stroke="#000" stroke-width="0.3" />
<text x="55.19899061273175" y="133.6373488627917" font-size="3" text-anchor="middle" dominant-baseline="central" fill="#000">20</text>
<line x1="46.96991955602273" y1="141.942287679947" x2="33.64727946298741" y2="132.15009615002307" stroke="#000" stroke-width="0.3" />
<polygon points="46.96991955602273,141.942287679947 33.64727946298741,132.15009615002307 33.061062874276665,139.9272000697182 39.72238292079433,144.82329583468015" fill="none" stroke="#666" stroke-width="0.2" />
<text x="41.374629027583794" y="135.59581918131107" font-size="3" text-anchor="middle" dominant-baseline="central" fill="#000">21</text>
<line x1="33.64727946298741" y1="132.15009615002307" x2="63.428061669440766" y2="125.33241004563642" stroke="#000" stroke-width="0.3" stroke-dasharray="2 1.5" />
<line x1="63.428061669440766" y1="125.33241004563642" x2="33.64727946298741" y2="132.15009615002307" stroke="#000" stroke-width="0.3" stroke-dasharray="2 1.5" />
<line x1="33.64727946298741" y1="132.15009615002307" x2="44.58701656415651" y2="111.484142018364" stroke="#000" stroke-width="0.3" stroke-dasharray="2 1.5" />
<line x1="44.58701656415651" y1="111.484142018364" x2="63.428061669440766" y2="125.33241004563642" stroke="#000" stroke-width="0.3" />
<text x="54.00753911679864" y="118.4082760320002" font-size="3" text-anchor="middle" dominant-baseline="central" fill="#000">11</text>
<line x1="44.58701656415651" y1="111.484142018364" x2="33.6472794629874" y2="132.15009615002307" stroke="#000" stroke-width="0.3" stroke-dasharray="2 1.5" />
<line x1="33.6472794629874" y1="132.15009615002307" x2="18.058945631898716" y2="126.63796386044568" stroke="#000" stroke-width="0.3" />
<polygon points="33.6472794629874,132.15009615002307 18.058945631898716,126.63796386044568 19.751176173839934,134.2513304652755 27.545343089384275,137.00739661006418" fill="none" stroke="#666" stroke-width="0.2" />
<text x="26.453192285496343" y="127.69700192415326" font-size="3" text-anchor="middle" dominant-baseline="central" fill="#000">22</text>
<line x1="18.058945631898716" y1="126.63796386044568" x2="44.58701656415651" y2="111.484142018364" stroke="#000" stroke-width="0.3" stroke-dasharray="2 1.5" />
<line x1="44.58701656415651" y1="111.484142018364" x2="18.058945631898716" y2="126.63796386044568" stroke="#000" stroke-width="0.3" stroke-dasharray="2 1.5" />
<line x1="18.058945631898716" y1="126.63796386044568" x2="22.541776014506397" y2="103.68883079156912" stroke="#000" stroke-width="0.3" />
<polygon points="18.058945631898716,126.63796386044568 22.541776014506397,103.68883079156912 12.241415191303854,107.63298190574518 10,119.10754844018346" fill="none" stroke="#666" stroke-width="0.2" />
<text x="22.06697221575038" y="115.50848309465086" font-size="3" text-anchor="middle" dominant-baseline="central" fill="#000">23</text>
<line x1="22.541776014506397" y1="103.68883079156912" x2="44.58701656415651" y2="111.484142018364" stroke="#000" stroke-width="0.3" stroke-dasharray="2 1.5" />
<line x1="136.3020110203774" y1="10.00004131535246" x2="159.68487818525966" y2="10" stroke="#000" stroke-width="0.3" />
<text x="147.99344460281853" y="10.000020657676231" font-size="3" text-anchor="middle" dominant-baseline="central" fill="#000">23</text>
<line x1="159.68487818525966" y1="10" x2="162.10628682797247" y2="26.355932690992034" stroke="#000" stroke-width="0.3" />
<polygon points="159.68487818525966,10 162.10628682797247,26.355932690992034 168.0433077436911,21.298386061158904 166.83260342233464,13.120419715662887" fill="none" stroke="#666" stroke-width="0.2" />
<text x="159.11498957284593" y="18.44157363714004" font-size="3" text-anchor="middle" dominant-baseline="central" fill="#000">24</text>
<line x1="162.10628682797247" y1="26.355932690992034" x2="136.3020110203774" y2="10.00004131535246" stroke="#000" stroke-width="0.3" stroke-dasharray="2 1.5" />
<line x1="136.3020110203774" y1="10.00004131535246" x2="162.10628682797247" y2="26.355932690992034" stroke="#000" stroke-width="0.3" stroke-dasharray="2 1.5" />
<line x1="162.10628682797247" y1="26.355932690992034" x2="139.72637791344826" y2="33.1308264165152" stroke="#000" stroke-width="0.3" />
<text x="150.91633237071036" y="29.743379553753616" font-size="3" text-anchor="middle" dominant-baseline="central" fill="#000">13</text>
<line x1="139.72637791344826" y1="33.1308264165152" x2="136.3020110203774" y2="10.00004131535246" stroke="#000" stroke-width="0.3" stroke-dasharray="2 1.5" />
<line x1="182.5324639125382" y1="51.286879912663345" x2="159.68487818520833" y2="56.26165283302279" stroke="#000" stroke-width="0.3" stroke-dasharray="2 1.5" />
<line x1="159.68487818520833" y1="56.26165283302279" x2="162.10628682797247" y2="39.90572014203836" stroke="#000" stroke-width="0.3" stroke-dasharray="2 1.5" />
<line x1="162.10628682797247" y1="39.90572014203836" x2="182.5324639125382" y2="51.286879912663345" stroke="#000" stroke-width="0.3" stroke-dasharray="2 1.5" />
<line x1="182.5324639125382" y1="51.286879912663345" x2="168.68728395079583" y2="70.13019437274437" stroke="#000" stroke-width="0.3" stroke-dasharray="2 1.5" />
<line x1="168.68728395079583" y1="70.13019437274437" x2="159.68487818520833" y2="56.26165283302279" stroke="#000" stroke-width="0.3" />
<text x="164.18608106800207" y="63.19592360288358" font-size="3" text-anchor="middle" dominant-baseline="central" fill="#000">15</text>
<line x1="159.68487818520833" y1="56.26165283302279" x2="182.5324639125382" y2="51.286879912663345" stroke="#000" stroke-width="0.3" stroke-dasharray="2 1.5" />
<line x1="182.5324639125382" y1="51.286879912663345" x2="184.61225358590687" y2="74.57711422001579" stroke="#000" stroke-width="0.3" stroke-dasharray="2 1.5" />
<line x1="184.61225358590687" y1="74.57711422001579" x2="168.68728395079583" y2="70.13019437274437" stroke="#000" stroke-width="0.3" />
<text x="176.64976876835135" y="72.35365429638009" font-size="3" text-anchor="middle" dominant-baseline="central" fill="#000">16</text>
<line x1="168.68728395079583" y1="70.13019437274437" x2="182.5324639125382" y2="51.286879912663345" stroke="#000" stroke-width="0.3" stroke-dasharray="2 1.5" />
<line x1="182.5324639125382" y1="51.28687991266334" x2="199.49732642314532" y2="67.37889495151809" stroke="#000" stroke-width="0.3" stroke-dasharray="2 1.5" />
<line x1="199.49732642314532" y1="67.37889495151809" x2="184.61225358590687" y2="74.57711422001579" stroke="#000" stroke-width="0.3" />
<text x="192.0547900045261" y="70.97800458576694" font-size="3" text-anchor="middle" dominant-baseline="central" fill="#000">18</text>
<line x1="184.61225358590687" y1="74.57711422001579" x2="182.5324639125382" y2="51.28687991266334" stroke="#000" stroke-width="0.3" stroke-dasharray="2 1.5" />
<line x1="182.5324639125382" y1="51.28687991266333" x2="205.9" y2="52.134698512364174" stroke="#000" stroke-width="0.3" stroke-dasharray="2 1.5" />
<line x1="205.9" y1="52.134698512364174" x2="199.49732642314532" y2="67.37889495151809" stroke="#000" stroke-width="0.3" />
<text x="202.69866321157266" y="59.75679673194114" font-size="3" text-anchor="middle" dominant-baseline="central" fill="#000">19</text>
<line x1="199.49732642314532" y1="67.37889495151809" x2="182.5324639125382" y2="51.28687991266333" stroke="#000" stroke-width="0.3" stroke-dasharray="2 1.5" />
<line x1="182.5324639125382" y1="51.28687991266333" x2="200.61888349813725" y2="36.46659197388866" stroke="#000" stroke-width="0.3" />
<polygon points="182.5324639125382,51.28687991266333 200.61888349813725,36.46659197388866 190.16916342622764,32.9370961243427 181.12595363342808,40.347240093730036" fill="none" stroke="#666" stroke-width="0.2" />
<text x="192.71653008305714" y="45.269017066259764" font-size="3" text-anchor="middle" dominant-baseline="central" fill="#000">25</text>
<line x1="200.61888349813725" y1="36.46659197388866" x2="205.9" y2="52.134698512364174" stroke="#000" stroke-width="0.3" />
<text x="203.25944174906863" y="44.30064524312642" font-size="3" text-anchor="middle" dominant-baseline="central" fill="#000">21</text>
<line x1="205.9" y1="52.134698512364174" x2="182.5324639125382" y2="51.28687991266333" stroke="#000" stroke-width="0.3" stroke-dasharray="2 1.5" />
<line x1="182.5324639125382" y1="51.286879912663345" x2="174.74074549022583" y2="29.240345872043118" stroke="#000" stroke-width="0.3" stroke-dasharray="2 1.5" />
<line x1="174.74074549022583" y1="29.240345872043118" x2="191.2710707110258" y2="29.59825941167347" stroke="#000" stroke-width="0.3" />
<text x="183.00590810062582" y="29.419302641858295" font-size="3" text-anchor="middle" dominant-baseline="central" fill="#000">22</text>
<line x1="191.2710707110258" y1="29.59825941167347" x2="182.5324639125382" y2="51.286879912663345" stroke="#000" stroke-width="0.3" />
<text x="186.901767311782" y="40.44256966216841" font-size="3" text-anchor="middle" dominant-baseline="central" fill="#000">25</text>
<line x1="182.5324639125382" y1="51.286879912663345" x2="162.10628682797247" y2="39.90572014203836" stroke="#000" stroke-width="0.3" stroke-dasharray="2 1.5" />
<line x1="162.10628682797247" y1="39.90572014203836" x2="174.74074549022583" y2="29.240345872043118" stroke="#000" stroke-width="0.3" />
<text x="168.42351615909917" y="34.57303300704074" font-size="3" text-anchor="middle" dominant-baseline="central" fill="#000">24</text>
<line x1="174.74074549022583" y1="29.240345872043118" x2="182.5324639125382" y2="51.286879912663345" stroke="#000" stroke-width="0.3" stroke-dasharray="2 1.5" />
</svg>